ISO-10303-21;
HEADER;
/* Generated by software containing ST-Developer
 * from STEP Tools, Inc. (www.steptools.com) 
 */

FILE_DESCRIPTION(
/* description */ (''),
/* implementation_level */ '2;1');

FILE_NAME(
/* name */ 'COVER (2).step',
/* time_stamp */ '2026-03-23T18:13:02-05:00',
/* author */ (''),
/* organization */ (''),
/* preprocessor_version */ 'ST-DEVELOPER v20.1',
/* originating_system */ 'Autodesk Translation Framework v14.24.0.0',
/* authorisation */ '');

FILE_SCHEMA (('AUTOMOTIVE_DESIGN { 1 0 10303 214 3 1 1 }'));
ENDSEC;

DATA;
#10=MECHANICAL_DESIGN_GEOMETRIC_PRESENTATION_REPRESENTATION('',(#13),#547);
#11=SHAPE_REPRESENTATION_RELATIONSHIP('SRR','None',#554,#12);
#12=ADVANCED_BREP_SHAPE_REPRESENTATION('',(#14),#546);
#13=STYLED_ITEM('',(#563),#14);
#14=MANIFOLD_SOLID_BREP('Front body cover ',#331);
#15=PLANE('',#353);
#16=PLANE('',#354);
#17=PLANE('',#355);
#18=PLANE('',#356);
#19=PLANE('',#357);
#20=PLANE('',#358);
#21=PLANE('',#359);
#22=PLANE('',#360);
#23=PLANE('',#361);
#24=PLANE('',#362);
#25=PLANE('',#363);
#26=PLANE('',#364);
#27=PLANE('',#365);
#28=PLANE('',#366);
#29=FACE_OUTER_BOUND('',#47,.T.);
#30=FACE_OUTER_BOUND('',#48,.T.);
#31=FACE_OUTER_BOUND('',#49,.T.);
#32=FACE_OUTER_BOUND('',#50,.T.);
#33=FACE_OUTER_BOUND('',#51,.T.);
#34=FACE_OUTER_BOUND('',#52,.T.);
#35=FACE_OUTER_BOUND('',#53,.T.);
#36=FACE_OUTER_BOUND('',#54,.T.);
#37=FACE_OUTER_BOUND('',#55,.T.);
#38=FACE_OUTER_BOUND('',#56,.T.);
#39=FACE_OUTER_BOUND('',#57,.T.);
#40=FACE_OUTER_BOUND('',#58,.T.);
#41=FACE_OUTER_BOUND('',#59,.T.);
#42=FACE_OUTER_BOUND('',#60,.T.);
#43=FACE_OUTER_BOUND('',#61,.T.);
#44=FACE_OUTER_BOUND('',#62,.T.);
#45=FACE_OUTER_BOUND('',#63,.T.);
#46=FACE_OUTER_BOUND('',#64,.T.);
#47=EDGE_LOOP('',(#221,#222,#223,#224));
#48=EDGE_LOOP('',(#225,#226,#227,#228));
#49=EDGE_LOOP('',(#229,#230,#231,#232));
#50=EDGE_LOOP('',(#233,#234,#235,#236));
#51=EDGE_LOOP('',(#237,#238,#239,#240,#241,#242,#243,#244,#245,#246,#247,
#248));
#52=EDGE_LOOP('',(#249,#250,#251,#252));
#53=EDGE_LOOP('',(#253,#254,#255,#256));
#54=EDGE_LOOP('',(#257,#258,#259,#260));
#55=EDGE_LOOP('',(#261,#262,#263,#264));
#56=EDGE_LOOP('',(#265,#266,#267,#268));
#57=EDGE_LOOP('',(#269,#270,#271,#272));
#58=EDGE_LOOP('',(#273,#274,#275,#276));
#59=EDGE_LOOP('',(#277,#278,#279,#280));
#60=EDGE_LOOP('',(#281,#282,#283,#284));
#61=EDGE_LOOP('',(#285,#286,#287,#288));
#62=EDGE_LOOP('',(#289,#290,#291,#292));
#63=EDGE_LOOP('',(#293,#294,#295,#296,#297,#298,#299,#300,#301,#302,#303,
#304));
#64=EDGE_LOOP('',(#305,#306,#307,#308));
#65=ELLIPSE('',#346,0.707106781186549,0.5);
#66=ELLIPSE('',#347,0.707106781186551,0.5);
#67=ELLIPSE('',#349,0.707106781186549,0.5);
#68=ELLIPSE('',#351,0.707106781186548,0.5);
#69=LINE('',#457,#109);
#70=LINE('',#461,#110);
#71=LINE('',#465,#111);
#72=LINE('',#468,#112);
#73=LINE('',#471,#113);
#74=LINE('',#474,#114);
#75=LINE('',#476,#115);
#76=LINE('',#477,#116);
#77=LINE('',#480,#117);
#78=LINE('',#482,#118);
#79=LINE('',#484,#119);
#80=LINE('',#486,#120);
#81=LINE('',#488,#121);
#82=LINE('',#490,#122);
#83=LINE('',#492,#123);
#84=LINE('',#494,#124);
#85=LINE('',#496,#125);
#86=LINE('',#498,#126);
#87=LINE('',#499,#127);
#88=LINE('',#502,#128);
#89=LINE('',#503,#129);
#90=LINE('',#508,#130);
#91=LINE('',#509,#131);
#92=LINE('',#510,#132);
#93=LINE('',#513,#133);
#94=LINE('',#514,#134);
#95=LINE('',#518,#135);
#96=LINE('',#519,#136);
#97=LINE('',#520,#137);
#98=LINE('',#523,#138);
#99=LINE('',#524,#139);
#100=LINE('',#527,#140);
#101=LINE('',#528,#141);
#102=LINE('',#531,#142);
#103=LINE('',#532,#143);
#104=LINE('',#534,#144);
#105=LINE('',#537,#145);
#106=LINE('',#538,#146);
#107=LINE('',#540,#147);
#108=LINE('',#542,#148);
#109=VECTOR('',#371,10.);
#110=VECTOR('',#374,10.);
#111=VECTOR('',#379,10.);
#112=VECTOR('',#382,10.);
#113=VECTOR('',#385,10.);
#114=VECTOR('',#388,10.);
#115=VECTOR('',#391,10.);
#116=VECTOR('',#392,10.);
#117=VECTOR('',#395,10.);
#118=VECTOR('',#396,10.);
#119=VECTOR('',#397,10.);
#120=VECTOR('',#398,10.);
#121=VECTOR('',#399,10.);
#122=VECTOR('',#400,10.);
#123=VECTOR('',#401,10.);
#124=VECTOR('',#402,10.);
#125=VECTOR('',#403,10.);
#126=VECTOR('',#404,10.);
#127=VECTOR('',#405,10.);
#128=VECTOR('',#408,10.);
#129=VECTOR('',#409,10.);
#130=VECTOR('',#414,10.);
#131=VECTOR('',#415,10.);
#132=VECTOR('',#416,10.);
#133=VECTOR('',#419,10.);
#134=VECTOR('',#420,10.);
#135=VECTOR('',#423,10.);
#136=VECTOR('',#424,10.);
#137=VECTOR('',#425,10.);
#138=VECTOR('',#428,10.);
#139=VECTOR('',#429,10.);
#140=VECTOR('',#432,10.);
#141=VECTOR('',#433,10.);
#142=VECTOR('',#436,10.);
#143=VECTOR('',#437,10.);
#144=VECTOR('',#440,10.);
#145=VECTOR('',#443,10.);
#146=VECTOR('',#444,10.);
#147=VECTOR('',#447,10.);
#148=VECTOR('',#450,10.);
#149=VERTEX_POINT('',#455);
#150=VERTEX_POINT('',#456);
#151=VERTEX_POINT('',#458);
#152=VERTEX_POINT('',#460);
#153=VERTEX_POINT('',#464);
#154=VERTEX_POINT('',#466);
#155=VERTEX_POINT('',#470);
#156=VERTEX_POINT('',#472);
#157=VERTEX_POINT('',#479);
#158=VERTEX_POINT('',#481);
#159=VERTEX_POINT('',#483);
#160=VERTEX_POINT('',#485);
#161=VERTEX_POINT('',#487);
#162=VERTEX_POINT('',#489);
#163=VERTEX_POINT('',#491);
#164=VERTEX_POINT('',#493);
#165=VERTEX_POINT('',#495);
#166=VERTEX_POINT('',#497);
#167=VERTEX_POINT('',#501);
#168=VERTEX_POINT('',#506);
#169=VERTEX_POINT('',#507);
#170=VERTEX_POINT('',#512);
#171=VERTEX_POINT('',#516);
#172=VERTEX_POINT('',#517);
#173=VERTEX_POINT('',#522);
#174=VERTEX_POINT('',#526);
#175=VERTEX_POINT('',#530);
#176=VERTEX_POINT('',#536);
#177=EDGE_CURVE('',#149,#150,#69,.T.);
#178=EDGE_CURVE('',#150,#151,#65,.T.);
#179=EDGE_CURVE('',#151,#152,#70,.T.);
#180=EDGE_CURVE('',#149,#152,#66,.T.);
#181=EDGE_CURVE('',#150,#153,#71,.T.);
#182=EDGE_CURVE('',#153,#154,#67,.T.);
#183=EDGE_CURVE('',#154,#151,#72,.T.);
#184=EDGE_CURVE('',#153,#155,#73,.T.);
#185=EDGE_CURVE('',#155,#156,#68,.T.);
#186=EDGE_CURVE('',#156,#154,#74,.T.);
#187=EDGE_CURVE('',#152,#156,#75,.T.);
#188=EDGE_CURVE('',#155,#149,#76,.T.);
#189=EDGE_CURVE('',#157,#152,#77,.T.);
#190=EDGE_CURVE('',#158,#157,#78,.F.);
#191=EDGE_CURVE('',#158,#159,#79,.T.);
#192=EDGE_CURVE('',#159,#160,#80,.T.);
#193=EDGE_CURVE('',#160,#161,#81,.T.);
#194=EDGE_CURVE('',#161,#162,#82,.T.);
#195=EDGE_CURVE('',#162,#163,#83,.T.);
#196=EDGE_CURVE('',#163,#164,#84,.T.);
#197=EDGE_CURVE('',#164,#165,#85,.T.);
#198=EDGE_CURVE('',#166,#165,#86,.F.);
#199=EDGE_CURVE('',#166,#156,#87,.T.);
#200=EDGE_CURVE('',#167,#151,#88,.T.);
#201=EDGE_CURVE('',#157,#167,#89,.F.);
#202=EDGE_CURVE('',#168,#169,#90,.T.);
#203=EDGE_CURVE('',#168,#164,#91,.T.);
#204=EDGE_CURVE('',#169,#163,#92,.F.);
#205=EDGE_CURVE('',#170,#168,#93,.T.);
#206=EDGE_CURVE('',#165,#170,#94,.F.);
#207=EDGE_CURVE('',#171,#172,#95,.T.);
#208=EDGE_CURVE('',#171,#159,#96,.F.);
#209=EDGE_CURVE('',#172,#158,#97,.F.);
#210=EDGE_CURVE('',#173,#171,#98,.T.);
#211=EDGE_CURVE('',#173,#160,#99,.T.);
#212=EDGE_CURVE('',#174,#173,#100,.T.);
#213=EDGE_CURVE('',#174,#161,#101,.F.);
#214=EDGE_CURVE('',#175,#174,#102,.T.);
#215=EDGE_CURVE('',#175,#162,#103,.T.);
#216=EDGE_CURVE('',#169,#175,#104,.T.);
#217=EDGE_CURVE('',#170,#176,#105,.F.);
#218=EDGE_CURVE('',#176,#166,#106,.F.);
#219=EDGE_CURVE('',#167,#172,#107,.F.);
#220=EDGE_CURVE('',#176,#154,#108,.T.);
#221=ORIENTED_EDGE('',*,*,#177,.T.);
#222=ORIENTED_EDGE('',*,*,#178,.T.);
#223=ORIENTED_EDGE('',*,*,#179,.T.);
#224=ORIENTED_EDGE('',*,*,#180,.F.);
#225=ORIENTED_EDGE('',*,*,#181,.T.);
#226=ORIENTED_EDGE('',*,*,#182,.T.);
#227=ORIENTED_EDGE('',*,*,#183,.T.);
#228=ORIENTED_EDGE('',*,*,#178,.F.);
#229=ORIENTED_EDGE('',*,*,#184,.T.);
#230=ORIENTED_EDGE('',*,*,#185,.T.);
#231=ORIENTED_EDGE('',*,*,#186,.T.);
#232=ORIENTED_EDGE('',*,*,#182,.F.);
#233=ORIENTED_EDGE('',*,*,#187,.T.);
#234=ORIENTED_EDGE('',*,*,#185,.F.);
#235=ORIENTED_EDGE('',*,*,#188,.T.);
#236=ORIENTED_EDGE('',*,*,#180,.T.);
#237=ORIENTED_EDGE('',*,*,#187,.F.);
#238=ORIENTED_EDGE('',*,*,#189,.F.);
#239=ORIENTED_EDGE('',*,*,#190,.F.);
#240=ORIENTED_EDGE('',*,*,#191,.T.);
#241=ORIENTED_EDGE('',*,*,#192,.T.);
#242=ORIENTED_EDGE('',*,*,#193,.T.);
#243=ORIENTED_EDGE('',*,*,#194,.T.);
#244=ORIENTED_EDGE('',*,*,#195,.T.);
#245=ORIENTED_EDGE('',*,*,#196,.T.);
#246=ORIENTED_EDGE('',*,*,#197,.T.);
#247=ORIENTED_EDGE('',*,*,#198,.F.);
#248=ORIENTED_EDGE('',*,*,#199,.T.);
#249=ORIENTED_EDGE('',*,*,#179,.F.);
#250=ORIENTED_EDGE('',*,*,#200,.F.);
#251=ORIENTED_EDGE('',*,*,#201,.F.);
#252=ORIENTED_EDGE('',*,*,#189,.T.);
#253=ORIENTED_EDGE('',*,*,#177,.F.);
#254=ORIENTED_EDGE('',*,*,#188,.F.);
#255=ORIENTED_EDGE('',*,*,#184,.F.);
#256=ORIENTED_EDGE('',*,*,#181,.F.);
#257=ORIENTED_EDGE('',*,*,#202,.F.);
#258=ORIENTED_EDGE('',*,*,#203,.T.);
#259=ORIENTED_EDGE('',*,*,#196,.F.);
#260=ORIENTED_EDGE('',*,*,#204,.F.);
#261=ORIENTED_EDGE('',*,*,#205,.F.);
#262=ORIENTED_EDGE('',*,*,#206,.F.);
#263=ORIENTED_EDGE('',*,*,#197,.F.);
#264=ORIENTED_EDGE('',*,*,#203,.F.);
#265=ORIENTED_EDGE('',*,*,#207,.F.);
#266=ORIENTED_EDGE('',*,*,#208,.T.);
#267=ORIENTED_EDGE('',*,*,#191,.F.);
#268=ORIENTED_EDGE('',*,*,#209,.F.);
#269=ORIENTED_EDGE('',*,*,#210,.F.);
#270=ORIENTED_EDGE('',*,*,#211,.T.);
#271=ORIENTED_EDGE('',*,*,#192,.F.);
#272=ORIENTED_EDGE('',*,*,#208,.F.);
#273=ORIENTED_EDGE('',*,*,#212,.F.);
#274=ORIENTED_EDGE('',*,*,#213,.T.);
#275=ORIENTED_EDGE('',*,*,#193,.F.);
#276=ORIENTED_EDGE('',*,*,#211,.F.);
#277=ORIENTED_EDGE('',*,*,#214,.F.);
#278=ORIENTED_EDGE('',*,*,#215,.T.);
#279=ORIENTED_EDGE('',*,*,#194,.F.);
#280=ORIENTED_EDGE('',*,*,#213,.F.);
#281=ORIENTED_EDGE('',*,*,#216,.F.);
#282=ORIENTED_EDGE('',*,*,#204,.T.);
#283=ORIENTED_EDGE('',*,*,#195,.F.);
#284=ORIENTED_EDGE('',*,*,#215,.F.);
#285=ORIENTED_EDGE('',*,*,#206,.T.);
#286=ORIENTED_EDGE('',*,*,#217,.T.);
#287=ORIENTED_EDGE('',*,*,#218,.T.);
#288=ORIENTED_EDGE('',*,*,#198,.T.);
#289=ORIENTED_EDGE('',*,*,#209,.T.);
#290=ORIENTED_EDGE('',*,*,#190,.T.);
#291=ORIENTED_EDGE('',*,*,#201,.T.);
#292=ORIENTED_EDGE('',*,*,#219,.T.);
#293=ORIENTED_EDGE('',*,*,#183,.F.);
#294=ORIENTED_EDGE('',*,*,#220,.F.);
#295=ORIENTED_EDGE('',*,*,#217,.F.);
#296=ORIENTED_EDGE('',*,*,#205,.T.);
#297=ORIENTED_EDGE('',*,*,#202,.T.);
#298=ORIENTED_EDGE('',*,*,#216,.T.);
#299=ORIENTED_EDGE('',*,*,#214,.T.);
#300=ORIENTED_EDGE('',*,*,#212,.T.);
#301=ORIENTED_EDGE('',*,*,#210,.T.);
#302=ORIENTED_EDGE('',*,*,#207,.T.);
#303=ORIENTED_EDGE('',*,*,#219,.F.);
#304=ORIENTED_EDGE('',*,*,#200,.T.);
#305=ORIENTED_EDGE('',*,*,#186,.F.);
#306=ORIENTED_EDGE('',*,*,#199,.F.);
#307=ORIENTED_EDGE('',*,*,#218,.F.);
#308=ORIENTED_EDGE('',*,*,#220,.T.);
#309=CYLINDRICAL_SURFACE('',#345,0.5);
#310=CYLINDRICAL_SURFACE('',#348,0.5);
#311=CYLINDRICAL_SURFACE('',#350,0.5);
#312=CYLINDRICAL_SURFACE('',#352,0.5);
#313=ADVANCED_FACE('',(#29),#309,.T.);
#314=ADVANCED_FACE('',(#30),#310,.T.);
#315=ADVANCED_FACE('',(#31),#311,.T.);
#316=ADVANCED_FACE('',(#32),#312,.T.);
#317=ADVANCED_FACE('',(#33),#15,.T.);
#318=ADVANCED_FACE('',(#34),#16,.T.);
#319=ADVANCED_FACE('',(#35),#17,.T.);
#320=ADVANCED_FACE('',(#36),#18,.F.);
#321=ADVANCED_FACE('',(#37),#19,.F.);
#322=ADVANCED_FACE('',(#38),#20,.F.);
#323=ADVANCED_FACE('',(#39),#21,.F.);
#324=ADVANCED_FACE('',(#40),#22,.F.);
#325=ADVANCED_FACE('',(#41),#23,.F.);
#326=ADVANCED_FACE('',(#42),#24,.F.);
#327=ADVANCED_FACE('',(#43),#25,.F.);
#328=ADVANCED_FACE('',(#44),#26,.F.);
#329=ADVANCED_FACE('',(#45),#27,.T.);
#330=ADVANCED_FACE('',(#46),#28,.T.);
#331=CLOSED_SHELL('',(#313,#314,#315,#316,#317,#318,#319,#320,#321,#322,
#323,#324,#325,#326,#327,#328,#329,#330));
#332=DERIVED_UNIT_ELEMENT(#334,1.);
#333=DERIVED_UNIT_ELEMENT(#549,-3.);
#334=(
MASS_UNIT()
NAMED_UNIT(*)
SI_UNIT(.KILO.,.GRAM.)
);
#335=DERIVED_UNIT((#332,#333));
#336=MEASURE_REPRESENTATION_ITEM('density measure',
POSITIVE_RATIO_MEASURE(7850.),#335);
#337=PROPERTY_DEFINITION_REPRESENTATION(#342,#339);
#338=PROPERTY_DEFINITION_REPRESENTATION(#343,#340);
#339=REPRESENTATION('material name',(#341),#546);
#340=REPRESENTATION('density',(#336),#546);
#341=DESCRIPTIVE_REPRESENTATION_ITEM('Steel','Steel');
#342=PROPERTY_DEFINITION('material property','material name',#556);
#343=PROPERTY_DEFINITION('material property','density of part',#556);
#344=AXIS2_PLACEMENT_3D('',#453,#367,#368);
#345=AXIS2_PLACEMENT_3D('',#454,#369,#370);
#346=AXIS2_PLACEMENT_3D('',#459,#372,#373);
#347=AXIS2_PLACEMENT_3D('',#462,#375,#376);
#348=AXIS2_PLACEMENT_3D('',#463,#377,#378);
#349=AXIS2_PLACEMENT_3D('',#467,#380,#381);
#350=AXIS2_PLACEMENT_3D('',#469,#383,#384);
#351=AXIS2_PLACEMENT_3D('',#473,#386,#387);
#352=AXIS2_PLACEMENT_3D('',#475,#389,#390);
#353=AXIS2_PLACEMENT_3D('',#478,#393,#394);
#354=AXIS2_PLACEMENT_3D('',#500,#406,#407);
#355=AXIS2_PLACEMENT_3D('',#504,#410,#411);
#356=AXIS2_PLACEMENT_3D('',#505,#412,#413);
#357=AXIS2_PLACEMENT_3D('',#511,#417,#418);
#358=AXIS2_PLACEMENT_3D('',#515,#421,#422);
#359=AXIS2_PLACEMENT_3D('',#521,#426,#427);
#360=AXIS2_PLACEMENT_3D('',#525,#430,#431);
#361=AXIS2_PLACEMENT_3D('',#529,#434,#435);
#362=AXIS2_PLACEMENT_3D('',#533,#438,#439);
#363=AXIS2_PLACEMENT_3D('',#535,#441,#442);
#364=AXIS2_PLACEMENT_3D('',#539,#445,#446);
#365=AXIS2_PLACEMENT_3D('',#541,#448,#449);
#366=AXIS2_PLACEMENT_3D('',#543,#451,#452);
#367=DIRECTION('axis',(0.,0.,1.));
#368=DIRECTION('refdir',(1.,0.,0.));
#369=DIRECTION('center_axis',(0.,1.,0.));
#370=DIRECTION('ref_axis',(0.707106781186541,0.,0.707106781186554));
#371=DIRECTION('',(0.,-1.,0.));
#372=DIRECTION('center_axis',(0.707106781186549,0.707106781186546,6.28036983473514E-15));
#373=DIRECTION('ref_axis',(0.707106781186546,-0.707106781186549,6.28036983473511E-15));
#374=DIRECTION('',(0.,1.,0.));
#375=DIRECTION('center_axis',(-0.707106781186544,0.707106781186551,0.));
#376=DIRECTION('ref_axis',(0.707106781186551,0.707106781186544,0.));
#377=DIRECTION('center_axis',(1.,0.,0.));
#378=DIRECTION('ref_axis',(0.,-0.707106781186544,0.707106781186551));
#379=DIRECTION('',(-1.,0.,0.));
#380=DIRECTION('center_axis',(0.707106781186546,-0.707106781186549,-3.14018491736757E-15));
#381=DIRECTION('ref_axis',(-0.707106781186549,-0.707106781186546,-3.14018491736755E-15));
#382=DIRECTION('',(1.,0.,0.));
#383=DIRECTION('center_axis',(0.,-1.,0.));
#384=DIRECTION('ref_axis',(-0.707106781186541,0.,0.707106781186554));
#385=DIRECTION('',(0.,1.,0.));
#386=DIRECTION('center_axis',(-0.707106781186548,-0.707106781186548,0.));
#387=DIRECTION('ref_axis',(-0.707106781186548,0.707106781186548,0.));
#388=DIRECTION('',(0.,-1.,0.));
#389=DIRECTION('center_axis',(-1.,0.,0.));
#390=DIRECTION('ref_axis',(0.,0.707106781186541,0.707106781186554));
#391=DIRECTION('',(-1.,0.,0.));
#392=DIRECTION('',(1.,0.,0.));
#393=DIRECTION('center_axis',(0.,1.,0.));
#394=DIRECTION('ref_axis',(-1.,0.,0.));
#395=DIRECTION('',(0.,0.,1.));
#396=DIRECTION('',(-1.,0.,0.));
#397=DIRECTION('',(0.,0.,1.));
#398=DIRECTION('',(1.,0.,0.));
#399=DIRECTION('',(0.,0.,1.));
#400=DIRECTION('',(-1.,0.,0.));
#401=DIRECTION('',(0.,0.,-1.));
#402=DIRECTION('',(1.,0.,0.));
#403=DIRECTION('',(0.,0.,-1.));
#404=DIRECTION('',(-1.,0.,0.));
#405=DIRECTION('',(0.,0.,1.));
#406=DIRECTION('center_axis',(1.,0.,0.));
#407=DIRECTION('ref_axis',(0.,1.,0.));
#408=DIRECTION('',(0.,0.,1.));
#409=DIRECTION('',(0.,1.,0.));
#410=DIRECTION('center_axis',(0.,0.,1.));
#411=DIRECTION('ref_axis',(1.,0.,0.));
#412=DIRECTION('center_axis',(0.,0.,-1.));
#413=DIRECTION('ref_axis',(-1.,0.,0.));
#414=DIRECTION('',(-1.,0.,0.));
#415=DIRECTION('',(0.,1.,0.));
#416=DIRECTION('',(0.,-1.,0.));
#417=DIRECTION('center_axis',(-1.,0.,0.));
#418=DIRECTION('ref_axis',(0.,0.,1.));
#419=DIRECTION('',(0.,0.,1.));
#420=DIRECTION('',(0.,1.,0.));
#421=DIRECTION('center_axis',(1.,0.,0.));
#422=DIRECTION('ref_axis',(0.,0.,-1.));
#423=DIRECTION('',(0.,0.,-1.));
#424=DIRECTION('',(0.,-1.,0.));
#425=DIRECTION('',(0.,-1.,0.));
#426=DIRECTION('center_axis',(0.,0.,-1.));
#427=DIRECTION('ref_axis',(-1.,0.,0.));
#428=DIRECTION('',(-1.,0.,0.));
#429=DIRECTION('',(0.,1.,0.));
#430=DIRECTION('center_axis',(1.,0.,0.));
#431=DIRECTION('ref_axis',(0.,0.,-1.));
#432=DIRECTION('',(0.,0.,-1.));
#433=DIRECTION('',(0.,-1.,0.));
#434=DIRECTION('center_axis',(0.,0.,1.));
#435=DIRECTION('ref_axis',(1.,0.,0.));
#436=DIRECTION('',(1.,0.,0.));
#437=DIRECTION('',(0.,1.,0.));
#438=DIRECTION('center_axis',(-1.,0.,0.));
#439=DIRECTION('ref_axis',(0.,0.,1.));
#440=DIRECTION('',(0.,0.,1.));
#441=DIRECTION('center_axis',(0.,0.,1.));
#442=DIRECTION('ref_axis',(-1.,0.,0.));
#443=DIRECTION('',(1.,0.,0.));
#444=DIRECTION('',(0.,-1.,0.));
#445=DIRECTION('center_axis',(0.,0.,1.));
#446=DIRECTION('ref_axis',(-1.,0.,0.));
#447=DIRECTION('',(1.,0.,0.));
#448=DIRECTION('center_axis',(0.,-1.,0.));
#449=DIRECTION('ref_axis',(1.,0.,0.));
#450=DIRECTION('',(0.,0.,1.));
#451=DIRECTION('center_axis',(-1.,0.,0.));
#452=DIRECTION('ref_axis',(0.,-1.,0.));
#453=CARTESIAN_POINT('',(0.,0.,0.));
#454=CARTESIAN_POINT('Origin',(24.4999993405122,-2.95013462307667,71.7));
#455=CARTESIAN_POINT('',(24.4999993405122,22.7998653769233,72.2));
#456=CARTESIAN_POINT('',(24.4999993405122,-11.2001346230767,72.2));
#457=CARTESIAN_POINT('',(24.4999993405122,-2.95013462307667,72.2));
#458=CARTESIAN_POINT('',(24.9999993405122,-11.7001346230767,71.7));
#459=CARTESIAN_POINT('Origin',(24.4999993405122,-11.2001346230767,71.7));
#460=CARTESIAN_POINT('',(24.9999993405122,23.2998653769233,71.7));
#461=CARTESIAN_POINT('',(24.9999993405122,-2.95013462307667,71.7));
#462=CARTESIAN_POINT('Origin',(24.4999993405122,22.7998653769233,71.7));
#463=CARTESIAN_POINT('Origin',(-12.4999996702408,-11.2001346230767,71.7));
#464=CARTESIAN_POINT('',(-24.4999993404918,-11.2001346230767,72.2));
#465=CARTESIAN_POINT('',(-12.4999996702408,-11.2001346230767,72.2));
#466=CARTESIAN_POINT('',(-24.9999993404918,-11.7001346230767,71.7));
#467=CARTESIAN_POINT('Origin',(-24.4999993404918,-11.2001346230767,71.7));
#468=CARTESIAN_POINT('',(-12.4999996702408,-11.7001346230767,71.7));
#469=CARTESIAN_POINT('Origin',(-24.4999993404918,14.5498653769233,71.7));
#470=CARTESIAN_POINT('',(-24.4999993404918,22.7998653769233,72.2));
#471=CARTESIAN_POINT('',(-24.4999993404918,14.5498653769233,72.2));
#472=CARTESIAN_POINT('',(-24.9999993404918,23.2998653769233,71.7));
#473=CARTESIAN_POINT('Origin',(-24.4999993404918,22.7998653769233,71.7));
#474=CARTESIAN_POINT('',(-24.9999993404918,14.5498653769233,71.7));
#475=CARTESIAN_POINT('Origin',(12.4999996702612,22.7998653769233,71.7));
#476=CARTESIAN_POINT('',(12.4999996702612,23.2998653769233,71.7));
#477=CARTESIAN_POINT('',(12.4999996702612,22.7998653769233,72.2));
#478=CARTESIAN_POINT('Origin',(24.9999993405122,23.2998653769233,64.));
#479=CARTESIAN_POINT('',(24.9999993405122,23.2998653769233,64.3));
#480=CARTESIAN_POINT('',(24.9999993405122,23.2998653769233,64.));
#481=CARTESIAN_POINT('',(20.0999993405122,23.2998653769233,64.3));
#482=CARTESIAN_POINT('',(12.4999996702612,23.2998653769233,64.3));
#483=CARTESIAN_POINT('',(20.0999993405122,23.2998653769233,65.7));
#484=CARTESIAN_POINT('',(20.0999993405122,23.2998653769233,65.));
#485=CARTESIAN_POINT('',(22.1999993405122,23.2998653769233,65.7));
#486=CARTESIAN_POINT('',(23.3999993405122,23.2998653769233,65.7));
#487=CARTESIAN_POINT('',(22.1999993405122,23.2998653769233,68.3));
#488=CARTESIAN_POINT('',(22.1999993405122,23.2998653769233,66.));
#489=CARTESIAN_POINT('',(-22.1999993404918,23.2998653769233,68.3));
#490=CARTESIAN_POINT('',(1.60000000001018,23.2998653769233,68.3));
#491=CARTESIAN_POINT('',(-22.1999993404918,23.2998653769233,65.7));
#492=CARTESIAN_POINT('',(-22.1999993404918,23.2998653769233,65.));
#493=CARTESIAN_POINT('',(-20.0999993404918,23.2998653769233,65.7));
#494=CARTESIAN_POINT('',(2.60000000001017,23.2998653769233,65.7));
#495=CARTESIAN_POINT('',(-20.0999993404918,23.2998653769233,64.3));
#496=CARTESIAN_POINT('',(-20.0999993404918,23.2998653769233,64.));
#497=CARTESIAN_POINT('',(-24.9999993404918,23.2998653769233,64.3));
#498=CARTESIAN_POINT('',(12.4999996702612,23.2998653769233,64.3));
#499=CARTESIAN_POINT('',(-24.9999993404918,23.2998653769233,64.));
#500=CARTESIAN_POINT('Origin',(24.9999993405122,-11.7001346230767,64.));
#501=CARTESIAN_POINT('',(24.9999993405122,-11.7001346230767,64.3));
#502=CARTESIAN_POINT('',(24.9999993405122,-11.7001346230767,64.));
#503=CARTESIAN_POINT('',(24.9999993405122,-2.95013462307667,64.3));
#504=CARTESIAN_POINT('Origin',(1.01696429055664E-11,5.79986537692333,72.2));
#505=CARTESIAN_POINT('Origin',(-19.7999993404918,-11.7001346230767,65.7));
#506=CARTESIAN_POINT('',(-20.0999993404918,-11.7001346230767,65.7));
#507=CARTESIAN_POINT('',(-22.1999993404918,-11.7001346230767,65.7));
#508=CARTESIAN_POINT('',(-22.3999993404918,-11.7001346230767,65.7));
#509=CARTESIAN_POINT('',(-20.0999993404918,-11.7001346230767,65.7));
#510=CARTESIAN_POINT('',(-22.1999993404918,-11.7001346230767,65.7));
#511=CARTESIAN_POINT('Origin',(-20.0999993404918,-11.7001346230767,64.));
#512=CARTESIAN_POINT('',(-20.0999993404918,-11.7001346230767,64.3));
#513=CARTESIAN_POINT('',(-20.0999993404918,-11.7001346230767,64.));
#514=CARTESIAN_POINT('',(-20.0999993404918,-2.95013462307666,64.3));
#515=CARTESIAN_POINT('Origin',(20.0999993405122,-11.7001346230767,66.));
#516=CARTESIAN_POINT('',(20.0999993405122,-11.7001346230767,65.7));
#517=CARTESIAN_POINT('',(20.0999993405122,-11.7001346230767,64.3));
#518=CARTESIAN_POINT('',(20.0999993405122,-11.7001346230767,65.));
#519=CARTESIAN_POINT('',(20.0999993405122,-11.7001346230767,65.7));
#520=CARTESIAN_POINT('',(20.0999993405122,-2.95013462307666,64.3));
#521=CARTESIAN_POINT('Origin',(21.7999993405122,-11.7001346230767,65.7));
#522=CARTESIAN_POINT('',(22.1999993405122,-11.7001346230767,65.7));
#523=CARTESIAN_POINT('',(-1.59999999998983,-11.7001346230767,65.7));
#524=CARTESIAN_POINT('',(22.1999993405122,-11.7001346230767,65.7));
#525=CARTESIAN_POINT('Origin',(22.1999993405122,-11.7001346230767,68.));
#526=CARTESIAN_POINT('',(22.1999993405122,-11.7001346230767,68.3));
#527=CARTESIAN_POINT('',(22.1999993405122,-11.7001346230767,66.));
#528=CARTESIAN_POINT('',(22.1999993405122,-11.7001346230767,68.3));
#529=CARTESIAN_POINT('Origin',(-21.7999993404918,-11.7001346230767,68.3));
#530=CARTESIAN_POINT('',(-22.1999993404918,-11.7001346230767,68.3));
#531=CARTESIAN_POINT('',(-23.3999993404918,-11.7001346230767,68.3));
#532=CARTESIAN_POINT('',(-22.1999993404918,-11.7001346230767,68.3));
#533=CARTESIAN_POINT('Origin',(-22.1999993404918,-11.7001346230767,66.));
#534=CARTESIAN_POINT('',(-22.1999993404918,-11.7001346230767,65.));
#535=CARTESIAN_POINT('Origin',(1.01696429055664E-11,5.79986537692333,64.3));
#536=CARTESIAN_POINT('',(-24.9999993404918,-11.7001346230767,64.3));
#537=CARTESIAN_POINT('',(-12.4999996702408,-11.7001346230767,64.3));
#538=CARTESIAN_POINT('',(-24.9999993404918,14.5498653769233,64.3));
#539=CARTESIAN_POINT('Origin',(1.01696429055664E-11,5.79986537692333,64.3));
#540=CARTESIAN_POINT('',(-12.4999996702408,-11.7001346230767,64.3));
#541=CARTESIAN_POINT('Origin',(-24.9999993404918,-11.7001346230767,64.));
#542=CARTESIAN_POINT('',(-24.9999993404918,-11.7001346230767,64.));
#543=CARTESIAN_POINT('Origin',(-24.9999993404918,23.2998653769233,64.));
#544=UNCERTAINTY_MEASURE_WITH_UNIT(LENGTH_MEASURE(0.01),#548,
'DISTANCE_ACCURACY_VALUE',
'Maximum model space distance between geometric entities at asserted c
onnectivities');
#545=UNCERTAINTY_MEASURE_WITH_UNIT(LENGTH_MEASURE(0.01),#548,
'DISTANCE_ACCURACY_VALUE',
'Maximum model space distance between geometric entities at asserted c
onnectivities');
#546=(
GEOMETRIC_REPRESENTATION_CONTEXT(3)
GLOBAL_UNCERTAINTY_ASSIGNED_CONTEXT((#544))
GLOBAL_UNIT_ASSIGNED_CONTEXT((#548,#550,#551))
REPRESENTATION_CONTEXT('','3D')
);
#547=(
GEOMETRIC_REPRESENTATION_CONTEXT(3)
GLOBAL_UNCERTAINTY_ASSIGNED_CONTEXT((#545))
GLOBAL_UNIT_ASSIGNED_CONTEXT((#548,#550,#551))
REPRESENTATION_CONTEXT('','3D')
);
#548=(
LENGTH_UNIT()
NAMED_UNIT(*)
SI_UNIT(.MILLI.,.METRE.)
);
#549=(
LENGTH_UNIT()
NAMED_UNIT(*)
SI_UNIT($,.METRE.)
);
#550=(
NAMED_UNIT(*)
PLANE_ANGLE_UNIT()
SI_UNIT($,.RADIAN.)
);
#551=(
NAMED_UNIT(*)
SI_UNIT($,.STERADIAN.)
SOLID_ANGLE_UNIT()
);
#552=SHAPE_DEFINITION_REPRESENTATION(#553,#554);
#553=PRODUCT_DEFINITION_SHAPE('',$,#556);
#554=SHAPE_REPRESENTATION('',(#344),#546);
#555=PRODUCT_DEFINITION_CONTEXT('part definition',#560,'design');
#556=PRODUCT_DEFINITION('COVER (2)','COVER (2)',#557,#555);
#557=PRODUCT_DEFINITION_FORMATION('',$,#562);
#558=PRODUCT_RELATED_PRODUCT_CATEGORY('COVER (2)','COVER (2)',(#562));
#559=APPLICATION_PROTOCOL_DEFINITION('international standard',
'automotive_design',2009,#560);
#560=APPLICATION_CONTEXT(
'Core Data for Automotive Mechanical Design Process');
#561=PRODUCT_CONTEXT('part definition',#560,'mechanical');
#562=PRODUCT('COVER (2)','COVER (2)',$,(#561));
#563=PRESENTATION_STYLE_ASSIGNMENT((#564));
#564=SURFACE_STYLE_USAGE(.BOTH.,#565);
#565=SURFACE_SIDE_STYLE('',(#566));
#566=SURFACE_STYLE_FILL_AREA(#567);
#567=FILL_AREA_STYLE('Steel - Satin',(#568));
#568=FILL_AREA_STYLE_COLOUR('Steel - Satin',#569);
#569=COLOUR_RGB('Steel - Satin',0.627450980392157,0.627450980392157,0.627450980392157);
ENDSEC;
END-ISO-10303-21;
