ISO-10303-21;
HEADER;
/* Generated by software containing ST-Developer
 * from STEP Tools, Inc. (www.steptools.com) 
 */

FILE_DESCRIPTION(
/* description */ (''),
/* implementation_level */ '2;1');

FILE_NAME(
/* name */ 'DUMP SHIELD.step',
/* time_stamp */ '2026-03-30T15:33:29-05:00',
/* author */ (''),
/* organization */ (''),
/* preprocessor_version */ 'ST-DEVELOPER v20.1',
/* originating_system */ 'Autodesk Translation Framework v14.24.0.0',
/* authorisation */ '');

FILE_SCHEMA (('AUTOMOTIVE_DESIGN { 1 0 10303 214 3 1 1 }'));
ENDSEC;

DATA;
#10=MECHANICAL_DESIGN_GEOMETRIC_PRESENTATION_REPRESENTATION('',(#13),#269);
#11=SHAPE_REPRESENTATION_RELATIONSHIP('SRR','None',#276,#12);
#12=ADVANCED_BREP_SHAPE_REPRESENTATION('',(#14),#268);
#13=STYLED_ITEM('',(#285),#14);
#14=MANIFOLD_SOLID_BREP('Body1',#153);
#15=CYLINDRICAL_SURFACE('',#171,28.6999999999999);
#16=CYLINDRICAL_SURFACE('',#175,7.24813408189932);
#17=CYLINDRICAL_SURFACE('',#178,8.24813408189932);
#18=FACE_BOUND('',#31,.T.);
#19=FACE_BOUND('',#39,.T.);
#20=FACE_BOUND('',#41,.T.);
#21=FACE_OUTER_BOUND('',#30,.T.);
#22=FACE_OUTER_BOUND('',#32,.T.);
#23=FACE_OUTER_BOUND('',#33,.T.);
#24=FACE_OUTER_BOUND('',#34,.T.);
#25=FACE_OUTER_BOUND('',#35,.T.);
#26=FACE_OUTER_BOUND('',#36,.T.);
#27=FACE_OUTER_BOUND('',#37,.T.);
#28=FACE_OUTER_BOUND('',#38,.T.);
#29=FACE_OUTER_BOUND('',#40,.T.);
#30=EDGE_LOOP('',(#102,#103,#104,#105));
#31=EDGE_LOOP('',(#106));
#32=EDGE_LOOP('',(#107,#108,#109,#110));
#33=EDGE_LOOP('',(#111,#112,#113,#114));
#34=EDGE_LOOP('',(#115,#116,#117,#118));
#35=EDGE_LOOP('',(#119,#120,#121,#122));
#36=EDGE_LOOP('',(#123,#124,#125,#126));
#37=EDGE_LOOP('',(#127,#128,#129,#130));
#38=EDGE_LOOP('',(#131));
#39=EDGE_LOOP('',(#132));
#40=EDGE_LOOP('',(#133,#134,#135,#136));
#41=EDGE_LOOP('',(#137));
#42=CIRCLE('',#168,28.6999999999999);
#43=CIRCLE('',#169,8.24813408189932);
#44=CIRCLE('',#172,28.6999999999999);
#45=CIRCLE('',#176,7.24813408189932);
#46=CIRCLE('',#177,7.24813408189932);
#47=CIRCLE('',#179,8.24813408189932);
#48=LINE('',#230,#60);
#49=LINE('',#232,#61);
#50=LINE('',#235,#62);
#51=LINE('',#241,#63);
#52=LINE('',#242,#64);
#53=LINE('',#243,#65);
#54=LINE('',#247,#66);
#55=LINE('',#250,#67);
#56=LINE('',#251,#68);
#57=LINE('',#253,#69);
#58=LINE('',#258,#70);
#59=LINE('',#263,#71);
#60=VECTOR('',#186,10.);
#61=VECTOR('',#187,10.);
#62=VECTOR('',#190,10.);
#63=VECTOR('',#195,10.);
#64=VECTOR('',#196,10.);
#65=VECTOR('',#197,10.);
#66=VECTOR('',#202,10.);
#67=VECTOR('',#205,10.);
#68=VECTOR('',#206,10.);
#69=VECTOR('',#209,10.);
#70=VECTOR('',#214,7.24813408189932);
#71=VECTOR('',#221,8.24813408189932);
#72=VERTEX_POINT('',#228);
#73=VERTEX_POINT('',#229);
#74=VERTEX_POINT('',#231);
#75=VERTEX_POINT('',#233);
#76=VERTEX_POINT('',#236);
#77=VERTEX_POINT('',#239);
#78=VERTEX_POINT('',#240);
#79=VERTEX_POINT('',#245);
#80=VERTEX_POINT('',#249);
#81=VERTEX_POINT('',#255);
#82=VERTEX_POINT('',#257);
#83=VERTEX_POINT('',#261);
#84=EDGE_CURVE('',#72,#73,#48,.T.);
#85=EDGE_CURVE('',#73,#74,#49,.F.);
#86=EDGE_CURVE('',#74,#75,#42,.F.);
#87=EDGE_CURVE('',#75,#72,#50,.F.);
#88=EDGE_CURVE('',#76,#76,#43,.T.);
#89=EDGE_CURVE('',#77,#78,#51,.F.);
#90=EDGE_CURVE('',#78,#72,#52,.T.);
#91=EDGE_CURVE('',#77,#75,#53,.T.);
#92=EDGE_CURVE('',#79,#77,#44,.F.);
#93=EDGE_CURVE('',#79,#74,#54,.T.);
#94=EDGE_CURVE('',#80,#79,#55,.F.);
#95=EDGE_CURVE('',#80,#73,#56,.F.);
#96=EDGE_CURVE('',#78,#80,#57,.T.);
#97=EDGE_CURVE('',#81,#81,#45,.T.);
#98=EDGE_CURVE('',#81,#82,#58,.T.);
#99=EDGE_CURVE('',#82,#82,#46,.T.);
#100=EDGE_CURVE('',#83,#83,#47,.T.);
#101=EDGE_CURVE('',#83,#76,#59,.T.);
#102=ORIENTED_EDGE('',*,*,#84,.T.);
#103=ORIENTED_EDGE('',*,*,#85,.T.);
#104=ORIENTED_EDGE('',*,*,#86,.T.);
#105=ORIENTED_EDGE('',*,*,#87,.T.);
#106=ORIENTED_EDGE('',*,*,#88,.F.);
#107=ORIENTED_EDGE('',*,*,#89,.T.);
#108=ORIENTED_EDGE('',*,*,#90,.T.);
#109=ORIENTED_EDGE('',*,*,#87,.F.);
#110=ORIENTED_EDGE('',*,*,#91,.F.);
#111=ORIENTED_EDGE('',*,*,#92,.T.);
#112=ORIENTED_EDGE('',*,*,#91,.T.);
#113=ORIENTED_EDGE('',*,*,#86,.F.);
#114=ORIENTED_EDGE('',*,*,#93,.F.);
#115=ORIENTED_EDGE('',*,*,#94,.T.);
#116=ORIENTED_EDGE('',*,*,#93,.T.);
#117=ORIENTED_EDGE('',*,*,#85,.F.);
#118=ORIENTED_EDGE('',*,*,#95,.F.);
#119=ORIENTED_EDGE('',*,*,#96,.T.);
#120=ORIENTED_EDGE('',*,*,#95,.T.);
#121=ORIENTED_EDGE('',*,*,#84,.F.);
#122=ORIENTED_EDGE('',*,*,#90,.F.);
#123=ORIENTED_EDGE('',*,*,#97,.F.);
#124=ORIENTED_EDGE('',*,*,#98,.T.);
#125=ORIENTED_EDGE('',*,*,#99,.T.);
#126=ORIENTED_EDGE('',*,*,#98,.F.);
#127=ORIENTED_EDGE('',*,*,#100,.F.);
#128=ORIENTED_EDGE('',*,*,#101,.T.);
#129=ORIENTED_EDGE('',*,*,#88,.T.);
#130=ORIENTED_EDGE('',*,*,#101,.F.);
#131=ORIENTED_EDGE('',*,*,#100,.T.);
#132=ORIENTED_EDGE('',*,*,#97,.T.);
#133=ORIENTED_EDGE('',*,*,#96,.F.);
#134=ORIENTED_EDGE('',*,*,#89,.F.);
#135=ORIENTED_EDGE('',*,*,#92,.F.);
#136=ORIENTED_EDGE('',*,*,#94,.F.);
#137=ORIENTED_EDGE('',*,*,#99,.F.);
#138=PLANE('',#167);
#139=PLANE('',#170);
#140=PLANE('',#173);
#141=PLANE('',#174);
#142=PLANE('',#180);
#143=PLANE('',#181);
#144=ADVANCED_FACE('',(#21,#18),#138,.T.);
#145=ADVANCED_FACE('',(#22),#139,.T.);
#146=ADVANCED_FACE('',(#23),#15,.T.);
#147=ADVANCED_FACE('',(#24),#140,.T.);
#148=ADVANCED_FACE('',(#25),#141,.T.);
#149=ADVANCED_FACE('',(#26),#16,.F.);
#150=ADVANCED_FACE('',(#27),#17,.T.);
#151=ADVANCED_FACE('',(#28,#19),#142,.T.);
#152=ADVANCED_FACE('',(#29,#20),#143,.F.);
#153=CLOSED_SHELL('',(#144,#145,#146,#147,#148,#149,#150,#151,#152));
#154=DERIVED_UNIT_ELEMENT(#156,1.);
#155=DERIVED_UNIT_ELEMENT(#271,-3.);
#156=(
MASS_UNIT()
NAMED_UNIT(*)
SI_UNIT(.KILO.,.GRAM.)
);
#157=DERIVED_UNIT((#154,#155));
#158=MEASURE_REPRESENTATION_ITEM('density measure',
POSITIVE_RATIO_MEASURE(7850.),#157);
#159=PROPERTY_DEFINITION_REPRESENTATION(#164,#161);
#160=PROPERTY_DEFINITION_REPRESENTATION(#165,#162);
#161=REPRESENTATION('material name',(#163),#268);
#162=REPRESENTATION('density',(#158),#268);
#163=DESCRIPTIVE_REPRESENTATION_ITEM('Steel','Steel');
#164=PROPERTY_DEFINITION('material property','material name',#278);
#165=PROPERTY_DEFINITION('material property','density of part',#278);
#166=AXIS2_PLACEMENT_3D('',#226,#182,#183);
#167=AXIS2_PLACEMENT_3D('',#227,#184,#185);
#168=AXIS2_PLACEMENT_3D('',#234,#188,#189);
#169=AXIS2_PLACEMENT_3D('',#237,#191,#192);
#170=AXIS2_PLACEMENT_3D('',#238,#193,#194);
#171=AXIS2_PLACEMENT_3D('',#244,#198,#199);
#172=AXIS2_PLACEMENT_3D('',#246,#200,#201);
#173=AXIS2_PLACEMENT_3D('',#248,#203,#204);
#174=AXIS2_PLACEMENT_3D('',#252,#207,#208);
#175=AXIS2_PLACEMENT_3D('',#254,#210,#211);
#176=AXIS2_PLACEMENT_3D('',#256,#212,#213);
#177=AXIS2_PLACEMENT_3D('',#259,#215,#216);
#178=AXIS2_PLACEMENT_3D('',#260,#217,#218);
#179=AXIS2_PLACEMENT_3D('',#262,#219,#220);
#180=AXIS2_PLACEMENT_3D('',#264,#222,#223);
#181=AXIS2_PLACEMENT_3D('',#265,#224,#225);
#182=DIRECTION('axis',(0.,0.,1.));
#183=DIRECTION('refdir',(1.,0.,0.));
#184=DIRECTION('center_axis',(0.,0.,-1.));
#185=DIRECTION('ref_axis',(1.,0.,0.));
#186=DIRECTION('',(-1.,2.3765784661861E-12,0.));
#187=DIRECTION('',(-2.37658773862732E-12,-1.,0.));
#188=DIRECTION('center_axis',(0.,0.,1.));
#189=DIRECTION('ref_axis',(-1.,2.37696801812555E-12,0.));
#190=DIRECTION('',(4.32205368628853E-12,1.,0.));
#191=DIRECTION('center_axis',(0.,0.,-1.));
#192=DIRECTION('ref_axis',(1.,0.,0.));
#193=DIRECTION('center_axis',(1.,-4.32205368628853E-12,0.));
#194=DIRECTION('ref_axis',(-4.32205368628853E-12,-1.,0.));
#195=DIRECTION('',(4.32205368628853E-12,1.,0.));
#196=DIRECTION('',(0.,0.,-1.));
#197=DIRECTION('',(0.,0.,-1.));
#198=DIRECTION('center_axis',(0.,0.,-1.));
#199=DIRECTION('ref_axis',(-1.,2.37696801812555E-12,0.));
#200=DIRECTION('center_axis',(0.,0.,1.));
#201=DIRECTION('ref_axis',(-1.,2.37696801812555E-12,0.));
#202=DIRECTION('',(0.,0.,-1.));
#203=DIRECTION('center_axis',(-1.,2.37658773862732E-12,0.));
#204=DIRECTION('ref_axis',(2.37658773862732E-12,1.,0.));
#205=DIRECTION('',(-2.37658773862732E-12,-1.,0.));
#206=DIRECTION('',(0.,0.,1.));
#207=DIRECTION('center_axis',(-2.3765784661861E-12,-1.,0.));
#208=DIRECTION('ref_axis',(-1.,2.3765784661861E-12,0.));
#209=DIRECTION('',(-1.,2.3765784661861E-12,0.));
#210=DIRECTION('center_axis',(0.,0.,-1.));
#211=DIRECTION('ref_axis',(1.,0.,0.));
#212=DIRECTION('center_axis',(0.,0.,1.));
#213=DIRECTION('ref_axis',(1.,0.,0.));
#214=DIRECTION('',(0.,0.,1.));
#215=DIRECTION('center_axis',(0.,0.,1.));
#216=DIRECTION('ref_axis',(1.,0.,0.));
#217=DIRECTION('center_axis',(0.,0.,-1.));
#218=DIRECTION('ref_axis',(1.,0.,0.));
#219=DIRECTION('center_axis',(0.,0.,-1.));
#220=DIRECTION('ref_axis',(1.,0.,0.));
#221=DIRECTION('',(0.,0.,1.));
#222=DIRECTION('center_axis',(0.,0.,-1.));
#223=DIRECTION('ref_axis',(1.,0.,0.));
#224=DIRECTION('center_axis',(0.,0.,-1.));
#225=DIRECTION('ref_axis',(1.,0.,0.));
#226=CARTESIAN_POINT('',(0.,0.,0.));
#227=CARTESIAN_POINT('Origin',(-3.44835271448574E-11,9.29254440704629,-6.));
#228=CARTESIAN_POINT('',(28.6999999999344,-9.91491118590299,-6.));
#229=CARTESIAN_POINT('',(-28.7000000000462,-9.91491118576658,-6.));
#230=CARTESIAN_POINT('',(28.4999999999772,-9.91491118590251,-6.));
#231=CARTESIAN_POINT('',(-28.7000000000226,6.34204511052804E-11,-6.));
#232=CARTESIAN_POINT('',(-28.7000000000234,-0.311183389326036,-6.));
#233=CARTESIAN_POINT('',(28.6999999999772,-7.340264409799E-11,-6.));
#234=CARTESIAN_POINT('Origin',(-2.27062812996337E-11,-4.79838391242993E-12,
-6.));
#235=CARTESIAN_POINT('',(28.6999999999973,4.64627220342442,-6.));
#236=CARTESIAN_POINT('',(-8.24813408188774,2.24999919211585,-6.));
#237=CARTESIAN_POINT('Origin',(1.15837894831827E-11,2.24999919211585,-6.));
#238=CARTESIAN_POINT('Origin',(28.6999999999772,-7.34028929228879E-11,-3.));
#239=CARTESIAN_POINT('',(28.6999999999772,-7.34029216537462E-11,-3.));
#240=CARTESIAN_POINT('',(28.6999999999344,-9.91491118590299,-3.));
#241=CARTESIAN_POINT('',(28.6999999999821,1.1249995959592,-3.));
#242=CARTESIAN_POINT('',(28.6999999999344,-9.91491118590299,-3.));
#243=CARTESIAN_POINT('',(28.6999999999772,-7.34028929228879E-11,-3.));
#244=CARTESIAN_POINT('Origin',(-2.27062812996337E-11,-4.79838391242993E-12,
-3.));
#245=CARTESIAN_POINT('',(-28.7000000000226,6.34205898831585E-11,-3.));
#246=CARTESIAN_POINT('Origin',(-2.27062812996337E-11,-4.79838391242993E-12,
-3.));
#247=CARTESIAN_POINT('',(-28.7000000000226,6.34205221518733E-11,-3.));
#248=CARTESIAN_POINT('Origin',(-28.7000000000462,-9.91491118576658,-3.));
#249=CARTESIAN_POINT('',(-28.7000000000462,-9.91491118576658,-3.));
#250=CARTESIAN_POINT('',(-28.7000000000317,-3.83245599679126,-3.));
#251=CARTESIAN_POINT('',(-28.7000000000462,-9.91491118576658,-3.));
#252=CARTESIAN_POINT('Origin',(28.4999999999772,-9.91491118590251,-3.));
#253=CARTESIAN_POINT('',(28.4999999999772,-9.91491118590251,-3.));
#254=CARTESIAN_POINT('Origin',(1.15837894831827E-11,2.24999919211585,-3.));
#255=CARTESIAN_POINT('',(-7.24813408188774,2.24999919211585,-12.));
#256=CARTESIAN_POINT('Origin',(1.15837894831827E-11,2.24999919211585,-12.));
#257=CARTESIAN_POINT('',(-7.24813408188774,2.24999919211585,-3.));
#258=CARTESIAN_POINT('',(-7.24813408188774,2.24999919211585,-3.));
#259=CARTESIAN_POINT('Origin',(1.15837894831827E-11,2.24999919211585,-3.));
#260=CARTESIAN_POINT('Origin',(1.15837894831827E-11,2.24999919211585,-3.));
#261=CARTESIAN_POINT('',(-8.24813408188774,2.24999919211585,-12.));
#262=CARTESIAN_POINT('Origin',(1.15837894831827E-11,2.24999919211585,-12.));
#263=CARTESIAN_POINT('',(-8.24813408188774,2.24999919211585,-3.));
#264=CARTESIAN_POINT('Origin',(1.15840670389389E-11,2.24999919211585,-12.));
#265=CARTESIAN_POINT('Origin',(1.15840670389389E-11,2.24999919211585,-3.));
#266=UNCERTAINTY_MEASURE_WITH_UNIT(LENGTH_MEASURE(0.01),#270,
'DISTANCE_ACCURACY_VALUE',
'Maximum model space distance between geometric entities at asserted c
onnectivities');
#267=UNCERTAINTY_MEASURE_WITH_UNIT(LENGTH_MEASURE(0.01),#270,
'DISTANCE_ACCURACY_VALUE',
'Maximum model space distance between geometric entities at asserted c
onnectivities');
#268=(
GEOMETRIC_REPRESENTATION_CONTEXT(3)
GLOBAL_UNCERTAINTY_ASSIGNED_CONTEXT((#266))
GLOBAL_UNIT_ASSIGNED_CONTEXT((#270,#272,#273))
REPRESENTATION_CONTEXT('','3D')
);
#269=(
GEOMETRIC_REPRESENTATION_CONTEXT(3)
GLOBAL_UNCERTAINTY_ASSIGNED_CONTEXT((#267))
GLOBAL_UNIT_ASSIGNED_CONTEXT((#270,#272,#273))
REPRESENTATION_CONTEXT('','3D')
);
#270=(
LENGTH_UNIT()
NAMED_UNIT(*)
SI_UNIT(.MILLI.,.METRE.)
);
#271=(
LENGTH_UNIT()
NAMED_UNIT(*)
SI_UNIT($,.METRE.)
);
#272=(
NAMED_UNIT(*)
PLANE_ANGLE_UNIT()
SI_UNIT($,.RADIAN.)
);
#273=(
NAMED_UNIT(*)
SI_UNIT($,.STERADIAN.)
SOLID_ANGLE_UNIT()
);
#274=SHAPE_DEFINITION_REPRESENTATION(#275,#276);
#275=PRODUCT_DEFINITION_SHAPE('',$,#278);
#276=SHAPE_REPRESENTATION('',(#166),#268);
#277=PRODUCT_DEFINITION_CONTEXT('part definition',#282,'design');
#278=PRODUCT_DEFINITION('DUMP SHIELD','DUMP SHIELD',#279,#277);
#279=PRODUCT_DEFINITION_FORMATION('',$,#284);
#280=PRODUCT_RELATED_PRODUCT_CATEGORY('DUMP SHIELD','DUMP SHIELD',(#284));
#281=APPLICATION_PROTOCOL_DEFINITION('international standard',
'automotive_design',2009,#282);
#282=APPLICATION_CONTEXT(
'Core Data for Automotive Mechanical Design Process');
#283=PRODUCT_CONTEXT('part definition',#282,'mechanical');
#284=PRODUCT('DUMP SHIELD','DUMP SHIELD',$,(#283));
#285=PRESENTATION_STYLE_ASSIGNMENT((#286));
#286=SURFACE_STYLE_USAGE(.BOTH.,#287);
#287=SURFACE_SIDE_STYLE('',(#288));
#288=SURFACE_STYLE_FILL_AREA(#289);
#289=FILL_AREA_STYLE('Steel - Satin',(#290));
#290=FILL_AREA_STYLE_COLOUR('Steel - Satin',#291);
#291=COLOUR_RGB('Steel - Satin',0.627450980392157,0.627450980392157,0.627450980392157);
ENDSEC;
END-ISO-10303-21;
