ISO-10303-21;
HEADER;
/* Generated by software containing ST-Developer
 * from STEP Tools, Inc. (www.steptools.com) 
 */

FILE_DESCRIPTION(
/* description */ (''),
/* implementation_level */ '2;1');

FILE_NAME(
/* name */ 'FRONT DOOR.step',
/* time_stamp */ '2026-03-23T18:12:57-05:00',
/* author */ (''),
/* organization */ (''),
/* preprocessor_version */ 'ST-DEVELOPER v20.1',
/* originating_system */ 'Autodesk Translation Framework v14.24.0.0',
/* authorisation */ '');

FILE_SCHEMA (('AUTOMOTIVE_DESIGN { 1 0 10303 214 3 1 1 }'));
ENDSEC;

DATA;
#10=MECHANICAL_DESIGN_GEOMETRIC_PRESENTATION_REPRESENTATION('',(#13),#381);
#11=SHAPE_REPRESENTATION_RELATIONSHIP('SRR','None',#388,#12);
#12=ADVANCED_BREP_SHAPE_REPRESENTATION('',(#14),#380);
#13=STYLED_ITEM('',(#397),#14);
#14=MANIFOLD_SOLID_BREP('Volume reducer door',#227);
#15=CYLINDRICAL_SURFACE('',#248,13.8000000000002);
#16=CIRCLE('',#244,11.5171572875256);
#17=CIRCLE('',#245,13.8000000000002);
#18=CIRCLE('',#249,13.8000000000002);
#19=CONICAL_SURFACE('',#243,12.6585786437629,0.785398163397448);
#20=FACE_OUTER_BOUND('',#33,.T.);
#21=FACE_OUTER_BOUND('',#34,.T.);
#22=FACE_OUTER_BOUND('',#35,.T.);
#23=FACE_OUTER_BOUND('',#36,.T.);
#24=FACE_OUTER_BOUND('',#37,.T.);
#25=FACE_OUTER_BOUND('',#38,.T.);
#26=FACE_OUTER_BOUND('',#39,.T.);
#27=FACE_OUTER_BOUND('',#40,.T.);
#28=FACE_OUTER_BOUND('',#41,.T.);
#29=FACE_OUTER_BOUND('',#42,.T.);
#30=FACE_OUTER_BOUND('',#43,.T.);
#31=FACE_OUTER_BOUND('',#44,.T.);
#32=FACE_OUTER_BOUND('',#45,.T.);
#33=EDGE_LOOP('',(#145,#146,#147,#148));
#34=EDGE_LOOP('',(#149,#150,#151,#152));
#35=EDGE_LOOP('',(#153,#154,#155,#156));
#36=EDGE_LOOP('',(#157,#158,#159,#160));
#37=EDGE_LOOP('',(#161,#162,#163,#164));
#38=EDGE_LOOP('',(#165,#166,#167,#168));
#39=EDGE_LOOP('',(#169,#170,#171,#172));
#40=EDGE_LOOP('',(#173,#174,#175,#176));
#41=EDGE_LOOP('',(#177,#178,#179,#180,#181,#182));
#42=EDGE_LOOP('',(#183,#184,#185,#186));
#43=EDGE_LOOP('',(#187,#188,#189,#190));
#44=EDGE_LOOP('',(#191,#192,#193,#194,#195,#196));
#45=EDGE_LOOP('',(#197,#198,#199,#200,#201,#202));
#46=LINE('',#321,#72);
#47=LINE('',#323,#73);
#48=LINE('',#325,#74);
#49=LINE('',#326,#75);
#50=LINE('',#330,#76);
#51=LINE('',#332,#77);
#52=LINE('',#334,#78);
#53=LINE('',#335,#79);
#54=LINE('',#339,#80);
#55=LINE('',#343,#81);
#56=LINE('',#344,#82);
#57=LINE('',#347,#83);
#58=LINE('',#349,#84);
#59=LINE('',#350,#85);
#60=LINE('',#353,#86);
#61=LINE('',#356,#87);
#62=LINE('',#359,#88);
#63=LINE('',#360,#89);
#64=LINE('',#363,#90);
#65=LINE('',#364,#91);
#66=LINE('',#367,#92);
#67=LINE('',#368,#93);
#68=LINE('',#369,#94);
#69=LINE('',#372,#95);
#70=LINE('',#373,#96);
#71=LINE('',#375,#97);
#72=VECTOR('',#261,10.);
#73=VECTOR('',#262,10.);
#74=VECTOR('',#263,10.);
#75=VECTOR('',#264,10.);
#76=VECTOR('',#267,10.);
#77=VECTOR('',#268,10.);
#78=VECTOR('',#269,10.);
#79=VECTOR('',#270,10.);
#80=VECTOR('',#273,10.);
#81=VECTOR('',#280,10.);
#82=VECTOR('',#281,10.);
#83=VECTOR('',#284,10.);
#84=VECTOR('',#285,10.);
#85=VECTOR('',#286,10.);
#86=VECTOR('',#289,10.);
#87=VECTOR('',#292,10.);
#88=VECTOR('',#295,10.);
#89=VECTOR('',#296,10.);
#90=VECTOR('',#299,10.);
#91=VECTOR('',#300,10.);
#92=VECTOR('',#303,10.);
#93=VECTOR('',#304,10.);
#94=VECTOR('',#305,10.);
#95=VECTOR('',#308,10.);
#96=VECTOR('',#309,10.);
#97=VECTOR('',#312,10.);
#98=VERTEX_POINT('',#319);
#99=VERTEX_POINT('',#320);
#100=VERTEX_POINT('',#322);
#101=VERTEX_POINT('',#324);
#102=VERTEX_POINT('',#328);
#103=VERTEX_POINT('',#329);
#104=VERTEX_POINT('',#331);
#105=VERTEX_POINT('',#333);
#106=VERTEX_POINT('',#337);
#107=VERTEX_POINT('',#338);
#108=VERTEX_POINT('',#346);
#109=VERTEX_POINT('',#348);
#110=VERTEX_POINT('',#352);
#111=VERTEX_POINT('',#354);
#112=VERTEX_POINT('',#358);
#113=VERTEX_POINT('',#362);
#114=VERTEX_POINT('',#366);
#115=VERTEX_POINT('',#371);
#116=EDGE_CURVE('',#98,#99,#46,.T.);
#117=EDGE_CURVE('',#99,#100,#47,.T.);
#118=EDGE_CURVE('',#100,#101,#48,.T.);
#119=EDGE_CURVE('',#101,#98,#49,.T.);
#120=EDGE_CURVE('',#102,#103,#50,.T.);
#121=EDGE_CURVE('',#103,#104,#51,.T.);
#122=EDGE_CURVE('',#104,#105,#52,.T.);
#123=EDGE_CURVE('',#105,#102,#53,.T.);
#124=EDGE_CURVE('',#106,#107,#54,.T.);
#125=EDGE_CURVE('',#107,#104,#16,.T.);
#126=EDGE_CURVE('',#103,#106,#17,.T.);
#127=EDGE_CURVE('',#101,#107,#55,.T.);
#128=EDGE_CURVE('',#106,#98,#56,.T.);
#129=EDGE_CURVE('',#105,#108,#57,.T.);
#130=EDGE_CURVE('',#108,#109,#58,.T.);
#131=EDGE_CURVE('',#109,#102,#59,.T.);
#132=EDGE_CURVE('',#110,#103,#60,.T.);
#133=EDGE_CURVE('',#110,#111,#18,.T.);
#134=EDGE_CURVE('',#111,#106,#61,.T.);
#135=EDGE_CURVE('',#112,#102,#62,.T.);
#136=EDGE_CURVE('',#110,#112,#63,.T.);
#137=EDGE_CURVE('',#113,#109,#64,.T.);
#138=EDGE_CURVE('',#112,#113,#65,.T.);
#139=EDGE_CURVE('',#114,#99,#66,.T.);
#140=EDGE_CURVE('',#113,#114,#67,.T.);
#141=EDGE_CURVE('',#100,#108,#68,.T.);
#142=EDGE_CURVE('',#115,#98,#69,.T.);
#143=EDGE_CURVE('',#114,#115,#70,.T.);
#144=EDGE_CURVE('',#115,#111,#71,.T.);
#145=ORIENTED_EDGE('',*,*,#116,.T.);
#146=ORIENTED_EDGE('',*,*,#117,.T.);
#147=ORIENTED_EDGE('',*,*,#118,.T.);
#148=ORIENTED_EDGE('',*,*,#119,.T.);
#149=ORIENTED_EDGE('',*,*,#120,.T.);
#150=ORIENTED_EDGE('',*,*,#121,.T.);
#151=ORIENTED_EDGE('',*,*,#122,.T.);
#152=ORIENTED_EDGE('',*,*,#123,.T.);
#153=ORIENTED_EDGE('',*,*,#124,.T.);
#154=ORIENTED_EDGE('',*,*,#125,.T.);
#155=ORIENTED_EDGE('',*,*,#121,.F.);
#156=ORIENTED_EDGE('',*,*,#126,.T.);
#157=ORIENTED_EDGE('',*,*,#127,.T.);
#158=ORIENTED_EDGE('',*,*,#124,.F.);
#159=ORIENTED_EDGE('',*,*,#128,.T.);
#160=ORIENTED_EDGE('',*,*,#119,.F.);
#161=ORIENTED_EDGE('',*,*,#129,.T.);
#162=ORIENTED_EDGE('',*,*,#130,.T.);
#163=ORIENTED_EDGE('',*,*,#131,.T.);
#164=ORIENTED_EDGE('',*,*,#123,.F.);
#165=ORIENTED_EDGE('',*,*,#126,.F.);
#166=ORIENTED_EDGE('',*,*,#132,.F.);
#167=ORIENTED_EDGE('',*,*,#133,.T.);
#168=ORIENTED_EDGE('',*,*,#134,.T.);
#169=ORIENTED_EDGE('',*,*,#120,.F.);
#170=ORIENTED_EDGE('',*,*,#135,.F.);
#171=ORIENTED_EDGE('',*,*,#136,.F.);
#172=ORIENTED_EDGE('',*,*,#132,.T.);
#173=ORIENTED_EDGE('',*,*,#131,.F.);
#174=ORIENTED_EDGE('',*,*,#137,.F.);
#175=ORIENTED_EDGE('',*,*,#138,.F.);
#176=ORIENTED_EDGE('',*,*,#135,.T.);
#177=ORIENTED_EDGE('',*,*,#117,.F.);
#178=ORIENTED_EDGE('',*,*,#139,.F.);
#179=ORIENTED_EDGE('',*,*,#140,.F.);
#180=ORIENTED_EDGE('',*,*,#137,.T.);
#181=ORIENTED_EDGE('',*,*,#130,.F.);
#182=ORIENTED_EDGE('',*,*,#141,.F.);
#183=ORIENTED_EDGE('',*,*,#116,.F.);
#184=ORIENTED_EDGE('',*,*,#142,.F.);
#185=ORIENTED_EDGE('',*,*,#143,.F.);
#186=ORIENTED_EDGE('',*,*,#139,.T.);
#187=ORIENTED_EDGE('',*,*,#128,.F.);
#188=ORIENTED_EDGE('',*,*,#134,.F.);
#189=ORIENTED_EDGE('',*,*,#144,.F.);
#190=ORIENTED_EDGE('',*,*,#142,.T.);
#191=ORIENTED_EDGE('',*,*,#118,.F.);
#192=ORIENTED_EDGE('',*,*,#141,.T.);
#193=ORIENTED_EDGE('',*,*,#129,.F.);
#194=ORIENTED_EDGE('',*,*,#122,.F.);
#195=ORIENTED_EDGE('',*,*,#125,.F.);
#196=ORIENTED_EDGE('',*,*,#127,.F.);
#197=ORIENTED_EDGE('',*,*,#133,.F.);
#198=ORIENTED_EDGE('',*,*,#136,.T.);
#199=ORIENTED_EDGE('',*,*,#138,.T.);
#200=ORIENTED_EDGE('',*,*,#140,.T.);
#201=ORIENTED_EDGE('',*,*,#143,.T.);
#202=ORIENTED_EDGE('',*,*,#144,.T.);
#203=PLANE('',#241);
#204=PLANE('',#242);
#205=PLANE('',#246);
#206=PLANE('',#247);
#207=PLANE('',#250);
#208=PLANE('',#251);
#209=PLANE('',#252);
#210=PLANE('',#253);
#211=PLANE('',#254);
#212=PLANE('',#255);
#213=PLANE('',#256);
#214=ADVANCED_FACE('',(#20),#203,.T.);
#215=ADVANCED_FACE('',(#21),#204,.T.);
#216=ADVANCED_FACE('',(#22),#19,.T.);
#217=ADVANCED_FACE('',(#23),#205,.T.);
#218=ADVANCED_FACE('',(#24),#206,.T.);
#219=ADVANCED_FACE('',(#25),#15,.T.);
#220=ADVANCED_FACE('',(#26),#207,.T.);
#221=ADVANCED_FACE('',(#27),#208,.T.);
#222=ADVANCED_FACE('',(#28),#209,.T.);
#223=ADVANCED_FACE('',(#29),#210,.T.);
#224=ADVANCED_FACE('',(#30),#211,.T.);
#225=ADVANCED_FACE('',(#31),#212,.T.);
#226=ADVANCED_FACE('',(#32),#213,.F.);
#227=CLOSED_SHELL('',(#214,#215,#216,#217,#218,#219,#220,#221,#222,#223,
#224,#225,#226));
#228=DERIVED_UNIT_ELEMENT(#230,1.);
#229=DERIVED_UNIT_ELEMENT(#383,-3.);
#230=(
MASS_UNIT()
NAMED_UNIT(*)
SI_UNIT(.KILO.,.GRAM.)
);
#231=DERIVED_UNIT((#228,#229));
#232=MEASURE_REPRESENTATION_ITEM('density measure',
POSITIVE_RATIO_MEASURE(7850.),#231);
#233=PROPERTY_DEFINITION_REPRESENTATION(#238,#235);
#234=PROPERTY_DEFINITION_REPRESENTATION(#239,#236);
#235=REPRESENTATION('material name',(#237),#380);
#236=REPRESENTATION('density',(#232),#380);
#237=DESCRIPTIVE_REPRESENTATION_ITEM('Steel','Steel');
#238=PROPERTY_DEFINITION('material property','material name',#390);
#239=PROPERTY_DEFINITION('material property','density of part',#390);
#240=AXIS2_PLACEMENT_3D('',#317,#257,#258);
#241=AXIS2_PLACEMENT_3D('',#318,#259,#260);
#242=AXIS2_PLACEMENT_3D('',#327,#265,#266);
#243=AXIS2_PLACEMENT_3D('',#336,#271,#272);
#244=AXIS2_PLACEMENT_3D('',#340,#274,#275);
#245=AXIS2_PLACEMENT_3D('',#341,#276,#277);
#246=AXIS2_PLACEMENT_3D('',#342,#278,#279);
#247=AXIS2_PLACEMENT_3D('',#345,#282,#283);
#248=AXIS2_PLACEMENT_3D('',#351,#287,#288);
#249=AXIS2_PLACEMENT_3D('',#355,#290,#291);
#250=AXIS2_PLACEMENT_3D('',#357,#293,#294);
#251=AXIS2_PLACEMENT_3D('',#361,#297,#298);
#252=AXIS2_PLACEMENT_3D('',#365,#301,#302);
#253=AXIS2_PLACEMENT_3D('',#370,#306,#307);
#254=AXIS2_PLACEMENT_3D('',#374,#310,#311);
#255=AXIS2_PLACEMENT_3D('',#376,#313,#314);
#256=AXIS2_PLACEMENT_3D('',#377,#315,#316);
#257=DIRECTION('axis',(0.,0.,1.));
#258=DIRECTION('refdir',(1.,0.,0.));
#259=DIRECTION('center_axis',(0.707106781186548,-0.707106781186548,7.79418789370003E-17));
#260=DIRECTION('ref_axis',(1.10226462269548E-16,0.,-1.));
#261=DIRECTION('',(-1.10226462269548E-16,0.,1.));
#262=DIRECTION('',(-0.707106781186548,-0.707106781186548,0.));
#263=DIRECTION('',(1.10226462269548E-16,0.,-1.));
#264=DIRECTION('',(0.705971839845808,0.705971839845808,-0.0566349952719039));
#265=DIRECTION('center_axis',(-0.698063543398856,-0.70710678118655,-0.11272661343902));
#266=DIRECTION('ref_axis',(-0.159419505565852,0.,0.987210930472885));
#267=DIRECTION('',(0.159419505565852,-7.85046229341885E-17,-0.987210930472885));
#268=DIRECTION('',(0.698063543398861,-0.707106781186545,0.112726613439019));
#269=DIRECTION('',(-0.159419505565852,6.83827292012337E-17,0.987210930472885));
#270=DIRECTION('',(-0.70597183984581,0.705971839845805,-0.0566349952719204));
#271=DIRECTION('center_axis',(4.28948320712114E-16,1.,0.));
#272=DIRECTION('ref_axis',(-0.987210930472885,1.951897326413E-16,-0.15941950556585));
#273=DIRECTION('',(-0.698063543398861,-0.707106781186545,0.112726613439016));
#274=DIRECTION('center_axis',(4.28948320712151E-16,1.,4.72814558885637E-32));
#275=DIRECTION('ref_axis',(-0.987210930472885,1.951897326413E-16,-0.15941950556585));
#276=DIRECTION('center_axis',(0.,-1.,0.));
#277=DIRECTION('ref_axis',(-0.987210930472885,0.,-0.15941950556585));
#278=DIRECTION('center_axis',(0.698063543398861,-0.707106781186547,-0.112726613439006));
#279=DIRECTION('ref_axis',(-0.159419505565831,0.,-0.987210930472888));
#280=DIRECTION('',(-0.159419505565831,6.83827292012248E-17,-0.987210930472888));
#281=DIRECTION('',(0.159419505565831,-7.85046229341888E-17,0.987210930472888));
#282=DIRECTION('center_axis',(-0.707106781186545,-0.70710678118655,-3.34330380831761E-32));
#283=DIRECTION('ref_axis',(-4.7281455888564E-32,0.,1.));
#284=DIRECTION('',(0.,-4.72814558885637E-32,1.));
#285=DIRECTION('',(-0.70710678118655,0.707106781186545,0.));
#286=DIRECTION('',(0.,4.72814558885637E-32,-1.));
#287=DIRECTION('center_axis',(0.,-1.,0.));
#288=DIRECTION('ref_axis',(-0.987210930472885,0.,-0.15941950556585));
#289=DIRECTION('',(0.,-1.,0.));
#290=DIRECTION('center_axis',(0.,-1.,0.));
#291=DIRECTION('ref_axis',(-0.987210930472885,0.,-0.15941950556585));
#292=DIRECTION('',(0.,-1.,0.));
#293=DIRECTION('center_axis',(-0.987210930472885,0.,-0.159419505565852));
#294=DIRECTION('ref_axis',(0.159419505565852,0.,-0.987210930472885));
#295=DIRECTION('',(0.,-1.,0.));
#296=DIRECTION('',(-0.159419505565852,0.,0.987210930472885));
#297=DIRECTION('center_axis',(-1.,0.,0.));
#298=DIRECTION('ref_axis',(0.,-1.10226462269548E-16,-1.));
#299=DIRECTION('',(0.,-1.,0.));
#300=DIRECTION('',(0.,1.10226462269548E-16,1.));
#301=DIRECTION('center_axis',(0.,0.,1.));
#302=DIRECTION('ref_axis',(-1.,5.90544182750759E-17,0.));
#303=DIRECTION('',(0.,-1.,0.));
#304=DIRECTION('',(1.,-5.90544182750759E-17,0.));
#305=DIRECTION('',(-1.,5.90544182750759E-17,0.));
#306=DIRECTION('center_axis',(1.,0.,1.10226462269548E-16));
#307=DIRECTION('ref_axis',(-1.10226462269548E-16,0.,1.));
#308=DIRECTION('',(0.,-1.,0.));
#309=DIRECTION('',(1.10226462269548E-16,0.,-1.));
#310=DIRECTION('center_axis',(0.987210930472888,0.,-0.159419505565831));
#311=DIRECTION('ref_axis',(0.159419505565831,-6.83827292012248E-17,0.987210930472888));
#312=DIRECTION('',(-0.159419505565831,6.83827292012248E-17,-0.987210930472888));
#313=DIRECTION('center_axis',(-4.28948320712151E-16,-1.,-4.72814558885637E-32));
#314=DIRECTION('ref_axis',(1.,-4.28948320712151E-16,0.));
#315=DIRECTION('center_axis',(-4.28948320712151E-16,-1.,-4.72814558885637E-32));
#316=DIRECTION('ref_axis',(1.,-4.28948320712151E-16,0.));
#317=CARTESIAN_POINT('',(0.,0.,0.));
#318=CARTESIAN_POINT('Origin',(17.6585779842749,-8.55871326683936,41.9777995341062));
#319=CARTESIAN_POINT('',(18.7999993405122,-7.41729191060205,47.8555990682125));
#320=CARTESIAN_POINT('',(18.7999993405122,-7.41729191060205,68.));
#321=CARTESIAN_POINT('',(18.7999993405122,-7.41729191060205,44.9166993011594));
#322=CARTESIAN_POINT('',(16.5171566280376,-9.70013462307667,68.));
#323=CARTESIAN_POINT('',(18.2835779842749,-7.93371326683936,68.));
#324=CARTESIAN_POINT('',(16.5171566280376,-9.70013462307666,48.0387349653267));
#325=CARTESIAN_POINT('',(16.5171566280376,-9.70013462307666,39.0388997670531));
#326=CARTESIAN_POINT('',(17.3092157259072,-8.90807552520705,47.9751938143472));
#327=CARTESIAN_POINT('Origin',(-16.509226591099,-8.55871326683935,40.829767836224));
#328=CARTESIAN_POINT('',(-18.7999993404918,-7.41729191060205,47.8555990682125));
#329=CARTESIAN_POINT('',(-13.6235108405155,-7.41729191060205,15.8000108231912));
#330=CARTESIAN_POINT('',(-18.2180247853717,-7.41729191060205,44.2517010380914));
#331=CARTESIAN_POINT('',(-11.3698635622102,-9.70013462307665,16.1639404796985));
#332=CARTESIAN_POINT('',(-13.4838981318357,-7.55871326683936,15.822556145879));
#333=CARTESIAN_POINT('',(-16.5171566280172,-9.70013462307665,48.0387349653267));
#334=CARTESIAN_POINT('',(-14.8004283968262,-9.70013462307665,37.4078346343566));
#335=CARTESIAN_POINT('',(-17.4324270443859,-8.78486420670792,47.9653094647928));
#336=CARTESIAN_POINT('Origin',(1.05217704300175E-11,-8.55871326683935,18.));
#337=CARTESIAN_POINT('',(13.6235108405365,-7.41729191060206,15.8000108231913));
#338=CARTESIAN_POINT('',(11.3698635622312,-9.70013462307666,16.1639404796986));
#339=CARTESIAN_POINT('',(13.4838981318568,-7.55871326683936,15.8225561458791));
#340=CARTESIAN_POINT('Origin',(1.05212808192435E-11,-9.70013462307666,18.));
#341=CARTESIAN_POINT('Origin',(1.05221387158849E-11,-7.41729191060205,18.));
#342=CARTESIAN_POINT('Origin',(13.9209823411317,-8.55871326683935,24.8019737137135));
#343=CARTESIAN_POINT('',(13.5063062718529,-9.70013462307666,29.3939375731015));
#344=CARTESIAN_POINT('',(14.3356584104104,-7.41729191060204,20.2100098543256));
#345=CARTESIAN_POINT('Origin',(-17.6585779842545,-8.55871326683935,52.0499999999999));
#346=CARTESIAN_POINT('',(-16.5171566280172,-9.70013462307666,68.));
#347=CARTESIAN_POINT('',(-16.5171566280172,-9.70013462307665,44.0749999999999));
#348=CARTESIAN_POINT('',(-18.7999993404918,-7.41729191060204,68.));
#349=CARTESIAN_POINT('',(-8.88357831400345,-17.3337129370904,68.));
#350=CARTESIAN_POINT('',(-18.7999993404918,-7.41729191060204,60.025));
#351=CARTESIAN_POINT('Origin',(1.05221387158849E-11,-7.20013462307667,18.));
#352=CARTESIAN_POINT('',(-13.6235108405155,-7.20013462307667,15.8000108231912));
#353=CARTESIAN_POINT('',(-13.6235108405155,-7.20013462307667,15.8000108231912));
#354=CARTESIAN_POINT('',(13.6235108405365,-7.20013462307667,15.8000108231913));
#355=CARTESIAN_POINT('Origin',(1.05221387158849E-11,-7.20013462307667,18.));
#356=CARTESIAN_POINT('',(13.6235108405365,-7.20013462307667,15.8000108231913));
#357=CARTESIAN_POINT('Origin',(-18.7999993404918,-7.20013462307667,47.8555990682125));
#358=CARTESIAN_POINT('',(-18.7999993404918,-7.20013462307667,47.8555990682125));
#359=CARTESIAN_POINT('',(-18.7999993404918,-7.20013462307667,47.8555990682125));
#360=CARTESIAN_POINT('',(-13.6235108405155,-7.20013462307667,15.8000108231912));
#361=CARTESIAN_POINT('Origin',(-18.7999993404918,-7.20013462307666,68.));
#362=CARTESIAN_POINT('',(-18.7999993404918,-7.20013462307666,68.));
#363=CARTESIAN_POINT('',(-18.7999993404918,-7.20013462307666,68.));
#364=CARTESIAN_POINT('',(-18.7999993404918,-7.20013462307667,47.8555990682125));
#365=CARTESIAN_POINT('Origin',(18.7999993405122,-7.20013462307667,68.));
#366=CARTESIAN_POINT('',(18.7999993405122,-7.20013462307667,68.));
#367=CARTESIAN_POINT('',(18.7999993405122,-7.20013462307667,68.));
#368=CARTESIAN_POINT('',(-18.7999993404918,-7.20013462307666,68.));
#369=CARTESIAN_POINT('',(-18.7999993404918,-9.70013462307666,68.));
#370=CARTESIAN_POINT('Origin',(18.7999993405122,-7.20013462307667,47.8555990682125));
#371=CARTESIAN_POINT('',(18.7999993405122,-7.20013462307667,47.8555990682125));
#372=CARTESIAN_POINT('',(18.7999993405122,-7.20013462307667,47.8555990682125));
#373=CARTESIAN_POINT('',(18.7999993405122,-7.20013462307667,68.));
#374=CARTESIAN_POINT('Origin',(13.6235108405365,-7.20013462307666,15.8000108231913));
#375=CARTESIAN_POINT('',(18.7999993405122,-7.20013462307667,47.8555990682125));
#376=CARTESIAN_POINT('Origin',(1.01740837976649E-11,-9.70013462307666,36.0999999999999));
#377=CARTESIAN_POINT('Origin',(1.01740837976649E-11,-7.20013462307666,36.0999999999999));
#378=UNCERTAINTY_MEASURE_WITH_UNIT(LENGTH_MEASURE(0.01),#382,
'DISTANCE_ACCURACY_VALUE',
'Maximum model space distance between geometric entities at asserted c
onnectivities');
#379=UNCERTAINTY_MEASURE_WITH_UNIT(LENGTH_MEASURE(0.01),#382,
'DISTANCE_ACCURACY_VALUE',
'Maximum model space distance between geometric entities at asserted c
onnectivities');
#380=(
GEOMETRIC_REPRESENTATION_CONTEXT(3)
GLOBAL_UNCERTAINTY_ASSIGNED_CONTEXT((#378))
GLOBAL_UNIT_ASSIGNED_CONTEXT((#382,#384,#385))
REPRESENTATION_CONTEXT('','3D')
);
#381=(
GEOMETRIC_REPRESENTATION_CONTEXT(3)
GLOBAL_UNCERTAINTY_ASSIGNED_CONTEXT((#379))
GLOBAL_UNIT_ASSIGNED_CONTEXT((#382,#384,#385))
REPRESENTATION_CONTEXT('','3D')
);
#382=(
LENGTH_UNIT()
NAMED_UNIT(*)
SI_UNIT(.MILLI.,.METRE.)
);
#383=(
LENGTH_UNIT()
NAMED_UNIT(*)
SI_UNIT($,.METRE.)
);
#384=(
NAMED_UNIT(*)
PLANE_ANGLE_UNIT()
SI_UNIT($,.RADIAN.)
);
#385=(
NAMED_UNIT(*)
SI_UNIT($,.STERADIAN.)
SOLID_ANGLE_UNIT()
);
#386=SHAPE_DEFINITION_REPRESENTATION(#387,#388);
#387=PRODUCT_DEFINITION_SHAPE('',$,#390);
#388=SHAPE_REPRESENTATION('',(#240),#380);
#389=PRODUCT_DEFINITION_CONTEXT('part definition',#394,'design');
#390=PRODUCT_DEFINITION('FRONT DOOR','FRONT DOOR',#391,#389);
#391=PRODUCT_DEFINITION_FORMATION('',$,#396);
#392=PRODUCT_RELATED_PRODUCT_CATEGORY('FRONT DOOR','FRONT DOOR',(#396));
#393=APPLICATION_PROTOCOL_DEFINITION('international standard',
'automotive_design',2009,#394);
#394=APPLICATION_CONTEXT(
'Core Data for Automotive Mechanical Design Process');
#395=PRODUCT_CONTEXT('part definition',#394,'mechanical');
#396=PRODUCT('FRONT DOOR','FRONT DOOR',$,(#395));
#397=PRESENTATION_STYLE_ASSIGNMENT((#398));
#398=SURFACE_STYLE_USAGE(.BOTH.,#399);
#399=SURFACE_SIDE_STYLE('',(#400));
#400=SURFACE_STYLE_FILL_AREA(#401);
#401=FILL_AREA_STYLE('Steel - Satin',(#402));
#402=FILL_AREA_STYLE_COLOUR('Steel - Satin',#403);
#403=COLOUR_RGB('Steel - Satin',0.627450980392157,0.627450980392157,0.627450980392157);
ENDSEC;
END-ISO-10303-21;
