ISO-10303-21;
HEADER;
/* Generated by software containing ST-Developer
 * from STEP Tools, Inc. (www.steptools.com) 
 */

FILE_DESCRIPTION(
/* description */ (''),
/* implementation_level */ '2;1');

FILE_NAME(
/* name */ 'FRONT DOOR CLEAR FRAME.step',
/* time_stamp */ '2026-03-23T18:13:50-05:00',
/* author */ (''),
/* organization */ (''),
/* preprocessor_version */ 'ST-DEVELOPER v20.1',
/* originating_system */ 'Autodesk Translation Framework v14.24.0.0',
/* authorisation */ '');

FILE_SCHEMA (('AUTOMOTIVE_DESIGN { 1 0 10303 214 3 1 1 }'));
ENDSEC;

DATA;
#10=MECHANICAL_DESIGN_GEOMETRIC_PRESENTATION_REPRESENTATION('',(#13),#585);
#11=SHAPE_REPRESENTATION_RELATIONSHIP('SRR','None',#592,#12);
#12=ADVANCED_BREP_SHAPE_REPRESENTATION('',(#14),#584);
#13=STYLED_ITEM('',(#601),#14);
#14=MANIFOLD_SOLID_BREP('Clear door (1)',#355);
#15=FACE_BOUND('',#62,.T.);
#16=FACE_BOUND('',#64,.T.);
#17=CYLINDRICAL_SURFACE('',#376,13.8000000000002);
#18=CYLINDRICAL_SURFACE('',#385,9.80000000000019);
#19=CIRCLE('',#372,11.8000000000002);
#20=CIRCLE('',#373,13.8000000000002);
#21=CIRCLE('',#377,13.8000000000002);
#22=CIRCLE('',#386,9.80000000000019);
#23=CIRCLE('',#387,9.80000000000019);
#24=CONICAL_SURFACE('',#371,12.8000000000002,0.785398163397449);
#25=FACE_OUTER_BOUND('',#44,.T.);
#26=FACE_OUTER_BOUND('',#45,.T.);
#27=FACE_OUTER_BOUND('',#46,.T.);
#28=FACE_OUTER_BOUND('',#47,.T.);
#29=FACE_OUTER_BOUND('',#48,.T.);
#30=FACE_OUTER_BOUND('',#49,.T.);
#31=FACE_OUTER_BOUND('',#50,.T.);
#32=FACE_OUTER_BOUND('',#51,.T.);
#33=FACE_OUTER_BOUND('',#52,.T.);
#34=FACE_OUTER_BOUND('',#53,.T.);
#35=FACE_OUTER_BOUND('',#54,.T.);
#36=FACE_OUTER_BOUND('',#55,.T.);
#37=FACE_OUTER_BOUND('',#56,.T.);
#38=FACE_OUTER_BOUND('',#57,.T.);
#39=FACE_OUTER_BOUND('',#58,.T.);
#40=FACE_OUTER_BOUND('',#59,.T.);
#41=FACE_OUTER_BOUND('',#60,.T.);
#42=FACE_OUTER_BOUND('',#61,.T.);
#43=FACE_OUTER_BOUND('',#63,.T.);
#44=EDGE_LOOP('',(#226,#227,#228,#229));
#45=EDGE_LOOP('',(#230,#231,#232,#233));
#46=EDGE_LOOP('',(#234,#235,#236,#237));
#47=EDGE_LOOP('',(#238,#239,#240,#241));
#48=EDGE_LOOP('',(#242,#243,#244,#245));
#49=EDGE_LOOP('',(#246,#247,#248,#249));
#50=EDGE_LOOP('',(#250,#251,#252,#253));
#51=EDGE_LOOP('',(#254,#255,#256,#257));
#52=EDGE_LOOP('',(#258,#259,#260,#261));
#53=EDGE_LOOP('',(#262,#263,#264,#265));
#54=EDGE_LOOP('',(#266,#267,#268,#269));
#55=EDGE_LOOP('',(#270,#271,#272,#273));
#56=EDGE_LOOP('',(#274,#275,#276,#277));
#57=EDGE_LOOP('',(#278,#279,#280,#281));
#58=EDGE_LOOP('',(#282,#283,#284,#285,#286,#287));
#59=EDGE_LOOP('',(#288,#289,#290,#291));
#60=EDGE_LOOP('',(#292,#293,#294,#295));
#61=EDGE_LOOP('',(#296,#297,#298,#299,#300,#301));
#62=EDGE_LOOP('',(#302,#303,#304,#305,#306,#307));
#63=EDGE_LOOP('',(#308,#309,#310,#311,#312,#313));
#64=EDGE_LOOP('',(#314,#315,#316,#317,#318,#319));
#65=LINE('',#489,#107);
#66=LINE('',#491,#108);
#67=LINE('',#493,#109);
#68=LINE('',#494,#110);
#69=LINE('',#498,#111);
#70=LINE('',#500,#112);
#71=LINE('',#502,#113);
#72=LINE('',#503,#114);
#73=LINE('',#507,#115);
#74=LINE('',#511,#116);
#75=LINE('',#512,#117);
#76=LINE('',#515,#118);
#77=LINE('',#517,#119);
#78=LINE('',#518,#120);
#79=LINE('',#521,#121);
#80=LINE('',#524,#122);
#81=LINE('',#527,#123);
#82=LINE('',#528,#124);
#83=LINE('',#531,#125);
#84=LINE('',#532,#126);
#85=LINE('',#536,#127);
#86=LINE('',#538,#128);
#87=LINE('',#540,#129);
#88=LINE('',#541,#130);
#89=LINE('',#544,#131);
#90=LINE('',#546,#132);
#91=LINE('',#547,#133);
#92=LINE('',#550,#134);
#93=LINE('',#552,#135);
#94=LINE('',#553,#136);
#95=LINE('',#556,#137);
#96=LINE('',#558,#138);
#97=LINE('',#559,#139);
#98=LINE('',#562,#140);
#99=LINE('',#564,#141);
#100=LINE('',#565,#142);
#101=LINE('',#571,#143);
#102=LINE('',#572,#144);
#103=LINE('',#573,#145);
#104=LINE('',#576,#146);
#105=LINE('',#577,#147);
#106=LINE('',#579,#148);
#107=VECTOR('',#397,10.);
#108=VECTOR('',#398,10.);
#109=VECTOR('',#399,10.);
#110=VECTOR('',#400,10.);
#111=VECTOR('',#403,10.);
#112=VECTOR('',#404,10.);
#113=VECTOR('',#405,10.);
#114=VECTOR('',#406,10.);
#115=VECTOR('',#409,10.);
#116=VECTOR('',#416,10.);
#117=VECTOR('',#417,10.);
#118=VECTOR('',#420,10.);
#119=VECTOR('',#421,10.);
#120=VECTOR('',#422,10.);
#121=VECTOR('',#425,10.);
#122=VECTOR('',#428,10.);
#123=VECTOR('',#431,10.);
#124=VECTOR('',#432,10.);
#125=VECTOR('',#435,10.);
#126=VECTOR('',#436,10.);
#127=VECTOR('',#439,10.);
#128=VECTOR('',#440,10.);
#129=VECTOR('',#441,10.);
#130=VECTOR('',#442,10.);
#131=VECTOR('',#445,10.);
#132=VECTOR('',#446,10.);
#133=VECTOR('',#447,10.);
#134=VECTOR('',#450,10.);
#135=VECTOR('',#451,10.);
#136=VECTOR('',#452,10.);
#137=VECTOR('',#455,10.);
#138=VECTOR('',#456,10.);
#139=VECTOR('',#457,10.);
#140=VECTOR('',#460,10.);
#141=VECTOR('',#461,10.);
#142=VECTOR('',#462,10.);
#143=VECTOR('',#471,10.);
#144=VECTOR('',#472,10.);
#145=VECTOR('',#473,10.);
#146=VECTOR('',#476,10.);
#147=VECTOR('',#477,10.);
#148=VECTOR('',#480,10.);
#149=VERTEX_POINT('',#487);
#150=VERTEX_POINT('',#488);
#151=VERTEX_POINT('',#490);
#152=VERTEX_POINT('',#492);
#153=VERTEX_POINT('',#496);
#154=VERTEX_POINT('',#497);
#155=VERTEX_POINT('',#499);
#156=VERTEX_POINT('',#501);
#157=VERTEX_POINT('',#505);
#158=VERTEX_POINT('',#506);
#159=VERTEX_POINT('',#514);
#160=VERTEX_POINT('',#516);
#161=VERTEX_POINT('',#520);
#162=VERTEX_POINT('',#522);
#163=VERTEX_POINT('',#526);
#164=VERTEX_POINT('',#530);
#165=VERTEX_POINT('',#534);
#166=VERTEX_POINT('',#535);
#167=VERTEX_POINT('',#537);
#168=VERTEX_POINT('',#539);
#169=VERTEX_POINT('',#543);
#170=VERTEX_POINT('',#545);
#171=VERTEX_POINT('',#549);
#172=VERTEX_POINT('',#551);
#173=VERTEX_POINT('',#555);
#174=VERTEX_POINT('',#557);
#175=VERTEX_POINT('',#561);
#176=VERTEX_POINT('',#563);
#177=VERTEX_POINT('',#570);
#178=VERTEX_POINT('',#575);
#179=EDGE_CURVE('',#149,#150,#65,.T.);
#180=EDGE_CURVE('',#150,#151,#66,.F.);
#181=EDGE_CURVE('',#151,#152,#67,.T.);
#182=EDGE_CURVE('',#152,#149,#68,.T.);
#183=EDGE_CURVE('',#153,#154,#69,.T.);
#184=EDGE_CURVE('',#154,#155,#70,.T.);
#185=EDGE_CURVE('',#155,#156,#71,.T.);
#186=EDGE_CURVE('',#156,#153,#72,.T.);
#187=EDGE_CURVE('',#157,#158,#73,.T.);
#188=EDGE_CURVE('',#158,#155,#19,.T.);
#189=EDGE_CURVE('',#154,#157,#20,.T.);
#190=EDGE_CURVE('',#152,#158,#74,.T.);
#191=EDGE_CURVE('',#157,#149,#75,.T.);
#192=EDGE_CURVE('',#156,#159,#76,.T.);
#193=EDGE_CURVE('',#159,#160,#77,.F.);
#194=EDGE_CURVE('',#160,#153,#78,.T.);
#195=EDGE_CURVE('',#161,#154,#79,.T.);
#196=EDGE_CURVE('',#161,#162,#21,.T.);
#197=EDGE_CURVE('',#162,#157,#80,.T.);
#198=EDGE_CURVE('',#163,#153,#81,.T.);
#199=EDGE_CURVE('',#161,#163,#82,.T.);
#200=EDGE_CURVE('',#164,#160,#83,.T.);
#201=EDGE_CURVE('',#163,#164,#84,.T.);
#202=EDGE_CURVE('',#165,#166,#85,.T.);
#203=EDGE_CURVE('',#166,#167,#86,.T.);
#204=EDGE_CURVE('',#168,#167,#87,.T.);
#205=EDGE_CURVE('',#165,#168,#88,.T.);
#206=EDGE_CURVE('',#169,#165,#89,.T.);
#207=EDGE_CURVE('',#170,#168,#90,.T.);
#208=EDGE_CURVE('',#169,#170,#91,.T.);
#209=EDGE_CURVE('',#171,#169,#92,.T.);
#210=EDGE_CURVE('',#172,#170,#93,.T.);
#211=EDGE_CURVE('',#171,#172,#94,.T.);
#212=EDGE_CURVE('',#173,#171,#95,.T.);
#213=EDGE_CURVE('',#174,#172,#96,.T.);
#214=EDGE_CURVE('',#173,#174,#97,.T.);
#215=EDGE_CURVE('',#175,#173,#98,.T.);
#216=EDGE_CURVE('',#176,#174,#99,.T.);
#217=EDGE_CURVE('',#175,#176,#100,.T.);
#218=EDGE_CURVE('',#166,#175,#22,.T.);
#219=EDGE_CURVE('',#167,#176,#23,.T.);
#220=EDGE_CURVE('',#177,#150,#101,.F.);
#221=EDGE_CURVE('',#164,#177,#102,.T.);
#222=EDGE_CURVE('',#151,#159,#103,.F.);
#223=EDGE_CURVE('',#178,#149,#104,.T.);
#224=EDGE_CURVE('',#177,#178,#105,.T.);
#225=EDGE_CURVE('',#178,#162,#106,.T.);
#226=ORIENTED_EDGE('',*,*,#179,.T.);
#227=ORIENTED_EDGE('',*,*,#180,.T.);
#228=ORIENTED_EDGE('',*,*,#181,.T.);
#229=ORIENTED_EDGE('',*,*,#182,.T.);
#230=ORIENTED_EDGE('',*,*,#183,.T.);
#231=ORIENTED_EDGE('',*,*,#184,.T.);
#232=ORIENTED_EDGE('',*,*,#185,.T.);
#233=ORIENTED_EDGE('',*,*,#186,.T.);
#234=ORIENTED_EDGE('',*,*,#187,.T.);
#235=ORIENTED_EDGE('',*,*,#188,.T.);
#236=ORIENTED_EDGE('',*,*,#184,.F.);
#237=ORIENTED_EDGE('',*,*,#189,.T.);
#238=ORIENTED_EDGE('',*,*,#190,.T.);
#239=ORIENTED_EDGE('',*,*,#187,.F.);
#240=ORIENTED_EDGE('',*,*,#191,.T.);
#241=ORIENTED_EDGE('',*,*,#182,.F.);
#242=ORIENTED_EDGE('',*,*,#192,.T.);
#243=ORIENTED_EDGE('',*,*,#193,.T.);
#244=ORIENTED_EDGE('',*,*,#194,.T.);
#245=ORIENTED_EDGE('',*,*,#186,.F.);
#246=ORIENTED_EDGE('',*,*,#189,.F.);
#247=ORIENTED_EDGE('',*,*,#195,.F.);
#248=ORIENTED_EDGE('',*,*,#196,.T.);
#249=ORIENTED_EDGE('',*,*,#197,.T.);
#250=ORIENTED_EDGE('',*,*,#183,.F.);
#251=ORIENTED_EDGE('',*,*,#198,.F.);
#252=ORIENTED_EDGE('',*,*,#199,.F.);
#253=ORIENTED_EDGE('',*,*,#195,.T.);
#254=ORIENTED_EDGE('',*,*,#194,.F.);
#255=ORIENTED_EDGE('',*,*,#200,.F.);
#256=ORIENTED_EDGE('',*,*,#201,.F.);
#257=ORIENTED_EDGE('',*,*,#198,.T.);
#258=ORIENTED_EDGE('',*,*,#202,.T.);
#259=ORIENTED_EDGE('',*,*,#203,.T.);
#260=ORIENTED_EDGE('',*,*,#204,.F.);
#261=ORIENTED_EDGE('',*,*,#205,.F.);
#262=ORIENTED_EDGE('',*,*,#206,.T.);
#263=ORIENTED_EDGE('',*,*,#205,.T.);
#264=ORIENTED_EDGE('',*,*,#207,.F.);
#265=ORIENTED_EDGE('',*,*,#208,.F.);
#266=ORIENTED_EDGE('',*,*,#209,.T.);
#267=ORIENTED_EDGE('',*,*,#208,.T.);
#268=ORIENTED_EDGE('',*,*,#210,.F.);
#269=ORIENTED_EDGE('',*,*,#211,.F.);
#270=ORIENTED_EDGE('',*,*,#212,.T.);
#271=ORIENTED_EDGE('',*,*,#211,.T.);
#272=ORIENTED_EDGE('',*,*,#213,.F.);
#273=ORIENTED_EDGE('',*,*,#214,.F.);
#274=ORIENTED_EDGE('',*,*,#215,.T.);
#275=ORIENTED_EDGE('',*,*,#214,.T.);
#276=ORIENTED_EDGE('',*,*,#216,.F.);
#277=ORIENTED_EDGE('',*,*,#217,.F.);
#278=ORIENTED_EDGE('',*,*,#218,.T.);
#279=ORIENTED_EDGE('',*,*,#217,.T.);
#280=ORIENTED_EDGE('',*,*,#219,.F.);
#281=ORIENTED_EDGE('',*,*,#203,.F.);
#282=ORIENTED_EDGE('',*,*,#180,.F.);
#283=ORIENTED_EDGE('',*,*,#220,.F.);
#284=ORIENTED_EDGE('',*,*,#221,.F.);
#285=ORIENTED_EDGE('',*,*,#200,.T.);
#286=ORIENTED_EDGE('',*,*,#193,.F.);
#287=ORIENTED_EDGE('',*,*,#222,.F.);
#288=ORIENTED_EDGE('',*,*,#179,.F.);
#289=ORIENTED_EDGE('',*,*,#223,.F.);
#290=ORIENTED_EDGE('',*,*,#224,.F.);
#291=ORIENTED_EDGE('',*,*,#220,.T.);
#292=ORIENTED_EDGE('',*,*,#191,.F.);
#293=ORIENTED_EDGE('',*,*,#197,.F.);
#294=ORIENTED_EDGE('',*,*,#225,.F.);
#295=ORIENTED_EDGE('',*,*,#223,.T.);
#296=ORIENTED_EDGE('',*,*,#181,.F.);
#297=ORIENTED_EDGE('',*,*,#222,.T.);
#298=ORIENTED_EDGE('',*,*,#192,.F.);
#299=ORIENTED_EDGE('',*,*,#185,.F.);
#300=ORIENTED_EDGE('',*,*,#188,.F.);
#301=ORIENTED_EDGE('',*,*,#190,.F.);
#302=ORIENTED_EDGE('',*,*,#219,.T.);
#303=ORIENTED_EDGE('',*,*,#216,.T.);
#304=ORIENTED_EDGE('',*,*,#213,.T.);
#305=ORIENTED_EDGE('',*,*,#210,.T.);
#306=ORIENTED_EDGE('',*,*,#207,.T.);
#307=ORIENTED_EDGE('',*,*,#204,.T.);
#308=ORIENTED_EDGE('',*,*,#196,.F.);
#309=ORIENTED_EDGE('',*,*,#199,.T.);
#310=ORIENTED_EDGE('',*,*,#201,.T.);
#311=ORIENTED_EDGE('',*,*,#221,.T.);
#312=ORIENTED_EDGE('',*,*,#224,.T.);
#313=ORIENTED_EDGE('',*,*,#225,.T.);
#314=ORIENTED_EDGE('',*,*,#218,.F.);
#315=ORIENTED_EDGE('',*,*,#202,.F.);
#316=ORIENTED_EDGE('',*,*,#206,.F.);
#317=ORIENTED_EDGE('',*,*,#209,.F.);
#318=ORIENTED_EDGE('',*,*,#212,.F.);
#319=ORIENTED_EDGE('',*,*,#215,.F.);
#320=PLANE('',#369);
#321=PLANE('',#370);
#322=PLANE('',#374);
#323=PLANE('',#375);
#324=PLANE('',#378);
#325=PLANE('',#379);
#326=PLANE('',#380);
#327=PLANE('',#381);
#328=PLANE('',#382);
#329=PLANE('',#383);
#330=PLANE('',#384);
#331=PLANE('',#388);
#332=PLANE('',#389);
#333=PLANE('',#390);
#334=PLANE('',#391);
#335=PLANE('',#392);
#336=ADVANCED_FACE('',(#25),#320,.T.);
#337=ADVANCED_FACE('',(#26),#321,.T.);
#338=ADVANCED_FACE('',(#27),#24,.T.);
#339=ADVANCED_FACE('',(#28),#322,.T.);
#340=ADVANCED_FACE('',(#29),#323,.T.);
#341=ADVANCED_FACE('',(#30),#17,.T.);
#342=ADVANCED_FACE('',(#31),#324,.T.);
#343=ADVANCED_FACE('',(#32),#325,.T.);
#344=ADVANCED_FACE('',(#33),#326,.T.);
#345=ADVANCED_FACE('',(#34),#327,.T.);
#346=ADVANCED_FACE('',(#35),#328,.T.);
#347=ADVANCED_FACE('',(#36),#329,.T.);
#348=ADVANCED_FACE('',(#37),#330,.T.);
#349=ADVANCED_FACE('',(#38),#18,.F.);
#350=ADVANCED_FACE('',(#39),#331,.T.);
#351=ADVANCED_FACE('',(#40),#332,.T.);
#352=ADVANCED_FACE('',(#41),#333,.T.);
#353=ADVANCED_FACE('',(#42,#15),#334,.T.);
#354=ADVANCED_FACE('',(#43,#16),#335,.F.);
#355=CLOSED_SHELL('',(#336,#337,#338,#339,#340,#341,#342,#343,#344,#345,
#346,#347,#348,#349,#350,#351,#352,#353,#354));
#356=DERIVED_UNIT_ELEMENT(#358,1.);
#357=DERIVED_UNIT_ELEMENT(#587,-3.);
#358=(
MASS_UNIT()
NAMED_UNIT(*)
SI_UNIT(.KILO.,.GRAM.)
);
#359=DERIVED_UNIT((#356,#357));
#360=MEASURE_REPRESENTATION_ITEM('density measure',
POSITIVE_RATIO_MEASURE(7850.),#359);
#361=PROPERTY_DEFINITION_REPRESENTATION(#366,#363);
#362=PROPERTY_DEFINITION_REPRESENTATION(#367,#364);
#363=REPRESENTATION('material name',(#365),#584);
#364=REPRESENTATION('density',(#360),#584);
#365=DESCRIPTIVE_REPRESENTATION_ITEM('Steel','Steel');
#366=PROPERTY_DEFINITION('material property','material name',#594);
#367=PROPERTY_DEFINITION('material property','density of part',#594);
#368=AXIS2_PLACEMENT_3D('',#485,#393,#394);
#369=AXIS2_PLACEMENT_3D('',#486,#395,#396);
#370=AXIS2_PLACEMENT_3D('',#495,#401,#402);
#371=AXIS2_PLACEMENT_3D('',#504,#407,#408);
#372=AXIS2_PLACEMENT_3D('',#508,#410,#411);
#373=AXIS2_PLACEMENT_3D('',#509,#412,#413);
#374=AXIS2_PLACEMENT_3D('',#510,#414,#415);
#375=AXIS2_PLACEMENT_3D('',#513,#418,#419);
#376=AXIS2_PLACEMENT_3D('',#519,#423,#424);
#377=AXIS2_PLACEMENT_3D('',#523,#426,#427);
#378=AXIS2_PLACEMENT_3D('',#525,#429,#430);
#379=AXIS2_PLACEMENT_3D('',#529,#433,#434);
#380=AXIS2_PLACEMENT_3D('',#533,#437,#438);
#381=AXIS2_PLACEMENT_3D('',#542,#443,#444);
#382=AXIS2_PLACEMENT_3D('',#548,#448,#449);
#383=AXIS2_PLACEMENT_3D('',#554,#453,#454);
#384=AXIS2_PLACEMENT_3D('',#560,#458,#459);
#385=AXIS2_PLACEMENT_3D('',#566,#463,#464);
#386=AXIS2_PLACEMENT_3D('',#567,#465,#466);
#387=AXIS2_PLACEMENT_3D('',#568,#467,#468);
#388=AXIS2_PLACEMENT_3D('',#569,#469,#470);
#389=AXIS2_PLACEMENT_3D('',#574,#474,#475);
#390=AXIS2_PLACEMENT_3D('',#578,#478,#479);
#391=AXIS2_PLACEMENT_3D('',#580,#481,#482);
#392=AXIS2_PLACEMENT_3D('',#581,#483,#484);
#393=DIRECTION('axis',(0.,0.,1.));
#394=DIRECTION('refdir',(1.,0.,0.));
#395=DIRECTION('center_axis',(0.707106781186548,-0.707106781186547,7.79418789370003E-17));
#396=DIRECTION('ref_axis',(1.10226462269548E-16,0.,-1.));
#397=DIRECTION('',(-1.10226462269548E-16,-1.39180087749362E-33,1.));
#398=DIRECTION('',(0.707106781186547,0.707106781186548,0.));
#399=DIRECTION('',(1.10226462269548E-16,1.39180087749362E-33,-1.));
#400=DIRECTION('',(0.705971839845808,0.705971839845808,-0.0566349952719147));
#401=DIRECTION('center_axis',(-0.698063543398858,-0.707106781186548,-0.112726613439021));
#402=DIRECTION('ref_axis',(-0.159419505565852,0.,0.987210930472885));
#403=DIRECTION('',(0.159419505565852,2.62703651445157E-33,-0.987210930472885));
#404=DIRECTION('',(0.698063543398859,-0.707106781186547,0.112726613439018));
#405=DIRECTION('',(-0.159419505565852,-2.62703651445157E-33,0.987210930472885));
#406=DIRECTION('',(-0.705971839845808,0.705971839845808,-0.0566349952719209));
#407=DIRECTION('center_axis',(0.,1.,0.));
#408=DIRECTION('ref_axis',(-0.987210930472885,-3.47435619446183E-33,-0.15941950556585));
#409=DIRECTION('',(-0.69806354339886,-0.707106781186547,0.112726613439014));
#410=DIRECTION('center_axis',(-7.85998846691015E-33,1.,1.39180087749362E-33));
#411=DIRECTION('ref_axis',(-0.987210930472885,-7.53758632018837E-33,-0.15941950556585));
#412=DIRECTION('center_axis',(7.85998846691015E-33,-1.,-1.39180087749362E-33));
#413=DIRECTION('ref_axis',(-0.987210930472885,0.,-0.15941950556585));
#414=DIRECTION('center_axis',(0.69806354339886,-0.707106781186548,-0.112726613439006));
#415=DIRECTION('ref_axis',(-0.159419505565831,0.,-0.987210930472888));
#416=DIRECTION('',(-0.159419505565831,1.20965564155509E-34,-0.987210930472888));
#417=DIRECTION('',(0.159419505565831,-1.20965564155509E-34,0.987210930472888));
#418=DIRECTION('center_axis',(-0.707106781186548,-0.707106781186548,-9.84151838537128E-34));
#419=DIRECTION('ref_axis',(-1.39180087749362E-33,0.,1.));
#420=DIRECTION('',(0.,-1.39180087749362E-33,1.));
#421=DIRECTION('',(0.707106781186548,-0.707106781186548,0.));
#422=DIRECTION('',(0.,1.39180087749362E-33,-1.));
#423=DIRECTION('center_axis',(0.,-1.,0.));
#424=DIRECTION('ref_axis',(-0.987210930472885,0.,-0.15941950556585));
#425=DIRECTION('',(0.,-1.,0.));
#426=DIRECTION('center_axis',(7.85998846691015E-33,-1.,-1.39180087749362E-33));
#427=DIRECTION('ref_axis',(-0.987210930472885,-7.53758632018837E-33,-0.15941950556585));
#428=DIRECTION('',(0.,-1.,0.));
#429=DIRECTION('center_axis',(-0.987210930472885,0.,-0.159419505565852));
#430=DIRECTION('ref_axis',(0.159419505565852,-4.32816913584137E-33,-0.987210930472885));
#431=DIRECTION('',(0.,-1.,0.));
#432=DIRECTION('',(-0.159419505565852,4.32816913584137E-33,0.987210930472885));
#433=DIRECTION('center_axis',(-1.,0.,0.));
#434=DIRECTION('ref_axis',(0.,3.48187131528305E-33,-1.));
#435=DIRECTION('',(0.,-1.,0.));
#436=DIRECTION('',(0.,-3.48187131528305E-33,1.));
#437=DIRECTION('center_axis',(-0.987210930472888,0.,0.159419505565831));
#438=DIRECTION('ref_axis',(-0.159419505565831,3.40897204453378E-33,-0.987210930472888));
#439=DIRECTION('',(-0.159419505565831,3.40897204453378E-33,-0.987210930472888));
#440=DIRECTION('',(0.,-1.,0.));
#441=DIRECTION('',(-0.159419505565831,3.40897204453378E-33,-0.987210930472888));
#442=DIRECTION('',(0.,-1.,0.));
#443=DIRECTION('center_axis',(-1.,0.,1.82423486892973E-15));
#444=DIRECTION('ref_axis',(-1.82423486892973E-15,1.47407934236062E-34,-1.));
#445=DIRECTION('',(-1.82423486892973E-15,1.47407934236062E-34,-1.));
#446=DIRECTION('',(-1.82423486892973E-15,1.47407934236062E-34,-1.));
#447=DIRECTION('',(0.,-1.,0.));
#448=DIRECTION('center_axis',(0.,0.,-1.));
#449=DIRECTION('ref_axis',(1.,8.40118687349557E-34,0.));
#450=DIRECTION('',(1.,8.40118687349557E-34,0.));
#451=DIRECTION('',(1.,8.40118687349557E-34,0.));
#452=DIRECTION('',(0.,-1.,0.));
#453=DIRECTION('center_axis',(1.,0.,-4.20977277445334E-16));
#454=DIRECTION('ref_axis',(4.20977277445334E-16,-3.94868357737472E-33,1.));
#455=DIRECTION('',(4.20977277445334E-16,-3.94868357737472E-33,1.));
#456=DIRECTION('',(4.20977277445334E-16,-3.94868357737472E-33,1.));
#457=DIRECTION('',(0.,-1.,0.));
#458=DIRECTION('center_axis',(0.987210930472885,0.,0.159419505565852));
#459=DIRECTION('ref_axis',(-0.159419505565852,3.88086738887158E-33,0.987210930472885));
#460=DIRECTION('',(-0.159419505565852,3.88086738887158E-33,0.987210930472885));
#461=DIRECTION('',(-0.159419505565852,3.88086738887158E-33,0.987210930472885));
#462=DIRECTION('',(0.,-1.,0.));
#463=DIRECTION('center_axis',(0.,-1.,0.));
#464=DIRECTION('ref_axis',(-0.987210930472886,0.,-0.159419505565848));
#465=DIRECTION('center_axis',(-8.95979731991218E-33,1.,-1.44687058724767E-33));
#466=DIRECTION('ref_axis',(-0.987210930472886,-9.07586924267576E-33,-0.159419505565848));
#467=DIRECTION('center_axis',(-8.95979731991218E-33,1.,-1.44687058724767E-33));
#468=DIRECTION('ref_axis',(-0.987210930472886,-9.07586924267576E-33,-0.159419505565848));
#469=DIRECTION('center_axis',(0.,0.,1.));
#470=DIRECTION('ref_axis',(-1.,-8.94136400206801E-34,0.));
#471=DIRECTION('',(0.,1.,0.));
#472=DIRECTION('',(1.,7.85998846691015E-33,0.));
#473=DIRECTION('',(1.,7.85998846691015E-33,0.));
#474=DIRECTION('center_axis',(1.,0.,1.10226462269548E-16));
#475=DIRECTION('ref_axis',(-1.10226462269548E-16,-1.5434491539465E-78,1.));
#476=DIRECTION('',(0.,-1.,0.));
#477=DIRECTION('',(1.10226462269548E-16,1.5434491539465E-78,-1.));
#478=DIRECTION('center_axis',(0.987210930472888,0.,-0.159419505565831));
#479=DIRECTION('ref_axis',(0.159419505565831,-3.39204393767937E-33,0.987210930472888));
#480=DIRECTION('',(-0.159419505565831,3.39204393767937E-33,-0.987210930472888));
#481=DIRECTION('center_axis',(7.85998846691015E-33,-1.,-1.39180087749362E-33));
#482=DIRECTION('ref_axis',(1.,7.85998846691015E-33,0.));
#483=DIRECTION('center_axis',(7.85998846691015E-33,-1.,-1.39180087749362E-33));
#484=DIRECTION('ref_axis',(1.,7.85998846691015E-33,0.));
#485=CARTESIAN_POINT('',(0.,0.,0.));
#486=CARTESIAN_POINT('Origin',(17.7999993405122,-8.70013462307667,41.9777995341062));
#487=CARTESIAN_POINT('',(18.7999993405122,-7.70013462307667,47.8555990682125));
#488=CARTESIAN_POINT('',(18.7999993405122,-7.70013462307667,67.5));
#489=CARTESIAN_POINT('',(18.7999993405122,-7.70013462307667,41.9777995341062));
#490=CARTESIAN_POINT('',(16.7999993405122,-9.70013462307667,67.5));
#491=CARTESIAN_POINT('',(18.4249993405122,-8.07513462307666,67.5));
#492=CARTESIAN_POINT('',(16.7999993405122,-9.70013462307667,48.0160445479764));
#493=CARTESIAN_POINT('',(16.7999993405122,-9.70013462307667,41.9777995341062));
#494=CARTESIAN_POINT('',(16.7999993405122,-9.70013462307667,48.0160445479764));
#495=CARTESIAN_POINT('Origin',(-16.6488392997787,-8.70013462307667,40.8072225135362));
#496=CARTESIAN_POINT('',(-18.7999993404918,-7.70013462307667,47.8555990682125));
#497=CARTESIAN_POINT('',(-13.6235108405155,-7.70013462307667,15.8000108231912));
#498=CARTESIAN_POINT('',(-17.6360502302516,-7.70013462307667,40.6478030079704));
#499=CARTESIAN_POINT('',(-11.6490889795697,-9.70013462307667,16.1188498343229));
#500=CARTESIAN_POINT('',(-13.6235108405155,-7.70013462307667,15.8000108231912));
#501=CARTESIAN_POINT('',(-16.7999993404918,-9.70013462307667,48.0160445479764));
#502=CARTESIAN_POINT('',(-15.6616283693059,-9.70013462307667,40.9666420191021));
#503=CARTESIAN_POINT('',(-16.7999993404918,-9.70013462307667,48.0160445479764));
#504=CARTESIAN_POINT('Origin',(1.05252272015404E-11,-8.70013462307667,18.));
#505=CARTESIAN_POINT('',(13.6235108405365,-7.70013462307667,15.8000108231913));
#506=CARTESIAN_POINT('',(11.6490889795908,-9.70013462307667,16.118849834323));
#507=CARTESIAN_POINT('',(13.6235108405365,-7.70013462307667,15.8000108231913));
#508=CARTESIAN_POINT('Origin',(1.05252272015404E-11,-9.70013462307667,18.));
#509=CARTESIAN_POINT('Origin',(1.05252272015404E-11,-7.70013462307667,18.));
#510=CARTESIAN_POINT('Origin',(14.0605950498115,-8.70013462307667,24.7794283910257));
#511=CARTESIAN_POINT('',(13.0733841193386,-9.70013462307667,24.9388478965916));
#512=CARTESIAN_POINT('',(15.0478059802844,-7.70013462307667,24.6200088854599));
#513=CARTESIAN_POINT('Origin',(-17.7999993404918,-8.70013462307667,52.0499999999999));
#514=CARTESIAN_POINT('',(-16.7999993404918,-9.70013462307667,67.5));
#515=CARTESIAN_POINT('',(-16.7999993404918,-9.70013462307667,52.0499999999999));
#516=CARTESIAN_POINT('',(-18.7999993404918,-7.70013462307667,67.5));
#517=CARTESIAN_POINT('',(-9.02499967024083,-17.4751342933277,67.5));
#518=CARTESIAN_POINT('',(-18.7999993404918,-7.70013462307667,52.0499999999999));
#519=CARTESIAN_POINT('Origin',(1.05252272015404E-11,-7.20013462307667,18.));
#520=CARTESIAN_POINT('',(-13.6235108405155,-7.20013462307667,15.8000108231912));
#521=CARTESIAN_POINT('',(-13.6235108405155,-7.20013462307667,15.8000108231912));
#522=CARTESIAN_POINT('',(13.6235108405365,-7.20013462307667,15.8000108231913));
#523=CARTESIAN_POINT('Origin',(1.05252272015404E-11,-7.20013462307667,18.));
#524=CARTESIAN_POINT('',(13.6235108405365,-7.20013462307667,15.8000108231913));
#525=CARTESIAN_POINT('Origin',(-18.7999993404918,-7.20013462307667,47.8555990682125));
#526=CARTESIAN_POINT('',(-18.7999993404918,-7.20013462307667,47.8555990682125));
#527=CARTESIAN_POINT('',(-18.7999993404918,-7.20013462307667,47.8555990682125));
#528=CARTESIAN_POINT('',(-13.6235108405155,-7.20013462307667,15.8000108231912));
#529=CARTESIAN_POINT('Origin',(-18.7999993404918,-7.20013462307667,68.));
#530=CARTESIAN_POINT('',(-18.7999993404918,-7.20013462307667,67.5));
#531=CARTESIAN_POINT('',(-18.7999993404918,-7.20013462307667,67.5));
#532=CARTESIAN_POINT('',(-18.7999993404918,-7.20013462307667,47.8555990682125));
#533=CARTESIAN_POINT('Origin',(14.7999993405121,-7.20013462307667,48.17649002774));
#534=CARTESIAN_POINT('',(14.7999993405121,-7.20013462307667,48.17649002774));
#535=CARTESIAN_POINT('',(9.67466711864498,-7.20013462307667,16.4376888454546));
#536=CARTESIAN_POINT('',(14.7999993405121,-7.20013462307667,48.17649002774));
#537=CARTESIAN_POINT('',(9.67466711864498,-9.70013462307667,16.4376888454546));
#538=CARTESIAN_POINT('',(9.67466711864498,-7.20013462307667,16.4376888454546));
#539=CARTESIAN_POINT('',(14.7999993405121,-9.70013462307667,48.17649002774));
#540=CARTESIAN_POINT('',(14.7999993405121,-9.70013462307667,48.17649002774));
#541=CARTESIAN_POINT('',(14.7999993405121,-7.20013462307667,48.17649002774));
#542=CARTESIAN_POINT('Origin',(14.7999993405122,-7.20013462307667,64.));
#543=CARTESIAN_POINT('',(14.7999993405122,-7.20013462307667,64.));
#544=CARTESIAN_POINT('',(14.7999993405122,-7.20013462307667,64.));
#545=CARTESIAN_POINT('',(14.7999993405122,-9.70013462307667,64.));
#546=CARTESIAN_POINT('',(14.7999993405122,-9.70013462307667,64.));
#547=CARTESIAN_POINT('',(14.7999993405122,-7.20013462307667,64.));
#548=CARTESIAN_POINT('Origin',(-14.7999993404918,-7.20013462307667,64.));
#549=CARTESIAN_POINT('',(-14.7999993404918,-7.20013462307667,64.));
#550=CARTESIAN_POINT('',(-14.7999993404918,-7.20013462307667,64.));
#551=CARTESIAN_POINT('',(-14.7999993404918,-9.70013462307667,64.));
#552=CARTESIAN_POINT('',(-14.7999993404918,-9.70013462307667,64.));
#553=CARTESIAN_POINT('',(-14.7999993404918,-7.20013462307667,64.));
#554=CARTESIAN_POINT('Origin',(-14.7999993404918,-7.20013462307667,48.1764900277404));
#555=CARTESIAN_POINT('',(-14.7999993404918,-7.20013462307667,48.1764900277404));
#556=CARTESIAN_POINT('',(-14.7999993404918,-7.20013462307667,48.1764900277404));
#557=CARTESIAN_POINT('',(-14.7999993404918,-9.70013462307667,48.1764900277404));
#558=CARTESIAN_POINT('',(-14.7999993404918,-9.70013462307667,48.1764900277404));
#559=CARTESIAN_POINT('',(-14.7999993404918,-7.20013462307667,48.1764900277404));
#560=CARTESIAN_POINT('Origin',(-9.67466711862394,-7.20013462307667,16.4376888454547));
#561=CARTESIAN_POINT('',(-9.67466711862394,-7.20013462307667,16.4376888454547));
#562=CARTESIAN_POINT('',(-9.67466711862394,-7.20013462307667,16.4376888454547));
#563=CARTESIAN_POINT('',(-9.67466711862394,-9.70013462307667,16.4376888454547));
#564=CARTESIAN_POINT('',(-9.67466711862394,-9.70013462307667,16.4376888454547));
#565=CARTESIAN_POINT('',(-9.67466711862394,-7.20013462307667,16.4376888454547));
#566=CARTESIAN_POINT('Origin',(1.05252272015404E-11,-7.20013462307667,18.));
#567=CARTESIAN_POINT('Origin',(1.05252272015404E-11,-7.20013462307667,18.));
#568=CARTESIAN_POINT('Origin',(1.05252272015404E-11,-9.70013462307667,18.));
#569=CARTESIAN_POINT('Origin',(18.7999993405122,-7.20013462307667,67.5));
#570=CARTESIAN_POINT('',(18.7999993405122,-7.20013462307667,67.5));
#571=CARTESIAN_POINT('',(18.7999993405122,-7.20013462307667,67.5));
#572=CARTESIAN_POINT('',(9.39999967026118,-7.20013462307667,67.5));
#573=CARTESIAN_POINT('',(9.39999967026118,-9.70013462307667,67.5));
#574=CARTESIAN_POINT('Origin',(18.7999993405122,-7.20013462307667,47.8555990682125));
#575=CARTESIAN_POINT('',(18.7999993405122,-7.20013462307667,47.8555990682125));
#576=CARTESIAN_POINT('',(18.7999993405122,-7.20013462307667,47.8555990682125));
#577=CARTESIAN_POINT('',(18.7999993405122,-7.20013462307667,68.));
#578=CARTESIAN_POINT('Origin',(13.6235108405365,-7.20013462307667,15.8000108231913));
#579=CARTESIAN_POINT('',(18.7999993405122,-7.20013462307667,47.8555990682125));
#580=CARTESIAN_POINT('Origin',(1.01763042437142E-11,-9.70013462307667,36.0999999999999));
#581=CARTESIAN_POINT('Origin',(1.01763042437142E-11,-7.20013462307667,36.0999999999999));
#582=UNCERTAINTY_MEASURE_WITH_UNIT(LENGTH_MEASURE(0.01),#586,
'DISTANCE_ACCURACY_VALUE',
'Maximum model space distance between geometric entities at asserted c
onnectivities');
#583=UNCERTAINTY_MEASURE_WITH_UNIT(LENGTH_MEASURE(0.01),#586,
'DISTANCE_ACCURACY_VALUE',
'Maximum model space distance between geometric entities at asserted c
onnectivities');
#584=(
GEOMETRIC_REPRESENTATION_CONTEXT(3)
GLOBAL_UNCERTAINTY_ASSIGNED_CONTEXT((#582))
GLOBAL_UNIT_ASSIGNED_CONTEXT((#586,#588,#589))
REPRESENTATION_CONTEXT('','3D')
);
#585=(
GEOMETRIC_REPRESENTATION_CONTEXT(3)
GLOBAL_UNCERTAINTY_ASSIGNED_CONTEXT((#583))
GLOBAL_UNIT_ASSIGNED_CONTEXT((#586,#588,#589))
REPRESENTATION_CONTEXT('','3D')
);
#586=(
LENGTH_UNIT()
NAMED_UNIT(*)
SI_UNIT(.MILLI.,.METRE.)
);
#587=(
LENGTH_UNIT()
NAMED_UNIT(*)
SI_UNIT($,.METRE.)
);
#588=(
NAMED_UNIT(*)
PLANE_ANGLE_UNIT()
SI_UNIT($,.RADIAN.)
);
#589=(
NAMED_UNIT(*)
SI_UNIT($,.STERADIAN.)
SOLID_ANGLE_UNIT()
);
#590=SHAPE_DEFINITION_REPRESENTATION(#591,#592);
#591=PRODUCT_DEFINITION_SHAPE('',$,#594);
#592=SHAPE_REPRESENTATION('',(#368),#584);
#593=PRODUCT_DEFINITION_CONTEXT('part definition',#598,'design');
#594=PRODUCT_DEFINITION('FRONT DOOR CLEAR ','FRONT DOOR CLEAR ',#595,#593);
#595=PRODUCT_DEFINITION_FORMATION('',$,#600);
#596=PRODUCT_RELATED_PRODUCT_CATEGORY('FRONT DOOR CLEAR ',
'FRONT DOOR CLEAR ',(#600));
#597=APPLICATION_PROTOCOL_DEFINITION('international standard',
'automotive_design',2009,#598);
#598=APPLICATION_CONTEXT(
'Core Data for Automotive Mechanical Design Process');
#599=PRODUCT_CONTEXT('part definition',#598,'mechanical');
#600=PRODUCT('FRONT DOOR CLEAR ','FRONT DOOR CLEAR ',$,(#599));
#601=PRESENTATION_STYLE_ASSIGNMENT((#602));
#602=SURFACE_STYLE_USAGE(.BOTH.,#603);
#603=SURFACE_SIDE_STYLE('',(#604));
#604=SURFACE_STYLE_FILL_AREA(#605);
#605=FILL_AREA_STYLE('Steel - Satin',(#606));
#606=FILL_AREA_STYLE_COLOUR('Steel - Satin',#607);
#607=COLOUR_RGB('Steel - Satin',0.627450980392157,0.627450980392157,0.627450980392157);
ENDSEC;
END-ISO-10303-21;
