ISO-10303-21;
HEADER;
/* Generated by software containing ST-Developer
 * from STEP Tools, Inc. (www.steptools.com) 
 */

FILE_DESCRIPTION(
/* description */ (''),
/* implementation_level */ '2;1');

FILE_NAME(
/* name */ 'LEFT SERVO SUPPORT.step',
/* time_stamp */ '2026-03-23T18:20:50-05:00',
/* author */ (''),
/* organization */ (''),
/* preprocessor_version */ 'ST-DEVELOPER v20.1',
/* originating_system */ 'Autodesk Translation Framework v14.24.0.0',
/* authorisation */ '');

FILE_SCHEMA (('AUTOMOTIVE_DESIGN { 1 0 10303 214 3 1 1 }'));
ENDSEC;

DATA;
#10=MECHANICAL_DESIGN_GEOMETRIC_PRESENTATION_REPRESENTATION('',(#13),#368);
#11=SHAPE_REPRESENTATION_RELATIONSHIP('SRR','None',#375,#12);
#12=ADVANCED_BREP_SHAPE_REPRESENTATION('',(#14),#367);
#13=STYLED_ITEM('',(#384),#14);
#14=MANIFOLD_SOLID_BREP('Left servo support',#216);
#15=FACE_BOUND('',#42,.T.);
#16=FACE_BOUND('',#50,.T.);
#17=FACE_BOUND('',#53,.T.);
#18=PLANE('',#233);
#19=PLANE('',#234);
#20=PLANE('',#239);
#21=PLANE('',#240);
#22=PLANE('',#241);
#23=PLANE('',#244);
#24=PLANE('',#245);
#25=PLANE('',#246);
#26=PLANE('',#247);
#27=FACE_OUTER_BOUND('',#39,.T.);
#28=FACE_OUTER_BOUND('',#40,.T.);
#29=FACE_OUTER_BOUND('',#41,.T.);
#30=FACE_OUTER_BOUND('',#43,.T.);
#31=FACE_OUTER_BOUND('',#44,.T.);
#32=FACE_OUTER_BOUND('',#45,.T.);
#33=FACE_OUTER_BOUND('',#46,.T.);
#34=FACE_OUTER_BOUND('',#47,.T.);
#35=FACE_OUTER_BOUND('',#48,.T.);
#36=FACE_OUTER_BOUND('',#49,.T.);
#37=FACE_OUTER_BOUND('',#51,.T.);
#38=FACE_OUTER_BOUND('',#52,.T.);
#39=EDGE_LOOP('',(#147,#148,#149,#150));
#40=EDGE_LOOP('',(#151));
#41=EDGE_LOOP('',(#152,#153,#154,#155));
#42=EDGE_LOOP('',(#156));
#43=EDGE_LOOP('',(#157,#158,#159,#160));
#44=EDGE_LOOP('',(#161,#162,#163,#164));
#45=EDGE_LOOP('',(#165,#166,#167,#168));
#46=EDGE_LOOP('',(#169,#170,#171,#172,#173,#174,#175));
#47=EDGE_LOOP('',(#176,#177,#178,#179));
#48=EDGE_LOOP('',(#180,#181,#182,#183,#184,#185,#186));
#49=EDGE_LOOP('',(#187,#188,#189,#190));
#50=EDGE_LOOP('',(#191));
#51=EDGE_LOOP('',(#192,#193,#194,#195));
#52=EDGE_LOOP('',(#196,#197,#198,#199));
#53=EDGE_LOOP('',(#200));
#54=LINE('',#312,#75);
#55=LINE('',#318,#76);
#56=LINE('',#320,#77);
#57=LINE('',#322,#78);
#58=LINE('',#323,#79);
#59=LINE('',#330,#80);
#60=LINE('',#334,#81);
#61=LINE('',#336,#82);
#62=LINE('',#337,#83);
#63=LINE('',#340,#84);
#64=LINE('',#342,#85);
#65=LINE('',#343,#86);
#66=LINE('',#346,#87);
#67=LINE('',#348,#88);
#68=LINE('',#349,#89);
#69=LINE('',#352,#90);
#70=LINE('',#356,#91);
#71=LINE('',#358,#92);
#72=LINE('',#359,#93);
#73=LINE('',#361,#94);
#74=LINE('',#363,#95);
#75=VECTOR('',#254,0.899999999999999);
#76=VECTOR('',#261,10.);
#77=VECTOR('',#262,10.);
#78=VECTOR('',#263,10.);
#79=VECTOR('',#264,10.);
#80=VECTOR('',#271,10.);
#81=VECTOR('',#276,10.);
#82=VECTOR('',#277,10.);
#83=VECTOR('',#278,10.);
#84=VECTOR('',#281,10.);
#85=VECTOR('',#282,10.);
#86=VECTOR('',#283,10.);
#87=VECTOR('',#286,10.);
#88=VECTOR('',#287,10.);
#89=VECTOR('',#288,10.);
#90=VECTOR('',#291,1.7);
#91=VECTOR('',#296,10.);
#92=VECTOR('',#297,10.);
#93=VECTOR('',#298,10.);
#94=VECTOR('',#301,10.);
#95=VECTOR('',#304,10.);
#96=CIRCLE('',#231,0.899999999999999);
#97=CIRCLE('',#232,0.899999999999999);
#98=CIRCLE('',#235,1.7);
#99=CIRCLE('',#237,2.);
#100=CIRCLE('',#238,2.);
#101=CIRCLE('',#243,1.7);
#102=VERTEX_POINT('',#309);
#103=VERTEX_POINT('',#311);
#104=VERTEX_POINT('',#316);
#105=VERTEX_POINT('',#317);
#106=VERTEX_POINT('',#319);
#107=VERTEX_POINT('',#321);
#108=VERTEX_POINT('',#324);
#109=VERTEX_POINT('',#327);
#110=VERTEX_POINT('',#329);
#111=VERTEX_POINT('',#333);
#112=VERTEX_POINT('',#335);
#113=VERTEX_POINT('',#339);
#114=VERTEX_POINT('',#341);
#115=VERTEX_POINT('',#345);
#116=VERTEX_POINT('',#347);
#117=VERTEX_POINT('',#351);
#118=VERTEX_POINT('',#355);
#119=VERTEX_POINT('',#357);
#120=EDGE_CURVE('',#102,#102,#96,.T.);
#121=EDGE_CURVE('',#102,#103,#54,.T.);
#122=EDGE_CURVE('',#103,#103,#97,.T.);
#123=EDGE_CURVE('',#104,#105,#55,.T.);
#124=EDGE_CURVE('',#104,#106,#56,.T.);
#125=EDGE_CURVE('',#107,#106,#57,.T.);
#126=EDGE_CURVE('',#105,#107,#58,.T.);
#127=EDGE_CURVE('',#108,#108,#98,.T.);
#128=EDGE_CURVE('',#109,#104,#99,.T.);
#129=EDGE_CURVE('',#109,#110,#59,.T.);
#130=EDGE_CURVE('',#106,#110,#100,.T.);
#131=EDGE_CURVE('',#111,#109,#60,.T.);
#132=EDGE_CURVE('',#112,#111,#61,.T.);
#133=EDGE_CURVE('',#110,#112,#62,.T.);
#134=EDGE_CURVE('',#111,#113,#63,.T.);
#135=EDGE_CURVE('',#113,#114,#64,.T.);
#136=EDGE_CURVE('',#114,#112,#65,.T.);
#137=EDGE_CURVE('',#115,#105,#66,.T.);
#138=EDGE_CURVE('',#115,#116,#67,.T.);
#139=EDGE_CURVE('',#116,#113,#68,.T.);
#140=EDGE_CURVE('',#108,#117,#69,.T.);
#141=EDGE_CURVE('',#117,#117,#101,.T.);
#142=EDGE_CURVE('',#118,#114,#70,.T.);
#143=EDGE_CURVE('',#118,#119,#71,.T.);
#144=EDGE_CURVE('',#119,#107,#72,.T.);
#145=EDGE_CURVE('',#118,#116,#73,.T.);
#146=EDGE_CURVE('',#119,#115,#74,.T.);
#147=ORIENTED_EDGE('',*,*,#120,.F.);
#148=ORIENTED_EDGE('',*,*,#121,.T.);
#149=ORIENTED_EDGE('',*,*,#122,.T.);
#150=ORIENTED_EDGE('',*,*,#121,.F.);
#151=ORIENTED_EDGE('',*,*,#122,.F.);
#152=ORIENTED_EDGE('',*,*,#123,.F.);
#153=ORIENTED_EDGE('',*,*,#124,.T.);
#154=ORIENTED_EDGE('',*,*,#125,.F.);
#155=ORIENTED_EDGE('',*,*,#126,.F.);
#156=ORIENTED_EDGE('',*,*,#127,.F.);
#157=ORIENTED_EDGE('',*,*,#128,.F.);
#158=ORIENTED_EDGE('',*,*,#129,.T.);
#159=ORIENTED_EDGE('',*,*,#130,.F.);
#160=ORIENTED_EDGE('',*,*,#124,.F.);
#161=ORIENTED_EDGE('',*,*,#131,.F.);
#162=ORIENTED_EDGE('',*,*,#132,.F.);
#163=ORIENTED_EDGE('',*,*,#133,.F.);
#164=ORIENTED_EDGE('',*,*,#129,.F.);
#165=ORIENTED_EDGE('',*,*,#132,.T.);
#166=ORIENTED_EDGE('',*,*,#134,.T.);
#167=ORIENTED_EDGE('',*,*,#135,.T.);
#168=ORIENTED_EDGE('',*,*,#136,.T.);
#169=ORIENTED_EDGE('',*,*,#131,.T.);
#170=ORIENTED_EDGE('',*,*,#128,.T.);
#171=ORIENTED_EDGE('',*,*,#123,.T.);
#172=ORIENTED_EDGE('',*,*,#137,.F.);
#173=ORIENTED_EDGE('',*,*,#138,.T.);
#174=ORIENTED_EDGE('',*,*,#139,.T.);
#175=ORIENTED_EDGE('',*,*,#134,.F.);
#176=ORIENTED_EDGE('',*,*,#127,.T.);
#177=ORIENTED_EDGE('',*,*,#140,.T.);
#178=ORIENTED_EDGE('',*,*,#141,.T.);
#179=ORIENTED_EDGE('',*,*,#140,.F.);
#180=ORIENTED_EDGE('',*,*,#133,.T.);
#181=ORIENTED_EDGE('',*,*,#136,.F.);
#182=ORIENTED_EDGE('',*,*,#142,.F.);
#183=ORIENTED_EDGE('',*,*,#143,.T.);
#184=ORIENTED_EDGE('',*,*,#144,.T.);
#185=ORIENTED_EDGE('',*,*,#125,.T.);
#186=ORIENTED_EDGE('',*,*,#130,.T.);
#187=ORIENTED_EDGE('',*,*,#145,.F.);
#188=ORIENTED_EDGE('',*,*,#142,.T.);
#189=ORIENTED_EDGE('',*,*,#135,.F.);
#190=ORIENTED_EDGE('',*,*,#139,.F.);
#191=ORIENTED_EDGE('',*,*,#120,.T.);
#192=ORIENTED_EDGE('',*,*,#126,.T.);
#193=ORIENTED_EDGE('',*,*,#144,.F.);
#194=ORIENTED_EDGE('',*,*,#146,.T.);
#195=ORIENTED_EDGE('',*,*,#137,.T.);
#196=ORIENTED_EDGE('',*,*,#146,.F.);
#197=ORIENTED_EDGE('',*,*,#143,.F.);
#198=ORIENTED_EDGE('',*,*,#145,.T.);
#199=ORIENTED_EDGE('',*,*,#138,.F.);
#200=ORIENTED_EDGE('',*,*,#141,.F.);
#201=CYLINDRICAL_SURFACE('',#230,0.899999999999999);
#202=CYLINDRICAL_SURFACE('',#236,2.);
#203=CYLINDRICAL_SURFACE('',#242,1.7);
#204=ADVANCED_FACE('',(#27),#201,.F.);
#205=ADVANCED_FACE('',(#28),#18,.T.);
#206=ADVANCED_FACE('',(#29,#15),#19,.F.);
#207=ADVANCED_FACE('',(#30),#202,.F.);
#208=ADVANCED_FACE('',(#31),#20,.F.);
#209=ADVANCED_FACE('',(#32),#21,.T.);
#210=ADVANCED_FACE('',(#33),#22,.T.);
#211=ADVANCED_FACE('',(#34),#203,.F.);
#212=ADVANCED_FACE('',(#35),#23,.T.);
#213=ADVANCED_FACE('',(#36,#16),#24,.T.);
#214=ADVANCED_FACE('',(#37),#25,.T.);
#215=ADVANCED_FACE('',(#38,#17),#26,.F.);
#216=CLOSED_SHELL('',(#204,#205,#206,#207,#208,#209,#210,#211,#212,#213,
#214,#215));
#217=DERIVED_UNIT_ELEMENT(#219,1.);
#218=DERIVED_UNIT_ELEMENT(#370,-3.);
#219=(
MASS_UNIT()
NAMED_UNIT(*)
SI_UNIT(.KILO.,.GRAM.)
);
#220=DERIVED_UNIT((#217,#218));
#221=MEASURE_REPRESENTATION_ITEM('density measure',
POSITIVE_RATIO_MEASURE(7850.),#220);
#222=PROPERTY_DEFINITION_REPRESENTATION(#227,#224);
#223=PROPERTY_DEFINITION_REPRESENTATION(#228,#225);
#224=REPRESENTATION('material name',(#226),#367);
#225=REPRESENTATION('density',(#221),#367);
#226=DESCRIPTIVE_REPRESENTATION_ITEM('Steel','Steel');
#227=PROPERTY_DEFINITION('material property','material name',#377);
#228=PROPERTY_DEFINITION('material property','density of part',#377);
#229=AXIS2_PLACEMENT_3D('',#307,#248,#249);
#230=AXIS2_PLACEMENT_3D('',#308,#250,#251);
#231=AXIS2_PLACEMENT_3D('',#310,#252,#253);
#232=AXIS2_PLACEMENT_3D('',#313,#255,#256);
#233=AXIS2_PLACEMENT_3D('',#314,#257,#258);
#234=AXIS2_PLACEMENT_3D('',#315,#259,#260);
#235=AXIS2_PLACEMENT_3D('',#325,#265,#266);
#236=AXIS2_PLACEMENT_3D('',#326,#267,#268);
#237=AXIS2_PLACEMENT_3D('',#328,#269,#270);
#238=AXIS2_PLACEMENT_3D('',#331,#272,#273);
#239=AXIS2_PLACEMENT_3D('',#332,#274,#275);
#240=AXIS2_PLACEMENT_3D('',#338,#279,#280);
#241=AXIS2_PLACEMENT_3D('',#344,#284,#285);
#242=AXIS2_PLACEMENT_3D('',#350,#289,#290);
#243=AXIS2_PLACEMENT_3D('',#353,#292,#293);
#244=AXIS2_PLACEMENT_3D('',#354,#294,#295);
#245=AXIS2_PLACEMENT_3D('',#360,#299,#300);
#246=AXIS2_PLACEMENT_3D('',#362,#302,#303);
#247=AXIS2_PLACEMENT_3D('',#364,#305,#306);
#248=DIRECTION('axis',(0.,0.,1.));
#249=DIRECTION('refdir',(1.,0.,0.));
#250=DIRECTION('center_axis',(0.,0.,-1.));
#251=DIRECTION('ref_axis',(-1.,0.,0.));
#252=DIRECTION('center_axis',(2.96469446757241E-29,3.64007549057428E-16,
-1.));
#253=DIRECTION('ref_axis',(-1.,0.,0.));
#254=DIRECTION('',(0.,0.,-1.));
#255=DIRECTION('center_axis',(0.,0.,-1.));
#256=DIRECTION('ref_axis',(-1.,0.,0.));
#257=DIRECTION('center_axis',(0.,0.,1.));
#258=DIRECTION('ref_axis',(-1.,0.,0.));
#259=DIRECTION('center_axis',(1.,0.,0.));
#260=DIRECTION('ref_axis',(0.,0.,-1.));
#261=DIRECTION('',(0.,2.18404529434457E-16,-1.));
#262=DIRECTION('',(0.,1.,0.));
#263=DIRECTION('',(0.,1.490232247819E-16,1.));
#264=DIRECTION('',(0.,1.,0.));
#265=DIRECTION('center_axis',(-1.,0.,0.));
#266=DIRECTION('ref_axis',(-8.14459610865015E-14,-1.,0.));
#267=DIRECTION('center_axis',(0.,1.,0.));
#268=DIRECTION('ref_axis',(1.,0.,0.));
#269=DIRECTION('center_axis',(8.14459610865015E-14,1.,2.18404529434457E-16));
#270=DIRECTION('ref_axis',(1.,0.,0.));
#271=DIRECTION('',(0.,1.,0.));
#272=DIRECTION('center_axis',(-8.14459610865015E-14,-1.,1.490232247819E-16));
#273=DIRECTION('ref_axis',(1.,0.,0.));
#274=DIRECTION('center_axis',(0.,0.,1.));
#275=DIRECTION('ref_axis',(1.,0.,0.));
#276=DIRECTION('',(1.,-8.14459610865015E-14,0.));
#277=DIRECTION('',(-8.14586493496401E-14,-1.,0.));
#278=DIRECTION('',(-1.,8.14459610865015E-14,0.));
#279=DIRECTION('center_axis',(-1.,8.14586493496401E-14,9.23724713276617E-33));
#280=DIRECTION('ref_axis',(-8.14586493496401E-14,-1.,0.));
#281=DIRECTION('',(-1.77817007324418E-29,-2.18404529434457E-16,1.));
#282=DIRECTION('',(8.14586493496401E-14,1.,3.64007549057428E-16));
#283=DIRECTION('',(-1.21392306124614E-29,-1.490232247819E-16,-1.));
#284=DIRECTION('center_axis',(-8.14459610865015E-14,-1.,-2.18404529434457E-16));
#285=DIRECTION('ref_axis',(-1.77817007324418E-29,-2.18404529434457E-16,
1.));
#286=DIRECTION('',(-1.,8.14459610865015E-14,0.));
#287=DIRECTION('',(-1.77817007324418E-29,-2.18404529434457E-16,1.));
#288=DIRECTION('',(-1.,8.14459610865015E-14,0.));
#289=DIRECTION('center_axis',(-1.,8.14459610865015E-14,0.));
#290=DIRECTION('ref_axis',(-8.14459610865015E-14,-1.,0.));
#291=DIRECTION('',(1.,-8.14459610865015E-14,0.));
#292=DIRECTION('center_axis',(1.,-8.14586493496401E-14,0.));
#293=DIRECTION('ref_axis',(-8.14586493496401E-14,-1.,0.));
#294=DIRECTION('center_axis',(8.14459610865015E-14,1.,-1.490232247819E-16));
#295=DIRECTION('ref_axis',(-1.21392306124614E-29,-1.490232247819E-16,-1.));
#296=DIRECTION('',(-1.,8.14459610865015E-14,0.));
#297=DIRECTION('',(-1.21392306124614E-29,-1.490232247819E-16,-1.));
#298=DIRECTION('',(-1.,8.14459610865015E-14,0.));
#299=DIRECTION('center_axis',(-2.96469446757241E-29,-3.64007549057428E-16,
1.));
#300=DIRECTION('ref_axis',(8.14586493496401E-14,1.,3.64007549057428E-16));
#301=DIRECTION('',(-8.14586493496401E-14,-1.,-3.64007549057428E-16));
#302=DIRECTION('center_axis',(0.,0.,-1.));
#303=DIRECTION('ref_axis',(-8.14586493496401E-14,-1.,0.));
#304=DIRECTION('',(-8.14586493496401E-14,-1.,0.));
#305=DIRECTION('center_axis',(-1.,8.14586493496401E-14,9.23724713276617E-33));
#306=DIRECTION('ref_axis',(-8.14586493496401E-14,-1.,0.));
#307=CARTESIAN_POINT('',(0.,0.,0.));
#308=CARTESIAN_POINT('Origin',(-31.483999340489,-7.95613462307869,17.9));
#309=CARTESIAN_POINT('',(-30.583999340489,-7.95613462307869,17.9));
#310=CARTESIAN_POINT('Origin',(-31.483999340489,-7.95613462307869,17.9));
#311=CARTESIAN_POINT('',(-30.583999340489,-7.95613462307869,12.9));
#312=CARTESIAN_POINT('',(-30.583999340489,-7.95613462307869,17.9));
#313=CARTESIAN_POINT('Origin',(-31.483999340489,-7.95613462307869,12.9));
#314=CARTESIAN_POINT('Origin',(-31.483999340489,-7.95613462307869,12.9));
#315=CARTESIAN_POINT('Origin',(-32.9999993404904,-11.7001346230787,10.4));
#316=CARTESIAN_POINT('',(-32.9999993404904,-11.7001346230787,10.4));
#317=CARTESIAN_POINT('',(-32.9999993404904,-11.7001346230787,3.));
#318=CARTESIAN_POINT('',(-32.9999993404904,-11.700134623076,6.7));
#319=CARTESIAN_POINT('',(-32.9999993404904,-5.60013462307869,10.4));
#320=CARTESIAN_POINT('',(-32.9999993404904,-11.7001346230787,10.4));
#321=CARTESIAN_POINT('',(-32.9999993404904,-5.60013462307869,3.));
#322=CARTESIAN_POINT('',(-32.9999993404904,-5.60013462307601,14.15));
#323=CARTESIAN_POINT('',(-32.9999993404904,-8.65013462307768,3.));
#324=CARTESIAN_POINT('',(-32.99999934049,-6.68113462307804,7.634));
#325=CARTESIAN_POINT('Origin',(-32.9999993404901,-8.38113462307804,7.634));
#326=CARTESIAN_POINT('Origin',(-34.9999993404904,-11.7001346230787,10.4));
#327=CARTESIAN_POINT('',(-34.9999993404904,-11.7001346230787,12.4));
#328=CARTESIAN_POINT('Origin',(-34.9999993404904,-11.7001346230767,10.4));
#329=CARTESIAN_POINT('',(-34.9999993404904,-5.60013462307869,12.4));
#330=CARTESIAN_POINT('',(-34.9999993404904,-11.7001346230787,12.4));
#331=CARTESIAN_POINT('Origin',(-34.9999993404904,-5.60013462307666,10.4));
#332=CARTESIAN_POINT('Origin',(-37.4999993404904,-11.7001346230787,12.4));
#333=CARTESIAN_POINT('',(-37.4999993404904,-11.7001346230787,12.4));
#334=CARTESIAN_POINT('',(-31.2499996702459,-11.7001346230761,12.4));
#335=CARTESIAN_POINT('',(-37.4999993404904,-5.60013462307869,12.4));
#336=CARTESIAN_POINT('',(-37.5000000000013,-10.1751346230772,12.4));
#337=CARTESIAN_POINT('',(-31.2499996702454,-5.60013462307615,12.4));
#338=CARTESIAN_POINT('Origin',(-37.5000000000012,-8.65013462307564,10.45));
#339=CARTESIAN_POINT('',(-37.5000000000014,-11.7001346230756,17.9));
#340=CARTESIAN_POINT('',(-37.5000000000014,-11.7001346230756,3.));
#341=CARTESIAN_POINT('',(-37.5000000000009,-5.60013462307564,17.9));
#342=CARTESIAN_POINT('',(-37.5000000000009,-5.60013462307564,17.9));
#343=CARTESIAN_POINT('',(-37.5000000000009,-5.60013462307564,17.9));
#344=CARTESIAN_POINT('Origin',(-25.0000000000014,-11.7001346230767,3.));
#345=CARTESIAN_POINT('',(-25.0000000000014,-11.7001346230767,3.));
#346=CARTESIAN_POINT('',(-25.0000000000014,-11.7001346230767,3.));
#347=CARTESIAN_POINT('',(-25.0000000000014,-11.7001346230767,17.9));
#348=CARTESIAN_POINT('',(-25.0000000000014,-11.7001346230767,3.));
#349=CARTESIAN_POINT('',(-25.0000000000014,-11.7001346230767,17.9));
#350=CARTESIAN_POINT('Origin',(-25.0000000000011,-8.38113462307869,7.634));
#351=CARTESIAN_POINT('',(-25.000000000001,-6.68113462307869,7.634));
#352=CARTESIAN_POINT('',(-25.000000000001,-6.68113462307869,7.634));
#353=CARTESIAN_POINT('Origin',(-25.0000000000011,-8.38113462307869,7.634));
#354=CARTESIAN_POINT('Origin',(-25.0000000000009,-5.60013462307666,17.9));
#355=CARTESIAN_POINT('',(-25.0000000000009,-5.60013462307666,17.9));
#356=CARTESIAN_POINT('',(-25.0000000000009,-5.60013462307666,17.9));
#357=CARTESIAN_POINT('',(-25.0000000000009,-5.60013462307666,3.));
#358=CARTESIAN_POINT('',(-25.0000000000009,-5.60013462307666,17.9));
#359=CARTESIAN_POINT('',(-25.0000000000009,-5.60013462307666,3.));
#360=CARTESIAN_POINT('Origin',(-25.0000000000014,-11.7001346230767,17.9));
#361=CARTESIAN_POINT('',(-25.0000000000009,-5.60013462307666,17.9));
#362=CARTESIAN_POINT('Origin',(-25.0000000000009,-5.60013462307666,3.));
#363=CARTESIAN_POINT('',(-25.0000000000004,0.42986537692205,3.));
#364=CARTESIAN_POINT('Origin',(-25.0000000000012,-8.65013462307666,10.45));
#365=UNCERTAINTY_MEASURE_WITH_UNIT(LENGTH_MEASURE(0.01),#369,
'DISTANCE_ACCURACY_VALUE',
'Maximum model space distance between geometric entities at asserted c
onnectivities');
#366=UNCERTAINTY_MEASURE_WITH_UNIT(LENGTH_MEASURE(0.01),#369,
'DISTANCE_ACCURACY_VALUE',
'Maximum model space distance between geometric entities at asserted c
onnectivities');
#367=(
GEOMETRIC_REPRESENTATION_CONTEXT(3)
GLOBAL_UNCERTAINTY_ASSIGNED_CONTEXT((#365))
GLOBAL_UNIT_ASSIGNED_CONTEXT((#369,#371,#372))
REPRESENTATION_CONTEXT('','3D')
);
#368=(
GEOMETRIC_REPRESENTATION_CONTEXT(3)
GLOBAL_UNCERTAINTY_ASSIGNED_CONTEXT((#366))
GLOBAL_UNIT_ASSIGNED_CONTEXT((#369,#371,#372))
REPRESENTATION_CONTEXT('','3D')
);
#369=(
LENGTH_UNIT()
NAMED_UNIT(*)
SI_UNIT(.MILLI.,.METRE.)
);
#370=(
LENGTH_UNIT()
NAMED_UNIT(*)
SI_UNIT($,.METRE.)
);
#371=(
NAMED_UNIT(*)
PLANE_ANGLE_UNIT()
SI_UNIT($,.RADIAN.)
);
#372=(
NAMED_UNIT(*)
SI_UNIT($,.STERADIAN.)
SOLID_ANGLE_UNIT()
);
#373=SHAPE_DEFINITION_REPRESENTATION(#374,#375);
#374=PRODUCT_DEFINITION_SHAPE('',$,#377);
#375=SHAPE_REPRESENTATION('',(#229),#367);
#376=PRODUCT_DEFINITION_CONTEXT('part definition',#381,'design');
#377=PRODUCT_DEFINITION('FRONT BODY','FRONT BODY',#378,#376);
#378=PRODUCT_DEFINITION_FORMATION('',$,#383);
#379=PRODUCT_RELATED_PRODUCT_CATEGORY('FRONT BODY','FRONT BODY',(#383));
#380=APPLICATION_PROTOCOL_DEFINITION('international standard',
'automotive_design',2009,#381);
#381=APPLICATION_CONTEXT(
'Core Data for Automotive Mechanical Design Process');
#382=PRODUCT_CONTEXT('part definition',#381,'mechanical');
#383=PRODUCT('FRONT BODY','FRONT BODY',$,(#382));
#384=PRESENTATION_STYLE_ASSIGNMENT((#385));
#385=SURFACE_STYLE_USAGE(.BOTH.,#386);
#386=SURFACE_SIDE_STYLE('',(#387));
#387=SURFACE_STYLE_FILL_AREA(#388);
#388=FILL_AREA_STYLE('Steel - Satin',(#389));
#389=FILL_AREA_STYLE_COLOUR('Steel - Satin',#390);
#390=COLOUR_RGB('Steel - Satin',0.627450980392157,0.627450980392157,0.627450980392157);
ENDSEC;
END-ISO-10303-21;
