ISO-10303-21;
HEADER;
/* Generated by software containing ST-Developer
 * from STEP Tools, Inc. (www.steptools.com) 
 */

FILE_DESCRIPTION(
/* description */ (''),
/* implementation_level */ '2;1');

FILE_NAME(
/* name */ 'VOLUME REDUCER BACK.step',
/* time_stamp */ '2026-03-23T18:12:44-05:00',
/* author */ (''),
/* organization */ (''),
/* preprocessor_version */ 'ST-DEVELOPER v20.1',
/* originating_system */ 'Autodesk Translation Framework v14.24.0.0',
/* authorisation */ '');

FILE_SCHEMA (('AUTOMOTIVE_DESIGN { 1 0 10303 214 3 1 1 }'));
ENDSEC;

DATA;
#10=MECHANICAL_DESIGN_GEOMETRIC_PRESENTATION_REPRESENTATION('',(#13),#1199);
#11=SHAPE_REPRESENTATION_RELATIONSHIP('SRR','None',#1206,#12);
#12=ADVANCED_BREP_SHAPE_REPRESENTATION('',(#14),#1198);
#13=STYLED_ITEM('',(#1215),#14);
#14=MANIFOLD_SOLID_BREP('Volume reducer back',#681);
#15=CONICAL_SURFACE('',#769,12.8585786437629,0.785398163397448);
#16=ELLIPSE('',#736,0.707106781186548,0.5);
#17=ELLIPSE('',#743,0.707106781186546,0.5);
#18=ELLIPSE('',#751,0.707106781186548,0.5);
#19=ELLIPSE('',#755,0.707106781186546,0.5);
#20=FACE_BOUND('',#206,.T.);
#21=FACE_BOUND('',#207,.T.);
#22=FACE_BOUND('',#210,.T.);
#23=FACE_BOUND('',#215,.T.);
#24=FACE_BOUND('',#231,.T.);
#25=FACE_BOUND('',#232,.T.);
#26=PLANE('',#703);
#27=PLANE('',#711);
#28=PLANE('',#723);
#29=PLANE('',#757);
#30=PLANE('',#761);
#31=PLANE('',#762);
#32=PLANE('',#763);
#33=PLANE('',#764);
#34=PLANE('',#767);
#35=PLANE('',#768);
#36=PLANE('',#771);
#37=PLANE('',#772);
#38=PLANE('',#774);
#39=PLANE('',#775);
#40=PLANE('',#776);
#41=PLANE('',#777);
#42=PLANE('',#778);
#43=LINE('',#1012,#95);
#44=LINE('',#1019,#96);
#45=LINE('',#1021,#97);
#46=LINE('',#1023,#98);
#47=LINE('',#1025,#99);
#48=LINE('',#1029,#100);
#49=LINE('',#1031,#101);
#50=LINE('',#1033,#102);
#51=LINE('',#1035,#103);
#52=LINE('',#1039,#104);
#53=LINE('',#1058,#105);
#54=LINE('',#1085,#106);
#55=LINE('',#1086,#107);
#56=LINE('',#1089,#108);
#57=LINE('',#1102,#109);
#58=LINE('',#1104,#110);
#59=LINE('',#1113,#111);
#60=LINE('',#1114,#112);
#61=LINE('',#1116,#113);
#62=LINE('',#1119,#114);
#63=LINE('',#1121,#115);
#64=LINE('',#1123,#116);
#65=LINE('',#1125,#117);
#66=LINE('',#1126,#118);
#67=LINE('',#1129,#119);
#68=LINE('',#1131,#120);
#69=LINE('',#1134,#121);
#70=LINE('',#1135,#122);
#71=LINE('',#1138,#123);
#72=LINE('',#1140,#124);
#73=LINE('',#1142,#125);
#74=LINE('',#1146,#126);
#75=LINE('',#1148,#127);
#76=LINE('',#1149,#128);
#77=LINE('',#1156,#129);
#78=LINE('',#1157,#130);
#79=LINE('',#1162,#131);
#80=LINE('',#1164,#132);
#81=LINE('',#1167,#133);
#82=LINE('',#1168,#134);
#83=LINE('',#1172,#135);
#84=LINE('',#1173,#136);
#85=LINE('',#1174,#137);
#86=LINE('',#1177,#138);
#87=LINE('',#1180,#139);
#88=LINE('',#1183,#140);
#89=LINE('',#1184,#141);
#90=LINE('',#1186,#142);
#91=LINE('',#1187,#143);
#92=LINE('',#1189,#144);
#93=LINE('',#1191,#145);
#94=LINE('',#1194,#146);
#95=VECTOR('',#793,6.25);
#96=VECTOR('',#800,10.);
#97=VECTOR('',#801,10.);
#98=VECTOR('',#802,10.);
#99=VECTOR('',#803,10.);
#100=VECTOR('',#806,10.);
#101=VECTOR('',#807,10.);
#102=VECTOR('',#808,10.);
#103=VECTOR('',#809,10.);
#104=VECTOR('',#812,10.);
#105=VECTOR('',#837,10.25);
#106=VECTOR('',#872,10.);
#107=VECTOR('',#873,10.);
#108=VECTOR('',#876,10.);
#109=VECTOR('',#891,10.);
#110=VECTOR('',#892,10.);
#111=VECTOR('',#905,10.);
#112=VECTOR('',#906,10.);
#113=VECTOR('',#909,10.);
#114=VECTOR('',#912,10.);
#115=VECTOR('',#915,10.);
#116=VECTOR('',#918,10.);
#117=VECTOR('',#921,10.);
#118=VECTOR('',#922,10.);
#119=VECTOR('',#925,10.);
#120=VECTOR('',#926,10.);
#121=VECTOR('',#931,10.);
#122=VECTOR('',#932,10.);
#123=VECTOR('',#935,10.);
#124=VECTOR('',#936,10.);
#125=VECTOR('',#937,10.);
#126=VECTOR('',#940,10.);
#127=VECTOR('',#941,10.);
#128=VECTOR('',#942,10.);
#129=VECTOR('',#949,10.);
#130=VECTOR('',#950,10.);
#131=VECTOR('',#959,12.9);
#132=VECTOR('',#962,8.4);
#133=VECTOR('',#965,10.);
#134=VECTOR('',#966,10.);
#135=VECTOR('',#969,10.);
#136=VECTOR('',#970,10.);
#137=VECTOR('',#971,10.);
#138=VECTOR('',#974,10.);
#139=VECTOR('',#979,10.);
#140=VECTOR('',#982,10.);
#141=VECTOR('',#983,10.);
#142=VECTOR('',#986,10.);
#143=VECTOR('',#987,10.);
#144=VECTOR('',#990,10.);
#145=VECTOR('',#993,10.);
#146=VECTOR('',#998,10.);
#147=CYLINDRICAL_SURFACE('',#700,6.25);
#148=CYLINDRICAL_SURFACE('',#717,10.25);
#149=CYLINDRICAL_SURFACE('',#734,0.5);
#150=CYLINDRICAL_SURFACE('',#735,0.5);
#151=CYLINDRICAL_SURFACE('',#742,0.5);
#152=CYLINDRICAL_SURFACE('',#748,0.5);
#153=CYLINDRICAL_SURFACE('',#749,0.5);
#154=CYLINDRICAL_SURFACE('',#750,0.5);
#155=CYLINDRICAL_SURFACE('',#752,0.5);
#156=CYLINDRICAL_SURFACE('',#753,0.5);
#157=CYLINDRICAL_SURFACE('',#754,0.5);
#158=CYLINDRICAL_SURFACE('',#756,0.5);
#159=CYLINDRICAL_SURFACE('',#765,12.9);
#160=CYLINDRICAL_SURFACE('',#766,8.4);
#161=CYLINDRICAL_SURFACE('',#773,13.8000000000002);
#162=FACE_OUTER_BOUND('',#203,.T.);
#163=FACE_OUTER_BOUND('',#204,.T.);
#164=FACE_OUTER_BOUND('',#205,.T.);
#165=FACE_OUTER_BOUND('',#208,.T.);
#166=FACE_OUTER_BOUND('',#209,.T.);
#167=FACE_OUTER_BOUND('',#211,.T.);
#168=FACE_OUTER_BOUND('',#212,.T.);
#169=FACE_OUTER_BOUND('',#213,.T.);
#170=FACE_OUTER_BOUND('',#214,.T.);
#171=FACE_OUTER_BOUND('',#216,.T.);
#172=FACE_OUTER_BOUND('',#217,.T.);
#173=FACE_OUTER_BOUND('',#218,.T.);
#174=FACE_OUTER_BOUND('',#219,.T.);
#175=FACE_OUTER_BOUND('',#220,.T.);
#176=FACE_OUTER_BOUND('',#221,.T.);
#177=FACE_OUTER_BOUND('',#222,.T.);
#178=FACE_OUTER_BOUND('',#223,.T.);
#179=FACE_OUTER_BOUND('',#224,.T.);
#180=FACE_OUTER_BOUND('',#225,.T.);
#181=FACE_OUTER_BOUND('',#226,.T.);
#182=FACE_OUTER_BOUND('',#227,.T.);
#183=FACE_OUTER_BOUND('',#228,.T.);
#184=FACE_OUTER_BOUND('',#229,.T.);
#185=FACE_OUTER_BOUND('',#230,.T.);
#186=FACE_OUTER_BOUND('',#233,.T.);
#187=FACE_OUTER_BOUND('',#234,.T.);
#188=FACE_OUTER_BOUND('',#235,.T.);
#189=FACE_OUTER_BOUND('',#236,.T.);
#190=FACE_OUTER_BOUND('',#237,.T.);
#191=FACE_OUTER_BOUND('',#238,.T.);
#192=FACE_OUTER_BOUND('',#239,.T.);
#193=FACE_OUTER_BOUND('',#240,.T.);
#194=FACE_OUTER_BOUND('',#241,.T.);
#195=FACE_OUTER_BOUND('',#242,.T.);
#196=FACE_OUTER_BOUND('',#243,.T.);
#197=FACE_OUTER_BOUND('',#244,.T.);
#198=FACE_OUTER_BOUND('',#245,.T.);
#199=FACE_OUTER_BOUND('',#246,.T.);
#200=FACE_OUTER_BOUND('',#247,.T.);
#201=FACE_OUTER_BOUND('',#248,.T.);
#202=FACE_OUTER_BOUND('',#249,.T.);
#203=EDGE_LOOP('',(#442,#443,#444,#445,#446));
#204=EDGE_LOOP('',(#447,#448,#449,#450,#451,#452));
#205=EDGE_LOOP('',(#453,#454,#455,#456,#457,#458,#459,#460,#461,#462,#463,
#464));
#206=EDGE_LOOP('',(#465));
#207=EDGE_LOOP('',(#466));
#208=EDGE_LOOP('',(#467,#468,#469,#470,#471));
#209=EDGE_LOOP('',(#472));
#210=EDGE_LOOP('',(#473));
#211=EDGE_LOOP('',(#474,#475,#476,#477,#478));
#212=EDGE_LOOP('',(#479,#480,#481,#482,#483,#484));
#213=EDGE_LOOP('',(#485,#486,#487,#488,#489));
#214=EDGE_LOOP('',(#490));
#215=EDGE_LOOP('',(#491));
#216=EDGE_LOOP('',(#492,#493,#494,#495));
#217=EDGE_LOOP('',(#496,#497,#498,#499));
#218=EDGE_LOOP('',(#500,#501,#502,#503));
#219=EDGE_LOOP('',(#504,#505,#506,#507));
#220=EDGE_LOOP('',(#508,#509,#510,#511));
#221=EDGE_LOOP('',(#512,#513,#514,#515));
#222=EDGE_LOOP('',(#516,#517,#518,#519));
#223=EDGE_LOOP('',(#520,#521,#522,#523));
#224=EDGE_LOOP('',(#524,#525,#526,#527));
#225=EDGE_LOOP('',(#528,#529,#530,#531));
#226=EDGE_LOOP('',(#532,#533,#534,#535));
#227=EDGE_LOOP('',(#536,#537,#538,#539));
#228=EDGE_LOOP('',(#540,#541,#542,#543));
#229=EDGE_LOOP('',(#544,#545,#546,#547));
#230=EDGE_LOOP('',(#548,#549,#550,#551,#552,#553,#554,#555,#556,#557,#558,
#559));
#231=EDGE_LOOP('',(#560));
#232=EDGE_LOOP('',(#561));
#233=EDGE_LOOP('',(#562,#563,#564,#565,#566));
#234=EDGE_LOOP('',(#567,#568,#569,#570));
#235=EDGE_LOOP('',(#571,#572,#573,#574));
#236=EDGE_LOOP('',(#575,#576,#577,#578));
#237=EDGE_LOOP('',(#579,#580,#581,#582));
#238=EDGE_LOOP('',(#583,#584,#585,#586));
#239=EDGE_LOOP('',(#587,#588,#589,#590));
#240=EDGE_LOOP('',(#591,#592,#593,#594));
#241=EDGE_LOOP('',(#595,#596,#597,#598));
#242=EDGE_LOOP('',(#599,#600,#601,#602));
#243=EDGE_LOOP('',(#603,#604,#605,#606));
#244=EDGE_LOOP('',(#607,#608,#609,#610));
#245=EDGE_LOOP('',(#611,#612,#613,#614));
#246=EDGE_LOOP('',(#615,#616,#617,#618));
#247=EDGE_LOOP('',(#619,#620,#621,#622,#623));
#248=EDGE_LOOP('',(#624,#625,#626,#627));
#249=EDGE_LOOP('',(#628,#629,#630,#631));
#250=CIRCLE('',#696,6.75);
#251=CIRCLE('',#697,0.5);
#252=CIRCLE('',#698,6.25);
#253=CIRCLE('',#699,6.25);
#254=CIRCLE('',#701,6.25);
#255=CIRCLE('',#702,6.25);
#256=CIRCLE('',#704,11.7171572875256);
#257=CIRCLE('',#705,0.999999999999997);
#258=CIRCLE('',#706,1.);
#259=CIRCLE('',#707,10.75);
#260=CIRCLE('',#709,0.5);
#261=CIRCLE('',#710,6.75);
#262=CIRCLE('',#712,8.4);
#263=CIRCLE('',#714,0.5);
#264=CIRCLE('',#715,10.25);
#265=CIRCLE('',#716,10.25);
#266=CIRCLE('',#718,10.25);
#267=CIRCLE('',#719,10.25);
#268=CIRCLE('',#721,0.5);
#269=CIRCLE('',#722,10.75);
#270=CIRCLE('',#724,12.9);
#271=CIRCLE('',#726,0.499999999999998);
#272=CIRCLE('',#727,0.5);
#273=CIRCLE('',#728,0.999999999999997);
#274=CIRCLE('',#729,0.5);
#275=CIRCLE('',#731,0.499999999999998);
#276=CIRCLE('',#732,0.5);
#277=CIRCLE('',#733,0.499999999999998);
#278=CIRCLE('',#738,0.5);
#279=CIRCLE('',#739,0.5);
#280=CIRCLE('',#740,1.);
#281=CIRCLE('',#741,0.499999999999998);
#282=CIRCLE('',#745,0.5);
#283=CIRCLE('',#746,0.499999999999998);
#284=CIRCLE('',#747,0.499999999999998);
#285=CIRCLE('',#758,13.8000000000002);
#286=CIRCLE('',#759,8.4);
#287=CIRCLE('',#760,12.9);
#288=CIRCLE('',#770,13.8000000000002);
#289=VERTEX_POINT('',#1003);
#290=VERTEX_POINT('',#1005);
#291=VERTEX_POINT('',#1007);
#292=VERTEX_POINT('',#1011);
#293=VERTEX_POINT('',#1013);
#294=VERTEX_POINT('',#1017);
#295=VERTEX_POINT('',#1018);
#296=VERTEX_POINT('',#1020);
#297=VERTEX_POINT('',#1022);
#298=VERTEX_POINT('',#1024);
#299=VERTEX_POINT('',#1026);
#300=VERTEX_POINT('',#1028);
#301=VERTEX_POINT('',#1030);
#302=VERTEX_POINT('',#1032);
#303=VERTEX_POINT('',#1034);
#304=VERTEX_POINT('',#1036);
#305=VERTEX_POINT('',#1038);
#306=VERTEX_POINT('',#1041);
#307=VERTEX_POINT('',#1044);
#308=VERTEX_POINT('',#1048);
#309=VERTEX_POINT('',#1051);
#310=VERTEX_POINT('',#1053);
#311=VERTEX_POINT('',#1057);
#312=VERTEX_POINT('',#1059);
#313=VERTEX_POINT('',#1063);
#314=VERTEX_POINT('',#1067);
#315=VERTEX_POINT('',#1070);
#316=VERTEX_POINT('',#1071);
#317=VERTEX_POINT('',#1073);
#318=VERTEX_POINT('',#1075);
#319=VERTEX_POINT('',#1079);
#320=VERTEX_POINT('',#1081);
#321=VERTEX_POINT('',#1088);
#322=VERTEX_POINT('',#1092);
#323=VERTEX_POINT('',#1093);
#324=VERTEX_POINT('',#1095);
#325=VERTEX_POINT('',#1097);
#326=VERTEX_POINT('',#1101);
#327=VERTEX_POINT('',#1103);
#328=VERTEX_POINT('',#1107);
#329=VERTEX_POINT('',#1109);
#330=VERTEX_POINT('',#1118);
#331=VERTEX_POINT('',#1128);
#332=VERTEX_POINT('',#1130);
#333=VERTEX_POINT('',#1137);
#334=VERTEX_POINT('',#1139);
#335=VERTEX_POINT('',#1141);
#336=VERTEX_POINT('',#1143);
#337=VERTEX_POINT('',#1145);
#338=VERTEX_POINT('',#1147);
#339=VERTEX_POINT('',#1150);
#340=VERTEX_POINT('',#1152);
#341=VERTEX_POINT('',#1155);
#342=VERTEX_POINT('',#1166);
#343=VERTEX_POINT('',#1170);
#344=VERTEX_POINT('',#1171);
#345=VERTEX_POINT('',#1176);
#346=VERTEX_POINT('',#1182);
#347=EDGE_CURVE('',#289,#289,#250,.T.);
#348=EDGE_CURVE('',#289,#290,#251,.T.);
#349=EDGE_CURVE('',#290,#291,#252,.T.);
#350=EDGE_CURVE('',#291,#290,#253,.T.);
#351=EDGE_CURVE('',#291,#292,#43,.T.);
#352=EDGE_CURVE('',#293,#292,#254,.T.);
#353=EDGE_CURVE('',#292,#293,#255,.T.);
#354=EDGE_CURVE('',#294,#295,#44,.T.);
#355=EDGE_CURVE('',#294,#296,#45,.T.);
#356=EDGE_CURVE('',#297,#296,#46,.T.);
#357=EDGE_CURVE('',#298,#297,#47,.T.);
#358=EDGE_CURVE('',#299,#298,#256,.T.);
#359=EDGE_CURVE('',#300,#299,#48,.T.);
#360=EDGE_CURVE('',#301,#300,#49,.T.);
#361=EDGE_CURVE('',#301,#302,#50,.T.);
#362=EDGE_CURVE('',#303,#302,#51,.T.);
#363=EDGE_CURVE('',#304,#303,#257,.T.);
#364=EDGE_CURVE('',#305,#304,#52,.T.);
#365=EDGE_CURVE('',#295,#305,#258,.T.);
#366=EDGE_CURVE('',#306,#306,#259,.T.);
#367=EDGE_CURVE('',#293,#307,#260,.T.);
#368=EDGE_CURVE('',#307,#307,#261,.T.);
#369=EDGE_CURVE('',#308,#308,#262,.T.);
#370=EDGE_CURVE('',#306,#309,#263,.T.);
#371=EDGE_CURVE('',#309,#310,#264,.T.);
#372=EDGE_CURVE('',#310,#309,#265,.T.);
#373=EDGE_CURVE('',#310,#311,#53,.T.);
#374=EDGE_CURVE('',#312,#311,#266,.T.);
#375=EDGE_CURVE('',#311,#312,#267,.T.);
#376=EDGE_CURVE('',#312,#313,#268,.T.);
#377=EDGE_CURVE('',#313,#313,#269,.T.);
#378=EDGE_CURVE('',#314,#314,#270,.T.);
#379=EDGE_CURVE('',#315,#316,#271,.F.);
#380=EDGE_CURVE('',#317,#315,#272,.T.);
#381=EDGE_CURVE('',#317,#318,#273,.T.);
#382=EDGE_CURVE('',#316,#318,#274,.T.);
#383=EDGE_CURVE('',#319,#305,#275,.T.);
#384=EDGE_CURVE('',#320,#319,#276,.F.);
#385=EDGE_CURVE('',#295,#320,#277,.T.);
#386=EDGE_CURVE('',#319,#315,#54,.T.);
#387=EDGE_CURVE('',#316,#320,#55,.T.);
#388=EDGE_CURVE('',#320,#321,#56,.T.);
#389=EDGE_CURVE('',#294,#321,#16,.T.);
#390=EDGE_CURVE('',#322,#323,#278,.F.);
#391=EDGE_CURVE('',#324,#322,#279,.T.);
#392=EDGE_CURVE('',#324,#325,#280,.T.);
#393=EDGE_CURVE('',#323,#325,#281,.T.);
#394=EDGE_CURVE('',#326,#324,#57,.T.);
#395=EDGE_CURVE('',#322,#327,#58,.T.);
#396=EDGE_CURVE('',#327,#326,#17,.T.);
#397=EDGE_CURVE('',#328,#303,#282,.T.);
#398=EDGE_CURVE('',#329,#328,#283,.F.);
#399=EDGE_CURVE('',#304,#329,#284,.T.);
#400=EDGE_CURVE('',#328,#322,#59,.T.);
#401=EDGE_CURVE('',#323,#329,#60,.T.);
#402=EDGE_CURVE('',#329,#319,#61,.T.);
#403=EDGE_CURVE('',#327,#330,#62,.T.);
#404=EDGE_CURVE('',#330,#302,#18,.T.);
#405=EDGE_CURVE('',#302,#326,#63,.T.);
#406=EDGE_CURVE('',#330,#328,#64,.T.);
#407=EDGE_CURVE('',#315,#323,#65,.T.);
#408=EDGE_CURVE('',#325,#317,#66,.T.);
#409=EDGE_CURVE('',#331,#316,#67,.T.);
#410=EDGE_CURVE('',#318,#332,#68,.T.);
#411=EDGE_CURVE('',#332,#331,#19,.T.);
#412=EDGE_CURVE('',#321,#331,#69,.T.);
#413=EDGE_CURVE('',#332,#294,#70,.T.);
#414=EDGE_CURVE('',#326,#333,#71,.T.);
#415=EDGE_CURVE('',#334,#333,#72,.F.);
#416=EDGE_CURVE('',#335,#334,#73,.F.);
#417=EDGE_CURVE('',#336,#335,#285,.F.);
#418=EDGE_CURVE('',#337,#336,#74,.F.);
#419=EDGE_CURVE('',#338,#337,#75,.F.);
#420=EDGE_CURVE('',#332,#338,#76,.T.);
#421=EDGE_CURVE('',#339,#339,#286,.T.);
#422=EDGE_CURVE('',#340,#340,#287,.T.);
#423=EDGE_CURVE('',#341,#301,#77,.T.);
#424=EDGE_CURVE('',#333,#341,#78,.T.);
#425=EDGE_CURVE('',#340,#314,#79,.T.);
#426=EDGE_CURVE('',#339,#308,#80,.T.);
#427=EDGE_CURVE('',#342,#341,#81,.T.);
#428=EDGE_CURVE('',#300,#342,#82,.T.);
#429=EDGE_CURVE('',#343,#344,#83,.T.);
#430=EDGE_CURVE('',#344,#298,#84,.T.);
#431=EDGE_CURVE('',#297,#343,#85,.T.);
#432=EDGE_CURVE('',#345,#299,#86,.T.);
#433=EDGE_CURVE('',#344,#345,#288,.T.);
#434=EDGE_CURVE('',#345,#342,#87,.T.);
#435=EDGE_CURVE('',#296,#346,#88,.T.);
#436=EDGE_CURVE('',#346,#343,#89,.T.);
#437=EDGE_CURVE('',#336,#344,#90,.T.);
#438=EDGE_CURVE('',#335,#345,#91,.T.);
#439=EDGE_CURVE('',#337,#343,#92,.F.);
#440=EDGE_CURVE('',#338,#346,#93,.F.);
#441=EDGE_CURVE('',#334,#342,#94,.F.);
#442=ORIENTED_EDGE('',*,*,#347,.T.);
#443=ORIENTED_EDGE('',*,*,#348,.T.);
#444=ORIENTED_EDGE('',*,*,#349,.T.);
#445=ORIENTED_EDGE('',*,*,#350,.T.);
#446=ORIENTED_EDGE('',*,*,#348,.F.);
#447=ORIENTED_EDGE('',*,*,#350,.F.);
#448=ORIENTED_EDGE('',*,*,#351,.T.);
#449=ORIENTED_EDGE('',*,*,#352,.F.);
#450=ORIENTED_EDGE('',*,*,#353,.F.);
#451=ORIENTED_EDGE('',*,*,#351,.F.);
#452=ORIENTED_EDGE('',*,*,#349,.F.);
#453=ORIENTED_EDGE('',*,*,#354,.F.);
#454=ORIENTED_EDGE('',*,*,#355,.T.);
#455=ORIENTED_EDGE('',*,*,#356,.F.);
#456=ORIENTED_EDGE('',*,*,#357,.F.);
#457=ORIENTED_EDGE('',*,*,#358,.F.);
#458=ORIENTED_EDGE('',*,*,#359,.F.);
#459=ORIENTED_EDGE('',*,*,#360,.F.);
#460=ORIENTED_EDGE('',*,*,#361,.T.);
#461=ORIENTED_EDGE('',*,*,#362,.F.);
#462=ORIENTED_EDGE('',*,*,#363,.F.);
#463=ORIENTED_EDGE('',*,*,#364,.F.);
#464=ORIENTED_EDGE('',*,*,#365,.F.);
#465=ORIENTED_EDGE('',*,*,#366,.F.);
#466=ORIENTED_EDGE('',*,*,#347,.F.);
#467=ORIENTED_EDGE('',*,*,#352,.T.);
#468=ORIENTED_EDGE('',*,*,#353,.T.);
#469=ORIENTED_EDGE('',*,*,#367,.T.);
#470=ORIENTED_EDGE('',*,*,#368,.T.);
#471=ORIENTED_EDGE('',*,*,#367,.F.);
#472=ORIENTED_EDGE('',*,*,#369,.F.);
#473=ORIENTED_EDGE('',*,*,#368,.F.);
#474=ORIENTED_EDGE('',*,*,#366,.T.);
#475=ORIENTED_EDGE('',*,*,#370,.T.);
#476=ORIENTED_EDGE('',*,*,#371,.T.);
#477=ORIENTED_EDGE('',*,*,#372,.T.);
#478=ORIENTED_EDGE('',*,*,#370,.F.);
#479=ORIENTED_EDGE('',*,*,#372,.F.);
#480=ORIENTED_EDGE('',*,*,#373,.T.);
#481=ORIENTED_EDGE('',*,*,#374,.F.);
#482=ORIENTED_EDGE('',*,*,#375,.F.);
#483=ORIENTED_EDGE('',*,*,#373,.F.);
#484=ORIENTED_EDGE('',*,*,#371,.F.);
#485=ORIENTED_EDGE('',*,*,#374,.T.);
#486=ORIENTED_EDGE('',*,*,#375,.T.);
#487=ORIENTED_EDGE('',*,*,#376,.T.);
#488=ORIENTED_EDGE('',*,*,#377,.T.);
#489=ORIENTED_EDGE('',*,*,#376,.F.);
#490=ORIENTED_EDGE('',*,*,#378,.F.);
#491=ORIENTED_EDGE('',*,*,#377,.F.);
#492=ORIENTED_EDGE('',*,*,#379,.F.);
#493=ORIENTED_EDGE('',*,*,#380,.F.);
#494=ORIENTED_EDGE('',*,*,#381,.T.);
#495=ORIENTED_EDGE('',*,*,#382,.F.);
#496=ORIENTED_EDGE('',*,*,#383,.F.);
#497=ORIENTED_EDGE('',*,*,#384,.F.);
#498=ORIENTED_EDGE('',*,*,#385,.F.);
#499=ORIENTED_EDGE('',*,*,#365,.T.);
#500=ORIENTED_EDGE('',*,*,#384,.T.);
#501=ORIENTED_EDGE('',*,*,#386,.T.);
#502=ORIENTED_EDGE('',*,*,#379,.T.);
#503=ORIENTED_EDGE('',*,*,#387,.T.);
#504=ORIENTED_EDGE('',*,*,#354,.T.);
#505=ORIENTED_EDGE('',*,*,#385,.T.);
#506=ORIENTED_EDGE('',*,*,#388,.T.);
#507=ORIENTED_EDGE('',*,*,#389,.F.);
#508=ORIENTED_EDGE('',*,*,#390,.F.);
#509=ORIENTED_EDGE('',*,*,#391,.F.);
#510=ORIENTED_EDGE('',*,*,#392,.T.);
#511=ORIENTED_EDGE('',*,*,#393,.F.);
#512=ORIENTED_EDGE('',*,*,#394,.T.);
#513=ORIENTED_EDGE('',*,*,#391,.T.);
#514=ORIENTED_EDGE('',*,*,#395,.T.);
#515=ORIENTED_EDGE('',*,*,#396,.T.);
#516=ORIENTED_EDGE('',*,*,#397,.F.);
#517=ORIENTED_EDGE('',*,*,#398,.F.);
#518=ORIENTED_EDGE('',*,*,#399,.F.);
#519=ORIENTED_EDGE('',*,*,#363,.T.);
#520=ORIENTED_EDGE('',*,*,#398,.T.);
#521=ORIENTED_EDGE('',*,*,#400,.T.);
#522=ORIENTED_EDGE('',*,*,#390,.T.);
#523=ORIENTED_EDGE('',*,*,#401,.T.);
#524=ORIENTED_EDGE('',*,*,#383,.T.);
#525=ORIENTED_EDGE('',*,*,#364,.T.);
#526=ORIENTED_EDGE('',*,*,#399,.T.);
#527=ORIENTED_EDGE('',*,*,#402,.T.);
#528=ORIENTED_EDGE('',*,*,#403,.T.);
#529=ORIENTED_EDGE('',*,*,#404,.T.);
#530=ORIENTED_EDGE('',*,*,#405,.T.);
#531=ORIENTED_EDGE('',*,*,#396,.F.);
#532=ORIENTED_EDGE('',*,*,#406,.T.);
#533=ORIENTED_EDGE('',*,*,#397,.T.);
#534=ORIENTED_EDGE('',*,*,#362,.T.);
#535=ORIENTED_EDGE('',*,*,#404,.F.);
#536=ORIENTED_EDGE('',*,*,#380,.T.);
#537=ORIENTED_EDGE('',*,*,#407,.T.);
#538=ORIENTED_EDGE('',*,*,#393,.T.);
#539=ORIENTED_EDGE('',*,*,#408,.T.);
#540=ORIENTED_EDGE('',*,*,#409,.T.);
#541=ORIENTED_EDGE('',*,*,#382,.T.);
#542=ORIENTED_EDGE('',*,*,#410,.T.);
#543=ORIENTED_EDGE('',*,*,#411,.T.);
#544=ORIENTED_EDGE('',*,*,#412,.T.);
#545=ORIENTED_EDGE('',*,*,#411,.F.);
#546=ORIENTED_EDGE('',*,*,#413,.T.);
#547=ORIENTED_EDGE('',*,*,#389,.T.);
#548=ORIENTED_EDGE('',*,*,#410,.F.);
#549=ORIENTED_EDGE('',*,*,#381,.F.);
#550=ORIENTED_EDGE('',*,*,#408,.F.);
#551=ORIENTED_EDGE('',*,*,#392,.F.);
#552=ORIENTED_EDGE('',*,*,#394,.F.);
#553=ORIENTED_EDGE('',*,*,#414,.T.);
#554=ORIENTED_EDGE('',*,*,#415,.F.);
#555=ORIENTED_EDGE('',*,*,#416,.F.);
#556=ORIENTED_EDGE('',*,*,#417,.F.);
#557=ORIENTED_EDGE('',*,*,#418,.F.);
#558=ORIENTED_EDGE('',*,*,#419,.F.);
#559=ORIENTED_EDGE('',*,*,#420,.F.);
#560=ORIENTED_EDGE('',*,*,#421,.T.);
#561=ORIENTED_EDGE('',*,*,#422,.T.);
#562=ORIENTED_EDGE('',*,*,#405,.F.);
#563=ORIENTED_EDGE('',*,*,#361,.F.);
#564=ORIENTED_EDGE('',*,*,#423,.F.);
#565=ORIENTED_EDGE('',*,*,#424,.F.);
#566=ORIENTED_EDGE('',*,*,#414,.F.);
#567=ORIENTED_EDGE('',*,*,#387,.F.);
#568=ORIENTED_EDGE('',*,*,#409,.F.);
#569=ORIENTED_EDGE('',*,*,#412,.F.);
#570=ORIENTED_EDGE('',*,*,#388,.F.);
#571=ORIENTED_EDGE('',*,*,#395,.F.);
#572=ORIENTED_EDGE('',*,*,#400,.F.);
#573=ORIENTED_EDGE('',*,*,#406,.F.);
#574=ORIENTED_EDGE('',*,*,#403,.F.);
#575=ORIENTED_EDGE('',*,*,#401,.F.);
#576=ORIENTED_EDGE('',*,*,#407,.F.);
#577=ORIENTED_EDGE('',*,*,#386,.F.);
#578=ORIENTED_EDGE('',*,*,#402,.F.);
#579=ORIENTED_EDGE('',*,*,#422,.F.);
#580=ORIENTED_EDGE('',*,*,#425,.T.);
#581=ORIENTED_EDGE('',*,*,#378,.T.);
#582=ORIENTED_EDGE('',*,*,#425,.F.);
#583=ORIENTED_EDGE('',*,*,#421,.F.);
#584=ORIENTED_EDGE('',*,*,#426,.T.);
#585=ORIENTED_EDGE('',*,*,#369,.T.);
#586=ORIENTED_EDGE('',*,*,#426,.F.);
#587=ORIENTED_EDGE('',*,*,#427,.T.);
#588=ORIENTED_EDGE('',*,*,#423,.T.);
#589=ORIENTED_EDGE('',*,*,#360,.T.);
#590=ORIENTED_EDGE('',*,*,#428,.T.);
#591=ORIENTED_EDGE('',*,*,#429,.T.);
#592=ORIENTED_EDGE('',*,*,#430,.T.);
#593=ORIENTED_EDGE('',*,*,#357,.T.);
#594=ORIENTED_EDGE('',*,*,#431,.T.);
#595=ORIENTED_EDGE('',*,*,#432,.T.);
#596=ORIENTED_EDGE('',*,*,#358,.T.);
#597=ORIENTED_EDGE('',*,*,#430,.F.);
#598=ORIENTED_EDGE('',*,*,#433,.T.);
#599=ORIENTED_EDGE('',*,*,#359,.T.);
#600=ORIENTED_EDGE('',*,*,#432,.F.);
#601=ORIENTED_EDGE('',*,*,#434,.T.);
#602=ORIENTED_EDGE('',*,*,#428,.F.);
#603=ORIENTED_EDGE('',*,*,#356,.T.);
#604=ORIENTED_EDGE('',*,*,#435,.T.);
#605=ORIENTED_EDGE('',*,*,#436,.T.);
#606=ORIENTED_EDGE('',*,*,#431,.F.);
#607=ORIENTED_EDGE('',*,*,#433,.F.);
#608=ORIENTED_EDGE('',*,*,#437,.F.);
#609=ORIENTED_EDGE('',*,*,#417,.T.);
#610=ORIENTED_EDGE('',*,*,#438,.T.);
#611=ORIENTED_EDGE('',*,*,#429,.F.);
#612=ORIENTED_EDGE('',*,*,#439,.F.);
#613=ORIENTED_EDGE('',*,*,#418,.T.);
#614=ORIENTED_EDGE('',*,*,#437,.T.);
#615=ORIENTED_EDGE('',*,*,#436,.F.);
#616=ORIENTED_EDGE('',*,*,#440,.F.);
#617=ORIENTED_EDGE('',*,*,#419,.T.);
#618=ORIENTED_EDGE('',*,*,#439,.T.);
#619=ORIENTED_EDGE('',*,*,#413,.F.);
#620=ORIENTED_EDGE('',*,*,#420,.T.);
#621=ORIENTED_EDGE('',*,*,#440,.T.);
#622=ORIENTED_EDGE('',*,*,#435,.F.);
#623=ORIENTED_EDGE('',*,*,#355,.F.);
#624=ORIENTED_EDGE('',*,*,#427,.F.);
#625=ORIENTED_EDGE('',*,*,#441,.F.);
#626=ORIENTED_EDGE('',*,*,#415,.T.);
#627=ORIENTED_EDGE('',*,*,#424,.T.);
#628=ORIENTED_EDGE('',*,*,#434,.F.);
#629=ORIENTED_EDGE('',*,*,#438,.F.);
#630=ORIENTED_EDGE('',*,*,#416,.T.);
#631=ORIENTED_EDGE('',*,*,#441,.T.);
#632=TOROIDAL_SURFACE('',#695,6.75,0.5);
#633=TOROIDAL_SURFACE('',#708,6.75,0.5);
#634=TOROIDAL_SURFACE('',#713,10.75,0.5);
#635=TOROIDAL_SURFACE('',#720,10.75,0.5);
#636=TOROIDAL_SURFACE('',#725,1.,0.5);
#637=TOROIDAL_SURFACE('',#730,0.999999999999996,0.499999999999998);
#638=TOROIDAL_SURFACE('',#737,0.999999999999996,0.499999999999998);
#639=TOROIDAL_SURFACE('',#744,1.,0.5);
#640=ADVANCED_FACE('',(#162),#632,.T.);
#641=ADVANCED_FACE('',(#163),#147,.F.);
#642=ADVANCED_FACE('',(#164,#20,#21),#26,.T.);
#643=ADVANCED_FACE('',(#165),#633,.T.);
#644=ADVANCED_FACE('',(#166,#22),#27,.T.);
#645=ADVANCED_FACE('',(#167),#634,.T.);
#646=ADVANCED_FACE('',(#168),#148,.F.);
#647=ADVANCED_FACE('',(#169),#635,.T.);
#648=ADVANCED_FACE('',(#170,#23),#28,.T.);
#649=ADVANCED_FACE('',(#171),#636,.T.);
#650=ADVANCED_FACE('',(#172),#637,.T.);
#651=ADVANCED_FACE('',(#173),#149,.F.);
#652=ADVANCED_FACE('',(#174),#150,.T.);
#653=ADVANCED_FACE('',(#175),#638,.T.);
#654=ADVANCED_FACE('',(#176),#151,.T.);
#655=ADVANCED_FACE('',(#177),#639,.T.);
#656=ADVANCED_FACE('',(#178),#152,.F.);
#657=ADVANCED_FACE('',(#179),#153,.T.);
#658=ADVANCED_FACE('',(#180),#154,.T.);
#659=ADVANCED_FACE('',(#181),#155,.T.);
#660=ADVANCED_FACE('',(#182),#156,.T.);
#661=ADVANCED_FACE('',(#183),#157,.T.);
#662=ADVANCED_FACE('',(#184),#158,.T.);
#663=ADVANCED_FACE('',(#185,#24,#25),#29,.F.);
#664=ADVANCED_FACE('',(#186),#30,.T.);
#665=ADVANCED_FACE('',(#187),#31,.T.);
#666=ADVANCED_FACE('',(#188),#32,.T.);
#667=ADVANCED_FACE('',(#189),#33,.T.);
#668=ADVANCED_FACE('',(#190),#159,.F.);
#669=ADVANCED_FACE('',(#191),#160,.F.);
#670=ADVANCED_FACE('',(#192),#34,.T.);
#671=ADVANCED_FACE('',(#193),#35,.T.);
#672=ADVANCED_FACE('',(#194),#15,.T.);
#673=ADVANCED_FACE('',(#195),#36,.T.);
#674=ADVANCED_FACE('',(#196),#37,.T.);
#675=ADVANCED_FACE('',(#197),#161,.T.);
#676=ADVANCED_FACE('',(#198),#38,.T.);
#677=ADVANCED_FACE('',(#199),#39,.T.);
#678=ADVANCED_FACE('',(#200),#40,.T.);
#679=ADVANCED_FACE('',(#201),#41,.T.);
#680=ADVANCED_FACE('',(#202),#42,.T.);
#681=CLOSED_SHELL('',(#640,#641,#642,#643,#644,#645,#646,#647,#648,#649,
#650,#651,#652,#653,#654,#655,#656,#657,#658,#659,#660,#661,#662,#663,#664,
#665,#666,#667,#668,#669,#670,#671,#672,#673,#674,#675,#676,#677,#678,#679,
#680));
#682=DERIVED_UNIT_ELEMENT(#684,1.);
#683=DERIVED_UNIT_ELEMENT(#1201,-3.);
#684=(
MASS_UNIT()
NAMED_UNIT(*)
SI_UNIT(.KILO.,.GRAM.)
);
#685=DERIVED_UNIT((#682,#683));
#686=MEASURE_REPRESENTATION_ITEM('density measure',
POSITIVE_RATIO_MEASURE(7850.),#685);
#687=PROPERTY_DEFINITION_REPRESENTATION(#692,#689);
#688=PROPERTY_DEFINITION_REPRESENTATION(#693,#690);
#689=REPRESENTATION('material name',(#691),#1198);
#690=REPRESENTATION('density',(#686),#1198);
#691=DESCRIPTIVE_REPRESENTATION_ITEM('Steel','Steel');
#692=PROPERTY_DEFINITION('material property','material name',#1208);
#693=PROPERTY_DEFINITION('material property','density of part',#1208);
#694=AXIS2_PLACEMENT_3D('',#1001,#779,#780);
#695=AXIS2_PLACEMENT_3D('',#1002,#781,#782);
#696=AXIS2_PLACEMENT_3D('',#1004,#783,#784);
#697=AXIS2_PLACEMENT_3D('',#1006,#785,#786);
#698=AXIS2_PLACEMENT_3D('',#1008,#787,#788);
#699=AXIS2_PLACEMENT_3D('',#1009,#789,#790);
#700=AXIS2_PLACEMENT_3D('',#1010,#791,#792);
#701=AXIS2_PLACEMENT_3D('',#1014,#794,#795);
#702=AXIS2_PLACEMENT_3D('',#1015,#796,#797);
#703=AXIS2_PLACEMENT_3D('',#1016,#798,#799);
#704=AXIS2_PLACEMENT_3D('',#1027,#804,#805);
#705=AXIS2_PLACEMENT_3D('',#1037,#810,#811);
#706=AXIS2_PLACEMENT_3D('',#1040,#813,#814);
#707=AXIS2_PLACEMENT_3D('',#1042,#815,#816);
#708=AXIS2_PLACEMENT_3D('',#1043,#817,#818);
#709=AXIS2_PLACEMENT_3D('',#1045,#819,#820);
#710=AXIS2_PLACEMENT_3D('',#1046,#821,#822);
#711=AXIS2_PLACEMENT_3D('',#1047,#823,#824);
#712=AXIS2_PLACEMENT_3D('',#1049,#825,#826);
#713=AXIS2_PLACEMENT_3D('',#1050,#827,#828);
#714=AXIS2_PLACEMENT_3D('',#1052,#829,#830);
#715=AXIS2_PLACEMENT_3D('',#1054,#831,#832);
#716=AXIS2_PLACEMENT_3D('',#1055,#833,#834);
#717=AXIS2_PLACEMENT_3D('',#1056,#835,#836);
#718=AXIS2_PLACEMENT_3D('',#1060,#838,#839);
#719=AXIS2_PLACEMENT_3D('',#1061,#840,#841);
#720=AXIS2_PLACEMENT_3D('',#1062,#842,#843);
#721=AXIS2_PLACEMENT_3D('',#1064,#844,#845);
#722=AXIS2_PLACEMENT_3D('',#1065,#846,#847);
#723=AXIS2_PLACEMENT_3D('',#1066,#848,#849);
#724=AXIS2_PLACEMENT_3D('',#1068,#850,#851);
#725=AXIS2_PLACEMENT_3D('',#1069,#852,#853);
#726=AXIS2_PLACEMENT_3D('',#1072,#854,#855);
#727=AXIS2_PLACEMENT_3D('',#1074,#856,#857);
#728=AXIS2_PLACEMENT_3D('',#1076,#858,#859);
#729=AXIS2_PLACEMENT_3D('',#1077,#860,#861);
#730=AXIS2_PLACEMENT_3D('',#1078,#862,#863);
#731=AXIS2_PLACEMENT_3D('',#1080,#864,#865);
#732=AXIS2_PLACEMENT_3D('',#1082,#866,#867);
#733=AXIS2_PLACEMENT_3D('',#1083,#868,#869);
#734=AXIS2_PLACEMENT_3D('',#1084,#870,#871);
#735=AXIS2_PLACEMENT_3D('',#1087,#874,#875);
#736=AXIS2_PLACEMENT_3D('',#1090,#877,#878);
#737=AXIS2_PLACEMENT_3D('',#1091,#879,#880);
#738=AXIS2_PLACEMENT_3D('',#1094,#881,#882);
#739=AXIS2_PLACEMENT_3D('',#1096,#883,#884);
#740=AXIS2_PLACEMENT_3D('',#1098,#885,#886);
#741=AXIS2_PLACEMENT_3D('',#1099,#887,#888);
#742=AXIS2_PLACEMENT_3D('',#1100,#889,#890);
#743=AXIS2_PLACEMENT_3D('',#1105,#893,#894);
#744=AXIS2_PLACEMENT_3D('',#1106,#895,#896);
#745=AXIS2_PLACEMENT_3D('',#1108,#897,#898);
#746=AXIS2_PLACEMENT_3D('',#1110,#899,#900);
#747=AXIS2_PLACEMENT_3D('',#1111,#901,#902);
#748=AXIS2_PLACEMENT_3D('',#1112,#903,#904);
#749=AXIS2_PLACEMENT_3D('',#1115,#907,#908);
#750=AXIS2_PLACEMENT_3D('',#1117,#910,#911);
#751=AXIS2_PLACEMENT_3D('',#1120,#913,#914);
#752=AXIS2_PLACEMENT_3D('',#1122,#916,#917);
#753=AXIS2_PLACEMENT_3D('',#1124,#919,#920);
#754=AXIS2_PLACEMENT_3D('',#1127,#923,#924);
#755=AXIS2_PLACEMENT_3D('',#1132,#927,#928);
#756=AXIS2_PLACEMENT_3D('',#1133,#929,#930);
#757=AXIS2_PLACEMENT_3D('',#1136,#933,#934);
#758=AXIS2_PLACEMENT_3D('',#1144,#938,#939);
#759=AXIS2_PLACEMENT_3D('',#1151,#943,#944);
#760=AXIS2_PLACEMENT_3D('',#1153,#945,#946);
#761=AXIS2_PLACEMENT_3D('',#1154,#947,#948);
#762=AXIS2_PLACEMENT_3D('',#1158,#951,#952);
#763=AXIS2_PLACEMENT_3D('',#1159,#953,#954);
#764=AXIS2_PLACEMENT_3D('',#1160,#955,#956);
#765=AXIS2_PLACEMENT_3D('',#1161,#957,#958);
#766=AXIS2_PLACEMENT_3D('',#1163,#960,#961);
#767=AXIS2_PLACEMENT_3D('',#1165,#963,#964);
#768=AXIS2_PLACEMENT_3D('',#1169,#967,#968);
#769=AXIS2_PLACEMENT_3D('',#1175,#972,#973);
#770=AXIS2_PLACEMENT_3D('',#1178,#975,#976);
#771=AXIS2_PLACEMENT_3D('',#1179,#977,#978);
#772=AXIS2_PLACEMENT_3D('',#1181,#980,#981);
#773=AXIS2_PLACEMENT_3D('',#1185,#984,#985);
#774=AXIS2_PLACEMENT_3D('',#1188,#988,#989);
#775=AXIS2_PLACEMENT_3D('',#1190,#991,#992);
#776=AXIS2_PLACEMENT_3D('',#1192,#994,#995);
#777=AXIS2_PLACEMENT_3D('',#1193,#996,#997);
#778=AXIS2_PLACEMENT_3D('',#1195,#999,#1000);
#779=DIRECTION('axis',(0.,0.,1.));
#780=DIRECTION('refdir',(1.,0.,0.));
#781=DIRECTION('center_axis',(0.,1.,0.));
#782=DIRECTION('ref_axis',(0.,0.,1.));
#783=DIRECTION('center_axis',(0.,-1.,0.));
#784=DIRECTION('ref_axis',(1.,0.,0.));
#785=DIRECTION('center_axis',(-1.,0.,1.22464679914823E-16));
#786=DIRECTION('ref_axis',(-1.22464679914823E-16,0.,-1.));
#787=DIRECTION('center_axis',(0.,1.,0.));
#788=DIRECTION('ref_axis',(1.,0.,0.));
#789=DIRECTION('center_axis',(0.,1.,0.));
#790=DIRECTION('ref_axis',(1.,0.,0.));
#791=DIRECTION('center_axis',(0.,-1.,0.));
#792=DIRECTION('ref_axis',(1.,0.,0.));
#793=DIRECTION('',(0.,1.,0.));
#794=DIRECTION('center_axis',(0.,-1.,0.));
#795=DIRECTION('ref_axis',(-1.,0.,0.));
#796=DIRECTION('center_axis',(0.,-1.,0.));
#797=DIRECTION('ref_axis',(-1.,0.,0.));
#798=DIRECTION('center_axis',(0.,-1.,0.));
#799=DIRECTION('ref_axis',(1.,0.,0.));
#800=DIRECTION('',(0.,0.,-1.));
#801=DIRECTION('',(-1.,0.,0.));
#802=DIRECTION('',(0.,0.,1.));
#803=DIRECTION('',(-0.159419505565852,0.,0.987210930472885));
#804=DIRECTION('center_axis',(0.,1.,0.));
#805=DIRECTION('ref_axis',(-0.987210930472885,0.,-0.15941950556585));
#806=DIRECTION('',(-0.159419505565831,0.,-0.987210930472888));
#807=DIRECTION('',(1.10138739318985E-16,0.,-1.));
#808=DIRECTION('',(-1.,0.,0.));
#809=DIRECTION('',(-1.38777878078144E-15,0.,1.));
#810=DIRECTION('center_axis',(0.,-1.,0.));
#811=DIRECTION('ref_axis',(0.707106781186549,0.,-0.707106781186546));
#812=DIRECTION('',(1.,0.,0.));
#813=DIRECTION('center_axis',(0.,-1.,0.));
#814=DIRECTION('ref_axis',(-0.707106781186549,0.,-0.707106781186546));
#815=DIRECTION('center_axis',(0.,-1.,0.));
#816=DIRECTION('ref_axis',(1.,0.,0.));
#817=DIRECTION('center_axis',(0.,1.,0.));
#818=DIRECTION('ref_axis',(0.,0.,1.));
#819=DIRECTION('center_axis',(-1.,0.,1.22464679914823E-16));
#820=DIRECTION('ref_axis',(-1.22464679914823E-16,0.,-1.));
#821=DIRECTION('center_axis',(0.,1.,0.));
#822=DIRECTION('ref_axis',(-1.,0.,0.));
#823=DIRECTION('center_axis',(0.,1.,0.));
#824=DIRECTION('ref_axis',(-1.,0.,0.));
#825=DIRECTION('center_axis',(0.,-1.,0.));
#826=DIRECTION('ref_axis',(-1.,0.,0.));
#827=DIRECTION('center_axis',(0.,1.,0.));
#828=DIRECTION('ref_axis',(0.,0.,1.));
#829=DIRECTION('center_axis',(-1.,0.,1.22464679914693E-16));
#830=DIRECTION('ref_axis',(-1.22464679914693E-16,0.,-1.));
#831=DIRECTION('center_axis',(0.,1.,0.));
#832=DIRECTION('ref_axis',(1.,0.,0.));
#833=DIRECTION('center_axis',(0.,1.,0.));
#834=DIRECTION('ref_axis',(1.,0.,0.));
#835=DIRECTION('center_axis',(0.,-1.,0.));
#836=DIRECTION('ref_axis',(1.,0.,0.));
#837=DIRECTION('',(0.,1.,0.));
#838=DIRECTION('center_axis',(0.,-1.,0.));
#839=DIRECTION('ref_axis',(-1.,0.,0.));
#840=DIRECTION('center_axis',(0.,-1.,0.));
#841=DIRECTION('ref_axis',(-1.,0.,0.));
#842=DIRECTION('center_axis',(0.,1.,0.));
#843=DIRECTION('ref_axis',(0.,0.,1.));
#844=DIRECTION('center_axis',(-1.,0.,1.22464679914693E-16));
#845=DIRECTION('ref_axis',(-1.22464679914693E-16,0.,-1.));
#846=DIRECTION('center_axis',(0.,1.,0.));
#847=DIRECTION('ref_axis',(-1.,0.,0.));
#848=DIRECTION('center_axis',(0.,1.,0.));
#849=DIRECTION('ref_axis',(-1.,0.,0.));
#850=DIRECTION('center_axis',(0.,-1.,0.));
#851=DIRECTION('ref_axis',(-1.,0.,0.));
#852=DIRECTION('center_axis',(0.,-1.,0.));
#853=DIRECTION('ref_axis',(0.,0.,-1.));
#854=DIRECTION('center_axis',(0.,-1.,0.));
#855=DIRECTION('ref_axis',(0.,0.,-1.));
#856=DIRECTION('center_axis',(1.,0.,0.));
#857=DIRECTION('ref_axis',(0.,1.,0.));
#858=DIRECTION('center_axis',(0.,1.,0.));
#859=DIRECTION('ref_axis',(-0.707106781186549,0.,-0.707106781186546));
#860=DIRECTION('center_axis',(0.,0.,1.));
#861=DIRECTION('ref_axis',(1.,0.,0.));
#862=DIRECTION('center_axis',(0.,1.,0.));
#863=DIRECTION('ref_axis',(0.,0.,1.));
#864=DIRECTION('center_axis',(1.,0.,0.));
#865=DIRECTION('ref_axis',(0.,0.,1.));
#866=DIRECTION('center_axis',(0.,1.,0.));
#867=DIRECTION('ref_axis',(-1.,0.,0.));
#868=DIRECTION('center_axis',(0.,0.,1.));
#869=DIRECTION('ref_axis',(0.,-1.,0.));
#870=DIRECTION('center_axis',(0.,-1.,0.));
#871=DIRECTION('ref_axis',(-0.707106781186542,0.,-0.707106781186553));
#872=DIRECTION('',(0.,1.,0.));
#873=DIRECTION('',(0.,-1.,0.));
#874=DIRECTION('center_axis',(0.,0.,1.));
#875=DIRECTION('ref_axis',(0.707106781186549,-0.707106781186546,0.));
#876=DIRECTION('',(0.,0.,1.));
#877=DIRECTION('center_axis',(0.,0.707106781186548,0.707106781186548));
#878=DIRECTION('ref_axis',(0.,0.707106781186547,-0.707106781186547));
#879=DIRECTION('center_axis',(0.,-1.,0.));
#880=DIRECTION('ref_axis',(0.,0.,-1.));
#881=DIRECTION('center_axis',(0.,-1.,0.));
#882=DIRECTION('ref_axis',(1.,0.,0.));
#883=DIRECTION('center_axis',(0.,0.,1.));
#884=DIRECTION('ref_axis',(0.,1.,0.));
#885=DIRECTION('center_axis',(0.,1.,0.));
#886=DIRECTION('ref_axis',(0.707106781186549,0.,-0.707106781186546));
#887=DIRECTION('center_axis',(-1.,0.,0.));
#888=DIRECTION('ref_axis',(0.,0.,1.));
#889=DIRECTION('center_axis',(1.38777878078144E-15,0.,-1.));
#890=DIRECTION('ref_axis',(-0.707106781186545,0.70710678118655,0.));
#891=DIRECTION('',(1.38777878078144E-15,0.,-1.));
#892=DIRECTION('',(-1.38777878078144E-15,0.,1.));
#893=DIRECTION('center_axis',(0.,0.707106781186546,-0.707106781186549));
#894=DIRECTION('ref_axis',(-1.96261557335472E-15,0.707106781186549,0.707106781186546));
#895=DIRECTION('center_axis',(0.,1.,0.));
#896=DIRECTION('ref_axis',(0.,0.,1.));
#897=DIRECTION('center_axis',(0.,0.,1.));
#898=DIRECTION('ref_axis',(-1.,0.,0.));
#899=DIRECTION('center_axis',(0.,1.,0.));
#900=DIRECTION('ref_axis',(0.,0.,-1.));
#901=DIRECTION('center_axis',(-1.,0.,0.));
#902=DIRECTION('ref_axis',(0.,-1.,0.));
#903=DIRECTION('center_axis',(0.,-1.,0.));
#904=DIRECTION('ref_axis',(0.707106781186542,0.,-0.707106781186553));
#905=DIRECTION('',(0.,1.,0.));
#906=DIRECTION('',(0.,-1.,0.));
#907=DIRECTION('center_axis',(-1.,0.,0.));
#908=DIRECTION('ref_axis',(0.,-0.707106781186541,0.707106781186554));
#909=DIRECTION('',(-1.,0.,0.));
#910=DIRECTION('center_axis',(0.,-1.,0.));
#911=DIRECTION('ref_axis',(-0.707106781186543,0.,0.707106781186552));
#912=DIRECTION('',(0.,-1.,0.));
#913=DIRECTION('center_axis',(0.,0.707106781186548,0.707106781186548));
#914=DIRECTION('ref_axis',(0.,0.707106781186547,-0.707106781186547));
#915=DIRECTION('',(0.,1.,0.));
#916=DIRECTION('center_axis',(1.38777878078144E-15,0.,-1.));
#917=DIRECTION('ref_axis',(-0.707106781186548,-0.707106781186547,0.));
#918=DIRECTION('',(1.38777878078144E-15,0.,-1.));
#919=DIRECTION('center_axis',(-1.,0.,0.));
#920=DIRECTION('ref_axis',(0.,0.707106781186544,0.707106781186551));
#921=DIRECTION('',(1.,0.,0.));
#922=DIRECTION('',(-1.,0.,0.));
#923=DIRECTION('center_axis',(0.,0.,1.));
#924=DIRECTION('ref_axis',(0.707106781186546,0.707106781186549,0.));
#925=DIRECTION('',(0.,0.,-1.));
#926=DIRECTION('',(0.,0.,1.));
#927=DIRECTION('center_axis',(0.,0.707106781186546,-0.707106781186549));
#928=DIRECTION('ref_axis',(0.,-0.707106781186549,-0.707106781186546));
#929=DIRECTION('center_axis',(0.,-1.,0.));
#930=DIRECTION('ref_axis',(0.707106781186542,0.,0.707106781186553));
#931=DIRECTION('',(0.,1.,0.));
#932=DIRECTION('',(0.,-1.,0.));
#933=DIRECTION('center_axis',(0.,-1.,0.));
#934=DIRECTION('ref_axis',(1.,0.,0.));
#935=DIRECTION('',(1.,0.,0.));
#936=DIRECTION('',(1.10138739318985E-16,0.,-1.));
#937=DIRECTION('',(-0.159419505565831,0.,-0.987210930472888));
#938=DIRECTION('center_axis',(0.,1.,0.));
#939=DIRECTION('ref_axis',(-0.987210930472885,0.,-0.15941950556585));
#940=DIRECTION('',(-0.159419505565852,0.,0.987210930472885));
#941=DIRECTION('',(0.,0.,1.));
#942=DIRECTION('',(-1.,0.,0.));
#943=DIRECTION('center_axis',(0.,-1.,0.));
#944=DIRECTION('ref_axis',(-1.,0.,0.));
#945=DIRECTION('center_axis',(0.,-1.,0.));
#946=DIRECTION('ref_axis',(-1.,0.,0.));
#947=DIRECTION('center_axis',(0.,0.,1.));
#948=DIRECTION('ref_axis',(-1.,0.,0.));
#949=DIRECTION('',(-0.707106781186547,-0.707106781186548,0.));
#950=DIRECTION('',(0.,-1.,0.));
#951=DIRECTION('center_axis',(1.,0.,0.));
#952=DIRECTION('ref_axis',(0.,0.,1.));
#953=DIRECTION('center_axis',(-1.,0.,-1.38777878078144E-15));
#954=DIRECTION('ref_axis',(1.38777878078144E-15,0.,-1.));
#955=DIRECTION('center_axis',(0.,0.,1.));
#956=DIRECTION('ref_axis',(-1.,0.,0.));
#957=DIRECTION('center_axis',(0.,-1.,0.));
#958=DIRECTION('ref_axis',(-1.,0.,0.));
#959=DIRECTION('',(0.,-1.,0.));
#960=DIRECTION('center_axis',(0.,-1.,0.));
#961=DIRECTION('ref_axis',(-1.,0.,0.));
#962=DIRECTION('',(0.,-1.,0.));
#963=DIRECTION('center_axis',(0.707106781186548,-0.707106781186547,7.78798494437915E-17));
#964=DIRECTION('ref_axis',(1.10138739318985E-16,0.,-1.));
#965=DIRECTION('',(-1.10138739318985E-16,0.,1.));
#966=DIRECTION('',(0.705971839845808,0.705971839845808,-0.0566349952719113));
#967=DIRECTION('center_axis',(-0.698063543398859,-0.707106781186547,-0.112726613439021));
#968=DIRECTION('ref_axis',(-0.159419505565852,0.,0.987210930472885));
#969=DIRECTION('',(0.159419505565852,1.96261557335472E-17,-0.987210930472885));
#970=DIRECTION('',(0.698063543398858,-0.707106781186548,0.112726613439019));
#971=DIRECTION('',(-0.705971839845807,0.705971839845808,-0.0566349952719176));
#972=DIRECTION('center_axis',(0.,1.,0.));
#973=DIRECTION('ref_axis',(-0.987210930472885,0.,-0.15941950556585));
#974=DIRECTION('',(-0.698063543398859,-0.707106781186547,0.112726613439015));
#975=DIRECTION('center_axis',(0.,-1.,0.));
#976=DIRECTION('ref_axis',(-0.987210930472885,0.,-0.15941950556585));
#977=DIRECTION('center_axis',(0.698063543398861,-0.707106781186547,-0.112726613439006));
#978=DIRECTION('ref_axis',(-0.159419505565831,0.,-0.987210930472888));
#979=DIRECTION('',(0.159419505565831,-3.92523114670944E-17,0.987210930472888));
#980=DIRECTION('center_axis',(-0.707106781186548,-0.707106781186547,0.));
#981=DIRECTION('ref_axis',(0.,0.,1.));
#982=DIRECTION('',(-0.707106781186547,0.707106781186548,0.));
#983=DIRECTION('',(0.,0.,-1.));
#984=DIRECTION('center_axis',(0.,-1.,0.));
#985=DIRECTION('ref_axis',(-0.987210930472885,0.,-0.15941950556585));
#986=DIRECTION('',(0.,-1.,0.));
#987=DIRECTION('',(0.,-1.,0.));
#988=DIRECTION('center_axis',(-0.987210930472885,0.,-0.159419505565852));
#989=DIRECTION('ref_axis',(0.159419505565852,0.,-0.987210930472885));
#990=DIRECTION('',(0.,1.,0.));
#991=DIRECTION('center_axis',(-1.,0.,0.));
#992=DIRECTION('ref_axis',(0.,0.,-1.));
#993=DIRECTION('',(0.,1.,0.));
#994=DIRECTION('center_axis',(0.,0.,1.));
#995=DIRECTION('ref_axis',(-1.,0.,0.));
#996=DIRECTION('center_axis',(1.,0.,1.10138739318985E-16));
#997=DIRECTION('ref_axis',(-1.10138739318985E-16,0.,1.));
#998=DIRECTION('',(0.,1.,0.));
#999=DIRECTION('center_axis',(0.987210930472888,0.,-0.159419505565831));
#1000=DIRECTION('ref_axis',(0.159419505565831,0.,0.987210930472888));
#1001=CARTESIAN_POINT('',(0.,0.,0.));
#1002=CARTESIAN_POINT('Origin',(1.05221387158849E-11,12.6998653769233,18.));
#1003=CARTESIAN_POINT('',(1.05213120792955E-11,12.1998653769233,11.25));
#1004=CARTESIAN_POINT('Origin',(1.05221387158849E-11,12.1998653769233,18.));
#1005=CARTESIAN_POINT('',(1.05213733116355E-11,12.6998653769233,11.75));
#1006=CARTESIAN_POINT('Origin',(1.05213120792955E-11,12.6998653769233,11.25));
#1007=CARTESIAN_POINT('',(-6.24999999998948,12.6998653769233,18.));
#1008=CARTESIAN_POINT('Origin',(1.05221387158849E-11,12.6998653769233,18.));
#1009=CARTESIAN_POINT('Origin',(1.05221387158849E-11,12.6998653769233,18.));
#1010=CARTESIAN_POINT('Origin',(1.05221387158849E-11,14.6998653769233,18.));
#1011=CARTESIAN_POINT('',(-6.24999999998948,13.7998653769233,18.));
#1012=CARTESIAN_POINT('',(-6.24999999998948,14.6998653769233,18.));
#1013=CARTESIAN_POINT('',(1.05213733116355E-11,13.7998653769233,11.75));
#1014=CARTESIAN_POINT('Origin',(1.05221387158849E-11,13.7998653769233,18.));
#1015=CARTESIAN_POINT('Origin',(1.05221387158849E-11,13.7998653769233,18.));
#1016=CARTESIAN_POINT('Origin',(1.01740837976649E-11,12.1998653769233,35.9999999999999));
#1017=CARTESIAN_POINT('',(-2.74999999998913,12.1998653769233,68.));
#1018=CARTESIAN_POINT('',(-2.74999999998913,12.1998653769233,66.9));
#1019=CARTESIAN_POINT('',(-2.74999999998913,12.1998653769233,51.1999999999999));
#1020=CARTESIAN_POINT('',(-16.7171566280172,12.1998653769233,68.));
#1021=CARTESIAN_POINT('',(-2.24999999998913,12.1998653769233,68.));
#1022=CARTESIAN_POINT('',(-16.7171566280172,12.1998653769233,48.0226904173504));
#1023=CARTESIAN_POINT('',(-16.7171566280172,12.1998653769233,43.9999999999999));
#1024=CARTESIAN_POINT('',(-11.5673057483047,12.1998653769233,16.1320565785854));
#1025=CARTESIAN_POINT('',(-14.9867064855153,12.1998653769233,37.3068166649342));
#1026=CARTESIAN_POINT('',(11.5673057483258,12.1998653769233,16.1320565785854));
#1027=CARTESIAN_POINT('Origin',(1.05221387158849E-11,12.1998653769233,18.));
#1028=CARTESIAN_POINT('',(16.7171566280376,12.1998653769233,48.0226904173503));
#1029=CARTESIAN_POINT('',(13.6919449070656,12.1998653769233,29.2889597653949));
#1030=CARTESIAN_POINT('',(16.7171566280376,12.1998653769233,68.));
#1031=CARTESIAN_POINT('',(16.7171566280376,12.1998653769233,38.959888630059));
#1032=CARTESIAN_POINT('',(2.75000000001087,12.1998653769233,68.));
#1033=CARTESIAN_POINT('',(16.9999993405122,12.1998653769233,68.));
#1034=CARTESIAN_POINT('',(2.75000000001087,12.1998653769233,66.9));
#1035=CARTESIAN_POINT('',(2.75000000001089,12.1998653769233,52.));
#1036=CARTESIAN_POINT('',(1.75000000001087,12.1998653769233,65.9));
#1037=CARTESIAN_POINT('Origin',(1.75000000001087,12.1998653769233,66.9));
#1038=CARTESIAN_POINT('',(-1.74999999998913,12.1998653769233,65.9));
#1039=CARTESIAN_POINT('',(1.12500000001052,12.1998653769233,65.9));
#1040=CARTESIAN_POINT('Origin',(-1.74999999998913,12.1998653769233,66.9));
#1041=CARTESIAN_POINT('',(1.0792826861609E-11,12.1998653769233,37.25));
#1042=CARTESIAN_POINT('Origin',(1.07941433569181E-11,12.1998653769233,48.));
#1043=CARTESIAN_POINT('Origin',(1.05221387158849E-11,13.7998653769233,18.));
#1044=CARTESIAN_POINT('',(1.05213120792955E-11,14.2998653769233,11.25));
#1045=CARTESIAN_POINT('Origin',(1.05213120792955E-11,13.7998653769233,11.25));
#1046=CARTESIAN_POINT('Origin',(1.05221387158849E-11,14.2998653769233,18.));
#1047=CARTESIAN_POINT('Origin',(1.05226938273972E-11,14.2998653769233,18.));
#1048=CARTESIAN_POINT('',(8.40000000001052,14.2998653769233,18.));
#1049=CARTESIAN_POINT('Origin',(1.05221387158849E-11,14.2998653769233,18.));
#1050=CARTESIAN_POINT('Origin',(1.07941433569181E-11,12.6998653769233,48.));
#1051=CARTESIAN_POINT('',(1.0792888093949E-11,12.6998653769233,37.75));
#1052=CARTESIAN_POINT('Origin',(1.0792826861609E-11,12.6998653769233,37.25));
#1053=CARTESIAN_POINT('',(-10.2499999999892,12.6998653769233,48.));
#1054=CARTESIAN_POINT('Origin',(1.07941433569181E-11,12.6998653769233,48.));
#1055=CARTESIAN_POINT('Origin',(1.07941433569181E-11,12.6998653769233,48.));
#1056=CARTESIAN_POINT('Origin',(1.07941433569181E-11,14.6998653769233,48.));
#1057=CARTESIAN_POINT('',(-10.2499999999892,13.7998653769233,48.));
#1058=CARTESIAN_POINT('',(-10.2499999999892,14.6998653769233,48.));
#1059=CARTESIAN_POINT('',(1.0792888093949E-11,13.7998653769233,37.75));
#1060=CARTESIAN_POINT('Origin',(1.07941433569181E-11,13.7998653769233,48.));
#1061=CARTESIAN_POINT('Origin',(1.07941433569181E-11,13.7998653769233,48.));
#1062=CARTESIAN_POINT('Origin',(1.07941433569181E-11,13.7998653769233,48.));
#1063=CARTESIAN_POINT('',(1.0792826861609E-11,14.2998653769233,37.25));
#1064=CARTESIAN_POINT('Origin',(1.0792826861609E-11,13.7998653769233,37.25));
#1065=CARTESIAN_POINT('Origin',(1.07941433569181E-11,14.2998653769233,48.));
#1066=CARTESIAN_POINT('Origin',(1.07935882454058E-11,14.2998653769233,48.));
#1067=CARTESIAN_POINT('',(12.9000000000108,14.2998653769233,48.));
#1068=CARTESIAN_POINT('Origin',(1.07941433569181E-11,14.2998653769233,48.));
#1069=CARTESIAN_POINT('Origin',(-1.74999999998913,14.1998653769233,66.9));
#1070=CARTESIAN_POINT('',(-1.74999999998913,14.1998653769233,66.4));
#1071=CARTESIAN_POINT('',(-2.24999999998913,14.1998653769233,66.9));
#1072=CARTESIAN_POINT('Origin',(-1.74999999998913,14.1998653769233,66.9));
#1073=CARTESIAN_POINT('',(-1.74999999998913,14.6998653769233,65.9));
#1074=CARTESIAN_POINT('Origin',(-1.74999999998913,14.1998653769233,65.9));
#1075=CARTESIAN_POINT('',(-2.74999999998913,14.6998653769233,66.9));
#1076=CARTESIAN_POINT('Origin',(-1.74999999998913,14.6998653769233,66.9));
#1077=CARTESIAN_POINT('Origin',(-2.74999999998913,14.1998653769233,66.9));
#1078=CARTESIAN_POINT('Origin',(-1.74999999998913,12.6998653769233,66.9));
#1079=CARTESIAN_POINT('',(-1.74999999998913,12.6998653769233,66.4));
#1080=CARTESIAN_POINT('Origin',(-1.74999999998913,12.6998653769233,65.9));
#1081=CARTESIAN_POINT('',(-2.24999999998913,12.6998653769233,66.9));
#1082=CARTESIAN_POINT('Origin',(-1.74999999998913,12.6998653769233,66.9));
#1083=CARTESIAN_POINT('Origin',(-2.74999999998913,12.6998653769233,66.9));
#1084=CARTESIAN_POINT('Origin',(-1.74999999998913,14.6998653769233,66.9));
#1085=CARTESIAN_POINT('',(-1.74999999998913,14.6998653769233,66.4));
#1086=CARTESIAN_POINT('',(-2.24999999998913,14.6998653769233,66.9));
#1087=CARTESIAN_POINT('Origin',(-2.74999999998913,12.6998653769233,51.1999999999999));
#1088=CARTESIAN_POINT('',(-2.24999999998913,12.6998653769233,67.5));
#1089=CARTESIAN_POINT('',(-2.24999999998913,12.6998653769233,51.1999999999999));
#1090=CARTESIAN_POINT('Origin',(-2.74999999998913,12.6998653769233,67.5));
#1091=CARTESIAN_POINT('Origin',(1.75000000001087,14.1998653769233,66.9));
#1092=CARTESIAN_POINT('',(2.25000000001087,14.1998653769233,66.9));
#1093=CARTESIAN_POINT('',(1.75000000001087,14.1998653769233,66.4));
#1094=CARTESIAN_POINT('Origin',(1.75000000001087,14.1998653769233,66.9));
#1095=CARTESIAN_POINT('',(2.75000000001087,14.6998653769233,66.9));
#1096=CARTESIAN_POINT('Origin',(2.75000000001087,14.1998653769233,66.9));
#1097=CARTESIAN_POINT('',(1.75000000001087,14.6998653769233,65.9));
#1098=CARTESIAN_POINT('Origin',(1.75000000001087,14.6998653769233,66.9));
#1099=CARTESIAN_POINT('Origin',(1.75000000001087,14.1998653769233,65.9));
#1100=CARTESIAN_POINT('Origin',(2.75000000001089,14.1998653769233,52.));
#1101=CARTESIAN_POINT('',(2.75000000001087,14.6998653769233,68.));
#1102=CARTESIAN_POINT('',(2.75000000001089,14.6998653769233,52.));
#1103=CARTESIAN_POINT('',(2.25000000001087,14.1998653769233,67.5));
#1104=CARTESIAN_POINT('',(2.25000000001089,14.1998653769233,52.));
#1105=CARTESIAN_POINT('Origin',(2.75000000001087,14.1998653769233,67.5));
#1106=CARTESIAN_POINT('Origin',(1.75000000001087,12.6998653769233,66.9));
#1107=CARTESIAN_POINT('',(2.25000000001087,12.6998653769233,66.9));
#1108=CARTESIAN_POINT('Origin',(2.75000000001087,12.6998653769233,66.9));
#1109=CARTESIAN_POINT('',(1.75000000001087,12.6998653769233,66.4));
#1110=CARTESIAN_POINT('Origin',(1.75000000001087,12.6998653769233,66.9));
#1111=CARTESIAN_POINT('Origin',(1.75000000001087,12.6998653769233,65.9));
#1112=CARTESIAN_POINT('Origin',(1.75000000001087,14.6998653769233,66.9));
#1113=CARTESIAN_POINT('',(2.25000000001087,14.6998653769233,66.9));
#1114=CARTESIAN_POINT('',(1.75000000001087,14.6998653769233,66.4));
#1115=CARTESIAN_POINT('Origin',(1.12500000001052,12.6998653769233,65.9));
#1116=CARTESIAN_POINT('',(1.12500000001052,12.6998653769233,66.4));
#1117=CARTESIAN_POINT('Origin',(2.75000000001087,14.6998653769233,67.5));
#1118=CARTESIAN_POINT('',(2.25000000001087,12.6998653769233,67.5));
#1119=CARTESIAN_POINT('',(2.25000000001087,14.6998653769233,67.5));
#1120=CARTESIAN_POINT('Origin',(2.75000000001087,12.6998653769233,67.5));
#1121=CARTESIAN_POINT('',(2.75000000001087,14.6998653769233,68.));
#1122=CARTESIAN_POINT('Origin',(2.75000000001089,12.6998653769233,52.));
#1123=CARTESIAN_POINT('',(2.25000000001089,12.6998653769233,52.));
#1124=CARTESIAN_POINT('Origin',(1.12500000001052,14.1998653769233,65.9));
#1125=CARTESIAN_POINT('',(1.12500000001052,14.1998653769233,66.4));
#1126=CARTESIAN_POINT('',(1.12500000001052,14.6998653769233,65.9));
#1127=CARTESIAN_POINT('Origin',(-2.74999999998913,14.1998653769233,51.1999999999999));
#1128=CARTESIAN_POINT('',(-2.24999999998913,14.1998653769233,67.5));
#1129=CARTESIAN_POINT('',(-2.24999999998913,14.1998653769233,51.1999999999999));
#1130=CARTESIAN_POINT('',(-2.74999999998913,14.6998653769233,68.));
#1131=CARTESIAN_POINT('',(-2.74999999998913,14.6998653769233,51.1999999999999));
#1132=CARTESIAN_POINT('Origin',(-2.74999999998913,14.1998653769233,67.5));
#1133=CARTESIAN_POINT('Origin',(-2.74999999998913,14.6998653769233,67.5));
#1134=CARTESIAN_POINT('',(-2.24999999998913,14.6998653769233,67.5));
#1135=CARTESIAN_POINT('',(-2.74999999998913,14.6998653769233,68.));
#1136=CARTESIAN_POINT('Origin',(1.01740837976649E-11,14.6998653769233,35.9999999999999));
#1137=CARTESIAN_POINT('',(18.7999993405122,14.6998653769233,68.));
#1138=CARTESIAN_POINT('',(16.9999993405122,14.6998653769233,68.));
#1139=CARTESIAN_POINT('',(18.7999993405122,14.6998653769233,47.8555990682125));
#1140=CARTESIAN_POINT('',(18.7999993405122,14.6998653769233,41.919777260118));
#1141=CARTESIAN_POINT('',(13.6235108405365,14.6998653769233,15.8000108231913));
#1142=CARTESIAN_POINT('',(15.0399369463631,14.6998653769233,24.5712796143976));
#1143=CARTESIAN_POINT('',(-13.6235108405155,14.6998653769233,15.8000108231912));
#1144=CARTESIAN_POINT('Origin',(1.05221387158849E-11,14.6998653769233,18.));
#1145=CARTESIAN_POINT('',(-18.7999993404918,14.6998653769233,47.8555990682125));
#1146=CARTESIAN_POINT('',(-17.6294601032831,14.6998653769233,40.6069934134765));
#1147=CARTESIAN_POINT('',(-18.7999993404918,14.6998653769233,68.));
#1148=CARTESIAN_POINT('',(-18.7999993404918,14.6998653769233,52.));
#1149=CARTESIAN_POINT('',(-2.24999999998913,14.6998653769233,68.));
#1150=CARTESIAN_POINT('',(8.40000000001052,14.6998653769233,18.));
#1151=CARTESIAN_POINT('Origin',(1.05221387158849E-11,14.6998653769233,18.));
#1152=CARTESIAN_POINT('',(12.9000000000108,14.6998653769233,48.));
#1153=CARTESIAN_POINT('Origin',(1.07941433569181E-11,14.6998653769233,48.));
#1154=CARTESIAN_POINT('Origin',(18.9999993405122,14.6998653769233,68.));
#1155=CARTESIAN_POINT('',(18.7999993405122,14.282708089398,68.));
#1156=CARTESIAN_POINT('',(18.4835779842749,13.9662867331606,68.));
#1157=CARTESIAN_POINT('',(18.7999993405122,14.6998653769233,68.));
#1158=CARTESIAN_POINT('Origin',(-2.24999999998913,14.6998653769233,66.4));
#1159=CARTESIAN_POINT('Origin',(2.25000000001087,14.6998653769233,68.));
#1160=CARTESIAN_POINT('Origin',(2.25000000001087,14.6998653769233,66.4));
#1161=CARTESIAN_POINT('Origin',(1.07941433569181E-11,14.6998653769233,48.));
#1162=CARTESIAN_POINT('',(12.9000000000108,14.6998653769233,48.));
#1163=CARTESIAN_POINT('Origin',(1.05221387158849E-11,14.6998653769233,18.));
#1164=CARTESIAN_POINT('',(8.40000000001052,14.6998653769233,18.));
#1165=CARTESIAN_POINT('Origin',(17.8585779842749,13.3412867331606,41.919777260118));
#1166=CARTESIAN_POINT('',(18.7999993405122,14.282708089398,47.8555990682125));
#1167=CARTESIAN_POINT('',(18.7999993405122,14.282708089398,44.8796658901771));
#1168=CARTESIAN_POINT('',(17.5087473810459,12.9914561299316,47.9591868382788));
#1169=CARTESIAN_POINT('Origin',(-16.700078650225,13.3412867331606,40.757074340617));
#1170=CARTESIAN_POINT('',(-18.7999993404918,14.282708089398,47.8555990682125));
#1171=CARTESIAN_POINT('',(-13.6235108405155,14.282708089398,15.8000108231912));
#1172=CARTESIAN_POINT('',(-18.2160086288402,14.282708089398,44.2392159174129));
#1173=CARTESIAN_POINT('',(-13.6813403179303,14.3412867331606,15.7906722447659));
#1174=CARTESIAN_POINT('',(-17.6319586995246,13.1146674484307,47.9493024887244));
#1175=CARTESIAN_POINT('Origin',(1.05221387158849E-11,13.3412867331606,18.));
#1176=CARTESIAN_POINT('',(13.6235108405365,14.282708089398,15.8000108231913));
#1177=CARTESIAN_POINT('',(13.6813403179513,14.3412867331606,15.7906722447659));
#1178=CARTESIAN_POINT('Origin',(1.05221387158849E-11,14.282708089398,18.));
#1179=CARTESIAN_POINT('Origin',(14.110555493305,13.3412867331606,24.7213605415381));
#1180=CARTESIAN_POINT('',(14.3317238934498,14.2827080893979,20.1856452187945));
#1181=CARTESIAN_POINT('Origin',(-17.8585779842545,13.3412867331606,52.));
#1182=CARTESIAN_POINT('',(-18.7999993404918,14.282708089398,68.));
#1183=CARTESIAN_POINT('',(-14.2960781491288,9.77878689803497,68.));
#1184=CARTESIAN_POINT('',(-18.7999993404918,14.282708089398,60.));
#1185=CARTESIAN_POINT('Origin',(1.05221387158849E-11,14.6998653769233,18.));
#1186=CARTESIAN_POINT('',(-13.6235108405155,14.6998653769233,15.8000108231912));
#1187=CARTESIAN_POINT('',(13.6235108405365,14.6998653769233,15.8000108231913));
#1188=CARTESIAN_POINT('Origin',(-18.8025571543972,14.6998653769233,47.8714384213493));
#1189=CARTESIAN_POINT('',(-18.7999993404918,14.6998653769233,47.8555990682125));
#1190=CARTESIAN_POINT('Origin',(-18.7999993404918,14.6998653769233,68.));
#1191=CARTESIAN_POINT('',(-18.7999993404918,14.6998653769233,68.));
#1192=CARTESIAN_POINT('Origin',(-2.24999999998913,14.6998653769233,68.));
#1193=CARTESIAN_POINT('Origin',(18.7999993405122,14.6998653769233,47.8395545202361));
#1194=CARTESIAN_POINT('',(18.7999993405122,14.6998653769233,47.8555990682125));
#1195=CARTESIAN_POINT('Origin',(13.6235108405365,14.6998653769233,15.8000108231913));
#1196=UNCERTAINTY_MEASURE_WITH_UNIT(LENGTH_MEASURE(0.01),#1200,
'DISTANCE_ACCURACY_VALUE',
'Maximum model space distance between geometric entities at asserted c
onnectivities');
#1197=UNCERTAINTY_MEASURE_WITH_UNIT(LENGTH_MEASURE(0.01),#1200,
'DISTANCE_ACCURACY_VALUE',
'Maximum model space distance between geometric entities at asserted c
onnectivities');
#1198=(
GEOMETRIC_REPRESENTATION_CONTEXT(3)
GLOBAL_UNCERTAINTY_ASSIGNED_CONTEXT((#1196))
GLOBAL_UNIT_ASSIGNED_CONTEXT((#1200,#1202,#1203))
REPRESENTATION_CONTEXT('','3D')
);
#1199=(
GEOMETRIC_REPRESENTATION_CONTEXT(3)
GLOBAL_UNCERTAINTY_ASSIGNED_CONTEXT((#1197))
GLOBAL_UNIT_ASSIGNED_CONTEXT((#1200,#1202,#1203))
REPRESENTATION_CONTEXT('','3D')
);
#1200=(
LENGTH_UNIT()
NAMED_UNIT(*)
SI_UNIT(.MILLI.,.METRE.)
);
#1201=(
LENGTH_UNIT()
NAMED_UNIT(*)
SI_UNIT($,.METRE.)
);
#1202=(
NAMED_UNIT(*)
PLANE_ANGLE_UNIT()
SI_UNIT($,.RADIAN.)
);
#1203=(
NAMED_UNIT(*)
SI_UNIT($,.STERADIAN.)
SOLID_ANGLE_UNIT()
);
#1204=SHAPE_DEFINITION_REPRESENTATION(#1205,#1206);
#1205=PRODUCT_DEFINITION_SHAPE('',$,#1208);
#1206=SHAPE_REPRESENTATION('',(#694),#1198);
#1207=PRODUCT_DEFINITION_CONTEXT('part definition',#1212,'design');
#1208=PRODUCT_DEFINITION('VOLUME REDUCER BACK','VOLUME REDUCER BACK',#1209,
#1207);
#1209=PRODUCT_DEFINITION_FORMATION('',$,#1214);
#1210=PRODUCT_RELATED_PRODUCT_CATEGORY('VOLUME REDUCER BACK',
'VOLUME REDUCER BACK',(#1214));
#1211=APPLICATION_PROTOCOL_DEFINITION('international standard',
'automotive_design',2009,#1212);
#1212=APPLICATION_CONTEXT(
'Core Data for Automotive Mechanical Design Process');
#1213=PRODUCT_CONTEXT('part definition',#1212,'mechanical');
#1214=PRODUCT('VOLUME REDUCER BACK','VOLUME REDUCER BACK',$,(#1213));
#1215=PRESENTATION_STYLE_ASSIGNMENT((#1216));
#1216=SURFACE_STYLE_USAGE(.BOTH.,#1217);
#1217=SURFACE_SIDE_STYLE('',(#1218));
#1218=SURFACE_STYLE_FILL_AREA(#1219);
#1219=FILL_AREA_STYLE('Steel - Satin',(#1220));
#1220=FILL_AREA_STYLE_COLOUR('Steel - Satin',#1221);
#1221=COLOUR_RGB('Steel - Satin',0.627450980392157,0.627450980392157,0.627450980392157);
ENDSEC;
END-ISO-10303-21;
