ISO-10303-21;
HEADER;
/* Generated by software containing ST-Developer
 * from STEP Tools, Inc. (www.steptools.com) 
 */

FILE_DESCRIPTION(
/* description */ (''),
/* implementation_level */ '2;1');

FILE_NAME(
/* name */ 'ILLUMINATED KNOB.step',
/* time_stamp */ '2026-03-23T18:11:10-05:00',
/* author */ (''),
/* organization */ (''),
/* preprocessor_version */ 'ST-DEVELOPER v20.1',
/* originating_system */ 'Autodesk Translation Framework v14.24.0.0',
/* authorisation */ '');

FILE_SCHEMA (('AUTOMOTIVE_DESIGN { 1 0 10303 214 3 1 1 }'));
ENDSEC;

DATA;
#10=MECHANICAL_DESIGN_GEOMETRIC_PRESENTATION_REPRESENTATION('',(#18,#19,
#20),#587);
#11=SHAPE_REPRESENTATION_RELATIONSHIP('SRR','None',#594,#12);
#12=ADVANCED_BREP_SHAPE_REPRESENTATION('',(#21,#22,#23),#586);
#13=CONICAL_SURFACE('',#356,8.99999999999999,0.785398163397444);
#14=CONICAL_SURFACE('',#364,3.55,0.785398163397447);
#15=CONICAL_SURFACE('',#370,9.10606601717797,0.785398163397447);
#16=CONICAL_SURFACE('',#378,11.,0.785398163397446);
#17=CONICAL_SURFACE('',#382,9.25,0.785398163397447);
#18=STYLED_ITEM('',(#603),#21);
#19=STYLED_ITEM('',(#603),#22);
#20=STYLED_ITEM('',(#603),#23);
#21=MANIFOLD_SOLID_BREP('Knob center',#322);
#22=MANIFOLD_SOLID_BREP('Knob internal ',#323);
#23=MANIFOLD_SOLID_BREP('Knob external',#324);
#24=FACE_BOUND('',#65,.T.);
#25=FACE_BOUND('',#69,.T.);
#26=FACE_BOUND('',#72,.T.);
#27=FACE_BOUND('',#77,.T.);
#28=FACE_BOUND('',#85,.T.);
#29=FACE_BOUND('',#91,.T.);
#30=PLANE('',#341);
#31=PLANE('',#342);
#32=PLANE('',#346);
#33=PLANE('',#347);
#34=PLANE('',#352);
#35=PLANE('',#360);
#36=PLANE('',#374);
#37=PLANE('',#384);
#38=FACE_OUTER_BOUND('',#62,.T.);
#39=FACE_OUTER_BOUND('',#63,.T.);
#40=FACE_OUTER_BOUND('',#64,.T.);
#41=FACE_OUTER_BOUND('',#66,.T.);
#42=FACE_OUTER_BOUND('',#67,.T.);
#43=FACE_OUTER_BOUND('',#68,.T.);
#44=FACE_OUTER_BOUND('',#70,.T.);
#45=FACE_OUTER_BOUND('',#71,.T.);
#46=FACE_OUTER_BOUND('',#73,.T.);
#47=FACE_OUTER_BOUND('',#74,.T.);
#48=FACE_OUTER_BOUND('',#75,.T.);
#49=FACE_OUTER_BOUND('',#76,.T.);
#50=FACE_OUTER_BOUND('',#78,.T.);
#51=FACE_OUTER_BOUND('',#79,.T.);
#52=FACE_OUTER_BOUND('',#80,.T.);
#53=FACE_OUTER_BOUND('',#81,.T.);
#54=FACE_OUTER_BOUND('',#82,.T.);
#55=FACE_OUTER_BOUND('',#83,.T.);
#56=FACE_OUTER_BOUND('',#84,.T.);
#57=FACE_OUTER_BOUND('',#86,.T.);
#58=FACE_OUTER_BOUND('',#87,.T.);
#59=FACE_OUTER_BOUND('',#88,.T.);
#60=FACE_OUTER_BOUND('',#89,.T.);
#61=FACE_OUTER_BOUND('',#90,.T.);
#62=EDGE_LOOP('',(#209,#210,#211,#212));
#63=EDGE_LOOP('',(#213));
#64=EDGE_LOOP('',(#214));
#65=EDGE_LOOP('',(#215));
#66=EDGE_LOOP('',(#216,#217,#218,#219));
#67=EDGE_LOOP('',(#220));
#68=EDGE_LOOP('',(#221));
#69=EDGE_LOOP('',(#222));
#70=EDGE_LOOP('',(#223,#224,#225,#226));
#71=EDGE_LOOP('',(#227));
#72=EDGE_LOOP('',(#228));
#73=EDGE_LOOP('',(#229,#230,#231,#232));
#74=EDGE_LOOP('',(#233,#234,#235,#236));
#75=EDGE_LOOP('',(#237,#238,#239,#240));
#76=EDGE_LOOP('',(#241));
#77=EDGE_LOOP('',(#242));
#78=EDGE_LOOP('',(#243,#244,#245,#246));
#79=EDGE_LOOP('',(#247,#248,#249,#250));
#80=EDGE_LOOP('',(#251,#252,#253,#254));
#81=EDGE_LOOP('',(#255,#256,#257,#258));
#82=EDGE_LOOP('',(#259,#260,#261,#262));
#83=EDGE_LOOP('',(#263,#264,#265,#266));
#84=EDGE_LOOP('',(#267));
#85=EDGE_LOOP('',(#268));
#86=EDGE_LOOP('',(#269,#270,#271,#272));
#87=EDGE_LOOP('',(#273,#274,#275,#276));
#88=EDGE_LOOP('',(#277,#278,#279,#280));
#89=EDGE_LOOP('',(#281,#282,#283,#284));
#90=EDGE_LOOP('',(#285));
#91=EDGE_LOOP('',(#286));
#92=LINE('',#502,#108);
#93=LINE('',#510,#109);
#94=LINE('',#520,#110);
#95=LINE('',#528,#111);
#96=LINE('',#532,#112);
#97=LINE('',#536,#113);
#98=LINE('',#542,#114);
#99=LINE('',#546,#115);
#100=LINE('',#549,#116);
#101=LINE('',#554,#117);
#102=LINE('',#559,#118);
#103=LINE('',#563,#119);
#104=LINE('',#569,#120);
#105=LINE('',#573,#121);
#106=LINE('',#577,#122);
#107=LINE('',#581,#123);
#108=VECTOR('',#391,5.74999999999999);
#109=VECTOR('',#402,3.1);
#110=VECTOR('',#415,5.74999999999999);
#111=VECTOR('',#426,7.74999999999999);
#112=VECTOR('',#431,8.99999999999998);
#113=VECTOR('',#436,10.25);
#114=VECTOR('',#443,4.);
#115=VECTOR('',#448,3.55);
#116=VECTOR('',#453,3.1);
#117=VECTOR('',#458,7.74999999999999);
#118=VECTOR('',#465,8.99999999999999);
#119=VECTOR('',#470,10.25);
#120=VECTOR('',#477,12.25);
#121=VECTOR('',#482,11.);
#122=VECTOR('',#487,9.75);
#123=VECTOR('',#492,9.25);
#124=CIRCLE('',#339,5.59999999999999);
#125=CIRCLE('',#340,5.59999999999999);
#126=CIRCLE('',#343,3.1);
#127=CIRCLE('',#345,3.1);
#128=CIRCLE('',#348,5.74999999999999);
#129=CIRCLE('',#349,3.1);
#130=CIRCLE('',#351,5.74999999999999);
#131=CIRCLE('',#353,7.74999999999999);
#132=CIRCLE('',#355,7.74999999999999);
#133=CIRCLE('',#357,10.25);
#134=CIRCLE('',#359,10.25);
#135=CIRCLE('',#361,3.99999999999999);
#136=CIRCLE('',#363,4.);
#137=CIRCLE('',#365,3.1);
#138=CIRCLE('',#368,7.89999999999999);
#139=CIRCLE('',#369,7.89999999999999);
#140=CIRCLE('',#371,10.4);
#141=CIRCLE('',#373,10.4);
#142=CIRCLE('',#375,12.25);
#143=CIRCLE('',#377,12.25);
#144=CIRCLE('',#379,9.75);
#145=CIRCLE('',#381,9.75);
#146=CIRCLE('',#383,8.75);
#147=VERTEX_POINT('',#499);
#148=VERTEX_POINT('',#501);
#149=VERTEX_POINT('',#506);
#150=VERTEX_POINT('',#509);
#151=VERTEX_POINT('',#514);
#152=VERTEX_POINT('',#516);
#153=VERTEX_POINT('',#519);
#154=VERTEX_POINT('',#523);
#155=VERTEX_POINT('',#526);
#156=VERTEX_POINT('',#530);
#157=VERTEX_POINT('',#534);
#158=VERTEX_POINT('',#538);
#159=VERTEX_POINT('',#541);
#160=VERTEX_POINT('',#545);
#161=VERTEX_POINT('',#551);
#162=VERTEX_POINT('',#553);
#163=VERTEX_POINT('',#557);
#164=VERTEX_POINT('',#561);
#165=VERTEX_POINT('',#565);
#166=VERTEX_POINT('',#568);
#167=VERTEX_POINT('',#572);
#168=VERTEX_POINT('',#576);
#169=VERTEX_POINT('',#580);
#170=EDGE_CURVE('',#147,#147,#124,.T.);
#171=EDGE_CURVE('',#147,#148,#92,.T.);
#172=EDGE_CURVE('',#148,#148,#125,.T.);
#173=EDGE_CURVE('',#149,#149,#126,.T.);
#174=EDGE_CURVE('',#149,#150,#93,.T.);
#175=EDGE_CURVE('',#150,#150,#127,.T.);
#176=EDGE_CURVE('',#151,#151,#128,.T.);
#177=EDGE_CURVE('',#152,#152,#129,.T.);
#178=EDGE_CURVE('',#151,#153,#94,.T.);
#179=EDGE_CURVE('',#153,#153,#130,.T.);
#180=EDGE_CURVE('',#154,#154,#131,.T.);
#181=EDGE_CURVE('',#155,#155,#132,.T.);
#182=EDGE_CURVE('',#155,#154,#95,.T.);
#183=EDGE_CURVE('',#156,#156,#133,.T.);
#184=EDGE_CURVE('',#156,#155,#96,.T.);
#185=EDGE_CURVE('',#157,#157,#134,.T.);
#186=EDGE_CURVE('',#157,#156,#97,.T.);
#187=EDGE_CURVE('',#158,#158,#135,.T.);
#188=EDGE_CURVE('',#158,#159,#98,.T.);
#189=EDGE_CURVE('',#159,#159,#136,.T.);
#190=EDGE_CURVE('',#159,#160,#99,.T.);
#191=EDGE_CURVE('',#160,#160,#137,.T.);
#192=EDGE_CURVE('',#160,#152,#100,.T.);
#193=EDGE_CURVE('',#161,#161,#138,.T.);
#194=EDGE_CURVE('',#161,#162,#101,.T.);
#195=EDGE_CURVE('',#162,#162,#139,.F.);
#196=EDGE_CURVE('',#163,#163,#140,.F.);
#197=EDGE_CURVE('',#163,#161,#102,.T.);
#198=EDGE_CURVE('',#164,#164,#141,.T.);
#199=EDGE_CURVE('',#164,#163,#103,.T.);
#200=EDGE_CURVE('',#165,#165,#142,.T.);
#201=EDGE_CURVE('',#165,#166,#104,.T.);
#202=EDGE_CURVE('',#166,#166,#143,.T.);
#203=EDGE_CURVE('',#166,#167,#105,.T.);
#204=EDGE_CURVE('',#167,#167,#144,.T.);
#205=EDGE_CURVE('',#167,#168,#106,.T.);
#206=EDGE_CURVE('',#168,#168,#145,.T.);
#207=EDGE_CURVE('',#168,#169,#107,.T.);
#208=EDGE_CURVE('',#169,#169,#146,.T.);
#209=ORIENTED_EDGE('',*,*,#170,.F.);
#210=ORIENTED_EDGE('',*,*,#171,.T.);
#211=ORIENTED_EDGE('',*,*,#172,.F.);
#212=ORIENTED_EDGE('',*,*,#171,.F.);
#213=ORIENTED_EDGE('',*,*,#170,.T.);
#214=ORIENTED_EDGE('',*,*,#172,.T.);
#215=ORIENTED_EDGE('',*,*,#173,.F.);
#216=ORIENTED_EDGE('',*,*,#173,.T.);
#217=ORIENTED_EDGE('',*,*,#174,.T.);
#218=ORIENTED_EDGE('',*,*,#175,.F.);
#219=ORIENTED_EDGE('',*,*,#174,.F.);
#220=ORIENTED_EDGE('',*,*,#175,.T.);
#221=ORIENTED_EDGE('',*,*,#176,.F.);
#222=ORIENTED_EDGE('',*,*,#177,.T.);
#223=ORIENTED_EDGE('',*,*,#176,.T.);
#224=ORIENTED_EDGE('',*,*,#178,.T.);
#225=ORIENTED_EDGE('',*,*,#179,.F.);
#226=ORIENTED_EDGE('',*,*,#178,.F.);
#227=ORIENTED_EDGE('',*,*,#180,.F.);
#228=ORIENTED_EDGE('',*,*,#179,.T.);
#229=ORIENTED_EDGE('',*,*,#181,.F.);
#230=ORIENTED_EDGE('',*,*,#182,.T.);
#231=ORIENTED_EDGE('',*,*,#180,.T.);
#232=ORIENTED_EDGE('',*,*,#182,.F.);
#233=ORIENTED_EDGE('',*,*,#183,.F.);
#234=ORIENTED_EDGE('',*,*,#184,.T.);
#235=ORIENTED_EDGE('',*,*,#181,.T.);
#236=ORIENTED_EDGE('',*,*,#184,.F.);
#237=ORIENTED_EDGE('',*,*,#185,.F.);
#238=ORIENTED_EDGE('',*,*,#186,.T.);
#239=ORIENTED_EDGE('',*,*,#183,.T.);
#240=ORIENTED_EDGE('',*,*,#186,.F.);
#241=ORIENTED_EDGE('',*,*,#185,.T.);
#242=ORIENTED_EDGE('',*,*,#187,.F.);
#243=ORIENTED_EDGE('',*,*,#187,.T.);
#244=ORIENTED_EDGE('',*,*,#188,.T.);
#245=ORIENTED_EDGE('',*,*,#189,.F.);
#246=ORIENTED_EDGE('',*,*,#188,.F.);
#247=ORIENTED_EDGE('',*,*,#189,.T.);
#248=ORIENTED_EDGE('',*,*,#190,.T.);
#249=ORIENTED_EDGE('',*,*,#191,.F.);
#250=ORIENTED_EDGE('',*,*,#190,.F.);
#251=ORIENTED_EDGE('',*,*,#191,.T.);
#252=ORIENTED_EDGE('',*,*,#192,.T.);
#253=ORIENTED_EDGE('',*,*,#177,.F.);
#254=ORIENTED_EDGE('',*,*,#192,.F.);
#255=ORIENTED_EDGE('',*,*,#193,.T.);
#256=ORIENTED_EDGE('',*,*,#194,.T.);
#257=ORIENTED_EDGE('',*,*,#195,.F.);
#258=ORIENTED_EDGE('',*,*,#194,.F.);
#259=ORIENTED_EDGE('',*,*,#196,.T.);
#260=ORIENTED_EDGE('',*,*,#197,.T.);
#261=ORIENTED_EDGE('',*,*,#193,.F.);
#262=ORIENTED_EDGE('',*,*,#197,.F.);
#263=ORIENTED_EDGE('',*,*,#198,.T.);
#264=ORIENTED_EDGE('',*,*,#199,.T.);
#265=ORIENTED_EDGE('',*,*,#196,.F.);
#266=ORIENTED_EDGE('',*,*,#199,.F.);
#267=ORIENTED_EDGE('',*,*,#200,.T.);
#268=ORIENTED_EDGE('',*,*,#198,.F.);
#269=ORIENTED_EDGE('',*,*,#200,.F.);
#270=ORIENTED_EDGE('',*,*,#201,.T.);
#271=ORIENTED_EDGE('',*,*,#202,.T.);
#272=ORIENTED_EDGE('',*,*,#201,.F.);
#273=ORIENTED_EDGE('',*,*,#202,.F.);
#274=ORIENTED_EDGE('',*,*,#203,.T.);
#275=ORIENTED_EDGE('',*,*,#204,.T.);
#276=ORIENTED_EDGE('',*,*,#203,.F.);
#277=ORIENTED_EDGE('',*,*,#204,.F.);
#278=ORIENTED_EDGE('',*,*,#205,.T.);
#279=ORIENTED_EDGE('',*,*,#206,.T.);
#280=ORIENTED_EDGE('',*,*,#205,.F.);
#281=ORIENTED_EDGE('',*,*,#206,.F.);
#282=ORIENTED_EDGE('',*,*,#207,.T.);
#283=ORIENTED_EDGE('',*,*,#208,.T.);
#284=ORIENTED_EDGE('',*,*,#207,.F.);
#285=ORIENTED_EDGE('',*,*,#208,.F.);
#286=ORIENTED_EDGE('',*,*,#195,.T.);
#287=CYLINDRICAL_SURFACE('',#338,5.59999999999999);
#288=CYLINDRICAL_SURFACE('',#344,3.1);
#289=CYLINDRICAL_SURFACE('',#350,5.74999999999999);
#290=CYLINDRICAL_SURFACE('',#354,7.74999999999999);
#291=CYLINDRICAL_SURFACE('',#358,10.25);
#292=CYLINDRICAL_SURFACE('',#362,4.);
#293=CYLINDRICAL_SURFACE('',#366,3.1);
#294=CYLINDRICAL_SURFACE('',#367,7.89999999999999);
#295=CYLINDRICAL_SURFACE('',#372,10.4);
#296=CYLINDRICAL_SURFACE('',#376,12.25);
#297=CYLINDRICAL_SURFACE('',#380,9.75);
#298=ADVANCED_FACE('',(#38),#287,.T.);
#299=ADVANCED_FACE('',(#39),#30,.T.);
#300=ADVANCED_FACE('',(#40,#24),#31,.T.);
#301=ADVANCED_FACE('',(#41),#288,.F.);
#302=ADVANCED_FACE('',(#42),#32,.T.);
#303=ADVANCED_FACE('',(#43,#25),#33,.T.);
#304=ADVANCED_FACE('',(#44),#289,.F.);
#305=ADVANCED_FACE('',(#45,#26),#34,.T.);
#306=ADVANCED_FACE('',(#46),#290,.T.);
#307=ADVANCED_FACE('',(#47),#13,.T.);
#308=ADVANCED_FACE('',(#48),#291,.T.);
#309=ADVANCED_FACE('',(#49,#27),#35,.T.);
#310=ADVANCED_FACE('',(#50),#292,.F.);
#311=ADVANCED_FACE('',(#51),#14,.F.);
#312=ADVANCED_FACE('',(#52),#293,.F.);
#313=ADVANCED_FACE('',(#53),#294,.F.);
#314=ADVANCED_FACE('',(#54),#15,.F.);
#315=ADVANCED_FACE('',(#55),#295,.F.);
#316=ADVANCED_FACE('',(#56,#28),#36,.T.);
#317=ADVANCED_FACE('',(#57),#296,.T.);
#318=ADVANCED_FACE('',(#58),#16,.T.);
#319=ADVANCED_FACE('',(#59),#297,.T.);
#320=ADVANCED_FACE('',(#60),#17,.T.);
#321=ADVANCED_FACE('',(#61,#29),#37,.T.);
#322=CLOSED_SHELL('',(#298,#299,#300,#301,#302));
#323=CLOSED_SHELL('',(#303,#304,#305,#306,#307,#308,#309,#310,#311,#312));
#324=CLOSED_SHELL('',(#313,#314,#315,#316,#317,#318,#319,#320,#321));
#325=DERIVED_UNIT_ELEMENT(#327,1.);
#326=DERIVED_UNIT_ELEMENT(#589,-3.);
#327=(
MASS_UNIT()
NAMED_UNIT(*)
SI_UNIT(.KILO.,.GRAM.)
);
#328=DERIVED_UNIT((#325,#326));
#329=MEASURE_REPRESENTATION_ITEM('density measure',
POSITIVE_RATIO_MEASURE(7850.),#328);
#330=PROPERTY_DEFINITION_REPRESENTATION(#335,#332);
#331=PROPERTY_DEFINITION_REPRESENTATION(#336,#333);
#332=REPRESENTATION('material name',(#334),#586);
#333=REPRESENTATION('density',(#329),#586);
#334=DESCRIPTIVE_REPRESENTATION_ITEM('Steel','Steel');
#335=PROPERTY_DEFINITION('material property','material name',#596);
#336=PROPERTY_DEFINITION('material property','density of part',#596);
#337=AXIS2_PLACEMENT_3D('',#497,#385,#386);
#338=AXIS2_PLACEMENT_3D('',#498,#387,#388);
#339=AXIS2_PLACEMENT_3D('',#500,#389,#390);
#340=AXIS2_PLACEMENT_3D('',#503,#392,#393);
#341=AXIS2_PLACEMENT_3D('',#504,#394,#395);
#342=AXIS2_PLACEMENT_3D('',#505,#396,#397);
#343=AXIS2_PLACEMENT_3D('',#507,#398,#399);
#344=AXIS2_PLACEMENT_3D('',#508,#400,#401);
#345=AXIS2_PLACEMENT_3D('',#511,#403,#404);
#346=AXIS2_PLACEMENT_3D('',#512,#405,#406);
#347=AXIS2_PLACEMENT_3D('',#513,#407,#408);
#348=AXIS2_PLACEMENT_3D('',#515,#409,#410);
#349=AXIS2_PLACEMENT_3D('',#517,#411,#412);
#350=AXIS2_PLACEMENT_3D('',#518,#413,#414);
#351=AXIS2_PLACEMENT_3D('',#521,#416,#417);
#352=AXIS2_PLACEMENT_3D('',#522,#418,#419);
#353=AXIS2_PLACEMENT_3D('',#524,#420,#421);
#354=AXIS2_PLACEMENT_3D('',#525,#422,#423);
#355=AXIS2_PLACEMENT_3D('',#527,#424,#425);
#356=AXIS2_PLACEMENT_3D('',#529,#427,#428);
#357=AXIS2_PLACEMENT_3D('',#531,#429,#430);
#358=AXIS2_PLACEMENT_3D('',#533,#432,#433);
#359=AXIS2_PLACEMENT_3D('',#535,#434,#435);
#360=AXIS2_PLACEMENT_3D('',#537,#437,#438);
#361=AXIS2_PLACEMENT_3D('',#539,#439,#440);
#362=AXIS2_PLACEMENT_3D('',#540,#441,#442);
#363=AXIS2_PLACEMENT_3D('',#543,#444,#445);
#364=AXIS2_PLACEMENT_3D('',#544,#446,#447);
#365=AXIS2_PLACEMENT_3D('',#547,#449,#450);
#366=AXIS2_PLACEMENT_3D('',#548,#451,#452);
#367=AXIS2_PLACEMENT_3D('',#550,#454,#455);
#368=AXIS2_PLACEMENT_3D('',#552,#456,#457);
#369=AXIS2_PLACEMENT_3D('',#555,#459,#460);
#370=AXIS2_PLACEMENT_3D('',#556,#461,#462);
#371=AXIS2_PLACEMENT_3D('',#558,#463,#464);
#372=AXIS2_PLACEMENT_3D('',#560,#466,#467);
#373=AXIS2_PLACEMENT_3D('',#562,#468,#469);
#374=AXIS2_PLACEMENT_3D('',#564,#471,#472);
#375=AXIS2_PLACEMENT_3D('',#566,#473,#474);
#376=AXIS2_PLACEMENT_3D('',#567,#475,#476);
#377=AXIS2_PLACEMENT_3D('',#570,#478,#479);
#378=AXIS2_PLACEMENT_3D('',#571,#480,#481);
#379=AXIS2_PLACEMENT_3D('',#574,#483,#484);
#380=AXIS2_PLACEMENT_3D('',#575,#485,#486);
#381=AXIS2_PLACEMENT_3D('',#578,#488,#489);
#382=AXIS2_PLACEMENT_3D('',#579,#490,#491);
#383=AXIS2_PLACEMENT_3D('',#582,#493,#494);
#384=AXIS2_PLACEMENT_3D('',#583,#495,#496);
#385=DIRECTION('axis',(0.,0.,1.));
#386=DIRECTION('refdir',(1.,0.,0.));
#387=DIRECTION('center_axis',(-7.53641240881886E-28,0.984807753012208,-0.17364817766693));
#388=DIRECTION('ref_axis',(1.,-7.16989192032118E-13,-4.06757960647042E-12));
#389=DIRECTION('center_axis',(8.35536455670419E-28,-0.984807753012208,0.17364817766693));
#390=DIRECTION('ref_axis',(1.,-7.16989192032118E-13,-4.06757960647042E-12));
#391=DIRECTION('',(-7.53641240881886E-28,0.984807753012208,-0.17364817766693));
#392=DIRECTION('center_axis',(-8.35536455670419E-28,0.984807753012208,-0.17364817766693));
#393=DIRECTION('ref_axis',(1.,-7.16989192032118E-13,-4.06757960647042E-12));
#394=DIRECTION('center_axis',(8.35536455670419E-28,-0.984807753012208,0.17364817766693));
#395=DIRECTION('ref_axis',(0.,-0.17364817766693,-0.984807753012208));
#396=DIRECTION('center_axis',(-8.35536455670419E-28,0.984807753012208,-0.17364817766693));
#397=DIRECTION('ref_axis',(0.,0.17364817766693,0.984807753012208));
#398=DIRECTION('center_axis',(-8.35536455670419E-28,0.984807753012208,-0.17364817766693));
#399=DIRECTION('ref_axis',(1.,8.2284277946857E-28,-1.45089382901454E-28));
#400=DIRECTION('center_axis',(-8.35536455670419E-28,0.984807753012208,-0.17364817766693));
#401=DIRECTION('ref_axis',(1.,-7.19005469716952E-13,-4.07161583653935E-12));
#402=DIRECTION('',(8.35536455670419E-28,-0.984807753012208,0.17364817766693));
#403=DIRECTION('center_axis',(-8.35536455670419E-28,0.984807753012208,-0.17364817766693));
#404=DIRECTION('ref_axis',(1.,8.2284277946857E-28,-1.45089382901454E-28));
#405=DIRECTION('center_axis',(-8.35536455670419E-28,0.984807753012208,-0.17364817766693));
#406=DIRECTION('ref_axis',(0.,0.17364817766693,0.984807753012208));
#407=DIRECTION('center_axis',(7.53641240881886E-28,-0.984807753012208,0.17364817766693));
#408=DIRECTION('ref_axis',(0.,-0.17364817766693,-0.984807753012208));
#409=DIRECTION('center_axis',(-7.53641240881886E-28,0.984807753012208,-0.17364817766693));
#410=DIRECTION('ref_axis',(1.,7.42191737010222E-28,-1.30868428093783E-28));
#411=DIRECTION('center_axis',(-7.53641240881886E-28,0.984807753012208,-0.17364817766693));
#412=DIRECTION('ref_axis',(1.,7.42191737010222E-28,-1.30868428093783E-28));
#413=DIRECTION('center_axis',(-7.53641240881886E-28,0.984807753012208,-0.17364817766693));
#414=DIRECTION('ref_axis',(1.,-7.16989192032118E-13,-4.06757960647042E-12));
#415=DIRECTION('',(7.53641240881886E-28,-0.984807753012208,0.17364817766693));
#416=DIRECTION('center_axis',(-7.53641240881886E-28,0.984807753012208,-0.17364817766693));
#417=DIRECTION('ref_axis',(1.,7.42191737010222E-28,-1.30868428093783E-28));
#418=DIRECTION('center_axis',(7.53641240881886E-28,-0.984807753012208,0.17364817766693));
#419=DIRECTION('ref_axis',(0.,-0.17364817766693,-0.984807753012208));
#420=DIRECTION('center_axis',(-7.53641240881886E-28,0.984807753012208,-0.17364817766693));
#421=DIRECTION('ref_axis',(1.,7.42191737010222E-28,-1.30868428093783E-28));
#422=DIRECTION('center_axis',(-7.53641240881886E-28,0.984807753012208,-0.17364817766693));
#423=DIRECTION('ref_axis',(1.,-7.16989192032118E-13,-4.06757960647042E-12));
#424=DIRECTION('center_axis',(-7.53641240881886E-28,0.984807753012208,-0.17364817766693));
#425=DIRECTION('ref_axis',(1.,7.42191737010222E-28,-1.30868428093783E-28));
#426=DIRECTION('',(7.53641240881886E-28,-0.984807753012208,0.17364817766693));
#427=DIRECTION('center_axis',(-7.53641240881886E-28,0.984807753012208,-0.17364817766693));
#428=DIRECTION('ref_axis',(1.,-7.16989192032118E-13,-4.06757960647042E-12));
#429=DIRECTION('center_axis',(-7.53641240881886E-28,0.984807753012208,-0.17364817766693));
#430=DIRECTION('ref_axis',(1.,7.42191737010222E-28,-1.30868428093783E-28));
#431=DIRECTION('',(0.707106781186545,-0.696364240320529,0.122787803966097));
#432=DIRECTION('center_axis',(-7.53641240881886E-28,0.984807753012208,-0.17364817766693));
#433=DIRECTION('ref_axis',(1.,-7.16989192032118E-13,-4.06757960647042E-12));
#434=DIRECTION('center_axis',(-7.53641240881886E-28,0.984807753012208,-0.17364817766693));
#435=DIRECTION('ref_axis',(1.,7.42191737010222E-28,-1.30868428093783E-28));
#436=DIRECTION('',(7.53641240881886E-28,-0.984807753012208,0.17364817766693));
#437=DIRECTION('center_axis',(-7.53641240881886E-28,0.984807753012208,-0.17364817766693));
#438=DIRECTION('ref_axis',(0.,0.17364817766693,0.984807753012208));
#439=DIRECTION('center_axis',(-7.53641240881886E-28,0.984807753012208,-0.17364817766693));
#440=DIRECTION('ref_axis',(1.,7.42191737010222E-28,-1.30868428093783E-28));
#441=DIRECTION('center_axis',(-7.53641240881886E-28,0.984807753012208,-0.17364817766693));
#442=DIRECTION('ref_axis',(1.,-7.16989192032118E-13,-4.06757960647042E-12));
#443=DIRECTION('',(7.53641240881886E-28,-0.984807753012208,0.17364817766693));
#444=DIRECTION('center_axis',(-7.53641240881886E-28,0.984807753012208,-0.17364817766693));
#445=DIRECTION('ref_axis',(1.,7.42191737010222E-28,-1.30868428093783E-28));
#446=DIRECTION('center_axis',(-7.53641240881886E-28,0.984807753012208,-0.17364817766693));
#447=DIRECTION('ref_axis',(1.,-7.16989192032118E-13,-4.06757960647042E-12));
#448=DIRECTION('',(0.707106781186546,-0.696364240320527,0.122787803966097));
#449=DIRECTION('center_axis',(-7.53641240881886E-28,0.984807753012208,-0.17364817766693));
#450=DIRECTION('ref_axis',(1.,7.42191737010222E-28,-1.30868428093783E-28));
#451=DIRECTION('center_axis',(-7.53641240881886E-28,0.984807753012208,-0.17364817766693));
#452=DIRECTION('ref_axis',(1.,-7.16989192032118E-13,-4.06757960647042E-12));
#453=DIRECTION('',(7.53641240881886E-28,-0.984807753012208,0.17364817766693));
#454=DIRECTION('center_axis',(-8.35536455670419E-28,0.984807753012208,-0.17364817766693));
#455=DIRECTION('ref_axis',(1.,-7.19005469716952E-13,-4.07161583653935E-12));
#456=DIRECTION('center_axis',(-8.35536455670419E-28,0.984807753012208,-0.17364817766693));
#457=DIRECTION('ref_axis',(1.,-7.19005469716952E-13,-4.07161583653935E-12));
#458=DIRECTION('',(8.35536455670419E-28,-0.984807753012208,0.17364817766693));
#459=DIRECTION('center_axis',(8.35536455670419E-28,-0.984807753012208,0.17364817766693));
#460=DIRECTION('ref_axis',(1.,-7.19005469716952E-13,-4.07161583653935E-12));
#461=DIRECTION('center_axis',(-8.35536455670419E-28,0.984807753012208,-0.17364817766693));
#462=DIRECTION('ref_axis',(1.,-7.19005469716952E-13,-4.07161583653935E-12));
#463=DIRECTION('center_axis',(8.35536455670419E-28,-0.984807753012208,0.17364817766693));
#464=DIRECTION('ref_axis',(1.,-7.19005469716953E-13,-4.07161583653935E-12));
#465=DIRECTION('',(0.707106781186546,-0.696364240320528,0.122787803966094));
#466=DIRECTION('center_axis',(-8.35536455670419E-28,0.984807753012208,-0.17364817766693));
#467=DIRECTION('ref_axis',(1.,-7.19005469716953E-13,-4.07161583653935E-12));
#468=DIRECTION('center_axis',(-8.35536455670419E-28,0.984807753012208,-0.17364817766693));
#469=DIRECTION('ref_axis',(1.,-7.19005469716953E-13,-4.07161583653935E-12));
#470=DIRECTION('',(8.35536455670419E-28,-0.984807753012208,0.17364817766693));
#471=DIRECTION('center_axis',(-8.35536455670419E-28,0.984807753012208,-0.17364817766693));
#472=DIRECTION('ref_axis',(0.,0.17364817766693,0.984807753012208));
#473=DIRECTION('center_axis',(-8.35536455670419E-28,0.984807753012208,-0.17364817766693));
#474=DIRECTION('ref_axis',(1.,8.2284277946857E-28,-1.45089382901454E-28));
#475=DIRECTION('center_axis',(-8.35536455670419E-28,0.984807753012208,-0.17364817766693));
#476=DIRECTION('ref_axis',(1.,-7.19005469716952E-13,-4.07161583653935E-12));
#477=DIRECTION('',(8.35536455670419E-28,-0.984807753012208,0.17364817766693));
#478=DIRECTION('center_axis',(-8.35536455670419E-28,0.984807753012208,-0.17364817766693));
#479=DIRECTION('ref_axis',(1.,8.2284277946857E-28,-1.45089382901454E-28));
#480=DIRECTION('center_axis',(-8.35536455670419E-28,0.984807753012208,-0.17364817766693));
#481=DIRECTION('ref_axis',(1.,-7.19005469716952E-13,-4.07161583653935E-12));
#482=DIRECTION('',(0.707106781186546,-0.696364240320528,0.122787803966094));
#483=DIRECTION('center_axis',(-8.35536455670419E-28,0.984807753012208,-0.17364817766693));
#484=DIRECTION('ref_axis',(1.,8.2284277946857E-28,-1.45089382901454E-28));
#485=DIRECTION('center_axis',(-8.35536455670419E-28,0.984807753012208,-0.17364817766693));
#486=DIRECTION('ref_axis',(1.,-7.19005469716952E-13,-4.07161583653935E-12));
#487=DIRECTION('',(8.35536455670419E-28,-0.984807753012208,0.17364817766693));
#488=DIRECTION('center_axis',(-8.35536455670419E-28,0.984807753012208,-0.17364817766693));
#489=DIRECTION('ref_axis',(1.,8.2284277946857E-28,-1.45089382901454E-28));
#490=DIRECTION('center_axis',(-8.35536455670419E-28,0.984807753012208,-0.17364817766693));
#491=DIRECTION('ref_axis',(1.,-7.19005469716952E-13,-4.07161583653935E-12));
#492=DIRECTION('',(0.707106781186546,-0.696364240320528,0.122787803966094));
#493=DIRECTION('center_axis',(-8.35536455670419E-28,0.984807753012208,-0.17364817766693));
#494=DIRECTION('ref_axis',(1.,8.2284277946857E-28,-1.45089382901454E-28));
#495=DIRECTION('center_axis',(8.35536455670419E-28,-0.984807753012208,0.17364817766693));
#496=DIRECTION('ref_axis',(0.,-0.17364817766693,-0.984807753012208));
#497=CARTESIAN_POINT('',(0.,0.,0.));
#498=CARTESIAN_POINT('Origin',(40.2999979744764,-53.7541738111899,29.9664073519505));
#499=CARTESIAN_POINT('',(34.6999979744764,-54.738981564198,30.1400555296403));
#500=CARTESIAN_POINT('Origin',(40.2999979744764,-54.7389815642021,30.1400555296175));
#501=CARTESIAN_POINT('',(34.6999979744764,-52.7693660581736,29.7927591743064));
#502=CARTESIAN_POINT('',(34.6999979744764,-53.7541738111858,29.9664073519733));
#503=CARTESIAN_POINT('Origin',(40.2999979744764,-52.7693660581776,29.7927591742836));
#504=CARTESIAN_POINT('Origin',(49.0499979744764,-54.7389815642083,30.1400555295819));
#505=CARTESIAN_POINT('Origin',(43.3999979744764,-52.7693660581799,29.792759174271));
#506=CARTESIAN_POINT('',(37.1999979744763,-52.7693660581754,29.7927591742962));
#507=CARTESIAN_POINT('Origin',(40.2999979744764,-52.7693660581776,29.7927591742836));
#508=CARTESIAN_POINT('Origin',(40.2999979744764,-53.2617699346837,29.8795832631171));
#509=CARTESIAN_POINT('',(37.1999979744763,-53.7541738111876,29.9664073519632));
#510=CARTESIAN_POINT('',(37.1999979744763,-53.2617699346815,29.8795832631297));
#511=CARTESIAN_POINT('Origin',(40.2999979744764,-53.7541738111898,29.9664073519506));
#512=CARTESIAN_POINT('Origin',(40.2999979744764,-53.7541738111899,29.9664073519505));
#513=CARTESIAN_POINT('Origin',(46.0499979744763,-52.7693660581818,29.7927591742602));
#514=CARTESIAN_POINT('',(34.5499979744764,-52.7693660581735,29.792759174307));
#515=CARTESIAN_POINT('Origin',(40.2999979744764,-52.7693660581776,29.7927591742836));
#516=CARTESIAN_POINT('',(37.1999979744764,-52.7693660581754,29.7927591742962));
#517=CARTESIAN_POINT('Origin',(40.2999979744764,-52.7693660581776,29.7927591742836));
#518=CARTESIAN_POINT('Origin',(40.2999979744764,-53.7541738111899,29.9664073519505));
#519=CARTESIAN_POINT('',(34.5499979744764,-54.7389815641979,30.1400555296409));
#520=CARTESIAN_POINT('',(34.5499979744764,-53.7541738111857,29.9664073519739));
#521=CARTESIAN_POINT('Origin',(40.2999979744764,-54.7389815642021,30.1400555296175));
#522=CARTESIAN_POINT('Origin',(48.0499979744763,-54.7389815642076,30.140055529586));
#523=CARTESIAN_POINT('',(32.5499979744764,-54.7389815641965,30.140055529649));
#524=CARTESIAN_POINT('Origin',(40.2999979744764,-54.7389815642021,30.1400555296175));
#525=CARTESIAN_POINT('Origin',(40.2999979744764,-49.4070220715132,29.1998872110118));
#526=CARTESIAN_POINT('',(32.5499979744764,-44.0750625788188,28.2597188924377));
#527=CARTESIAN_POINT('Origin',(40.2999979744764,-44.0750625788243,28.2597188924061));
#528=CARTESIAN_POINT('',(32.5499979744764,-49.4070220715076,29.1998872110433));
#529=CARTESIAN_POINT('Origin',(40.2999979744764,-42.8440528875591,28.0426586703225));
#530=CARTESIAN_POINT('',(30.0499979744764,-41.6130431962865,27.8255984482805));
#531=CARTESIAN_POINT('Origin',(40.2999979744764,-41.6130431962938,27.8255984482388));
#532=CARTESIAN_POINT('',(31.2999979744764,-42.8440528875526,28.0426586703591));
#533=CARTESIAN_POINT('Origin',(40.2999979744764,-41.2823581091625,27.7672897452596));
#534=CARTESIAN_POINT('',(30.0499979744764,-40.9516730220238,27.7089810423221));
#535=CARTESIAN_POINT('Origin',(40.2999979744764,-40.9516730220311,27.7089810422805));
#536=CARTESIAN_POINT('',(30.0499979744764,-41.2823581091552,27.7672897453013));
#537=CARTESIAN_POINT('Origin',(44.2999979744763,-40.951673022034,27.7089810422642));
#538=CARTESIAN_POINT('',(36.2999979744763,-40.9516730220283,27.7089810422967));
#539=CARTESIAN_POINT('Origin',(40.2999979744764,-40.9516730220311,27.7089810422804));
#540=CARTESIAN_POINT('Origin',(40.2999979744764,-42.4288846515494,27.9694533087808));
#541=CARTESIAN_POINT('',(36.2999979744763,-43.9060962810649,28.2299255752975));
#542=CARTESIAN_POINT('',(36.2999979744763,-42.4288846515466,27.9694533087971));
#543=CARTESIAN_POINT('Origin',(40.2999979744764,-43.9060962810678,28.2299255752812));
#544=CARTESIAN_POINT('Origin',(40.2999979744764,-44.3492597699232,28.3080672552314));
#545=CARTESIAN_POINT('',(37.1999979744764,-44.7924232587765,28.3862089351941));
#546=CARTESIAN_POINT('',(36.7499979744763,-44.3492597699207,28.3080672552458));
#547=CARTESIAN_POINT('Origin',(40.2999979744764,-44.7924232587788,28.3862089351815));
#548=CARTESIAN_POINT('Origin',(40.2999979744764,-48.7808946584782,29.0894840547325));
#549=CARTESIAN_POINT('',(37.1999979744764,-48.780894658476,29.0894840547452));
#550=CARTESIAN_POINT('Origin',(40.2999979744764,-48.422214318501,29.0262390333449));
#551=CARTESIAN_POINT('',(32.3999979744764,-44.1362506879628,28.270508006979));
#552=CARTESIAN_POINT('Origin',(40.2999979744764,-44.1362506879685,28.2705080069468));
#553=CARTESIAN_POINT('',(32.3999979744764,-54.7389815641964,30.1400555296497));
#554=CARTESIAN_POINT('',(32.3999979744764,-48.4222143184953,29.0262390333771));
#555=CARTESIAN_POINT('Origin',(40.2999979744764,-54.7389815642021,30.1400555296175));
#556=CARTESIAN_POINT('Origin',(40.2999979744764,-42.9485075236071,28.0610768409178));
#557=CARTESIAN_POINT('',(29.8999979744764,-41.6742313054305,27.8363875628218));
#558=CARTESIAN_POINT('Origin',(40.2999979744764,-41.674231305438,27.8363875627795));
#559=CARTESIAN_POINT('',(31.1939319572984,-42.9485075236005,28.0610768409549));
#560=CARTESIAN_POINT('Origin',(40.2999979744764,-41.2823581091625,27.7672897452596));
#561=CARTESIAN_POINT('',(29.8999979744764,-40.9516730220237,27.7089810423228));
#562=CARTESIAN_POINT('Origin',(40.2999979744764,-40.9516730220311,27.7089810422805));
#563=CARTESIAN_POINT('',(29.8999979744764,-41.282358109155,27.767289745302));
#564=CARTESIAN_POINT('Origin',(50.5499979744763,-40.9516730220385,27.7089810422388));
#565=CARTESIAN_POINT('',(28.0499979744764,-40.9516730220223,27.7089810423303));
#566=CARTESIAN_POINT('Origin',(40.2999979744764,-40.9516730220311,27.7089810422805));
#567=CARTESIAN_POINT('Origin',(40.2999979744764,-41.6902788367903,27.8392171755307));
#568=CARTESIAN_POINT('',(28.0499979744764,-42.4288846515407,27.9694533088307));
#569=CARTESIAN_POINT('',(28.0499979744764,-41.6902788367815,27.8392171755805));
#570=CARTESIAN_POINT('Origin',(40.2999979744764,-42.4288846515495,27.9694533087809));
#571=CARTESIAN_POINT('Origin',(40.2999979744764,-43.6598943428147,28.1865135308645));
#572=CARTESIAN_POINT('',(30.5499979744764,-44.890904034073,28.4035737529879));
#573=CARTESIAN_POINT('',(29.2999979744764,-43.6598943428068,28.1865135309093));
#574=CARTESIAN_POINT('Origin',(40.2999979744764,-44.89090403408,28.4035737529482));
#575=CARTESIAN_POINT('Origin',(40.2999979744764,-49.3225389226349,29.1849905524494));
#576=CARTESIAN_POINT('',(30.5499979744764,-53.7541738111829,29.9664073519903));
#577=CARTESIAN_POINT('',(30.5499979744764,-49.3225389226279,29.1849905524891));
#578=CARTESIAN_POINT('Origin',(40.2999979744764,-53.7541738111899,29.9664073519506));
#579=CARTESIAN_POINT('Origin',(40.2999979744764,-54.2465776876959,30.053231440784));
#580=CARTESIAN_POINT('',(31.5499979744764,-54.7389815641958,30.1400555296531));
#581=CARTESIAN_POINT('',(31.0499979744764,-54.2465776876893,30.0532314408217));
#582=CARTESIAN_POINT('Origin',(40.2999979744764,-54.738981564202,30.1400555296175));
#583=CARTESIAN_POINT('Origin',(49.0499979744764,-54.7389815642083,30.1400555295819));
#584=UNCERTAINTY_MEASURE_WITH_UNIT(LENGTH_MEASURE(0.01),#588,
'DISTANCE_ACCURACY_VALUE',
'Maximum model space distance between geometric entities at asserted c
onnectivities');
#585=UNCERTAINTY_MEASURE_WITH_UNIT(LENGTH_MEASURE(0.01),#588,
'DISTANCE_ACCURACY_VALUE',
'Maximum model space distance between geometric entities at asserted c
onnectivities');
#586=(
GEOMETRIC_REPRESENTATION_CONTEXT(3)
GLOBAL_UNCERTAINTY_ASSIGNED_CONTEXT((#584))
GLOBAL_UNIT_ASSIGNED_CONTEXT((#588,#590,#591))
REPRESENTATION_CONTEXT('','3D')
);
#587=(
GEOMETRIC_REPRESENTATION_CONTEXT(3)
GLOBAL_UNCERTAINTY_ASSIGNED_CONTEXT((#585))
GLOBAL_UNIT_ASSIGNED_CONTEXT((#588,#590,#591))
REPRESENTATION_CONTEXT('','3D')
);
#588=(
LENGTH_UNIT()
NAMED_UNIT(*)
SI_UNIT(.MILLI.,.METRE.)
);
#589=(
LENGTH_UNIT()
NAMED_UNIT(*)
SI_UNIT($,.METRE.)
);
#590=(
NAMED_UNIT(*)
PLANE_ANGLE_UNIT()
SI_UNIT($,.RADIAN.)
);
#591=(
NAMED_UNIT(*)
SI_UNIT($,.STERADIAN.)
SOLID_ANGLE_UNIT()
);
#592=SHAPE_DEFINITION_REPRESENTATION(#593,#594);
#593=PRODUCT_DEFINITION_SHAPE('',$,#596);
#594=SHAPE_REPRESENTATION('',(#337),#586);
#595=PRODUCT_DEFINITION_CONTEXT('part definition',#600,'design');
#596=PRODUCT_DEFINITION('ILLUMINATED KNOB','ILLUMINATED KNOB',#597,#595);
#597=PRODUCT_DEFINITION_FORMATION('',$,#602);
#598=PRODUCT_RELATED_PRODUCT_CATEGORY('ILLUMINATED KNOB',
'ILLUMINATED KNOB',(#602));
#599=APPLICATION_PROTOCOL_DEFINITION('international standard',
'automotive_design',2009,#600);
#600=APPLICATION_CONTEXT(
'Core Data for Automotive Mechanical Design Process');
#601=PRODUCT_CONTEXT('part definition',#600,'mechanical');
#602=PRODUCT('ILLUMINATED KNOB','ILLUMINATED KNOB',$,(#601));
#603=PRESENTATION_STYLE_ASSIGNMENT((#604));
#604=SURFACE_STYLE_USAGE(.BOTH.,#605);
#605=SURFACE_SIDE_STYLE('',(#606));
#606=SURFACE_STYLE_FILL_AREA(#607);
#607=FILL_AREA_STYLE('Steel - Satin',(#608));
#608=FILL_AREA_STYLE_COLOUR('Steel - Satin',#609);
#609=COLOUR_RGB('Steel - Satin',0.627450980392157,0.627450980392157,0.627450980392157);
ENDSEC;
END-ISO-10303-21;
