ISO-10303-21;
HEADER;
/* Generated by software containing ST-Developer
 * from STEP Tools, Inc. (www.steptools.com) 
 */

FILE_DESCRIPTION(
/* description */ (''),
/* implementation_level */ '2;1');

FILE_NAME(
/* name */ 'piston v10.step',
/* time_stamp */ '2026-04-05T11:36:03-05:00',
/* author */ (''),
/* organization */ (''),
/* preprocessor_version */ 'ST-DEVELOPER v20.1',
/* originating_system */ 'Autodesk Translation Framework v14.24.0.0',
/* authorisation */ '');

FILE_SCHEMA (('AUTOMOTIVE_DESIGN { 1 0 10303 214 3 1 1 }'));
ENDSEC;

DATA;
#10=MECHANICAL_DESIGN_GEOMETRIC_PRESENTATION_REPRESENTATION('',(#13),#770);
#11=SHAPE_REPRESENTATION_RELATIONSHIP('SRR','None',#780,#12);
#12=ADVANCED_BREP_SHAPE_REPRESENTATION('',(#14),#769);
#13=STYLED_ITEM('',(#791),#14);
#14=MANIFOLD_SOLID_BREP('Body13',#421);
#15=TOROIDAL_SURFACE('',#442,2.57656509085125,0.025);
#16=TOROIDAL_SURFACE('',#455,3.5925,0.05);
#17=TOROIDAL_SURFACE('',#464,3.5925,0.05);
#18=TOROIDAL_SURFACE('',#469,3.6375,0.05);
#19=TOROIDAL_SURFACE('',#474,3.4375,0.25);
#20=TOROIDAL_SURFACE('',#481,2.80017188860123,0.25);
#21=CYLINDRICAL_SURFACE('',#440,0.225);
#22=CYLINDRICAL_SURFACE('',#460,3.5425);
#23=CYLINDRICAL_SURFACE('',#473,3.6875);
#24=CYLINDRICAL_SURFACE('',#480,3.6875);
#25=CYLINDRICAL_SURFACE('',#485,3.29);
#26=CYLINDRICAL_SURFACE('',#495,0.225);
#27=CYLINDRICAL_SURFACE('',#496,0.49);
#28=CYLINDRICAL_SURFACE('',#497,0.225);
#29=CYLINDRICAL_SURFACE('',#498,0.225);
#30=CYLINDRICAL_SURFACE('',#499,0.225);
#31=CYLINDRICAL_SURFACE('',#500,0.225);
#32=CYLINDRICAL_SURFACE('',#501,0.225);
#33=FACE_BOUND('',#87,.T.);
#34=FACE_BOUND('',#91,.T.);
#35=FACE_BOUND('',#92,.T.);
#36=FACE_BOUND('',#93,.T.);
#37=FACE_BOUND('',#94,.T.);
#38=FACE_BOUND('',#95,.T.);
#39=FACE_BOUND('',#96,.T.);
#40=FACE_BOUND('',#97,.T.);
#41=FACE_BOUND('',#101,.T.);
#42=FACE_BOUND('',#104,.T.);
#43=FACE_BOUND('',#109,.T.);
#44=FACE_BOUND('',#113,.T.);
#45=FACE_BOUND('',#116,.T.);
#46=FACE_BOUND('',#117,.T.);
#47=FACE_BOUND('',#118,.T.);
#48=FACE_BOUND('',#119,.T.);
#49=FACE_BOUND('',#120,.T.);
#50=FACE_BOUND('',#121,.T.);
#51=FACE_BOUND('',#122,.T.);
#52=PLANE('',#438);
#53=PLANE('',#447);
#54=PLANE('',#462);
#55=PLANE('',#467);
#56=PLANE('',#478);
#57=PLANE('',#483);
#58=PLANE('',#487);
#59=FACE_OUTER_BOUND('',#85,.T.);
#60=FACE_OUTER_BOUND('',#86,.T.);
#61=FACE_OUTER_BOUND('',#88,.T.);
#62=FACE_OUTER_BOUND('',#89,.T.);
#63=FACE_OUTER_BOUND('',#90,.T.);
#64=FACE_OUTER_BOUND('',#98,.T.);
#65=FACE_OUTER_BOUND('',#99,.T.);
#66=FACE_OUTER_BOUND('',#100,.T.);
#67=FACE_OUTER_BOUND('',#102,.T.);
#68=FACE_OUTER_BOUND('',#103,.T.);
#69=FACE_OUTER_BOUND('',#105,.T.);
#70=FACE_OUTER_BOUND('',#106,.T.);
#71=FACE_OUTER_BOUND('',#107,.T.);
#72=FACE_OUTER_BOUND('',#108,.T.);
#73=FACE_OUTER_BOUND('',#110,.T.);
#74=FACE_OUTER_BOUND('',#111,.T.);
#75=FACE_OUTER_BOUND('',#112,.T.);
#76=FACE_OUTER_BOUND('',#114,.T.);
#77=FACE_OUTER_BOUND('',#115,.T.);
#78=FACE_OUTER_BOUND('',#123,.T.);
#79=FACE_OUTER_BOUND('',#124,.T.);
#80=FACE_OUTER_BOUND('',#125,.T.);
#81=FACE_OUTER_BOUND('',#126,.T.);
#82=FACE_OUTER_BOUND('',#127,.T.);
#83=FACE_OUTER_BOUND('',#128,.T.);
#84=FACE_OUTER_BOUND('',#129,.T.);
#85=EDGE_LOOP('',(#286,#287,#288,#289));
#86=EDGE_LOOP('',(#290));
#87=EDGE_LOOP('',(#291));
#88=EDGE_LOOP('',(#292,#293,#294,#295));
#89=EDGE_LOOP('',(#296,#297,#298,#299,#300));
#90=EDGE_LOOP('',(#301));
#91=EDGE_LOOP('',(#302));
#92=EDGE_LOOP('',(#303));
#93=EDGE_LOOP('',(#304));
#94=EDGE_LOOP('',(#305));
#95=EDGE_LOOP('',(#306));
#96=EDGE_LOOP('',(#307));
#97=EDGE_LOOP('',(#308));
#98=EDGE_LOOP('',(#309,#310,#311,#312,#313));
#99=EDGE_LOOP('',(#314,#315,#316,#317,#318));
#100=EDGE_LOOP('',(#319));
#101=EDGE_LOOP('',(#320));
#102=EDGE_LOOP('',(#321,#322,#323,#324));
#103=EDGE_LOOP('',(#325));
#104=EDGE_LOOP('',(#326));
#105=EDGE_LOOP('',(#327,#328,#329,#330,#331));
#106=EDGE_LOOP('',(#332,#333,#334,#335,#336));
#107=EDGE_LOOP('',(#337,#338,#339,#340));
#108=EDGE_LOOP('',(#341));
#109=EDGE_LOOP('',(#342));
#110=EDGE_LOOP('',(#343,#344,#345,#346));
#111=EDGE_LOOP('',(#347,#348,#349,#350,#351));
#112=EDGE_LOOP('',(#352));
#113=EDGE_LOOP('',(#353));
#114=EDGE_LOOP('',(#354,#355,#356,#357));
#115=EDGE_LOOP('',(#358));
#116=EDGE_LOOP('',(#359));
#117=EDGE_LOOP('',(#360));
#118=EDGE_LOOP('',(#361));
#119=EDGE_LOOP('',(#362));
#120=EDGE_LOOP('',(#363));
#121=EDGE_LOOP('',(#364));
#122=EDGE_LOOP('',(#365));
#123=EDGE_LOOP('',(#366,#367,#368,#369));
#124=EDGE_LOOP('',(#370,#371,#372,#373));
#125=EDGE_LOOP('',(#374,#375,#376,#377));
#126=EDGE_LOOP('',(#378,#379,#380,#381));
#127=EDGE_LOOP('',(#382,#383,#384,#385));
#128=EDGE_LOOP('',(#386,#387,#388,#389));
#129=EDGE_LOOP('',(#390,#391,#392,#393));
#130=LINE('',#656,#143);
#131=LINE('',#664,#144);
#132=LINE('',#699,#145);
#133=LINE('',#717,#146);
#134=LINE('',#728,#147);
#135=LINE('',#737,#148);
#136=LINE('',#754,#149);
#137=LINE('',#756,#150);
#138=LINE('',#758,#151);
#139=LINE('',#760,#152);
#140=LINE('',#762,#153);
#141=LINE('',#764,#154);
#142=LINE('',#766,#155);
#143=VECTOR('',#508,0.475);
#144=VECTOR('',#519,0.225);
#145=VECTOR('',#560,3.5425);
#146=VECTOR('',#585,3.6875);
#147=VECTOR('',#600,3.6875);
#148=VECTOR('',#613,3.25);
#149=VECTOR('',#632,0.225);
#150=VECTOR('',#635,0.49);
#151=VECTOR('',#638,0.225);
#152=VECTOR('',#641,0.225);
#153=VECTOR('',#644,0.225);
#154=VECTOR('',#647,0.225);
#155=VECTOR('',#650,0.225);
#156=CIRCLE('',#436,0.725);
#157=CIRCLE('',#437,0.225);
#158=CIRCLE('',#439,3.6375);
#159=CIRCLE('',#441,0.225);
#160=CIRCLE('',#443,2.57656509085125);
#161=CIRCLE('',#444,0.025);
#162=CIRCLE('',#445,2.55171989110125);
#163=CIRCLE('',#446,2.55171989110125);
#164=CIRCLE('',#448,3.29);
#165=CIRCLE('',#449,0.225);
#166=CIRCLE('',#450,0.225);
#167=CIRCLE('',#451,0.225);
#168=CIRCLE('',#452,0.225);
#169=CIRCLE('',#453,0.225);
#170=CIRCLE('',#454,0.225);
#171=CIRCLE('',#456,3.5925);
#172=CIRCLE('',#457,0.05);
#173=CIRCLE('',#458,3.5425);
#174=CIRCLE('',#459,3.5425);
#175=CIRCLE('',#461,3.5425);
#176=CIRCLE('',#463,3.6875);
#177=CIRCLE('',#465,3.5925);
#178=CIRCLE('',#466,0.05);
#179=CIRCLE('',#468,3.6875);
#180=CIRCLE('',#470,0.05);
#181=CIRCLE('',#471,3.6875);
#182=CIRCLE('',#472,3.6875);
#183=CIRCLE('',#475,3.4375);
#184=CIRCLE('',#476,0.25);
#185=CIRCLE('',#477,3.6875);
#186=CIRCLE('',#479,2.80017188860123);
#187=CIRCLE('',#482,0.25);
#188=CIRCLE('',#484,0.49);
#189=CIRCLE('',#486,3.29);
#190=CIRCLE('',#488,0.225);
#191=CIRCLE('',#489,0.225);
#192=CIRCLE('',#490,0.225);
#193=CIRCLE('',#491,0.225);
#194=CIRCLE('',#492,0.225);
#195=CIRCLE('',#493,0.49);
#196=CIRCLE('',#494,0.225);
#197=VERTEX_POINT('',#653);
#198=VERTEX_POINT('',#655);
#199=VERTEX_POINT('',#659);
#200=VERTEX_POINT('',#662);
#201=VERTEX_POINT('',#666);
#202=VERTEX_POINT('',#668);
#203=VERTEX_POINT('',#670);
#204=VERTEX_POINT('',#674);
#205=VERTEX_POINT('',#676);
#206=VERTEX_POINT('',#678);
#207=VERTEX_POINT('',#680);
#208=VERTEX_POINT('',#682);
#209=VERTEX_POINT('',#684);
#210=VERTEX_POINT('',#686);
#211=VERTEX_POINT('',#689);
#212=VERTEX_POINT('',#691);
#213=VERTEX_POINT('',#693);
#214=VERTEX_POINT('',#697);
#215=VERTEX_POINT('',#701);
#216=VERTEX_POINT('',#704);
#217=VERTEX_POINT('',#708);
#218=VERTEX_POINT('',#711);
#219=VERTEX_POINT('',#713);
#220=VERTEX_POINT('',#719);
#221=VERTEX_POINT('',#721);
#222=VERTEX_POINT('',#725);
#223=VERTEX_POINT('',#732);
#224=VERTEX_POINT('',#735);
#225=VERTEX_POINT('',#739);
#226=VERTEX_POINT('',#741);
#227=VERTEX_POINT('',#743);
#228=VERTEX_POINT('',#745);
#229=VERTEX_POINT('',#747);
#230=VERTEX_POINT('',#749);
#231=VERTEX_POINT('',#751);
#232=EDGE_CURVE('',#197,#197,#156,.T.);
#233=EDGE_CURVE('',#197,#198,#130,.T.);
#234=EDGE_CURVE('',#198,#198,#157,.T.);
#235=EDGE_CURVE('',#199,#199,#158,.T.);
#236=EDGE_CURVE('',#200,#200,#159,.T.);
#237=EDGE_CURVE('',#200,#198,#131,.T.);
#238=EDGE_CURVE('',#201,#201,#160,.T.);
#239=EDGE_CURVE('',#201,#202,#161,.T.);
#240=EDGE_CURVE('',#202,#203,#162,.T.);
#241=EDGE_CURVE('',#203,#202,#163,.T.);
#242=EDGE_CURVE('',#204,#204,#164,.F.);
#243=EDGE_CURVE('',#205,#205,#165,.T.);
#244=EDGE_CURVE('',#206,#206,#166,.T.);
#245=EDGE_CURVE('',#207,#207,#167,.T.);
#246=EDGE_CURVE('',#208,#208,#168,.T.);
#247=EDGE_CURVE('',#209,#209,#169,.T.);
#248=EDGE_CURVE('',#210,#210,#170,.T.);
#249=EDGE_CURVE('',#211,#211,#171,.T.);
#250=EDGE_CURVE('',#211,#212,#172,.T.);
#251=EDGE_CURVE('',#212,#213,#173,.T.);
#252=EDGE_CURVE('',#213,#212,#174,.T.);
#253=EDGE_CURVE('',#214,#214,#175,.T.);
#254=EDGE_CURVE('',#214,#213,#132,.T.);
#255=EDGE_CURVE('',#215,#215,#176,.T.);
#256=EDGE_CURVE('',#216,#216,#177,.T.);
#257=EDGE_CURVE('',#216,#214,#178,.T.);
#258=EDGE_CURVE('',#217,#217,#179,.T.);
#259=EDGE_CURVE('',#199,#218,#180,.T.);
#260=EDGE_CURVE('',#218,#219,#181,.T.);
#261=EDGE_CURVE('',#219,#218,#182,.T.);
#262=EDGE_CURVE('',#217,#219,#133,.T.);
#263=EDGE_CURVE('',#220,#220,#183,.T.);
#264=EDGE_CURVE('',#220,#221,#184,.T.);
#265=EDGE_CURVE('',#221,#221,#185,.T.);
#266=EDGE_CURVE('',#222,#222,#186,.T.);
#267=EDGE_CURVE('',#221,#215,#134,.T.);
#268=EDGE_CURVE('',#222,#203,#187,.T.);
#269=EDGE_CURVE('',#223,#223,#188,.T.);
#270=EDGE_CURVE('',#224,#224,#189,.T.);
#271=EDGE_CURVE('',#224,#204,#135,.T.);
#272=EDGE_CURVE('',#225,#225,#190,.T.);
#273=EDGE_CURVE('',#226,#226,#191,.T.);
#274=EDGE_CURVE('',#227,#227,#192,.T.);
#275=EDGE_CURVE('',#228,#228,#193,.T.);
#276=EDGE_CURVE('',#229,#229,#194,.T.);
#277=EDGE_CURVE('',#230,#230,#195,.T.);
#278=EDGE_CURVE('',#231,#231,#196,.T.);
#279=EDGE_CURVE('',#231,#210,#136,.T.);
#280=EDGE_CURVE('',#230,#223,#137,.T.);
#281=EDGE_CURVE('',#229,#209,#138,.T.);
#282=EDGE_CURVE('',#228,#208,#139,.T.);
#283=EDGE_CURVE('',#227,#207,#140,.T.);
#284=EDGE_CURVE('',#226,#206,#141,.T.);
#285=EDGE_CURVE('',#225,#205,#142,.T.);
#286=ORIENTED_EDGE('',*,*,#232,.T.);
#287=ORIENTED_EDGE('',*,*,#233,.T.);
#288=ORIENTED_EDGE('',*,*,#234,.T.);
#289=ORIENTED_EDGE('',*,*,#233,.F.);
#290=ORIENTED_EDGE('',*,*,#235,.F.);
#291=ORIENTED_EDGE('',*,*,#232,.F.);
#292=ORIENTED_EDGE('',*,*,#236,.F.);
#293=ORIENTED_EDGE('',*,*,#237,.T.);
#294=ORIENTED_EDGE('',*,*,#234,.F.);
#295=ORIENTED_EDGE('',*,*,#237,.F.);
#296=ORIENTED_EDGE('',*,*,#238,.T.);
#297=ORIENTED_EDGE('',*,*,#239,.T.);
#298=ORIENTED_EDGE('',*,*,#240,.T.);
#299=ORIENTED_EDGE('',*,*,#241,.T.);
#300=ORIENTED_EDGE('',*,*,#239,.F.);
#301=ORIENTED_EDGE('',*,*,#242,.F.);
#302=ORIENTED_EDGE('',*,*,#243,.F.);
#303=ORIENTED_EDGE('',*,*,#244,.F.);
#304=ORIENTED_EDGE('',*,*,#245,.F.);
#305=ORIENTED_EDGE('',*,*,#246,.F.);
#306=ORIENTED_EDGE('',*,*,#247,.F.);
#307=ORIENTED_EDGE('',*,*,#248,.F.);
#308=ORIENTED_EDGE('',*,*,#238,.F.);
#309=ORIENTED_EDGE('',*,*,#249,.T.);
#310=ORIENTED_EDGE('',*,*,#250,.T.);
#311=ORIENTED_EDGE('',*,*,#251,.T.);
#312=ORIENTED_EDGE('',*,*,#252,.T.);
#313=ORIENTED_EDGE('',*,*,#250,.F.);
#314=ORIENTED_EDGE('',*,*,#253,.F.);
#315=ORIENTED_EDGE('',*,*,#254,.T.);
#316=ORIENTED_EDGE('',*,*,#251,.F.);
#317=ORIENTED_EDGE('',*,*,#252,.F.);
#318=ORIENTED_EDGE('',*,*,#254,.F.);
#319=ORIENTED_EDGE('',*,*,#255,.F.);
#320=ORIENTED_EDGE('',*,*,#249,.F.);
#321=ORIENTED_EDGE('',*,*,#256,.T.);
#322=ORIENTED_EDGE('',*,*,#257,.T.);
#323=ORIENTED_EDGE('',*,*,#253,.T.);
#324=ORIENTED_EDGE('',*,*,#257,.F.);
#325=ORIENTED_EDGE('',*,*,#258,.F.);
#326=ORIENTED_EDGE('',*,*,#256,.F.);
#327=ORIENTED_EDGE('',*,*,#235,.T.);
#328=ORIENTED_EDGE('',*,*,#259,.T.);
#329=ORIENTED_EDGE('',*,*,#260,.T.);
#330=ORIENTED_EDGE('',*,*,#261,.T.);
#331=ORIENTED_EDGE('',*,*,#259,.F.);
#332=ORIENTED_EDGE('',*,*,#258,.T.);
#333=ORIENTED_EDGE('',*,*,#262,.T.);
#334=ORIENTED_EDGE('',*,*,#260,.F.);
#335=ORIENTED_EDGE('',*,*,#261,.F.);
#336=ORIENTED_EDGE('',*,*,#262,.F.);
#337=ORIENTED_EDGE('',*,*,#263,.T.);
#338=ORIENTED_EDGE('',*,*,#264,.T.);
#339=ORIENTED_EDGE('',*,*,#265,.T.);
#340=ORIENTED_EDGE('',*,*,#264,.F.);
#341=ORIENTED_EDGE('',*,*,#263,.F.);
#342=ORIENTED_EDGE('',*,*,#266,.F.);
#343=ORIENTED_EDGE('',*,*,#265,.F.);
#344=ORIENTED_EDGE('',*,*,#267,.T.);
#345=ORIENTED_EDGE('',*,*,#255,.T.);
#346=ORIENTED_EDGE('',*,*,#267,.F.);
#347=ORIENTED_EDGE('',*,*,#266,.T.);
#348=ORIENTED_EDGE('',*,*,#268,.T.);
#349=ORIENTED_EDGE('',*,*,#240,.F.);
#350=ORIENTED_EDGE('',*,*,#241,.F.);
#351=ORIENTED_EDGE('',*,*,#268,.F.);
#352=ORIENTED_EDGE('',*,*,#269,.F.);
#353=ORIENTED_EDGE('',*,*,#236,.T.);
#354=ORIENTED_EDGE('',*,*,#270,.T.);
#355=ORIENTED_EDGE('',*,*,#271,.T.);
#356=ORIENTED_EDGE('',*,*,#242,.T.);
#357=ORIENTED_EDGE('',*,*,#271,.F.);
#358=ORIENTED_EDGE('',*,*,#270,.F.);
#359=ORIENTED_EDGE('',*,*,#272,.F.);
#360=ORIENTED_EDGE('',*,*,#273,.F.);
#361=ORIENTED_EDGE('',*,*,#274,.F.);
#362=ORIENTED_EDGE('',*,*,#275,.F.);
#363=ORIENTED_EDGE('',*,*,#276,.F.);
#364=ORIENTED_EDGE('',*,*,#277,.F.);
#365=ORIENTED_EDGE('',*,*,#278,.F.);
#366=ORIENTED_EDGE('',*,*,#278,.T.);
#367=ORIENTED_EDGE('',*,*,#279,.T.);
#368=ORIENTED_EDGE('',*,*,#248,.T.);
#369=ORIENTED_EDGE('',*,*,#279,.F.);
#370=ORIENTED_EDGE('',*,*,#277,.T.);
#371=ORIENTED_EDGE('',*,*,#280,.T.);
#372=ORIENTED_EDGE('',*,*,#269,.T.);
#373=ORIENTED_EDGE('',*,*,#280,.F.);
#374=ORIENTED_EDGE('',*,*,#276,.T.);
#375=ORIENTED_EDGE('',*,*,#281,.T.);
#376=ORIENTED_EDGE('',*,*,#247,.T.);
#377=ORIENTED_EDGE('',*,*,#281,.F.);
#378=ORIENTED_EDGE('',*,*,#275,.T.);
#379=ORIENTED_EDGE('',*,*,#282,.T.);
#380=ORIENTED_EDGE('',*,*,#246,.T.);
#381=ORIENTED_EDGE('',*,*,#282,.F.);
#382=ORIENTED_EDGE('',*,*,#274,.T.);
#383=ORIENTED_EDGE('',*,*,#283,.T.);
#384=ORIENTED_EDGE('',*,*,#245,.T.);
#385=ORIENTED_EDGE('',*,*,#283,.F.);
#386=ORIENTED_EDGE('',*,*,#273,.T.);
#387=ORIENTED_EDGE('',*,*,#284,.T.);
#388=ORIENTED_EDGE('',*,*,#244,.T.);
#389=ORIENTED_EDGE('',*,*,#284,.F.);
#390=ORIENTED_EDGE('',*,*,#272,.T.);
#391=ORIENTED_EDGE('',*,*,#285,.T.);
#392=ORIENTED_EDGE('',*,*,#243,.T.);
#393=ORIENTED_EDGE('',*,*,#285,.F.);
#394=CONICAL_SURFACE('',#435,0.475,1.27933953231703);
#395=ADVANCED_FACE('',(#59),#394,.F.);
#396=ADVANCED_FACE('',(#60,#33),#52,.F.);
#397=ADVANCED_FACE('',(#61),#21,.F.);
#398=ADVANCED_FACE('',(#62),#15,.T.);
#399=ADVANCED_FACE('',(#63,#34,#35,#36,#37,#38,#39,#40),#53,.F.);
#400=ADVANCED_FACE('',(#64),#16,.F.);
#401=ADVANCED_FACE('',(#65),#22,.T.);
#402=ADVANCED_FACE('',(#66,#41),#54,.F.);
#403=ADVANCED_FACE('',(#67),#17,.F.);
#404=ADVANCED_FACE('',(#68,#42),#55,.T.);
#405=ADVANCED_FACE('',(#69),#18,.T.);
#406=ADVANCED_FACE('',(#70),#23,.T.);
#407=ADVANCED_FACE('',(#71),#19,.T.);
#408=ADVANCED_FACE('',(#72,#43),#56,.T.);
#409=ADVANCED_FACE('',(#73),#24,.T.);
#410=ADVANCED_FACE('',(#74),#20,.T.);
#411=ADVANCED_FACE('',(#75,#44),#57,.T.);
#412=ADVANCED_FACE('',(#76),#25,.F.);
#413=ADVANCED_FACE('',(#77,#45,#46,#47,#48,#49,#50,#51),#58,.T.);
#414=ADVANCED_FACE('',(#78),#26,.T.);
#415=ADVANCED_FACE('',(#79),#27,.T.);
#416=ADVANCED_FACE('',(#80),#28,.T.);
#417=ADVANCED_FACE('',(#81),#29,.T.);
#418=ADVANCED_FACE('',(#82),#30,.T.);
#419=ADVANCED_FACE('',(#83),#31,.T.);
#420=ADVANCED_FACE('',(#84),#32,.T.);
#421=CLOSED_SHELL('',(#395,#396,#397,#398,#399,#400,#401,#402,#403,#404,
#405,#406,#407,#408,#409,#410,#411,#412,#413,#414,#415,#416,#417,#418,#419,
#420));
#422=DERIVED_UNIT_ELEMENT(#424,1.);
#423=DERIVED_UNIT_ELEMENT(#774,-3.);
#424=(
MASS_UNIT()
NAMED_UNIT(*)
SI_UNIT(.KILO.,.GRAM.)
);
#425=DERIVED_UNIT((#422,#423));
#426=MEASURE_REPRESENTATION_ITEM('density measure',
POSITIVE_RATIO_MEASURE(7850.),#425);
#427=PROPERTY_DEFINITION_REPRESENTATION(#432,#429);
#428=PROPERTY_DEFINITION_REPRESENTATION(#433,#430);
#429=REPRESENTATION('material name',(#431),#769);
#430=REPRESENTATION('density',(#426),#769);
#431=DESCRIPTIVE_REPRESENTATION_ITEM('Steel','Steel');
#432=PROPERTY_DEFINITION('material property','material name',#782);
#433=PROPERTY_DEFINITION('material property','density of part',#782);
#434=AXIS2_PLACEMENT_3D('',#651,#502,#503);
#435=AXIS2_PLACEMENT_3D('',#652,#504,#505);
#436=AXIS2_PLACEMENT_3D('',#654,#506,#507);
#437=AXIS2_PLACEMENT_3D('',#657,#509,#510);
#438=AXIS2_PLACEMENT_3D('',#658,#511,#512);
#439=AXIS2_PLACEMENT_3D('',#660,#513,#514);
#440=AXIS2_PLACEMENT_3D('',#661,#515,#516);
#441=AXIS2_PLACEMENT_3D('',#663,#517,#518);
#442=AXIS2_PLACEMENT_3D('',#665,#520,#521);
#443=AXIS2_PLACEMENT_3D('',#667,#522,#523);
#444=AXIS2_PLACEMENT_3D('',#669,#524,#525);
#445=AXIS2_PLACEMENT_3D('',#671,#526,#527);
#446=AXIS2_PLACEMENT_3D('',#672,#528,#529);
#447=AXIS2_PLACEMENT_3D('',#673,#530,#531);
#448=AXIS2_PLACEMENT_3D('',#675,#532,#533);
#449=AXIS2_PLACEMENT_3D('',#677,#534,#535);
#450=AXIS2_PLACEMENT_3D('',#679,#536,#537);
#451=AXIS2_PLACEMENT_3D('',#681,#538,#539);
#452=AXIS2_PLACEMENT_3D('',#683,#540,#541);
#453=AXIS2_PLACEMENT_3D('',#685,#542,#543);
#454=AXIS2_PLACEMENT_3D('',#687,#544,#545);
#455=AXIS2_PLACEMENT_3D('',#688,#546,#547);
#456=AXIS2_PLACEMENT_3D('',#690,#548,#549);
#457=AXIS2_PLACEMENT_3D('',#692,#550,#551);
#458=AXIS2_PLACEMENT_3D('',#694,#552,#553);
#459=AXIS2_PLACEMENT_3D('',#695,#554,#555);
#460=AXIS2_PLACEMENT_3D('',#696,#556,#557);
#461=AXIS2_PLACEMENT_3D('',#698,#558,#559);
#462=AXIS2_PLACEMENT_3D('',#700,#561,#562);
#463=AXIS2_PLACEMENT_3D('',#702,#563,#564);
#464=AXIS2_PLACEMENT_3D('',#703,#565,#566);
#465=AXIS2_PLACEMENT_3D('',#705,#567,#568);
#466=AXIS2_PLACEMENT_3D('',#706,#569,#570);
#467=AXIS2_PLACEMENT_3D('',#707,#571,#572);
#468=AXIS2_PLACEMENT_3D('',#709,#573,#574);
#469=AXIS2_PLACEMENT_3D('',#710,#575,#576);
#470=AXIS2_PLACEMENT_3D('',#712,#577,#578);
#471=AXIS2_PLACEMENT_3D('',#714,#579,#580);
#472=AXIS2_PLACEMENT_3D('',#715,#581,#582);
#473=AXIS2_PLACEMENT_3D('',#716,#583,#584);
#474=AXIS2_PLACEMENT_3D('',#718,#586,#587);
#475=AXIS2_PLACEMENT_3D('',#720,#588,#589);
#476=AXIS2_PLACEMENT_3D('',#722,#590,#591);
#477=AXIS2_PLACEMENT_3D('',#723,#592,#593);
#478=AXIS2_PLACEMENT_3D('',#724,#594,#595);
#479=AXIS2_PLACEMENT_3D('',#726,#596,#597);
#480=AXIS2_PLACEMENT_3D('',#727,#598,#599);
#481=AXIS2_PLACEMENT_3D('',#729,#601,#602);
#482=AXIS2_PLACEMENT_3D('',#730,#603,#604);
#483=AXIS2_PLACEMENT_3D('',#731,#605,#606);
#484=AXIS2_PLACEMENT_3D('',#733,#607,#608);
#485=AXIS2_PLACEMENT_3D('',#734,#609,#610);
#486=AXIS2_PLACEMENT_3D('',#736,#611,#612);
#487=AXIS2_PLACEMENT_3D('',#738,#614,#615);
#488=AXIS2_PLACEMENT_3D('',#740,#616,#617);
#489=AXIS2_PLACEMENT_3D('',#742,#618,#619);
#490=AXIS2_PLACEMENT_3D('',#744,#620,#621);
#491=AXIS2_PLACEMENT_3D('',#746,#622,#623);
#492=AXIS2_PLACEMENT_3D('',#748,#624,#625);
#493=AXIS2_PLACEMENT_3D('',#750,#626,#627);
#494=AXIS2_PLACEMENT_3D('',#752,#628,#629);
#495=AXIS2_PLACEMENT_3D('',#753,#630,#631);
#496=AXIS2_PLACEMENT_3D('',#755,#633,#634);
#497=AXIS2_PLACEMENT_3D('',#757,#636,#637);
#498=AXIS2_PLACEMENT_3D('',#759,#639,#640);
#499=AXIS2_PLACEMENT_3D('',#761,#642,#643);
#500=AXIS2_PLACEMENT_3D('',#763,#645,#646);
#501=AXIS2_PLACEMENT_3D('',#765,#648,#649);
#502=DIRECTION('axis',(0.,0.,1.));
#503=DIRECTION('refdir',(1.,0.,0.));
#504=DIRECTION('center_axis',(0.,0.,-1.));
#505=DIRECTION('ref_axis',(-1.,0.,0.));
#506=DIRECTION('center_axis',(0.,0.,-1.));
#507=DIRECTION('ref_axis',(-1.,0.,0.));
#508=DIRECTION('',(-0.957826285221151,1.17299889433528E-16,0.287347885566345));
#509=DIRECTION('center_axis',(0.,0.,1.));
#510=DIRECTION('ref_axis',(-1.,0.,0.));
#511=DIRECTION('center_axis',(0.,0.,1.));
#512=DIRECTION('ref_axis',(1.,0.,0.));
#513=DIRECTION('center_axis',(0.,0.,1.));
#514=DIRECTION('ref_axis',(1.,0.,0.));
#515=DIRECTION('center_axis',(0.,0.,-1.));
#516=DIRECTION('ref_axis',(-1.,0.,0.));
#517=DIRECTION('center_axis',(0.,0.,-1.));
#518=DIRECTION('ref_axis',(-1.,0.,0.));
#519=DIRECTION('',(0.,0.,-1.));
#520=DIRECTION('center_axis',(0.,0.,1.));
#521=DIRECTION('ref_axis',(1.,0.,0.));
#522=DIRECTION('center_axis',(0.,0.,-1.));
#523=DIRECTION('ref_axis',(-1.,0.,0.));
#524=DIRECTION('center_axis',(1.22464679914735E-16,-1.,0.));
#525=DIRECTION('ref_axis',(-1.,-1.22464679914735E-16,0.));
#526=DIRECTION('center_axis',(0.,0.,1.));
#527=DIRECTION('ref_axis',(-1.,0.,0.));
#528=DIRECTION('center_axis',(0.,0.,1.));
#529=DIRECTION('ref_axis',(-1.,0.,0.));
#530=DIRECTION('center_axis',(0.,0.,1.));
#531=DIRECTION('ref_axis',(1.,0.,0.));
#532=DIRECTION('center_axis',(0.,0.,-1.));
#533=DIRECTION('ref_axis',(1.,0.,0.));
#534=DIRECTION('center_axis',(0.,0.,-1.));
#535=DIRECTION('ref_axis',(-0.499999999999999,0.866025403784439,0.));
#536=DIRECTION('center_axis',(0.,0.,-1.));
#537=DIRECTION('ref_axis',(0.5,0.866025403784438,0.));
#538=DIRECTION('center_axis',(0.,0.,-1.));
#539=DIRECTION('ref_axis',(1.,-1.45698559662094E-16,0.));
#540=DIRECTION('center_axis',(0.,0.,-1.));
#541=DIRECTION('ref_axis',(0.5,-0.866025403784439,0.));
#542=DIRECTION('center_axis',(0.,0.,-1.));
#543=DIRECTION('ref_axis',(-0.5,-0.866025403784439,0.));
#544=DIRECTION('center_axis',(0.,0.,-1.));
#545=DIRECTION('ref_axis',(-1.,0.,0.));
#546=DIRECTION('center_axis',(0.,0.,-1.));
#547=DIRECTION('ref_axis',(-1.,0.,0.));
#548=DIRECTION('center_axis',(0.,0.,-1.));
#549=DIRECTION('ref_axis',(1.,0.,0.));
#550=DIRECTION('center_axis',(-1.22464679914735E-16,-1.,0.));
#551=DIRECTION('ref_axis',(1.,-1.22464679914735E-16,0.));
#552=DIRECTION('center_axis',(0.,0.,1.));
#553=DIRECTION('ref_axis',(1.,0.,0.));
#554=DIRECTION('center_axis',(0.,0.,1.));
#555=DIRECTION('ref_axis',(1.,0.,0.));
#556=DIRECTION('center_axis',(0.,0.,1.));
#557=DIRECTION('ref_axis',(1.,0.,0.));
#558=DIRECTION('center_axis',(0.,0.,-1.));
#559=DIRECTION('ref_axis',(1.,0.,0.));
#560=DIRECTION('',(0.,0.,1.));
#561=DIRECTION('center_axis',(0.,0.,1.));
#562=DIRECTION('ref_axis',(1.,0.,0.));
#563=DIRECTION('center_axis',(0.,0.,1.));
#564=DIRECTION('ref_axis',(1.,0.,0.));
#565=DIRECTION('center_axis',(0.,0.,1.));
#566=DIRECTION('ref_axis',(1.,0.,0.));
#567=DIRECTION('center_axis',(0.,0.,1.));
#568=DIRECTION('ref_axis',(1.,0.,0.));
#569=DIRECTION('center_axis',(1.22464679914735E-16,-1.,0.));
#570=DIRECTION('ref_axis',(-1.,-1.22464679914735E-16,0.));
#571=DIRECTION('center_axis',(0.,0.,1.));
#572=DIRECTION('ref_axis',(1.,0.,0.));
#573=DIRECTION('center_axis',(0.,0.,-1.));
#574=DIRECTION('ref_axis',(1.,0.,0.));
#575=DIRECTION('center_axis',(0.,0.,-1.));
#576=DIRECTION('ref_axis',(-1.,0.,0.));
#577=DIRECTION('center_axis',(-1.22464679914735E-16,-1.,0.));
#578=DIRECTION('ref_axis',(1.,-1.22464679914735E-16,0.));
#579=DIRECTION('center_axis',(0.,0.,-1.));
#580=DIRECTION('ref_axis',(1.,0.,0.));
#581=DIRECTION('center_axis',(0.,0.,-1.));
#582=DIRECTION('ref_axis',(1.,0.,0.));
#583=DIRECTION('center_axis',(0.,0.,1.));
#584=DIRECTION('ref_axis',(1.,0.,0.));
#585=DIRECTION('',(0.,0.,-1.));
#586=DIRECTION('center_axis',(0.,0.,1.));
#587=DIRECTION('ref_axis',(1.,0.,0.));
#588=DIRECTION('center_axis',(0.,0.,-1.));
#589=DIRECTION('ref_axis',(1.,0.,0.));
#590=DIRECTION('center_axis',(1.22464679914735E-16,-1.,0.));
#591=DIRECTION('ref_axis',(-1.,-1.22464679914735E-16,0.));
#592=DIRECTION('center_axis',(0.,0.,1.));
#593=DIRECTION('ref_axis',(1.,0.,0.));
#594=DIRECTION('center_axis',(0.,0.,1.));
#595=DIRECTION('ref_axis',(1.,0.,0.));
#596=DIRECTION('center_axis',(0.,0.,1.));
#597=DIRECTION('ref_axis',(-1.,0.,0.));
#598=DIRECTION('center_axis',(0.,0.,1.));
#599=DIRECTION('ref_axis',(1.,0.,0.));
#600=DIRECTION('',(0.,0.,-1.));
#601=DIRECTION('center_axis',(0.,0.,-1.));
#602=DIRECTION('ref_axis',(-1.,0.,0.));
#603=DIRECTION('center_axis',(-1.22464679914735E-16,-1.,0.));
#604=DIRECTION('ref_axis',(1.,-1.22464679914735E-16,0.));
#605=DIRECTION('center_axis',(0.,0.,1.));
#606=DIRECTION('ref_axis',(-1.,0.,0.));
#607=DIRECTION('center_axis',(0.,0.,-1.));
#608=DIRECTION('ref_axis',(-1.,0.,0.));
#609=DIRECTION('center_axis',(0.,0.,1.));
#610=DIRECTION('ref_axis',(1.,0.,0.));
#611=DIRECTION('center_axis',(0.,0.,-1.));
#612=DIRECTION('ref_axis',(1.,0.,0.));
#613=DIRECTION('',(0.,0.,1.));
#614=DIRECTION('center_axis',(0.,0.,1.));
#615=DIRECTION('ref_axis',(1.,0.,0.));
#616=DIRECTION('center_axis',(0.,0.,1.));
#617=DIRECTION('ref_axis',(-0.499999999999999,0.866025403784439,0.));
#618=DIRECTION('center_axis',(0.,0.,1.));
#619=DIRECTION('ref_axis',(0.5,0.866025403784438,0.));
#620=DIRECTION('center_axis',(0.,0.,1.));
#621=DIRECTION('ref_axis',(1.,-1.45698559662094E-16,0.));
#622=DIRECTION('center_axis',(0.,0.,1.));
#623=DIRECTION('ref_axis',(0.5,-0.866025403784439,0.));
#624=DIRECTION('center_axis',(0.,0.,1.));
#625=DIRECTION('ref_axis',(-0.5,-0.866025403784439,0.));
#626=DIRECTION('center_axis',(0.,0.,1.));
#627=DIRECTION('ref_axis',(-1.,0.,0.));
#628=DIRECTION('center_axis',(0.,0.,1.));
#629=DIRECTION('ref_axis',(-1.,0.,0.));
#630=DIRECTION('center_axis',(0.,0.,-1.));
#631=DIRECTION('ref_axis',(-1.,0.,0.));
#632=DIRECTION('',(0.,0.,1.));
#633=DIRECTION('center_axis',(0.,0.,-1.));
#634=DIRECTION('ref_axis',(-1.,0.,0.));
#635=DIRECTION('',(0.,0.,1.));
#636=DIRECTION('center_axis',(0.,0.,-1.));
#637=DIRECTION('ref_axis',(-0.5,-0.866025403784439,0.));
#638=DIRECTION('',(0.,0.,1.));
#639=DIRECTION('center_axis',(0.,0.,-1.));
#640=DIRECTION('ref_axis',(0.5,-0.866025403784439,0.));
#641=DIRECTION('',(0.,0.,1.));
#642=DIRECTION('center_axis',(0.,0.,-1.));
#643=DIRECTION('ref_axis',(1.,-1.45698559662094E-16,0.));
#644=DIRECTION('',(0.,0.,1.));
#645=DIRECTION('center_axis',(0.,0.,-1.));
#646=DIRECTION('ref_axis',(0.5,0.866025403784438,0.));
#647=DIRECTION('',(0.,0.,1.));
#648=DIRECTION('center_axis',(0.,0.,-1.));
#649=DIRECTION('ref_axis',(-0.499999999999999,0.866025403784439,0.));
#650=DIRECTION('',(0.,0.,1.));
#651=CARTESIAN_POINT('',(0.,0.,0.));
#652=CARTESIAN_POINT('Origin',(0.,1.75,-0.425));
#653=CARTESIAN_POINT('',(0.725,1.75,-0.5));
#654=CARTESIAN_POINT('Origin',(0.,1.75,-0.5));
#655=CARTESIAN_POINT('',(0.225,1.75,-0.35));
#656=CARTESIAN_POINT('',(0.475,1.75,-0.425));
#657=CARTESIAN_POINT('Origin',(0.,1.75,-0.35));
#658=CARTESIAN_POINT('Origin',(0.,0.,-0.5));
#659=CARTESIAN_POINT('',(3.6375,-4.4546527318985E-16,-0.5));
#660=CARTESIAN_POINT('Origin',(0.,0.,-0.5));
#661=CARTESIAN_POINT('Origin',(0.,1.75,0.25));
#662=CARTESIAN_POINT('',(0.225,1.75,0.125));
#663=CARTESIAN_POINT('Origin',(0.,1.75,0.125));
#664=CARTESIAN_POINT('',(0.225,1.75,0.25));
#665=CARTESIAN_POINT('Origin',(0.,0.,0.275));
#666=CARTESIAN_POINT('',(-2.57656509085125,-3.15538219130579E-16,0.25));
#667=CARTESIAN_POINT('Origin',(0.,0.,0.25));
#668=CARTESIAN_POINT('',(-2.55171989110125,-3.12495559695778E-16,0.277777777777778));
#669=CARTESIAN_POINT('Origin',(-2.57656509085125,-3.15538219130579E-16,
0.275));
#670=CARTESIAN_POINT('',(2.55171989110125,3.12495559695778E-16,0.277777777777778));
#671=CARTESIAN_POINT('Origin',(0.,0.,0.277777777777778));
#672=CARTESIAN_POINT('Origin',(0.,0.,0.277777777777778));
#673=CARTESIAN_POINT('Origin',(0.,0.,0.25));
#674=CARTESIAN_POINT('',(-3.29,4.02908796919479E-16,0.25));
#675=CARTESIAN_POINT('Origin',(0.,0.,0.25));
#676=CARTESIAN_POINT('',(-1.3385,2.31835000593094,0.25));
#677=CARTESIAN_POINT('Origin',(-1.451,2.51320572178244,0.25));
#678=CARTESIAN_POINT('',(1.3385,2.31835000593094,0.25));
#679=CARTESIAN_POINT('Origin',(1.451,2.51320572178244,0.25));
#680=CARTESIAN_POINT('',(2.677,-3.49676543189026E-16,0.25));
#681=CARTESIAN_POINT('Origin',(2.902,-5.24514814783538E-16,0.25));
#682=CARTESIAN_POINT('',(1.3385,-2.31835000593094,0.25));
#683=CARTESIAN_POINT('Origin',(1.451,-2.51320572178244,0.25));
#684=CARTESIAN_POINT('',(-1.3385,-2.31835000593094,0.25));
#685=CARTESIAN_POINT('Origin',(-1.451,-2.51320572178244,0.25));
#686=CARTESIAN_POINT('',(-2.677,6.98362749947551E-17,0.25));
#687=CARTESIAN_POINT('Origin',(-2.902,4.22817220139397E-17,0.25));
#688=CARTESIAN_POINT('Origin',(0.,0.,0.0825));
#689=CARTESIAN_POINT('',(3.5925,-4.39954362593687E-16,0.1325));
#690=CARTESIAN_POINT('Origin',(0.,0.,0.1325));
#691=CARTESIAN_POINT('',(3.5425,-4.3383112859795E-16,0.0825));
#692=CARTESIAN_POINT('Origin',(3.5925,-4.39954362593687E-16,0.0825));
#693=CARTESIAN_POINT('',(-3.5425,-4.3383112859795E-16,0.0825));
#694=CARTESIAN_POINT('Origin',(0.,0.,0.0825));
#695=CARTESIAN_POINT('Origin',(0.,0.,0.0825));
#696=CARTESIAN_POINT('Origin',(0.,0.,0.));
#697=CARTESIAN_POINT('',(-3.5425,4.3383112859795E-16,-0.0825));
#698=CARTESIAN_POINT('Origin',(0.,0.,-0.0825));
#699=CARTESIAN_POINT('',(-3.5425,-4.3383112859795E-16,0.));
#700=CARTESIAN_POINT('Origin',(0.,0.,0.1325));
#701=CARTESIAN_POINT('',(-3.6875,-4.51588507185586E-16,0.1325));
#702=CARTESIAN_POINT('Origin',(0.,0.,0.1325));
#703=CARTESIAN_POINT('Origin',(0.,0.,-0.0825));
#704=CARTESIAN_POINT('',(-3.5925,-4.39954362593687E-16,-0.1325));
#705=CARTESIAN_POINT('Origin',(0.,0.,-0.1325));
#706=CARTESIAN_POINT('Origin',(-3.5925,-4.39954362593687E-16,-0.0825));
#707=CARTESIAN_POINT('Origin',(0.,0.,-0.1325));
#708=CARTESIAN_POINT('',(-3.6875,-4.51588507185586E-16,-0.1325));
#709=CARTESIAN_POINT('Origin',(0.,0.,-0.1325));
#710=CARTESIAN_POINT('Origin',(0.,0.,-0.45));
#711=CARTESIAN_POINT('',(3.6875,-4.51588507185586E-16,-0.45));
#712=CARTESIAN_POINT('Origin',(3.6375,-4.4546527318985E-16,-0.45));
#713=CARTESIAN_POINT('',(-3.6875,4.51588507185586E-16,-0.45));
#714=CARTESIAN_POINT('Origin',(0.,0.,-0.45));
#715=CARTESIAN_POINT('Origin',(0.,0.,-0.45));
#716=CARTESIAN_POINT('Origin',(0.,0.,0.));
#717=CARTESIAN_POINT('',(-3.6875,-4.51588507185586E-16,0.));
#718=CARTESIAN_POINT('Origin',(0.,0.,0.25));
#719=CARTESIAN_POINT('',(-3.4375,4.20972337206903E-16,0.5));
#720=CARTESIAN_POINT('Origin',(0.,0.,0.5));
#721=CARTESIAN_POINT('',(-3.6875,-4.51588507185586E-16,0.25));
#722=CARTESIAN_POINT('Origin',(-3.4375,-4.20972337206903E-16,0.25));
#723=CARTESIAN_POINT('Origin',(0.,0.,0.25));
#724=CARTESIAN_POINT('Origin',(0.,0.,0.5));
#725=CARTESIAN_POINT('',(2.80017188860123,3.42922154043789E-16,0.5));
#726=CARTESIAN_POINT('Origin',(0.,0.,0.5));
#727=CARTESIAN_POINT('Origin',(0.,0.,0.));
#728=CARTESIAN_POINT('',(-3.6875,-4.51588507185586E-16,0.));
#729=CARTESIAN_POINT('Origin',(0.,0.,0.25));
#730=CARTESIAN_POINT('Origin',(2.80017188860123,-3.42922154043789E-16,0.25));
#731=CARTESIAN_POINT('Origin',(0.,0.,0.125));
#732=CARTESIAN_POINT('',(0.49,1.75,0.125));
#733=CARTESIAN_POINT('Origin',(0.,1.75,0.125));
#734=CARTESIAN_POINT('Origin',(0.,0.,0.));
#735=CARTESIAN_POINT('',(-3.29,4.02908796919479E-16,-0.25));
#736=CARTESIAN_POINT('Origin',(0.,0.,-0.25));
#737=CARTESIAN_POINT('',(-3.29,-4.02908796919479E-16,0.));
#738=CARTESIAN_POINT('Origin',(0.,0.,-0.25));
#739=CARTESIAN_POINT('',(-1.3385,2.31835000593094,-0.25));
#740=CARTESIAN_POINT('Origin',(-1.451,2.51320572178244,-0.25));
#741=CARTESIAN_POINT('',(1.3385,2.31835000593094,-0.25));
#742=CARTESIAN_POINT('Origin',(1.451,2.51320572178244,-0.25));
#743=CARTESIAN_POINT('',(2.677,-3.49676543189026E-16,-0.25));
#744=CARTESIAN_POINT('Origin',(2.902,-5.24514814783538E-16,-0.25));
#745=CARTESIAN_POINT('',(1.3385,-2.31835000593094,-0.25));
#746=CARTESIAN_POINT('Origin',(1.451,-2.51320572178244,-0.25));
#747=CARTESIAN_POINT('',(-1.3385,-2.31835000593094,-0.25));
#748=CARTESIAN_POINT('Origin',(-1.451,-2.51320572178244,-0.25));
#749=CARTESIAN_POINT('',(0.49,1.75,-0.25));
#750=CARTESIAN_POINT('Origin',(0.,1.75,-0.25));
#751=CARTESIAN_POINT('',(-2.677,6.98362749947551E-17,-0.25));
#752=CARTESIAN_POINT('Origin',(-2.902,4.22817220139397E-17,-0.25));
#753=CARTESIAN_POINT('Origin',(-2.902,4.22817220139397E-17,0.25));
#754=CARTESIAN_POINT('',(-2.677,1.47271690331242E-17,0.25));
#755=CARTESIAN_POINT('Origin',(0.,1.75,0.25));
#756=CARTESIAN_POINT('',(0.49,1.75,0.25));
#757=CARTESIAN_POINT('Origin',(-1.451,-2.51320572178244,0.25));
#758=CARTESIAN_POINT('',(-1.3385,-2.31835000593094,0.25));
#759=CARTESIAN_POINT('Origin',(1.451,-2.51320572178244,0.25));
#760=CARTESIAN_POINT('',(1.3385,-2.31835000593094,0.25));
#761=CARTESIAN_POINT('Origin',(2.902,-5.24514814783538E-16,0.25));
#762=CARTESIAN_POINT('',(2.677,-4.64178085878752E-16,0.25));
#763=CARTESIAN_POINT('Origin',(1.451,2.51320572178244,0.25));
#764=CARTESIAN_POINT('',(1.3385,2.31835000593094,0.25));
#765=CARTESIAN_POINT('Origin',(-1.451,2.51320572178244,0.25));
#766=CARTESIAN_POINT('',(-1.3385,2.31835000593094,0.25));
#767=UNCERTAINTY_MEASURE_WITH_UNIT(LENGTH_MEASURE(0.000393700787401575),
#772,'DISTANCE_ACCURACY_VALUE',
'Maximum model space distance between geometric entities at asserted c
onnectivities');
#768=UNCERTAINTY_MEASURE_WITH_UNIT(LENGTH_MEASURE(0.000393700787401575),
#772,'DISTANCE_ACCURACY_VALUE',
'Maximum model space distance between geometric entities at asserted c
onnectivities');
#769=(
GEOMETRIC_REPRESENTATION_CONTEXT(3)
GLOBAL_UNCERTAINTY_ASSIGNED_CONTEXT((#767))
GLOBAL_UNIT_ASSIGNED_CONTEXT((#772,#776,#777))
REPRESENTATION_CONTEXT('','3D')
);
#770=(
GEOMETRIC_REPRESENTATION_CONTEXT(3)
GLOBAL_UNCERTAINTY_ASSIGNED_CONTEXT((#768))
GLOBAL_UNIT_ASSIGNED_CONTEXT((#772,#776,#777))
REPRESENTATION_CONTEXT('','3D')
);
#771=DIMENSIONAL_EXPONENTS(1.,0.,0.,0.,0.,0.,0.);
#772=(
CONVERSION_BASED_UNIT('inch',#775)
LENGTH_UNIT()
NAMED_UNIT(#771)
);
#773=(
LENGTH_UNIT()
NAMED_UNIT(*)
SI_UNIT(.MILLI.,.METRE.)
);
#774=(
LENGTH_UNIT()
NAMED_UNIT(*)
SI_UNIT($,.METRE.)
);
#775=LENGTH_MEASURE_WITH_UNIT(LENGTH_MEASURE(25.4),#773);
#776=(
NAMED_UNIT(*)
PLANE_ANGLE_UNIT()
SI_UNIT($,.RADIAN.)
);
#777=(
NAMED_UNIT(*)
SI_UNIT($,.STERADIAN.)
SOLID_ANGLE_UNIT()
);
#778=SHAPE_DEFINITION_REPRESENTATION(#779,#780);
#779=PRODUCT_DEFINITION_SHAPE('',$,#782);
#780=SHAPE_REPRESENTATION('',(#434),#769);
#781=PRODUCT_DEFINITION_CONTEXT('part definition',#786,'design');
#782=PRODUCT_DEFINITION('piston','piston v10',#783,#781);
#783=PRODUCT_DEFINITION_FORMATION('',$,#788);
#784=PRODUCT_RELATED_PRODUCT_CATEGORY('piston v10','piston v10',(#788));
#785=APPLICATION_PROTOCOL_DEFINITION('international standard',
'automotive_design',2009,#786);
#786=APPLICATION_CONTEXT(
'Core Data for Automotive Mechanical Design Process');
#787=PRODUCT_CONTEXT('part definition',#786,'mechanical');
#788=PRODUCT('piston','piston v10',$,(#787));
#789=PRESENTATION_STYLE_ASSIGNMENT((#792));
#790=PRESENTATION_STYLE_ASSIGNMENT((#793));
#791=PRESENTATION_STYLE_ASSIGNMENT((#794));
#792=SURFACE_STYLE_USAGE(.BOTH.,#795);
#793=SURFACE_STYLE_USAGE(.BOTH.,#796);
#794=SURFACE_STYLE_USAGE(.BOTH.,#797);
#795=SURFACE_SIDE_STYLE('',(#798));
#796=SURFACE_SIDE_STYLE('',(#799));
#797=SURFACE_SIDE_STYLE('',(#800));
#798=SURFACE_STYLE_FILL_AREA(#801);
#799=SURFACE_STYLE_FILL_AREA(#802);
#800=SURFACE_STYLE_FILL_AREA(#803);
#801=FILL_AREA_STYLE('Steel - Satin',(#804));
#802=FILL_AREA_STYLE('Plastic - Glossy (Red)',(#805));
#803=FILL_AREA_STYLE('Plastic - Matte (Gray)',(#806));
#804=FILL_AREA_STYLE_COLOUR('Steel - Satin',#807);
#805=FILL_AREA_STYLE_COLOUR('Plastic - Glossy (Red)',#808);
#806=FILL_AREA_STYLE_COLOUR('Plastic - Matte (Gray)',#809);
#807=COLOUR_RGB('Steel - Satin',0.627450980392157,0.627450980392157,0.627450980392157);
#808=COLOUR_RGB('Plastic - Glossy (Red)',0.768627450980392,0.207843137254902,
0.152941176470588);
#809=COLOUR_RGB('Plastic - Matte (Gray)',0.701960784313725,0.701960784313725,
0.701960784313725);
ENDSEC;
END-ISO-10303-21;
