ISO-10303-21;
HEADER;
/* Generated by software containing ST-Developer
 * from STEP Tools, Inc. (www.steptools.com) 
 */

FILE_DESCRIPTION(
/* description */ (''),
/* implementation_level */ '2;1');

FILE_NAME(
/* name */ 'TOOL.step',
/* time_stamp */ '2026-04-03T15:18:16-05:00',
/* author */ (''),
/* organization */ (''),
/* preprocessor_version */ 'ST-DEVELOPER v20.1',
/* originating_system */ 'Autodesk Translation Framework v14.24.0.0',
/* authorisation */ '');

FILE_SCHEMA (('AUTOMOTIVE_DESIGN { 1 0 10303 214 3 1 1 }'));
ENDSEC;

DATA;
#10=MECHANICAL_DESIGN_GEOMETRIC_PRESENTATION_REPRESENTATION('',(#13),#366);
#11=SHAPE_REPRESENTATION_RELATIONSHIP('SRR','None',#373,#12);
#12=ADVANCED_BREP_SHAPE_REPRESENTATION('',(#14),#365);
#13=STYLED_ITEM('',(#382),#14);
#14=MANIFOLD_SOLID_BREP('Body1',#210);
#15=FACE_BOUND('',#79,.T.);
#16=PLANE('',#232);
#17=PLANE('',#236);
#18=PLANE('',#237);
#19=PLANE('',#238);
#20=PLANE('',#239);
#21=PLANE('',#240);
#22=PLANE('',#241);
#23=PLANE('',#242);
#24=PLANE('',#243);
#25=LINE('',#318,#44);
#26=LINE('',#323,#45);
#27=LINE('',#325,#46);
#28=LINE('',#327,#47);
#29=LINE('',#329,#48);
#30=LINE('',#331,#49);
#31=LINE('',#332,#50);
#32=LINE('',#341,#51);
#33=LINE('',#343,#52);
#34=LINE('',#345,#53);
#35=LINE('',#347,#54);
#36=LINE('',#349,#55);
#37=LINE('',#350,#56);
#38=LINE('',#352,#57);
#39=LINE('',#353,#58);
#40=LINE('',#355,#59);
#41=LINE('',#357,#60);
#42=LINE('',#359,#61);
#43=LINE('',#361,#62);
#44=VECTOR('',#260,7.9094010767585);
#45=VECTOR('',#265,10.);
#46=VECTOR('',#266,10.);
#47=VECTOR('',#267,10.);
#48=VECTOR('',#268,10.);
#49=VECTOR('',#269,10.);
#50=VECTOR('',#270,10.);
#51=VECTOR('',#281,10.);
#52=VECTOR('',#282,10.);
#53=VECTOR('',#283,10.);
#54=VECTOR('',#284,10.);
#55=VECTOR('',#285,10.);
#56=VECTOR('',#286,10.);
#57=VECTOR('',#289,10.);
#58=VECTOR('',#290,10.);
#59=VECTOR('',#293,10.);
#60=VECTOR('',#296,10.);
#61=VECTOR('',#299,10.);
#62=VECTOR('',#302,10.);
#63=CYLINDRICAL_SURFACE('',#229,7.9094010767585);
#64=FACE_OUTER_BOUND('',#76,.T.);
#65=FACE_OUTER_BOUND('',#77,.T.);
#66=FACE_OUTER_BOUND('',#78,.T.);
#67=FACE_OUTER_BOUND('',#80,.T.);
#68=FACE_OUTER_BOUND('',#81,.T.);
#69=FACE_OUTER_BOUND('',#82,.T.);
#70=FACE_OUTER_BOUND('',#83,.T.);
#71=FACE_OUTER_BOUND('',#84,.T.);
#72=FACE_OUTER_BOUND('',#85,.T.);
#73=FACE_OUTER_BOUND('',#86,.T.);
#74=FACE_OUTER_BOUND('',#87,.T.);
#75=FACE_OUTER_BOUND('',#88,.T.);
#76=EDGE_LOOP('',(#142,#143,#144,#145,#146));
#77=EDGE_LOOP('',(#147,#148,#149,#150,#151,#152));
#78=EDGE_LOOP('',(#153));
#79=EDGE_LOOP('',(#154,#155,#156,#157,#158,#159));
#80=EDGE_LOOP('',(#160,#161,#162,#163,#164));
#81=EDGE_LOOP('',(#165));
#82=EDGE_LOOP('',(#166,#167,#168,#169,#170,#171));
#83=EDGE_LOOP('',(#172,#173,#174,#175));
#84=EDGE_LOOP('',(#176,#177,#178,#179));
#85=EDGE_LOOP('',(#180,#181,#182,#183));
#86=EDGE_LOOP('',(#184,#185,#186,#187));
#87=EDGE_LOOP('',(#188,#189,#190,#191));
#88=EDGE_LOOP('',(#192,#193,#194,#195));
#89=CIRCLE('',#225,7.9094010767585);
#90=CIRCLE('',#226,1.);
#91=CIRCLE('',#227,6.9094010767585);
#92=CIRCLE('',#228,7.9094010767585);
#93=CIRCLE('',#230,7.9094010767585);
#94=CIRCLE('',#231,7.9094010767585);
#95=CIRCLE('',#234,6.9094010767585);
#96=CIRCLE('',#235,1.);
#97=VERTEX_POINT('',#307);
#98=VERTEX_POINT('',#308);
#99=VERTEX_POINT('',#310);
#100=VERTEX_POINT('',#315);
#101=VERTEX_POINT('',#316);
#102=VERTEX_POINT('',#321);
#103=VERTEX_POINT('',#322);
#104=VERTEX_POINT('',#324);
#105=VERTEX_POINT('',#326);
#106=VERTEX_POINT('',#328);
#107=VERTEX_POINT('',#330);
#108=VERTEX_POINT('',#334);
#109=VERTEX_POINT('',#339);
#110=VERTEX_POINT('',#340);
#111=VERTEX_POINT('',#342);
#112=VERTEX_POINT('',#344);
#113=VERTEX_POINT('',#346);
#114=VERTEX_POINT('',#348);
#115=EDGE_CURVE('',#97,#98,#89,.T.);
#116=EDGE_CURVE('',#98,#99,#90,.T.);
#117=EDGE_CURVE('',#99,#99,#91,.T.);
#118=EDGE_CURVE('',#98,#97,#92,.T.);
#119=EDGE_CURVE('',#100,#101,#93,.T.);
#120=EDGE_CURVE('',#100,#97,#25,.T.);
#121=EDGE_CURVE('',#101,#100,#94,.T.);
#122=EDGE_CURVE('',#102,#103,#26,.F.);
#123=EDGE_CURVE('',#104,#102,#27,.F.);
#124=EDGE_CURVE('',#105,#104,#28,.F.);
#125=EDGE_CURVE('',#106,#105,#29,.F.);
#126=EDGE_CURVE('',#107,#106,#30,.F.);
#127=EDGE_CURVE('',#103,#107,#31,.F.);
#128=EDGE_CURVE('',#108,#108,#95,.T.);
#129=EDGE_CURVE('',#108,#101,#96,.T.);
#130=EDGE_CURVE('',#109,#110,#32,.F.);
#131=EDGE_CURVE('',#110,#111,#33,.F.);
#132=EDGE_CURVE('',#111,#112,#34,.F.);
#133=EDGE_CURVE('',#112,#113,#35,.F.);
#134=EDGE_CURVE('',#113,#114,#36,.F.);
#135=EDGE_CURVE('',#114,#109,#37,.F.);
#136=EDGE_CURVE('',#102,#110,#38,.T.);
#137=EDGE_CURVE('',#104,#109,#39,.T.);
#138=EDGE_CURVE('',#105,#114,#40,.T.);
#139=EDGE_CURVE('',#106,#113,#41,.T.);
#140=EDGE_CURVE('',#107,#112,#42,.F.);
#141=EDGE_CURVE('',#103,#111,#43,.T.);
#142=ORIENTED_EDGE('',*,*,#115,.T.);
#143=ORIENTED_EDGE('',*,*,#116,.T.);
#144=ORIENTED_EDGE('',*,*,#117,.T.);
#145=ORIENTED_EDGE('',*,*,#116,.F.);
#146=ORIENTED_EDGE('',*,*,#118,.T.);
#147=ORIENTED_EDGE('',*,*,#119,.F.);
#148=ORIENTED_EDGE('',*,*,#120,.T.);
#149=ORIENTED_EDGE('',*,*,#118,.F.);
#150=ORIENTED_EDGE('',*,*,#115,.F.);
#151=ORIENTED_EDGE('',*,*,#120,.F.);
#152=ORIENTED_EDGE('',*,*,#121,.F.);
#153=ORIENTED_EDGE('',*,*,#117,.F.);
#154=ORIENTED_EDGE('',*,*,#122,.F.);
#155=ORIENTED_EDGE('',*,*,#123,.F.);
#156=ORIENTED_EDGE('',*,*,#124,.F.);
#157=ORIENTED_EDGE('',*,*,#125,.F.);
#158=ORIENTED_EDGE('',*,*,#126,.F.);
#159=ORIENTED_EDGE('',*,*,#127,.F.);
#160=ORIENTED_EDGE('',*,*,#128,.T.);
#161=ORIENTED_EDGE('',*,*,#129,.T.);
#162=ORIENTED_EDGE('',*,*,#121,.T.);
#163=ORIENTED_EDGE('',*,*,#119,.T.);
#164=ORIENTED_EDGE('',*,*,#129,.F.);
#165=ORIENTED_EDGE('',*,*,#128,.F.);
#166=ORIENTED_EDGE('',*,*,#130,.T.);
#167=ORIENTED_EDGE('',*,*,#131,.T.);
#168=ORIENTED_EDGE('',*,*,#132,.T.);
#169=ORIENTED_EDGE('',*,*,#133,.T.);
#170=ORIENTED_EDGE('',*,*,#134,.T.);
#171=ORIENTED_EDGE('',*,*,#135,.T.);
#172=ORIENTED_EDGE('',*,*,#123,.T.);
#173=ORIENTED_EDGE('',*,*,#136,.T.);
#174=ORIENTED_EDGE('',*,*,#130,.F.);
#175=ORIENTED_EDGE('',*,*,#137,.F.);
#176=ORIENTED_EDGE('',*,*,#124,.T.);
#177=ORIENTED_EDGE('',*,*,#137,.T.);
#178=ORIENTED_EDGE('',*,*,#135,.F.);
#179=ORIENTED_EDGE('',*,*,#138,.F.);
#180=ORIENTED_EDGE('',*,*,#125,.T.);
#181=ORIENTED_EDGE('',*,*,#138,.T.);
#182=ORIENTED_EDGE('',*,*,#134,.F.);
#183=ORIENTED_EDGE('',*,*,#139,.F.);
#184=ORIENTED_EDGE('',*,*,#126,.T.);
#185=ORIENTED_EDGE('',*,*,#139,.T.);
#186=ORIENTED_EDGE('',*,*,#133,.F.);
#187=ORIENTED_EDGE('',*,*,#140,.F.);
#188=ORIENTED_EDGE('',*,*,#127,.T.);
#189=ORIENTED_EDGE('',*,*,#140,.T.);
#190=ORIENTED_EDGE('',*,*,#132,.F.);
#191=ORIENTED_EDGE('',*,*,#141,.F.);
#192=ORIENTED_EDGE('',*,*,#122,.T.);
#193=ORIENTED_EDGE('',*,*,#141,.T.);
#194=ORIENTED_EDGE('',*,*,#131,.F.);
#195=ORIENTED_EDGE('',*,*,#136,.F.);
#196=TOROIDAL_SURFACE('',#224,6.9094010767585,1.);
#197=TOROIDAL_SURFACE('',#233,6.9094010767585,1.);
#198=ADVANCED_FACE('',(#64),#196,.T.);
#199=ADVANCED_FACE('',(#65),#63,.T.);
#200=ADVANCED_FACE('',(#66,#15),#16,.F.);
#201=ADVANCED_FACE('',(#67),#197,.T.);
#202=ADVANCED_FACE('',(#68),#17,.T.);
#203=ADVANCED_FACE('',(#69),#18,.F.);
#204=ADVANCED_FACE('',(#70),#19,.T.);
#205=ADVANCED_FACE('',(#71),#20,.T.);
#206=ADVANCED_FACE('',(#72),#21,.T.);
#207=ADVANCED_FACE('',(#73),#22,.T.);
#208=ADVANCED_FACE('',(#74),#23,.T.);
#209=ADVANCED_FACE('',(#75),#24,.T.);
#210=CLOSED_SHELL('',(#198,#199,#200,#201,#202,#203,#204,#205,#206,#207,
#208,#209));
#211=DERIVED_UNIT_ELEMENT(#213,1.);
#212=DERIVED_UNIT_ELEMENT(#368,-3.);
#213=(
MASS_UNIT()
NAMED_UNIT(*)
SI_UNIT(.KILO.,.GRAM.)
);
#214=DERIVED_UNIT((#211,#212));
#215=MEASURE_REPRESENTATION_ITEM('density measure',
POSITIVE_RATIO_MEASURE(7850.),#214);
#216=PROPERTY_DEFINITION_REPRESENTATION(#221,#218);
#217=PROPERTY_DEFINITION_REPRESENTATION(#222,#219);
#218=REPRESENTATION('material name',(#220),#365);
#219=REPRESENTATION('density',(#215),#365);
#220=DESCRIPTIVE_REPRESENTATION_ITEM('Steel','Steel');
#221=PROPERTY_DEFINITION('material property','material name',#375);
#222=PROPERTY_DEFINITION('material property','density of part',#375);
#223=AXIS2_PLACEMENT_3D('',#305,#244,#245);
#224=AXIS2_PLACEMENT_3D('',#306,#246,#247);
#225=AXIS2_PLACEMENT_3D('',#309,#248,#249);
#226=AXIS2_PLACEMENT_3D('',#311,#250,#251);
#227=AXIS2_PLACEMENT_3D('',#312,#252,#253);
#228=AXIS2_PLACEMENT_3D('',#313,#254,#255);
#229=AXIS2_PLACEMENT_3D('',#314,#256,#257);
#230=AXIS2_PLACEMENT_3D('',#317,#258,#259);
#231=AXIS2_PLACEMENT_3D('',#319,#261,#262);
#232=AXIS2_PLACEMENT_3D('',#320,#263,#264);
#233=AXIS2_PLACEMENT_3D('',#333,#271,#272);
#234=AXIS2_PLACEMENT_3D('',#335,#273,#274);
#235=AXIS2_PLACEMENT_3D('',#336,#275,#276);
#236=AXIS2_PLACEMENT_3D('',#337,#277,#278);
#237=AXIS2_PLACEMENT_3D('',#338,#279,#280);
#238=AXIS2_PLACEMENT_3D('',#351,#287,#288);
#239=AXIS2_PLACEMENT_3D('',#354,#291,#292);
#240=AXIS2_PLACEMENT_3D('',#356,#294,#295);
#241=AXIS2_PLACEMENT_3D('',#358,#297,#298);
#242=AXIS2_PLACEMENT_3D('',#360,#300,#301);
#243=AXIS2_PLACEMENT_3D('',#362,#303,#304);
#244=DIRECTION('axis',(0.,0.,1.));
#245=DIRECTION('refdir',(1.,0.,0.));
#246=DIRECTION('center_axis',(0.,0.,1.));
#247=DIRECTION('ref_axis',(1.,0.,0.));
#248=DIRECTION('center_axis',(0.,0.,-1.));
#249=DIRECTION('ref_axis',(-1.,0.,0.));
#250=DIRECTION('center_axis',(1.22464679914735E-16,-1.,0.));
#251=DIRECTION('ref_axis',(-1.,-1.22464679914735E-16,0.));
#252=DIRECTION('center_axis',(0.,0.,1.));
#253=DIRECTION('ref_axis',(-1.,0.,0.));
#254=DIRECTION('center_axis',(0.,0.,-1.));
#255=DIRECTION('ref_axis',(-1.,0.,0.));
#256=DIRECTION('center_axis',(0.,0.,1.));
#257=DIRECTION('ref_axis',(-1.,0.,0.));
#258=DIRECTION('center_axis',(0.,0.,1.));
#259=DIRECTION('ref_axis',(-1.,0.,0.));
#260=DIRECTION('',(0.,0.,-1.));
#261=DIRECTION('center_axis',(0.,0.,1.));
#262=DIRECTION('ref_axis',(-1.,0.,0.));
#263=DIRECTION('center_axis',(0.,0.,1.));
#264=DIRECTION('ref_axis',(-1.,0.,0.));
#265=DIRECTION('',(-9.91270557701033E-16,-1.,0.));
#266=DIRECTION('',(0.866025403784438,-0.5,0.));
#267=DIRECTION('',(0.866025403784439,0.5,0.));
#268=DIRECTION('',(3.96508223080413E-16,1.,0.));
#269=DIRECTION('',(-0.866025403784439,0.5,0.));
#270=DIRECTION('',(-0.866025403784439,-0.5,0.));
#271=DIRECTION('center_axis',(0.,0.,1.));
#272=DIRECTION('ref_axis',(1.,0.,0.));
#273=DIRECTION('center_axis',(0.,0.,-1.));
#274=DIRECTION('ref_axis',(-1.,0.,0.));
#275=DIRECTION('center_axis',(1.22464679914735E-16,-1.,0.));
#276=DIRECTION('ref_axis',(-1.,-1.22464679914735E-16,0.));
#277=DIRECTION('center_axis',(0.,0.,1.));
#278=DIRECTION('ref_axis',(-1.,0.,0.));
#279=DIRECTION('center_axis',(0.,0.,1.));
#280=DIRECTION('ref_axis',(-1.,0.,0.));
#281=DIRECTION('',(0.866025403784438,-0.5,0.));
#282=DIRECTION('',(-9.91270557701033E-16,-1.,0.));
#283=DIRECTION('',(-0.866025403784439,-0.5,0.));
#284=DIRECTION('',(-0.866025403784439,0.5,0.));
#285=DIRECTION('',(3.96508223080413E-16,1.,0.));
#286=DIRECTION('',(0.866025403784439,0.5,0.));
#287=DIRECTION('center_axis',(0.5,0.866025403784439,0.));
#288=DIRECTION('ref_axis',(-0.866025403784438,0.5,0.));
#289=DIRECTION('',(0.,0.,1.));
#290=DIRECTION('',(0.,0.,1.));
#291=DIRECTION('center_axis',(-0.5,0.866025403784439,0.));
#292=DIRECTION('ref_axis',(-0.866025403784439,-0.5,0.));
#293=DIRECTION('',(0.,0.,1.));
#294=DIRECTION('center_axis',(-1.,3.96508223080413E-16,0.));
#295=DIRECTION('ref_axis',(-3.96508223080413E-16,-1.,0.));
#296=DIRECTION('',(0.,0.,1.));
#297=DIRECTION('center_axis',(-0.5,-0.866025403784439,0.));
#298=DIRECTION('ref_axis',(0.866025403784439,-0.5,0.));
#299=DIRECTION('',(0.,0.,-1.));
#300=DIRECTION('center_axis',(0.5,-0.866025403784439,0.));
#301=DIRECTION('ref_axis',(0.866025403784439,0.5,0.));
#302=DIRECTION('',(0.,0.,1.));
#303=DIRECTION('center_axis',(1.,-9.91270557701033E-16,0.));
#304=DIRECTION('ref_axis',(9.91270557701033E-16,1.,0.));
#305=CARTESIAN_POINT('',(0.,0.,0.));
#306=CARTESIAN_POINT('Origin',(0.,0.,55.003));
#307=CARTESIAN_POINT('',(7.9094010767585,-9.68622271182493E-16,55.003));
#308=CARTESIAN_POINT('',(-7.9094010767585,-9.68622271182493E-16,55.003));
#309=CARTESIAN_POINT('Origin',(0.,0.,55.003));
#310=CARTESIAN_POINT('',(-6.9094010767585,-8.46157591267758E-16,54.003));
#311=CARTESIAN_POINT('Origin',(-6.9094010767585,-8.46157591267758E-16,55.003));
#312=CARTESIAN_POINT('Origin',(0.,0.,54.003));
#313=CARTESIAN_POINT('Origin',(0.,0.,55.003));
#314=CARTESIAN_POINT('Origin',(0.,0.,54.003));
#315=CARTESIAN_POINT('',(7.9094010767585,9.68622271182493E-16,132.003));
#316=CARTESIAN_POINT('',(-7.9094010767585,-9.68622271182493E-16,132.003));
#317=CARTESIAN_POINT('Origin',(0.,0.,132.003));
#318=CARTESIAN_POINT('',(7.9094010767585,9.68622271182493E-16,54.003));
#319=CARTESIAN_POINT('Origin',(0.,0.,132.003));
#320=CARTESIAN_POINT('Origin',(0.,0.,54.003));
#321=CARTESIAN_POINT('',(-4.94974226119286,-2.85773502691896,54.003));
#322=CARTESIAN_POINT('',(-4.94974226119285,2.85773502691896,54.003));
#323=CARTESIAN_POINT('',(-4.94974226119286,-1.4,54.003));
#324=CARTESIAN_POINT('',(-1.57859836313889E-15,-5.71547005383792,54.003));
#325=CARTESIAN_POINT('',(-1.26243556529822,-4.98660254037844,54.003));
#326=CARTESIAN_POINT('',(4.94974226119286,-2.85773502691896,54.003));
#327=CARTESIAN_POINT('',(3.68730669589464,-3.58660254037844,54.003));
#328=CARTESIAN_POINT('',(4.94974226119286,2.85773502691896,54.003));
#329=CARTESIAN_POINT('',(4.94974226119286,1.4,54.003));
#330=CARTESIAN_POINT('',(2.13370987545147E-15,5.71547005383792,54.003));
#331=CARTESIAN_POINT('',(1.26243556529821,4.98660254037844,54.003));
#332=CARTESIAN_POINT('',(-3.68730669589464,3.58660254037845,54.003));
#333=CARTESIAN_POINT('Origin',(0.,0.,132.003));
#334=CARTESIAN_POINT('',(-6.9094010767585,-8.46157591267758E-16,133.003));
#335=CARTESIAN_POINT('Origin',(0.,0.,133.003));
#336=CARTESIAN_POINT('Origin',(-6.9094010767585,-8.46157591267758E-16,132.003));
#337=CARTESIAN_POINT('Origin',(0.,0.,133.003));
#338=CARTESIAN_POINT('Origin',(0.,0.,59.003));
#339=CARTESIAN_POINT('',(-1.5728159515523E-15,-5.71547005383792,59.003));
#340=CARTESIAN_POINT('',(-4.94974226119286,-2.85773502691896,59.003));
#341=CARTESIAN_POINT('',(-1.26243556529822,-4.98660254037844,59.003));
#342=CARTESIAN_POINT('',(-4.94974226119285,2.85773502691896,59.003));
#343=CARTESIAN_POINT('',(-4.94974226119286,-1.4,59.003));
#344=CARTESIAN_POINT('',(2.13949228703806E-15,5.71547005383792,59.003));
#345=CARTESIAN_POINT('',(-3.68730669589464,3.58660254037845,59.003));
#346=CARTESIAN_POINT('',(4.94974226119286,2.85773502691896,59.003));
#347=CARTESIAN_POINT('',(1.26243556529821,4.98660254037844,59.003));
#348=CARTESIAN_POINT('',(4.94974226119286,-2.85773502691896,59.003));
#349=CARTESIAN_POINT('',(4.94974226119286,1.4,59.003));
#350=CARTESIAN_POINT('',(3.68730669589464,-3.58660254037844,59.003));
#351=CARTESIAN_POINT('Origin',(-0.0500000000000006,-5.68660254037844,54.003));
#352=CARTESIAN_POINT('',(-4.94974226119286,-2.85773502691896,54.003));
#353=CARTESIAN_POINT('',(-1.94289029309402E-15,-5.71547005383793,54.003));
#354=CARTESIAN_POINT('Origin',(4.89974226119286,-2.88660254037844,54.003));
#355=CARTESIAN_POINT('',(4.94974226119286,-2.85773502691896,54.003));
#356=CARTESIAN_POINT('Origin',(4.94974226119286,2.8,54.003));
#357=CARTESIAN_POINT('',(4.94974226119286,2.85773502691896,54.003));
#358=CARTESIAN_POINT('Origin',(0.0500000000000011,5.68660254037844,54.003));
#359=CARTESIAN_POINT('',(2.22044604925031E-15,5.71547005383792,54.003));
#360=CARTESIAN_POINT('Origin',(-4.89974226119285,2.88660254037845,54.003));
#361=CARTESIAN_POINT('',(-4.94974226119285,2.85773502691897,54.003));
#362=CARTESIAN_POINT('Origin',(-4.94974226119286,-2.8,54.003));
#363=UNCERTAINTY_MEASURE_WITH_UNIT(LENGTH_MEASURE(0.01),#367,
'DISTANCE_ACCURACY_VALUE',
'Maximum model space distance between geometric entities at asserted c
onnectivities');
#364=UNCERTAINTY_MEASURE_WITH_UNIT(LENGTH_MEASURE(0.01),#367,
'DISTANCE_ACCURACY_VALUE',
'Maximum model space distance between geometric entities at asserted c
onnectivities');
#365=(
GEOMETRIC_REPRESENTATION_CONTEXT(3)
GLOBAL_UNCERTAINTY_ASSIGNED_CONTEXT((#363))
GLOBAL_UNIT_ASSIGNED_CONTEXT((#367,#369,#370))
REPRESENTATION_CONTEXT('','3D')
);
#366=(
GEOMETRIC_REPRESENTATION_CONTEXT(3)
GLOBAL_UNCERTAINTY_ASSIGNED_CONTEXT((#364))
GLOBAL_UNIT_ASSIGNED_CONTEXT((#367,#369,#370))
REPRESENTATION_CONTEXT('','3D')
);
#367=(
LENGTH_UNIT()
NAMED_UNIT(*)
SI_UNIT(.MILLI.,.METRE.)
);
#368=(
LENGTH_UNIT()
NAMED_UNIT(*)
SI_UNIT($,.METRE.)
);
#369=(
NAMED_UNIT(*)
PLANE_ANGLE_UNIT()
SI_UNIT($,.RADIAN.)
);
#370=(
NAMED_UNIT(*)
SI_UNIT($,.STERADIAN.)
SOLID_ANGLE_UNIT()
);
#371=SHAPE_DEFINITION_REPRESENTATION(#372,#373);
#372=PRODUCT_DEFINITION_SHAPE('',$,#375);
#373=SHAPE_REPRESENTATION('',(#223),#365);
#374=PRODUCT_DEFINITION_CONTEXT('part definition',#379,'design');
#375=PRODUCT_DEFINITION('TOOL','TOOL',#376,#374);
#376=PRODUCT_DEFINITION_FORMATION('',$,#381);
#377=PRODUCT_RELATED_PRODUCT_CATEGORY('TOOL','TOOL',(#381));
#378=APPLICATION_PROTOCOL_DEFINITION('international standard',
'automotive_design',2009,#379);
#379=APPLICATION_CONTEXT(
'Core Data for Automotive Mechanical Design Process');
#380=PRODUCT_CONTEXT('part definition',#379,'mechanical');
#381=PRODUCT('TOOL','TOOL',$,(#380));
#382=PRESENTATION_STYLE_ASSIGNMENT((#383));
#383=SURFACE_STYLE_USAGE(.BOTH.,#384);
#384=SURFACE_SIDE_STYLE('',(#385));
#385=SURFACE_STYLE_FILL_AREA(#386);
#386=FILL_AREA_STYLE('Steel - Satin',(#387));
#387=FILL_AREA_STYLE_COLOUR('Steel - Satin',#388);
#388=COLOUR_RGB('Steel - Satin',0.627450980392157,0.627450980392157,0.627450980392157);
ENDSEC;
END-ISO-10303-21;
