ISO-10303-21;
HEADER;
/* Generated by software containing ST-Developer
 * from STEP Tools, Inc. (www.steptools.com) 
 */

FILE_DESCRIPTION(
/* description */ (''),
/* implementation_level */ '2;1');

FILE_NAME(
/* name */ 'CUP HANDLE.step',
/* time_stamp */ '2026-03-23T18:09:44-05:00',
/* author */ (''),
/* organization */ (''),
/* preprocessor_version */ 'ST-DEVELOPER v20.1',
/* originating_system */ 'Autodesk Translation Framework v14.24.0.0',
/* authorisation */ '');

FILE_SCHEMA (('AUTOMOTIVE_DESIGN { 1 0 10303 214 3 1 1 }'));
ENDSEC;

DATA;
#10=MECHANICAL_DESIGN_GEOMETRIC_PRESENTATION_REPRESENTATION('',(#13),#718);
#11=SHAPE_REPRESENTATION_RELATIONSHIP('SRR','None',#725,#12);
#12=ADVANCED_BREP_SHAPE_REPRESENTATION('',(#14),#717);
#13=STYLED_ITEM('',(#735),#14);
#14=MANIFOLD_SOLID_BREP('Cup Handle',#395);
#15=FACE_BOUND('',#64,.T.);
#16=FACE_BOUND('',#66,.T.);
#17=FACE_BOUND('',#67,.T.);
#18=FACE_BOUND('',#72,.T.);
#19=PLANE('',#424);
#20=PLANE('',#426);
#21=PLANE('',#440);
#22=PLANE('',#455);
#23=PLANE('',#459);
#24=PLANE('',#462);
#25=PLANE('',#463);
#26=PLANE('',#464);
#27=TOROIDAL_SURFACE('',#412,4.5,0.5);
#28=TOROIDAL_SURFACE('',#418,4.5,0.5);
#29=TOROIDAL_SURFACE('',#431,8.,0.5);
#30=TOROIDAL_SURFACE('',#437,8.,0.5);
#31=TOROIDAL_SURFACE('',#445,4.5,0.5);
#32=TOROIDAL_SURFACE('',#450,4.5,0.5);
#33=FACE_OUTER_BOUND('',#58,.T.);
#34=FACE_OUTER_BOUND('',#59,.T.);
#35=FACE_OUTER_BOUND('',#60,.T.);
#36=FACE_OUTER_BOUND('',#61,.T.);
#37=FACE_OUTER_BOUND('',#62,.T.);
#38=FACE_OUTER_BOUND('',#63,.T.);
#39=FACE_OUTER_BOUND('',#65,.T.);
#40=FACE_OUTER_BOUND('',#68,.T.);
#41=FACE_OUTER_BOUND('',#69,.T.);
#42=FACE_OUTER_BOUND('',#70,.T.);
#43=FACE_OUTER_BOUND('',#71,.T.);
#44=FACE_OUTER_BOUND('',#73,.T.);
#45=FACE_OUTER_BOUND('',#74,.T.);
#46=FACE_OUTER_BOUND('',#75,.T.);
#47=FACE_OUTER_BOUND('',#76,.T.);
#48=FACE_OUTER_BOUND('',#77,.T.);
#49=FACE_OUTER_BOUND('',#78,.T.);
#50=FACE_OUTER_BOUND('',#79,.T.);
#51=FACE_OUTER_BOUND('',#80,.T.);
#52=FACE_OUTER_BOUND('',#81,.T.);
#53=FACE_OUTER_BOUND('',#82,.T.);
#54=FACE_OUTER_BOUND('',#83,.T.);
#55=FACE_OUTER_BOUND('',#84,.T.);
#56=FACE_OUTER_BOUND('',#85,.T.);
#57=FACE_OUTER_BOUND('',#86,.T.);
#58=EDGE_LOOP('',(#251,#252,#253,#254));
#59=EDGE_LOOP('',(#255,#256,#257,#258));
#60=EDGE_LOOP('',(#259,#260,#261,#262));
#61=EDGE_LOOP('',(#263,#264,#265,#266));
#62=EDGE_LOOP('',(#267,#268,#269,#270));
#63=EDGE_LOOP('',(#271,#272,#273,#274,#275,#276));
#64=EDGE_LOOP('',(#277));
#65=EDGE_LOOP('',(#278,#279,#280,#281,#282,#283,#284,#285));
#66=EDGE_LOOP('',(#286));
#67=EDGE_LOOP('',(#287));
#68=EDGE_LOOP('',(#288,#289,#290,#291,#292));
#69=EDGE_LOOP('',(#293,#294,#295,#296,#297));
#70=EDGE_LOOP('',(#298,#299,#300,#301));
#71=EDGE_LOOP('',(#302,#303,#304,#305,#306,#307));
#72=EDGE_LOOP('',(#308));
#73=EDGE_LOOP('',(#309,#310,#311,#312));
#74=EDGE_LOOP('',(#313,#314,#315,#316));
#75=EDGE_LOOP('',(#317,#318,#319,#320));
#76=EDGE_LOOP('',(#321,#322,#323,#324));
#77=EDGE_LOOP('',(#325,#326,#327,#328));
#78=EDGE_LOOP('',(#329,#330,#331,#332));
#79=EDGE_LOOP('',(#333,#334,#335,#336));
#80=EDGE_LOOP('',(#337,#338,#339,#340));
#81=EDGE_LOOP('',(#341,#342,#343,#344));
#82=EDGE_LOOP('',(#345));
#83=EDGE_LOOP('',(#346,#347,#348,#349));
#84=EDGE_LOOP('',(#350));
#85=EDGE_LOOP('',(#351,#352,#353,#354));
#86=EDGE_LOOP('',(#355,#356,#357,#358));
#87=LINE('',#608,#110);
#88=LINE('',#611,#111);
#89=LINE('',#622,#112);
#90=LINE('',#623,#113);
#91=LINE('',#634,#114);
#92=LINE('',#635,#115);
#93=LINE('',#637,#116);
#94=LINE('',#642,#117);
#95=LINE('',#646,#118);
#96=LINE('',#649,#119);
#97=LINE('',#663,#120);
#98=LINE('',#670,#121);
#99=LINE('',#674,#122);
#100=LINE('',#677,#123);
#101=LINE('',#681,#124);
#102=LINE('',#689,#125);
#103=LINE('',#695,#126);
#104=LINE('',#697,#127);
#105=LINE('',#698,#128);
#106=LINE('',#700,#129);
#107=LINE('',#702,#130);
#108=LINE('',#705,#131);
#109=LINE('',#710,#132);
#110=VECTOR('',#471,10.);
#111=VECTOR('',#474,10.);
#112=VECTOR('',#487,10.);
#113=VECTOR('',#488,10.);
#114=VECTOR('',#501,10.);
#115=VECTOR('',#502,10.);
#116=VECTOR('',#505,10.);
#117=VECTOR('',#510,10.);
#118=VECTOR('',#513,10.);
#119=VECTOR('',#516,10.);
#120=VECTOR('',#533,7.5);
#121=VECTOR('',#542,10.);
#122=VECTOR('',#545,10.);
#123=VECTOR('',#548,10.);
#124=VECTOR('',#553,10.);
#125=VECTOR('',#564,10.);
#126=VECTOR('',#573,10.);
#127=VECTOR('',#576,10.);
#128=VECTOR('',#577,10.);
#129=VECTOR('',#580,10.);
#130=VECTOR('',#583,10.);
#131=VECTOR('',#586,2.25);
#132=VECTOR('',#593,2.25);
#133=CIRCLE('',#410,0.5);
#134=CIRCLE('',#411,0.5);
#135=CIRCLE('',#413,0.500000000000003);
#136=CIRCLE('',#414,5.);
#137=CIRCLE('',#415,4.5);
#138=CIRCLE('',#417,0.5);
#139=CIRCLE('',#419,0.5);
#140=CIRCLE('',#420,5.);
#141=CIRCLE('',#421,4.5);
#142=CIRCLE('',#423,0.5);
#143=CIRCLE('',#425,8.);
#144=CIRCLE('',#427,0.5);
#145=CIRCLE('',#428,0.5);
#146=CIRCLE('',#429,2.25);
#147=CIRCLE('',#430,2.25);
#148=CIRCLE('',#432,0.5);
#149=CIRCLE('',#433,7.5);
#150=CIRCLE('',#434,7.5);
#151=CIRCLE('',#436,7.5);
#152=CIRCLE('',#438,8.);
#153=CIRCLE('',#439,0.5);
#154=CIRCLE('',#441,4.5);
#155=CIRCLE('',#442,4.5);
#156=CIRCLE('',#444,0.5);
#157=CIRCLE('',#446,0.5);
#158=CIRCLE('',#447,5.);
#159=CIRCLE('',#449,0.5);
#160=CIRCLE('',#451,0.500000000000007);
#161=CIRCLE('',#452,5.);
#162=CIRCLE('',#458,2.25);
#163=CIRCLE('',#461,2.25);
#164=VERTEX_POINT('',#604);
#165=VERTEX_POINT('',#605);
#166=VERTEX_POINT('',#607);
#167=VERTEX_POINT('',#609);
#168=VERTEX_POINT('',#613);
#169=VERTEX_POINT('',#614);
#170=VERTEX_POINT('',#619);
#171=VERTEX_POINT('',#620);
#172=VERTEX_POINT('',#625);
#173=VERTEX_POINT('',#626);
#174=VERTEX_POINT('',#631);
#175=VERTEX_POINT('',#632);
#176=VERTEX_POINT('',#638);
#177=VERTEX_POINT('',#641);
#178=VERTEX_POINT('',#643);
#179=VERTEX_POINT('',#645);
#180=VERTEX_POINT('',#647);
#181=VERTEX_POINT('',#650);
#182=VERTEX_POINT('',#652);
#183=VERTEX_POINT('',#655);
#184=VERTEX_POINT('',#657);
#185=VERTEX_POINT('',#661);
#186=VERTEX_POINT('',#665);
#187=VERTEX_POINT('',#669);
#188=VERTEX_POINT('',#671);
#189=VERTEX_POINT('',#673);
#190=VERTEX_POINT('',#675);
#191=VERTEX_POINT('',#679);
#192=VERTEX_POINT('',#683);
#193=VERTEX_POINT('',#687);
#194=VERTEX_POINT('',#691);
#195=VERTEX_POINT('',#704);
#196=VERTEX_POINT('',#709);
#197=EDGE_CURVE('',#164,#165,#133,.T.);
#198=EDGE_CURVE('',#165,#166,#87,.T.);
#199=EDGE_CURVE('',#166,#167,#134,.T.);
#200=EDGE_CURVE('',#167,#164,#88,.T.);
#201=EDGE_CURVE('',#168,#169,#135,.T.);
#202=EDGE_CURVE('',#169,#167,#136,.T.);
#203=EDGE_CURVE('',#166,#168,#137,.T.);
#204=EDGE_CURVE('',#170,#171,#138,.T.);
#205=EDGE_CURVE('',#171,#169,#89,.T.);
#206=EDGE_CURVE('',#168,#170,#90,.T.);
#207=EDGE_CURVE('',#172,#173,#139,.T.);
#208=EDGE_CURVE('',#173,#171,#140,.T.);
#209=EDGE_CURVE('',#170,#172,#141,.T.);
#210=EDGE_CURVE('',#174,#175,#142,.T.);
#211=EDGE_CURVE('',#175,#173,#91,.T.);
#212=EDGE_CURVE('',#172,#174,#92,.T.);
#213=EDGE_CURVE('',#165,#174,#93,.T.);
#214=EDGE_CURVE('',#176,#176,#143,.T.);
#215=EDGE_CURVE('',#177,#164,#94,.T.);
#216=EDGE_CURVE('',#178,#177,#144,.T.);
#217=EDGE_CURVE('',#179,#178,#95,.T.);
#218=EDGE_CURVE('',#180,#179,#145,.T.);
#219=EDGE_CURVE('',#175,#180,#96,.T.);
#220=EDGE_CURVE('',#181,#181,#146,.T.);
#221=EDGE_CURVE('',#182,#182,#147,.T.);
#222=EDGE_CURVE('',#176,#183,#148,.T.);
#223=EDGE_CURVE('',#183,#184,#149,.T.);
#224=EDGE_CURVE('',#184,#183,#150,.T.);
#225=EDGE_CURVE('',#185,#185,#151,.T.);
#226=EDGE_CURVE('',#185,#184,#97,.T.);
#227=EDGE_CURVE('',#186,#186,#152,.T.);
#228=EDGE_CURVE('',#186,#185,#153,.T.);
#229=EDGE_CURVE('',#187,#178,#98,.T.);
#230=EDGE_CURVE('',#188,#187,#154,.T.);
#231=EDGE_CURVE('',#189,#188,#99,.T.);
#232=EDGE_CURVE('',#190,#189,#155,.T.);
#233=EDGE_CURVE('',#179,#190,#100,.T.);
#234=EDGE_CURVE('',#190,#191,#156,.T.);
#235=EDGE_CURVE('',#191,#180,#101,.T.);
#236=EDGE_CURVE('',#189,#192,#157,.T.);
#237=EDGE_CURVE('',#192,#191,#158,.T.);
#238=EDGE_CURVE('',#188,#193,#159,.T.);
#239=EDGE_CURVE('',#193,#192,#102,.T.);
#240=EDGE_CURVE('',#187,#194,#160,.T.);
#241=EDGE_CURVE('',#194,#193,#161,.T.);
#242=EDGE_CURVE('',#177,#194,#103,.T.);
#243=EDGE_CURVE('',#173,#191,#104,.T.);
#244=EDGE_CURVE('',#192,#171,#105,.T.);
#245=EDGE_CURVE('',#169,#193,#106,.T.);
#246=EDGE_CURVE('',#194,#167,#107,.T.);
#247=EDGE_CURVE('',#181,#195,#108,.T.);
#248=EDGE_CURVE('',#195,#195,#162,.T.);
#249=EDGE_CURVE('',#182,#196,#109,.T.);
#250=EDGE_CURVE('',#196,#196,#163,.T.);
#251=ORIENTED_EDGE('',*,*,#197,.T.);
#252=ORIENTED_EDGE('',*,*,#198,.T.);
#253=ORIENTED_EDGE('',*,*,#199,.T.);
#254=ORIENTED_EDGE('',*,*,#200,.T.);
#255=ORIENTED_EDGE('',*,*,#201,.T.);
#256=ORIENTED_EDGE('',*,*,#202,.T.);
#257=ORIENTED_EDGE('',*,*,#199,.F.);
#258=ORIENTED_EDGE('',*,*,#203,.T.);
#259=ORIENTED_EDGE('',*,*,#204,.T.);
#260=ORIENTED_EDGE('',*,*,#205,.T.);
#261=ORIENTED_EDGE('',*,*,#201,.F.);
#262=ORIENTED_EDGE('',*,*,#206,.T.);
#263=ORIENTED_EDGE('',*,*,#207,.T.);
#264=ORIENTED_EDGE('',*,*,#208,.T.);
#265=ORIENTED_EDGE('',*,*,#204,.F.);
#266=ORIENTED_EDGE('',*,*,#209,.T.);
#267=ORIENTED_EDGE('',*,*,#210,.T.);
#268=ORIENTED_EDGE('',*,*,#211,.T.);
#269=ORIENTED_EDGE('',*,*,#207,.F.);
#270=ORIENTED_EDGE('',*,*,#212,.T.);
#271=ORIENTED_EDGE('',*,*,#212,.F.);
#272=ORIENTED_EDGE('',*,*,#209,.F.);
#273=ORIENTED_EDGE('',*,*,#206,.F.);
#274=ORIENTED_EDGE('',*,*,#203,.F.);
#275=ORIENTED_EDGE('',*,*,#198,.F.);
#276=ORIENTED_EDGE('',*,*,#213,.T.);
#277=ORIENTED_EDGE('',*,*,#214,.F.);
#278=ORIENTED_EDGE('',*,*,#210,.F.);
#279=ORIENTED_EDGE('',*,*,#213,.F.);
#280=ORIENTED_EDGE('',*,*,#197,.F.);
#281=ORIENTED_EDGE('',*,*,#215,.F.);
#282=ORIENTED_EDGE('',*,*,#216,.F.);
#283=ORIENTED_EDGE('',*,*,#217,.F.);
#284=ORIENTED_EDGE('',*,*,#218,.F.);
#285=ORIENTED_EDGE('',*,*,#219,.F.);
#286=ORIENTED_EDGE('',*,*,#220,.T.);
#287=ORIENTED_EDGE('',*,*,#221,.T.);
#288=ORIENTED_EDGE('',*,*,#214,.T.);
#289=ORIENTED_EDGE('',*,*,#222,.T.);
#290=ORIENTED_EDGE('',*,*,#223,.T.);
#291=ORIENTED_EDGE('',*,*,#224,.T.);
#292=ORIENTED_EDGE('',*,*,#222,.F.);
#293=ORIENTED_EDGE('',*,*,#225,.F.);
#294=ORIENTED_EDGE('',*,*,#226,.T.);
#295=ORIENTED_EDGE('',*,*,#223,.F.);
#296=ORIENTED_EDGE('',*,*,#224,.F.);
#297=ORIENTED_EDGE('',*,*,#226,.F.);
#298=ORIENTED_EDGE('',*,*,#227,.T.);
#299=ORIENTED_EDGE('',*,*,#228,.T.);
#300=ORIENTED_EDGE('',*,*,#225,.T.);
#301=ORIENTED_EDGE('',*,*,#228,.F.);
#302=ORIENTED_EDGE('',*,*,#229,.F.);
#303=ORIENTED_EDGE('',*,*,#230,.F.);
#304=ORIENTED_EDGE('',*,*,#231,.F.);
#305=ORIENTED_EDGE('',*,*,#232,.F.);
#306=ORIENTED_EDGE('',*,*,#233,.F.);
#307=ORIENTED_EDGE('',*,*,#217,.T.);
#308=ORIENTED_EDGE('',*,*,#227,.F.);
#309=ORIENTED_EDGE('',*,*,#218,.T.);
#310=ORIENTED_EDGE('',*,*,#233,.T.);
#311=ORIENTED_EDGE('',*,*,#234,.T.);
#312=ORIENTED_EDGE('',*,*,#235,.T.);
#313=ORIENTED_EDGE('',*,*,#236,.T.);
#314=ORIENTED_EDGE('',*,*,#237,.T.);
#315=ORIENTED_EDGE('',*,*,#234,.F.);
#316=ORIENTED_EDGE('',*,*,#232,.T.);
#317=ORIENTED_EDGE('',*,*,#238,.T.);
#318=ORIENTED_EDGE('',*,*,#239,.T.);
#319=ORIENTED_EDGE('',*,*,#236,.F.);
#320=ORIENTED_EDGE('',*,*,#231,.T.);
#321=ORIENTED_EDGE('',*,*,#240,.T.);
#322=ORIENTED_EDGE('',*,*,#241,.T.);
#323=ORIENTED_EDGE('',*,*,#238,.F.);
#324=ORIENTED_EDGE('',*,*,#230,.T.);
#325=ORIENTED_EDGE('',*,*,#216,.T.);
#326=ORIENTED_EDGE('',*,*,#242,.T.);
#327=ORIENTED_EDGE('',*,*,#240,.F.);
#328=ORIENTED_EDGE('',*,*,#229,.T.);
#329=ORIENTED_EDGE('',*,*,#208,.F.);
#330=ORIENTED_EDGE('',*,*,#243,.T.);
#331=ORIENTED_EDGE('',*,*,#237,.F.);
#332=ORIENTED_EDGE('',*,*,#244,.T.);
#333=ORIENTED_EDGE('',*,*,#205,.F.);
#334=ORIENTED_EDGE('',*,*,#244,.F.);
#335=ORIENTED_EDGE('',*,*,#239,.F.);
#336=ORIENTED_EDGE('',*,*,#245,.F.);
#337=ORIENTED_EDGE('',*,*,#202,.F.);
#338=ORIENTED_EDGE('',*,*,#245,.T.);
#339=ORIENTED_EDGE('',*,*,#241,.F.);
#340=ORIENTED_EDGE('',*,*,#246,.T.);
#341=ORIENTED_EDGE('',*,*,#220,.F.);
#342=ORIENTED_EDGE('',*,*,#247,.T.);
#343=ORIENTED_EDGE('',*,*,#248,.T.);
#344=ORIENTED_EDGE('',*,*,#247,.F.);
#345=ORIENTED_EDGE('',*,*,#248,.F.);
#346=ORIENTED_EDGE('',*,*,#221,.F.);
#347=ORIENTED_EDGE('',*,*,#249,.T.);
#348=ORIENTED_EDGE('',*,*,#250,.T.);
#349=ORIENTED_EDGE('',*,*,#249,.F.);
#350=ORIENTED_EDGE('',*,*,#250,.F.);
#351=ORIENTED_EDGE('',*,*,#211,.F.);
#352=ORIENTED_EDGE('',*,*,#219,.T.);
#353=ORIENTED_EDGE('',*,*,#235,.F.);
#354=ORIENTED_EDGE('',*,*,#243,.F.);
#355=ORIENTED_EDGE('',*,*,#200,.F.);
#356=ORIENTED_EDGE('',*,*,#246,.F.);
#357=ORIENTED_EDGE('',*,*,#242,.F.);
#358=ORIENTED_EDGE('',*,*,#215,.T.);
#359=CYLINDRICAL_SURFACE('',#409,0.5);
#360=CYLINDRICAL_SURFACE('',#416,0.5);
#361=CYLINDRICAL_SURFACE('',#422,0.5);
#362=CYLINDRICAL_SURFACE('',#435,7.5);
#363=CYLINDRICAL_SURFACE('',#443,0.5);
#364=CYLINDRICAL_SURFACE('',#448,0.5);
#365=CYLINDRICAL_SURFACE('',#453,0.5);
#366=CYLINDRICAL_SURFACE('',#454,5.);
#367=CYLINDRICAL_SURFACE('',#456,5.);
#368=CYLINDRICAL_SURFACE('',#457,2.25);
#369=CYLINDRICAL_SURFACE('',#460,2.25);
#370=ADVANCED_FACE('',(#33),#359,.T.);
#371=ADVANCED_FACE('',(#34),#27,.T.);
#372=ADVANCED_FACE('',(#35),#360,.T.);
#373=ADVANCED_FACE('',(#36),#28,.T.);
#374=ADVANCED_FACE('',(#37),#361,.T.);
#375=ADVANCED_FACE('',(#38,#15),#19,.T.);
#376=ADVANCED_FACE('',(#39,#16,#17),#20,.F.);
#377=ADVANCED_FACE('',(#40),#29,.T.);
#378=ADVANCED_FACE('',(#41),#362,.F.);
#379=ADVANCED_FACE('',(#42),#30,.T.);
#380=ADVANCED_FACE('',(#43,#18),#21,.T.);
#381=ADVANCED_FACE('',(#44),#363,.T.);
#382=ADVANCED_FACE('',(#45),#31,.T.);
#383=ADVANCED_FACE('',(#46),#364,.T.);
#384=ADVANCED_FACE('',(#47),#32,.T.);
#385=ADVANCED_FACE('',(#48),#365,.T.);
#386=ADVANCED_FACE('',(#49),#366,.T.);
#387=ADVANCED_FACE('',(#50),#22,.T.);
#388=ADVANCED_FACE('',(#51),#367,.T.);
#389=ADVANCED_FACE('',(#52),#368,.F.);
#390=ADVANCED_FACE('',(#53),#23,.F.);
#391=ADVANCED_FACE('',(#54),#369,.F.);
#392=ADVANCED_FACE('',(#55),#24,.F.);
#393=ADVANCED_FACE('',(#56),#25,.T.);
#394=ADVANCED_FACE('',(#57),#26,.T.);
#395=CLOSED_SHELL('',(#370,#371,#372,#373,#374,#375,#376,#377,#378,#379,
#380,#381,#382,#383,#384,#385,#386,#387,#388,#389,#390,#391,#392,#393,#394));
#396=DERIVED_UNIT_ELEMENT(#398,1.);
#397=DERIVED_UNIT_ELEMENT(#720,-3.);
#398=(
MASS_UNIT()
NAMED_UNIT(*)
SI_UNIT(.KILO.,.GRAM.)
);
#399=DERIVED_UNIT((#396,#397));
#400=MEASURE_REPRESENTATION_ITEM('density measure',
POSITIVE_RATIO_MEASURE(7850.),#399);
#401=PROPERTY_DEFINITION_REPRESENTATION(#406,#403);
#402=PROPERTY_DEFINITION_REPRESENTATION(#407,#404);
#403=REPRESENTATION('material name',(#405),#717);
#404=REPRESENTATION('density',(#400),#717);
#405=DESCRIPTIVE_REPRESENTATION_ITEM('Steel','Steel');
#406=PROPERTY_DEFINITION('material property','material name',#727);
#407=PROPERTY_DEFINITION('material property','density of part',#727);
#408=AXIS2_PLACEMENT_3D('',#602,#465,#466);
#409=AXIS2_PLACEMENT_3D('',#603,#467,#468);
#410=AXIS2_PLACEMENT_3D('',#606,#469,#470);
#411=AXIS2_PLACEMENT_3D('',#610,#472,#473);
#412=AXIS2_PLACEMENT_3D('',#612,#475,#476);
#413=AXIS2_PLACEMENT_3D('',#615,#477,#478);
#414=AXIS2_PLACEMENT_3D('',#616,#479,#480);
#415=AXIS2_PLACEMENT_3D('',#617,#481,#482);
#416=AXIS2_PLACEMENT_3D('',#618,#483,#484);
#417=AXIS2_PLACEMENT_3D('',#621,#485,#486);
#418=AXIS2_PLACEMENT_3D('',#624,#489,#490);
#419=AXIS2_PLACEMENT_3D('',#627,#491,#492);
#420=AXIS2_PLACEMENT_3D('',#628,#493,#494);
#421=AXIS2_PLACEMENT_3D('',#629,#495,#496);
#422=AXIS2_PLACEMENT_3D('',#630,#497,#498);
#423=AXIS2_PLACEMENT_3D('',#633,#499,#500);
#424=AXIS2_PLACEMENT_3D('',#636,#503,#504);
#425=AXIS2_PLACEMENT_3D('',#639,#506,#507);
#426=AXIS2_PLACEMENT_3D('',#640,#508,#509);
#427=AXIS2_PLACEMENT_3D('',#644,#511,#512);
#428=AXIS2_PLACEMENT_3D('',#648,#514,#515);
#429=AXIS2_PLACEMENT_3D('',#651,#517,#518);
#430=AXIS2_PLACEMENT_3D('',#653,#519,#520);
#431=AXIS2_PLACEMENT_3D('',#654,#521,#522);
#432=AXIS2_PLACEMENT_3D('',#656,#523,#524);
#433=AXIS2_PLACEMENT_3D('',#658,#525,#526);
#434=AXIS2_PLACEMENT_3D('',#659,#527,#528);
#435=AXIS2_PLACEMENT_3D('',#660,#529,#530);
#436=AXIS2_PLACEMENT_3D('',#662,#531,#532);
#437=AXIS2_PLACEMENT_3D('',#664,#534,#535);
#438=AXIS2_PLACEMENT_3D('',#666,#536,#537);
#439=AXIS2_PLACEMENT_3D('',#667,#538,#539);
#440=AXIS2_PLACEMENT_3D('',#668,#540,#541);
#441=AXIS2_PLACEMENT_3D('',#672,#543,#544);
#442=AXIS2_PLACEMENT_3D('',#676,#546,#547);
#443=AXIS2_PLACEMENT_3D('',#678,#549,#550);
#444=AXIS2_PLACEMENT_3D('',#680,#551,#552);
#445=AXIS2_PLACEMENT_3D('',#682,#554,#555);
#446=AXIS2_PLACEMENT_3D('',#684,#556,#557);
#447=AXIS2_PLACEMENT_3D('',#685,#558,#559);
#448=AXIS2_PLACEMENT_3D('',#686,#560,#561);
#449=AXIS2_PLACEMENT_3D('',#688,#562,#563);
#450=AXIS2_PLACEMENT_3D('',#690,#565,#566);
#451=AXIS2_PLACEMENT_3D('',#692,#567,#568);
#452=AXIS2_PLACEMENT_3D('',#693,#569,#570);
#453=AXIS2_PLACEMENT_3D('',#694,#571,#572);
#454=AXIS2_PLACEMENT_3D('',#696,#574,#575);
#455=AXIS2_PLACEMENT_3D('',#699,#578,#579);
#456=AXIS2_PLACEMENT_3D('',#701,#581,#582);
#457=AXIS2_PLACEMENT_3D('',#703,#584,#585);
#458=AXIS2_PLACEMENT_3D('',#706,#587,#588);
#459=AXIS2_PLACEMENT_3D('',#707,#589,#590);
#460=AXIS2_PLACEMENT_3D('',#708,#591,#592);
#461=AXIS2_PLACEMENT_3D('',#711,#594,#595);
#462=AXIS2_PLACEMENT_3D('',#712,#596,#597);
#463=AXIS2_PLACEMENT_3D('',#713,#598,#599);
#464=AXIS2_PLACEMENT_3D('',#714,#600,#601);
#465=DIRECTION('axis',(0.,0.,1.));
#466=DIRECTION('refdir',(1.,0.,0.));
#467=DIRECTION('center_axis',(0.,1.,0.));
#468=DIRECTION('ref_axis',(0.707106781186546,0.,-0.707106781186549));
#469=DIRECTION('center_axis',(0.,1.,0.));
#470=DIRECTION('ref_axis',(0.707106781186546,0.,-0.707106781186549));
#471=DIRECTION('',(0.,1.,0.));
#472=DIRECTION('center_axis',(0.,-1.,0.));
#473=DIRECTION('ref_axis',(0.,0.,-1.));
#474=DIRECTION('',(0.,-1.,0.));
#475=DIRECTION('center_axis',(0.,0.,1.));
#476=DIRECTION('ref_axis',(1.,0.,0.));
#477=DIRECTION('center_axis',(1.,0.,0.));
#478=DIRECTION('ref_axis',(0.,0.,-1.));
#479=DIRECTION('center_axis',(0.,0.,-1.));
#480=DIRECTION('ref_axis',(0.707106781186548,0.707106781186547,0.));
#481=DIRECTION('center_axis',(0.,0.,1.));
#482=DIRECTION('ref_axis',(0.707106781186548,0.707106781186547,0.));
#483=DIRECTION('center_axis',(-1.,0.,0.));
#484=DIRECTION('ref_axis',(0.,0.707106781186551,-0.707106781186544));
#485=DIRECTION('center_axis',(1.,0.,0.));
#486=DIRECTION('ref_axis',(0.,0.,-1.));
#487=DIRECTION('',(1.,0.,0.));
#488=DIRECTION('',(-1.,0.,0.));
#489=DIRECTION('center_axis',(0.,0.,1.));
#490=DIRECTION('ref_axis',(1.,0.,0.));
#491=DIRECTION('center_axis',(0.,1.,0.));
#492=DIRECTION('ref_axis',(0.,0.,-1.));
#493=DIRECTION('center_axis',(0.,0.,-1.));
#494=DIRECTION('ref_axis',(-0.707106781186548,0.707106781186547,0.));
#495=DIRECTION('center_axis',(0.,0.,1.));
#496=DIRECTION('ref_axis',(-0.707106781186548,0.707106781186547,0.));
#497=DIRECTION('center_axis',(0.,1.,0.));
#498=DIRECTION('ref_axis',(-0.707106781186549,0.,-0.707106781186546));
#499=DIRECTION('center_axis',(0.,1.,0.));
#500=DIRECTION('ref_axis',(-0.707106781186549,0.,-0.707106781186546));
#501=DIRECTION('',(0.,1.,0.));
#502=DIRECTION('',(0.,-1.,0.));
#503=DIRECTION('center_axis',(0.,0.,-1.));
#504=DIRECTION('ref_axis',(-1.,0.,0.));
#505=DIRECTION('',(-1.,0.,0.));
#506=DIRECTION('center_axis',(0.,0.,-1.));
#507=DIRECTION('ref_axis',(-1.,0.,0.));
#508=DIRECTION('center_axis',(0.,1.,0.));
#509=DIRECTION('ref_axis',(-1.,0.,0.));
#510=DIRECTION('',(-2.77555756156289E-16,0.,-1.));
#511=DIRECTION('center_axis',(0.,1.,0.));
#512=DIRECTION('ref_axis',(0.707106781186546,0.,0.707106781186549));
#513=DIRECTION('',(1.,0.,1.11022302462516E-16));
#514=DIRECTION('center_axis',(0.,1.,0.));
#515=DIRECTION('ref_axis',(-0.707106781186549,0.,0.707106781186546));
#516=DIRECTION('',(0.,0.,1.));
#517=DIRECTION('center_axis',(0.,1.,0.));
#518=DIRECTION('ref_axis',(-1.,0.,0.));
#519=DIRECTION('center_axis',(0.,1.,0.));
#520=DIRECTION('ref_axis',(-1.,0.,0.));
#521=DIRECTION('center_axis',(0.,0.,1.));
#522=DIRECTION('ref_axis',(1.,0.,0.));
#523=DIRECTION('center_axis',(0.,-1.,0.));
#524=DIRECTION('ref_axis',(-1.,0.,0.));
#525=DIRECTION('center_axis',(0.,0.,1.));
#526=DIRECTION('ref_axis',(-1.,0.,0.));
#527=DIRECTION('center_axis',(0.,0.,1.));
#528=DIRECTION('ref_axis',(-1.,0.,0.));
#529=DIRECTION('center_axis',(1.38777878078145E-16,0.,-1.));
#530=DIRECTION('ref_axis',(-1.,0.,-1.38777878078145E-16));
#531=DIRECTION('center_axis',(1.11022302462516E-16,0.,-1.));
#532=DIRECTION('ref_axis',(-1.,0.,-1.11022302462516E-16));
#533=DIRECTION('',(1.38777878078145E-16,0.,-1.));
#534=DIRECTION('center_axis',(1.11022302462516E-16,0.,-1.));
#535=DIRECTION('ref_axis',(-1.,0.,0.));
#536=DIRECTION('center_axis',(-1.11022302462516E-16,0.,1.));
#537=DIRECTION('ref_axis',(-1.,0.,-1.11022302462516E-16));
#538=DIRECTION('center_axis',(0.,-1.,0.));
#539=DIRECTION('ref_axis',(1.,0.,0.));
#540=DIRECTION('center_axis',(-1.11022302462516E-16,0.,1.));
#541=DIRECTION('ref_axis',(1.,0.,1.11022302462516E-16));
#542=DIRECTION('',(0.,-1.,0.));
#543=DIRECTION('center_axis',(1.11022302462516E-16,0.,-1.));
#544=DIRECTION('ref_axis',(0.707106781186548,0.707106781186547,7.85046229341888E-17));
#545=DIRECTION('',(1.,0.,1.11022302462516E-16));
#546=DIRECTION('center_axis',(1.11022302462516E-16,0.,-1.));
#547=DIRECTION('ref_axis',(-0.707106781186548,0.707106781186547,-7.85046229341888E-17));
#548=DIRECTION('',(0.,1.,0.));
#549=DIRECTION('center_axis',(0.,1.,0.));
#550=DIRECTION('ref_axis',(-0.707106781186549,0.,0.707106781186546));
#551=DIRECTION('center_axis',(0.,-1.,0.));
#552=DIRECTION('ref_axis',(0.,0.,1.));
#553=DIRECTION('',(0.,-1.,0.));
#554=DIRECTION('center_axis',(1.11022302462516E-16,0.,-1.));
#555=DIRECTION('ref_axis',(-1.,0.,0.));
#556=DIRECTION('center_axis',(-1.,0.,0.));
#557=DIRECTION('ref_axis',(0.,0.,1.));
#558=DIRECTION('center_axis',(-1.11022302462516E-16,0.,1.));
#559=DIRECTION('ref_axis',(-0.707106781186548,0.707106781186547,-8.32667268468868E-17));
#560=DIRECTION('center_axis',(1.,0.,1.11022302462516E-16));
#561=DIRECTION('ref_axis',(0.,0.707106781186554,0.707106781186541));
#562=DIRECTION('center_axis',(-1.,0.,0.));
#563=DIRECTION('ref_axis',(0.,0.,1.));
#564=DIRECTION('',(-1.,0.,-1.11022302462516E-16));
#565=DIRECTION('center_axis',(1.11022302462516E-16,0.,-1.));
#566=DIRECTION('ref_axis',(-1.,0.,0.));
#567=DIRECTION('center_axis',(0.,1.,0.));
#568=DIRECTION('ref_axis',(0.,0.,1.));
#569=DIRECTION('center_axis',(-1.11022302462516E-16,0.,1.));
#570=DIRECTION('ref_axis',(0.707106781186548,0.707106781186547,8.32667268468868E-17));
#571=DIRECTION('center_axis',(0.,1.,0.));
#572=DIRECTION('ref_axis',(0.707106781186546,0.,0.707106781186549));
#573=DIRECTION('',(0.,1.,0.));
#574=DIRECTION('center_axis',(0.,0.,1.));
#575=DIRECTION('ref_axis',(-0.707106781186547,0.707106781186547,0.));
#576=DIRECTION('',(0.,0.,1.));
#577=DIRECTION('',(0.,0.,-1.));
#578=DIRECTION('center_axis',(0.,1.,0.));
#579=DIRECTION('ref_axis',(0.,0.,1.));
#580=DIRECTION('',(2.77555756156289E-16,0.,1.));
#581=DIRECTION('center_axis',(-2.77555756156289E-16,0.,-1.));
#582=DIRECTION('ref_axis',(0.707106781186547,0.707106781186548,0.));
#583=DIRECTION('',(-2.77555756156289E-16,0.,-1.));
#584=DIRECTION('center_axis',(0.,1.,0.));
#585=DIRECTION('ref_axis',(-1.,0.,0.));
#586=DIRECTION('',(0.,1.,0.));
#587=DIRECTION('center_axis',(0.,1.,0.));
#588=DIRECTION('ref_axis',(-1.,0.,0.));
#589=DIRECTION('center_axis',(0.,1.,0.));
#590=DIRECTION('ref_axis',(-1.,0.,0.));
#591=DIRECTION('center_axis',(0.,1.,0.));
#592=DIRECTION('ref_axis',(-1.,0.,0.));
#593=DIRECTION('',(0.,1.,0.));
#594=DIRECTION('center_axis',(0.,1.,0.));
#595=DIRECTION('ref_axis',(-1.,0.,0.));
#596=DIRECTION('center_axis',(0.,1.,0.));
#597=DIRECTION('ref_axis',(-1.,0.,0.));
#598=DIRECTION('center_axis',(-1.,0.,0.));
#599=DIRECTION('ref_axis',(0.,0.,1.));
#600=DIRECTION('center_axis',(1.,0.,-2.77555756156289E-16));
#601=DIRECTION('ref_axis',(-2.77555756156289E-16,0.,-1.));
#602=CARTESIAN_POINT('',(0.,0.,0.));
#603=CARTESIAN_POINT('Origin',(9.4999981870681,89.6999991921141,-19.1628269617));
#604=CARTESIAN_POINT('',(9.9999981870681,89.6999991921141,-19.1628269617));
#605=CARTESIAN_POINT('',(9.4999981870681,89.6999991921141,-19.6628269617));
#606=CARTESIAN_POINT('Origin',(9.4999981870681,89.6999991921141,-19.1628269617));
#607=CARTESIAN_POINT('',(9.4999981870681,114.699999192114,-19.6628269617));
#608=CARTESIAN_POINT('',(9.4999981870681,89.6999991921141,-19.6628269617));
#609=CARTESIAN_POINT('',(9.9999981870681,114.699999192114,-19.1628269617));
#610=CARTESIAN_POINT('Origin',(9.4999981870681,114.699999192114,-19.1628269617));
#611=CARTESIAN_POINT('',(9.9999981870681,89.6999991921141,-19.1628269617));
#612=CARTESIAN_POINT('Origin',(4.99999818706811,114.699999192114,-19.1628269617));
#613=CARTESIAN_POINT('',(4.99999818706811,119.199999192114,-19.6628269617));
#614=CARTESIAN_POINT('',(4.99999818706811,119.699999192114,-19.1628269617));
#615=CARTESIAN_POINT('Origin',(4.99999818706811,119.199999192114,-19.1628269617));
#616=CARTESIAN_POINT('Origin',(4.99999818706811,114.699999192114,-19.1628269617));
#617=CARTESIAN_POINT('Origin',(4.99999818706811,114.699999192114,-19.6628269617));
#618=CARTESIAN_POINT('Origin',(4.99999818706811,119.199999192114,-19.1628269617));
#619=CARTESIAN_POINT('',(-5.00000181293189,119.199999192114,-19.6628269617));
#620=CARTESIAN_POINT('',(-5.00000181293189,119.699999192114,-19.1628269617));
#621=CARTESIAN_POINT('Origin',(-5.00000181293189,119.199999192114,-19.1628269617));
#622=CARTESIAN_POINT('',(4.99999818706811,119.699999192114,-19.1628269617));
#623=CARTESIAN_POINT('',(4.99999818706811,119.199999192114,-19.6628269617));
#624=CARTESIAN_POINT('Origin',(-5.00000181293189,114.699999192114,-19.1628269617));
#625=CARTESIAN_POINT('',(-9.50000181293189,114.699999192114,-19.6628269617));
#626=CARTESIAN_POINT('',(-10.0000018129319,114.699999192114,-19.1628269617));
#627=CARTESIAN_POINT('Origin',(-9.50000181293189,114.699999192114,-19.1628269617));
#628=CARTESIAN_POINT('Origin',(-5.00000181293189,114.699999192114,-19.1628269617));
#629=CARTESIAN_POINT('Origin',(-5.00000181293189,114.699999192114,-19.6628269617));
#630=CARTESIAN_POINT('Origin',(-9.50000181293189,89.6999991921141,-19.1628269617));
#631=CARTESIAN_POINT('',(-9.50000181293189,89.6999991921141,-19.6628269617));
#632=CARTESIAN_POINT('',(-10.0000018129319,89.6999991921141,-19.1628269617));
#633=CARTESIAN_POINT('Origin',(-9.50000181293189,89.6999991921141,-19.1628269617));
#634=CARTESIAN_POINT('',(-10.0000018129319,89.6999991921141,-19.1628269617));
#635=CARTESIAN_POINT('',(-9.50000181293189,89.6999991921141,-19.6628269617));
#636=CARTESIAN_POINT('Origin',(9.9999981870681,89.6999991921141,-19.6628269617));
#637=CARTESIAN_POINT('',(9.9999981870681,89.6999991921141,-19.6628269617));
#638=CARTESIAN_POINT('',(-8.00000181293195,109.699999192114,-19.6628269617));
#639=CARTESIAN_POINT('Origin',(-1.81293195363787E-6,109.699999192114,-19.6628269617));
#640=CARTESIAN_POINT('Origin',(-1.81293189127629E-6,89.6999991921141,-15.6628269617));
#641=CARTESIAN_POINT('',(9.99999818706811,89.6999991921141,-12.1628269617));
#642=CARTESIAN_POINT('',(9.99999818706811,89.6999991921141,-11.6628269617));
#643=CARTESIAN_POINT('',(9.49999818706811,89.6999991921141,-11.6628269617));
#644=CARTESIAN_POINT('Origin',(9.49999818706811,89.6999991921141,-12.1628269617));
#645=CARTESIAN_POINT('',(-9.50000181293189,89.6999991921141,-11.6628269617));
#646=CARTESIAN_POINT('',(-10.0000018129319,89.6999991921141,-11.6628269617));
#647=CARTESIAN_POINT('',(-10.0000018129319,89.6999991921141,-12.1628269617));
#648=CARTESIAN_POINT('Origin',(-9.50000181293189,89.6999991921141,-12.1628269617));
#649=CARTESIAN_POINT('',(-10.0000018129319,89.6999991921141,-19.6628269617));
#650=CARTESIAN_POINT('',(7.24999818706811,89.6999991921141,-15.5));
#651=CARTESIAN_POINT('Origin',(4.99999818706811,89.6999991921141,-15.5));
#652=CARTESIAN_POINT('',(-2.75000181293189,89.6999991921141,-15.5));
#653=CARTESIAN_POINT('Origin',(-5.00000181293189,89.6999991921141,-15.5));
#654=CARTESIAN_POINT('Origin',(-1.81293195363787E-6,109.699999192114,-19.1628269617));
#655=CARTESIAN_POINT('',(-7.50000181293195,109.699999192114,-19.1628269617));
#656=CARTESIAN_POINT('Origin',(-8.00000181293195,109.699999192114,-19.1628269617));
#657=CARTESIAN_POINT('',(7.49999818706805,109.699999192114,-19.1628269617));
#658=CARTESIAN_POINT('Origin',(-1.81293195363787E-6,109.699999192114,-19.1628269617));
#659=CARTESIAN_POINT('Origin',(-1.81293195363787E-6,109.699999192114,-19.1628269617));
#660=CARTESIAN_POINT('Origin',(-1.8129319546787E-6,109.699999192114,-11.6628269617));
#661=CARTESIAN_POINT('',(7.49999818706804,109.699999192114,-12.1628269617));
#662=CARTESIAN_POINT('Origin',(-1.81293195460931E-6,109.699999192114,-12.1628269617));
#663=CARTESIAN_POINT('',(7.49999818706804,109.699999192114,-11.6628269617));
#664=CARTESIAN_POINT('Origin',(-1.81293195460931E-6,109.699999192114,-12.1628269617));
#665=CARTESIAN_POINT('',(7.99999818706804,109.699999192114,-11.6628269617));
#666=CARTESIAN_POINT('Origin',(-1.81293195466482E-6,109.699999192114,-11.6628269617));
#667=CARTESIAN_POINT('Origin',(7.99999818706804,109.699999192114,-12.1628269617));
#668=CARTESIAN_POINT('Origin',(-10.0000018129319,89.6999991921141,-11.6628269617));
#669=CARTESIAN_POINT('',(9.49999818706811,114.699999192114,-11.6628269617));
#670=CARTESIAN_POINT('',(9.49999818706811,89.6999991921141,-11.6628269617));
#671=CARTESIAN_POINT('',(4.99999818706811,119.199999192114,-11.6628269617));
#672=CARTESIAN_POINT('Origin',(4.99999818706811,114.699999192114,-11.6628269617));
#673=CARTESIAN_POINT('',(-5.00000181293189,119.199999192114,-11.6628269617));
#674=CARTESIAN_POINT('',(-5.00000181293189,119.199999192114,-11.6628269617));
#675=CARTESIAN_POINT('',(-9.50000181293189,114.699999192114,-11.6628269617));
#676=CARTESIAN_POINT('Origin',(-5.00000181293189,114.699999192114,-11.6628269617));
#677=CARTESIAN_POINT('',(-9.50000181293189,89.6999991921141,-11.6628269617));
#678=CARTESIAN_POINT('Origin',(-9.50000181293189,89.6999991921141,-12.1628269617));
#679=CARTESIAN_POINT('',(-10.0000018129319,114.699999192114,-12.1628269617));
#680=CARTESIAN_POINT('Origin',(-9.50000181293189,114.699999192114,-12.1628269617));
#681=CARTESIAN_POINT('',(-10.0000018129319,89.6999991921141,-12.1628269617));
#682=CARTESIAN_POINT('Origin',(-5.00000181293189,114.699999192114,-12.1628269617));
#683=CARTESIAN_POINT('',(-5.00000181293189,119.699999192114,-12.1628269617));
#684=CARTESIAN_POINT('Origin',(-5.00000181293189,119.199999192114,-12.1628269617));
#685=CARTESIAN_POINT('Origin',(-5.00000181293189,114.699999192114,-12.1628269617));
#686=CARTESIAN_POINT('Origin',(-5.00000181293189,119.199999192114,-12.1628269617));
#687=CARTESIAN_POINT('',(4.99999818706811,119.699999192114,-12.1628269617));
#688=CARTESIAN_POINT('Origin',(4.99999818706811,119.199999192114,-12.1628269617));
#689=CARTESIAN_POINT('',(-5.00000181293189,119.699999192114,-12.1628269617));
#690=CARTESIAN_POINT('Origin',(4.99999818706811,114.699999192114,-12.1628269617));
#691=CARTESIAN_POINT('',(9.99999818706811,114.699999192114,-12.1628269617));
#692=CARTESIAN_POINT('Origin',(9.49999818706811,114.699999192114,-12.1628269617));
#693=CARTESIAN_POINT('Origin',(4.99999818706811,114.699999192114,-12.1628269617));
#694=CARTESIAN_POINT('Origin',(9.49999818706811,89.6999991921141,-12.1628269617));
#695=CARTESIAN_POINT('',(9.99999818706811,89.6999991921141,-12.1628269617));
#696=CARTESIAN_POINT('Origin',(-5.00000181293189,114.699999192114,-17.6628269617));
#697=CARTESIAN_POINT('',(-10.0000018129319,114.699999192114,-17.6628269617));
#698=CARTESIAN_POINT('',(-5.00000181293189,119.699999192114,-17.6628269617));
#699=CARTESIAN_POINT('Origin',(-1.81293189127629E-6,119.699999192114,-15.6628269617));
#700=CARTESIAN_POINT('',(4.99999818706811,119.699999192114,-13.6628269617));
#701=CARTESIAN_POINT('Origin',(4.99999818706811,114.699999192114,-13.6628269617));
#702=CARTESIAN_POINT('',(9.99999818706811,114.699999192114,-13.6628269617));
#703=CARTESIAN_POINT('Origin',(4.99999818706811,89.6999991921141,-15.5));
#704=CARTESIAN_POINT('',(7.24999818706811,99.6999991921141,-15.5));
#705=CARTESIAN_POINT('',(7.24999818706811,89.6999991921141,-15.5));
#706=CARTESIAN_POINT('Origin',(4.99999818706811,99.6999991921141,-15.5));
#707=CARTESIAN_POINT('Origin',(4.99999818706811,99.6999991921141,-15.5));
#708=CARTESIAN_POINT('Origin',(-5.00000181293189,89.6999991921141,-15.5));
#709=CARTESIAN_POINT('',(-2.75000181293189,99.6999991921141,-15.5));
#710=CARTESIAN_POINT('',(-2.75000181293189,89.6999991921141,-15.5));
#711=CARTESIAN_POINT('Origin',(-5.00000181293189,99.6999991921141,-15.5));
#712=CARTESIAN_POINT('Origin',(-5.00000181293189,99.6999991921141,-15.5));
#713=CARTESIAN_POINT('Origin',(-10.0000018129319,89.6999991921141,-19.6628269617));
#714=CARTESIAN_POINT('Origin',(9.99999818706811,89.6999991921141,-11.6628269617));
#715=UNCERTAINTY_MEASURE_WITH_UNIT(LENGTH_MEASURE(0.01),#719,
'DISTANCE_ACCURACY_VALUE',
'Maximum model space distance between geometric entities at asserted c
onnectivities');
#716=UNCERTAINTY_MEASURE_WITH_UNIT(LENGTH_MEASURE(0.01),#719,
'DISTANCE_ACCURACY_VALUE',
'Maximum model space distance between geometric entities at asserted c
onnectivities');
#717=(
GEOMETRIC_REPRESENTATION_CONTEXT(3)
GLOBAL_UNCERTAINTY_ASSIGNED_CONTEXT((#715))
GLOBAL_UNIT_ASSIGNED_CONTEXT((#719,#721,#722))
REPRESENTATION_CONTEXT('','3D')
);
#718=(
GEOMETRIC_REPRESENTATION_CONTEXT(3)
GLOBAL_UNCERTAINTY_ASSIGNED_CONTEXT((#716))
GLOBAL_UNIT_ASSIGNED_CONTEXT((#719,#721,#722))
REPRESENTATION_CONTEXT('','3D')
);
#719=(
LENGTH_UNIT()
NAMED_UNIT(*)
SI_UNIT(.MILLI.,.METRE.)
);
#720=(
LENGTH_UNIT()
NAMED_UNIT(*)
SI_UNIT($,.METRE.)
);
#721=(
NAMED_UNIT(*)
PLANE_ANGLE_UNIT()
SI_UNIT($,.RADIAN.)
);
#722=(
NAMED_UNIT(*)
SI_UNIT($,.STERADIAN.)
SOLID_ANGLE_UNIT()
);
#723=SHAPE_DEFINITION_REPRESENTATION(#724,#725);
#724=PRODUCT_DEFINITION_SHAPE('',$,#727);
#725=SHAPE_REPRESENTATION('',(#408),#717);
#726=PRODUCT_DEFINITION_CONTEXT('part definition',#731,'design');
#727=PRODUCT_DEFINITION('CUP HANDLE ','CUP HANDLE ',#728,#726);
#728=PRODUCT_DEFINITION_FORMATION('',$,#733);
#729=PRODUCT_RELATED_PRODUCT_CATEGORY('CUP HANDLE ','CUP HANDLE ',(#733));
#730=APPLICATION_PROTOCOL_DEFINITION('international standard',
'automotive_design',2009,#731);
#731=APPLICATION_CONTEXT(
'Core Data for Automotive Mechanical Design Process');
#732=PRODUCT_CONTEXT('part definition',#731,'mechanical');
#733=PRODUCT('CUP HANDLE ','CUP HANDLE ',$,(#732));
#734=PRESENTATION_STYLE_ASSIGNMENT((#736));
#735=PRESENTATION_STYLE_ASSIGNMENT((#737));
#736=SURFACE_STYLE_USAGE(.BOTH.,#738);
#737=SURFACE_STYLE_USAGE(.BOTH.,#739);
#738=SURFACE_SIDE_STYLE('',(#740));
#739=SURFACE_SIDE_STYLE('',(#741));
#740=SURFACE_STYLE_FILL_AREA(#742);
#741=SURFACE_STYLE_FILL_AREA(#743);
#742=FILL_AREA_STYLE('Steel - Satin',(#744));
#743=FILL_AREA_STYLE('Plastic - Matte (Yellow)',(#745));
#744=FILL_AREA_STYLE_COLOUR('Steel - Satin',#746);
#745=FILL_AREA_STYLE_COLOUR('Plastic - Matte (Yellow)',#747);
#746=COLOUR_RGB('Steel - Satin',0.627450980392157,0.627450980392157,0.627450980392157);
#747=COLOUR_RGB('Plastic - Matte (Yellow)',0.909803921568627,0.67843137254902,
0.137254901960784);
ENDSEC;
END-ISO-10303-21;
