ISO-10303-21;
HEADER;
/* Generated by software containing ST-Developer
 * from STEP Tools, Inc. (www.steptools.com) 
 */

FILE_DESCRIPTION(
/* description */ (''),
/* implementation_level */ '2;1');

FILE_NAME(
/* name */ 'COIN WEIGHT ADAPTER.step',
/* time_stamp */ '2026-03-23T18:17:30-05:00',
/* author */ (''),
/* organization */ (''),
/* preprocessor_version */ 'ST-DEVELOPER v20.1',
/* originating_system */ 'Autodesk Translation Framework v14.24.0.0',
/* authorisation */ '');

FILE_SCHEMA (('AUTOMOTIVE_DESIGN { 1 0 10303 214 3 1 1 }'));
ENDSEC;

DATA;
#10=MECHANICAL_DESIGN_GEOMETRIC_PRESENTATION_REPRESENTATION('',(#13),#698);
#11=SHAPE_REPRESENTATION_RELATIONSHIP('SRR','None',#705,#12);
#12=ADVANCED_BREP_SHAPE_REPRESENTATION('',(#14),#697);
#13=STYLED_ITEM('',(#714),#14);
#14=MANIFOLD_SOLID_BREP('Coin weight adapter',#386);
#15=FACE_BOUND('',#77,.T.);
#16=FACE_BOUND('',#78,.T.);
#17=FACE_BOUND('',#79,.T.);
#18=FACE_BOUND('',#82,.T.);
#19=FACE_BOUND('',#85,.T.);
#20=FACE_BOUND('',#87,.T.);
#21=FACE_BOUND('',#88,.T.);
#22=FACE_BOUND('',#89,.T.);
#23=FACE_BOUND('',#95,.T.);
#24=FACE_BOUND('',#96,.T.);
#25=FACE_BOUND('',#97,.T.);
#26=FACE_BOUND('',#98,.T.);
#27=FACE_BOUND('',#99,.T.);
#28=FACE_BOUND('',#100,.T.);
#29=FACE_BOUND('',#101,.T.);
#30=FACE_BOUND('',#102,.T.);
#31=FACE_BOUND('',#103,.T.);
#32=PLANE('',#403);
#33=PLANE('',#407);
#34=PLANE('',#414);
#35=PLANE('',#419);
#36=PLANE('',#421);
#37=PLANE('',#429);
#38=PLANE('',#439);
#39=PLANE('',#442);
#40=PLANE('',#445);
#41=PLANE('',#448);
#42=PLANE('',#451);
#43=PLANE('',#454);
#44=PLANE('',#457);
#45=FACE_OUTER_BOUND('',#73,.T.);
#46=FACE_OUTER_BOUND('',#74,.T.);
#47=FACE_OUTER_BOUND('',#75,.T.);
#48=FACE_OUTER_BOUND('',#76,.T.);
#49=FACE_OUTER_BOUND('',#80,.T.);
#50=FACE_OUTER_BOUND('',#81,.T.);
#51=FACE_OUTER_BOUND('',#83,.T.);
#52=FACE_OUTER_BOUND('',#84,.T.);
#53=FACE_OUTER_BOUND('',#86,.T.);
#54=FACE_OUTER_BOUND('',#90,.T.);
#55=FACE_OUTER_BOUND('',#91,.T.);
#56=FACE_OUTER_BOUND('',#92,.T.);
#57=FACE_OUTER_BOUND('',#93,.T.);
#58=FACE_OUTER_BOUND('',#94,.T.);
#59=FACE_OUTER_BOUND('',#104,.T.);
#60=FACE_OUTER_BOUND('',#105,.T.);
#61=FACE_OUTER_BOUND('',#106,.T.);
#62=FACE_OUTER_BOUND('',#107,.T.);
#63=FACE_OUTER_BOUND('',#108,.T.);
#64=FACE_OUTER_BOUND('',#109,.T.);
#65=FACE_OUTER_BOUND('',#110,.T.);
#66=FACE_OUTER_BOUND('',#111,.T.);
#67=FACE_OUTER_BOUND('',#112,.T.);
#68=FACE_OUTER_BOUND('',#113,.T.);
#69=FACE_OUTER_BOUND('',#114,.T.);
#70=FACE_OUTER_BOUND('',#115,.T.);
#71=FACE_OUTER_BOUND('',#116,.T.);
#72=FACE_OUTER_BOUND('',#117,.T.);
#73=EDGE_LOOP('',(#253,#254,#255,#256));
#74=EDGE_LOOP('',(#257));
#75=EDGE_LOOP('',(#258,#259,#260,#261));
#76=EDGE_LOOP('',(#262));
#77=EDGE_LOOP('',(#263));
#78=EDGE_LOOP('',(#264));
#79=EDGE_LOOP('',(#265));
#80=EDGE_LOOP('',(#266,#267,#268,#269));
#81=EDGE_LOOP('',(#270));
#82=EDGE_LOOP('',(#271));
#83=EDGE_LOOP('',(#272,#273,#274,#275));
#84=EDGE_LOOP('',(#276));
#85=EDGE_LOOP('',(#277));
#86=EDGE_LOOP('',(#278));
#87=EDGE_LOOP('',(#279));
#88=EDGE_LOOP('',(#280));
#89=EDGE_LOOP('',(#281));
#90=EDGE_LOOP('',(#282,#283,#284,#285));
#91=EDGE_LOOP('',(#286,#287,#288,#289));
#92=EDGE_LOOP('',(#290,#291,#292,#293));
#93=EDGE_LOOP('',(#294,#295,#296,#297));
#94=EDGE_LOOP('',(#298));
#95=EDGE_LOOP('',(#299));
#96=EDGE_LOOP('',(#300));
#97=EDGE_LOOP('',(#301));
#98=EDGE_LOOP('',(#302));
#99=EDGE_LOOP('',(#303));
#100=EDGE_LOOP('',(#304));
#101=EDGE_LOOP('',(#305));
#102=EDGE_LOOP('',(#306));
#103=EDGE_LOOP('',(#307));
#104=EDGE_LOOP('',(#308,#309,#310,#311));
#105=EDGE_LOOP('',(#312));
#106=EDGE_LOOP('',(#313,#314,#315,#316));
#107=EDGE_LOOP('',(#317));
#108=EDGE_LOOP('',(#318,#319,#320,#321));
#109=EDGE_LOOP('',(#322));
#110=EDGE_LOOP('',(#323,#324,#325,#326));
#111=EDGE_LOOP('',(#327));
#112=EDGE_LOOP('',(#328,#329,#330,#331));
#113=EDGE_LOOP('',(#332));
#114=EDGE_LOOP('',(#333,#334,#335,#336));
#115=EDGE_LOOP('',(#337));
#116=EDGE_LOOP('',(#338,#339,#340,#341));
#117=EDGE_LOOP('',(#342));
#118=LINE('',#596,#133);
#119=LINE('',#603,#134);
#120=LINE('',#616,#135);
#121=LINE('',#625,#136);
#122=LINE('',#636,#137);
#123=LINE('',#638,#138);
#124=LINE('',#640,#139);
#125=LINE('',#644,#140);
#126=LINE('',#662,#141);
#127=LINE('',#667,#142);
#128=LINE('',#672,#143);
#129=LINE('',#677,#144);
#130=LINE('',#682,#145);
#131=LINE('',#687,#146);
#132=LINE('',#692,#147);
#133=VECTOR('',#464,12.5);
#134=VECTOR('',#473,26.5);
#135=VECTOR('',#488,3.);
#136=VECTOR('',#499,3.);
#137=VECTOR('',#514,1.7);
#138=VECTOR('',#517,1.7);
#139=VECTOR('',#520,12.5);
#140=VECTOR('',#525,56.5);
#141=VECTOR('',#544,12.5);
#142=VECTOR('',#551,12.5);
#143=VECTOR('',#558,12.5);
#144=VECTOR('',#565,12.5);
#145=VECTOR('',#572,12.5);
#146=VECTOR('',#579,12.5);
#147=VECTOR('',#586,12.5);
#148=CIRCLE('',#401,12.5);
#149=CIRCLE('',#402,12.5);
#150=CIRCLE('',#405,26.5);
#151=CIRCLE('',#406,26.5);
#152=CIRCLE('',#408,1.7);
#153=CIRCLE('',#409,1.7);
#154=CIRCLE('',#410,12.5);
#155=CIRCLE('',#412,3.);
#156=CIRCLE('',#413,3.);
#157=CIRCLE('',#415,1.7);
#158=CIRCLE('',#417,3.);
#159=CIRCLE('',#418,3.);
#160=CIRCLE('',#420,1.7);
#161=CIRCLE('',#422,56.5);
#162=CIRCLE('',#423,12.5);
#163=CIRCLE('',#428,56.5);
#164=CIRCLE('',#430,12.5);
#165=CIRCLE('',#431,12.5);
#166=CIRCLE('',#432,12.5);
#167=CIRCLE('',#433,12.5);
#168=CIRCLE('',#434,12.5);
#169=CIRCLE('',#435,12.5);
#170=CIRCLE('',#436,12.5);
#171=CIRCLE('',#438,12.5);
#172=CIRCLE('',#441,12.5);
#173=CIRCLE('',#444,12.5);
#174=CIRCLE('',#447,12.5);
#175=CIRCLE('',#450,12.5);
#176=CIRCLE('',#453,12.5);
#177=CIRCLE('',#456,12.5);
#178=VERTEX_POINT('',#593);
#179=VERTEX_POINT('',#595);
#180=VERTEX_POINT('',#600);
#181=VERTEX_POINT('',#602);
#182=VERTEX_POINT('',#606);
#183=VERTEX_POINT('',#608);
#184=VERTEX_POINT('',#610);
#185=VERTEX_POINT('',#613);
#186=VERTEX_POINT('',#615);
#187=VERTEX_POINT('',#619);
#188=VERTEX_POINT('',#622);
#189=VERTEX_POINT('',#624);
#190=VERTEX_POINT('',#628);
#191=VERTEX_POINT('',#631);
#192=VERTEX_POINT('',#633);
#193=VERTEX_POINT('',#642);
#194=VERTEX_POINT('',#646);
#195=VERTEX_POINT('',#648);
#196=VERTEX_POINT('',#650);
#197=VERTEX_POINT('',#652);
#198=VERTEX_POINT('',#654);
#199=VERTEX_POINT('',#656);
#200=VERTEX_POINT('',#658);
#201=VERTEX_POINT('',#661);
#202=VERTEX_POINT('',#666);
#203=VERTEX_POINT('',#671);
#204=VERTEX_POINT('',#676);
#205=VERTEX_POINT('',#681);
#206=VERTEX_POINT('',#686);
#207=VERTEX_POINT('',#691);
#208=EDGE_CURVE('',#178,#178,#148,.T.);
#209=EDGE_CURVE('',#178,#179,#118,.T.);
#210=EDGE_CURVE('',#179,#179,#149,.T.);
#211=EDGE_CURVE('',#180,#180,#150,.T.);
#212=EDGE_CURVE('',#180,#181,#119,.T.);
#213=EDGE_CURVE('',#181,#181,#151,.T.);
#214=EDGE_CURVE('',#182,#182,#152,.T.);
#215=EDGE_CURVE('',#183,#183,#153,.T.);
#216=EDGE_CURVE('',#184,#184,#154,.T.);
#217=EDGE_CURVE('',#185,#185,#155,.T.);
#218=EDGE_CURVE('',#185,#186,#120,.T.);
#219=EDGE_CURVE('',#186,#186,#156,.T.);
#220=EDGE_CURVE('',#187,#187,#157,.T.);
#221=EDGE_CURVE('',#188,#188,#158,.T.);
#222=EDGE_CURVE('',#188,#189,#121,.T.);
#223=EDGE_CURVE('',#189,#189,#159,.T.);
#224=EDGE_CURVE('',#190,#190,#160,.T.);
#225=EDGE_CURVE('',#191,#191,#161,.T.);
#226=EDGE_CURVE('',#192,#192,#162,.T.);
#227=EDGE_CURVE('',#182,#187,#122,.T.);
#228=EDGE_CURVE('',#183,#190,#123,.T.);
#229=EDGE_CURVE('',#184,#192,#124,.T.);
#230=EDGE_CURVE('',#193,#193,#163,.T.);
#231=EDGE_CURVE('',#193,#191,#125,.T.);
#232=EDGE_CURVE('',#194,#194,#164,.T.);
#233=EDGE_CURVE('',#195,#195,#165,.T.);
#234=EDGE_CURVE('',#196,#196,#166,.T.);
#235=EDGE_CURVE('',#197,#197,#167,.T.);
#236=EDGE_CURVE('',#198,#198,#168,.T.);
#237=EDGE_CURVE('',#199,#199,#169,.T.);
#238=EDGE_CURVE('',#200,#200,#170,.T.);
#239=EDGE_CURVE('',#200,#201,#126,.T.);
#240=EDGE_CURVE('',#201,#201,#171,.T.);
#241=EDGE_CURVE('',#199,#202,#127,.T.);
#242=EDGE_CURVE('',#202,#202,#172,.T.);
#243=EDGE_CURVE('',#198,#203,#128,.T.);
#244=EDGE_CURVE('',#203,#203,#173,.T.);
#245=EDGE_CURVE('',#197,#204,#129,.T.);
#246=EDGE_CURVE('',#204,#204,#174,.T.);
#247=EDGE_CURVE('',#196,#205,#130,.T.);
#248=EDGE_CURVE('',#205,#205,#175,.T.);
#249=EDGE_CURVE('',#195,#206,#131,.T.);
#250=EDGE_CURVE('',#206,#206,#176,.T.);
#251=EDGE_CURVE('',#194,#207,#132,.T.);
#252=EDGE_CURVE('',#207,#207,#177,.T.);
#253=ORIENTED_EDGE('',*,*,#208,.F.);
#254=ORIENTED_EDGE('',*,*,#209,.T.);
#255=ORIENTED_EDGE('',*,*,#210,.T.);
#256=ORIENTED_EDGE('',*,*,#209,.F.);
#257=ORIENTED_EDGE('',*,*,#210,.F.);
#258=ORIENTED_EDGE('',*,*,#211,.F.);
#259=ORIENTED_EDGE('',*,*,#212,.T.);
#260=ORIENTED_EDGE('',*,*,#213,.T.);
#261=ORIENTED_EDGE('',*,*,#212,.F.);
#262=ORIENTED_EDGE('',*,*,#213,.F.);
#263=ORIENTED_EDGE('',*,*,#214,.F.);
#264=ORIENTED_EDGE('',*,*,#215,.F.);
#265=ORIENTED_EDGE('',*,*,#216,.F.);
#266=ORIENTED_EDGE('',*,*,#217,.F.);
#267=ORIENTED_EDGE('',*,*,#218,.T.);
#268=ORIENTED_EDGE('',*,*,#219,.T.);
#269=ORIENTED_EDGE('',*,*,#218,.F.);
#270=ORIENTED_EDGE('',*,*,#219,.F.);
#271=ORIENTED_EDGE('',*,*,#220,.F.);
#272=ORIENTED_EDGE('',*,*,#221,.F.);
#273=ORIENTED_EDGE('',*,*,#222,.T.);
#274=ORIENTED_EDGE('',*,*,#223,.T.);
#275=ORIENTED_EDGE('',*,*,#222,.F.);
#276=ORIENTED_EDGE('',*,*,#223,.F.);
#277=ORIENTED_EDGE('',*,*,#224,.F.);
#278=ORIENTED_EDGE('',*,*,#225,.T.);
#279=ORIENTED_EDGE('',*,*,#217,.T.);
#280=ORIENTED_EDGE('',*,*,#221,.T.);
#281=ORIENTED_EDGE('',*,*,#226,.T.);
#282=ORIENTED_EDGE('',*,*,#214,.T.);
#283=ORIENTED_EDGE('',*,*,#227,.T.);
#284=ORIENTED_EDGE('',*,*,#220,.T.);
#285=ORIENTED_EDGE('',*,*,#227,.F.);
#286=ORIENTED_EDGE('',*,*,#215,.T.);
#287=ORIENTED_EDGE('',*,*,#228,.T.);
#288=ORIENTED_EDGE('',*,*,#224,.T.);
#289=ORIENTED_EDGE('',*,*,#228,.F.);
#290=ORIENTED_EDGE('',*,*,#216,.T.);
#291=ORIENTED_EDGE('',*,*,#229,.T.);
#292=ORIENTED_EDGE('',*,*,#226,.F.);
#293=ORIENTED_EDGE('',*,*,#229,.F.);
#294=ORIENTED_EDGE('',*,*,#230,.F.);
#295=ORIENTED_EDGE('',*,*,#231,.T.);
#296=ORIENTED_EDGE('',*,*,#225,.F.);
#297=ORIENTED_EDGE('',*,*,#231,.F.);
#298=ORIENTED_EDGE('',*,*,#230,.T.);
#299=ORIENTED_EDGE('',*,*,#232,.T.);
#300=ORIENTED_EDGE('',*,*,#233,.T.);
#301=ORIENTED_EDGE('',*,*,#234,.T.);
#302=ORIENTED_EDGE('',*,*,#235,.T.);
#303=ORIENTED_EDGE('',*,*,#236,.T.);
#304=ORIENTED_EDGE('',*,*,#237,.T.);
#305=ORIENTED_EDGE('',*,*,#238,.T.);
#306=ORIENTED_EDGE('',*,*,#208,.T.);
#307=ORIENTED_EDGE('',*,*,#211,.T.);
#308=ORIENTED_EDGE('',*,*,#238,.F.);
#309=ORIENTED_EDGE('',*,*,#239,.T.);
#310=ORIENTED_EDGE('',*,*,#240,.T.);
#311=ORIENTED_EDGE('',*,*,#239,.F.);
#312=ORIENTED_EDGE('',*,*,#240,.F.);
#313=ORIENTED_EDGE('',*,*,#237,.F.);
#314=ORIENTED_EDGE('',*,*,#241,.T.);
#315=ORIENTED_EDGE('',*,*,#242,.T.);
#316=ORIENTED_EDGE('',*,*,#241,.F.);
#317=ORIENTED_EDGE('',*,*,#242,.F.);
#318=ORIENTED_EDGE('',*,*,#236,.F.);
#319=ORIENTED_EDGE('',*,*,#243,.T.);
#320=ORIENTED_EDGE('',*,*,#244,.T.);
#321=ORIENTED_EDGE('',*,*,#243,.F.);
#322=ORIENTED_EDGE('',*,*,#244,.F.);
#323=ORIENTED_EDGE('',*,*,#235,.F.);
#324=ORIENTED_EDGE('',*,*,#245,.T.);
#325=ORIENTED_EDGE('',*,*,#246,.T.);
#326=ORIENTED_EDGE('',*,*,#245,.F.);
#327=ORIENTED_EDGE('',*,*,#246,.F.);
#328=ORIENTED_EDGE('',*,*,#234,.F.);
#329=ORIENTED_EDGE('',*,*,#247,.T.);
#330=ORIENTED_EDGE('',*,*,#248,.T.);
#331=ORIENTED_EDGE('',*,*,#247,.F.);
#332=ORIENTED_EDGE('',*,*,#248,.F.);
#333=ORIENTED_EDGE('',*,*,#233,.F.);
#334=ORIENTED_EDGE('',*,*,#249,.T.);
#335=ORIENTED_EDGE('',*,*,#250,.T.);
#336=ORIENTED_EDGE('',*,*,#249,.F.);
#337=ORIENTED_EDGE('',*,*,#250,.F.);
#338=ORIENTED_EDGE('',*,*,#232,.F.);
#339=ORIENTED_EDGE('',*,*,#251,.T.);
#340=ORIENTED_EDGE('',*,*,#252,.T.);
#341=ORIENTED_EDGE('',*,*,#251,.F.);
#342=ORIENTED_EDGE('',*,*,#252,.F.);
#343=CYLINDRICAL_SURFACE('',#400,12.5);
#344=CYLINDRICAL_SURFACE('',#404,26.5);
#345=CYLINDRICAL_SURFACE('',#411,3.);
#346=CYLINDRICAL_SURFACE('',#416,3.);
#347=CYLINDRICAL_SURFACE('',#424,1.7);
#348=CYLINDRICAL_SURFACE('',#425,1.7);
#349=CYLINDRICAL_SURFACE('',#426,12.5);
#350=CYLINDRICAL_SURFACE('',#427,56.5);
#351=CYLINDRICAL_SURFACE('',#437,12.5);
#352=CYLINDRICAL_SURFACE('',#440,12.5);
#353=CYLINDRICAL_SURFACE('',#443,12.5);
#354=CYLINDRICAL_SURFACE('',#446,12.5);
#355=CYLINDRICAL_SURFACE('',#449,12.5);
#356=CYLINDRICAL_SURFACE('',#452,12.5);
#357=CYLINDRICAL_SURFACE('',#455,12.5);
#358=ADVANCED_FACE('',(#45),#343,.F.);
#359=ADVANCED_FACE('',(#46),#32,.T.);
#360=ADVANCED_FACE('',(#47),#344,.F.);
#361=ADVANCED_FACE('',(#48,#15,#16,#17),#33,.T.);
#362=ADVANCED_FACE('',(#49),#345,.F.);
#363=ADVANCED_FACE('',(#50,#18),#34,.T.);
#364=ADVANCED_FACE('',(#51),#346,.F.);
#365=ADVANCED_FACE('',(#52,#19),#35,.T.);
#366=ADVANCED_FACE('',(#53,#20,#21,#22),#36,.T.);
#367=ADVANCED_FACE('',(#54),#347,.F.);
#368=ADVANCED_FACE('',(#55),#348,.F.);
#369=ADVANCED_FACE('',(#56),#349,.F.);
#370=ADVANCED_FACE('',(#57),#350,.T.);
#371=ADVANCED_FACE('',(#58,#23,#24,#25,#26,#27,#28,#29,#30,#31),#37,.F.);
#372=ADVANCED_FACE('',(#59),#351,.F.);
#373=ADVANCED_FACE('',(#60),#38,.T.);
#374=ADVANCED_FACE('',(#61),#352,.F.);
#375=ADVANCED_FACE('',(#62),#39,.T.);
#376=ADVANCED_FACE('',(#63),#353,.F.);
#377=ADVANCED_FACE('',(#64),#40,.T.);
#378=ADVANCED_FACE('',(#65),#354,.F.);
#379=ADVANCED_FACE('',(#66),#41,.T.);
#380=ADVANCED_FACE('',(#67),#355,.F.);
#381=ADVANCED_FACE('',(#68),#42,.T.);
#382=ADVANCED_FACE('',(#69),#356,.F.);
#383=ADVANCED_FACE('',(#70),#43,.T.);
#384=ADVANCED_FACE('',(#71),#357,.F.);
#385=ADVANCED_FACE('',(#72),#44,.T.);
#386=CLOSED_SHELL('',(#358,#359,#360,#361,#362,#363,#364,#365,#366,#367,
#368,#369,#370,#371,#372,#373,#374,#375,#376,#377,#378,#379,#380,#381,#382,
#383,#384,#385));
#387=DERIVED_UNIT_ELEMENT(#389,1.);
#388=DERIVED_UNIT_ELEMENT(#700,-3.);
#389=(
MASS_UNIT()
NAMED_UNIT(*)
SI_UNIT(.KILO.,.GRAM.)
);
#390=DERIVED_UNIT((#387,#388));
#391=MEASURE_REPRESENTATION_ITEM('density measure',
POSITIVE_RATIO_MEASURE(7850.),#390);
#392=PROPERTY_DEFINITION_REPRESENTATION(#397,#394);
#393=PROPERTY_DEFINITION_REPRESENTATION(#398,#395);
#394=REPRESENTATION('material name',(#396),#697);
#395=REPRESENTATION('density',(#391),#697);
#396=DESCRIPTIVE_REPRESENTATION_ITEM('Steel','Steel');
#397=PROPERTY_DEFINITION('material property','material name',#707);
#398=PROPERTY_DEFINITION('material property','density of part',#707);
#399=AXIS2_PLACEMENT_3D('',#591,#458,#459);
#400=AXIS2_PLACEMENT_3D('',#592,#460,#461);
#401=AXIS2_PLACEMENT_3D('',#594,#462,#463);
#402=AXIS2_PLACEMENT_3D('',#597,#465,#466);
#403=AXIS2_PLACEMENT_3D('',#598,#467,#468);
#404=AXIS2_PLACEMENT_3D('',#599,#469,#470);
#405=AXIS2_PLACEMENT_3D('',#601,#471,#472);
#406=AXIS2_PLACEMENT_3D('',#604,#474,#475);
#407=AXIS2_PLACEMENT_3D('',#605,#476,#477);
#408=AXIS2_PLACEMENT_3D('',#607,#478,#479);
#409=AXIS2_PLACEMENT_3D('',#609,#480,#481);
#410=AXIS2_PLACEMENT_3D('',#611,#482,#483);
#411=AXIS2_PLACEMENT_3D('',#612,#484,#485);
#412=AXIS2_PLACEMENT_3D('',#614,#486,#487);
#413=AXIS2_PLACEMENT_3D('',#617,#489,#490);
#414=AXIS2_PLACEMENT_3D('',#618,#491,#492);
#415=AXIS2_PLACEMENT_3D('',#620,#493,#494);
#416=AXIS2_PLACEMENT_3D('',#621,#495,#496);
#417=AXIS2_PLACEMENT_3D('',#623,#497,#498);
#418=AXIS2_PLACEMENT_3D('',#626,#500,#501);
#419=AXIS2_PLACEMENT_3D('',#627,#502,#503);
#420=AXIS2_PLACEMENT_3D('',#629,#504,#505);
#421=AXIS2_PLACEMENT_3D('',#630,#506,#507);
#422=AXIS2_PLACEMENT_3D('',#632,#508,#509);
#423=AXIS2_PLACEMENT_3D('',#634,#510,#511);
#424=AXIS2_PLACEMENT_3D('',#635,#512,#513);
#425=AXIS2_PLACEMENT_3D('',#637,#515,#516);
#426=AXIS2_PLACEMENT_3D('',#639,#518,#519);
#427=AXIS2_PLACEMENT_3D('',#641,#521,#522);
#428=AXIS2_PLACEMENT_3D('',#643,#523,#524);
#429=AXIS2_PLACEMENT_3D('',#645,#526,#527);
#430=AXIS2_PLACEMENT_3D('',#647,#528,#529);
#431=AXIS2_PLACEMENT_3D('',#649,#530,#531);
#432=AXIS2_PLACEMENT_3D('',#651,#532,#533);
#433=AXIS2_PLACEMENT_3D('',#653,#534,#535);
#434=AXIS2_PLACEMENT_3D('',#655,#536,#537);
#435=AXIS2_PLACEMENT_3D('',#657,#538,#539);
#436=AXIS2_PLACEMENT_3D('',#659,#540,#541);
#437=AXIS2_PLACEMENT_3D('',#660,#542,#543);
#438=AXIS2_PLACEMENT_3D('',#663,#545,#546);
#439=AXIS2_PLACEMENT_3D('',#664,#547,#548);
#440=AXIS2_PLACEMENT_3D('',#665,#549,#550);
#441=AXIS2_PLACEMENT_3D('',#668,#552,#553);
#442=AXIS2_PLACEMENT_3D('',#669,#554,#555);
#443=AXIS2_PLACEMENT_3D('',#670,#556,#557);
#444=AXIS2_PLACEMENT_3D('',#673,#559,#560);
#445=AXIS2_PLACEMENT_3D('',#674,#561,#562);
#446=AXIS2_PLACEMENT_3D('',#675,#563,#564);
#447=AXIS2_PLACEMENT_3D('',#678,#566,#567);
#448=AXIS2_PLACEMENT_3D('',#679,#568,#569);
#449=AXIS2_PLACEMENT_3D('',#680,#570,#571);
#450=AXIS2_PLACEMENT_3D('',#683,#573,#574);
#451=AXIS2_PLACEMENT_3D('',#684,#575,#576);
#452=AXIS2_PLACEMENT_3D('',#685,#577,#578);
#453=AXIS2_PLACEMENT_3D('',#688,#580,#581);
#454=AXIS2_PLACEMENT_3D('',#689,#582,#583);
#455=AXIS2_PLACEMENT_3D('',#690,#584,#585);
#456=AXIS2_PLACEMENT_3D('',#693,#587,#588);
#457=AXIS2_PLACEMENT_3D('',#694,#589,#590);
#458=DIRECTION('axis',(0.,0.,1.));
#459=DIRECTION('refdir',(1.,0.,0.));
#460=DIRECTION('center_axis',(0.,0.,-1.));
#461=DIRECTION('ref_axis',(-1.,0.,0.));
#462=DIRECTION('center_axis',(0.,0.,-1.));
#463=DIRECTION('ref_axis',(-1.,0.,0.));
#464=DIRECTION('',(0.,0.,-1.));
#465=DIRECTION('center_axis',(0.,0.,-1.));
#466=DIRECTION('ref_axis',(-1.,0.,0.));
#467=DIRECTION('center_axis',(0.,0.,1.));
#468=DIRECTION('ref_axis',(-1.,0.,0.));
#469=DIRECTION('center_axis',(0.,0.,-1.));
#470=DIRECTION('ref_axis',(-1.,0.,0.));
#471=DIRECTION('center_axis',(0.,0.,-1.));
#472=DIRECTION('ref_axis',(-1.,0.,0.));
#473=DIRECTION('',(0.,0.,-1.));
#474=DIRECTION('center_axis',(0.,0.,-1.));
#475=DIRECTION('ref_axis',(-1.,0.,0.));
#476=DIRECTION('center_axis',(0.,0.,1.));
#477=DIRECTION('ref_axis',(-1.,0.,0.));
#478=DIRECTION('center_axis',(0.,0.,1.));
#479=DIRECTION('ref_axis',(1.,0.,0.));
#480=DIRECTION('center_axis',(0.,0.,1.));
#481=DIRECTION('ref_axis',(1.,0.,0.));
#482=DIRECTION('center_axis',(0.,0.,1.));
#483=DIRECTION('ref_axis',(1.,0.,0.));
#484=DIRECTION('center_axis',(0.,0.,1.));
#485=DIRECTION('ref_axis',(1.,0.,0.));
#486=DIRECTION('center_axis',(0.,0.,1.));
#487=DIRECTION('ref_axis',(1.,0.,0.));
#488=DIRECTION('',(0.,0.,1.));
#489=DIRECTION('center_axis',(0.,0.,1.));
#490=DIRECTION('ref_axis',(1.,0.,0.));
#491=DIRECTION('center_axis',(0.,0.,-1.));
#492=DIRECTION('ref_axis',(1.,0.,0.));
#493=DIRECTION('center_axis',(0.,0.,-1.));
#494=DIRECTION('ref_axis',(1.,0.,0.));
#495=DIRECTION('center_axis',(0.,0.,1.));
#496=DIRECTION('ref_axis',(1.,0.,0.));
#497=DIRECTION('center_axis',(0.,0.,1.));
#498=DIRECTION('ref_axis',(1.,0.,0.));
#499=DIRECTION('',(0.,0.,1.));
#500=DIRECTION('center_axis',(0.,0.,1.));
#501=DIRECTION('ref_axis',(1.,0.,0.));
#502=DIRECTION('center_axis',(0.,0.,-1.));
#503=DIRECTION('ref_axis',(1.,0.,0.));
#504=DIRECTION('center_axis',(0.,0.,-1.));
#505=DIRECTION('ref_axis',(1.,0.,0.));
#506=DIRECTION('center_axis',(0.,0.,-1.));
#507=DIRECTION('ref_axis',(1.,0.,0.));
#508=DIRECTION('center_axis',(0.,0.,-1.));
#509=DIRECTION('ref_axis',(1.,0.,0.));
#510=DIRECTION('center_axis',(0.,0.,1.));
#511=DIRECTION('ref_axis',(1.,0.,0.));
#512=DIRECTION('center_axis',(0.,0.,1.));
#513=DIRECTION('ref_axis',(1.,0.,0.));
#514=DIRECTION('',(0.,0.,-1.));
#515=DIRECTION('center_axis',(0.,0.,1.));
#516=DIRECTION('ref_axis',(1.,0.,0.));
#517=DIRECTION('',(0.,0.,-1.));
#518=DIRECTION('center_axis',(0.,0.,1.));
#519=DIRECTION('ref_axis',(1.,0.,0.));
#520=DIRECTION('',(0.,0.,-1.));
#521=DIRECTION('center_axis',(0.,0.,1.));
#522=DIRECTION('ref_axis',(1.,0.,0.));
#523=DIRECTION('center_axis',(0.,0.,1.));
#524=DIRECTION('ref_axis',(1.,0.,0.));
#525=DIRECTION('',(0.,0.,-1.));
#526=DIRECTION('center_axis',(0.,0.,-1.));
#527=DIRECTION('ref_axis',(1.,0.,0.));
#528=DIRECTION('center_axis',(0.,0.,-1.));
#529=DIRECTION('ref_axis',(-0.707106781186547,0.707106781186548,0.));
#530=DIRECTION('center_axis',(0.,0.,-1.));
#531=DIRECTION('ref_axis',(1.83697019872103E-16,1.,0.));
#532=DIRECTION('center_axis',(0.,0.,-1.));
#533=DIRECTION('ref_axis',(0.707106781186548,0.707106781186547,0.));
#534=DIRECTION('center_axis',(0.,0.,-1.));
#535=DIRECTION('ref_axis',(1.,-1.22464679914735E-16,0.));
#536=DIRECTION('center_axis',(0.,0.,-1.));
#537=DIRECTION('ref_axis',(0.707106781186547,-0.707106781186547,0.));
#538=DIRECTION('center_axis',(0.,0.,-1.));
#539=DIRECTION('ref_axis',(-6.12323399573677E-17,-1.,0.));
#540=DIRECTION('center_axis',(0.,0.,-1.));
#541=DIRECTION('ref_axis',(-0.707106781186547,-0.707106781186547,0.));
#542=DIRECTION('center_axis',(0.,0.,-1.));
#543=DIRECTION('ref_axis',(-0.707106781186547,-0.707106781186547,0.));
#544=DIRECTION('',(0.,0.,-1.));
#545=DIRECTION('center_axis',(0.,0.,-1.));
#546=DIRECTION('ref_axis',(-0.707106781186547,-0.707106781186547,0.));
#547=DIRECTION('center_axis',(0.,0.,1.));
#548=DIRECTION('ref_axis',(-0.707106781186548,-0.707106781186548,0.));
#549=DIRECTION('center_axis',(0.,0.,-1.));
#550=DIRECTION('ref_axis',(-6.12323399573677E-17,-1.,0.));
#551=DIRECTION('',(0.,0.,-1.));
#552=DIRECTION('center_axis',(0.,0.,-1.));
#553=DIRECTION('ref_axis',(-6.12323399573677E-17,-1.,0.));
#554=DIRECTION('center_axis',(0.,0.,1.));
#555=DIRECTION('ref_axis',(-6.12323399573677E-17,-1.,0.));
#556=DIRECTION('center_axis',(0.,0.,-1.));
#557=DIRECTION('ref_axis',(0.707106781186547,-0.707106781186547,0.));
#558=DIRECTION('',(0.,0.,-1.));
#559=DIRECTION('center_axis',(0.,0.,-1.));
#560=DIRECTION('ref_axis',(0.707106781186547,-0.707106781186547,0.));
#561=DIRECTION('center_axis',(0.,0.,1.));
#562=DIRECTION('ref_axis',(0.707106781186547,-0.707106781186548,0.));
#563=DIRECTION('center_axis',(0.,0.,-1.));
#564=DIRECTION('ref_axis',(1.,-1.22464679914735E-16,0.));
#565=DIRECTION('',(0.,0.,-1.));
#566=DIRECTION('center_axis',(0.,0.,-1.));
#567=DIRECTION('ref_axis',(1.,-1.22464679914735E-16,0.));
#568=DIRECTION('center_axis',(0.,0.,1.));
#569=DIRECTION('ref_axis',(1.,-1.22464679914735E-16,0.));
#570=DIRECTION('center_axis',(0.,0.,-1.));
#571=DIRECTION('ref_axis',(0.707106781186548,0.707106781186547,0.));
#572=DIRECTION('',(0.,0.,-1.));
#573=DIRECTION('center_axis',(0.,0.,-1.));
#574=DIRECTION('ref_axis',(0.707106781186548,0.707106781186547,0.));
#575=DIRECTION('center_axis',(0.,0.,1.));
#576=DIRECTION('ref_axis',(0.707106781186548,0.707106781186547,0.));
#577=DIRECTION('center_axis',(0.,0.,-1.));
#578=DIRECTION('ref_axis',(1.83697019872103E-16,1.,0.));
#579=DIRECTION('',(0.,0.,-1.));
#580=DIRECTION('center_axis',(0.,0.,-1.));
#581=DIRECTION('ref_axis',(1.83697019872103E-16,1.,0.));
#582=DIRECTION('center_axis',(0.,0.,1.));
#583=DIRECTION('ref_axis',(1.83697019872103E-16,1.,0.));
#584=DIRECTION('center_axis',(0.,0.,-1.));
#585=DIRECTION('ref_axis',(-0.707106781186547,0.707106781186548,0.));
#586=DIRECTION('',(0.,0.,-1.));
#587=DIRECTION('center_axis',(0.,0.,-1.));
#588=DIRECTION('ref_axis',(-0.707106781186547,0.707106781186548,0.));
#589=DIRECTION('center_axis',(0.,0.,1.));
#590=DIRECTION('ref_axis',(-0.707106781186547,0.707106781186548,0.));
#591=CARTESIAN_POINT('',(0.,0.,0.));
#592=CARTESIAN_POINT('Origin',(0.,41.5,-59.));
#593=CARTESIAN_POINT('',(12.5,41.5,-59.));
#594=CARTESIAN_POINT('Origin',(0.,41.5,-59.));
#595=CARTESIAN_POINT('',(12.5,41.5,-63.));
#596=CARTESIAN_POINT('',(12.5,41.5,-59.));
#597=CARTESIAN_POINT('Origin',(0.,41.5,-63.));
#598=CARTESIAN_POINT('Origin',(0.,41.5,-63.));
#599=CARTESIAN_POINT('Origin',(0.,0.,-55.));
#600=CARTESIAN_POINT('',(26.5,-3.24531401774049E-15,-59.));
#601=CARTESIAN_POINT('Origin',(0.,0.,-59.));
#602=CARTESIAN_POINT('',(26.5,3.24531401774049E-15,-61.5));
#603=CARTESIAN_POINT('',(26.5,-3.24531401774049E-15,-55.));
#604=CARTESIAN_POINT('Origin',(0.,0.,-61.5));
#605=CARTESIAN_POINT('Origin',(0.,0.,-61.5));
#606=CARTESIAN_POINT('',(-1.7,19.7657955777121,-61.5));
#607=CARTESIAN_POINT('Origin',(-2.77555756156289E-16,19.7657955777121,-61.5));
#608=CARTESIAN_POINT('',(-1.7,-19.7657955777121,-61.5));
#609=CARTESIAN_POINT('Origin',(0.,-19.7657955777121,-61.5));
#610=CARTESIAN_POINT('',(-12.5,-1.53080849893419E-15,-61.5));
#611=CARTESIAN_POINT('Origin',(0.,0.,-61.5));
#612=CARTESIAN_POINT('Origin',(-2.77555756156289E-16,19.7657955777121,-64.5));
#613=CARTESIAN_POINT('',(-3.,19.7657955777121,-64.5));
#614=CARTESIAN_POINT('Origin',(-2.77555756156289E-16,19.7657955777121,-64.5));
#615=CARTESIAN_POINT('',(-3.,19.7657955777121,-63.));
#616=CARTESIAN_POINT('',(-3.,19.7657955777121,-64.5));
#617=CARTESIAN_POINT('Origin',(-2.77555756156289E-16,19.7657955777121,-63.));
#618=CARTESIAN_POINT('Origin',(0.,19.7657955777121,-63.));
#619=CARTESIAN_POINT('',(-1.7,19.7657955777121,-63.));
#620=CARTESIAN_POINT('Origin',(-2.77555756156289E-16,19.7657955777121,-63.));
#621=CARTESIAN_POINT('Origin',(0.,-19.7657955777121,-64.5));
#622=CARTESIAN_POINT('',(-3.,-19.7657955777121,-64.5));
#623=CARTESIAN_POINT('Origin',(0.,-19.7657955777121,-64.5));
#624=CARTESIAN_POINT('',(-3.,-19.7657955777121,-63.));
#625=CARTESIAN_POINT('',(-3.,-19.7657955777121,-64.5));
#626=CARTESIAN_POINT('Origin',(0.,-19.7657955777121,-63.));
#627=CARTESIAN_POINT('Origin',(0.,-19.7657955777121,-63.));
#628=CARTESIAN_POINT('',(-1.7,-19.7657955777121,-63.));
#629=CARTESIAN_POINT('Origin',(0.,-19.7657955777121,-63.));
#630=CARTESIAN_POINT('Origin',(0.,0.,-64.5));
#631=CARTESIAN_POINT('',(-56.5,6.91925441518255E-15,-64.5));
#632=CARTESIAN_POINT('Origin',(0.,0.,-64.5));
#633=CARTESIAN_POINT('',(-12.5,1.53080849893419E-15,-64.5));
#634=CARTESIAN_POINT('Origin',(0.,0.,-64.5));
#635=CARTESIAN_POINT('Origin',(-2.77555756156289E-16,19.7657955777121,-61.5));
#636=CARTESIAN_POINT('',(-1.7,19.7657955777121,-61.5));
#637=CARTESIAN_POINT('Origin',(0.,-19.7657955777121,-61.5));
#638=CARTESIAN_POINT('',(-1.7,-19.7657955777121,-61.5));
#639=CARTESIAN_POINT('Origin',(0.,0.,-61.5));
#640=CARTESIAN_POINT('',(-12.5,-1.53080849893419E-15,-61.5));
#641=CARTESIAN_POINT('Origin',(0.,0.,-61.5));
#642=CARTESIAN_POINT('',(-56.5,6.91925441518255E-15,-59.));
#643=CARTESIAN_POINT('Origin',(0.,0.,-59.));
#644=CARTESIAN_POINT('',(-56.5,-6.91925441518255E-15,-61.5));
#645=CARTESIAN_POINT('Origin',(0.,0.,-59.));
#646=CARTESIAN_POINT('',(38.1837661840736,20.5060966544099,-59.));
#647=CARTESIAN_POINT('Origin',(29.3449314192417,29.3449314192417,-59.));
#648=CARTESIAN_POINT('',(41.5,-12.5,-59.));
#649=CARTESIAN_POINT('Origin',(41.5,-7.62342632469227E-15,-59.));
#650=CARTESIAN_POINT('',(20.5060966544099,-38.1837661840736,-59.));
#651=CARTESIAN_POINT('Origin',(29.3449314192417,-29.3449314192417,-59.));
#652=CARTESIAN_POINT('',(-12.5,-41.5,-59.));
#653=CARTESIAN_POINT('Origin',(-5.08228421646152E-15,-41.5,-59.));
#654=CARTESIAN_POINT('',(-38.1837661840736,-20.5060966544099,-59.));
#655=CARTESIAN_POINT('Origin',(-29.3449314192417,-29.3449314192417,-59.));
#656=CARTESIAN_POINT('',(-41.5,12.5,-59.));
#657=CARTESIAN_POINT('Origin',(-41.5,2.54114210823076E-15,-59.));
#658=CARTESIAN_POINT('',(-20.5060966544099,38.1837661840736,-59.));
#659=CARTESIAN_POINT('Origin',(-29.3449314192417,29.3449314192417,-59.));
#660=CARTESIAN_POINT('Origin',(-29.3449314192417,29.3449314192417,-59.));
#661=CARTESIAN_POINT('',(-20.5060966544099,38.1837661840736,-63.));
#662=CARTESIAN_POINT('',(-20.5060966544099,38.1837661840736,-59.));
#663=CARTESIAN_POINT('Origin',(-29.3449314192417,29.3449314192417,-63.));
#664=CARTESIAN_POINT('Origin',(-29.3449314192417,29.3449314192417,-63.));
#665=CARTESIAN_POINT('Origin',(-41.5,2.54114210823076E-15,-59.));
#666=CARTESIAN_POINT('',(-41.5,12.5,-63.));
#667=CARTESIAN_POINT('',(-41.5,12.5,-59.));
#668=CARTESIAN_POINT('Origin',(-41.5,2.54114210823076E-15,-63.));
#669=CARTESIAN_POINT('Origin',(-41.5,2.54114210823076E-15,-63.));
#670=CARTESIAN_POINT('Origin',(-29.3449314192417,-29.3449314192417,-59.));
#671=CARTESIAN_POINT('',(-38.1837661840736,-20.5060966544099,-63.));
#672=CARTESIAN_POINT('',(-38.1837661840736,-20.5060966544099,-59.));
#673=CARTESIAN_POINT('Origin',(-29.3449314192417,-29.3449314192417,-63.));
#674=CARTESIAN_POINT('Origin',(-29.3449314192417,-29.3449314192417,-63.));
#675=CARTESIAN_POINT('Origin',(-5.08228421646152E-15,-41.5,-59.));
#676=CARTESIAN_POINT('',(-12.5,-41.5,-63.));
#677=CARTESIAN_POINT('',(-12.5,-41.5,-59.));
#678=CARTESIAN_POINT('Origin',(-5.08228421646152E-15,-41.5,-63.));
#679=CARTESIAN_POINT('Origin',(-5.08228421646152E-15,-41.5,-63.));
#680=CARTESIAN_POINT('Origin',(29.3449314192417,-29.3449314192417,-59.));
#681=CARTESIAN_POINT('',(20.5060966544099,-38.1837661840736,-63.));
#682=CARTESIAN_POINT('',(20.5060966544099,-38.1837661840736,-59.));
#683=CARTESIAN_POINT('Origin',(29.3449314192417,-29.3449314192417,-63.));
#684=CARTESIAN_POINT('Origin',(29.3449314192417,-29.3449314192417,-63.));
#685=CARTESIAN_POINT('Origin',(41.5,-7.62342632469227E-15,-59.));
#686=CARTESIAN_POINT('',(41.5,-12.5,-63.));
#687=CARTESIAN_POINT('',(41.5,-12.5,-59.));
#688=CARTESIAN_POINT('Origin',(41.5,-7.62342632469227E-15,-63.));
#689=CARTESIAN_POINT('Origin',(41.5,-7.62342632469227E-15,-63.));
#690=CARTESIAN_POINT('Origin',(29.3449314192417,29.3449314192417,-59.));
#691=CARTESIAN_POINT('',(38.1837661840736,20.5060966544099,-63.));
#692=CARTESIAN_POINT('',(38.1837661840736,20.5060966544099,-59.));
#693=CARTESIAN_POINT('Origin',(29.3449314192417,29.3449314192417,-63.));
#694=CARTESIAN_POINT('Origin',(29.3449314192417,29.3449314192417,-63.));
#695=UNCERTAINTY_MEASURE_WITH_UNIT(LENGTH_MEASURE(0.01),#699,
'DISTANCE_ACCURACY_VALUE',
'Maximum model space distance between geometric entities at asserted c
onnectivities');
#696=UNCERTAINTY_MEASURE_WITH_UNIT(LENGTH_MEASURE(0.01),#699,
'DISTANCE_ACCURACY_VALUE',
'Maximum model space distance between geometric entities at asserted c
onnectivities');
#697=(
GEOMETRIC_REPRESENTATION_CONTEXT(3)
GLOBAL_UNCERTAINTY_ASSIGNED_CONTEXT((#695))
GLOBAL_UNIT_ASSIGNED_CONTEXT((#699,#701,#702))
REPRESENTATION_CONTEXT('','3D')
);
#698=(
GEOMETRIC_REPRESENTATION_CONTEXT(3)
GLOBAL_UNCERTAINTY_ASSIGNED_CONTEXT((#696))
GLOBAL_UNIT_ASSIGNED_CONTEXT((#699,#701,#702))
REPRESENTATION_CONTEXT('','3D')
);
#699=(
LENGTH_UNIT()
NAMED_UNIT(*)
SI_UNIT(.MILLI.,.METRE.)
);
#700=(
LENGTH_UNIT()
NAMED_UNIT(*)
SI_UNIT($,.METRE.)
);
#701=(
NAMED_UNIT(*)
PLANE_ANGLE_UNIT()
SI_UNIT($,.RADIAN.)
);
#702=(
NAMED_UNIT(*)
SI_UNIT($,.STERADIAN.)
SOLID_ANGLE_UNIT()
);
#703=SHAPE_DEFINITION_REPRESENTATION(#704,#705);
#704=PRODUCT_DEFINITION_SHAPE('',$,#707);
#705=SHAPE_REPRESENTATION('',(#399),#697);
#706=PRODUCT_DEFINITION_CONTEXT('part definition',#711,'design');
#707=PRODUCT_DEFINITION('POWDER PAN','POWDER PAN',#708,#706);
#708=PRODUCT_DEFINITION_FORMATION('',$,#713);
#709=PRODUCT_RELATED_PRODUCT_CATEGORY('POWDER PAN','POWDER PAN',(#713));
#710=APPLICATION_PROTOCOL_DEFINITION('international standard',
'automotive_design',2009,#711);
#711=APPLICATION_CONTEXT(
'Core Data for Automotive Mechanical Design Process');
#712=PRODUCT_CONTEXT('part definition',#711,'mechanical');
#713=PRODUCT('POWDER PAN','POWDER PAN',$,(#712));
#714=PRESENTATION_STYLE_ASSIGNMENT((#715));
#715=SURFACE_STYLE_USAGE(.BOTH.,#716);
#716=SURFACE_SIDE_STYLE('',(#717));
#717=SURFACE_STYLE_FILL_AREA(#718);
#718=FILL_AREA_STYLE('Steel - Satin',(#719));
#719=FILL_AREA_STYLE_COLOUR('Steel - Satin',#720);
#720=COLOUR_RGB('Steel - Satin',0.627450980392157,0.627450980392157,0.627450980392157);
ENDSEC;
END-ISO-10303-21;
