ISO-10303-21;
HEADER;
/* Generated by software containing ST-Developer
 * from STEP Tools, Inc. (www.steptools.com) 
 */

FILE_DESCRIPTION(
/* description */ (''),
/* implementation_level */ '2;1');

FILE_NAME(
/* name */ 'POWDER PAN.step',
/* time_stamp */ '2026-03-23T18:18:00-05:00',
/* author */ (''),
/* organization */ (''),
/* preprocessor_version */ 'ST-DEVELOPER v20.1',
/* originating_system */ 'Autodesk Translation Framework v14.24.0.0',
/* authorisation */ '');

FILE_SCHEMA (('AUTOMOTIVE_DESIGN { 1 0 10303 214 3 1 1 }'));
ENDSEC;

DATA;
#10=MECHANICAL_DESIGN_GEOMETRIC_PRESENTATION_REPRESENTATION('',(#13),#438);
#11=SHAPE_REPRESENTATION_RELATIONSHIP('SRR','None',#445,#12);
#12=ADVANCED_BREP_SHAPE_REPRESENTATION('',(#14),#437);
#13=STYLED_ITEM('',(#454),#14);
#14=MANIFOLD_SOLID_BREP('Scale post',#247);
#15=FACE_BOUND('',#60,.T.);
#16=FACE_BOUND('',#62,.T.);
#17=PLANE('',#266);
#18=PLANE('',#270);
#19=PLANE('',#271);
#20=PLANE('',#275);
#21=PLANE('',#279);
#22=PLANE('',#283);
#23=PLANE('',#287);
#24=PLANE('',#288);
#25=CYLINDRICAL_SURFACE('',#264,4.55);
#26=CYLINDRICAL_SURFACE('',#267,2.25);
#27=CYLINDRICAL_SURFACE('',#272,2.13);
#28=CYLINDRICAL_SURFACE('',#276,2.13);
#29=CYLINDRICAL_SURFACE('',#280,2.13);
#30=CYLINDRICAL_SURFACE('',#284,2.13);
#31=FACE_OUTER_BOUND('',#46,.T.);
#32=FACE_OUTER_BOUND('',#47,.T.);
#33=FACE_OUTER_BOUND('',#48,.T.);
#34=FACE_OUTER_BOUND('',#49,.T.);
#35=FACE_OUTER_BOUND('',#50,.T.);
#36=FACE_OUTER_BOUND('',#51,.T.);
#37=FACE_OUTER_BOUND('',#52,.T.);
#38=FACE_OUTER_BOUND('',#53,.T.);
#39=FACE_OUTER_BOUND('',#54,.T.);
#40=FACE_OUTER_BOUND('',#55,.T.);
#41=FACE_OUTER_BOUND('',#56,.T.);
#42=FACE_OUTER_BOUND('',#57,.T.);
#43=FACE_OUTER_BOUND('',#58,.T.);
#44=FACE_OUTER_BOUND('',#59,.T.);
#45=FACE_OUTER_BOUND('',#61,.T.);
#46=EDGE_LOOP('',(#167,#168,#169,#170));
#47=EDGE_LOOP('',(#171,#172,#173,#174));
#48=EDGE_LOOP('',(#175));
#49=EDGE_LOOP('',(#176,#177,#178,#179));
#50=EDGE_LOOP('',(#180));
#51=EDGE_LOOP('',(#181,#182,#183,#184));
#52=EDGE_LOOP('',(#185,#186,#187,#188));
#53=EDGE_LOOP('',(#189,#190,#191,#192));
#54=EDGE_LOOP('',(#193,#194,#195,#196));
#55=EDGE_LOOP('',(#197,#198,#199,#200));
#56=EDGE_LOOP('',(#201,#202,#203,#204));
#57=EDGE_LOOP('',(#205,#206,#207,#208));
#58=EDGE_LOOP('',(#209,#210,#211,#212));
#59=EDGE_LOOP('',(#213,#214,#215,#216,#217,#218,#219,#220));
#60=EDGE_LOOP('',(#221));
#61=EDGE_LOOP('',(#222,#223,#224,#225,#226,#227,#228,#229));
#62=EDGE_LOOP('',(#230));
#63=LINE('',#371,#82);
#64=LINE('',#375,#83);
#65=LINE('',#382,#84);
#66=LINE('',#388,#85);
#67=LINE('',#390,#86);
#68=LINE('',#392,#87);
#69=LINE('',#393,#88);
#70=LINE('',#399,#89);
#71=LINE('',#402,#90);
#72=LINE('',#404,#91);
#73=LINE('',#405,#92);
#74=LINE('',#411,#93);
#75=LINE('',#414,#94);
#76=LINE('',#416,#95);
#77=LINE('',#417,#96);
#78=LINE('',#423,#97);
#79=LINE('',#426,#98);
#80=LINE('',#428,#99);
#81=LINE('',#429,#100);
#82=VECTOR('',#295,3.675);
#83=VECTOR('',#300,4.55);
#84=VECTOR('',#309,2.25);
#85=VECTOR('',#316,10.);
#86=VECTOR('',#317,10.);
#87=VECTOR('',#318,10.);
#88=VECTOR('',#319,10.);
#89=VECTOR('',#326,10.);
#90=VECTOR('',#329,10.);
#91=VECTOR('',#330,10.);
#92=VECTOR('',#331,10.);
#93=VECTOR('',#338,10.);
#94=VECTOR('',#341,10.);
#95=VECTOR('',#342,10.);
#96=VECTOR('',#343,10.);
#97=VECTOR('',#350,10.);
#98=VECTOR('',#353,10.);
#99=VECTOR('',#354,10.);
#100=VECTOR('',#355,10.);
#101=CIRCLE('',#262,2.8);
#102=CIRCLE('',#263,4.55);
#103=CIRCLE('',#265,4.55);
#104=CIRCLE('',#268,2.25);
#105=CIRCLE('',#269,2.25);
#106=CIRCLE('',#273,2.13);
#107=CIRCLE('',#274,2.13);
#108=CIRCLE('',#277,2.13);
#109=CIRCLE('',#278,2.13);
#110=CIRCLE('',#281,2.13);
#111=CIRCLE('',#282,2.13);
#112=CIRCLE('',#285,2.13);
#113=CIRCLE('',#286,2.13);
#114=VERTEX_POINT('',#368);
#115=VERTEX_POINT('',#370);
#116=VERTEX_POINT('',#374);
#117=VERTEX_POINT('',#379);
#118=VERTEX_POINT('',#381);
#119=VERTEX_POINT('',#386);
#120=VERTEX_POINT('',#387);
#121=VERTEX_POINT('',#389);
#122=VERTEX_POINT('',#391);
#123=VERTEX_POINT('',#395);
#124=VERTEX_POINT('',#397);
#125=VERTEX_POINT('',#401);
#126=VERTEX_POINT('',#403);
#127=VERTEX_POINT('',#407);
#128=VERTEX_POINT('',#409);
#129=VERTEX_POINT('',#413);
#130=VERTEX_POINT('',#415);
#131=VERTEX_POINT('',#419);
#132=VERTEX_POINT('',#421);
#133=VERTEX_POINT('',#425);
#134=VERTEX_POINT('',#427);
#135=EDGE_CURVE('',#114,#114,#101,.T.);
#136=EDGE_CURVE('',#114,#115,#63,.T.);
#137=EDGE_CURVE('',#115,#115,#102,.T.);
#138=EDGE_CURVE('',#115,#116,#64,.T.);
#139=EDGE_CURVE('',#116,#116,#103,.T.);
#140=EDGE_CURVE('',#117,#117,#104,.T.);
#141=EDGE_CURVE('',#117,#118,#65,.T.);
#142=EDGE_CURVE('',#118,#118,#105,.T.);
#143=EDGE_CURVE('',#119,#120,#66,.F.);
#144=EDGE_CURVE('',#119,#121,#67,.T.);
#145=EDGE_CURVE('',#122,#121,#68,.T.);
#146=EDGE_CURVE('',#120,#122,#69,.T.);
#147=EDGE_CURVE('',#120,#123,#106,.F.);
#148=EDGE_CURVE('',#124,#122,#107,.T.);
#149=EDGE_CURVE('',#123,#124,#70,.T.);
#150=EDGE_CURVE('',#123,#125,#71,.F.);
#151=EDGE_CURVE('',#126,#124,#72,.T.);
#152=EDGE_CURVE('',#125,#126,#73,.T.);
#153=EDGE_CURVE('',#125,#127,#108,.F.);
#154=EDGE_CURVE('',#128,#126,#109,.T.);
#155=EDGE_CURVE('',#127,#128,#74,.T.);
#156=EDGE_CURVE('',#127,#129,#75,.F.);
#157=EDGE_CURVE('',#130,#128,#76,.T.);
#158=EDGE_CURVE('',#129,#130,#77,.T.);
#159=EDGE_CURVE('',#129,#131,#110,.F.);
#160=EDGE_CURVE('',#132,#130,#111,.T.);
#161=EDGE_CURVE('',#131,#132,#78,.T.);
#162=EDGE_CURVE('',#131,#133,#79,.F.);
#163=EDGE_CURVE('',#134,#132,#80,.T.);
#164=EDGE_CURVE('',#133,#134,#81,.T.);
#165=EDGE_CURVE('',#133,#119,#112,.F.);
#166=EDGE_CURVE('',#121,#134,#113,.T.);
#167=ORIENTED_EDGE('',*,*,#135,.T.);
#168=ORIENTED_EDGE('',*,*,#136,.T.);
#169=ORIENTED_EDGE('',*,*,#137,.T.);
#170=ORIENTED_EDGE('',*,*,#136,.F.);
#171=ORIENTED_EDGE('',*,*,#137,.F.);
#172=ORIENTED_EDGE('',*,*,#138,.T.);
#173=ORIENTED_EDGE('',*,*,#139,.F.);
#174=ORIENTED_EDGE('',*,*,#138,.F.);
#175=ORIENTED_EDGE('',*,*,#135,.F.);
#176=ORIENTED_EDGE('',*,*,#140,.F.);
#177=ORIENTED_EDGE('',*,*,#141,.T.);
#178=ORIENTED_EDGE('',*,*,#142,.T.);
#179=ORIENTED_EDGE('',*,*,#141,.F.);
#180=ORIENTED_EDGE('',*,*,#142,.F.);
#181=ORIENTED_EDGE('',*,*,#143,.F.);
#182=ORIENTED_EDGE('',*,*,#144,.T.);
#183=ORIENTED_EDGE('',*,*,#145,.F.);
#184=ORIENTED_EDGE('',*,*,#146,.F.);
#185=ORIENTED_EDGE('',*,*,#147,.F.);
#186=ORIENTED_EDGE('',*,*,#146,.T.);
#187=ORIENTED_EDGE('',*,*,#148,.F.);
#188=ORIENTED_EDGE('',*,*,#149,.F.);
#189=ORIENTED_EDGE('',*,*,#150,.F.);
#190=ORIENTED_EDGE('',*,*,#149,.T.);
#191=ORIENTED_EDGE('',*,*,#151,.F.);
#192=ORIENTED_EDGE('',*,*,#152,.F.);
#193=ORIENTED_EDGE('',*,*,#153,.F.);
#194=ORIENTED_EDGE('',*,*,#152,.T.);
#195=ORIENTED_EDGE('',*,*,#154,.F.);
#196=ORIENTED_EDGE('',*,*,#155,.F.);
#197=ORIENTED_EDGE('',*,*,#156,.F.);
#198=ORIENTED_EDGE('',*,*,#155,.T.);
#199=ORIENTED_EDGE('',*,*,#157,.F.);
#200=ORIENTED_EDGE('',*,*,#158,.F.);
#201=ORIENTED_EDGE('',*,*,#159,.F.);
#202=ORIENTED_EDGE('',*,*,#158,.T.);
#203=ORIENTED_EDGE('',*,*,#160,.F.);
#204=ORIENTED_EDGE('',*,*,#161,.F.);
#205=ORIENTED_EDGE('',*,*,#162,.F.);
#206=ORIENTED_EDGE('',*,*,#161,.T.);
#207=ORIENTED_EDGE('',*,*,#163,.F.);
#208=ORIENTED_EDGE('',*,*,#164,.F.);
#209=ORIENTED_EDGE('',*,*,#165,.F.);
#210=ORIENTED_EDGE('',*,*,#164,.T.);
#211=ORIENTED_EDGE('',*,*,#166,.F.);
#212=ORIENTED_EDGE('',*,*,#144,.F.);
#213=ORIENTED_EDGE('',*,*,#165,.T.);
#214=ORIENTED_EDGE('',*,*,#143,.T.);
#215=ORIENTED_EDGE('',*,*,#147,.T.);
#216=ORIENTED_EDGE('',*,*,#150,.T.);
#217=ORIENTED_EDGE('',*,*,#153,.T.);
#218=ORIENTED_EDGE('',*,*,#156,.T.);
#219=ORIENTED_EDGE('',*,*,#159,.T.);
#220=ORIENTED_EDGE('',*,*,#162,.T.);
#221=ORIENTED_EDGE('',*,*,#140,.T.);
#222=ORIENTED_EDGE('',*,*,#166,.T.);
#223=ORIENTED_EDGE('',*,*,#163,.T.);
#224=ORIENTED_EDGE('',*,*,#160,.T.);
#225=ORIENTED_EDGE('',*,*,#157,.T.);
#226=ORIENTED_EDGE('',*,*,#154,.T.);
#227=ORIENTED_EDGE('',*,*,#151,.T.);
#228=ORIENTED_EDGE('',*,*,#148,.T.);
#229=ORIENTED_EDGE('',*,*,#145,.T.);
#230=ORIENTED_EDGE('',*,*,#139,.T.);
#231=CONICAL_SURFACE('',#261,3.675,0.129862052228734);
#232=ADVANCED_FACE('',(#31),#231,.T.);
#233=ADVANCED_FACE('',(#32),#25,.T.);
#234=ADVANCED_FACE('',(#33),#17,.T.);
#235=ADVANCED_FACE('',(#34),#26,.F.);
#236=ADVANCED_FACE('',(#35),#18,.T.);
#237=ADVANCED_FACE('',(#36),#19,.T.);
#238=ADVANCED_FACE('',(#37),#27,.T.);
#239=ADVANCED_FACE('',(#38),#20,.T.);
#240=ADVANCED_FACE('',(#39),#28,.T.);
#241=ADVANCED_FACE('',(#40),#21,.T.);
#242=ADVANCED_FACE('',(#41),#29,.T.);
#243=ADVANCED_FACE('',(#42),#22,.T.);
#244=ADVANCED_FACE('',(#43),#30,.T.);
#245=ADVANCED_FACE('',(#44,#15),#23,.T.);
#246=ADVANCED_FACE('',(#45,#16),#24,.F.);
#247=CLOSED_SHELL('',(#232,#233,#234,#235,#236,#237,#238,#239,#240,#241,
#242,#243,#244,#245,#246));
#248=DERIVED_UNIT_ELEMENT(#250,1.);
#249=DERIVED_UNIT_ELEMENT(#440,-3.);
#250=(
MASS_UNIT()
NAMED_UNIT(*)
SI_UNIT(.KILO.,.GRAM.)
);
#251=DERIVED_UNIT((#248,#249));
#252=MEASURE_REPRESENTATION_ITEM('density measure',
POSITIVE_RATIO_MEASURE(7850.),#251);
#253=PROPERTY_DEFINITION_REPRESENTATION(#258,#255);
#254=PROPERTY_DEFINITION_REPRESENTATION(#259,#256);
#255=REPRESENTATION('material name',(#257),#437);
#256=REPRESENTATION('density',(#252),#437);
#257=DESCRIPTIVE_REPRESENTATION_ITEM('Steel','Steel');
#258=PROPERTY_DEFINITION('material property','material name',#447);
#259=PROPERTY_DEFINITION('material property','density of part',#447);
#260=AXIS2_PLACEMENT_3D('',#366,#289,#290);
#261=AXIS2_PLACEMENT_3D('',#367,#291,#292);
#262=AXIS2_PLACEMENT_3D('',#369,#293,#294);
#263=AXIS2_PLACEMENT_3D('',#372,#296,#297);
#264=AXIS2_PLACEMENT_3D('',#373,#298,#299);
#265=AXIS2_PLACEMENT_3D('',#376,#301,#302);
#266=AXIS2_PLACEMENT_3D('',#377,#303,#304);
#267=AXIS2_PLACEMENT_3D('',#378,#305,#306);
#268=AXIS2_PLACEMENT_3D('',#380,#307,#308);
#269=AXIS2_PLACEMENT_3D('',#383,#310,#311);
#270=AXIS2_PLACEMENT_3D('',#384,#312,#313);
#271=AXIS2_PLACEMENT_3D('',#385,#314,#315);
#272=AXIS2_PLACEMENT_3D('',#394,#320,#321);
#273=AXIS2_PLACEMENT_3D('',#396,#322,#323);
#274=AXIS2_PLACEMENT_3D('',#398,#324,#325);
#275=AXIS2_PLACEMENT_3D('',#400,#327,#328);
#276=AXIS2_PLACEMENT_3D('',#406,#332,#333);
#277=AXIS2_PLACEMENT_3D('',#408,#334,#335);
#278=AXIS2_PLACEMENT_3D('',#410,#336,#337);
#279=AXIS2_PLACEMENT_3D('',#412,#339,#340);
#280=AXIS2_PLACEMENT_3D('',#418,#344,#345);
#281=AXIS2_PLACEMENT_3D('',#420,#346,#347);
#282=AXIS2_PLACEMENT_3D('',#422,#348,#349);
#283=AXIS2_PLACEMENT_3D('',#424,#351,#352);
#284=AXIS2_PLACEMENT_3D('',#430,#356,#357);
#285=AXIS2_PLACEMENT_3D('',#431,#358,#359);
#286=AXIS2_PLACEMENT_3D('',#432,#360,#361);
#287=AXIS2_PLACEMENT_3D('',#433,#362,#363);
#288=AXIS2_PLACEMENT_3D('',#434,#364,#365);
#289=DIRECTION('axis',(0.,0.,1.));
#290=DIRECTION('refdir',(1.,0.,0.));
#291=DIRECTION('center_axis',(0.,0.,1.));
#292=DIRECTION('ref_axis',(1.,0.,0.));
#293=DIRECTION('center_axis',(0.,0.,1.));
#294=DIRECTION('ref_axis',(1.,0.,0.));
#295=DIRECTION('',(-0.129497357633376,1.58588524523754E-17,0.991579767021279));
#296=DIRECTION('center_axis',(0.,0.,-1.));
#297=DIRECTION('ref_axis',(1.,0.,0.));
#298=DIRECTION('center_axis',(0.,0.,-1.));
#299=DIRECTION('ref_axis',(1.,0.,0.));
#300=DIRECTION('',(0.,0.,1.));
#301=DIRECTION('center_axis',(0.,0.,1.));
#302=DIRECTION('ref_axis',(1.,0.,0.));
#303=DIRECTION('center_axis',(0.,0.,-1.));
#304=DIRECTION('ref_axis',(1.,0.,0.));
#305=DIRECTION('center_axis',(0.,0.,-1.));
#306=DIRECTION('ref_axis',(-1.,0.,0.));
#307=DIRECTION('center_axis',(0.,0.,-1.));
#308=DIRECTION('ref_axis',(-1.,0.,0.));
#309=DIRECTION('',(0.,0.,-1.));
#310=DIRECTION('center_axis',(0.,0.,-1.));
#311=DIRECTION('ref_axis',(-1.,0.,0.));
#312=DIRECTION('center_axis',(0.,0.,1.));
#313=DIRECTION('ref_axis',(-1.,0.,0.));
#314=DIRECTION('center_axis',(9.9660953736549E-17,-1.,0.));
#315=DIRECTION('ref_axis',(-1.,-9.9660953736549E-17,0.));
#316=DIRECTION('',(-1.,-9.9660953736549E-17,0.));
#317=DIRECTION('',(0.,0.,-1.));
#318=DIRECTION('',(-1.,-9.9660953736549E-17,0.));
#319=DIRECTION('',(0.,0.,-1.));
#320=DIRECTION('center_axis',(0.,0.,-1.));
#321=DIRECTION('ref_axis',(-2.77555756156289E-16,-1.,0.));
#322=DIRECTION('center_axis',(0.,0.,-1.));
#323=DIRECTION('ref_axis',(-2.77555756156289E-16,-1.,0.));
#324=DIRECTION('center_axis',(0.,0.,-1.));
#325=DIRECTION('ref_axis',(-2.77555756156289E-16,-1.,0.));
#326=DIRECTION('',(0.,0.,-1.));
#327=DIRECTION('center_axis',(1.,0.,0.));
#328=DIRECTION('ref_axis',(0.,-1.,0.));
#329=DIRECTION('',(0.,-1.,0.));
#330=DIRECTION('',(0.,-1.,0.));
#331=DIRECTION('',(0.,0.,-1.));
#332=DIRECTION('center_axis',(0.,0.,-1.));
#333=DIRECTION('ref_axis',(1.,-5.55111512312579E-16,0.));
#334=DIRECTION('center_axis',(0.,0.,-1.));
#335=DIRECTION('ref_axis',(1.,-5.55111512312579E-16,0.));
#336=DIRECTION('center_axis',(0.,0.,-1.));
#337=DIRECTION('ref_axis',(1.,-5.55111512312579E-16,0.));
#338=DIRECTION('',(0.,0.,-1.));
#339=DIRECTION('center_axis',(0.,1.,0.));
#340=DIRECTION('ref_axis',(1.,0.,0.));
#341=DIRECTION('',(1.,0.,0.));
#342=DIRECTION('',(1.,0.,0.));
#343=DIRECTION('',(0.,0.,-1.));
#344=DIRECTION('center_axis',(0.,0.,-1.));
#345=DIRECTION('ref_axis',(2.77555756156289E-16,1.,0.));
#346=DIRECTION('center_axis',(0.,0.,-1.));
#347=DIRECTION('ref_axis',(2.77555756156289E-16,1.,0.));
#348=DIRECTION('center_axis',(0.,0.,-1.));
#349=DIRECTION('ref_axis',(2.77555756156289E-16,1.,0.));
#350=DIRECTION('',(0.,0.,-1.));
#351=DIRECTION('center_axis',(-1.,0.,0.));
#352=DIRECTION('ref_axis',(0.,1.,0.));
#353=DIRECTION('',(0.,1.,0.));
#354=DIRECTION('',(0.,1.,0.));
#355=DIRECTION('',(0.,0.,-1.));
#356=DIRECTION('center_axis',(0.,0.,-1.));
#357=DIRECTION('ref_axis',(-1.,0.,0.));
#358=DIRECTION('center_axis',(0.,0.,-1.));
#359=DIRECTION('ref_axis',(-1.,0.,0.));
#360=DIRECTION('center_axis',(0.,0.,-1.));
#361=DIRECTION('ref_axis',(-1.,0.,0.));
#362=DIRECTION('center_axis',(0.,0.,1.));
#363=DIRECTION('ref_axis',(-1.,0.,0.));
#364=DIRECTION('center_axis',(0.,0.,1.));
#365=DIRECTION('ref_axis',(-1.,0.,0.));
#366=CARTESIAN_POINT('',(0.,0.,0.));
#367=CARTESIAN_POINT('Origin',(0.,0.,-73.1));
#368=CARTESIAN_POINT('',(-2.8,-3.42901103761259E-16,-79.8));
#369=CARTESIAN_POINT('Origin',(0.,0.,-79.8));
#370=CARTESIAN_POINT('',(-4.55,5.57214293612046E-16,-66.4));
#371=CARTESIAN_POINT('',(-3.675,4.50057698686652E-16,-73.1));
#372=CARTESIAN_POINT('Origin',(0.,0.,-66.4));
#373=CARTESIAN_POINT('Origin',(0.,0.,-66.3));
#374=CARTESIAN_POINT('',(-4.55,5.57214293612046E-16,-66.3));
#375=CARTESIAN_POINT('',(-4.55,5.57214293612046E-16,-66.3));
#376=CARTESIAN_POINT('Origin',(0.,0.,-66.3));
#377=CARTESIAN_POINT('Origin',(0.,0.,-79.8));
#378=CARTESIAN_POINT('Origin',(0.,0.,-58.));
#379=CARTESIAN_POINT('',(2.25,2.75545529808154E-16,-58.));
#380=CARTESIAN_POINT('Origin',(0.,0.,-58.));
#381=CARTESIAN_POINT('',(2.25,2.75545529808154E-16,-64.));
#382=CARTESIAN_POINT('',(2.25,-2.75545529808154E-16,-58.));
#383=CARTESIAN_POINT('Origin',(0.,0.,-64.));
#384=CARTESIAN_POINT('Origin',(0.,0.,-64.));
#385=CARTESIAN_POINT('Origin',(2.785,-4.915,-58.));
#386=CARTESIAN_POINT('',(-2.785,-4.915,-58.));
#387=CARTESIAN_POINT('',(2.785,-4.915,-58.));
#388=CARTESIAN_POINT('',(1.3925,-4.915,-58.));
#389=CARTESIAN_POINT('',(-2.785,-4.915,-66.3));
#390=CARTESIAN_POINT('',(-2.785,-4.915,-58.));
#391=CARTESIAN_POINT('',(2.785,-4.915,-66.3));
#392=CARTESIAN_POINT('',(1.3925,-4.915,-66.3));
#393=CARTESIAN_POINT('',(2.785,-4.915,-58.));
#394=CARTESIAN_POINT('Origin',(2.785,-2.785,-58.));
#395=CARTESIAN_POINT('',(4.915,-2.785,-58.));
#396=CARTESIAN_POINT('Origin',(2.785,-2.785,-58.));
#397=CARTESIAN_POINT('',(4.915,-2.785,-66.3));
#398=CARTESIAN_POINT('Origin',(2.785,-2.785,-66.3));
#399=CARTESIAN_POINT('',(4.915,-2.785,-58.));
#400=CARTESIAN_POINT('Origin',(4.915,2.785,-58.));
#401=CARTESIAN_POINT('',(4.915,2.785,-58.));
#402=CARTESIAN_POINT('',(4.915,1.3925,-58.));
#403=CARTESIAN_POINT('',(4.915,2.785,-66.3));
#404=CARTESIAN_POINT('',(4.915,1.3925,-66.3));
#405=CARTESIAN_POINT('',(4.915,2.785,-58.));
#406=CARTESIAN_POINT('Origin',(2.785,2.785,-58.));
#407=CARTESIAN_POINT('',(2.785,4.915,-58.));
#408=CARTESIAN_POINT('Origin',(2.785,2.785,-58.));
#409=CARTESIAN_POINT('',(2.785,4.915,-66.3));
#410=CARTESIAN_POINT('Origin',(2.785,2.785,-66.3));
#411=CARTESIAN_POINT('',(2.785,4.915,-58.));
#412=CARTESIAN_POINT('Origin',(-2.785,4.915,-58.));
#413=CARTESIAN_POINT('',(-2.785,4.915,-58.));
#414=CARTESIAN_POINT('',(-1.3925,4.915,-58.));
#415=CARTESIAN_POINT('',(-2.785,4.915,-66.3));
#416=CARTESIAN_POINT('',(-1.3925,4.915,-66.3));
#417=CARTESIAN_POINT('',(-2.785,4.915,-58.));
#418=CARTESIAN_POINT('Origin',(-2.785,2.785,-58.));
#419=CARTESIAN_POINT('',(-4.915,2.785,-58.));
#420=CARTESIAN_POINT('Origin',(-2.785,2.785,-58.));
#421=CARTESIAN_POINT('',(-4.915,2.785,-66.3));
#422=CARTESIAN_POINT('Origin',(-2.785,2.785,-66.3));
#423=CARTESIAN_POINT('',(-4.915,2.785,-58.));
#424=CARTESIAN_POINT('Origin',(-4.915,-2.785,-58.));
#425=CARTESIAN_POINT('',(-4.915,-2.785,-58.));
#426=CARTESIAN_POINT('',(-4.915,-1.3925,-58.));
#427=CARTESIAN_POINT('',(-4.915,-2.785,-66.3));
#428=CARTESIAN_POINT('',(-4.915,-1.3925,-66.3));
#429=CARTESIAN_POINT('',(-4.915,-2.785,-58.));
#430=CARTESIAN_POINT('Origin',(-2.785,-2.785,-58.));
#431=CARTESIAN_POINT('Origin',(-2.785,-2.785,-58.));
#432=CARTESIAN_POINT('Origin',(-2.785,-2.785,-66.3));
#433=CARTESIAN_POINT('Origin',(-1.11022302462516E-15,1.11022302462516E-15,
-58.));
#434=CARTESIAN_POINT('Origin',(-1.11022302462516E-15,1.11022302462516E-15,
-66.3));
#435=UNCERTAINTY_MEASURE_WITH_UNIT(LENGTH_MEASURE(0.01),#439,
'DISTANCE_ACCURACY_VALUE',
'Maximum model space distance between geometric entities at asserted c
onnectivities');
#436=UNCERTAINTY_MEASURE_WITH_UNIT(LENGTH_MEASURE(0.01),#439,
'DISTANCE_ACCURACY_VALUE',
'Maximum model space distance between geometric entities at asserted c
onnectivities');
#437=(
GEOMETRIC_REPRESENTATION_CONTEXT(3)
GLOBAL_UNCERTAINTY_ASSIGNED_CONTEXT((#435))
GLOBAL_UNIT_ASSIGNED_CONTEXT((#439,#441,#442))
REPRESENTATION_CONTEXT('','3D')
);
#438=(
GEOMETRIC_REPRESENTATION_CONTEXT(3)
GLOBAL_UNCERTAINTY_ASSIGNED_CONTEXT((#436))
GLOBAL_UNIT_ASSIGNED_CONTEXT((#439,#441,#442))
REPRESENTATION_CONTEXT('','3D')
);
#439=(
LENGTH_UNIT()
NAMED_UNIT(*)
SI_UNIT(.MILLI.,.METRE.)
);
#440=(
LENGTH_UNIT()
NAMED_UNIT(*)
SI_UNIT($,.METRE.)
);
#441=(
NAMED_UNIT(*)
PLANE_ANGLE_UNIT()
SI_UNIT($,.RADIAN.)
);
#442=(
NAMED_UNIT(*)
SI_UNIT($,.STERADIAN.)
SOLID_ANGLE_UNIT()
);
#443=SHAPE_DEFINITION_REPRESENTATION(#444,#445);
#444=PRODUCT_DEFINITION_SHAPE('',$,#447);
#445=SHAPE_REPRESENTATION('',(#260),#437);
#446=PRODUCT_DEFINITION_CONTEXT('part definition',#451,'design');
#447=PRODUCT_DEFINITION('POWDER PAN','POWDER PAN',#448,#446);
#448=PRODUCT_DEFINITION_FORMATION('',$,#453);
#449=PRODUCT_RELATED_PRODUCT_CATEGORY('POWDER PAN','POWDER PAN',(#453));
#450=APPLICATION_PROTOCOL_DEFINITION('international standard',
'automotive_design',2009,#451);
#451=APPLICATION_CONTEXT(
'Core Data for Automotive Mechanical Design Process');
#452=PRODUCT_CONTEXT('part definition',#451,'mechanical');
#453=PRODUCT('POWDER PAN','POWDER PAN',$,(#452));
#454=PRESENTATION_STYLE_ASSIGNMENT((#455));
#455=SURFACE_STYLE_USAGE(.BOTH.,#456);
#456=SURFACE_SIDE_STYLE('',(#457));
#457=SURFACE_STYLE_FILL_AREA(#458);
#458=FILL_AREA_STYLE('Steel - Satin',(#459));
#459=FILL_AREA_STYLE_COLOUR('Steel - Satin',#460);
#460=COLOUR_RGB('Steel - Satin',0.627450980392157,0.627450980392157,0.627450980392157);
ENDSEC;
END-ISO-10303-21;
