ISO-10303-21;
HEADER;
/* Generated by software containing ST-Developer
 * from STEP Tools, Inc. (www.steptools.com) 
 */

FILE_DESCRIPTION(
/* description */ (''),
/* implementation_level */ '2;1');

FILE_NAME(
/* name */ 'WEIGHT PAN. 29MM CUP BASE .step',
/* time_stamp */ '2026-03-30T10:56:22-05:00',
/* author */ (''),
/* organization */ (''),
/* preprocessor_version */ 'ST-DEVELOPER v20.1',
/* originating_system */ 'Autodesk Translation Framework v14.24.0.0',
/* authorisation */ '');

FILE_SCHEMA (('AUTOMOTIVE_DESIGN { 1 0 10303 214 3 1 1 }'));
ENDSEC;

DATA;
#10=MECHANICAL_DESIGN_GEOMETRIC_PRESENTATION_REPRESENTATION('',(#13),#752);
#11=SHAPE_REPRESENTATION_RELATIONSHIP('SRR','None',#759,#12);
#12=ADVANCED_BREP_SHAPE_REPRESENTATION('',(#14),#751);
#13=STYLED_ITEM('',(#768),#14);
#14=MANIFOLD_SOLID_BREP('Weight pan',#429);
#15=CONICAL_SURFACE('',#477,25.,0.321750554396643);
#16=B_SPLINE_CURVE_WITH_KNOTS('',3,(#707,#708,#709,#710),.UNSPECIFIED.,
 .F.,.F.,(4,4),(0.,0.43567220544773),.UNSPECIFIED.);
#17=B_SPLINE_CURVE_WITH_KNOTS('',3,(#719,#720,#721,#722),.UNSPECIFIED.,
 .F.,.F.,(4,4),(0.,0.436459627807504),.UNSPECIFIED.);
#18=FACE_BOUND('',#91,.T.);
#19=FACE_BOUND('',#98,.T.);
#20=FACE_BOUND('',#109,.T.);
#21=FACE_BOUND('',#111,.T.);
#22=FACE_BOUND('',#112,.T.);
#23=FACE_BOUND('',#113,.T.);
#24=CIRCLE('',#445,2.13);
#25=CIRCLE('',#446,2.13);
#26=CIRCLE('',#449,2.13);
#27=CIRCLE('',#450,2.13);
#28=CIRCLE('',#453,2.13);
#29=CIRCLE('',#454,2.13);
#30=CIRCLE('',#457,2.13);
#31=CIRCLE('',#458,2.13);
#32=CIRCLE('',#460,1.7);
#33=CIRCLE('',#462,2.25);
#34=CIRCLE('',#463,2.25);
#35=CIRCLE('',#466,2.25);
#36=CIRCLE('',#467,2.25);
#37=CIRCLE('',#470,3.);
#38=CIRCLE('',#471,3.);
#39=CIRCLE('',#473,1.7);
#40=CIRCLE('',#478,25.5);
#41=CIRCLE('',#479,24.5);
#42=CIRCLE('',#481,24.5);
#43=CIRCLE('',#485,26.5);
#44=CIRCLE('',#487,26.5);
#45=CIRCLE('',#488,26.5);
#46=CYLINDRICAL_SURFACE('',#444,2.13);
#47=CYLINDRICAL_SURFACE('',#448,2.13);
#48=CYLINDRICAL_SURFACE('',#452,2.13);
#49=CYLINDRICAL_SURFACE('',#456,2.13);
#50=CYLINDRICAL_SURFACE('',#461,2.25);
#51=CYLINDRICAL_SURFACE('',#465,2.25);
#52=CYLINDRICAL_SURFACE('',#469,3.);
#53=CYLINDRICAL_SURFACE('',#474,1.7);
#54=CYLINDRICAL_SURFACE('',#480,24.5);
#55=CYLINDRICAL_SURFACE('',#486,26.5);
#56=FACE_OUTER_BOUND('',#82,.T.);
#57=FACE_OUTER_BOUND('',#83,.T.);
#58=FACE_OUTER_BOUND('',#84,.T.);
#59=FACE_OUTER_BOUND('',#85,.T.);
#60=FACE_OUTER_BOUND('',#86,.T.);
#61=FACE_OUTER_BOUND('',#87,.T.);
#62=FACE_OUTER_BOUND('',#88,.T.);
#63=FACE_OUTER_BOUND('',#89,.T.);
#64=FACE_OUTER_BOUND('',#90,.T.);
#65=FACE_OUTER_BOUND('',#92,.T.);
#66=FACE_OUTER_BOUND('',#93,.T.);
#67=FACE_OUTER_BOUND('',#94,.T.);
#68=FACE_OUTER_BOUND('',#95,.T.);
#69=FACE_OUTER_BOUND('',#96,.T.);
#70=FACE_OUTER_BOUND('',#97,.T.);
#71=FACE_OUTER_BOUND('',#99,.T.);
#72=FACE_OUTER_BOUND('',#100,.T.);
#73=FACE_OUTER_BOUND('',#101,.T.);
#74=FACE_OUTER_BOUND('',#102,.T.);
#75=FACE_OUTER_BOUND('',#103,.T.);
#76=FACE_OUTER_BOUND('',#104,.T.);
#77=FACE_OUTER_BOUND('',#105,.T.);
#78=FACE_OUTER_BOUND('',#106,.T.);
#79=FACE_OUTER_BOUND('',#107,.T.);
#80=FACE_OUTER_BOUND('',#108,.T.);
#81=FACE_OUTER_BOUND('',#110,.T.);
#82=EDGE_LOOP('',(#274,#275,#276,#277));
#83=EDGE_LOOP('',(#278,#279,#280,#281));
#84=EDGE_LOOP('',(#282,#283,#284,#285));
#85=EDGE_LOOP('',(#286,#287,#288,#289));
#86=EDGE_LOOP('',(#290,#291,#292,#293));
#87=EDGE_LOOP('',(#294,#295,#296,#297));
#88=EDGE_LOOP('',(#298,#299,#300,#301));
#89=EDGE_LOOP('',(#302,#303,#304,#305));
#90=EDGE_LOOP('',(#306,#307,#308,#309,#310,#311,#312,#313));
#91=EDGE_LOOP('',(#314));
#92=EDGE_LOOP('',(#315,#316,#317,#318));
#93=EDGE_LOOP('',(#319));
#94=EDGE_LOOP('',(#320,#321,#322,#323));
#95=EDGE_LOOP('',(#324));
#96=EDGE_LOOP('',(#325,#326,#327,#328));
#97=EDGE_LOOP('',(#329));
#98=EDGE_LOOP('',(#330));
#99=EDGE_LOOP('',(#331,#332,#333,#334));
#100=EDGE_LOOP('',(#335,#336,#337,#338));
#101=EDGE_LOOP('',(#339,#340,#341,#342));
#102=EDGE_LOOP('',(#343,#344,#345,#346));
#103=EDGE_LOOP('',(#347,#348,#349,#350));
#104=EDGE_LOOP('',(#351,#352,#353,#354));
#105=EDGE_LOOP('',(#355,#356,#357,#358));
#106=EDGE_LOOP('',(#359,#360,#361,#362));
#107=EDGE_LOOP('',(#363,#364,#365,#366,#367,#368,#369));
#108=EDGE_LOOP('',(#370,#371,#372,#373,#374,#375));
#109=EDGE_LOOP('',(#376));
#110=EDGE_LOOP('',(#377));
#111=EDGE_LOOP('',(#378,#379,#380,#381,#382,#383,#384,#385));
#112=EDGE_LOOP('',(#386));
#113=EDGE_LOOP('',(#387));
#114=LINE('',#626,#147);
#115=LINE('',#628,#148);
#116=LINE('',#630,#149);
#117=LINE('',#631,#150);
#118=LINE('',#637,#151);
#119=LINE('',#640,#152);
#120=LINE('',#642,#153);
#121=LINE('',#643,#154);
#122=LINE('',#649,#155);
#123=LINE('',#652,#156);
#124=LINE('',#654,#157);
#125=LINE('',#655,#158);
#126=LINE('',#661,#159);
#127=LINE('',#664,#160);
#128=LINE('',#666,#161);
#129=LINE('',#667,#162);
#130=LINE('',#678,#163);
#131=LINE('',#685,#164);
#132=LINE('',#692,#165);
#133=LINE('',#698,#166);
#134=LINE('',#702,#167);
#135=LINE('',#704,#168);
#136=LINE('',#706,#169);
#137=LINE('',#714,#170);
#138=LINE('',#716,#171);
#139=LINE('',#718,#172);
#140=LINE('',#730,#173);
#141=LINE('',#732,#174);
#142=LINE('',#733,#175);
#143=LINE('',#736,#176);
#144=LINE('',#738,#177);
#145=LINE('',#739,#178);
#146=LINE('',#745,#179);
#147=VECTOR('',#495,10.);
#148=VECTOR('',#496,10.);
#149=VECTOR('',#497,10.);
#150=VECTOR('',#498,10.);
#151=VECTOR('',#505,10.);
#152=VECTOR('',#508,10.);
#153=VECTOR('',#509,10.);
#154=VECTOR('',#510,10.);
#155=VECTOR('',#517,10.);
#156=VECTOR('',#520,10.);
#157=VECTOR('',#521,10.);
#158=VECTOR('',#522,10.);
#159=VECTOR('',#529,10.);
#160=VECTOR('',#532,10.);
#161=VECTOR('',#533,10.);
#162=VECTOR('',#534,10.);
#163=VECTOR('',#549,2.25);
#164=VECTOR('',#558,2.25);
#165=VECTOR('',#567,3.);
#166=VECTOR('',#576,1.7);
#167=VECTOR('',#579,10.);
#168=VECTOR('',#580,10.);
#169=VECTOR('',#581,10.);
#170=VECTOR('',#584,10.);
#171=VECTOR('',#585,10.);
#172=VECTOR('',#586,10.);
#173=VECTOR('',#599,10.);
#174=VECTOR('',#600,10.);
#175=VECTOR('',#601,10.);
#176=VECTOR('',#604,10.);
#177=VECTOR('',#605,10.);
#178=VECTOR('',#606,10.);
#179=VECTOR('',#615,26.5);
#180=VERTEX_POINT('',#624);
#181=VERTEX_POINT('',#625);
#182=VERTEX_POINT('',#627);
#183=VERTEX_POINT('',#629);
#184=VERTEX_POINT('',#633);
#185=VERTEX_POINT('',#635);
#186=VERTEX_POINT('',#639);
#187=VERTEX_POINT('',#641);
#188=VERTEX_POINT('',#645);
#189=VERTEX_POINT('',#647);
#190=VERTEX_POINT('',#651);
#191=VERTEX_POINT('',#653);
#192=VERTEX_POINT('',#657);
#193=VERTEX_POINT('',#659);
#194=VERTEX_POINT('',#663);
#195=VERTEX_POINT('',#665);
#196=VERTEX_POINT('',#672);
#197=VERTEX_POINT('',#675);
#198=VERTEX_POINT('',#677);
#199=VERTEX_POINT('',#682);
#200=VERTEX_POINT('',#684);
#201=VERTEX_POINT('',#689);
#202=VERTEX_POINT('',#691);
#203=VERTEX_POINT('',#695);
#204=VERTEX_POINT('',#700);
#205=VERTEX_POINT('',#701);
#206=VERTEX_POINT('',#703);
#207=VERTEX_POINT('',#705);
#208=VERTEX_POINT('',#712);
#209=VERTEX_POINT('',#713);
#210=VERTEX_POINT('',#715);
#211=VERTEX_POINT('',#717);
#212=VERTEX_POINT('',#729);
#213=VERTEX_POINT('',#731);
#214=VERTEX_POINT('',#735);
#215=VERTEX_POINT('',#737);
#216=VERTEX_POINT('',#743);
#217=EDGE_CURVE('',#180,#181,#114,.T.);
#218=EDGE_CURVE('',#182,#180,#115,.T.);
#219=EDGE_CURVE('',#182,#183,#116,.F.);
#220=EDGE_CURVE('',#183,#181,#117,.T.);
#221=EDGE_CURVE('',#181,#184,#24,.T.);
#222=EDGE_CURVE('',#183,#185,#25,.F.);
#223=EDGE_CURVE('',#185,#184,#118,.T.);
#224=EDGE_CURVE('',#184,#186,#119,.T.);
#225=EDGE_CURVE('',#185,#187,#120,.F.);
#226=EDGE_CURVE('',#187,#186,#121,.T.);
#227=EDGE_CURVE('',#186,#188,#26,.T.);
#228=EDGE_CURVE('',#187,#189,#27,.F.);
#229=EDGE_CURVE('',#189,#188,#122,.T.);
#230=EDGE_CURVE('',#188,#190,#123,.T.);
#231=EDGE_CURVE('',#189,#191,#124,.F.);
#232=EDGE_CURVE('',#191,#190,#125,.T.);
#233=EDGE_CURVE('',#190,#192,#28,.T.);
#234=EDGE_CURVE('',#191,#193,#29,.F.);
#235=EDGE_CURVE('',#193,#192,#126,.T.);
#236=EDGE_CURVE('',#192,#194,#127,.T.);
#237=EDGE_CURVE('',#193,#195,#128,.F.);
#238=EDGE_CURVE('',#195,#194,#129,.T.);
#239=EDGE_CURVE('',#194,#180,#30,.T.);
#240=EDGE_CURVE('',#195,#182,#31,.F.);
#241=EDGE_CURVE('',#196,#196,#32,.T.);
#242=EDGE_CURVE('',#197,#197,#33,.T.);
#243=EDGE_CURVE('',#197,#198,#130,.T.);
#244=EDGE_CURVE('',#198,#198,#34,.T.);
#245=EDGE_CURVE('',#199,#199,#35,.T.);
#246=EDGE_CURVE('',#199,#200,#131,.T.);
#247=EDGE_CURVE('',#200,#200,#36,.T.);
#248=EDGE_CURVE('',#201,#201,#37,.T.);
#249=EDGE_CURVE('',#201,#202,#132,.T.);
#250=EDGE_CURVE('',#202,#202,#38,.T.);
#251=EDGE_CURVE('',#203,#203,#39,.T.);
#252=EDGE_CURVE('',#203,#196,#133,.T.);
#253=EDGE_CURVE('',#204,#205,#134,.T.);
#254=EDGE_CURVE('',#205,#206,#135,.F.);
#255=EDGE_CURVE('',#206,#207,#136,.T.);
#256=EDGE_CURVE('',#207,#204,#16,.T.);
#257=EDGE_CURVE('',#208,#209,#137,.T.);
#258=EDGE_CURVE('',#209,#210,#138,.F.);
#259=EDGE_CURVE('',#210,#211,#139,.T.);
#260=EDGE_CURVE('',#211,#208,#17,.T.);
#261=EDGE_CURVE('',#207,#208,#40,.T.);
#262=EDGE_CURVE('',#211,#204,#41,.T.);
#263=EDGE_CURVE('',#205,#210,#42,.T.);
#264=EDGE_CURVE('',#212,#208,#140,.T.);
#265=EDGE_CURVE('',#213,#212,#141,.T.);
#266=EDGE_CURVE('',#209,#213,#142,.T.);
#267=EDGE_CURVE('',#214,#206,#143,.T.);
#268=EDGE_CURVE('',#214,#215,#144,.T.);
#269=EDGE_CURVE('',#207,#215,#145,.T.);
#270=EDGE_CURVE('',#215,#212,#43,.T.);
#271=EDGE_CURVE('',#216,#216,#44,.T.);
#272=EDGE_CURVE('',#216,#214,#146,.T.);
#273=EDGE_CURVE('',#213,#214,#45,.T.);
#274=ORIENTED_EDGE('',*,*,#217,.F.);
#275=ORIENTED_EDGE('',*,*,#218,.F.);
#276=ORIENTED_EDGE('',*,*,#219,.T.);
#277=ORIENTED_EDGE('',*,*,#220,.T.);
#278=ORIENTED_EDGE('',*,*,#221,.F.);
#279=ORIENTED_EDGE('',*,*,#220,.F.);
#280=ORIENTED_EDGE('',*,*,#222,.T.);
#281=ORIENTED_EDGE('',*,*,#223,.T.);
#282=ORIENTED_EDGE('',*,*,#224,.F.);
#283=ORIENTED_EDGE('',*,*,#223,.F.);
#284=ORIENTED_EDGE('',*,*,#225,.T.);
#285=ORIENTED_EDGE('',*,*,#226,.T.);
#286=ORIENTED_EDGE('',*,*,#227,.F.);
#287=ORIENTED_EDGE('',*,*,#226,.F.);
#288=ORIENTED_EDGE('',*,*,#228,.T.);
#289=ORIENTED_EDGE('',*,*,#229,.T.);
#290=ORIENTED_EDGE('',*,*,#230,.F.);
#291=ORIENTED_EDGE('',*,*,#229,.F.);
#292=ORIENTED_EDGE('',*,*,#231,.T.);
#293=ORIENTED_EDGE('',*,*,#232,.T.);
#294=ORIENTED_EDGE('',*,*,#233,.F.);
#295=ORIENTED_EDGE('',*,*,#232,.F.);
#296=ORIENTED_EDGE('',*,*,#234,.T.);
#297=ORIENTED_EDGE('',*,*,#235,.T.);
#298=ORIENTED_EDGE('',*,*,#236,.F.);
#299=ORIENTED_EDGE('',*,*,#235,.F.);
#300=ORIENTED_EDGE('',*,*,#237,.T.);
#301=ORIENTED_EDGE('',*,*,#238,.T.);
#302=ORIENTED_EDGE('',*,*,#239,.F.);
#303=ORIENTED_EDGE('',*,*,#238,.F.);
#304=ORIENTED_EDGE('',*,*,#240,.T.);
#305=ORIENTED_EDGE('',*,*,#218,.T.);
#306=ORIENTED_EDGE('',*,*,#228,.F.);
#307=ORIENTED_EDGE('',*,*,#225,.F.);
#308=ORIENTED_EDGE('',*,*,#222,.F.);
#309=ORIENTED_EDGE('',*,*,#219,.F.);
#310=ORIENTED_EDGE('',*,*,#240,.F.);
#311=ORIENTED_EDGE('',*,*,#237,.F.);
#312=ORIENTED_EDGE('',*,*,#234,.F.);
#313=ORIENTED_EDGE('',*,*,#231,.F.);
#314=ORIENTED_EDGE('',*,*,#241,.F.);
#315=ORIENTED_EDGE('',*,*,#242,.F.);
#316=ORIENTED_EDGE('',*,*,#243,.T.);
#317=ORIENTED_EDGE('',*,*,#244,.T.);
#318=ORIENTED_EDGE('',*,*,#243,.F.);
#319=ORIENTED_EDGE('',*,*,#244,.F.);
#320=ORIENTED_EDGE('',*,*,#245,.F.);
#321=ORIENTED_EDGE('',*,*,#246,.T.);
#322=ORIENTED_EDGE('',*,*,#247,.T.);
#323=ORIENTED_EDGE('',*,*,#246,.F.);
#324=ORIENTED_EDGE('',*,*,#247,.F.);
#325=ORIENTED_EDGE('',*,*,#248,.F.);
#326=ORIENTED_EDGE('',*,*,#249,.T.);
#327=ORIENTED_EDGE('',*,*,#250,.T.);
#328=ORIENTED_EDGE('',*,*,#249,.F.);
#329=ORIENTED_EDGE('',*,*,#250,.F.);
#330=ORIENTED_EDGE('',*,*,#251,.F.);
#331=ORIENTED_EDGE('',*,*,#251,.T.);
#332=ORIENTED_EDGE('',*,*,#252,.T.);
#333=ORIENTED_EDGE('',*,*,#241,.T.);
#334=ORIENTED_EDGE('',*,*,#252,.F.);
#335=ORIENTED_EDGE('',*,*,#253,.T.);
#336=ORIENTED_EDGE('',*,*,#254,.T.);
#337=ORIENTED_EDGE('',*,*,#255,.T.);
#338=ORIENTED_EDGE('',*,*,#256,.T.);
#339=ORIENTED_EDGE('',*,*,#257,.T.);
#340=ORIENTED_EDGE('',*,*,#258,.T.);
#341=ORIENTED_EDGE('',*,*,#259,.T.);
#342=ORIENTED_EDGE('',*,*,#260,.T.);
#343=ORIENTED_EDGE('',*,*,#261,.T.);
#344=ORIENTED_EDGE('',*,*,#260,.F.);
#345=ORIENTED_EDGE('',*,*,#262,.T.);
#346=ORIENTED_EDGE('',*,*,#256,.F.);
#347=ORIENTED_EDGE('',*,*,#253,.F.);
#348=ORIENTED_EDGE('',*,*,#262,.F.);
#349=ORIENTED_EDGE('',*,*,#259,.F.);
#350=ORIENTED_EDGE('',*,*,#263,.F.);
#351=ORIENTED_EDGE('',*,*,#257,.F.);
#352=ORIENTED_EDGE('',*,*,#264,.F.);
#353=ORIENTED_EDGE('',*,*,#265,.F.);
#354=ORIENTED_EDGE('',*,*,#266,.F.);
#355=ORIENTED_EDGE('',*,*,#255,.F.);
#356=ORIENTED_EDGE('',*,*,#267,.F.);
#357=ORIENTED_EDGE('',*,*,#268,.T.);
#358=ORIENTED_EDGE('',*,*,#269,.F.);
#359=ORIENTED_EDGE('',*,*,#261,.F.);
#360=ORIENTED_EDGE('',*,*,#269,.T.);
#361=ORIENTED_EDGE('',*,*,#270,.T.);
#362=ORIENTED_EDGE('',*,*,#264,.T.);
#363=ORIENTED_EDGE('',*,*,#271,.F.);
#364=ORIENTED_EDGE('',*,*,#272,.T.);
#365=ORIENTED_EDGE('',*,*,#273,.F.);
#366=ORIENTED_EDGE('',*,*,#265,.T.);
#367=ORIENTED_EDGE('',*,*,#270,.F.);
#368=ORIENTED_EDGE('',*,*,#268,.F.);
#369=ORIENTED_EDGE('',*,*,#272,.F.);
#370=ORIENTED_EDGE('',*,*,#266,.T.);
#371=ORIENTED_EDGE('',*,*,#273,.T.);
#372=ORIENTED_EDGE('',*,*,#267,.T.);
#373=ORIENTED_EDGE('',*,*,#254,.F.);
#374=ORIENTED_EDGE('',*,*,#263,.T.);
#375=ORIENTED_EDGE('',*,*,#258,.F.);
#376=ORIENTED_EDGE('',*,*,#248,.T.);
#377=ORIENTED_EDGE('',*,*,#271,.T.);
#378=ORIENTED_EDGE('',*,*,#230,.T.);
#379=ORIENTED_EDGE('',*,*,#233,.T.);
#380=ORIENTED_EDGE('',*,*,#236,.T.);
#381=ORIENTED_EDGE('',*,*,#239,.T.);
#382=ORIENTED_EDGE('',*,*,#217,.T.);
#383=ORIENTED_EDGE('',*,*,#221,.T.);
#384=ORIENTED_EDGE('',*,*,#224,.T.);
#385=ORIENTED_EDGE('',*,*,#227,.T.);
#386=ORIENTED_EDGE('',*,*,#242,.T.);
#387=ORIENTED_EDGE('',*,*,#245,.T.);
#388=PLANE('',#443);
#389=PLANE('',#447);
#390=PLANE('',#451);
#391=PLANE('',#455);
#392=PLANE('',#459);
#393=PLANE('',#464);
#394=PLANE('',#468);
#395=PLANE('',#472);
#396=PLANE('',#475);
#397=PLANE('',#476);
#398=PLANE('',#482);
#399=PLANE('',#483);
#400=PLANE('',#484);
#401=PLANE('',#489);
#402=PLANE('',#490);
#403=ADVANCED_FACE('',(#56),#388,.F.);
#404=ADVANCED_FACE('',(#57),#46,.F.);
#405=ADVANCED_FACE('',(#58),#389,.F.);
#406=ADVANCED_FACE('',(#59),#47,.F.);
#407=ADVANCED_FACE('',(#60),#390,.F.);
#408=ADVANCED_FACE('',(#61),#48,.F.);
#409=ADVANCED_FACE('',(#62),#391,.F.);
#410=ADVANCED_FACE('',(#63),#49,.F.);
#411=ADVANCED_FACE('',(#64,#18),#392,.F.);
#412=ADVANCED_FACE('',(#65),#50,.F.);
#413=ADVANCED_FACE('',(#66),#393,.T.);
#414=ADVANCED_FACE('',(#67),#51,.F.);
#415=ADVANCED_FACE('',(#68),#394,.T.);
#416=ADVANCED_FACE('',(#69),#52,.F.);
#417=ADVANCED_FACE('',(#70,#19),#395,.T.);
#418=ADVANCED_FACE('',(#71),#53,.F.);
#419=ADVANCED_FACE('',(#72),#396,.T.);
#420=ADVANCED_FACE('',(#73),#397,.T.);
#421=ADVANCED_FACE('',(#74),#15,.F.);
#422=ADVANCED_FACE('',(#75),#54,.F.);
#423=ADVANCED_FACE('',(#76),#398,.T.);
#424=ADVANCED_FACE('',(#77),#399,.T.);
#425=ADVANCED_FACE('',(#78),#400,.T.);
#426=ADVANCED_FACE('',(#79),#55,.T.);
#427=ADVANCED_FACE('',(#80,#20),#401,.T.);
#428=ADVANCED_FACE('',(#81,#21,#22,#23),#402,.F.);
#429=CLOSED_SHELL('',(#403,#404,#405,#406,#407,#408,#409,#410,#411,#412,
#413,#414,#415,#416,#417,#418,#419,#420,#421,#422,#423,#424,#425,#426,#427,
#428));
#430=DERIVED_UNIT_ELEMENT(#432,1.);
#431=DERIVED_UNIT_ELEMENT(#754,-3.);
#432=(
MASS_UNIT()
NAMED_UNIT(*)
SI_UNIT(.KILO.,.GRAM.)
);
#433=DERIVED_UNIT((#430,#431));
#434=MEASURE_REPRESENTATION_ITEM('density measure',
POSITIVE_RATIO_MEASURE(7850.),#433);
#435=PROPERTY_DEFINITION_REPRESENTATION(#440,#437);
#436=PROPERTY_DEFINITION_REPRESENTATION(#441,#438);
#437=REPRESENTATION('material name',(#439),#751);
#438=REPRESENTATION('density',(#434),#751);
#439=DESCRIPTIVE_REPRESENTATION_ITEM('Steel','Steel');
#440=PROPERTY_DEFINITION('material property','material name',#761);
#441=PROPERTY_DEFINITION('material property','density of part',#761);
#442=AXIS2_PLACEMENT_3D('',#622,#491,#492);
#443=AXIS2_PLACEMENT_3D('',#623,#493,#494);
#444=AXIS2_PLACEMENT_3D('',#632,#499,#500);
#445=AXIS2_PLACEMENT_3D('',#634,#501,#502);
#446=AXIS2_PLACEMENT_3D('',#636,#503,#504);
#447=AXIS2_PLACEMENT_3D('',#638,#506,#507);
#448=AXIS2_PLACEMENT_3D('',#644,#511,#512);
#449=AXIS2_PLACEMENT_3D('',#646,#513,#514);
#450=AXIS2_PLACEMENT_3D('',#648,#515,#516);
#451=AXIS2_PLACEMENT_3D('',#650,#518,#519);
#452=AXIS2_PLACEMENT_3D('',#656,#523,#524);
#453=AXIS2_PLACEMENT_3D('',#658,#525,#526);
#454=AXIS2_PLACEMENT_3D('',#660,#527,#528);
#455=AXIS2_PLACEMENT_3D('',#662,#530,#531);
#456=AXIS2_PLACEMENT_3D('',#668,#535,#536);
#457=AXIS2_PLACEMENT_3D('',#669,#537,#538);
#458=AXIS2_PLACEMENT_3D('',#670,#539,#540);
#459=AXIS2_PLACEMENT_3D('',#671,#541,#542);
#460=AXIS2_PLACEMENT_3D('',#673,#543,#544);
#461=AXIS2_PLACEMENT_3D('',#674,#545,#546);
#462=AXIS2_PLACEMENT_3D('',#676,#547,#548);
#463=AXIS2_PLACEMENT_3D('',#679,#550,#551);
#464=AXIS2_PLACEMENT_3D('',#680,#552,#553);
#465=AXIS2_PLACEMENT_3D('',#681,#554,#555);
#466=AXIS2_PLACEMENT_3D('',#683,#556,#557);
#467=AXIS2_PLACEMENT_3D('',#686,#559,#560);
#468=AXIS2_PLACEMENT_3D('',#687,#561,#562);
#469=AXIS2_PLACEMENT_3D('',#688,#563,#564);
#470=AXIS2_PLACEMENT_3D('',#690,#565,#566);
#471=AXIS2_PLACEMENT_3D('',#693,#568,#569);
#472=AXIS2_PLACEMENT_3D('',#694,#570,#571);
#473=AXIS2_PLACEMENT_3D('',#696,#572,#573);
#474=AXIS2_PLACEMENT_3D('',#697,#574,#575);
#475=AXIS2_PLACEMENT_3D('',#699,#577,#578);
#476=AXIS2_PLACEMENT_3D('',#711,#582,#583);
#477=AXIS2_PLACEMENT_3D('',#723,#587,#588);
#478=AXIS2_PLACEMENT_3D('',#724,#589,#590);
#479=AXIS2_PLACEMENT_3D('',#725,#591,#592);
#480=AXIS2_PLACEMENT_3D('',#726,#593,#594);
#481=AXIS2_PLACEMENT_3D('',#727,#595,#596);
#482=AXIS2_PLACEMENT_3D('',#728,#597,#598);
#483=AXIS2_PLACEMENT_3D('',#734,#602,#603);
#484=AXIS2_PLACEMENT_3D('',#740,#607,#608);
#485=AXIS2_PLACEMENT_3D('',#741,#609,#610);
#486=AXIS2_PLACEMENT_3D('',#742,#611,#612);
#487=AXIS2_PLACEMENT_3D('',#744,#613,#614);
#488=AXIS2_PLACEMENT_3D('',#746,#616,#617);
#489=AXIS2_PLACEMENT_3D('',#747,#618,#619);
#490=AXIS2_PLACEMENT_3D('',#748,#620,#621);
#491=DIRECTION('axis',(0.,0.,1.));
#492=DIRECTION('refdir',(1.,0.,0.));
#493=DIRECTION('center_axis',(0.,1.,0.));
#494=DIRECTION('ref_axis',(1.,0.,0.));
#495=DIRECTION('',(-1.,0.,0.));
#496=DIRECTION('',(0.,0.,-1.));
#497=DIRECTION('',(1.,0.,0.));
#498=DIRECTION('',(0.,0.,-1.));
#499=DIRECTION('center_axis',(0.,0.,-1.));
#500=DIRECTION('ref_axis',(2.77555756156289E-16,1.,0.));
#501=DIRECTION('center_axis',(0.,0.,1.));
#502=DIRECTION('ref_axis',(2.77555756156289E-16,1.,0.));
#503=DIRECTION('center_axis',(0.,0.,-1.));
#504=DIRECTION('ref_axis',(2.77555756156289E-16,1.,0.));
#505=DIRECTION('',(0.,0.,-1.));
#506=DIRECTION('center_axis',(-1.,0.,0.));
#507=DIRECTION('ref_axis',(0.,1.,0.));
#508=DIRECTION('',(0.,-1.,0.));
#509=DIRECTION('',(0.,1.,0.));
#510=DIRECTION('',(0.,0.,-1.));
#511=DIRECTION('center_axis',(0.,0.,-1.));
#512=DIRECTION('ref_axis',(-1.,0.,0.));
#513=DIRECTION('center_axis',(0.,0.,1.));
#514=DIRECTION('ref_axis',(-1.,0.,0.));
#515=DIRECTION('center_axis',(0.,0.,-1.));
#516=DIRECTION('ref_axis',(-1.,0.,0.));
#517=DIRECTION('',(0.,0.,-1.));
#518=DIRECTION('center_axis',(9.9660953736549E-17,-1.,0.));
#519=DIRECTION('ref_axis',(-1.,-9.9660953736549E-17,0.));
#520=DIRECTION('',(1.,9.9660953736549E-17,0.));
#521=DIRECTION('',(-1.,-9.9660953736549E-17,0.));
#522=DIRECTION('',(0.,0.,-1.));
#523=DIRECTION('center_axis',(0.,0.,-1.));
#524=DIRECTION('ref_axis',(-2.77555756156289E-16,-1.,0.));
#525=DIRECTION('center_axis',(0.,0.,1.));
#526=DIRECTION('ref_axis',(-2.77555756156289E-16,-1.,0.));
#527=DIRECTION('center_axis',(0.,0.,-1.));
#528=DIRECTION('ref_axis',(-2.77555756156289E-16,-1.,0.));
#529=DIRECTION('',(0.,0.,-1.));
#530=DIRECTION('center_axis',(1.,0.,0.));
#531=DIRECTION('ref_axis',(0.,-1.,0.));
#532=DIRECTION('',(0.,1.,0.));
#533=DIRECTION('',(0.,-1.,0.));
#534=DIRECTION('',(0.,0.,-1.));
#535=DIRECTION('center_axis',(0.,0.,-1.));
#536=DIRECTION('ref_axis',(1.,-5.55111512312579E-16,0.));
#537=DIRECTION('center_axis',(0.,0.,1.));
#538=DIRECTION('ref_axis',(1.,-5.55111512312579E-16,0.));
#539=DIRECTION('center_axis',(0.,0.,-1.));
#540=DIRECTION('ref_axis',(1.,-5.55111512312579E-16,0.));
#541=DIRECTION('center_axis',(0.,0.,1.));
#542=DIRECTION('ref_axis',(-1.,0.,0.));
#543=DIRECTION('center_axis',(0.,0.,-1.));
#544=DIRECTION('ref_axis',(-1.,0.,0.));
#545=DIRECTION('center_axis',(0.,0.,1.));
#546=DIRECTION('ref_axis',(1.,0.,0.));
#547=DIRECTION('center_axis',(0.,0.,1.));
#548=DIRECTION('ref_axis',(1.,0.,0.));
#549=DIRECTION('',(0.,0.,1.));
#550=DIRECTION('center_axis',(0.,0.,1.));
#551=DIRECTION('ref_axis',(1.,0.,0.));
#552=DIRECTION('center_axis',(0.,0.,-1.));
#553=DIRECTION('ref_axis',(1.,0.,0.));
#554=DIRECTION('center_axis',(0.,0.,1.));
#555=DIRECTION('ref_axis',(1.,0.,0.));
#556=DIRECTION('center_axis',(0.,0.,1.));
#557=DIRECTION('ref_axis',(1.,0.,0.));
#558=DIRECTION('',(0.,0.,1.));
#559=DIRECTION('center_axis',(0.,0.,1.));
#560=DIRECTION('ref_axis',(1.,0.,0.));
#561=DIRECTION('center_axis',(0.,0.,-1.));
#562=DIRECTION('ref_axis',(1.,0.,0.));
#563=DIRECTION('center_axis',(0.,0.,-1.));
#564=DIRECTION('ref_axis',(-1.,0.,0.));
#565=DIRECTION('center_axis',(0.,0.,-1.));
#566=DIRECTION('ref_axis',(-1.,0.,0.));
#567=DIRECTION('',(0.,0.,-1.));
#568=DIRECTION('center_axis',(0.,0.,-1.));
#569=DIRECTION('ref_axis',(-1.,0.,0.));
#570=DIRECTION('center_axis',(0.,0.,1.));
#571=DIRECTION('ref_axis',(-1.,0.,0.));
#572=DIRECTION('center_axis',(0.,0.,1.));
#573=DIRECTION('ref_axis',(-1.,0.,0.));
#574=DIRECTION('center_axis',(0.,0.,-1.));
#575=DIRECTION('ref_axis',(-1.,0.,0.));
#576=DIRECTION('',(0.,0.,-1.));
#577=DIRECTION('center_axis',(-0.929976439858532,-0.367619125329533,0.));
#578=DIRECTION('ref_axis',(0.,0.,1.));
#579=DIRECTION('',(0.,0.,-1.));
#580=DIRECTION('',(-0.367619125329533,0.929976439858532,0.));
#581=DIRECTION('',(0.,0.,1.));
#582=DIRECTION('center_axis',(0.929976439858532,-0.367619125329533,0.));
#583=DIRECTION('ref_axis',(0.,0.,-1.));
#584=DIRECTION('',(0.,0.,-1.));
#585=DIRECTION('',(-0.367619125329533,-0.929976439858532,0.));
#586=DIRECTION('',(0.,0.,1.));
#587=DIRECTION('center_axis',(0.,0.,1.));
#588=DIRECTION('ref_axis',(1.,0.,0.));
#589=DIRECTION('center_axis',(0.,0.,1.));
#590=DIRECTION('ref_axis',(1.,0.,0.));
#591=DIRECTION('center_axis',(0.,0.,-1.));
#592=DIRECTION('ref_axis',(1.,0.,0.));
#593=DIRECTION('center_axis',(0.,0.,1.));
#594=DIRECTION('ref_axis',(1.,0.,0.));
#595=DIRECTION('center_axis',(0.,0.,1.));
#596=DIRECTION('ref_axis',(1.,0.,0.));
#597=DIRECTION('center_axis',(0.,-1.,0.));
#598=DIRECTION('ref_axis',(1.,0.,0.));
#599=DIRECTION('',(1.,0.,0.));
#600=DIRECTION('',(0.,0.,1.));
#601=DIRECTION('',(-1.,0.,0.));
#602=DIRECTION('center_axis',(0.,-1.,0.));
#603=DIRECTION('ref_axis',(1.,0.,0.));
#604=DIRECTION('',(-1.,0.,0.));
#605=DIRECTION('',(0.,0.,1.));
#606=DIRECTION('',(1.,0.,0.));
#607=DIRECTION('center_axis',(0.,0.,1.));
#608=DIRECTION('ref_axis',(-1.,0.,0.));
#609=DIRECTION('center_axis',(0.,0.,1.));
#610=DIRECTION('ref_axis',(1.,0.,0.));
#611=DIRECTION('center_axis',(0.,0.,-1.));
#612=DIRECTION('ref_axis',(-1.,0.,0.));
#613=DIRECTION('center_axis',(0.,0.,-1.));
#614=DIRECTION('ref_axis',(-1.,0.,0.));
#615=DIRECTION('',(0.,0.,1.));
#616=DIRECTION('center_axis',(0.,0.,1.));
#617=DIRECTION('ref_axis',(-1.,0.,0.));
#618=DIRECTION('center_axis',(0.,0.,1.));
#619=DIRECTION('ref_axis',(-1.,0.,0.));
#620=DIRECTION('center_axis',(0.,0.,1.));
#621=DIRECTION('ref_axis',(-1.,0.,0.));
#622=CARTESIAN_POINT('',(0.,0.,0.));
#623=CARTESIAN_POINT('Origin',(-2.785,4.915,-58.));
#624=CARTESIAN_POINT('',(2.785,4.915,-61.5));
#625=CARTESIAN_POINT('',(-2.785,4.915,-61.5));
#626=CARTESIAN_POINT('',(-1.3925,4.915,-61.5));
#627=CARTESIAN_POINT('',(2.785,4.915,-58.));
#628=CARTESIAN_POINT('',(2.785,4.915,-58.));
#629=CARTESIAN_POINT('',(-2.785,4.915,-58.));
#630=CARTESIAN_POINT('',(-1.3925,4.915,-58.));
#631=CARTESIAN_POINT('',(-2.785,4.915,-58.));
#632=CARTESIAN_POINT('Origin',(-2.785,2.785,-58.));
#633=CARTESIAN_POINT('',(-4.915,2.785,-61.5));
#634=CARTESIAN_POINT('Origin',(-2.785,2.785,-61.5));
#635=CARTESIAN_POINT('',(-4.915,2.785,-58.));
#636=CARTESIAN_POINT('Origin',(-2.785,2.785,-58.));
#637=CARTESIAN_POINT('',(-4.915,2.785,-58.));
#638=CARTESIAN_POINT('Origin',(-4.915,-2.785,-58.));
#639=CARTESIAN_POINT('',(-4.915,-2.785,-61.5));
#640=CARTESIAN_POINT('',(-4.915,-1.3925,-61.5));
#641=CARTESIAN_POINT('',(-4.915,-2.785,-58.));
#642=CARTESIAN_POINT('',(-4.915,-1.3925,-58.));
#643=CARTESIAN_POINT('',(-4.915,-2.785,-58.));
#644=CARTESIAN_POINT('Origin',(-2.785,-2.785,-58.));
#645=CARTESIAN_POINT('',(-2.785,-4.915,-61.5));
#646=CARTESIAN_POINT('Origin',(-2.785,-2.785,-61.5));
#647=CARTESIAN_POINT('',(-2.785,-4.915,-58.));
#648=CARTESIAN_POINT('Origin',(-2.785,-2.785,-58.));
#649=CARTESIAN_POINT('',(-2.785,-4.915,-58.));
#650=CARTESIAN_POINT('Origin',(2.785,-4.915,-58.));
#651=CARTESIAN_POINT('',(2.785,-4.915,-61.5));
#652=CARTESIAN_POINT('',(1.3925,-4.915,-61.5));
#653=CARTESIAN_POINT('',(2.785,-4.915,-58.));
#654=CARTESIAN_POINT('',(1.3925,-4.915,-58.));
#655=CARTESIAN_POINT('',(2.785,-4.915,-58.));
#656=CARTESIAN_POINT('Origin',(2.785,-2.785,-58.));
#657=CARTESIAN_POINT('',(4.915,-2.785,-61.5));
#658=CARTESIAN_POINT('Origin',(2.785,-2.785,-61.5));
#659=CARTESIAN_POINT('',(4.915,-2.785,-58.));
#660=CARTESIAN_POINT('Origin',(2.785,-2.785,-58.));
#661=CARTESIAN_POINT('',(4.915,-2.785,-58.));
#662=CARTESIAN_POINT('Origin',(4.915,2.785,-58.));
#663=CARTESIAN_POINT('',(4.915,2.785,-61.5));
#664=CARTESIAN_POINT('',(4.915,1.3925,-61.5));
#665=CARTESIAN_POINT('',(4.915,2.785,-58.));
#666=CARTESIAN_POINT('',(4.915,1.3925,-58.));
#667=CARTESIAN_POINT('',(4.915,2.785,-58.));
#668=CARTESIAN_POINT('Origin',(2.785,2.785,-58.));
#669=CARTESIAN_POINT('Origin',(2.785,2.785,-61.5));
#670=CARTESIAN_POINT('Origin',(2.785,2.785,-58.));
#671=CARTESIAN_POINT('Origin',(-1.11022302462516E-15,1.11022302462516E-15,
-58.));
#672=CARTESIAN_POINT('',(1.7,-2.0818995585505E-16,-58.));
#673=CARTESIAN_POINT('Origin',(0.,0.,-58.));
#674=CARTESIAN_POINT('Origin',(0.,-19.7657955777121,-61.5));
#675=CARTESIAN_POINT('',(-2.25,-19.7657955777121,-61.5));
#676=CARTESIAN_POINT('Origin',(0.,-19.7657955777121,-61.5));
#677=CARTESIAN_POINT('',(-2.25,-19.7657955777121,-56.5));
#678=CARTESIAN_POINT('',(-2.25,-19.7657955777121,-61.5));
#679=CARTESIAN_POINT('Origin',(0.,-19.7657955777121,-56.5));
#680=CARTESIAN_POINT('Origin',(0.,-19.7657955777121,-56.5));
#681=CARTESIAN_POINT('Origin',(-2.77555756156289E-16,19.7657955777121,-61.5));
#682=CARTESIAN_POINT('',(-2.25,19.7657955777121,-61.5));
#683=CARTESIAN_POINT('Origin',(-2.77555756156289E-16,19.7657955777121,-61.5));
#684=CARTESIAN_POINT('',(-2.25,19.7657955777121,-56.5));
#685=CARTESIAN_POINT('',(-2.25,19.7657955777121,-61.5));
#686=CARTESIAN_POINT('Origin',(-2.77555756156289E-16,19.7657955777121,-56.5));
#687=CARTESIAN_POINT('Origin',(-2.77555756156289E-16,19.7657955777121,-56.5));
#688=CARTESIAN_POINT('Origin',(0.,0.,-55.));
#689=CARTESIAN_POINT('',(3.,3.67394039744206E-16,-55.));
#690=CARTESIAN_POINT('Origin',(0.,0.,-55.));
#691=CARTESIAN_POINT('',(3.,3.67394039744206E-16,-56.5));
#692=CARTESIAN_POINT('',(3.,-3.67394039744206E-16,-55.));
#693=CARTESIAN_POINT('Origin',(0.,0.,-56.5));
#694=CARTESIAN_POINT('Origin',(0.,0.,-56.5));
#695=CARTESIAN_POINT('',(1.7,2.0818995585505E-16,-56.5));
#696=CARTESIAN_POINT('Origin',(0.,0.,-56.5));
#697=CARTESIAN_POINT('Origin',(0.,0.,-55.));
#698=CARTESIAN_POINT('',(1.7,-2.0818995585505E-16,-55.));
#699=CARTESIAN_POINT('Origin',(24.9081632653061,1.49718603191479,-55.));
#700=CARTESIAN_POINT('',(24.3163265306122,2.99437206382959,-53.577));
#701=CARTESIAN_POINT('',(24.3163265306122,2.99437206382959,-55.));
#702=CARTESIAN_POINT('',(24.3163265306122,2.99437206382959,-55.));
#703=CARTESIAN_POINT('',(25.5,0.,-55.));
#704=CARTESIAN_POINT('',(23.4809979109754,5.1075263647802,-55.));
#705=CARTESIAN_POINT('',(25.5,0.,-50.577));
#706=CARTESIAN_POINT('',(25.5,0.,-55.));
#707=CARTESIAN_POINT('Ctrl Pts',(25.5,5.27355936696949E-15,-50.577));
#708=CARTESIAN_POINT('Ctrl Pts',(25.1413895233799,0.907187007869016,-51.6528314298603));
#709=CARTESIAN_POINT('Ctrl Pts',(24.7434551152192,1.91385287125904,-52.7014014307108));
#710=CARTESIAN_POINT('Ctrl Pts',(24.3163265306122,2.99437206382959,-53.577));
#711=CARTESIAN_POINT('Origin',(-24.9081632653061,1.4971860319148,-55.));
#712=CARTESIAN_POINT('',(-25.5,0.,-50.577));
#713=CARTESIAN_POINT('',(-25.5,0.,-55.));
#714=CARTESIAN_POINT('',(-25.5,0.,-55.));
#715=CARTESIAN_POINT('',(-24.3163265306122,2.99437206382959,-55.));
#716=CARTESIAN_POINT('',(-23.4809979109754,5.10752636478019,-55.));
#717=CARTESIAN_POINT('',(-24.3163265306122,2.99437206382958,-53.577));
#718=CARTESIAN_POINT('',(-24.3163265306122,2.99437206382959,-55.));
#719=CARTESIAN_POINT('Ctrl Pts',(-24.3163265306122,2.99437206382959,-53.577));
#720=CARTESIAN_POINT('Ctrl Pts',(-24.7434551152192,1.91385287125904,-52.7014014307108));
#721=CARTESIAN_POINT('Ctrl Pts',(-25.1413895233799,0.907187007869017,-51.6528314298603));
#722=CARTESIAN_POINT('Ctrl Pts',(-25.5,5.55111512312578E-15,-50.577));
#723=CARTESIAN_POINT('Origin',(0.,0.,-52.077));
#724=CARTESIAN_POINT('Origin',(0.,0.,-50.577));
#725=CARTESIAN_POINT('Origin',(0.,0.,-53.577));
#726=CARTESIAN_POINT('Origin',(0.,0.,-55.));
#727=CARTESIAN_POINT('Origin',(0.,0.,-55.));
#728=CARTESIAN_POINT('Origin',(-26.5,0.,-55.));
#729=CARTESIAN_POINT('',(-26.5,3.24531401774049E-15,-50.577));
#730=CARTESIAN_POINT('',(-26.5,0.,-50.577));
#731=CARTESIAN_POINT('',(-26.5,3.24531401774049E-15,-55.));
#732=CARTESIAN_POINT('',(-26.5,3.24531401774049E-15,-55.));
#733=CARTESIAN_POINT('',(-13.25,0.,-55.));
#734=CARTESIAN_POINT('Origin',(24.5,0.,-55.));
#735=CARTESIAN_POINT('',(26.5,3.24531401774049E-15,-55.));
#736=CARTESIAN_POINT('',(12.25,0.,-55.));
#737=CARTESIAN_POINT('',(26.5,0.,-50.577));
#738=CARTESIAN_POINT('',(26.5,0.,-55.));
#739=CARTESIAN_POINT('',(24.5,0.,-50.577));
#740=CARTESIAN_POINT('Origin',(0.,13.25,-50.577));
#741=CARTESIAN_POINT('Origin',(0.,0.,-50.577));
#742=CARTESIAN_POINT('Origin',(0.,0.,-55.));
#743=CARTESIAN_POINT('',(26.5,3.24531401774049E-15,-61.5));
#744=CARTESIAN_POINT('Origin',(0.,0.,-61.5));
#745=CARTESIAN_POINT('',(26.5,-3.24531401774049E-15,-55.));
#746=CARTESIAN_POINT('Origin',(0.,0.,-55.));
#747=CARTESIAN_POINT('Origin',(0.,0.,-55.));
#748=CARTESIAN_POINT('Origin',(0.,0.,-61.5));
#749=UNCERTAINTY_MEASURE_WITH_UNIT(LENGTH_MEASURE(0.01),#753,
'DISTANCE_ACCURACY_VALUE',
'Maximum model space distance between geometric entities at asserted c
onnectivities');
#750=UNCERTAINTY_MEASURE_WITH_UNIT(LENGTH_MEASURE(0.01),#753,
'DISTANCE_ACCURACY_VALUE',
'Maximum model space distance between geometric entities at asserted c
onnectivities');
#751=(
GEOMETRIC_REPRESENTATION_CONTEXT(3)
GLOBAL_UNCERTAINTY_ASSIGNED_CONTEXT((#749))
GLOBAL_UNIT_ASSIGNED_CONTEXT((#753,#755,#756))
REPRESENTATION_CONTEXT('','3D')
);
#752=(
GEOMETRIC_REPRESENTATION_CONTEXT(3)
GLOBAL_UNCERTAINTY_ASSIGNED_CONTEXT((#750))
GLOBAL_UNIT_ASSIGNED_CONTEXT((#753,#755,#756))
REPRESENTATION_CONTEXT('','3D')
);
#753=(
LENGTH_UNIT()
NAMED_UNIT(*)
SI_UNIT(.MILLI.,.METRE.)
);
#754=(
LENGTH_UNIT()
NAMED_UNIT(*)
SI_UNIT($,.METRE.)
);
#755=(
NAMED_UNIT(*)
PLANE_ANGLE_UNIT()
SI_UNIT($,.RADIAN.)
);
#756=(
NAMED_UNIT(*)
SI_UNIT($,.STERADIAN.)
SOLID_ANGLE_UNIT()
);
#757=SHAPE_DEFINITION_REPRESENTATION(#758,#759);
#758=PRODUCT_DEFINITION_SHAPE('',$,#761);
#759=SHAPE_REPRESENTATION('',(#442),#751);
#760=PRODUCT_DEFINITION_CONTEXT('part definition',#765,'design');
#761=PRODUCT_DEFINITION('POWDER PAN','POWDER PAN',#762,#760);
#762=PRODUCT_DEFINITION_FORMATION('',$,#767);
#763=PRODUCT_RELATED_PRODUCT_CATEGORY('POWDER PAN','POWDER PAN',(#767));
#764=APPLICATION_PROTOCOL_DEFINITION('international standard',
'automotive_design',2009,#765);
#765=APPLICATION_CONTEXT(
'Core Data for Automotive Mechanical Design Process');
#766=PRODUCT_CONTEXT('part definition',#765,'mechanical');
#767=PRODUCT('POWDER PAN','POWDER PAN',$,(#766));
#768=PRESENTATION_STYLE_ASSIGNMENT((#769));
#769=SURFACE_STYLE_USAGE(.BOTH.,#770);
#770=SURFACE_SIDE_STYLE('',(#771));
#771=SURFACE_STYLE_FILL_AREA(#772);
#772=FILL_AREA_STYLE('Steel - Satin',(#773));
#773=FILL_AREA_STYLE_COLOUR('Steel - Satin',#774);
#774=COLOUR_RGB('Steel - Satin',0.627450980392157,0.627450980392157,0.627450980392157);
ENDSEC;
END-ISO-10303-21;
