ISO-10303-21;
HEADER;
/* Generated by software containing ST-Developer
 * from STEP Tools, Inc. (www.steptools.com) 
 */

FILE_DESCRIPTION(
/* description */ (''),
/* implementation_level */ '2;1');

FILE_NAME(
/* name */ 'WEIGHT PAN FLAT.step',
/* time_stamp */ '2026-03-30T10:23:55-05:00',
/* author */ (''),
/* organization */ (''),
/* preprocessor_version */ 'ST-DEVELOPER v20.1',
/* originating_system */ 'Autodesk Translation Framework v14.24.0.0',
/* authorisation */ '');

FILE_SCHEMA (('AUTOMOTIVE_DESIGN { 1 0 10303 214 3 1 1 }'));
ENDSEC;

DATA;
#10=MECHANICAL_DESIGN_GEOMETRIC_PRESENTATION_REPRESENTATION('',(#13),#542);
#11=SHAPE_REPRESENTATION_RELATIONSHIP('SRR','None',#549,#12);
#12=ADVANCED_BREP_SHAPE_REPRESENTATION('',(#14),#541);
#13=STYLED_ITEM('',(#558),#14);
#14=MANIFOLD_SOLID_BREP('Weight pan',#306);
#15=FACE_BOUND('',#76,.T.);
#16=FACE_BOUND('',#83,.T.);
#17=FACE_BOUND('',#87,.T.);
#18=FACE_BOUND('',#89,.T.);
#19=FACE_BOUND('',#90,.T.);
#20=FACE_BOUND('',#91,.T.);
#21=CIRCLE('',#322,2.13);
#22=CIRCLE('',#323,2.13);
#23=CIRCLE('',#326,2.13);
#24=CIRCLE('',#327,2.13);
#25=CIRCLE('',#330,2.13);
#26=CIRCLE('',#331,2.13);
#27=CIRCLE('',#334,2.13);
#28=CIRCLE('',#335,2.13);
#29=CIRCLE('',#337,1.7);
#30=CIRCLE('',#339,2.25);
#31=CIRCLE('',#340,2.25);
#32=CIRCLE('',#343,2.25);
#33=CIRCLE('',#344,2.25);
#34=CIRCLE('',#347,3.);
#35=CIRCLE('',#348,3.);
#36=CIRCLE('',#350,1.7);
#37=CIRCLE('',#353,26.5);
#38=CIRCLE('',#354,26.5);
#39=CYLINDRICAL_SURFACE('',#321,2.13);
#40=CYLINDRICAL_SURFACE('',#325,2.13);
#41=CYLINDRICAL_SURFACE('',#329,2.13);
#42=CYLINDRICAL_SURFACE('',#333,2.13);
#43=CYLINDRICAL_SURFACE('',#338,2.25);
#44=CYLINDRICAL_SURFACE('',#342,2.25);
#45=CYLINDRICAL_SURFACE('',#346,3.);
#46=CYLINDRICAL_SURFACE('',#351,1.7);
#47=CYLINDRICAL_SURFACE('',#352,26.5);
#48=FACE_OUTER_BOUND('',#67,.T.);
#49=FACE_OUTER_BOUND('',#68,.T.);
#50=FACE_OUTER_BOUND('',#69,.T.);
#51=FACE_OUTER_BOUND('',#70,.T.);
#52=FACE_OUTER_BOUND('',#71,.T.);
#53=FACE_OUTER_BOUND('',#72,.T.);
#54=FACE_OUTER_BOUND('',#73,.T.);
#55=FACE_OUTER_BOUND('',#74,.T.);
#56=FACE_OUTER_BOUND('',#75,.T.);
#57=FACE_OUTER_BOUND('',#77,.T.);
#58=FACE_OUTER_BOUND('',#78,.T.);
#59=FACE_OUTER_BOUND('',#79,.T.);
#60=FACE_OUTER_BOUND('',#80,.T.);
#61=FACE_OUTER_BOUND('',#81,.T.);
#62=FACE_OUTER_BOUND('',#82,.T.);
#63=FACE_OUTER_BOUND('',#84,.T.);
#64=FACE_OUTER_BOUND('',#85,.T.);
#65=FACE_OUTER_BOUND('',#86,.T.);
#66=FACE_OUTER_BOUND('',#88,.T.);
#67=EDGE_LOOP('',(#199,#200,#201,#202));
#68=EDGE_LOOP('',(#203,#204,#205,#206));
#69=EDGE_LOOP('',(#207,#208,#209,#210));
#70=EDGE_LOOP('',(#211,#212,#213,#214));
#71=EDGE_LOOP('',(#215,#216,#217,#218));
#72=EDGE_LOOP('',(#219,#220,#221,#222));
#73=EDGE_LOOP('',(#223,#224,#225,#226));
#74=EDGE_LOOP('',(#227,#228,#229,#230));
#75=EDGE_LOOP('',(#231,#232,#233,#234,#235,#236,#237,#238));
#76=EDGE_LOOP('',(#239));
#77=EDGE_LOOP('',(#240,#241,#242,#243));
#78=EDGE_LOOP('',(#244));
#79=EDGE_LOOP('',(#245,#246,#247,#248));
#80=EDGE_LOOP('',(#249));
#81=EDGE_LOOP('',(#250,#251,#252,#253));
#82=EDGE_LOOP('',(#254));
#83=EDGE_LOOP('',(#255));
#84=EDGE_LOOP('',(#256,#257,#258,#259));
#85=EDGE_LOOP('',(#260,#261,#262,#263));
#86=EDGE_LOOP('',(#264));
#87=EDGE_LOOP('',(#265));
#88=EDGE_LOOP('',(#266));
#89=EDGE_LOOP('',(#267,#268,#269,#270,#271,#272,#273,#274));
#90=EDGE_LOOP('',(#275));
#91=EDGE_LOOP('',(#276));
#92=LINE('',#458,#113);
#93=LINE('',#460,#114);
#94=LINE('',#462,#115);
#95=LINE('',#463,#116);
#96=LINE('',#469,#117);
#97=LINE('',#472,#118);
#98=LINE('',#474,#119);
#99=LINE('',#475,#120);
#100=LINE('',#481,#121);
#101=LINE('',#484,#122);
#102=LINE('',#486,#123);
#103=LINE('',#487,#124);
#104=LINE('',#493,#125);
#105=LINE('',#496,#126);
#106=LINE('',#498,#127);
#107=LINE('',#499,#128);
#108=LINE('',#510,#129);
#109=LINE('',#517,#130);
#110=LINE('',#524,#131);
#111=LINE('',#530,#132);
#112=LINE('',#535,#133);
#113=VECTOR('',#361,10.);
#114=VECTOR('',#362,10.);
#115=VECTOR('',#363,10.);
#116=VECTOR('',#364,10.);
#117=VECTOR('',#371,10.);
#118=VECTOR('',#374,10.);
#119=VECTOR('',#375,10.);
#120=VECTOR('',#376,10.);
#121=VECTOR('',#383,10.);
#122=VECTOR('',#386,10.);
#123=VECTOR('',#387,10.);
#124=VECTOR('',#388,10.);
#125=VECTOR('',#395,10.);
#126=VECTOR('',#398,10.);
#127=VECTOR('',#399,10.);
#128=VECTOR('',#400,10.);
#129=VECTOR('',#415,2.25);
#130=VECTOR('',#424,2.25);
#131=VECTOR('',#433,3.);
#132=VECTOR('',#442,1.7);
#133=VECTOR('',#447,26.5);
#134=VERTEX_POINT('',#456);
#135=VERTEX_POINT('',#457);
#136=VERTEX_POINT('',#459);
#137=VERTEX_POINT('',#461);
#138=VERTEX_POINT('',#465);
#139=VERTEX_POINT('',#467);
#140=VERTEX_POINT('',#471);
#141=VERTEX_POINT('',#473);
#142=VERTEX_POINT('',#477);
#143=VERTEX_POINT('',#479);
#144=VERTEX_POINT('',#483);
#145=VERTEX_POINT('',#485);
#146=VERTEX_POINT('',#489);
#147=VERTEX_POINT('',#491);
#148=VERTEX_POINT('',#495);
#149=VERTEX_POINT('',#497);
#150=VERTEX_POINT('',#504);
#151=VERTEX_POINT('',#507);
#152=VERTEX_POINT('',#509);
#153=VERTEX_POINT('',#514);
#154=VERTEX_POINT('',#516);
#155=VERTEX_POINT('',#521);
#156=VERTEX_POINT('',#523);
#157=VERTEX_POINT('',#527);
#158=VERTEX_POINT('',#532);
#159=VERTEX_POINT('',#534);
#160=EDGE_CURVE('',#134,#135,#92,.T.);
#161=EDGE_CURVE('',#136,#134,#93,.T.);
#162=EDGE_CURVE('',#136,#137,#94,.F.);
#163=EDGE_CURVE('',#137,#135,#95,.T.);
#164=EDGE_CURVE('',#135,#138,#21,.T.);
#165=EDGE_CURVE('',#137,#139,#22,.F.);
#166=EDGE_CURVE('',#139,#138,#96,.T.);
#167=EDGE_CURVE('',#138,#140,#97,.T.);
#168=EDGE_CURVE('',#139,#141,#98,.F.);
#169=EDGE_CURVE('',#141,#140,#99,.T.);
#170=EDGE_CURVE('',#140,#142,#23,.T.);
#171=EDGE_CURVE('',#141,#143,#24,.F.);
#172=EDGE_CURVE('',#143,#142,#100,.T.);
#173=EDGE_CURVE('',#142,#144,#101,.T.);
#174=EDGE_CURVE('',#143,#145,#102,.F.);
#175=EDGE_CURVE('',#145,#144,#103,.T.);
#176=EDGE_CURVE('',#144,#146,#25,.T.);
#177=EDGE_CURVE('',#145,#147,#26,.F.);
#178=EDGE_CURVE('',#147,#146,#104,.T.);
#179=EDGE_CURVE('',#146,#148,#105,.T.);
#180=EDGE_CURVE('',#147,#149,#106,.F.);
#181=EDGE_CURVE('',#149,#148,#107,.T.);
#182=EDGE_CURVE('',#148,#134,#27,.T.);
#183=EDGE_CURVE('',#149,#136,#28,.F.);
#184=EDGE_CURVE('',#150,#150,#29,.T.);
#185=EDGE_CURVE('',#151,#151,#30,.T.);
#186=EDGE_CURVE('',#151,#152,#108,.T.);
#187=EDGE_CURVE('',#152,#152,#31,.T.);
#188=EDGE_CURVE('',#153,#153,#32,.T.);
#189=EDGE_CURVE('',#153,#154,#109,.T.);
#190=EDGE_CURVE('',#154,#154,#33,.T.);
#191=EDGE_CURVE('',#155,#155,#34,.T.);
#192=EDGE_CURVE('',#155,#156,#110,.T.);
#193=EDGE_CURVE('',#156,#156,#35,.T.);
#194=EDGE_CURVE('',#157,#157,#36,.T.);
#195=EDGE_CURVE('',#157,#150,#111,.T.);
#196=EDGE_CURVE('',#158,#158,#37,.T.);
#197=EDGE_CURVE('',#158,#159,#112,.T.);
#198=EDGE_CURVE('',#159,#159,#38,.T.);
#199=ORIENTED_EDGE('',*,*,#160,.F.);
#200=ORIENTED_EDGE('',*,*,#161,.F.);
#201=ORIENTED_EDGE('',*,*,#162,.T.);
#202=ORIENTED_EDGE('',*,*,#163,.T.);
#203=ORIENTED_EDGE('',*,*,#164,.F.);
#204=ORIENTED_EDGE('',*,*,#163,.F.);
#205=ORIENTED_EDGE('',*,*,#165,.T.);
#206=ORIENTED_EDGE('',*,*,#166,.T.);
#207=ORIENTED_EDGE('',*,*,#167,.F.);
#208=ORIENTED_EDGE('',*,*,#166,.F.);
#209=ORIENTED_EDGE('',*,*,#168,.T.);
#210=ORIENTED_EDGE('',*,*,#169,.T.);
#211=ORIENTED_EDGE('',*,*,#170,.F.);
#212=ORIENTED_EDGE('',*,*,#169,.F.);
#213=ORIENTED_EDGE('',*,*,#171,.T.);
#214=ORIENTED_EDGE('',*,*,#172,.T.);
#215=ORIENTED_EDGE('',*,*,#173,.F.);
#216=ORIENTED_EDGE('',*,*,#172,.F.);
#217=ORIENTED_EDGE('',*,*,#174,.T.);
#218=ORIENTED_EDGE('',*,*,#175,.T.);
#219=ORIENTED_EDGE('',*,*,#176,.F.);
#220=ORIENTED_EDGE('',*,*,#175,.F.);
#221=ORIENTED_EDGE('',*,*,#177,.T.);
#222=ORIENTED_EDGE('',*,*,#178,.T.);
#223=ORIENTED_EDGE('',*,*,#179,.F.);
#224=ORIENTED_EDGE('',*,*,#178,.F.);
#225=ORIENTED_EDGE('',*,*,#180,.T.);
#226=ORIENTED_EDGE('',*,*,#181,.T.);
#227=ORIENTED_EDGE('',*,*,#182,.F.);
#228=ORIENTED_EDGE('',*,*,#181,.F.);
#229=ORIENTED_EDGE('',*,*,#183,.T.);
#230=ORIENTED_EDGE('',*,*,#161,.T.);
#231=ORIENTED_EDGE('',*,*,#171,.F.);
#232=ORIENTED_EDGE('',*,*,#168,.F.);
#233=ORIENTED_EDGE('',*,*,#165,.F.);
#234=ORIENTED_EDGE('',*,*,#162,.F.);
#235=ORIENTED_EDGE('',*,*,#183,.F.);
#236=ORIENTED_EDGE('',*,*,#180,.F.);
#237=ORIENTED_EDGE('',*,*,#177,.F.);
#238=ORIENTED_EDGE('',*,*,#174,.F.);
#239=ORIENTED_EDGE('',*,*,#184,.F.);
#240=ORIENTED_EDGE('',*,*,#185,.F.);
#241=ORIENTED_EDGE('',*,*,#186,.T.);
#242=ORIENTED_EDGE('',*,*,#187,.T.);
#243=ORIENTED_EDGE('',*,*,#186,.F.);
#244=ORIENTED_EDGE('',*,*,#187,.F.);
#245=ORIENTED_EDGE('',*,*,#188,.F.);
#246=ORIENTED_EDGE('',*,*,#189,.T.);
#247=ORIENTED_EDGE('',*,*,#190,.T.);
#248=ORIENTED_EDGE('',*,*,#189,.F.);
#249=ORIENTED_EDGE('',*,*,#190,.F.);
#250=ORIENTED_EDGE('',*,*,#191,.F.);
#251=ORIENTED_EDGE('',*,*,#192,.T.);
#252=ORIENTED_EDGE('',*,*,#193,.T.);
#253=ORIENTED_EDGE('',*,*,#192,.F.);
#254=ORIENTED_EDGE('',*,*,#193,.F.);
#255=ORIENTED_EDGE('',*,*,#194,.F.);
#256=ORIENTED_EDGE('',*,*,#194,.T.);
#257=ORIENTED_EDGE('',*,*,#195,.T.);
#258=ORIENTED_EDGE('',*,*,#184,.T.);
#259=ORIENTED_EDGE('',*,*,#195,.F.);
#260=ORIENTED_EDGE('',*,*,#196,.F.);
#261=ORIENTED_EDGE('',*,*,#197,.T.);
#262=ORIENTED_EDGE('',*,*,#198,.F.);
#263=ORIENTED_EDGE('',*,*,#197,.F.);
#264=ORIENTED_EDGE('',*,*,#198,.T.);
#265=ORIENTED_EDGE('',*,*,#191,.T.);
#266=ORIENTED_EDGE('',*,*,#196,.T.);
#267=ORIENTED_EDGE('',*,*,#173,.T.);
#268=ORIENTED_EDGE('',*,*,#176,.T.);
#269=ORIENTED_EDGE('',*,*,#179,.T.);
#270=ORIENTED_EDGE('',*,*,#182,.T.);
#271=ORIENTED_EDGE('',*,*,#160,.T.);
#272=ORIENTED_EDGE('',*,*,#164,.T.);
#273=ORIENTED_EDGE('',*,*,#167,.T.);
#274=ORIENTED_EDGE('',*,*,#170,.T.);
#275=ORIENTED_EDGE('',*,*,#185,.T.);
#276=ORIENTED_EDGE('',*,*,#188,.T.);
#277=PLANE('',#320);
#278=PLANE('',#324);
#279=PLANE('',#328);
#280=PLANE('',#332);
#281=PLANE('',#336);
#282=PLANE('',#341);
#283=PLANE('',#345);
#284=PLANE('',#349);
#285=PLANE('',#355);
#286=PLANE('',#356);
#287=ADVANCED_FACE('',(#48),#277,.F.);
#288=ADVANCED_FACE('',(#49),#39,.F.);
#289=ADVANCED_FACE('',(#50),#278,.F.);
#290=ADVANCED_FACE('',(#51),#40,.F.);
#291=ADVANCED_FACE('',(#52),#279,.F.);
#292=ADVANCED_FACE('',(#53),#41,.F.);
#293=ADVANCED_FACE('',(#54),#280,.F.);
#294=ADVANCED_FACE('',(#55),#42,.F.);
#295=ADVANCED_FACE('',(#56,#15),#281,.F.);
#296=ADVANCED_FACE('',(#57),#43,.F.);
#297=ADVANCED_FACE('',(#58),#282,.T.);
#298=ADVANCED_FACE('',(#59),#44,.F.);
#299=ADVANCED_FACE('',(#60),#283,.T.);
#300=ADVANCED_FACE('',(#61),#45,.F.);
#301=ADVANCED_FACE('',(#62,#16),#284,.T.);
#302=ADVANCED_FACE('',(#63),#46,.F.);
#303=ADVANCED_FACE('',(#64),#47,.T.);
#304=ADVANCED_FACE('',(#65,#17),#285,.T.);
#305=ADVANCED_FACE('',(#66,#18,#19,#20),#286,.F.);
#306=CLOSED_SHELL('',(#287,#288,#289,#290,#291,#292,#293,#294,#295,#296,
#297,#298,#299,#300,#301,#302,#303,#304,#305));
#307=DERIVED_UNIT_ELEMENT(#309,1.);
#308=DERIVED_UNIT_ELEMENT(#544,-3.);
#309=(
MASS_UNIT()
NAMED_UNIT(*)
SI_UNIT(.KILO.,.GRAM.)
);
#310=DERIVED_UNIT((#307,#308));
#311=MEASURE_REPRESENTATION_ITEM('density measure',
POSITIVE_RATIO_MEASURE(7850.),#310);
#312=PROPERTY_DEFINITION_REPRESENTATION(#317,#314);
#313=PROPERTY_DEFINITION_REPRESENTATION(#318,#315);
#314=REPRESENTATION('material name',(#316),#541);
#315=REPRESENTATION('density',(#311),#541);
#316=DESCRIPTIVE_REPRESENTATION_ITEM('Steel','Steel');
#317=PROPERTY_DEFINITION('material property','material name',#551);
#318=PROPERTY_DEFINITION('material property','density of part',#551);
#319=AXIS2_PLACEMENT_3D('',#454,#357,#358);
#320=AXIS2_PLACEMENT_3D('',#455,#359,#360);
#321=AXIS2_PLACEMENT_3D('',#464,#365,#366);
#322=AXIS2_PLACEMENT_3D('',#466,#367,#368);
#323=AXIS2_PLACEMENT_3D('',#468,#369,#370);
#324=AXIS2_PLACEMENT_3D('',#470,#372,#373);
#325=AXIS2_PLACEMENT_3D('',#476,#377,#378);
#326=AXIS2_PLACEMENT_3D('',#478,#379,#380);
#327=AXIS2_PLACEMENT_3D('',#480,#381,#382);
#328=AXIS2_PLACEMENT_3D('',#482,#384,#385);
#329=AXIS2_PLACEMENT_3D('',#488,#389,#390);
#330=AXIS2_PLACEMENT_3D('',#490,#391,#392);
#331=AXIS2_PLACEMENT_3D('',#492,#393,#394);
#332=AXIS2_PLACEMENT_3D('',#494,#396,#397);
#333=AXIS2_PLACEMENT_3D('',#500,#401,#402);
#334=AXIS2_PLACEMENT_3D('',#501,#403,#404);
#335=AXIS2_PLACEMENT_3D('',#502,#405,#406);
#336=AXIS2_PLACEMENT_3D('',#503,#407,#408);
#337=AXIS2_PLACEMENT_3D('',#505,#409,#410);
#338=AXIS2_PLACEMENT_3D('',#506,#411,#412);
#339=AXIS2_PLACEMENT_3D('',#508,#413,#414);
#340=AXIS2_PLACEMENT_3D('',#511,#416,#417);
#341=AXIS2_PLACEMENT_3D('',#512,#418,#419);
#342=AXIS2_PLACEMENT_3D('',#513,#420,#421);
#343=AXIS2_PLACEMENT_3D('',#515,#422,#423);
#344=AXIS2_PLACEMENT_3D('',#518,#425,#426);
#345=AXIS2_PLACEMENT_3D('',#519,#427,#428);
#346=AXIS2_PLACEMENT_3D('',#520,#429,#430);
#347=AXIS2_PLACEMENT_3D('',#522,#431,#432);
#348=AXIS2_PLACEMENT_3D('',#525,#434,#435);
#349=AXIS2_PLACEMENT_3D('',#526,#436,#437);
#350=AXIS2_PLACEMENT_3D('',#528,#438,#439);
#351=AXIS2_PLACEMENT_3D('',#529,#440,#441);
#352=AXIS2_PLACEMENT_3D('',#531,#443,#444);
#353=AXIS2_PLACEMENT_3D('',#533,#445,#446);
#354=AXIS2_PLACEMENT_3D('',#536,#448,#449);
#355=AXIS2_PLACEMENT_3D('',#537,#450,#451);
#356=AXIS2_PLACEMENT_3D('',#538,#452,#453);
#357=DIRECTION('axis',(0.,0.,1.));
#358=DIRECTION('refdir',(1.,0.,0.));
#359=DIRECTION('center_axis',(0.,1.,0.));
#360=DIRECTION('ref_axis',(1.,0.,0.));
#361=DIRECTION('',(-1.,0.,0.));
#362=DIRECTION('',(0.,0.,-1.));
#363=DIRECTION('',(1.,0.,0.));
#364=DIRECTION('',(0.,0.,-1.));
#365=DIRECTION('center_axis',(0.,0.,-1.));
#366=DIRECTION('ref_axis',(2.77555756156289E-16,1.,0.));
#367=DIRECTION('center_axis',(0.,0.,1.));
#368=DIRECTION('ref_axis',(2.77555756156289E-16,1.,0.));
#369=DIRECTION('center_axis',(0.,0.,-1.));
#370=DIRECTION('ref_axis',(2.77555756156289E-16,1.,0.));
#371=DIRECTION('',(0.,0.,-1.));
#372=DIRECTION('center_axis',(-1.,0.,0.));
#373=DIRECTION('ref_axis',(0.,1.,0.));
#374=DIRECTION('',(0.,-1.,0.));
#375=DIRECTION('',(0.,1.,0.));
#376=DIRECTION('',(0.,0.,-1.));
#377=DIRECTION('center_axis',(0.,0.,-1.));
#378=DIRECTION('ref_axis',(-1.,0.,0.));
#379=DIRECTION('center_axis',(0.,0.,1.));
#380=DIRECTION('ref_axis',(-1.,0.,0.));
#381=DIRECTION('center_axis',(0.,0.,-1.));
#382=DIRECTION('ref_axis',(-1.,0.,0.));
#383=DIRECTION('',(0.,0.,-1.));
#384=DIRECTION('center_axis',(9.9660953736549E-17,-1.,0.));
#385=DIRECTION('ref_axis',(-1.,-9.9660953736549E-17,0.));
#386=DIRECTION('',(1.,9.9660953736549E-17,0.));
#387=DIRECTION('',(-1.,-9.9660953736549E-17,0.));
#388=DIRECTION('',(0.,0.,-1.));
#389=DIRECTION('center_axis',(0.,0.,-1.));
#390=DIRECTION('ref_axis',(-2.77555756156289E-16,-1.,0.));
#391=DIRECTION('center_axis',(0.,0.,1.));
#392=DIRECTION('ref_axis',(-2.77555756156289E-16,-1.,0.));
#393=DIRECTION('center_axis',(0.,0.,-1.));
#394=DIRECTION('ref_axis',(-2.77555756156289E-16,-1.,0.));
#395=DIRECTION('',(0.,0.,-1.));
#396=DIRECTION('center_axis',(1.,0.,0.));
#397=DIRECTION('ref_axis',(0.,-1.,0.));
#398=DIRECTION('',(0.,1.,0.));
#399=DIRECTION('',(0.,-1.,0.));
#400=DIRECTION('',(0.,0.,-1.));
#401=DIRECTION('center_axis',(0.,0.,-1.));
#402=DIRECTION('ref_axis',(1.,-5.55111512312579E-16,0.));
#403=DIRECTION('center_axis',(0.,0.,1.));
#404=DIRECTION('ref_axis',(1.,-5.55111512312579E-16,0.));
#405=DIRECTION('center_axis',(0.,0.,-1.));
#406=DIRECTION('ref_axis',(1.,-5.55111512312579E-16,0.));
#407=DIRECTION('center_axis',(0.,0.,1.));
#408=DIRECTION('ref_axis',(-1.,0.,0.));
#409=DIRECTION('center_axis',(0.,0.,-1.));
#410=DIRECTION('ref_axis',(-1.,0.,0.));
#411=DIRECTION('center_axis',(0.,0.,1.));
#412=DIRECTION('ref_axis',(1.,0.,0.));
#413=DIRECTION('center_axis',(0.,0.,1.));
#414=DIRECTION('ref_axis',(1.,0.,0.));
#415=DIRECTION('',(0.,0.,1.));
#416=DIRECTION('center_axis',(0.,0.,1.));
#417=DIRECTION('ref_axis',(1.,0.,0.));
#418=DIRECTION('center_axis',(0.,0.,-1.));
#419=DIRECTION('ref_axis',(1.,0.,0.));
#420=DIRECTION('center_axis',(0.,0.,1.));
#421=DIRECTION('ref_axis',(1.,0.,0.));
#422=DIRECTION('center_axis',(0.,0.,1.));
#423=DIRECTION('ref_axis',(1.,0.,0.));
#424=DIRECTION('',(0.,0.,1.));
#425=DIRECTION('center_axis',(0.,0.,1.));
#426=DIRECTION('ref_axis',(1.,0.,0.));
#427=DIRECTION('center_axis',(0.,0.,-1.));
#428=DIRECTION('ref_axis',(1.,0.,0.));
#429=DIRECTION('center_axis',(0.,0.,-1.));
#430=DIRECTION('ref_axis',(-1.,0.,0.));
#431=DIRECTION('center_axis',(0.,0.,-1.));
#432=DIRECTION('ref_axis',(-1.,0.,0.));
#433=DIRECTION('',(0.,0.,-1.));
#434=DIRECTION('center_axis',(0.,0.,-1.));
#435=DIRECTION('ref_axis',(-1.,0.,0.));
#436=DIRECTION('center_axis',(0.,0.,1.));
#437=DIRECTION('ref_axis',(-1.,0.,0.));
#438=DIRECTION('center_axis',(0.,0.,1.));
#439=DIRECTION('ref_axis',(-1.,0.,0.));
#440=DIRECTION('center_axis',(0.,0.,-1.));
#441=DIRECTION('ref_axis',(-1.,0.,0.));
#442=DIRECTION('',(0.,0.,-1.));
#443=DIRECTION('center_axis',(0.,0.,-1.));
#444=DIRECTION('ref_axis',(-1.,0.,0.));
#445=DIRECTION('center_axis',(0.,0.,-1.));
#446=DIRECTION('ref_axis',(-1.,0.,0.));
#447=DIRECTION('',(0.,0.,1.));
#448=DIRECTION('center_axis',(0.,0.,1.));
#449=DIRECTION('ref_axis',(-1.,0.,0.));
#450=DIRECTION('center_axis',(0.,0.,1.));
#451=DIRECTION('ref_axis',(-1.,0.,0.));
#452=DIRECTION('center_axis',(0.,0.,1.));
#453=DIRECTION('ref_axis',(-1.,0.,0.));
#454=CARTESIAN_POINT('',(0.,0.,0.));
#455=CARTESIAN_POINT('Origin',(-2.785,4.915,-58.));
#456=CARTESIAN_POINT('',(2.785,4.915,-61.5));
#457=CARTESIAN_POINT('',(-2.785,4.915,-61.5));
#458=CARTESIAN_POINT('',(-1.3925,4.915,-61.5));
#459=CARTESIAN_POINT('',(2.785,4.915,-58.));
#460=CARTESIAN_POINT('',(2.785,4.915,-58.));
#461=CARTESIAN_POINT('',(-2.785,4.915,-58.));
#462=CARTESIAN_POINT('',(-1.3925,4.915,-58.));
#463=CARTESIAN_POINT('',(-2.785,4.915,-58.));
#464=CARTESIAN_POINT('Origin',(-2.785,2.785,-58.));
#465=CARTESIAN_POINT('',(-4.915,2.785,-61.5));
#466=CARTESIAN_POINT('Origin',(-2.785,2.785,-61.5));
#467=CARTESIAN_POINT('',(-4.915,2.785,-58.));
#468=CARTESIAN_POINT('Origin',(-2.785,2.785,-58.));
#469=CARTESIAN_POINT('',(-4.915,2.785,-58.));
#470=CARTESIAN_POINT('Origin',(-4.915,-2.785,-58.));
#471=CARTESIAN_POINT('',(-4.915,-2.785,-61.5));
#472=CARTESIAN_POINT('',(-4.915,-1.3925,-61.5));
#473=CARTESIAN_POINT('',(-4.915,-2.785,-58.));
#474=CARTESIAN_POINT('',(-4.915,-1.3925,-58.));
#475=CARTESIAN_POINT('',(-4.915,-2.785,-58.));
#476=CARTESIAN_POINT('Origin',(-2.785,-2.785,-58.));
#477=CARTESIAN_POINT('',(-2.785,-4.915,-61.5));
#478=CARTESIAN_POINT('Origin',(-2.785,-2.785,-61.5));
#479=CARTESIAN_POINT('',(-2.785,-4.915,-58.));
#480=CARTESIAN_POINT('Origin',(-2.785,-2.785,-58.));
#481=CARTESIAN_POINT('',(-2.785,-4.915,-58.));
#482=CARTESIAN_POINT('Origin',(2.785,-4.915,-58.));
#483=CARTESIAN_POINT('',(2.785,-4.915,-61.5));
#484=CARTESIAN_POINT('',(1.3925,-4.915,-61.5));
#485=CARTESIAN_POINT('',(2.785,-4.915,-58.));
#486=CARTESIAN_POINT('',(1.3925,-4.915,-58.));
#487=CARTESIAN_POINT('',(2.785,-4.915,-58.));
#488=CARTESIAN_POINT('Origin',(2.785,-2.785,-58.));
#489=CARTESIAN_POINT('',(4.915,-2.785,-61.5));
#490=CARTESIAN_POINT('Origin',(2.785,-2.785,-61.5));
#491=CARTESIAN_POINT('',(4.915,-2.785,-58.));
#492=CARTESIAN_POINT('Origin',(2.785,-2.785,-58.));
#493=CARTESIAN_POINT('',(4.915,-2.785,-58.));
#494=CARTESIAN_POINT('Origin',(4.915,2.785,-58.));
#495=CARTESIAN_POINT('',(4.915,2.785,-61.5));
#496=CARTESIAN_POINT('',(4.915,1.3925,-61.5));
#497=CARTESIAN_POINT('',(4.915,2.785,-58.));
#498=CARTESIAN_POINT('',(4.915,1.3925,-58.));
#499=CARTESIAN_POINT('',(4.915,2.785,-58.));
#500=CARTESIAN_POINT('Origin',(2.785,2.785,-58.));
#501=CARTESIAN_POINT('Origin',(2.785,2.785,-61.5));
#502=CARTESIAN_POINT('Origin',(2.785,2.785,-58.));
#503=CARTESIAN_POINT('Origin',(-1.11022302462516E-15,1.11022302462516E-15,
-58.));
#504=CARTESIAN_POINT('',(1.7,-2.0818995585505E-16,-58.));
#505=CARTESIAN_POINT('Origin',(0.,0.,-58.));
#506=CARTESIAN_POINT('Origin',(0.,-19.7657955777121,-61.5));
#507=CARTESIAN_POINT('',(-2.25,-19.7657955777121,-61.5));
#508=CARTESIAN_POINT('Origin',(0.,-19.7657955777121,-61.5));
#509=CARTESIAN_POINT('',(-2.25,-19.7657955777121,-56.5));
#510=CARTESIAN_POINT('',(-2.25,-19.7657955777121,-61.5));
#511=CARTESIAN_POINT('Origin',(0.,-19.7657955777121,-56.5));
#512=CARTESIAN_POINT('Origin',(0.,-19.7657955777121,-56.5));
#513=CARTESIAN_POINT('Origin',(-2.77555756156289E-16,19.7657955777121,-61.5));
#514=CARTESIAN_POINT('',(-2.25,19.7657955777121,-61.5));
#515=CARTESIAN_POINT('Origin',(-2.77555756156289E-16,19.7657955777121,-61.5));
#516=CARTESIAN_POINT('',(-2.25,19.7657955777121,-56.5));
#517=CARTESIAN_POINT('',(-2.25,19.7657955777121,-61.5));
#518=CARTESIAN_POINT('Origin',(-2.77555756156289E-16,19.7657955777121,-56.5));
#519=CARTESIAN_POINT('Origin',(-2.77555756156289E-16,19.7657955777121,-56.5));
#520=CARTESIAN_POINT('Origin',(0.,0.,-55.));
#521=CARTESIAN_POINT('',(3.,3.67394039744206E-16,-55.));
#522=CARTESIAN_POINT('Origin',(0.,0.,-55.));
#523=CARTESIAN_POINT('',(3.,3.67394039744206E-16,-56.5));
#524=CARTESIAN_POINT('',(3.,-3.67394039744206E-16,-55.));
#525=CARTESIAN_POINT('Origin',(0.,0.,-56.5));
#526=CARTESIAN_POINT('Origin',(0.,0.,-56.5));
#527=CARTESIAN_POINT('',(1.7,2.0818995585505E-16,-56.5));
#528=CARTESIAN_POINT('Origin',(0.,0.,-56.5));
#529=CARTESIAN_POINT('Origin',(0.,0.,-55.));
#530=CARTESIAN_POINT('',(1.7,-2.0818995585505E-16,-55.));
#531=CARTESIAN_POINT('Origin',(0.,0.,-55.));
#532=CARTESIAN_POINT('',(26.5,3.24531401774049E-15,-61.5));
#533=CARTESIAN_POINT('Origin',(0.,0.,-61.5));
#534=CARTESIAN_POINT('',(26.5,3.24531401774049E-15,-55.));
#535=CARTESIAN_POINT('',(26.5,-3.24531401774049E-15,-55.));
#536=CARTESIAN_POINT('Origin',(0.,0.,-55.));
#537=CARTESIAN_POINT('Origin',(0.,0.,-55.));
#538=CARTESIAN_POINT('Origin',(0.,0.,-61.5));
#539=UNCERTAINTY_MEASURE_WITH_UNIT(LENGTH_MEASURE(0.01),#543,
'DISTANCE_ACCURACY_VALUE',
'Maximum model space distance between geometric entities at asserted c
onnectivities');
#540=UNCERTAINTY_MEASURE_WITH_UNIT(LENGTH_MEASURE(0.01),#543,
'DISTANCE_ACCURACY_VALUE',
'Maximum model space distance between geometric entities at asserted c
onnectivities');
#541=(
GEOMETRIC_REPRESENTATION_CONTEXT(3)
GLOBAL_UNCERTAINTY_ASSIGNED_CONTEXT((#539))
GLOBAL_UNIT_ASSIGNED_CONTEXT((#543,#545,#546))
REPRESENTATION_CONTEXT('','3D')
);
#542=(
GEOMETRIC_REPRESENTATION_CONTEXT(3)
GLOBAL_UNCERTAINTY_ASSIGNED_CONTEXT((#540))
GLOBAL_UNIT_ASSIGNED_CONTEXT((#543,#545,#546))
REPRESENTATION_CONTEXT('','3D')
);
#543=(
LENGTH_UNIT()
NAMED_UNIT(*)
SI_UNIT(.MILLI.,.METRE.)
);
#544=(
LENGTH_UNIT()
NAMED_UNIT(*)
SI_UNIT($,.METRE.)
);
#545=(
NAMED_UNIT(*)
PLANE_ANGLE_UNIT()
SI_UNIT($,.RADIAN.)
);
#546=(
NAMED_UNIT(*)
SI_UNIT($,.STERADIAN.)
SOLID_ANGLE_UNIT()
);
#547=SHAPE_DEFINITION_REPRESENTATION(#548,#549);
#548=PRODUCT_DEFINITION_SHAPE('',$,#551);
#549=SHAPE_REPRESENTATION('',(#319),#541);
#550=PRODUCT_DEFINITION_CONTEXT('part definition',#555,'design');
#551=PRODUCT_DEFINITION('POWDER PAN','POWDER PAN',#552,#550);
#552=PRODUCT_DEFINITION_FORMATION('',$,#557);
#553=PRODUCT_RELATED_PRODUCT_CATEGORY('POWDER PAN','POWDER PAN',(#557));
#554=APPLICATION_PROTOCOL_DEFINITION('international standard',
'automotive_design',2009,#555);
#555=APPLICATION_CONTEXT(
'Core Data for Automotive Mechanical Design Process');
#556=PRODUCT_CONTEXT('part definition',#555,'mechanical');
#557=PRODUCT('POWDER PAN','POWDER PAN',$,(#556));
#558=PRESENTATION_STYLE_ASSIGNMENT((#559));
#559=SURFACE_STYLE_USAGE(.BOTH.,#560);
#560=SURFACE_SIDE_STYLE('',(#561));
#561=SURFACE_STYLE_FILL_AREA(#562);
#562=FILL_AREA_STYLE('Steel - Satin',(#563));
#563=FILL_AREA_STYLE_COLOUR('Steel - Satin',#564);
#564=COLOUR_RGB('Steel - Satin',0.627450980392157,0.627450980392157,0.627450980392157);
ENDSEC;
END-ISO-10303-21;
