ISO-10303-21;
HEADER;
/* Generated by software containing ST-Developer
 * from STEP Tools, Inc. (www.steptools.com) 
 */

FILE_DESCRIPTION(
/* description */ (''),
/* implementation_level */ '2;1');

FILE_NAME(
/* name */ 'WEIGHT PAN.step',
/* time_stamp */ '2026-03-23T18:17:08-05:00',
/* author */ (''),
/* organization */ (''),
/* preprocessor_version */ 'ST-DEVELOPER v20.1',
/* originating_system */ 'Autodesk Translation Framework v14.24.0.0',
/* authorisation */ '');

FILE_SCHEMA (('AUTOMOTIVE_DESIGN { 1 0 10303 214 3 1 1 }'));
ENDSEC;

DATA;
#10=MECHANICAL_DESIGN_GEOMETRIC_PRESENTATION_REPRESENTATION('',(#13),#722);
#11=SHAPE_REPRESENTATION_RELATIONSHIP('SRR','None',#729,#12);
#12=ADVANCED_BREP_SHAPE_REPRESENTATION('',(#14),#721);
#13=STYLED_ITEM('',(#738),#14);
#14=MANIFOLD_SOLID_BREP('Weight pan',#412);
#15=CONICAL_SURFACE('',#458,14.25,0.643501108793284);
#16=FACE_BOUND('',#91,.T.);
#17=FACE_BOUND('',#98,.T.);
#18=FACE_BOUND('',#108,.T.);
#19=FACE_BOUND('',#109,.T.);
#20=FACE_BOUND('',#111,.T.);
#21=FACE_BOUND('',#112,.T.);
#22=FACE_BOUND('',#113,.T.);
#23=CIRCLE('',#428,2.13);
#24=CIRCLE('',#429,2.13);
#25=CIRCLE('',#432,2.13);
#26=CIRCLE('',#433,2.13);
#27=CIRCLE('',#436,2.13);
#28=CIRCLE('',#437,2.13);
#29=CIRCLE('',#440,2.13);
#30=CIRCLE('',#441,2.13);
#31=CIRCLE('',#443,1.7);
#32=CIRCLE('',#445,2.25);
#33=CIRCLE('',#446,2.25);
#34=CIRCLE('',#449,2.25);
#35=CIRCLE('',#450,2.25);
#36=CIRCLE('',#453,3.);
#37=CIRCLE('',#454,3.);
#38=CIRCLE('',#456,1.7);
#39=CIRCLE('',#459,15.75);
#40=CIRCLE('',#460,12.75);
#41=CIRCLE('',#463,12.75);
#42=CIRCLE('',#466,17.5);
#43=CIRCLE('',#467,17.5);
#44=CIRCLE('',#470,26.5);
#45=CIRCLE('',#471,26.5);
#46=CYLINDRICAL_SURFACE('',#427,2.13);
#47=CYLINDRICAL_SURFACE('',#431,2.13);
#48=CYLINDRICAL_SURFACE('',#435,2.13);
#49=CYLINDRICAL_SURFACE('',#439,2.13);
#50=CYLINDRICAL_SURFACE('',#444,2.25);
#51=CYLINDRICAL_SURFACE('',#448,2.25);
#52=CYLINDRICAL_SURFACE('',#452,3.);
#53=CYLINDRICAL_SURFACE('',#457,1.7);
#54=CYLINDRICAL_SURFACE('',#462,12.75);
#55=CYLINDRICAL_SURFACE('',#465,17.5);
#56=CYLINDRICAL_SURFACE('',#469,26.5);
#57=FACE_OUTER_BOUND('',#82,.T.);
#58=FACE_OUTER_BOUND('',#83,.T.);
#59=FACE_OUTER_BOUND('',#84,.T.);
#60=FACE_OUTER_BOUND('',#85,.T.);
#61=FACE_OUTER_BOUND('',#86,.T.);
#62=FACE_OUTER_BOUND('',#87,.T.);
#63=FACE_OUTER_BOUND('',#88,.T.);
#64=FACE_OUTER_BOUND('',#89,.T.);
#65=FACE_OUTER_BOUND('',#90,.T.);
#66=FACE_OUTER_BOUND('',#92,.T.);
#67=FACE_OUTER_BOUND('',#93,.T.);
#68=FACE_OUTER_BOUND('',#94,.T.);
#69=FACE_OUTER_BOUND('',#95,.T.);
#70=FACE_OUTER_BOUND('',#96,.T.);
#71=FACE_OUTER_BOUND('',#97,.T.);
#72=FACE_OUTER_BOUND('',#99,.T.);
#73=FACE_OUTER_BOUND('',#100,.T.);
#74=FACE_OUTER_BOUND('',#101,.T.);
#75=FACE_OUTER_BOUND('',#102,.T.);
#76=FACE_OUTER_BOUND('',#103,.T.);
#77=FACE_OUTER_BOUND('',#104,.T.);
#78=FACE_OUTER_BOUND('',#105,.T.);
#79=FACE_OUTER_BOUND('',#106,.T.);
#80=FACE_OUTER_BOUND('',#107,.T.);
#81=FACE_OUTER_BOUND('',#110,.T.);
#82=EDGE_LOOP('',(#266,#267,#268,#269));
#83=EDGE_LOOP('',(#270,#271,#272,#273));
#84=EDGE_LOOP('',(#274,#275,#276,#277));
#85=EDGE_LOOP('',(#278,#279,#280,#281));
#86=EDGE_LOOP('',(#282,#283,#284,#285));
#87=EDGE_LOOP('',(#286,#287,#288,#289));
#88=EDGE_LOOP('',(#290,#291,#292,#293));
#89=EDGE_LOOP('',(#294,#295,#296,#297));
#90=EDGE_LOOP('',(#298,#299,#300,#301,#302,#303,#304,#305));
#91=EDGE_LOOP('',(#306));
#92=EDGE_LOOP('',(#307,#308,#309,#310));
#93=EDGE_LOOP('',(#311));
#94=EDGE_LOOP('',(#312,#313,#314,#315));
#95=EDGE_LOOP('',(#316));
#96=EDGE_LOOP('',(#317,#318,#319,#320));
#97=EDGE_LOOP('',(#321));
#98=EDGE_LOOP('',(#322));
#99=EDGE_LOOP('',(#323,#324,#325,#326));
#100=EDGE_LOOP('',(#327,#328,#329,#330));
#101=EDGE_LOOP('',(#331,#332,#333,#334,#335));
#102=EDGE_LOOP('',(#336,#337,#338,#339));
#103=EDGE_LOOP('',(#340,#341,#342,#343,#344));
#104=EDGE_LOOP('',(#345,#346,#347,#348));
#105=EDGE_LOOP('',(#349,#350,#351,#352));
#106=EDGE_LOOP('',(#353,#354,#355,#356));
#107=EDGE_LOOP('',(#357));
#108=EDGE_LOOP('',(#358));
#109=EDGE_LOOP('',(#359,#360,#361,#362));
#110=EDGE_LOOP('',(#363));
#111=EDGE_LOOP('',(#364,#365,#366,#367,#368,#369,#370,#371));
#112=EDGE_LOOP('',(#372));
#113=EDGE_LOOP('',(#373));
#114=LINE('',#607,#145);
#115=LINE('',#609,#146);
#116=LINE('',#611,#147);
#117=LINE('',#612,#148);
#118=LINE('',#618,#149);
#119=LINE('',#621,#150);
#120=LINE('',#623,#151);
#121=LINE('',#624,#152);
#122=LINE('',#630,#153);
#123=LINE('',#633,#154);
#124=LINE('',#635,#155);
#125=LINE('',#636,#156);
#126=LINE('',#642,#157);
#127=LINE('',#645,#158);
#128=LINE('',#647,#159);
#129=LINE('',#648,#160);
#130=LINE('',#659,#161);
#131=LINE('',#666,#162);
#132=LINE('',#673,#163);
#133=LINE('',#679,#164);
#134=LINE('',#683,#165);
#135=LINE('',#687,#166);
#136=LINE('',#691,#167);
#137=LINE('',#693,#168);
#138=LINE('',#695,#169);
#139=LINE('',#696,#170);
#140=LINE('',#699,#171);
#141=LINE('',#703,#172);
#142=LINE('',#705,#173);
#143=LINE('',#706,#174);
#144=LINE('',#715,#175);
#145=VECTOR('',#478,10.);
#146=VECTOR('',#479,10.);
#147=VECTOR('',#480,10.);
#148=VECTOR('',#481,10.);
#149=VECTOR('',#488,10.);
#150=VECTOR('',#491,10.);
#151=VECTOR('',#492,10.);
#152=VECTOR('',#493,10.);
#153=VECTOR('',#500,10.);
#154=VECTOR('',#503,10.);
#155=VECTOR('',#504,10.);
#156=VECTOR('',#505,10.);
#157=VECTOR('',#512,10.);
#158=VECTOR('',#515,10.);
#159=VECTOR('',#516,10.);
#160=VECTOR('',#517,10.);
#161=VECTOR('',#532,2.25);
#162=VECTOR('',#541,2.25);
#163=VECTOR('',#550,3.);
#164=VECTOR('',#559,1.7);
#165=VECTOR('',#562,10.);
#166=VECTOR('',#565,10.);
#167=VECTOR('',#570,10.);
#168=VECTOR('',#571,10.);
#169=VECTOR('',#572,10.);
#170=VECTOR('',#573,10.);
#171=VECTOR('',#576,10.);
#172=VECTOR('',#581,10.);
#173=VECTOR('',#582,10.);
#174=VECTOR('',#583,10.);
#175=VECTOR('',#596,26.5);
#176=VERTEX_POINT('',#605);
#177=VERTEX_POINT('',#606);
#178=VERTEX_POINT('',#608);
#179=VERTEX_POINT('',#610);
#180=VERTEX_POINT('',#614);
#181=VERTEX_POINT('',#616);
#182=VERTEX_POINT('',#620);
#183=VERTEX_POINT('',#622);
#184=VERTEX_POINT('',#626);
#185=VERTEX_POINT('',#628);
#186=VERTEX_POINT('',#632);
#187=VERTEX_POINT('',#634);
#188=VERTEX_POINT('',#638);
#189=VERTEX_POINT('',#640);
#190=VERTEX_POINT('',#644);
#191=VERTEX_POINT('',#646);
#192=VERTEX_POINT('',#653);
#193=VERTEX_POINT('',#656);
#194=VERTEX_POINT('',#658);
#195=VERTEX_POINT('',#663);
#196=VERTEX_POINT('',#665);
#197=VERTEX_POINT('',#670);
#198=VERTEX_POINT('',#672);
#199=VERTEX_POINT('',#676);
#200=VERTEX_POINT('',#681);
#201=VERTEX_POINT('',#682);
#202=VERTEX_POINT('',#684);
#203=VERTEX_POINT('',#686);
#204=VERTEX_POINT('',#690);
#205=VERTEX_POINT('',#692);
#206=VERTEX_POINT('',#694);
#207=VERTEX_POINT('',#698);
#208=VERTEX_POINT('',#702);
#209=VERTEX_POINT('',#704);
#210=VERTEX_POINT('',#712);
#211=VERTEX_POINT('',#714);
#212=EDGE_CURVE('',#176,#177,#114,.T.);
#213=EDGE_CURVE('',#178,#176,#115,.T.);
#214=EDGE_CURVE('',#178,#179,#116,.F.);
#215=EDGE_CURVE('',#179,#177,#117,.T.);
#216=EDGE_CURVE('',#177,#180,#23,.T.);
#217=EDGE_CURVE('',#179,#181,#24,.F.);
#218=EDGE_CURVE('',#181,#180,#118,.T.);
#219=EDGE_CURVE('',#180,#182,#119,.T.);
#220=EDGE_CURVE('',#181,#183,#120,.F.);
#221=EDGE_CURVE('',#183,#182,#121,.T.);
#222=EDGE_CURVE('',#182,#184,#25,.T.);
#223=EDGE_CURVE('',#183,#185,#26,.F.);
#224=EDGE_CURVE('',#185,#184,#122,.T.);
#225=EDGE_CURVE('',#184,#186,#123,.T.);
#226=EDGE_CURVE('',#185,#187,#124,.F.);
#227=EDGE_CURVE('',#187,#186,#125,.T.);
#228=EDGE_CURVE('',#186,#188,#27,.T.);
#229=EDGE_CURVE('',#187,#189,#28,.F.);
#230=EDGE_CURVE('',#189,#188,#126,.T.);
#231=EDGE_CURVE('',#188,#190,#127,.T.);
#232=EDGE_CURVE('',#189,#191,#128,.F.);
#233=EDGE_CURVE('',#191,#190,#129,.T.);
#234=EDGE_CURVE('',#190,#176,#29,.T.);
#235=EDGE_CURVE('',#191,#178,#30,.F.);
#236=EDGE_CURVE('',#192,#192,#31,.T.);
#237=EDGE_CURVE('',#193,#193,#32,.T.);
#238=EDGE_CURVE('',#193,#194,#130,.T.);
#239=EDGE_CURVE('',#194,#194,#33,.T.);
#240=EDGE_CURVE('',#195,#195,#34,.T.);
#241=EDGE_CURVE('',#195,#196,#131,.T.);
#242=EDGE_CURVE('',#196,#196,#35,.T.);
#243=EDGE_CURVE('',#197,#197,#36,.T.);
#244=EDGE_CURVE('',#197,#198,#132,.T.);
#245=EDGE_CURVE('',#198,#198,#37,.T.);
#246=EDGE_CURVE('',#199,#199,#38,.T.);
#247=EDGE_CURVE('',#199,#192,#133,.T.);
#248=EDGE_CURVE('',#200,#201,#134,.T.);
#249=EDGE_CURVE('',#201,#202,#39,.T.);
#250=EDGE_CURVE('',#202,#203,#135,.T.);
#251=EDGE_CURVE('',#203,#200,#40,.T.);
#252=EDGE_CURVE('',#204,#200,#136,.T.);
#253=EDGE_CURVE('',#205,#204,#137,.T.);
#254=EDGE_CURVE('',#205,#206,#138,.T.);
#255=EDGE_CURVE('',#201,#206,#139,.T.);
#256=EDGE_CURVE('',#207,#203,#140,.T.);
#257=EDGE_CURVE('',#204,#207,#41,.T.);
#258=EDGE_CURVE('',#208,#202,#141,.T.);
#259=EDGE_CURVE('',#209,#208,#142,.T.);
#260=EDGE_CURVE('',#207,#209,#143,.T.);
#261=EDGE_CURVE('',#209,#205,#42,.T.);
#262=EDGE_CURVE('',#206,#208,#43,.T.);
#263=EDGE_CURVE('',#210,#210,#44,.T.);
#264=EDGE_CURVE('',#210,#211,#144,.T.);
#265=EDGE_CURVE('',#211,#211,#45,.T.);
#266=ORIENTED_EDGE('',*,*,#212,.F.);
#267=ORIENTED_EDGE('',*,*,#213,.F.);
#268=ORIENTED_EDGE('',*,*,#214,.T.);
#269=ORIENTED_EDGE('',*,*,#215,.T.);
#270=ORIENTED_EDGE('',*,*,#216,.F.);
#271=ORIENTED_EDGE('',*,*,#215,.F.);
#272=ORIENTED_EDGE('',*,*,#217,.T.);
#273=ORIENTED_EDGE('',*,*,#218,.T.);
#274=ORIENTED_EDGE('',*,*,#219,.F.);
#275=ORIENTED_EDGE('',*,*,#218,.F.);
#276=ORIENTED_EDGE('',*,*,#220,.T.);
#277=ORIENTED_EDGE('',*,*,#221,.T.);
#278=ORIENTED_EDGE('',*,*,#222,.F.);
#279=ORIENTED_EDGE('',*,*,#221,.F.);
#280=ORIENTED_EDGE('',*,*,#223,.T.);
#281=ORIENTED_EDGE('',*,*,#224,.T.);
#282=ORIENTED_EDGE('',*,*,#225,.F.);
#283=ORIENTED_EDGE('',*,*,#224,.F.);
#284=ORIENTED_EDGE('',*,*,#226,.T.);
#285=ORIENTED_EDGE('',*,*,#227,.T.);
#286=ORIENTED_EDGE('',*,*,#228,.F.);
#287=ORIENTED_EDGE('',*,*,#227,.F.);
#288=ORIENTED_EDGE('',*,*,#229,.T.);
#289=ORIENTED_EDGE('',*,*,#230,.T.);
#290=ORIENTED_EDGE('',*,*,#231,.F.);
#291=ORIENTED_EDGE('',*,*,#230,.F.);
#292=ORIENTED_EDGE('',*,*,#232,.T.);
#293=ORIENTED_EDGE('',*,*,#233,.T.);
#294=ORIENTED_EDGE('',*,*,#234,.F.);
#295=ORIENTED_EDGE('',*,*,#233,.F.);
#296=ORIENTED_EDGE('',*,*,#235,.T.);
#297=ORIENTED_EDGE('',*,*,#213,.T.);
#298=ORIENTED_EDGE('',*,*,#223,.F.);
#299=ORIENTED_EDGE('',*,*,#220,.F.);
#300=ORIENTED_EDGE('',*,*,#217,.F.);
#301=ORIENTED_EDGE('',*,*,#214,.F.);
#302=ORIENTED_EDGE('',*,*,#235,.F.);
#303=ORIENTED_EDGE('',*,*,#232,.F.);
#304=ORIENTED_EDGE('',*,*,#229,.F.);
#305=ORIENTED_EDGE('',*,*,#226,.F.);
#306=ORIENTED_EDGE('',*,*,#236,.F.);
#307=ORIENTED_EDGE('',*,*,#237,.F.);
#308=ORIENTED_EDGE('',*,*,#238,.T.);
#309=ORIENTED_EDGE('',*,*,#239,.T.);
#310=ORIENTED_EDGE('',*,*,#238,.F.);
#311=ORIENTED_EDGE('',*,*,#239,.F.);
#312=ORIENTED_EDGE('',*,*,#240,.F.);
#313=ORIENTED_EDGE('',*,*,#241,.T.);
#314=ORIENTED_EDGE('',*,*,#242,.T.);
#315=ORIENTED_EDGE('',*,*,#241,.F.);
#316=ORIENTED_EDGE('',*,*,#242,.F.);
#317=ORIENTED_EDGE('',*,*,#243,.F.);
#318=ORIENTED_EDGE('',*,*,#244,.T.);
#319=ORIENTED_EDGE('',*,*,#245,.T.);
#320=ORIENTED_EDGE('',*,*,#244,.F.);
#321=ORIENTED_EDGE('',*,*,#245,.F.);
#322=ORIENTED_EDGE('',*,*,#246,.F.);
#323=ORIENTED_EDGE('',*,*,#246,.T.);
#324=ORIENTED_EDGE('',*,*,#247,.T.);
#325=ORIENTED_EDGE('',*,*,#236,.T.);
#326=ORIENTED_EDGE('',*,*,#247,.F.);
#327=ORIENTED_EDGE('',*,*,#248,.T.);
#328=ORIENTED_EDGE('',*,*,#249,.T.);
#329=ORIENTED_EDGE('',*,*,#250,.T.);
#330=ORIENTED_EDGE('',*,*,#251,.T.);
#331=ORIENTED_EDGE('',*,*,#248,.F.);
#332=ORIENTED_EDGE('',*,*,#252,.F.);
#333=ORIENTED_EDGE('',*,*,#253,.F.);
#334=ORIENTED_EDGE('',*,*,#254,.T.);
#335=ORIENTED_EDGE('',*,*,#255,.F.);
#336=ORIENTED_EDGE('',*,*,#251,.F.);
#337=ORIENTED_EDGE('',*,*,#256,.F.);
#338=ORIENTED_EDGE('',*,*,#257,.F.);
#339=ORIENTED_EDGE('',*,*,#252,.T.);
#340=ORIENTED_EDGE('',*,*,#250,.F.);
#341=ORIENTED_EDGE('',*,*,#258,.F.);
#342=ORIENTED_EDGE('',*,*,#259,.F.);
#343=ORIENTED_EDGE('',*,*,#260,.F.);
#344=ORIENTED_EDGE('',*,*,#256,.T.);
#345=ORIENTED_EDGE('',*,*,#261,.F.);
#346=ORIENTED_EDGE('',*,*,#259,.T.);
#347=ORIENTED_EDGE('',*,*,#262,.F.);
#348=ORIENTED_EDGE('',*,*,#254,.F.);
#349=ORIENTED_EDGE('',*,*,#249,.F.);
#350=ORIENTED_EDGE('',*,*,#255,.T.);
#351=ORIENTED_EDGE('',*,*,#262,.T.);
#352=ORIENTED_EDGE('',*,*,#258,.T.);
#353=ORIENTED_EDGE('',*,*,#263,.F.);
#354=ORIENTED_EDGE('',*,*,#264,.T.);
#355=ORIENTED_EDGE('',*,*,#265,.F.);
#356=ORIENTED_EDGE('',*,*,#264,.F.);
#357=ORIENTED_EDGE('',*,*,#265,.T.);
#358=ORIENTED_EDGE('',*,*,#243,.T.);
#359=ORIENTED_EDGE('',*,*,#257,.T.);
#360=ORIENTED_EDGE('',*,*,#260,.T.);
#361=ORIENTED_EDGE('',*,*,#261,.T.);
#362=ORIENTED_EDGE('',*,*,#253,.T.);
#363=ORIENTED_EDGE('',*,*,#263,.T.);
#364=ORIENTED_EDGE('',*,*,#225,.T.);
#365=ORIENTED_EDGE('',*,*,#228,.T.);
#366=ORIENTED_EDGE('',*,*,#231,.T.);
#367=ORIENTED_EDGE('',*,*,#234,.T.);
#368=ORIENTED_EDGE('',*,*,#212,.T.);
#369=ORIENTED_EDGE('',*,*,#216,.T.);
#370=ORIENTED_EDGE('',*,*,#219,.T.);
#371=ORIENTED_EDGE('',*,*,#222,.T.);
#372=ORIENTED_EDGE('',*,*,#237,.T.);
#373=ORIENTED_EDGE('',*,*,#240,.T.);
#374=PLANE('',#426);
#375=PLANE('',#430);
#376=PLANE('',#434);
#377=PLANE('',#438);
#378=PLANE('',#442);
#379=PLANE('',#447);
#380=PLANE('',#451);
#381=PLANE('',#455);
#382=PLANE('',#461);
#383=PLANE('',#464);
#384=PLANE('',#468);
#385=PLANE('',#472);
#386=PLANE('',#473);
#387=ADVANCED_FACE('',(#57),#374,.F.);
#388=ADVANCED_FACE('',(#58),#46,.F.);
#389=ADVANCED_FACE('',(#59),#375,.F.);
#390=ADVANCED_FACE('',(#60),#47,.F.);
#391=ADVANCED_FACE('',(#61),#376,.F.);
#392=ADVANCED_FACE('',(#62),#48,.F.);
#393=ADVANCED_FACE('',(#63),#377,.F.);
#394=ADVANCED_FACE('',(#64),#49,.F.);
#395=ADVANCED_FACE('',(#65,#16),#378,.F.);
#396=ADVANCED_FACE('',(#66),#50,.F.);
#397=ADVANCED_FACE('',(#67),#379,.T.);
#398=ADVANCED_FACE('',(#68),#51,.F.);
#399=ADVANCED_FACE('',(#69),#380,.T.);
#400=ADVANCED_FACE('',(#70),#52,.F.);
#401=ADVANCED_FACE('',(#71,#17),#381,.T.);
#402=ADVANCED_FACE('',(#72),#53,.F.);
#403=ADVANCED_FACE('',(#73),#15,.F.);
#404=ADVANCED_FACE('',(#74),#382,.T.);
#405=ADVANCED_FACE('',(#75),#54,.F.);
#406=ADVANCED_FACE('',(#76),#383,.T.);
#407=ADVANCED_FACE('',(#77),#55,.T.);
#408=ADVANCED_FACE('',(#78),#384,.T.);
#409=ADVANCED_FACE('',(#79),#56,.T.);
#410=ADVANCED_FACE('',(#80,#18,#19),#385,.T.);
#411=ADVANCED_FACE('',(#81,#20,#21,#22),#386,.F.);
#412=CLOSED_SHELL('',(#387,#388,#389,#390,#391,#392,#393,#394,#395,#396,
#397,#398,#399,#400,#401,#402,#403,#404,#405,#406,#407,#408,#409,#410,#411));
#413=DERIVED_UNIT_ELEMENT(#415,1.);
#414=DERIVED_UNIT_ELEMENT(#724,-3.);
#415=(
MASS_UNIT()
NAMED_UNIT(*)
SI_UNIT(.KILO.,.GRAM.)
);
#416=DERIVED_UNIT((#413,#414));
#417=MEASURE_REPRESENTATION_ITEM('density measure',
POSITIVE_RATIO_MEASURE(7850.),#416);
#418=PROPERTY_DEFINITION_REPRESENTATION(#423,#420);
#419=PROPERTY_DEFINITION_REPRESENTATION(#424,#421);
#420=REPRESENTATION('material name',(#422),#721);
#421=REPRESENTATION('density',(#417),#721);
#422=DESCRIPTIVE_REPRESENTATION_ITEM('Steel','Steel');
#423=PROPERTY_DEFINITION('material property','material name',#731);
#424=PROPERTY_DEFINITION('material property','density of part',#731);
#425=AXIS2_PLACEMENT_3D('',#603,#474,#475);
#426=AXIS2_PLACEMENT_3D('',#604,#476,#477);
#427=AXIS2_PLACEMENT_3D('',#613,#482,#483);
#428=AXIS2_PLACEMENT_3D('',#615,#484,#485);
#429=AXIS2_PLACEMENT_3D('',#617,#486,#487);
#430=AXIS2_PLACEMENT_3D('',#619,#489,#490);
#431=AXIS2_PLACEMENT_3D('',#625,#494,#495);
#432=AXIS2_PLACEMENT_3D('',#627,#496,#497);
#433=AXIS2_PLACEMENT_3D('',#629,#498,#499);
#434=AXIS2_PLACEMENT_3D('',#631,#501,#502);
#435=AXIS2_PLACEMENT_3D('',#637,#506,#507);
#436=AXIS2_PLACEMENT_3D('',#639,#508,#509);
#437=AXIS2_PLACEMENT_3D('',#641,#510,#511);
#438=AXIS2_PLACEMENT_3D('',#643,#513,#514);
#439=AXIS2_PLACEMENT_3D('',#649,#518,#519);
#440=AXIS2_PLACEMENT_3D('',#650,#520,#521);
#441=AXIS2_PLACEMENT_3D('',#651,#522,#523);
#442=AXIS2_PLACEMENT_3D('',#652,#524,#525);
#443=AXIS2_PLACEMENT_3D('',#654,#526,#527);
#444=AXIS2_PLACEMENT_3D('',#655,#528,#529);
#445=AXIS2_PLACEMENT_3D('',#657,#530,#531);
#446=AXIS2_PLACEMENT_3D('',#660,#533,#534);
#447=AXIS2_PLACEMENT_3D('',#661,#535,#536);
#448=AXIS2_PLACEMENT_3D('',#662,#537,#538);
#449=AXIS2_PLACEMENT_3D('',#664,#539,#540);
#450=AXIS2_PLACEMENT_3D('',#667,#542,#543);
#451=AXIS2_PLACEMENT_3D('',#668,#544,#545);
#452=AXIS2_PLACEMENT_3D('',#669,#546,#547);
#453=AXIS2_PLACEMENT_3D('',#671,#548,#549);
#454=AXIS2_PLACEMENT_3D('',#674,#551,#552);
#455=AXIS2_PLACEMENT_3D('',#675,#553,#554);
#456=AXIS2_PLACEMENT_3D('',#677,#555,#556);
#457=AXIS2_PLACEMENT_3D('',#678,#557,#558);
#458=AXIS2_PLACEMENT_3D('',#680,#560,#561);
#459=AXIS2_PLACEMENT_3D('',#685,#563,#564);
#460=AXIS2_PLACEMENT_3D('',#688,#566,#567);
#461=AXIS2_PLACEMENT_3D('',#689,#568,#569);
#462=AXIS2_PLACEMENT_3D('',#697,#574,#575);
#463=AXIS2_PLACEMENT_3D('',#700,#577,#578);
#464=AXIS2_PLACEMENT_3D('',#701,#579,#580);
#465=AXIS2_PLACEMENT_3D('',#707,#584,#585);
#466=AXIS2_PLACEMENT_3D('',#708,#586,#587);
#467=AXIS2_PLACEMENT_3D('',#709,#588,#589);
#468=AXIS2_PLACEMENT_3D('',#710,#590,#591);
#469=AXIS2_PLACEMENT_3D('',#711,#592,#593);
#470=AXIS2_PLACEMENT_3D('',#713,#594,#595);
#471=AXIS2_PLACEMENT_3D('',#716,#597,#598);
#472=AXIS2_PLACEMENT_3D('',#717,#599,#600);
#473=AXIS2_PLACEMENT_3D('',#718,#601,#602);
#474=DIRECTION('axis',(0.,0.,1.));
#475=DIRECTION('refdir',(1.,0.,0.));
#476=DIRECTION('center_axis',(0.,1.,0.));
#477=DIRECTION('ref_axis',(1.,0.,0.));
#478=DIRECTION('',(-1.,0.,0.));
#479=DIRECTION('',(0.,0.,-1.));
#480=DIRECTION('',(1.,0.,0.));
#481=DIRECTION('',(0.,0.,-1.));
#482=DIRECTION('center_axis',(0.,0.,-1.));
#483=DIRECTION('ref_axis',(2.77555756156289E-16,1.,0.));
#484=DIRECTION('center_axis',(0.,0.,1.));
#485=DIRECTION('ref_axis',(2.77555756156289E-16,1.,0.));
#486=DIRECTION('center_axis',(0.,0.,-1.));
#487=DIRECTION('ref_axis',(2.77555756156289E-16,1.,0.));
#488=DIRECTION('',(0.,0.,-1.));
#489=DIRECTION('center_axis',(-1.,0.,0.));
#490=DIRECTION('ref_axis',(0.,1.,0.));
#491=DIRECTION('',(0.,-1.,0.));
#492=DIRECTION('',(0.,1.,0.));
#493=DIRECTION('',(0.,0.,-1.));
#494=DIRECTION('center_axis',(0.,0.,-1.));
#495=DIRECTION('ref_axis',(-1.,0.,0.));
#496=DIRECTION('center_axis',(0.,0.,1.));
#497=DIRECTION('ref_axis',(-1.,0.,0.));
#498=DIRECTION('center_axis',(0.,0.,-1.));
#499=DIRECTION('ref_axis',(-1.,0.,0.));
#500=DIRECTION('',(0.,0.,-1.));
#501=DIRECTION('center_axis',(9.9660953736549E-17,-1.,0.));
#502=DIRECTION('ref_axis',(-1.,-9.9660953736549E-17,0.));
#503=DIRECTION('',(1.,9.9660953736549E-17,0.));
#504=DIRECTION('',(-1.,-9.9660953736549E-17,0.));
#505=DIRECTION('',(0.,0.,-1.));
#506=DIRECTION('center_axis',(0.,0.,-1.));
#507=DIRECTION('ref_axis',(-2.77555756156289E-16,-1.,0.));
#508=DIRECTION('center_axis',(0.,0.,1.));
#509=DIRECTION('ref_axis',(-2.77555756156289E-16,-1.,0.));
#510=DIRECTION('center_axis',(0.,0.,-1.));
#511=DIRECTION('ref_axis',(-2.77555756156289E-16,-1.,0.));
#512=DIRECTION('',(0.,0.,-1.));
#513=DIRECTION('center_axis',(1.,0.,0.));
#514=DIRECTION('ref_axis',(0.,-1.,0.));
#515=DIRECTION('',(0.,1.,0.));
#516=DIRECTION('',(0.,-1.,0.));
#517=DIRECTION('',(0.,0.,-1.));
#518=DIRECTION('center_axis',(0.,0.,-1.));
#519=DIRECTION('ref_axis',(1.,-5.55111512312579E-16,0.));
#520=DIRECTION('center_axis',(0.,0.,1.));
#521=DIRECTION('ref_axis',(1.,-5.55111512312579E-16,0.));
#522=DIRECTION('center_axis',(0.,0.,-1.));
#523=DIRECTION('ref_axis',(1.,-5.55111512312579E-16,0.));
#524=DIRECTION('center_axis',(0.,0.,1.));
#525=DIRECTION('ref_axis',(-1.,0.,0.));
#526=DIRECTION('center_axis',(0.,0.,-1.));
#527=DIRECTION('ref_axis',(-1.,0.,0.));
#528=DIRECTION('center_axis',(0.,0.,1.));
#529=DIRECTION('ref_axis',(1.,0.,0.));
#530=DIRECTION('center_axis',(0.,0.,1.));
#531=DIRECTION('ref_axis',(1.,0.,0.));
#532=DIRECTION('',(0.,0.,1.));
#533=DIRECTION('center_axis',(0.,0.,1.));
#534=DIRECTION('ref_axis',(1.,0.,0.));
#535=DIRECTION('center_axis',(0.,0.,-1.));
#536=DIRECTION('ref_axis',(1.,0.,0.));
#537=DIRECTION('center_axis',(0.,0.,1.));
#538=DIRECTION('ref_axis',(1.,0.,0.));
#539=DIRECTION('center_axis',(0.,0.,1.));
#540=DIRECTION('ref_axis',(1.,0.,0.));
#541=DIRECTION('',(0.,0.,1.));
#542=DIRECTION('center_axis',(0.,0.,1.));
#543=DIRECTION('ref_axis',(1.,0.,0.));
#544=DIRECTION('center_axis',(0.,0.,-1.));
#545=DIRECTION('ref_axis',(1.,0.,0.));
#546=DIRECTION('center_axis',(0.,0.,-1.));
#547=DIRECTION('ref_axis',(-1.,0.,0.));
#548=DIRECTION('center_axis',(0.,0.,-1.));
#549=DIRECTION('ref_axis',(-1.,0.,0.));
#550=DIRECTION('',(0.,0.,-1.));
#551=DIRECTION('center_axis',(0.,0.,-1.));
#552=DIRECTION('ref_axis',(-1.,0.,0.));
#553=DIRECTION('center_axis',(0.,0.,1.));
#554=DIRECTION('ref_axis',(-1.,0.,0.));
#555=DIRECTION('center_axis',(0.,0.,1.));
#556=DIRECTION('ref_axis',(-1.,0.,0.));
#557=DIRECTION('center_axis',(0.,0.,-1.));
#558=DIRECTION('ref_axis',(-1.,0.,0.));
#559=DIRECTION('',(0.,0.,-1.));
#560=DIRECTION('center_axis',(0.,0.,1.));
#561=DIRECTION('ref_axis',(1.,0.,0.));
#562=DIRECTION('',(0.6,0.,0.8));
#563=DIRECTION('center_axis',(0.,0.,1.));
#564=DIRECTION('ref_axis',(1.,0.,0.));
#565=DIRECTION('',(0.6,0.,-0.8));
#566=DIRECTION('center_axis',(0.,0.,-1.));
#567=DIRECTION('ref_axis',(1.,0.,0.));
#568=DIRECTION('center_axis',(0.,-1.,0.));
#569=DIRECTION('ref_axis',(1.,0.,0.));
#570=DIRECTION('',(0.,0.,1.));
#571=DIRECTION('',(-1.,0.,0.));
#572=DIRECTION('',(0.,0.,1.));
#573=DIRECTION('',(1.,0.,0.));
#574=DIRECTION('center_axis',(0.,0.,1.));
#575=DIRECTION('ref_axis',(1.,0.,0.));
#576=DIRECTION('',(0.,0.,1.));
#577=DIRECTION('center_axis',(0.,0.,1.));
#578=DIRECTION('ref_axis',(1.,0.,0.));
#579=DIRECTION('center_axis',(0.,-1.,0.));
#580=DIRECTION('ref_axis',(1.,0.,0.));
#581=DIRECTION('',(1.,0.,0.));
#582=DIRECTION('',(0.,0.,1.));
#583=DIRECTION('',(-1.,0.,0.));
#584=DIRECTION('center_axis',(0.,0.,1.));
#585=DIRECTION('ref_axis',(1.,0.,0.));
#586=DIRECTION('center_axis',(0.,0.,-1.));
#587=DIRECTION('ref_axis',(1.,0.,0.));
#588=DIRECTION('center_axis',(0.,0.,1.));
#589=DIRECTION('ref_axis',(1.,0.,0.));
#590=DIRECTION('center_axis',(0.,0.,1.));
#591=DIRECTION('ref_axis',(-1.,0.,0.));
#592=DIRECTION('center_axis',(0.,0.,-1.));
#593=DIRECTION('ref_axis',(-1.,0.,0.));
#594=DIRECTION('center_axis',(0.,0.,-1.));
#595=DIRECTION('ref_axis',(-1.,0.,0.));
#596=DIRECTION('',(0.,0.,1.));
#597=DIRECTION('center_axis',(0.,0.,1.));
#598=DIRECTION('ref_axis',(-1.,0.,0.));
#599=DIRECTION('center_axis',(0.,0.,1.));
#600=DIRECTION('ref_axis',(-1.,0.,0.));
#601=DIRECTION('center_axis',(0.,0.,1.));
#602=DIRECTION('ref_axis',(-1.,0.,0.));
#603=CARTESIAN_POINT('',(0.,0.,0.));
#604=CARTESIAN_POINT('Origin',(-2.785,4.915,-58.));
#605=CARTESIAN_POINT('',(2.785,4.915,-61.5));
#606=CARTESIAN_POINT('',(-2.785,4.915,-61.5));
#607=CARTESIAN_POINT('',(-1.3925,4.915,-61.5));
#608=CARTESIAN_POINT('',(2.785,4.915,-58.));
#609=CARTESIAN_POINT('',(2.785,4.915,-58.));
#610=CARTESIAN_POINT('',(-2.785,4.915,-58.));
#611=CARTESIAN_POINT('',(-1.3925,4.915,-58.));
#612=CARTESIAN_POINT('',(-2.785,4.915,-58.));
#613=CARTESIAN_POINT('Origin',(-2.785,2.785,-58.));
#614=CARTESIAN_POINT('',(-4.915,2.785,-61.5));
#615=CARTESIAN_POINT('Origin',(-2.785,2.785,-61.5));
#616=CARTESIAN_POINT('',(-4.915,2.785,-58.));
#617=CARTESIAN_POINT('Origin',(-2.785,2.785,-58.));
#618=CARTESIAN_POINT('',(-4.915,2.785,-58.));
#619=CARTESIAN_POINT('Origin',(-4.915,-2.785,-58.));
#620=CARTESIAN_POINT('',(-4.915,-2.785,-61.5));
#621=CARTESIAN_POINT('',(-4.915,-1.3925,-61.5));
#622=CARTESIAN_POINT('',(-4.915,-2.785,-58.));
#623=CARTESIAN_POINT('',(-4.915,-1.3925,-58.));
#624=CARTESIAN_POINT('',(-4.915,-2.785,-58.));
#625=CARTESIAN_POINT('Origin',(-2.785,-2.785,-58.));
#626=CARTESIAN_POINT('',(-2.785,-4.915,-61.5));
#627=CARTESIAN_POINT('Origin',(-2.785,-2.785,-61.5));
#628=CARTESIAN_POINT('',(-2.785,-4.915,-58.));
#629=CARTESIAN_POINT('Origin',(-2.785,-2.785,-58.));
#630=CARTESIAN_POINT('',(-2.785,-4.915,-58.));
#631=CARTESIAN_POINT('Origin',(2.785,-4.915,-58.));
#632=CARTESIAN_POINT('',(2.785,-4.915,-61.5));
#633=CARTESIAN_POINT('',(1.3925,-4.915,-61.5));
#634=CARTESIAN_POINT('',(2.785,-4.915,-58.));
#635=CARTESIAN_POINT('',(1.3925,-4.915,-58.));
#636=CARTESIAN_POINT('',(2.785,-4.915,-58.));
#637=CARTESIAN_POINT('Origin',(2.785,-2.785,-58.));
#638=CARTESIAN_POINT('',(4.915,-2.785,-61.5));
#639=CARTESIAN_POINT('Origin',(2.785,-2.785,-61.5));
#640=CARTESIAN_POINT('',(4.915,-2.785,-58.));
#641=CARTESIAN_POINT('Origin',(2.785,-2.785,-58.));
#642=CARTESIAN_POINT('',(4.915,-2.785,-58.));
#643=CARTESIAN_POINT('Origin',(4.915,2.785,-58.));
#644=CARTESIAN_POINT('',(4.915,2.785,-61.5));
#645=CARTESIAN_POINT('',(4.915,1.3925,-61.5));
#646=CARTESIAN_POINT('',(4.915,2.785,-58.));
#647=CARTESIAN_POINT('',(4.915,1.3925,-58.));
#648=CARTESIAN_POINT('',(4.915,2.785,-58.));
#649=CARTESIAN_POINT('Origin',(2.785,2.785,-58.));
#650=CARTESIAN_POINT('Origin',(2.785,2.785,-61.5));
#651=CARTESIAN_POINT('Origin',(2.785,2.785,-58.));
#652=CARTESIAN_POINT('Origin',(-1.11022302462516E-15,1.11022302462516E-15,
-58.));
#653=CARTESIAN_POINT('',(1.7,-2.0818995585505E-16,-58.));
#654=CARTESIAN_POINT('Origin',(0.,0.,-58.));
#655=CARTESIAN_POINT('Origin',(0.,-19.7657955777121,-61.5));
#656=CARTESIAN_POINT('',(-2.25,-19.7657955777121,-61.5));
#657=CARTESIAN_POINT('Origin',(0.,-19.7657955777121,-61.5));
#658=CARTESIAN_POINT('',(-2.25,-19.7657955777121,-56.5));
#659=CARTESIAN_POINT('',(-2.25,-19.7657955777121,-61.5));
#660=CARTESIAN_POINT('Origin',(0.,-19.7657955777121,-56.5));
#661=CARTESIAN_POINT('Origin',(0.,-19.7657955777121,-56.5));
#662=CARTESIAN_POINT('Origin',(-2.77555756156289E-16,19.7657955777121,-61.5));
#663=CARTESIAN_POINT('',(-2.25,19.7657955777121,-61.5));
#664=CARTESIAN_POINT('Origin',(-2.77555756156289E-16,19.7657955777121,-61.5));
#665=CARTESIAN_POINT('',(-2.25,19.7657955777121,-56.5));
#666=CARTESIAN_POINT('',(-2.25,19.7657955777121,-61.5));
#667=CARTESIAN_POINT('Origin',(-2.77555756156289E-16,19.7657955777121,-56.5));
#668=CARTESIAN_POINT('Origin',(-2.77555756156289E-16,19.7657955777121,-56.5));
#669=CARTESIAN_POINT('Origin',(0.,0.,-55.));
#670=CARTESIAN_POINT('',(3.,3.67394039744206E-16,-55.));
#671=CARTESIAN_POINT('Origin',(0.,0.,-55.));
#672=CARTESIAN_POINT('',(3.,3.67394039744206E-16,-56.5));
#673=CARTESIAN_POINT('',(3.,-3.67394039744206E-16,-55.));
#674=CARTESIAN_POINT('Origin',(0.,0.,-56.5));
#675=CARTESIAN_POINT('Origin',(0.,0.,-56.5));
#676=CARTESIAN_POINT('',(1.7,2.0818995585505E-16,-56.5));
#677=CARTESIAN_POINT('Origin',(0.,0.,-56.5));
#678=CARTESIAN_POINT('Origin',(0.,0.,-55.));
#679=CARTESIAN_POINT('',(1.7,-2.0818995585505E-16,-55.));
#680=CARTESIAN_POINT('Origin',(0.,0.,-52.577));
#681=CARTESIAN_POINT('',(12.75,0.,-54.577));
#682=CARTESIAN_POINT('',(15.75,0.,-50.577));
#683=CARTESIAN_POINT('',(14.25,0.,-52.577));
#684=CARTESIAN_POINT('',(-15.75,0.,-50.577));
#685=CARTESIAN_POINT('Origin',(0.,0.,-50.577));
#686=CARTESIAN_POINT('',(-12.75,1.56142466891288E-15,-54.577));
#687=CARTESIAN_POINT('',(-14.25,0.,-52.577));
#688=CARTESIAN_POINT('Origin',(0.,0.,-54.577));
#689=CARTESIAN_POINT('Origin',(12.75,0.,-55.));
#690=CARTESIAN_POINT('',(12.75,0.,-55.));
#691=CARTESIAN_POINT('',(12.75,0.,-55.));
#692=CARTESIAN_POINT('',(17.5,0.,-55.));
#693=CARTESIAN_POINT('',(6.375,0.,-55.));
#694=CARTESIAN_POINT('',(17.5,0.,-50.577));
#695=CARTESIAN_POINT('',(17.5,0.,-55.));
#696=CARTESIAN_POINT('',(12.75,0.,-50.577));
#697=CARTESIAN_POINT('Origin',(0.,0.,-55.));
#698=CARTESIAN_POINT('',(-12.75,1.56142466891288E-15,-55.));
#699=CARTESIAN_POINT('',(-12.75,1.56142466891288E-15,-55.));
#700=CARTESIAN_POINT('Origin',(0.,0.,-55.));
#701=CARTESIAN_POINT('Origin',(-17.5,0.,-55.));
#702=CARTESIAN_POINT('',(-17.5,2.14313189850787E-15,-50.577));
#703=CARTESIAN_POINT('',(-17.5,0.,-50.577));
#704=CARTESIAN_POINT('',(-17.5,2.14313189850787E-15,-55.));
#705=CARTESIAN_POINT('',(-17.5,2.14313189850787E-15,-55.));
#706=CARTESIAN_POINT('',(-8.75,0.,-55.));
#707=CARTESIAN_POINT('Origin',(0.,0.,-55.));
#708=CARTESIAN_POINT('Origin',(0.,0.,-55.));
#709=CARTESIAN_POINT('Origin',(0.,0.,-50.577));
#710=CARTESIAN_POINT('Origin',(0.,8.75,-50.577));
#711=CARTESIAN_POINT('Origin',(0.,0.,-55.));
#712=CARTESIAN_POINT('',(26.5,3.24531401774049E-15,-61.5));
#713=CARTESIAN_POINT('Origin',(0.,0.,-61.5));
#714=CARTESIAN_POINT('',(26.5,3.24531401774049E-15,-55.));
#715=CARTESIAN_POINT('',(26.5,-3.24531401774049E-15,-55.));
#716=CARTESIAN_POINT('Origin',(0.,0.,-55.));
#717=CARTESIAN_POINT('Origin',(0.,0.,-55.));
#718=CARTESIAN_POINT('Origin',(0.,0.,-61.5));
#719=UNCERTAINTY_MEASURE_WITH_UNIT(LENGTH_MEASURE(0.01),#723,
'DISTANCE_ACCURACY_VALUE',
'Maximum model space distance between geometric entities at asserted c
onnectivities');
#720=UNCERTAINTY_MEASURE_WITH_UNIT(LENGTH_MEASURE(0.01),#723,
'DISTANCE_ACCURACY_VALUE',
'Maximum model space distance between geometric entities at asserted c
onnectivities');
#721=(
GEOMETRIC_REPRESENTATION_CONTEXT(3)
GLOBAL_UNCERTAINTY_ASSIGNED_CONTEXT((#719))
GLOBAL_UNIT_ASSIGNED_CONTEXT((#723,#725,#726))
REPRESENTATION_CONTEXT('','3D')
);
#722=(
GEOMETRIC_REPRESENTATION_CONTEXT(3)
GLOBAL_UNCERTAINTY_ASSIGNED_CONTEXT((#720))
GLOBAL_UNIT_ASSIGNED_CONTEXT((#723,#725,#726))
REPRESENTATION_CONTEXT('','3D')
);
#723=(
LENGTH_UNIT()
NAMED_UNIT(*)
SI_UNIT(.MILLI.,.METRE.)
);
#724=(
LENGTH_UNIT()
NAMED_UNIT(*)
SI_UNIT($,.METRE.)
);
#725=(
NAMED_UNIT(*)
PLANE_ANGLE_UNIT()
SI_UNIT($,.RADIAN.)
);
#726=(
NAMED_UNIT(*)
SI_UNIT($,.STERADIAN.)
SOLID_ANGLE_UNIT()
);
#727=SHAPE_DEFINITION_REPRESENTATION(#728,#729);
#728=PRODUCT_DEFINITION_SHAPE('',$,#731);
#729=SHAPE_REPRESENTATION('',(#425),#721);
#730=PRODUCT_DEFINITION_CONTEXT('part definition',#735,'design');
#731=PRODUCT_DEFINITION('POWDER PAN','POWDER PAN',#732,#730);
#732=PRODUCT_DEFINITION_FORMATION('',$,#737);
#733=PRODUCT_RELATED_PRODUCT_CATEGORY('POWDER PAN','POWDER PAN',(#737));
#734=APPLICATION_PROTOCOL_DEFINITION('international standard',
'automotive_design',2009,#735);
#735=APPLICATION_CONTEXT(
'Core Data for Automotive Mechanical Design Process');
#736=PRODUCT_CONTEXT('part definition',#735,'mechanical');
#737=PRODUCT('POWDER PAN','POWDER PAN',$,(#736));
#738=PRESENTATION_STYLE_ASSIGNMENT((#739));
#739=SURFACE_STYLE_USAGE(.BOTH.,#740);
#740=SURFACE_SIDE_STYLE('',(#741));
#741=SURFACE_STYLE_FILL_AREA(#742);
#742=FILL_AREA_STYLE('Steel - Satin',(#743));
#743=FILL_AREA_STYLE_COLOUR('Steel - Satin',#744);
#744=COLOUR_RGB('Steel - Satin',0.627450980392157,0.627450980392157,0.627450980392157);
ENDSEC;
END-ISO-10303-21;
