ISO-10303-21;
HEADER;
/* Generated by software containing ST-Developer
 * from STEP Tools, Inc. (www.steptools.com) 
 */

FILE_DESCRIPTION(
/* description */ (''),
/* implementation_level */ '2;1');

FILE_NAME(
/* name */ 'REAR VOLUME REDUCER DOOR.step',
/* time_stamp */ '2026-03-23T18:15:21-05:00',
/* author */ (''),
/* organization */ (''),
/* preprocessor_version */ 'ST-DEVELOPER v20.1',
/* originating_system */ 'Autodesk Translation Framework v14.24.0.0',
/* authorisation */ '');

FILE_SCHEMA (('AUTOMOTIVE_DESIGN { 1 0 10303 214 3 1 1 }'));
ENDSEC;

DATA;
#10=MECHANICAL_DESIGN_GEOMETRIC_PRESENTATION_REPRESENTATION('',(#13),#381);
#11=SHAPE_REPRESENTATION_RELATIONSHIP('SRR','None',#388,#12);
#12=ADVANCED_BREP_SHAPE_REPRESENTATION('',(#14),#380);
#13=STYLED_ITEM('',(#397),#14);
#14=MANIFOLD_SOLID_BREP('Rear volume reducer door',#227);
#15=CYLINDRICAL_SURFACE('',#248,13.6000000000002);
#16=CIRCLE('',#245,11.5171572875256);
#17=CIRCLE('',#246,13.6000000000002);
#18=CIRCLE('',#249,13.6000000000002);
#19=CONICAL_SURFACE('',#244,12.6585786437629,0.785398163397447);
#20=FACE_OUTER_BOUND('',#33,.T.);
#21=FACE_OUTER_BOUND('',#34,.T.);
#22=FACE_OUTER_BOUND('',#35,.T.);
#23=FACE_OUTER_BOUND('',#36,.T.);
#24=FACE_OUTER_BOUND('',#37,.T.);
#25=FACE_OUTER_BOUND('',#38,.T.);
#26=FACE_OUTER_BOUND('',#39,.T.);
#27=FACE_OUTER_BOUND('',#40,.T.);
#28=FACE_OUTER_BOUND('',#41,.T.);
#29=FACE_OUTER_BOUND('',#42,.T.);
#30=FACE_OUTER_BOUND('',#43,.T.);
#31=FACE_OUTER_BOUND('',#44,.T.);
#32=FACE_OUTER_BOUND('',#45,.T.);
#33=EDGE_LOOP('',(#145,#146,#147,#148));
#34=EDGE_LOOP('',(#149,#150,#151,#152));
#35=EDGE_LOOP('',(#153,#154,#155,#156));
#36=EDGE_LOOP('',(#157,#158,#159,#160));
#37=EDGE_LOOP('',(#161,#162,#163,#164));
#38=EDGE_LOOP('',(#165,#166,#167,#168));
#39=EDGE_LOOP('',(#169,#170,#171,#172));
#40=EDGE_LOOP('',(#173,#174,#175,#176));
#41=EDGE_LOOP('',(#177,#178,#179,#180,#181,#182));
#42=EDGE_LOOP('',(#183,#184,#185,#186));
#43=EDGE_LOOP('',(#187,#188,#189,#190));
#44=EDGE_LOOP('',(#191,#192,#193,#194,#195,#196));
#45=EDGE_LOOP('',(#197,#198,#199,#200,#201,#202));
#46=LINE('',#321,#72);
#47=LINE('',#323,#73);
#48=LINE('',#325,#74);
#49=LINE('',#326,#75);
#50=LINE('',#330,#76);
#51=LINE('',#332,#77);
#52=LINE('',#334,#78);
#53=LINE('',#335,#79);
#54=LINE('',#338,#80);
#55=LINE('',#340,#81);
#56=LINE('',#341,#82);
#57=LINE('',#345,#83);
#58=LINE('',#349,#84);
#59=LINE('',#350,#85);
#60=LINE('',#353,#86);
#61=LINE('',#356,#87);
#62=LINE('',#359,#88);
#63=LINE('',#360,#89);
#64=LINE('',#363,#90);
#65=LINE('',#364,#91);
#66=LINE('',#367,#92);
#67=LINE('',#368,#93);
#68=LINE('',#369,#94);
#69=LINE('',#372,#95);
#70=LINE('',#373,#96);
#71=LINE('',#375,#97);
#72=VECTOR('',#261,10.);
#73=VECTOR('',#262,10.);
#74=VECTOR('',#263,10.);
#75=VECTOR('',#264,10.);
#76=VECTOR('',#267,10.);
#77=VECTOR('',#268,10.);
#78=VECTOR('',#269,10.);
#79=VECTOR('',#270,10.);
#80=VECTOR('',#273,10.);
#81=VECTOR('',#274,10.);
#82=VECTOR('',#275,10.);
#83=VECTOR('',#278,10.);
#84=VECTOR('',#285,10.);
#85=VECTOR('',#286,10.);
#86=VECTOR('',#289,10.);
#87=VECTOR('',#292,10.);
#88=VECTOR('',#295,10.);
#89=VECTOR('',#296,10.);
#90=VECTOR('',#299,10.);
#91=VECTOR('',#300,10.);
#92=VECTOR('',#303,10.);
#93=VECTOR('',#304,10.);
#94=VECTOR('',#305,10.);
#95=VECTOR('',#308,10.);
#96=VECTOR('',#309,10.);
#97=VECTOR('',#312,10.);
#98=VERTEX_POINT('',#319);
#99=VERTEX_POINT('',#320);
#100=VERTEX_POINT('',#322);
#101=VERTEX_POINT('',#324);
#102=VERTEX_POINT('',#328);
#103=VERTEX_POINT('',#329);
#104=VERTEX_POINT('',#331);
#105=VERTEX_POINT('',#333);
#106=VERTEX_POINT('',#337);
#107=VERTEX_POINT('',#339);
#108=VERTEX_POINT('',#343);
#109=VERTEX_POINT('',#344);
#110=VERTEX_POINT('',#352);
#111=VERTEX_POINT('',#354);
#112=VERTEX_POINT('',#358);
#113=VERTEX_POINT('',#362);
#114=VERTEX_POINT('',#366);
#115=VERTEX_POINT('',#371);
#116=EDGE_CURVE('',#98,#99,#46,.T.);
#117=EDGE_CURVE('',#99,#100,#47,.T.);
#118=EDGE_CURVE('',#100,#101,#48,.T.);
#119=EDGE_CURVE('',#101,#98,#49,.F.);
#120=EDGE_CURVE('',#102,#103,#50,.T.);
#121=EDGE_CURVE('',#103,#104,#51,.T.);
#122=EDGE_CURVE('',#104,#105,#52,.T.);
#123=EDGE_CURVE('',#105,#102,#53,.F.);
#124=EDGE_CURVE('',#105,#106,#54,.T.);
#125=EDGE_CURVE('',#106,#107,#55,.T.);
#126=EDGE_CURVE('',#107,#102,#56,.T.);
#127=EDGE_CURVE('',#108,#109,#57,.T.);
#128=EDGE_CURVE('',#109,#104,#16,.T.);
#129=EDGE_CURVE('',#103,#108,#17,.T.);
#130=EDGE_CURVE('',#101,#109,#58,.T.);
#131=EDGE_CURVE('',#108,#98,#59,.T.);
#132=EDGE_CURVE('',#110,#103,#60,.T.);
#133=EDGE_CURVE('',#110,#111,#18,.F.);
#134=EDGE_CURVE('',#111,#108,#61,.T.);
#135=EDGE_CURVE('',#112,#102,#62,.F.);
#136=EDGE_CURVE('',#110,#112,#63,.T.);
#137=EDGE_CURVE('',#113,#107,#64,.F.);
#138=EDGE_CURVE('',#112,#113,#65,.T.);
#139=EDGE_CURVE('',#114,#99,#66,.T.);
#140=EDGE_CURVE('',#113,#114,#67,.T.);
#141=EDGE_CURVE('',#100,#106,#68,.T.);
#142=EDGE_CURVE('',#115,#98,#69,.T.);
#143=EDGE_CURVE('',#114,#115,#70,.T.);
#144=EDGE_CURVE('',#115,#111,#71,.T.);
#145=ORIENTED_EDGE('',*,*,#116,.T.);
#146=ORIENTED_EDGE('',*,*,#117,.T.);
#147=ORIENTED_EDGE('',*,*,#118,.T.);
#148=ORIENTED_EDGE('',*,*,#119,.T.);
#149=ORIENTED_EDGE('',*,*,#120,.T.);
#150=ORIENTED_EDGE('',*,*,#121,.T.);
#151=ORIENTED_EDGE('',*,*,#122,.T.);
#152=ORIENTED_EDGE('',*,*,#123,.T.);
#153=ORIENTED_EDGE('',*,*,#124,.T.);
#154=ORIENTED_EDGE('',*,*,#125,.T.);
#155=ORIENTED_EDGE('',*,*,#126,.T.);
#156=ORIENTED_EDGE('',*,*,#123,.F.);
#157=ORIENTED_EDGE('',*,*,#127,.T.);
#158=ORIENTED_EDGE('',*,*,#128,.T.);
#159=ORIENTED_EDGE('',*,*,#121,.F.);
#160=ORIENTED_EDGE('',*,*,#129,.T.);
#161=ORIENTED_EDGE('',*,*,#130,.T.);
#162=ORIENTED_EDGE('',*,*,#127,.F.);
#163=ORIENTED_EDGE('',*,*,#131,.T.);
#164=ORIENTED_EDGE('',*,*,#119,.F.);
#165=ORIENTED_EDGE('',*,*,#129,.F.);
#166=ORIENTED_EDGE('',*,*,#132,.F.);
#167=ORIENTED_EDGE('',*,*,#133,.T.);
#168=ORIENTED_EDGE('',*,*,#134,.T.);
#169=ORIENTED_EDGE('',*,*,#120,.F.);
#170=ORIENTED_EDGE('',*,*,#135,.F.);
#171=ORIENTED_EDGE('',*,*,#136,.F.);
#172=ORIENTED_EDGE('',*,*,#132,.T.);
#173=ORIENTED_EDGE('',*,*,#126,.F.);
#174=ORIENTED_EDGE('',*,*,#137,.F.);
#175=ORIENTED_EDGE('',*,*,#138,.F.);
#176=ORIENTED_EDGE('',*,*,#135,.T.);
#177=ORIENTED_EDGE('',*,*,#117,.F.);
#178=ORIENTED_EDGE('',*,*,#139,.F.);
#179=ORIENTED_EDGE('',*,*,#140,.F.);
#180=ORIENTED_EDGE('',*,*,#137,.T.);
#181=ORIENTED_EDGE('',*,*,#125,.F.);
#182=ORIENTED_EDGE('',*,*,#141,.F.);
#183=ORIENTED_EDGE('',*,*,#116,.F.);
#184=ORIENTED_EDGE('',*,*,#142,.F.);
#185=ORIENTED_EDGE('',*,*,#143,.F.);
#186=ORIENTED_EDGE('',*,*,#139,.T.);
#187=ORIENTED_EDGE('',*,*,#131,.F.);
#188=ORIENTED_EDGE('',*,*,#134,.F.);
#189=ORIENTED_EDGE('',*,*,#144,.F.);
#190=ORIENTED_EDGE('',*,*,#142,.T.);
#191=ORIENTED_EDGE('',*,*,#118,.F.);
#192=ORIENTED_EDGE('',*,*,#141,.T.);
#193=ORIENTED_EDGE('',*,*,#124,.F.);
#194=ORIENTED_EDGE('',*,*,#122,.F.);
#195=ORIENTED_EDGE('',*,*,#128,.F.);
#196=ORIENTED_EDGE('',*,*,#130,.F.);
#197=ORIENTED_EDGE('',*,*,#136,.T.);
#198=ORIENTED_EDGE('',*,*,#138,.T.);
#199=ORIENTED_EDGE('',*,*,#140,.T.);
#200=ORIENTED_EDGE('',*,*,#143,.T.);
#201=ORIENTED_EDGE('',*,*,#144,.T.);
#202=ORIENTED_EDGE('',*,*,#133,.F.);
#203=PLANE('',#241);
#204=PLANE('',#242);
#205=PLANE('',#243);
#206=PLANE('',#247);
#207=PLANE('',#250);
#208=PLANE('',#251);
#209=PLANE('',#252);
#210=PLANE('',#253);
#211=PLANE('',#254);
#212=PLANE('',#255);
#213=PLANE('',#256);
#214=ADVANCED_FACE('',(#20),#203,.T.);
#215=ADVANCED_FACE('',(#21),#204,.T.);
#216=ADVANCED_FACE('',(#22),#205,.T.);
#217=ADVANCED_FACE('',(#23),#19,.T.);
#218=ADVANCED_FACE('',(#24),#206,.T.);
#219=ADVANCED_FACE('',(#25),#15,.T.);
#220=ADVANCED_FACE('',(#26),#207,.T.);
#221=ADVANCED_FACE('',(#27),#208,.T.);
#222=ADVANCED_FACE('',(#28),#209,.T.);
#223=ADVANCED_FACE('',(#29),#210,.T.);
#224=ADVANCED_FACE('',(#30),#211,.T.);
#225=ADVANCED_FACE('',(#31),#212,.T.);
#226=ADVANCED_FACE('',(#32),#213,.F.);
#227=CLOSED_SHELL('',(#214,#215,#216,#217,#218,#219,#220,#221,#222,#223,
#224,#225,#226));
#228=DERIVED_UNIT_ELEMENT(#230,1.);
#229=DERIVED_UNIT_ELEMENT(#383,-3.);
#230=(
MASS_UNIT()
NAMED_UNIT(*)
SI_UNIT(.KILO.,.GRAM.)
);
#231=DERIVED_UNIT((#228,#229));
#232=MEASURE_REPRESENTATION_ITEM('density measure',
POSITIVE_RATIO_MEASURE(7850.),#231);
#233=PROPERTY_DEFINITION_REPRESENTATION(#238,#235);
#234=PROPERTY_DEFINITION_REPRESENTATION(#239,#236);
#235=REPRESENTATION('material name',(#237),#380);
#236=REPRESENTATION('density',(#232),#380);
#237=DESCRIPTIVE_REPRESENTATION_ITEM('Steel','Steel');
#238=PROPERTY_DEFINITION('material property','material name',#390);
#239=PROPERTY_DEFINITION('material property','density of part',#390);
#240=AXIS2_PLACEMENT_3D('',#317,#257,#258);
#241=AXIS2_PLACEMENT_3D('',#318,#259,#260);
#242=AXIS2_PLACEMENT_3D('',#327,#265,#266);
#243=AXIS2_PLACEMENT_3D('',#336,#271,#272);
#244=AXIS2_PLACEMENT_3D('',#342,#276,#277);
#245=AXIS2_PLACEMENT_3D('',#346,#279,#280);
#246=AXIS2_PLACEMENT_3D('',#347,#281,#282);
#247=AXIS2_PLACEMENT_3D('',#348,#283,#284);
#248=AXIS2_PLACEMENT_3D('',#351,#287,#288);
#249=AXIS2_PLACEMENT_3D('',#355,#290,#291);
#250=AXIS2_PLACEMENT_3D('',#357,#293,#294);
#251=AXIS2_PLACEMENT_3D('',#361,#297,#298);
#252=AXIS2_PLACEMENT_3D('',#365,#301,#302);
#253=AXIS2_PLACEMENT_3D('',#370,#306,#307);
#254=AXIS2_PLACEMENT_3D('',#374,#310,#311);
#255=AXIS2_PLACEMENT_3D('',#376,#313,#314);
#256=AXIS2_PLACEMENT_3D('',#377,#315,#316);
#257=DIRECTION('axis',(0.,0.,1.));
#258=DIRECTION('refdir',(1.,0.,0.));
#259=DIRECTION('center_axis',(-0.707106781186546,0.707106781186549,0.));
#260=DIRECTION('ref_axis',(0.,0.,1.));
#261=DIRECTION('',(0.,0.,1.));
#262=DIRECTION('',(0.707106781186549,0.707106781186546,0.));
#263=DIRECTION('',(0.,0.,-1.));
#264=DIRECTION('',(0.705971839845809,0.705971839845807,0.0566349952719133));
#265=DIRECTION('center_axis',(0.69806354339886,0.707106781186548,-0.112726613439006));
#266=DIRECTION('ref_axis',(-0.159419505565831,0.,-0.987210930472888));
#267=DIRECTION('',(-0.159419505565831,1.96261557335472E-17,-0.987210930472888));
#268=DIRECTION('',(-0.698063543398862,0.707106781186547,0.112726613439004));
#269=DIRECTION('',(0.159419505565831,0.,0.987210930472888));
#270=DIRECTION('',(-0.70597183984581,0.705971839845807,0.0566349952718991));
#271=DIRECTION('center_axis',(0.707106781186546,0.707106781186549,7.79418789370002E-17));
#272=DIRECTION('ref_axis',(1.10226462269548E-16,0.,-1.));
#273=DIRECTION('',(-1.10226462269548E-16,0.,1.));
#274=DIRECTION('',(0.707106781186549,-0.707106781186546,0.));
#275=DIRECTION('',(1.10226462269548E-16,1.74315279842105E-32,-1.));
#276=DIRECTION('center_axis',(0.,-1.,0.));
#277=DIRECTION('ref_axis',(0.987210930472886,0.,-0.159419505565845));
#278=DIRECTION('',(0.698063543398858,0.707106781186548,0.112726613439019));
#279=DIRECTION('center_axis',(0.,-1.,0.));
#280=DIRECTION('ref_axis',(0.987210930472886,0.,-0.159419505565845));
#281=DIRECTION('center_axis',(0.,1.,0.));
#282=DIRECTION('ref_axis',(0.987210930472886,0.,-0.159419505565845));
#283=DIRECTION('center_axis',(-0.698063543398857,0.707106781186548,-0.112726613439021));
#284=DIRECTION('ref_axis',(-0.159419505565852,0.,0.987210930472885));
#285=DIRECTION('',(0.159419505565852,0.,-0.987210930472885));
#286=DIRECTION('',(-0.159419505565852,0.,0.987210930472885));
#287=DIRECTION('center_axis',(0.,1.,0.));
#288=DIRECTION('ref_axis',(0.987210930472886,0.,-0.159419505565845));
#289=DIRECTION('',(0.,1.,0.));
#290=DIRECTION('center_axis',(0.,-1.,0.));
#291=DIRECTION('ref_axis',(0.987210930472886,0.,-0.159419505565845));
#292=DIRECTION('',(0.,1.,0.));
#293=DIRECTION('center_axis',(0.987210930472888,0.,-0.159419505565831));
#294=DIRECTION('ref_axis',(-0.159419505565831,0.,-0.987210930472888));
#295=DIRECTION('',(0.,-1.,0.));
#296=DIRECTION('',(0.159419505565831,0.,0.987210930472888));
#297=DIRECTION('center_axis',(1.,0.,1.10226462269548E-16));
#298=DIRECTION('ref_axis',(1.10226462269548E-16,0.,-1.));
#299=DIRECTION('',(0.,-1.,0.));
#300=DIRECTION('',(-1.10226462269548E-16,0.,1.));
#301=DIRECTION('center_axis',(0.,0.,1.));
#302=DIRECTION('ref_axis',(1.,0.,0.));
#303=DIRECTION('',(0.,1.,0.));
#304=DIRECTION('',(-1.,0.,0.));
#305=DIRECTION('',(1.,0.,0.));
#306=DIRECTION('center_axis',(-1.,0.,0.));
#307=DIRECTION('ref_axis',(0.,0.,1.));
#308=DIRECTION('',(0.,1.,0.));
#309=DIRECTION('',(0.,0.,-1.));
#310=DIRECTION('center_axis',(-0.987210930472885,0.,-0.159419505565852));
#311=DIRECTION('ref_axis',(-0.159419505565852,0.,0.987210930472885));
#312=DIRECTION('',(0.159419505565852,0.,-0.987210930472885));
#313=DIRECTION('center_axis',(0.,1.,0.));
#314=DIRECTION('ref_axis',(-1.,0.,0.));
#315=DIRECTION('center_axis',(0.,1.,0.));
#316=DIRECTION('ref_axis',(-1.,0.,0.));
#317=CARTESIAN_POINT('',(0.,0.,0.));
#318=CARTESIAN_POINT('Origin',(-17.6585779842545,69.858577835886,41.9777995341062));
#319=CARTESIAN_POINT('',(-18.5999993404918,68.9171564796487,47.8716436161889));
#320=CARTESIAN_POINT('',(-18.5999993404918,68.9171564796487,68.));
#321=CARTESIAN_POINT('',(-18.5999993404918,68.9171564796487,44.9166993011594));
#322=CARTESIAN_POINT('',(-16.5171566280172,70.9999991921233,68.));
#323=CARTESIAN_POINT('',(-18.2835779842545,69.233577835886,68.));
#324=CARTESIAN_POINT('',(-16.5171566280172,70.9999991921233,48.0387349653267));
#325=CARTESIAN_POINT('',(-16.5171566280172,70.9999991921233,39.0388997670531));
#326=CARTESIAN_POINT('',(-17.3092157258868,70.2079400942537,47.9751938143472));
#327=CARTESIAN_POINT('Origin',(16.5092265911195,69.858577835886,40.8297678362241));
#328=CARTESIAN_POINT('',(18.5999993405122,68.9171564796487,47.8716436161889));
#329=CARTESIAN_POINT('',(13.426068654442,68.9171564796487,15.8318947243045));
#330=CARTESIAN_POINT('',(18.0205825992976,68.9171564796487,44.2835849392047));
#331=CARTESIAN_POINT('',(11.3698635622312,70.9999991921233,16.1639404796986));
#332=CARTESIAN_POINT('',(13.4838981318568,68.858577835886,15.8225561458791));
#333=CARTESIAN_POINT('',(16.5171566280376,70.9999991921233,48.0387349653267));
#334=CARTESIAN_POINT('',(14.8004283968468,70.9999991921233,37.4078346343568));
#335=CARTESIAN_POINT('',(17.4324270444063,70.0847287757545,47.9653094647928));
#336=CARTESIAN_POINT('Origin',(17.6585779842749,69.858577835886,52.0499999999999));
#337=CARTESIAN_POINT('',(16.5171566280376,70.9999991921233,68.));
#338=CARTESIAN_POINT('',(16.5171566280376,70.9999991921233,44.0749999999999));
#339=CARTESIAN_POINT('',(18.5999993405122,68.9171564796487,68.));
#340=CARTESIAN_POINT('',(8.88357831402383,78.633577506137,68.));
#341=CARTESIAN_POINT('',(18.5999993405122,68.9171564796487,60.025));
#342=CARTESIAN_POINT('Origin',(1.05221387158849E-11,69.858577835886,18.));
#343=CARTESIAN_POINT('',(-13.4260686544209,68.9171564796487,15.8318947243044));
#344=CARTESIAN_POINT('',(-11.3698635622102,70.9999991921233,16.1639404796985));
#345=CARTESIAN_POINT('',(-13.4838981318357,68.858577835886,15.822556145879));
#346=CARTESIAN_POINT('Origin',(1.05221387158849E-11,70.9999991921233,18.));
#347=CARTESIAN_POINT('Origin',(1.05221387158849E-11,68.9171564796487,18.));
#348=CARTESIAN_POINT('Origin',(-13.9209823411108,69.858577835886,24.8019737137134));
#349=CARTESIAN_POINT('',(-13.5063062718322,70.9999991921233,29.3939375731013));
#350=CARTESIAN_POINT('',(-14.1382162242949,68.9171564796487,20.2418937554386));
#351=CARTESIAN_POINT('Origin',(1.05221387158849E-11,68.4999991921233,18.));
#352=CARTESIAN_POINT('',(13.426068654442,68.4999991921233,15.8318947243045));
#353=CARTESIAN_POINT('',(13.426068654442,68.4999991921233,15.8318947243045));
#354=CARTESIAN_POINT('',(-13.4260686544209,68.4999991921233,15.8318947243044));
#355=CARTESIAN_POINT('Origin',(1.05221387158849E-11,68.4999991921233,18.));
#356=CARTESIAN_POINT('',(-13.4260686544209,68.4999991921233,15.8318947243044));
#357=CARTESIAN_POINT('Origin',(18.6025571544176,68.4999991921233,47.8874829693257));
#358=CARTESIAN_POINT('',(18.5999993405122,68.4999991921233,47.8716436161889));
#359=CARTESIAN_POINT('',(18.5999993405122,68.4999991921233,47.8716436161889));
#360=CARTESIAN_POINT('',(17.4386080441776,68.4999991921233,40.6796869090837));
#361=CARTESIAN_POINT('Origin',(18.5999993405122,68.4999991921233,68.));
#362=CARTESIAN_POINT('',(18.5999993405122,68.4999991921233,68.));
#363=CARTESIAN_POINT('',(18.5999993405122,68.4999991921233,68.));
#364=CARTESIAN_POINT('',(18.5999993405122,68.4999991921233,52.0499999999999));
#365=CARTESIAN_POINT('Origin',(-18.7999993404918,68.4999991921233,68.));
#366=CARTESIAN_POINT('',(-18.5999993404918,68.4999991921233,68.));
#367=CARTESIAN_POINT('',(-18.5999993404918,68.4999991921233,68.));
#368=CARTESIAN_POINT('',(18.7999993405122,68.4999991921233,68.));
#369=CARTESIAN_POINT('',(18.7999993405122,70.9999991921233,68.));
#370=CARTESIAN_POINT('Origin',(-18.5999993404918,68.4999991921233,47.8555990682125));
#371=CARTESIAN_POINT('',(-18.5999993404918,68.4999991921233,47.8716436161889));
#372=CARTESIAN_POINT('',(-18.5999993404918,68.4999991921233,47.8716436161889));
#373=CARTESIAN_POINT('',(-18.5999993404918,68.4999991921233,41.9777995341062));
#374=CARTESIAN_POINT('Origin',(-13.4260686544209,68.4999991921233,15.8318947243044));
#375=CARTESIAN_POINT('',(-14.8503637941689,68.4999991921233,24.6518927865729));
#376=CARTESIAN_POINT('Origin',(1.01763042437142E-11,70.9999991921233,36.0999999999999));
#377=CARTESIAN_POINT('Origin',(1.01763042437142E-11,68.4999991921233,36.0999999999999));
#378=UNCERTAINTY_MEASURE_WITH_UNIT(LENGTH_MEASURE(0.01),#382,
'DISTANCE_ACCURACY_VALUE',
'Maximum model space distance between geometric entities at asserted c
onnectivities');
#379=UNCERTAINTY_MEASURE_WITH_UNIT(LENGTH_MEASURE(0.01),#382,
'DISTANCE_ACCURACY_VALUE',
'Maximum model space distance between geometric entities at asserted c
onnectivities');
#380=(
GEOMETRIC_REPRESENTATION_CONTEXT(3)
GLOBAL_UNCERTAINTY_ASSIGNED_CONTEXT((#378))
GLOBAL_UNIT_ASSIGNED_CONTEXT((#382,#384,#385))
REPRESENTATION_CONTEXT('','3D')
);
#381=(
GEOMETRIC_REPRESENTATION_CONTEXT(3)
GLOBAL_UNCERTAINTY_ASSIGNED_CONTEXT((#379))
GLOBAL_UNIT_ASSIGNED_CONTEXT((#382,#384,#385))
REPRESENTATION_CONTEXT('','3D')
);
#382=(
LENGTH_UNIT()
NAMED_UNIT(*)
SI_UNIT(.MILLI.,.METRE.)
);
#383=(
LENGTH_UNIT()
NAMED_UNIT(*)
SI_UNIT($,.METRE.)
);
#384=(
NAMED_UNIT(*)
PLANE_ANGLE_UNIT()
SI_UNIT($,.RADIAN.)
);
#385=(
NAMED_UNIT(*)
SI_UNIT($,.STERADIAN.)
SOLID_ANGLE_UNIT()
);
#386=SHAPE_DEFINITION_REPRESENTATION(#387,#388);
#387=PRODUCT_DEFINITION_SHAPE('',$,#390);
#388=SHAPE_REPRESENTATION('',(#240),#380);
#389=PRODUCT_DEFINITION_CONTEXT('part definition',#394,'design');
#390=PRODUCT_DEFINITION('REAR VOLUME REDUCER DOOR',
'REAR VOLUME REDUCER DOOR',#391,#389);
#391=PRODUCT_DEFINITION_FORMATION('',$,#396);
#392=PRODUCT_RELATED_PRODUCT_CATEGORY('REAR VOLUME REDUCER DOOR',
'REAR VOLUME REDUCER DOOR',(#396));
#393=APPLICATION_PROTOCOL_DEFINITION('international standard',
'automotive_design',2009,#394);
#394=APPLICATION_CONTEXT(
'Core Data for Automotive Mechanical Design Process');
#395=PRODUCT_CONTEXT('part definition',#394,'mechanical');
#396=PRODUCT('REAR VOLUME REDUCER DOOR','REAR VOLUME REDUCER DOOR',$,(#395));
#397=PRESENTATION_STYLE_ASSIGNMENT((#398));
#398=SURFACE_STYLE_USAGE(.BOTH.,#399);
#399=SURFACE_SIDE_STYLE('',(#400));
#400=SURFACE_STYLE_FILL_AREA(#401);
#401=FILL_AREA_STYLE('Steel - Satin',(#402));
#402=FILL_AREA_STYLE_COLOUR('Steel - Satin',#403);
#403=COLOUR_RGB('Steel - Satin',0.627450980392157,0.627450980392157,0.627450980392157);
ENDSEC;
END-ISO-10303-21;
