ISO-10303-21;
HEADER;
/* Generated by software containing ST-Developer
 * from STEP Tools, Inc. (www.steptools.com) 
 */

FILE_DESCRIPTION(
/* description */ (''),
/* implementation_level */ '2;1');

FILE_NAME(
/* name */ 'REAR VOLUME REDUCER FRONT.step',
/* time_stamp */ '2026-03-23T18:15:16-05:00',
/* author */ (''),
/* organization */ (''),
/* preprocessor_version */ 'ST-DEVELOPER v20.1',
/* originating_system */ 'Autodesk Translation Framework v14.24.0.0',
/* authorisation */ '');

FILE_SCHEMA (('AUTOMOTIVE_DESIGN { 1 0 10303 214 3 1 1 }'));
ENDSEC;

DATA;
#10=MECHANICAL_DESIGN_GEOMETRIC_PRESENTATION_REPRESENTATION('',(#13),#1579);
#11=SHAPE_REPRESENTATION_RELATIONSHIP('SRR','None',#1586,#12);
#12=ADVANCED_BREP_SHAPE_REPRESENTATION('',(#14),#1578);
#13=STYLED_ITEM('',(#1595),#14);
#14=MANIFOLD_SOLID_BREP('Rear volume reducer front ',#883);
#15=FACE_BOUND('',#131,.T.);
#16=FACE_BOUND('',#133,.T.);
#17=FACE_BOUND('',#148,.T.);
#18=FACE_BOUND('',#152,.T.);
#19=FACE_BOUND('',#155,.T.);
#20=CONICAL_SURFACE('',#920,8.75000000000022,0.78539816339745);
#21=CONICAL_SURFACE('',#924,5.24999999998023,0.785398163397451);
#22=CONICAL_SURFACE('',#928,13.7499999999997,0.785398163397445);
#23=CONICAL_SURFACE('',#932,5.25000000000622,0.785398163397449);
#24=CONICAL_SURFACE('',#936,8.7499999999962,0.785398163397451);
#25=(
BOUNDED_CURVE()
B_SPLINE_CURVE(2,(#1383,#1384,#1385),.UNSPECIFIED.,.F.,.F.)
B_SPLINE_CURVE_WITH_KNOTS((3,3),(1.83219422254215,2.32003900389961),
 .UNSPECIFIED.)
CURVE()
GEOMETRIC_REPRESENTATION_ITEM()
RATIONAL_B_SPLINE_CURVE((1.10538295478453,1.06672124669924,1.))
REPRESENTATION_ITEM('')
);
#26=(
BOUNDED_CURVE()
B_SPLINE_CURVE(2,(#1387,#1388,#1389),.UNSPECIFIED.,.F.,.F.)
B_SPLINE_CURVE_WITH_KNOTS((3,3),(2.3200390039002,2.80788378525975),
 .UNSPECIFIED.)
CURVE()
GEOMETRIC_REPRESENTATION_ITEM()
RATIONAL_B_SPLINE_CURVE((1.,1.06672124669952,1.10538295478486))
REPRESENTATION_ITEM('')
);
#27=PLANE('',#899);
#28=PLANE('',#901);
#29=PLANE('',#905);
#30=PLANE('',#911);
#31=PLANE('',#915);
#32=PLANE('',#916);
#33=PLANE('',#923);
#34=PLANE('',#927);
#35=PLANE('',#931);
#36=PLANE('',#935);
#37=PLANE('',#938);
#38=PLANE('',#941);
#39=PLANE('',#944);
#40=PLANE('',#947);
#41=PLANE('',#950);
#42=PLANE('',#956);
#43=PLANE('',#957);
#44=PLANE('',#960);
#45=PLANE('',#963);
#46=PLANE('',#966);
#47=PLANE('',#969);
#48=PLANE('',#972);
#49=PLANE('',#973);
#50=PLANE('',#974);
#51=PLANE('',#975);
#52=PLANE('',#976);
#53=PLANE('',#980);
#54=PLANE('',#981);
#55=FACE_OUTER_BOUND('',#103,.T.);
#56=FACE_OUTER_BOUND('',#104,.T.);
#57=FACE_OUTER_BOUND('',#105,.T.);
#58=FACE_OUTER_BOUND('',#106,.T.);
#59=FACE_OUTER_BOUND('',#107,.T.);
#60=FACE_OUTER_BOUND('',#108,.T.);
#61=FACE_OUTER_BOUND('',#109,.T.);
#62=FACE_OUTER_BOUND('',#110,.T.);
#63=FACE_OUTER_BOUND('',#111,.T.);
#64=FACE_OUTER_BOUND('',#112,.T.);
#65=FACE_OUTER_BOUND('',#113,.T.);
#66=FACE_OUTER_BOUND('',#114,.T.);
#67=FACE_OUTER_BOUND('',#115,.T.);
#68=FACE_OUTER_BOUND('',#116,.T.);
#69=FACE_OUTER_BOUND('',#117,.T.);
#70=FACE_OUTER_BOUND('',#118,.T.);
#71=FACE_OUTER_BOUND('',#119,.T.);
#72=FACE_OUTER_BOUND('',#120,.T.);
#73=FACE_OUTER_BOUND('',#121,.T.);
#74=FACE_OUTER_BOUND('',#122,.T.);
#75=FACE_OUTER_BOUND('',#123,.T.);
#76=FACE_OUTER_BOUND('',#124,.T.);
#77=FACE_OUTER_BOUND('',#125,.T.);
#78=FACE_OUTER_BOUND('',#126,.T.);
#79=FACE_OUTER_BOUND('',#127,.T.);
#80=FACE_OUTER_BOUND('',#128,.T.);
#81=FACE_OUTER_BOUND('',#129,.T.);
#82=FACE_OUTER_BOUND('',#130,.T.);
#83=FACE_OUTER_BOUND('',#132,.T.);
#84=FACE_OUTER_BOUND('',#134,.T.);
#85=FACE_OUTER_BOUND('',#135,.T.);
#86=FACE_OUTER_BOUND('',#136,.T.);
#87=FACE_OUTER_BOUND('',#137,.T.);
#88=FACE_OUTER_BOUND('',#138,.T.);
#89=FACE_OUTER_BOUND('',#139,.T.);
#90=FACE_OUTER_BOUND('',#140,.T.);
#91=FACE_OUTER_BOUND('',#141,.T.);
#92=FACE_OUTER_BOUND('',#142,.T.);
#93=FACE_OUTER_BOUND('',#143,.T.);
#94=FACE_OUTER_BOUND('',#144,.T.);
#95=FACE_OUTER_BOUND('',#145,.T.);
#96=FACE_OUTER_BOUND('',#146,.T.);
#97=FACE_OUTER_BOUND('',#147,.T.);
#98=FACE_OUTER_BOUND('',#149,.T.);
#99=FACE_OUTER_BOUND('',#150,.T.);
#100=FACE_OUTER_BOUND('',#151,.T.);
#101=FACE_OUTER_BOUND('',#153,.T.);
#102=FACE_OUTER_BOUND('',#154,.T.);
#103=EDGE_LOOP('',(#568,#569,#570,#571,#572));
#104=EDGE_LOOP('',(#573,#574,#575,#576));
#105=EDGE_LOOP('',(#577,#578,#579,#580,#581,#582));
#106=EDGE_LOOP('',(#583,#584,#585,#586));
#107=EDGE_LOOP('',(#587,#588,#589,#590,#591));
#108=EDGE_LOOP('',(#592,#593,#594,#595));
#109=EDGE_LOOP('',(#596,#597,#598,#599));
#110=EDGE_LOOP('',(#600,#601,#602,#603));
#111=EDGE_LOOP('',(#604,#605,#606,#607));
#112=EDGE_LOOP('',(#608,#609,#610,#611,#612,#613,#614));
#113=EDGE_LOOP('',(#615,#616,#617,#618,#619,#620,#621));
#114=EDGE_LOOP('',(#622,#623,#624,#625));
#115=EDGE_LOOP('',(#626,#627,#628,#629));
#116=EDGE_LOOP('',(#630,#631,#632,#633));
#117=EDGE_LOOP('',(#634,#635,#636,#637));
#118=EDGE_LOOP('',(#638,#639,#640,#641));
#119=EDGE_LOOP('',(#642,#643,#644,#645));
#120=EDGE_LOOP('',(#646,#647,#648,#649));
#121=EDGE_LOOP('',(#650,#651,#652,#653));
#122=EDGE_LOOP('',(#654,#655,#656,#657));
#123=EDGE_LOOP('',(#658,#659,#660,#661));
#124=EDGE_LOOP('',(#662,#663,#664,#665));
#125=EDGE_LOOP('',(#666,#667,#668,#669));
#126=EDGE_LOOP('',(#670,#671,#672,#673,#674,#675,#676));
#127=EDGE_LOOP('',(#677,#678,#679,#680));
#128=EDGE_LOOP('',(#681,#682,#683,#684));
#129=EDGE_LOOP('',(#685,#686,#687,#688));
#130=EDGE_LOOP('',(#689,#690,#691,#692));
#131=EDGE_LOOP('',(#693,#694,#695,#696));
#132=EDGE_LOOP('',(#697,#698,#699,#700,#701,#702,#703,#704,#705));
#133=EDGE_LOOP('',(#706,#707,#708,#709,#710,#711,#712,#713,#714,#715));
#134=EDGE_LOOP('',(#716,#717,#718,#719,#720,#721,#722,#723,#724,#725));
#135=EDGE_LOOP('',(#726,#727,#728,#729));
#136=EDGE_LOOP('',(#730,#731,#732,#733));
#137=EDGE_LOOP('',(#734,#735,#736,#737));
#138=EDGE_LOOP('',(#738,#739,#740,#741));
#139=EDGE_LOOP('',(#742,#743,#744,#745));
#140=EDGE_LOOP('',(#746,#747,#748,#749));
#141=EDGE_LOOP('',(#750,#751,#752,#753));
#142=EDGE_LOOP('',(#754,#755,#756,#757));
#143=EDGE_LOOP('',(#758,#759,#760,#761));
#144=EDGE_LOOP('',(#762,#763,#764,#765));
#145=EDGE_LOOP('',(#766,#767,#768,#769));
#146=EDGE_LOOP('',(#770,#771,#772,#773));
#147=EDGE_LOOP('',(#774,#775,#776,#777));
#148=EDGE_LOOP('',(#778,#779,#780,#781));
#149=EDGE_LOOP('',(#782,#783,#784,#785));
#150=EDGE_LOOP('',(#786,#787,#788,#789));
#151=EDGE_LOOP('',(#790,#791,#792,#793));
#152=EDGE_LOOP('',(#794,#795,#796,#797));
#153=EDGE_LOOP('',(#798,#799,#800,#801,#802,#803));
#154=EDGE_LOOP('',(#804,#805,#806,#807,#808,#809));
#155=EDGE_LOOP('',(#810,#811,#812,#813,#814,#815,#816,#817,#818,#819));
#156=CIRCLE('',#898,5.99999999999999);
#157=CIRCLE('',#900,12.);
#158=CIRCLE('',#902,12.);
#159=CIRCLE('',#903,9.00000000000022);
#160=CIRCLE('',#904,8.9999999999962);
#161=CIRCLE('',#906,13.9999999999997);
#162=CIRCLE('',#908,5.99999999999999);
#163=CIRCLE('',#910,5.99999999999999);
#164=CIRCLE('',#912,13.9999999999997);
#165=CIRCLE('',#914,5.99999999999999);
#166=CIRCLE('',#918,8.9999999999962);
#167=CIRCLE('',#919,8.9999999999962);
#168=CIRCLE('',#921,8.50000000000023);
#169=CIRCLE('',#922,9.00000000000022);
#170=CIRCLE('',#925,5.49999999998023);
#171=CIRCLE('',#926,4.99999999998023);
#172=CIRCLE('',#929,13.9999999999997);
#173=CIRCLE('',#930,13.4999999999997);
#174=CIRCLE('',#933,5.50000000000622);
#175=CIRCLE('',#934,5.00000000000622);
#176=CIRCLE('',#937,8.4999999999962);
#177=CIRCLE('',#940,5.00000000000622);
#178=CIRCLE('',#943,9.00000000000022);
#179=CIRCLE('',#946,4.99999999998023);
#180=CIRCLE('',#949,13.9999999999997);
#181=CIRCLE('',#951,5.99999999999958);
#182=CIRCLE('',#952,12.9999999999997);
#183=CIRCLE('',#953,6.00000000000622);
#184=CIRCLE('',#954,7.9999999999962);
#185=CIRCLE('',#955,8.00000000000022);
#186=CIRCLE('',#959,5.99999999999958);
#187=CIRCLE('',#962,12.9999999999997);
#188=CIRCLE('',#965,6.00000000000622);
#189=CIRCLE('',#968,7.9999999999962);
#190=CIRCLE('',#971,8.00000000000022);
#191=CIRCLE('',#978,12.);
#192=CIRCLE('',#979,12.);
#193=LINE('',#1254,#274);
#194=LINE('',#1272,#275);
#195=LINE('',#1277,#276);
#196=LINE('',#1278,#277);
#197=LINE('',#1285,#278);
#198=LINE('',#1288,#279);
#199=LINE('',#1294,#280);
#200=LINE('',#1296,#281);
#201=LINE('',#1297,#282);
#202=LINE('',#1350,#283);
#203=LINE('',#1355,#284);
#204=LINE('',#1356,#285);
#205=LINE('',#1375,#286);
#206=LINE('',#1377,#287);
#207=LINE('',#1378,#288);
#208=LINE('',#1381,#289);
#209=LINE('',#1390,#290);
#210=LINE('',#1395,#291);
#211=LINE('',#1401,#292);
#212=LINE('',#1405,#293);
#213=LINE('',#1407,#294);
#214=LINE('',#1408,#295);
#215=LINE('',#1413,#296);
#216=LINE('',#1417,#297);
#217=LINE('',#1419,#298);
#218=LINE('',#1420,#299);
#219=LINE('',#1424,#300);
#220=LINE('',#1429,#301);
#221=LINE('',#1431,#302);
#222=LINE('',#1432,#303);
#223=LINE('',#1437,#304);
#224=LINE('',#1441,#305);
#225=LINE('',#1442,#306);
#226=LINE('',#1443,#307);
#227=LINE('',#1448,#308);
#228=LINE('',#1450,#309);
#229=LINE('',#1451,#310);
#230=LINE('',#1454,#311);
#231=LINE('',#1457,#312);
#232=LINE('',#1460,#313);
#233=LINE('',#1464,#314);
#234=LINE('',#1465,#315);
#235=LINE('',#1468,#316);
#236=LINE('',#1472,#317);
#237=LINE('',#1473,#318);
#238=LINE('',#1479,#319);
#239=LINE('',#1483,#320);
#240=LINE('',#1487,#321);
#241=LINE('',#1491,#322);
#242=LINE('',#1495,#323);
#243=LINE('',#1501,#324);
#244=LINE('',#1502,#325);
#245=LINE('',#1503,#326);
#246=LINE('',#1507,#327);
#247=LINE('',#1510,#328);
#248=LINE('',#1511,#329);
#249=LINE('',#1515,#330);
#250=LINE('',#1518,#331);
#251=LINE('',#1519,#332);
#252=LINE('',#1523,#333);
#253=LINE('',#1526,#334);
#254=LINE('',#1527,#335);
#255=LINE('',#1531,#336);
#256=LINE('',#1534,#337);
#257=LINE('',#1535,#338);
#258=LINE('',#1541,#339);
#259=LINE('',#1543,#340);
#260=LINE('',#1545,#341);
#261=LINE('',#1546,#342);
#262=LINE('',#1549,#343);
#263=LINE('',#1551,#344);
#264=LINE('',#1552,#345);
#265=LINE('',#1555,#346);
#266=LINE('',#1557,#347);
#267=LINE('',#1558,#348);
#268=LINE('',#1561,#349);
#269=LINE('',#1563,#350);
#270=LINE('',#1564,#351);
#271=LINE('',#1567,#352);
#272=LINE('',#1569,#353);
#273=LINE('',#1570,#354);
#274=VECTOR('',#986,10.);
#275=VECTOR('',#989,10.);
#276=VECTOR('',#994,10.);
#277=VECTOR('',#995,10.);
#278=VECTOR('',#1002,10.);
#279=VECTOR('',#1005,10.);
#280=VECTOR('',#1010,10.);
#281=VECTOR('',#1011,10.);
#282=VECTOR('',#1012,10.);
#283=VECTOR('',#1021,10.);
#284=VECTOR('',#1026,10.);
#285=VECTOR('',#1027,10.);
#286=VECTOR('',#1034,10.);
#287=VECTOR('',#1035,10.);
#288=VECTOR('',#1036,10.);
#289=VECTOR('',#1039,10.);
#290=VECTOR('',#1040,10.);
#291=VECTOR('',#1045,10.);
#292=VECTOR('',#1052,10.);
#293=VECTOR('',#1057,10.);
#294=VECTOR('',#1058,10.);
#295=VECTOR('',#1059,10.);
#296=VECTOR('',#1064,10.);
#297=VECTOR('',#1069,10.);
#298=VECTOR('',#1070,10.);
#299=VECTOR('',#1071,10.);
#300=VECTOR('',#1074,10.);
#301=VECTOR('',#1081,10.);
#302=VECTOR('',#1082,10.);
#303=VECTOR('',#1083,10.);
#304=VECTOR('',#1088,10.);
#305=VECTOR('',#1093,10.);
#306=VECTOR('',#1094,10.);
#307=VECTOR('',#1095,10.);
#308=VECTOR('',#1102,10.);
#309=VECTOR('',#1103,10.);
#310=VECTOR('',#1104,10.);
#311=VECTOR('',#1107,10.);
#312=VECTOR('',#1112,10.);
#313=VECTOR('',#1115,10.);
#314=VECTOR('',#1120,10.);
#315=VECTOR('',#1121,10.);
#316=VECTOR('',#1124,10.);
#317=VECTOR('',#1129,10.);
#318=VECTOR('',#1130,10.);
#319=VECTOR('',#1137,10.);
#320=VECTOR('',#1140,10.);
#321=VECTOR('',#1143,10.);
#322=VECTOR('',#1146,10.);
#323=VECTOR('',#1149,10.);
#324=VECTOR('',#1156,10.);
#325=VECTOR('',#1157,10.);
#326=VECTOR('',#1158,10.);
#327=VECTOR('',#1163,10.);
#328=VECTOR('',#1166,10.);
#329=VECTOR('',#1167,10.);
#330=VECTOR('',#1172,10.);
#331=VECTOR('',#1175,10.);
#332=VECTOR('',#1176,10.);
#333=VECTOR('',#1181,10.);
#334=VECTOR('',#1184,10.);
#335=VECTOR('',#1185,10.);
#336=VECTOR('',#1190,10.);
#337=VECTOR('',#1193,10.);
#338=VECTOR('',#1194,10.);
#339=VECTOR('',#1201,10.);
#340=VECTOR('',#1202,10.);
#341=VECTOR('',#1203,10.);
#342=VECTOR('',#1204,10.);
#343=VECTOR('',#1207,10.);
#344=VECTOR('',#1208,10.);
#345=VECTOR('',#1209,10.);
#346=VECTOR('',#1212,10.);
#347=VECTOR('',#1213,10.);
#348=VECTOR('',#1214,10.);
#349=VECTOR('',#1217,10.);
#350=VECTOR('',#1218,10.);
#351=VECTOR('',#1219,10.);
#352=VECTOR('',#1222,10.);
#353=VECTOR('',#1223,10.);
#354=VECTOR('',#1224,10.);
#355=B_SPLINE_CURVE_WITH_KNOTS('',3,(#1239,#1240,#1241,#1242,#1243,#1244,
#1245,#1246,#1247,#1248,#1249,#1250,#1251,#1252),.UNSPECIFIED.,.F.,.F.,
(4,2,2,2,2,2,4),(1.21603195879741,1.38317641268187,1.61412553138999,1.84507465009811,
2.07602376635701,2.30697288261591,2.34544783711308),.UNSPECIFIED.);
#356=B_SPLINE_CURVE_WITH_KNOTS('',3,(#1258,#1259,#1260,#1261,#1262,#1263,
#1264,#1265,#1266,#1267,#1268,#1269,#1270,#1271),.UNSPECIFIED.,.F.,.F.,
(4,2,2,2,2,2,4),(1.37020419750785,1.40988165662938,1.64659805656895,1.88331445650852,
2.12003086121772,2.35674726592692,2.52229016746092),.UNSPECIFIED.);
#357=B_SPLINE_CURVE_WITH_KNOTS('',3,(#1299,#1300,#1301,#1302,#1303,#1304,
#1305,#1306,#1307,#1308,#1309,#1310,#1311,#1312,#1313),.UNSPECIFIED.,.F.,
 .F.,(4,2,2,3,2,2,4),(-0.500373206290156,-0.461898244699297,-0.230949122349648,
0.,0.230949122349648,0.461898244699296,0.629042718207462),.UNSPECIFIED.);
#358=B_SPLINE_CURVE_WITH_KNOTS('',3,(#1315,#1316,#1317,#1318,#1319,#1320,
#1321,#1322,#1323,#1324,#1325,#1326,#1327,#1328,#1329),.UNSPECIFIED.,.F.,
 .F.,(4,2,2,3,2,2,4),(-0.638976187303404,-0.473432835300758,-0.236716417650379,
0.,0.236716417650379,0.473432835300759,0.513110308912521),.UNSPECIFIED.);
#359=B_SPLINE_CURVE_WITH_KNOTS('',3,(#1333,#1334,#1335,#1336,#1337,#1338,
#1339,#1340,#1341,#1342,#1343,#1344,#1345,#1346,#1347),.UNSPECIFIED.,.F.,
 .F.,(4,2,2,3,2,2,4),(-0.496981279475996,-0.458868449987023,-0.229434224993512,
0.,0.229434224993512,0.458868449987023,0.624640038294846),.UNSPECIFIED.);
#360=B_SPLINE_CURVE_WITH_KNOTS('',3,(#1358,#1359,#1360,#1361,#1362,#1363,
#1364,#1365,#1366,#1367,#1368,#1369,#1370,#1371),.UNSPECIFIED.,.F.,.F.,
(4,2,2,2,2,2,4),(1.20957904262888,1.37535061702254,1.60478483991934,1.83421906281615,
2.06365328396085,2.29308750510554,2.33120032957635),.UNSPECIFIED.);
#361=VERTEX_POINT('',#1237);
#362=VERTEX_POINT('',#1238);
#363=VERTEX_POINT('',#1253);
#364=VERTEX_POINT('',#1255);
#365=VERTEX_POINT('',#1257);
#366=VERTEX_POINT('',#1274);
#367=VERTEX_POINT('',#1276);
#368=VERTEX_POINT('',#1280);
#369=VERTEX_POINT('',#1282);
#370=VERTEX_POINT('',#1284);
#371=VERTEX_POINT('',#1286);
#372=VERTEX_POINT('',#1290);
#373=VERTEX_POINT('',#1291);
#374=VERTEX_POINT('',#1293);
#375=VERTEX_POINT('',#1295);
#376=VERTEX_POINT('',#1314);
#377=VERTEX_POINT('',#1332);
#378=VERTEX_POINT('',#1348);
#379=VERTEX_POINT('',#1352);
#380=VERTEX_POINT('',#1354);
#381=VERTEX_POINT('',#1374);
#382=VERTEX_POINT('',#1376);
#383=VERTEX_POINT('',#1380);
#384=VERTEX_POINT('',#1382);
#385=VERTEX_POINT('',#1386);
#386=VERTEX_POINT('',#1392);
#387=VERTEX_POINT('',#1394);
#388=VERTEX_POINT('',#1398);
#389=VERTEX_POINT('',#1400);
#390=VERTEX_POINT('',#1404);
#391=VERTEX_POINT('',#1406);
#392=VERTEX_POINT('',#1410);
#393=VERTEX_POINT('',#1412);
#394=VERTEX_POINT('',#1416);
#395=VERTEX_POINT('',#1418);
#396=VERTEX_POINT('',#1422);
#397=VERTEX_POINT('',#1423);
#398=VERTEX_POINT('',#1428);
#399=VERTEX_POINT('',#1430);
#400=VERTEX_POINT('',#1434);
#401=VERTEX_POINT('',#1436);
#402=VERTEX_POINT('',#1440);
#403=VERTEX_POINT('',#1447);
#404=VERTEX_POINT('',#1449);
#405=VERTEX_POINT('',#1453);
#406=VERTEX_POINT('',#1459);
#407=VERTEX_POINT('',#1463);
#408=VERTEX_POINT('',#1467);
#409=VERTEX_POINT('',#1471);
#410=VERTEX_POINT('',#1477);
#411=VERTEX_POINT('',#1478);
#412=VERTEX_POINT('',#1480);
#413=VERTEX_POINT('',#1482);
#414=VERTEX_POINT('',#1484);
#415=VERTEX_POINT('',#1486);
#416=VERTEX_POINT('',#1488);
#417=VERTEX_POINT('',#1490);
#418=VERTEX_POINT('',#1492);
#419=VERTEX_POINT('',#1494);
#420=VERTEX_POINT('',#1499);
#421=VERTEX_POINT('',#1500);
#422=VERTEX_POINT('',#1505);
#423=VERTEX_POINT('',#1509);
#424=VERTEX_POINT('',#1513);
#425=VERTEX_POINT('',#1517);
#426=VERTEX_POINT('',#1521);
#427=VERTEX_POINT('',#1525);
#428=VERTEX_POINT('',#1529);
#429=VERTEX_POINT('',#1533);
#430=VERTEX_POINT('',#1539);
#431=VERTEX_POINT('',#1540);
#432=VERTEX_POINT('',#1542);
#433=VERTEX_POINT('',#1544);
#434=VERTEX_POINT('',#1548);
#435=VERTEX_POINT('',#1550);
#436=VERTEX_POINT('',#1554);
#437=VERTEX_POINT('',#1556);
#438=VERTEX_POINT('',#1560);
#439=VERTEX_POINT('',#1562);
#440=VERTEX_POINT('',#1566);
#441=VERTEX_POINT('',#1568);
#442=EDGE_CURVE('',#361,#362,#355,.T.);
#443=EDGE_CURVE('',#363,#361,#193,.T.);
#444=EDGE_CURVE('',#364,#363,#156,.T.);
#445=EDGE_CURVE('',#365,#364,#356,.T.);
#446=EDGE_CURVE('',#365,#362,#194,.T.);
#447=EDGE_CURVE('',#366,#361,#157,.T.);
#448=EDGE_CURVE('',#367,#366,#195,.T.);
#449=EDGE_CURVE('',#363,#367,#196,.T.);
#450=EDGE_CURVE('',#362,#368,#158,.T.);
#451=EDGE_CURVE('',#369,#365,#159,.T.);
#452=EDGE_CURVE('',#370,#369,#197,.T.);
#453=EDGE_CURVE('',#371,#370,#160,.T.);
#454=EDGE_CURVE('',#371,#368,#198,.T.);
#455=EDGE_CURVE('',#372,#373,#161,.T.);
#456=EDGE_CURVE('',#374,#372,#199,.T.);
#457=EDGE_CURVE('',#375,#374,#200,.T.);
#458=EDGE_CURVE('',#375,#373,#201,.T.);
#459=EDGE_CURVE('',#368,#366,#357,.T.);
#460=EDGE_CURVE('',#376,#371,#358,.T.);
#461=EDGE_CURVE('',#367,#376,#162,.T.);
#462=EDGE_CURVE('',#373,#377,#359,.T.);
#463=EDGE_CURVE('',#378,#375,#163,.T.);
#464=EDGE_CURVE('',#378,#377,#202,.T.);
#465=EDGE_CURVE('',#377,#379,#164,.T.);
#466=EDGE_CURVE('',#380,#378,#203,.T.);
#467=EDGE_CURVE('',#380,#379,#204,.T.);
#468=EDGE_CURVE('',#379,#372,#360,.T.);
#469=EDGE_CURVE('',#374,#380,#165,.T.);
#470=EDGE_CURVE('',#369,#381,#205,.T.);
#471=EDGE_CURVE('',#381,#382,#206,.T.);
#472=EDGE_CURVE('',#370,#382,#207,.T.);
#473=EDGE_CURVE('',#383,#376,#208,.T.);
#474=EDGE_CURVE('',#383,#384,#25,.T.);
#475=EDGE_CURVE('',#384,#385,#26,.T.);
#476=EDGE_CURVE('',#385,#364,#209,.T.);
#477=EDGE_CURVE('',#382,#386,#166,.T.);
#478=EDGE_CURVE('',#387,#386,#210,.T.);
#479=EDGE_CURVE('',#383,#387,#167,.T.);
#480=EDGE_CURVE('',#384,#388,#168,.T.);
#481=EDGE_CURVE('',#388,#389,#211,.T.);
#482=EDGE_CURVE('',#389,#385,#169,.T.);
#483=EDGE_CURVE('',#388,#390,#212,.T.);
#484=EDGE_CURVE('',#390,#391,#213,.T.);
#485=EDGE_CURVE('',#391,#389,#214,.T.);
#486=EDGE_CURVE('',#390,#392,#170,.T.);
#487=EDGE_CURVE('',#392,#393,#215,.T.);
#488=EDGE_CURVE('',#393,#391,#171,.T.);
#489=EDGE_CURVE('',#392,#394,#216,.T.);
#490=EDGE_CURVE('',#394,#395,#217,.T.);
#491=EDGE_CURVE('',#395,#393,#218,.T.);
#492=EDGE_CURVE('',#396,#397,#219,.T.);
#493=EDGE_CURVE('',#397,#395,#172,.T.);
#494=EDGE_CURVE('',#394,#396,#173,.T.);
#495=EDGE_CURVE('',#396,#398,#220,.T.);
#496=EDGE_CURVE('',#398,#399,#221,.T.);
#497=EDGE_CURVE('',#399,#397,#222,.T.);
#498=EDGE_CURVE('',#398,#400,#174,.T.);
#499=EDGE_CURVE('',#400,#401,#223,.T.);
#500=EDGE_CURVE('',#401,#399,#175,.T.);
#501=EDGE_CURVE('',#400,#402,#224,.T.);
#502=EDGE_CURVE('',#402,#387,#225,.T.);
#503=EDGE_CURVE('',#387,#401,#226,.T.);
#504=EDGE_CURVE('',#402,#384,#176,.T.);
#505=EDGE_CURVE('',#399,#403,#227,.T.);
#506=EDGE_CURVE('',#403,#404,#228,.T.);
#507=EDGE_CURVE('',#397,#404,#229,.T.);
#508=EDGE_CURVE('',#401,#405,#230,.T.);
#509=EDGE_CURVE('',#405,#403,#177,.T.);
#510=EDGE_CURVE('',#386,#405,#231,.T.);
#511=EDGE_CURVE('',#389,#406,#232,.T.);
#512=EDGE_CURVE('',#406,#381,#178,.T.);
#513=EDGE_CURVE('',#391,#407,#233,.T.);
#514=EDGE_CURVE('',#407,#406,#234,.T.);
#515=EDGE_CURVE('',#393,#408,#235,.T.);
#516=EDGE_CURVE('',#408,#407,#179,.T.);
#517=EDGE_CURVE('',#395,#409,#236,.T.);
#518=EDGE_CURVE('',#409,#408,#237,.T.);
#519=EDGE_CURVE('',#404,#409,#180,.T.);
#520=EDGE_CURVE('',#410,#411,#238,.T.);
#521=EDGE_CURVE('',#412,#410,#181,.T.);
#522=EDGE_CURVE('',#413,#412,#239,.T.);
#523=EDGE_CURVE('',#414,#413,#182,.T.);
#524=EDGE_CURVE('',#415,#414,#240,.T.);
#525=EDGE_CURVE('',#416,#415,#183,.T.);
#526=EDGE_CURVE('',#417,#416,#241,.T.);
#527=EDGE_CURVE('',#418,#417,#184,.T.);
#528=EDGE_CURVE('',#419,#418,#242,.T.);
#529=EDGE_CURVE('',#411,#419,#185,.T.);
#530=EDGE_CURVE('',#420,#421,#243,.T.);
#531=EDGE_CURVE('',#420,#410,#244,.T.);
#532=EDGE_CURVE('',#421,#411,#245,.T.);
#533=EDGE_CURVE('',#422,#420,#186,.T.);
#534=EDGE_CURVE('',#422,#412,#246,.T.);
#535=EDGE_CURVE('',#423,#422,#247,.T.);
#536=EDGE_CURVE('',#423,#413,#248,.T.);
#537=EDGE_CURVE('',#424,#423,#187,.T.);
#538=EDGE_CURVE('',#424,#414,#249,.T.);
#539=EDGE_CURVE('',#425,#424,#250,.T.);
#540=EDGE_CURVE('',#425,#415,#251,.T.);
#541=EDGE_CURVE('',#426,#425,#188,.T.);
#542=EDGE_CURVE('',#426,#416,#252,.T.);
#543=EDGE_CURVE('',#427,#426,#253,.T.);
#544=EDGE_CURVE('',#427,#417,#254,.T.);
#545=EDGE_CURVE('',#428,#427,#189,.T.);
#546=EDGE_CURVE('',#428,#418,#255,.T.);
#547=EDGE_CURVE('',#429,#428,#256,.T.);
#548=EDGE_CURVE('',#429,#419,#257,.T.);
#549=EDGE_CURVE('',#421,#429,#190,.T.);
#550=EDGE_CURVE('',#430,#431,#258,.T.);
#551=EDGE_CURVE('',#430,#432,#259,.T.);
#552=EDGE_CURVE('',#433,#432,#260,.T.);
#553=EDGE_CURVE('',#431,#433,#261,.T.);
#554=EDGE_CURVE('',#431,#434,#262,.T.);
#555=EDGE_CURVE('',#435,#433,#263,.T.);
#556=EDGE_CURVE('',#434,#435,#264,.T.);
#557=EDGE_CURVE('',#434,#436,#265,.T.);
#558=EDGE_CURVE('',#437,#435,#266,.T.);
#559=EDGE_CURVE('',#436,#437,#267,.T.);
#560=EDGE_CURVE('',#436,#438,#268,.T.);
#561=EDGE_CURVE('',#439,#437,#269,.T.);
#562=EDGE_CURVE('',#438,#439,#270,.T.);
#563=EDGE_CURVE('',#438,#440,#271,.T.);
#564=EDGE_CURVE('',#441,#439,#272,.T.);
#565=EDGE_CURVE('',#440,#441,#273,.T.);
#566=EDGE_CURVE('',#430,#440,#191,.T.);
#567=EDGE_CURVE('',#432,#441,#192,.T.);
#568=ORIENTED_EDGE('',*,*,#442,.F.);
#569=ORIENTED_EDGE('',*,*,#443,.F.);
#570=ORIENTED_EDGE('',*,*,#444,.F.);
#571=ORIENTED_EDGE('',*,*,#445,.F.);
#572=ORIENTED_EDGE('',*,*,#446,.T.);
#573=ORIENTED_EDGE('',*,*,#447,.F.);
#574=ORIENTED_EDGE('',*,*,#448,.F.);
#575=ORIENTED_EDGE('',*,*,#449,.F.);
#576=ORIENTED_EDGE('',*,*,#443,.T.);
#577=ORIENTED_EDGE('',*,*,#450,.F.);
#578=ORIENTED_EDGE('',*,*,#446,.F.);
#579=ORIENTED_EDGE('',*,*,#451,.F.);
#580=ORIENTED_EDGE('',*,*,#452,.F.);
#581=ORIENTED_EDGE('',*,*,#453,.F.);
#582=ORIENTED_EDGE('',*,*,#454,.T.);
#583=ORIENTED_EDGE('',*,*,#455,.F.);
#584=ORIENTED_EDGE('',*,*,#456,.F.);
#585=ORIENTED_EDGE('',*,*,#457,.F.);
#586=ORIENTED_EDGE('',*,*,#458,.T.);
#587=ORIENTED_EDGE('',*,*,#459,.F.);
#588=ORIENTED_EDGE('',*,*,#454,.F.);
#589=ORIENTED_EDGE('',*,*,#460,.F.);
#590=ORIENTED_EDGE('',*,*,#461,.F.);
#591=ORIENTED_EDGE('',*,*,#448,.T.);
#592=ORIENTED_EDGE('',*,*,#462,.F.);
#593=ORIENTED_EDGE('',*,*,#458,.F.);
#594=ORIENTED_EDGE('',*,*,#463,.F.);
#595=ORIENTED_EDGE('',*,*,#464,.T.);
#596=ORIENTED_EDGE('',*,*,#465,.F.);
#597=ORIENTED_EDGE('',*,*,#464,.F.);
#598=ORIENTED_EDGE('',*,*,#466,.F.);
#599=ORIENTED_EDGE('',*,*,#467,.T.);
#600=ORIENTED_EDGE('',*,*,#468,.F.);
#601=ORIENTED_EDGE('',*,*,#467,.F.);
#602=ORIENTED_EDGE('',*,*,#469,.F.);
#603=ORIENTED_EDGE('',*,*,#456,.T.);
#604=ORIENTED_EDGE('',*,*,#452,.T.);
#605=ORIENTED_EDGE('',*,*,#470,.T.);
#606=ORIENTED_EDGE('',*,*,#471,.T.);
#607=ORIENTED_EDGE('',*,*,#472,.F.);
#608=ORIENTED_EDGE('',*,*,#444,.T.);
#609=ORIENTED_EDGE('',*,*,#449,.T.);
#610=ORIENTED_EDGE('',*,*,#461,.T.);
#611=ORIENTED_EDGE('',*,*,#473,.F.);
#612=ORIENTED_EDGE('',*,*,#474,.T.);
#613=ORIENTED_EDGE('',*,*,#475,.T.);
#614=ORIENTED_EDGE('',*,*,#476,.T.);
#615=ORIENTED_EDGE('',*,*,#460,.T.);
#616=ORIENTED_EDGE('',*,*,#453,.T.);
#617=ORIENTED_EDGE('',*,*,#472,.T.);
#618=ORIENTED_EDGE('',*,*,#477,.T.);
#619=ORIENTED_EDGE('',*,*,#478,.F.);
#620=ORIENTED_EDGE('',*,*,#479,.F.);
#621=ORIENTED_EDGE('',*,*,#473,.T.);
#622=ORIENTED_EDGE('',*,*,#475,.F.);
#623=ORIENTED_EDGE('',*,*,#480,.T.);
#624=ORIENTED_EDGE('',*,*,#481,.T.);
#625=ORIENTED_EDGE('',*,*,#482,.T.);
#626=ORIENTED_EDGE('',*,*,#481,.F.);
#627=ORIENTED_EDGE('',*,*,#483,.T.);
#628=ORIENTED_EDGE('',*,*,#484,.T.);
#629=ORIENTED_EDGE('',*,*,#485,.T.);
#630=ORIENTED_EDGE('',*,*,#484,.F.);
#631=ORIENTED_EDGE('',*,*,#486,.T.);
#632=ORIENTED_EDGE('',*,*,#487,.T.);
#633=ORIENTED_EDGE('',*,*,#488,.T.);
#634=ORIENTED_EDGE('',*,*,#487,.F.);
#635=ORIENTED_EDGE('',*,*,#489,.T.);
#636=ORIENTED_EDGE('',*,*,#490,.T.);
#637=ORIENTED_EDGE('',*,*,#491,.T.);
#638=ORIENTED_EDGE('',*,*,#492,.T.);
#639=ORIENTED_EDGE('',*,*,#493,.T.);
#640=ORIENTED_EDGE('',*,*,#490,.F.);
#641=ORIENTED_EDGE('',*,*,#494,.T.);
#642=ORIENTED_EDGE('',*,*,#492,.F.);
#643=ORIENTED_EDGE('',*,*,#495,.T.);
#644=ORIENTED_EDGE('',*,*,#496,.T.);
#645=ORIENTED_EDGE('',*,*,#497,.T.);
#646=ORIENTED_EDGE('',*,*,#496,.F.);
#647=ORIENTED_EDGE('',*,*,#498,.T.);
#648=ORIENTED_EDGE('',*,*,#499,.T.);
#649=ORIENTED_EDGE('',*,*,#500,.T.);
#650=ORIENTED_EDGE('',*,*,#499,.F.);
#651=ORIENTED_EDGE('',*,*,#501,.T.);
#652=ORIENTED_EDGE('',*,*,#502,.T.);
#653=ORIENTED_EDGE('',*,*,#503,.T.);
#654=ORIENTED_EDGE('',*,*,#474,.F.);
#655=ORIENTED_EDGE('',*,*,#479,.T.);
#656=ORIENTED_EDGE('',*,*,#502,.F.);
#657=ORIENTED_EDGE('',*,*,#504,.T.);
#658=ORIENTED_EDGE('',*,*,#497,.F.);
#659=ORIENTED_EDGE('',*,*,#505,.T.);
#660=ORIENTED_EDGE('',*,*,#506,.T.);
#661=ORIENTED_EDGE('',*,*,#507,.F.);
#662=ORIENTED_EDGE('',*,*,#500,.F.);
#663=ORIENTED_EDGE('',*,*,#508,.T.);
#664=ORIENTED_EDGE('',*,*,#509,.T.);
#665=ORIENTED_EDGE('',*,*,#505,.F.);
#666=ORIENTED_EDGE('',*,*,#503,.F.);
#667=ORIENTED_EDGE('',*,*,#478,.T.);
#668=ORIENTED_EDGE('',*,*,#510,.T.);
#669=ORIENTED_EDGE('',*,*,#508,.F.);
#670=ORIENTED_EDGE('',*,*,#445,.T.);
#671=ORIENTED_EDGE('',*,*,#476,.F.);
#672=ORIENTED_EDGE('',*,*,#482,.F.);
#673=ORIENTED_EDGE('',*,*,#511,.T.);
#674=ORIENTED_EDGE('',*,*,#512,.T.);
#675=ORIENTED_EDGE('',*,*,#470,.F.);
#676=ORIENTED_EDGE('',*,*,#451,.T.);
#677=ORIENTED_EDGE('',*,*,#485,.F.);
#678=ORIENTED_EDGE('',*,*,#513,.T.);
#679=ORIENTED_EDGE('',*,*,#514,.T.);
#680=ORIENTED_EDGE('',*,*,#511,.F.);
#681=ORIENTED_EDGE('',*,*,#488,.F.);
#682=ORIENTED_EDGE('',*,*,#515,.T.);
#683=ORIENTED_EDGE('',*,*,#516,.T.);
#684=ORIENTED_EDGE('',*,*,#513,.F.);
#685=ORIENTED_EDGE('',*,*,#491,.F.);
#686=ORIENTED_EDGE('',*,*,#517,.T.);
#687=ORIENTED_EDGE('',*,*,#518,.T.);
#688=ORIENTED_EDGE('',*,*,#515,.F.);
#689=ORIENTED_EDGE('',*,*,#493,.F.);
#690=ORIENTED_EDGE('',*,*,#507,.T.);
#691=ORIENTED_EDGE('',*,*,#519,.T.);
#692=ORIENTED_EDGE('',*,*,#517,.F.);
#693=ORIENTED_EDGE('',*,*,#465,.T.);
#694=ORIENTED_EDGE('',*,*,#468,.T.);
#695=ORIENTED_EDGE('',*,*,#455,.T.);
#696=ORIENTED_EDGE('',*,*,#462,.T.);
#697=ORIENTED_EDGE('',*,*,#504,.F.);
#698=ORIENTED_EDGE('',*,*,#501,.F.);
#699=ORIENTED_EDGE('',*,*,#498,.F.);
#700=ORIENTED_EDGE('',*,*,#495,.F.);
#701=ORIENTED_EDGE('',*,*,#494,.F.);
#702=ORIENTED_EDGE('',*,*,#489,.F.);
#703=ORIENTED_EDGE('',*,*,#486,.F.);
#704=ORIENTED_EDGE('',*,*,#483,.F.);
#705=ORIENTED_EDGE('',*,*,#480,.F.);
#706=ORIENTED_EDGE('',*,*,#520,.F.);
#707=ORIENTED_EDGE('',*,*,#521,.F.);
#708=ORIENTED_EDGE('',*,*,#522,.F.);
#709=ORIENTED_EDGE('',*,*,#523,.F.);
#710=ORIENTED_EDGE('',*,*,#524,.F.);
#711=ORIENTED_EDGE('',*,*,#525,.F.);
#712=ORIENTED_EDGE('',*,*,#526,.F.);
#713=ORIENTED_EDGE('',*,*,#527,.F.);
#714=ORIENTED_EDGE('',*,*,#528,.F.);
#715=ORIENTED_EDGE('',*,*,#529,.F.);
#716=ORIENTED_EDGE('',*,*,#477,.F.);
#717=ORIENTED_EDGE('',*,*,#471,.F.);
#718=ORIENTED_EDGE('',*,*,#512,.F.);
#719=ORIENTED_EDGE('',*,*,#514,.F.);
#720=ORIENTED_EDGE('',*,*,#516,.F.);
#721=ORIENTED_EDGE('',*,*,#518,.F.);
#722=ORIENTED_EDGE('',*,*,#519,.F.);
#723=ORIENTED_EDGE('',*,*,#506,.F.);
#724=ORIENTED_EDGE('',*,*,#509,.F.);
#725=ORIENTED_EDGE('',*,*,#510,.F.);
#726=ORIENTED_EDGE('',*,*,#530,.F.);
#727=ORIENTED_EDGE('',*,*,#531,.T.);
#728=ORIENTED_EDGE('',*,*,#520,.T.);
#729=ORIENTED_EDGE('',*,*,#532,.F.);
#730=ORIENTED_EDGE('',*,*,#533,.F.);
#731=ORIENTED_EDGE('',*,*,#534,.T.);
#732=ORIENTED_EDGE('',*,*,#521,.T.);
#733=ORIENTED_EDGE('',*,*,#531,.F.);
#734=ORIENTED_EDGE('',*,*,#535,.F.);
#735=ORIENTED_EDGE('',*,*,#536,.T.);
#736=ORIENTED_EDGE('',*,*,#522,.T.);
#737=ORIENTED_EDGE('',*,*,#534,.F.);
#738=ORIENTED_EDGE('',*,*,#537,.F.);
#739=ORIENTED_EDGE('',*,*,#538,.T.);
#740=ORIENTED_EDGE('',*,*,#523,.T.);
#741=ORIENTED_EDGE('',*,*,#536,.F.);
#742=ORIENTED_EDGE('',*,*,#539,.F.);
#743=ORIENTED_EDGE('',*,*,#540,.T.);
#744=ORIENTED_EDGE('',*,*,#524,.T.);
#745=ORIENTED_EDGE('',*,*,#538,.F.);
#746=ORIENTED_EDGE('',*,*,#541,.F.);
#747=ORIENTED_EDGE('',*,*,#542,.T.);
#748=ORIENTED_EDGE('',*,*,#525,.T.);
#749=ORIENTED_EDGE('',*,*,#540,.F.);
#750=ORIENTED_EDGE('',*,*,#543,.F.);
#751=ORIENTED_EDGE('',*,*,#544,.T.);
#752=ORIENTED_EDGE('',*,*,#526,.T.);
#753=ORIENTED_EDGE('',*,*,#542,.F.);
#754=ORIENTED_EDGE('',*,*,#545,.F.);
#755=ORIENTED_EDGE('',*,*,#546,.T.);
#756=ORIENTED_EDGE('',*,*,#527,.T.);
#757=ORIENTED_EDGE('',*,*,#544,.F.);
#758=ORIENTED_EDGE('',*,*,#547,.F.);
#759=ORIENTED_EDGE('',*,*,#548,.T.);
#760=ORIENTED_EDGE('',*,*,#528,.T.);
#761=ORIENTED_EDGE('',*,*,#546,.F.);
#762=ORIENTED_EDGE('',*,*,#549,.F.);
#763=ORIENTED_EDGE('',*,*,#532,.T.);
#764=ORIENTED_EDGE('',*,*,#529,.T.);
#765=ORIENTED_EDGE('',*,*,#548,.F.);
#766=ORIENTED_EDGE('',*,*,#550,.F.);
#767=ORIENTED_EDGE('',*,*,#551,.T.);
#768=ORIENTED_EDGE('',*,*,#552,.F.);
#769=ORIENTED_EDGE('',*,*,#553,.F.);
#770=ORIENTED_EDGE('',*,*,#554,.F.);
#771=ORIENTED_EDGE('',*,*,#553,.T.);
#772=ORIENTED_EDGE('',*,*,#555,.F.);
#773=ORIENTED_EDGE('',*,*,#556,.F.);
#774=ORIENTED_EDGE('',*,*,#557,.F.);
#775=ORIENTED_EDGE('',*,*,#556,.T.);
#776=ORIENTED_EDGE('',*,*,#558,.F.);
#777=ORIENTED_EDGE('',*,*,#559,.F.);
#778=ORIENTED_EDGE('',*,*,#466,.T.);
#779=ORIENTED_EDGE('',*,*,#463,.T.);
#780=ORIENTED_EDGE('',*,*,#457,.T.);
#781=ORIENTED_EDGE('',*,*,#469,.T.);
#782=ORIENTED_EDGE('',*,*,#560,.F.);
#783=ORIENTED_EDGE('',*,*,#559,.T.);
#784=ORIENTED_EDGE('',*,*,#561,.F.);
#785=ORIENTED_EDGE('',*,*,#562,.F.);
#786=ORIENTED_EDGE('',*,*,#563,.F.);
#787=ORIENTED_EDGE('',*,*,#562,.T.);
#788=ORIENTED_EDGE('',*,*,#564,.F.);
#789=ORIENTED_EDGE('',*,*,#565,.F.);
#790=ORIENTED_EDGE('',*,*,#566,.T.);
#791=ORIENTED_EDGE('',*,*,#565,.T.);
#792=ORIENTED_EDGE('',*,*,#567,.F.);
#793=ORIENTED_EDGE('',*,*,#551,.F.);
#794=ORIENTED_EDGE('',*,*,#447,.T.);
#795=ORIENTED_EDGE('',*,*,#442,.T.);
#796=ORIENTED_EDGE('',*,*,#450,.T.);
#797=ORIENTED_EDGE('',*,*,#459,.T.);
#798=ORIENTED_EDGE('',*,*,#567,.T.);
#799=ORIENTED_EDGE('',*,*,#564,.T.);
#800=ORIENTED_EDGE('',*,*,#561,.T.);
#801=ORIENTED_EDGE('',*,*,#558,.T.);
#802=ORIENTED_EDGE('',*,*,#555,.T.);
#803=ORIENTED_EDGE('',*,*,#552,.T.);
#804=ORIENTED_EDGE('',*,*,#566,.F.);
#805=ORIENTED_EDGE('',*,*,#550,.T.);
#806=ORIENTED_EDGE('',*,*,#554,.T.);
#807=ORIENTED_EDGE('',*,*,#557,.T.);
#808=ORIENTED_EDGE('',*,*,#560,.T.);
#809=ORIENTED_EDGE('',*,*,#563,.T.);
#810=ORIENTED_EDGE('',*,*,#530,.T.);
#811=ORIENTED_EDGE('',*,*,#549,.T.);
#812=ORIENTED_EDGE('',*,*,#547,.T.);
#813=ORIENTED_EDGE('',*,*,#545,.T.);
#814=ORIENTED_EDGE('',*,*,#543,.T.);
#815=ORIENTED_EDGE('',*,*,#541,.T.);
#816=ORIENTED_EDGE('',*,*,#539,.T.);
#817=ORIENTED_EDGE('',*,*,#537,.T.);
#818=ORIENTED_EDGE('',*,*,#535,.T.);
#819=ORIENTED_EDGE('',*,*,#533,.T.);
#820=CYLINDRICAL_SURFACE('',#897,5.99999999999999);
#821=CYLINDRICAL_SURFACE('',#907,5.99999999999999);
#822=CYLINDRICAL_SURFACE('',#909,5.99999999999999);
#823=CYLINDRICAL_SURFACE('',#913,5.99999999999999);
#824=CYLINDRICAL_SURFACE('',#917,8.9999999999962);
#825=CYLINDRICAL_SURFACE('',#939,5.00000000000622);
#826=CYLINDRICAL_SURFACE('',#942,9.00000000000022);
#827=CYLINDRICAL_SURFACE('',#945,4.99999999998023);
#828=CYLINDRICAL_SURFACE('',#948,13.9999999999997);
#829=CYLINDRICAL_SURFACE('',#958,5.99999999999958);
#830=CYLINDRICAL_SURFACE('',#961,12.9999999999997);
#831=CYLINDRICAL_SURFACE('',#964,6.00000000000622);
#832=CYLINDRICAL_SURFACE('',#967,7.9999999999962);
#833=CYLINDRICAL_SURFACE('',#970,8.00000000000022);
#834=CYLINDRICAL_SURFACE('',#977,12.);
#835=ADVANCED_FACE('',(#55),#820,.F.);
#836=ADVANCED_FACE('',(#56),#27,.F.);
#837=ADVANCED_FACE('',(#57),#28,.F.);
#838=ADVANCED_FACE('',(#58),#29,.F.);
#839=ADVANCED_FACE('',(#59),#821,.F.);
#840=ADVANCED_FACE('',(#60),#822,.F.);
#841=ADVANCED_FACE('',(#61),#30,.F.);
#842=ADVANCED_FACE('',(#62),#823,.F.);
#843=ADVANCED_FACE('',(#63),#31,.F.);
#844=ADVANCED_FACE('',(#64),#32,.F.);
#845=ADVANCED_FACE('',(#65),#824,.F.);
#846=ADVANCED_FACE('',(#66),#20,.F.);
#847=ADVANCED_FACE('',(#67),#33,.T.);
#848=ADVANCED_FACE('',(#68),#21,.T.);
#849=ADVANCED_FACE('',(#69),#34,.T.);
#850=ADVANCED_FACE('',(#70),#22,.F.);
#851=ADVANCED_FACE('',(#71),#35,.T.);
#852=ADVANCED_FACE('',(#72),#23,.T.);
#853=ADVANCED_FACE('',(#73),#36,.T.);
#854=ADVANCED_FACE('',(#74),#24,.F.);
#855=ADVANCED_FACE('',(#75),#37,.F.);
#856=ADVANCED_FACE('',(#76),#825,.T.);
#857=ADVANCED_FACE('',(#77),#38,.F.);
#858=ADVANCED_FACE('',(#78),#826,.F.);
#859=ADVANCED_FACE('',(#79),#39,.F.);
#860=ADVANCED_FACE('',(#80),#827,.T.);
#861=ADVANCED_FACE('',(#81),#40,.F.);
#862=ADVANCED_FACE('',(#82,#15),#828,.F.);
#863=ADVANCED_FACE('',(#83,#16),#41,.F.);
#864=ADVANCED_FACE('',(#84),#42,.T.);
#865=ADVANCED_FACE('',(#85),#43,.F.);
#866=ADVANCED_FACE('',(#86),#829,.T.);
#867=ADVANCED_FACE('',(#87),#44,.F.);
#868=ADVANCED_FACE('',(#88),#830,.F.);
#869=ADVANCED_FACE('',(#89),#45,.F.);
#870=ADVANCED_FACE('',(#90),#831,.T.);
#871=ADVANCED_FACE('',(#91),#46,.F.);
#872=ADVANCED_FACE('',(#92),#832,.F.);
#873=ADVANCED_FACE('',(#93),#47,.F.);
#874=ADVANCED_FACE('',(#94),#833,.F.);
#875=ADVANCED_FACE('',(#95),#48,.T.);
#876=ADVANCED_FACE('',(#96),#49,.T.);
#877=ADVANCED_FACE('',(#97,#17),#50,.T.);
#878=ADVANCED_FACE('',(#98),#51,.T.);
#879=ADVANCED_FACE('',(#99),#52,.T.);
#880=ADVANCED_FACE('',(#100,#18),#834,.T.);
#881=ADVANCED_FACE('',(#101),#53,.T.);
#882=ADVANCED_FACE('',(#102,#19),#54,.F.);
#883=CLOSED_SHELL('',(#835,#836,#837,#838,#839,#840,#841,#842,#843,#844,
#845,#846,#847,#848,#849,#850,#851,#852,#853,#854,#855,#856,#857,#858,#859,
#860,#861,#862,#863,#864,#865,#866,#867,#868,#869,#870,#871,#872,#873,#874,
#875,#876,#877,#878,#879,#880,#881,#882));
#884=DERIVED_UNIT_ELEMENT(#886,1.);
#885=DERIVED_UNIT_ELEMENT(#1581,-3.);
#886=(
MASS_UNIT()
NAMED_UNIT(*)
SI_UNIT(.KILO.,.GRAM.)
);
#887=DERIVED_UNIT((#884,#885));
#888=MEASURE_REPRESENTATION_ITEM('density measure',
POSITIVE_RATIO_MEASURE(7850.),#887);
#889=PROPERTY_DEFINITION_REPRESENTATION(#894,#891);
#890=PROPERTY_DEFINITION_REPRESENTATION(#895,#892);
#891=REPRESENTATION('material name',(#893),#1578);
#892=REPRESENTATION('density',(#888),#1578);
#893=DESCRIPTIVE_REPRESENTATION_ITEM('Steel','Steel');
#894=PROPERTY_DEFINITION('material property','material name',#1588);
#895=PROPERTY_DEFINITION('material property','density of part',#1588);
#896=AXIS2_PLACEMENT_3D('',#1235,#982,#983);
#897=AXIS2_PLACEMENT_3D('',#1236,#984,#985);
#898=AXIS2_PLACEMENT_3D('',#1256,#987,#988);
#899=AXIS2_PLACEMENT_3D('',#1273,#990,#991);
#900=AXIS2_PLACEMENT_3D('',#1275,#992,#993);
#901=AXIS2_PLACEMENT_3D('',#1279,#996,#997);
#902=AXIS2_PLACEMENT_3D('',#1281,#998,#999);
#903=AXIS2_PLACEMENT_3D('',#1283,#1000,#1001);
#904=AXIS2_PLACEMENT_3D('',#1287,#1003,#1004);
#905=AXIS2_PLACEMENT_3D('',#1289,#1006,#1007);
#906=AXIS2_PLACEMENT_3D('',#1292,#1008,#1009);
#907=AXIS2_PLACEMENT_3D('',#1298,#1013,#1014);
#908=AXIS2_PLACEMENT_3D('',#1330,#1015,#1016);
#909=AXIS2_PLACEMENT_3D('',#1331,#1017,#1018);
#910=AXIS2_PLACEMENT_3D('',#1349,#1019,#1020);
#911=AXIS2_PLACEMENT_3D('',#1351,#1022,#1023);
#912=AXIS2_PLACEMENT_3D('',#1353,#1024,#1025);
#913=AXIS2_PLACEMENT_3D('',#1357,#1028,#1029);
#914=AXIS2_PLACEMENT_3D('',#1372,#1030,#1031);
#915=AXIS2_PLACEMENT_3D('',#1373,#1032,#1033);
#916=AXIS2_PLACEMENT_3D('',#1379,#1037,#1038);
#917=AXIS2_PLACEMENT_3D('',#1391,#1041,#1042);
#918=AXIS2_PLACEMENT_3D('',#1393,#1043,#1044);
#919=AXIS2_PLACEMENT_3D('',#1396,#1046,#1047);
#920=AXIS2_PLACEMENT_3D('',#1397,#1048,#1049);
#921=AXIS2_PLACEMENT_3D('',#1399,#1050,#1051);
#922=AXIS2_PLACEMENT_3D('',#1402,#1053,#1054);
#923=AXIS2_PLACEMENT_3D('',#1403,#1055,#1056);
#924=AXIS2_PLACEMENT_3D('',#1409,#1060,#1061);
#925=AXIS2_PLACEMENT_3D('',#1411,#1062,#1063);
#926=AXIS2_PLACEMENT_3D('',#1414,#1065,#1066);
#927=AXIS2_PLACEMENT_3D('',#1415,#1067,#1068);
#928=AXIS2_PLACEMENT_3D('',#1421,#1072,#1073);
#929=AXIS2_PLACEMENT_3D('',#1425,#1075,#1076);
#930=AXIS2_PLACEMENT_3D('',#1426,#1077,#1078);
#931=AXIS2_PLACEMENT_3D('',#1427,#1079,#1080);
#932=AXIS2_PLACEMENT_3D('',#1433,#1084,#1085);
#933=AXIS2_PLACEMENT_3D('',#1435,#1086,#1087);
#934=AXIS2_PLACEMENT_3D('',#1438,#1089,#1090);
#935=AXIS2_PLACEMENT_3D('',#1439,#1091,#1092);
#936=AXIS2_PLACEMENT_3D('',#1444,#1096,#1097);
#937=AXIS2_PLACEMENT_3D('',#1445,#1098,#1099);
#938=AXIS2_PLACEMENT_3D('',#1446,#1100,#1101);
#939=AXIS2_PLACEMENT_3D('',#1452,#1105,#1106);
#940=AXIS2_PLACEMENT_3D('',#1455,#1108,#1109);
#941=AXIS2_PLACEMENT_3D('',#1456,#1110,#1111);
#942=AXIS2_PLACEMENT_3D('',#1458,#1113,#1114);
#943=AXIS2_PLACEMENT_3D('',#1461,#1116,#1117);
#944=AXIS2_PLACEMENT_3D('',#1462,#1118,#1119);
#945=AXIS2_PLACEMENT_3D('',#1466,#1122,#1123);
#946=AXIS2_PLACEMENT_3D('',#1469,#1125,#1126);
#947=AXIS2_PLACEMENT_3D('',#1470,#1127,#1128);
#948=AXIS2_PLACEMENT_3D('',#1474,#1131,#1132);
#949=AXIS2_PLACEMENT_3D('',#1475,#1133,#1134);
#950=AXIS2_PLACEMENT_3D('',#1476,#1135,#1136);
#951=AXIS2_PLACEMENT_3D('',#1481,#1138,#1139);
#952=AXIS2_PLACEMENT_3D('',#1485,#1141,#1142);
#953=AXIS2_PLACEMENT_3D('',#1489,#1144,#1145);
#954=AXIS2_PLACEMENT_3D('',#1493,#1147,#1148);
#955=AXIS2_PLACEMENT_3D('',#1496,#1150,#1151);
#956=AXIS2_PLACEMENT_3D('',#1497,#1152,#1153);
#957=AXIS2_PLACEMENT_3D('',#1498,#1154,#1155);
#958=AXIS2_PLACEMENT_3D('',#1504,#1159,#1160);
#959=AXIS2_PLACEMENT_3D('',#1506,#1161,#1162);
#960=AXIS2_PLACEMENT_3D('',#1508,#1164,#1165);
#961=AXIS2_PLACEMENT_3D('',#1512,#1168,#1169);
#962=AXIS2_PLACEMENT_3D('',#1514,#1170,#1171);
#963=AXIS2_PLACEMENT_3D('',#1516,#1173,#1174);
#964=AXIS2_PLACEMENT_3D('',#1520,#1177,#1178);
#965=AXIS2_PLACEMENT_3D('',#1522,#1179,#1180);
#966=AXIS2_PLACEMENT_3D('',#1524,#1182,#1183);
#967=AXIS2_PLACEMENT_3D('',#1528,#1186,#1187);
#968=AXIS2_PLACEMENT_3D('',#1530,#1188,#1189);
#969=AXIS2_PLACEMENT_3D('',#1532,#1191,#1192);
#970=AXIS2_PLACEMENT_3D('',#1536,#1195,#1196);
#971=AXIS2_PLACEMENT_3D('',#1537,#1197,#1198);
#972=AXIS2_PLACEMENT_3D('',#1538,#1199,#1200);
#973=AXIS2_PLACEMENT_3D('',#1547,#1205,#1206);
#974=AXIS2_PLACEMENT_3D('',#1553,#1210,#1211);
#975=AXIS2_PLACEMENT_3D('',#1559,#1215,#1216);
#976=AXIS2_PLACEMENT_3D('',#1565,#1220,#1221);
#977=AXIS2_PLACEMENT_3D('',#1571,#1225,#1226);
#978=AXIS2_PLACEMENT_3D('',#1572,#1227,#1228);
#979=AXIS2_PLACEMENT_3D('',#1573,#1229,#1230);
#980=AXIS2_PLACEMENT_3D('',#1574,#1231,#1232);
#981=AXIS2_PLACEMENT_3D('',#1575,#1233,#1234);
#982=DIRECTION('axis',(0.,0.,1.));
#983=DIRECTION('refdir',(1.,0.,0.));
#984=DIRECTION('center_axis',(0.,0.,-1.));
#985=DIRECTION('ref_axis',(0.994099394285158,-0.108473011767361,0.));
#986=DIRECTION('',(0.,0.,-1.));
#987=DIRECTION('center_axis',(-7.77483428162678E-13,0.,-1.));
#988=DIRECTION('ref_axis',(-0.661437827766148,0.749999999999999,0.));
#989=DIRECTION('',(0.,0.,-1.));
#990=DIRECTION('center_axis',(0.,-1.,0.));
#991=DIRECTION('ref_axis',(-1.,0.,0.));
#992=DIRECTION('center_axis',(0.,-1.,0.));
#993=DIRECTION('ref_axis',(0.987210930472886,0.,-0.159419505565843));
#994=DIRECTION('',(0.,0.,-1.));
#995=DIRECTION('',(-1.,0.,7.77483428162678E-13));
#996=DIRECTION('center_axis',(0.,1.,0.));
#997=DIRECTION('ref_axis',(1.,0.,0.));
#998=DIRECTION('center_axis',(0.,1.,0.));
#999=DIRECTION('ref_axis',(0.987210930472886,0.,-0.159419505565843));
#1000=DIRECTION('center_axis',(0.,-1.,0.));
#1001=DIRECTION('ref_axis',(0.328671099059157,0.,-0.944444444445117));
#1002=DIRECTION('',(1.,0.,-7.77483428162678E-13));
#1003=DIRECTION('center_axis',(0.,-1.,0.));
#1004=DIRECTION('ref_axis',(-0.94412803872848,0.,0.329578892659578));
#1005=DIRECTION('',(0.,0.,-1.));
#1006=DIRECTION('center_axis',(0.,1.,0.));
#1007=DIRECTION('ref_axis',(1.,0.,0.));
#1008=DIRECTION('center_axis',(0.,-1.,0.));
#1009=DIRECTION('ref_axis',(0.903294529776489,0.,-0.429020969739094));
#1010=DIRECTION('',(0.,0.,-1.));
#1011=DIRECTION('',(1.,0.,0.));
#1012=DIRECTION('',(0.,0.,-1.));
#1013=DIRECTION('center_axis',(0.,0.,-1.));
#1014=DIRECTION('ref_axis',(-0.661437827766148,0.749999999999999,0.));
#1015=DIRECTION('center_axis',(-7.77483428162678E-13,0.,-1.));
#1016=DIRECTION('ref_axis',(-0.661437827766148,0.749999999999999,0.));
#1017=DIRECTION('center_axis',(0.,0.,-1.));
#1018=DIRECTION('ref_axis',(-0.661437827766148,0.749999999999999,0.));
#1019=DIRECTION('center_axis',(0.,0.,-1.));
#1020=DIRECTION('ref_axis',(-0.661437827766148,0.749999999999999,0.));
#1021=DIRECTION('',(0.,0.,-1.));
#1022=DIRECTION('center_axis',(0.,-1.,0.));
#1023=DIRECTION('ref_axis',(-1.,0.,0.));
#1024=DIRECTION('center_axis',(0.,1.,0.));
#1025=DIRECTION('ref_axis',(0.903294529776489,0.,-0.429020969739094));
#1026=DIRECTION('',(-1.,0.,0.));
#1027=DIRECTION('',(0.,0.,-1.));
#1028=DIRECTION('center_axis',(0.,0.,-1.));
#1029=DIRECTION('ref_axis',(0.994099394285158,-0.108473011767361,0.));
#1030=DIRECTION('center_axis',(0.,0.,-1.));
#1031=DIRECTION('ref_axis',(-0.661437827766148,0.749999999999999,0.));
#1032=DIRECTION('center_axis',(-7.77483428162678E-13,0.,-1.));
#1033=DIRECTION('ref_axis',(-1.,0.,7.77483428162678E-13));
#1034=DIRECTION('',(0.,1.,0.));
#1035=DIRECTION('',(-1.,0.,7.77483428162678E-13));
#1036=DIRECTION('',(0.,1.,0.));
#1037=DIRECTION('center_axis',(-7.77483428162678E-13,0.,-1.));
#1038=DIRECTION('ref_axis',(-1.,0.,7.77483428162678E-13));
#1039=DIRECTION('',(0.,1.,0.));
#1040=DIRECTION('',(0.,1.,0.));
#1041=DIRECTION('center_axis',(0.,1.,0.));
#1042=DIRECTION('ref_axis',(-0.94412803872848,0.,0.329578892659578));
#1043=DIRECTION('center_axis',(0.,1.,0.));
#1044=DIRECTION('ref_axis',(-0.94412803872848,0.,0.329578892659578));
#1045=DIRECTION('',(0.,1.,0.));
#1046=DIRECTION('center_axis',(0.,1.,0.));
#1047=DIRECTION('ref_axis',(-0.94412803872848,0.,0.329578892659578));
#1048=DIRECTION('center_axis',(0.,1.,0.));
#1049=DIRECTION('ref_axis',(0.328671099059157,0.,-0.944444444445117));
#1050=DIRECTION('center_axis',(0.,-1.,0.));
#1051=DIRECTION('ref_axis',(0.328671099059157,0.,-0.944444444445117));
#1052=DIRECTION('',(0.667599338495105,0.707106781186546,0.23304746993027));
#1053=DIRECTION('center_axis',(0.,1.,0.));
#1054=DIRECTION('ref_axis',(0.328671099059157,0.,-0.944444444445117));
#1055=DIRECTION('center_axis',(-0.667599338495109,0.707106781186543,-0.233047469930269));
#1056=DIRECTION('ref_axis',(-0.32957889265212,0.,0.944128038731084));
#1057=DIRECTION('',(-0.32957889265212,0.,0.944128038731084));
#1058=DIRECTION('',(0.667599338495099,0.707106781186553,0.233047469930267));
#1059=DIRECTION('',(0.32957889265212,0.,-0.944128038731084));
#1060=DIRECTION('center_axis',(0.,-1.,0.));
#1061=DIRECTION('ref_axis',(-0.903294529776488,0.,0.429020969739094));
#1062=DIRECTION('center_axis',(0.,1.,0.));
#1063=DIRECTION('ref_axis',(-0.903294529776488,0.,0.429020969739094));
#1064=DIRECTION('',(0.63872568741367,0.707106781186546,-0.303363636973744));
#1065=DIRECTION('center_axis',(0.,-1.,0.));
#1066=DIRECTION('ref_axis',(-0.903294529776488,0.,0.429020969739094));
#1067=DIRECTION('center_axis',(-0.638725687413238,0.707106781186541,0.303363636974665));
#1068=DIRECTION('ref_axis',(0.429020969740396,0.,0.90329452977587));
#1069=DIRECTION('',(0.429020969740396,0.,0.90329452977587));
#1070=DIRECTION('',(0.638725687413226,0.707106781186554,-0.303363636974659));
#1071=DIRECTION('',(-0.429020969740396,0.,-0.90329452977587));
#1072=DIRECTION('center_axis',(0.,1.,0.));
#1073=DIRECTION('ref_axis',(-0.903294529776489,0.,0.429020969739094));
#1074=DIRECTION('',(-0.638725687413594,0.707106781186549,-0.303363636973896));
#1075=DIRECTION('center_axis',(0.,1.,0.));
#1076=DIRECTION('ref_axis',(-0.903294529776488,0.,0.429020969739094));
#1077=DIRECTION('center_axis',(0.,-1.,0.));
#1078=DIRECTION('ref_axis',(-0.903294529776489,0.,0.429020969739094));
#1079=DIRECTION('center_axis',(0.638725687414036,0.707106781186544,0.303363636972978));
#1080=DIRECTION('ref_axis',(0.429020969738011,0.,-0.903294529777003));
#1081=DIRECTION('',(0.429020969738011,0.,-0.903294529777003));
#1082=DIRECTION('',(-0.638725687414028,0.707106781186552,-0.303363636972975));
#1083=DIRECTION('',(-0.429020969738011,0.,0.903294529777003));
#1084=DIRECTION('center_axis',(0.,-1.,0.));
#1085=DIRECTION('ref_axis',(0.94412803872848,0.,-0.329578892659578));
#1086=DIRECTION('center_axis',(0.,1.,0.));
#1087=DIRECTION('ref_axis',(0.94412803872848,0.,-0.329578892659578));
#1088=DIRECTION('',(-0.667599338493264,0.707106781186547,0.233047469935539));
#1089=DIRECTION('center_axis',(0.,-1.,0.));
#1090=DIRECTION('ref_axis',(0.94412803872848,0.,-0.329578892659578));
#1091=DIRECTION('center_axis',(0.667599338493269,0.707106781186541,-0.233047469935543));
#1092=DIRECTION('ref_axis',(-0.329578892659578,0.,-0.94412803872848));
#1093=DIRECTION('',(-0.329578892659578,0.,-0.94412803872848));
#1094=DIRECTION('',(-0.667599338493259,0.707106781186553,0.233047469935537));
#1095=DIRECTION('',(0.329578892659578,0.,0.94412803872848));
#1096=DIRECTION('center_axis',(0.,1.,0.));
#1097=DIRECTION('ref_axis',(-0.94412803872848,0.,0.329578892659578));
#1098=DIRECTION('center_axis',(0.,-1.,0.));
#1099=DIRECTION('ref_axis',(-0.94412803872848,0.,0.329578892659578));
#1100=DIRECTION('center_axis',(-0.903294529777003,0.,-0.429020969738011));
#1101=DIRECTION('ref_axis',(-0.429020969738011,0.,0.903294529777003));
#1102=DIRECTION('',(0.,1.,0.));
#1103=DIRECTION('',(-0.429020969738011,0.,0.903294529777003));
#1104=DIRECTION('',(0.,1.,0.));
#1105=DIRECTION('center_axis',(0.,1.,0.));
#1106=DIRECTION('ref_axis',(0.94412803872848,0.,-0.329578892659578));
#1107=DIRECTION('',(0.,1.,0.));
#1108=DIRECTION('center_axis',(0.,-1.,0.));
#1109=DIRECTION('ref_axis',(0.94412803872848,0.,-0.329578892659578));
#1110=DIRECTION('center_axis',(-0.94412803872848,0.,0.329578892659578));
#1111=DIRECTION('ref_axis',(0.329578892659578,0.,0.94412803872848));
#1112=DIRECTION('',(0.329578892659578,0.,0.94412803872848));
#1113=DIRECTION('center_axis',(0.,1.,0.));
#1114=DIRECTION('ref_axis',(0.328671099059157,0.,-0.944444444445117));
#1115=DIRECTION('',(0.,1.,0.));
#1116=DIRECTION('center_axis',(0.,1.,0.));
#1117=DIRECTION('ref_axis',(0.328671099059157,0.,-0.944444444445117));
#1118=DIRECTION('center_axis',(0.944128038731083,0.,0.32957889265212));
#1119=DIRECTION('ref_axis',(0.32957889265212,0.,-0.944128038731084));
#1120=DIRECTION('',(0.,1.,0.));
#1121=DIRECTION('',(0.32957889265212,0.,-0.944128038731084));
#1122=DIRECTION('center_axis',(0.,1.,0.));
#1123=DIRECTION('ref_axis',(-0.903294529776488,0.,0.429020969739094));
#1124=DIRECTION('',(0.,1.,0.));
#1125=DIRECTION('center_axis',(0.,-1.,0.));
#1126=DIRECTION('ref_axis',(-0.903294529776488,0.,0.429020969739094));
#1127=DIRECTION('center_axis',(0.90329452977587,0.,-0.429020969740396));
#1128=DIRECTION('ref_axis',(-0.429020969740396,0.,-0.90329452977587));
#1129=DIRECTION('',(0.,1.,0.));
#1130=DIRECTION('',(-0.429020969740396,0.,-0.90329452977587));
#1131=DIRECTION('center_axis',(0.,1.,0.));
#1132=DIRECTION('ref_axis',(-1.21093611328761E-13,0.,1.));
#1133=DIRECTION('center_axis',(0.,1.,0.));
#1134=DIRECTION('ref_axis',(0.903294529776489,0.,-0.429020969739094));
#1135=DIRECTION('center_axis',(0.,-1.,0.));
#1136=DIRECTION('ref_axis',(1.,0.,0.));
#1137=DIRECTION('',(0.32957889265212,0.,-0.944128038731084));
#1138=DIRECTION('center_axis',(0.,-1.,0.));
#1139=DIRECTION('ref_axis',(-0.944128038731084,0.,-0.32957889265212));
#1140=DIRECTION('',(-0.429020969741697,0.,-0.903294529775252));
#1141=DIRECTION('center_axis',(0.,1.,0.));
#1142=DIRECTION('ref_axis',(-0.903294529777621,0.,-0.429020969736708));
#1143=DIRECTION('',(-0.429020969736709,0.,0.903294529777621));
#1144=DIRECTION('center_axis',(0.,-1.,0.));
#1145=DIRECTION('ref_axis',(0.903294529777622,0.,0.429020969736708));
#1146=DIRECTION('',(0.329578892659578,0.,0.94412803872848));
#1147=DIRECTION('center_axis',(0.,1.,0.));
#1148=DIRECTION('ref_axis',(-0.347985272675072,0.,-0.93750000000067));
#1149=DIRECTION('',(-1.,0.,7.76869964691829E-13));
#1150=DIRECTION('center_axis',(0.,1.,0.));
#1151=DIRECTION('ref_axis',(0.944128038731084,0.,0.329578892652119));
#1152=DIRECTION('center_axis',(0.,-1.,0.));
#1153=DIRECTION('ref_axis',(1.,0.,0.));
#1154=DIRECTION('center_axis',(0.944128038731084,0.,0.32957889265212));
#1155=DIRECTION('ref_axis',(0.32957889265212,0.,-0.944128038731084));
#1156=DIRECTION('',(0.32957889265212,0.,-0.944128038731084));
#1157=DIRECTION('',(0.,1.,0.));
#1158=DIRECTION('',(0.,1.,0.));
#1159=DIRECTION('center_axis',(0.,1.,0.));
#1160=DIRECTION('ref_axis',(-0.944128038731084,0.,-0.32957889265212));
#1161=DIRECTION('center_axis',(0.,-1.,0.));
#1162=DIRECTION('ref_axis',(-0.944128038731084,0.,-0.32957889265212));
#1163=DIRECTION('',(0.,1.,0.));
#1164=DIRECTION('center_axis',(0.903294529775252,0.,-0.429020969741697));
#1165=DIRECTION('ref_axis',(-0.429020969741697,0.,-0.903294529775252));
#1166=DIRECTION('',(-0.429020969741697,0.,-0.903294529775252));
#1167=DIRECTION('',(0.,1.,0.));
#1168=DIRECTION('center_axis',(0.,1.,0.));
#1169=DIRECTION('ref_axis',(2.76146626932733E-12,0.,1.));
#1170=DIRECTION('center_axis',(0.,1.,0.));
#1171=DIRECTION('ref_axis',(-0.903294529777621,0.,-0.429020969736708));
#1172=DIRECTION('',(0.,1.,0.));
#1173=DIRECTION('center_axis',(-0.903294529777621,0.,-0.429020969736709));
#1174=DIRECTION('ref_axis',(-0.429020969736709,0.,0.903294529777621));
#1175=DIRECTION('',(-0.429020969736709,0.,0.903294529777621));
#1176=DIRECTION('',(0.,1.,0.));
#1177=DIRECTION('center_axis',(0.,1.,0.));
#1178=DIRECTION('ref_axis',(0.903294529777622,0.,0.429020969736708));
#1179=DIRECTION('center_axis',(0.,-1.,0.));
#1180=DIRECTION('ref_axis',(0.903294529777622,0.,0.429020969736708));
#1181=DIRECTION('',(0.,1.,0.));
#1182=DIRECTION('center_axis',(-0.94412803872848,0.,0.329578892659578));
#1183=DIRECTION('ref_axis',(0.329578892659578,0.,0.94412803872848));
#1184=DIRECTION('',(0.329578892659578,0.,0.94412803872848));
#1185=DIRECTION('',(0.,1.,0.));
#1186=DIRECTION('center_axis',(0.,1.,0.));
#1187=DIRECTION('ref_axis',(-0.347985272675072,0.,-0.93750000000067));
#1188=DIRECTION('center_axis',(0.,1.,0.));
#1189=DIRECTION('ref_axis',(-0.347985272675072,0.,-0.93750000000067));
#1190=DIRECTION('',(0.,1.,0.));
#1191=DIRECTION('center_axis',(-7.76869964691829E-13,0.,-1.));
#1192=DIRECTION('ref_axis',(-1.,0.,7.76869964691829E-13));
#1193=DIRECTION('',(-1.,0.,7.76869964691829E-13));
#1194=DIRECTION('',(0.,1.,0.));
#1195=DIRECTION('center_axis',(0.,1.,0.));
#1196=DIRECTION('ref_axis',(0.944128038731084,0.,0.329578892652119));
#1197=DIRECTION('center_axis',(0.,1.,0.));
#1198=DIRECTION('ref_axis',(0.944128038731084,0.,0.329578892652119));
#1199=DIRECTION('center_axis',(0.987210930472886,0.,-0.159419505565843));
#1200=DIRECTION('ref_axis',(-0.159419505565843,0.,-0.987210930472886));
#1201=DIRECTION('',(0.159419505565843,0.,0.987210930472886));
#1202=DIRECTION('',(0.,1.,0.));
#1203=DIRECTION('',(-0.159419505565843,0.,-0.987210930472886));
#1204=DIRECTION('',(0.,1.,0.));
#1205=DIRECTION('center_axis',(1.,0.,1.11022302462516E-16));
#1206=DIRECTION('ref_axis',(1.11022302462516E-16,0.,-1.));
#1207=DIRECTION('',(-1.11022302462516E-16,0.,1.));
#1208=DIRECTION('',(1.11022302462516E-16,0.,-1.));
#1209=DIRECTION('',(0.,1.,0.));
#1210=DIRECTION('center_axis',(0.,0.,1.));
#1211=DIRECTION('ref_axis',(1.,0.,0.));
#1212=DIRECTION('',(-1.,0.,0.));
#1213=DIRECTION('',(1.,0.,0.));
#1214=DIRECTION('',(0.,1.,0.));
#1215=DIRECTION('center_axis',(-1.,0.,0.));
#1216=DIRECTION('ref_axis',(0.,0.,1.));
#1217=DIRECTION('',(0.,0.,-1.));
#1218=DIRECTION('',(0.,0.,1.));
#1219=DIRECTION('',(0.,1.,0.));
#1220=DIRECTION('center_axis',(-0.987210930472885,0.,-0.159419505565852));
#1221=DIRECTION('ref_axis',(-0.159419505565852,0.,0.987210930472885));
#1222=DIRECTION('',(0.159419505565852,0.,-0.987210930472885));
#1223=DIRECTION('',(-0.159419505565852,0.,0.987210930472885));
#1224=DIRECTION('',(0.,1.,0.));
#1225=DIRECTION('center_axis',(0.,1.,0.));
#1226=DIRECTION('ref_axis',(0.987210930472886,0.,-0.159419505565843));
#1227=DIRECTION('center_axis',(0.,1.,0.));
#1228=DIRECTION('ref_axis',(0.987210930472886,0.,-0.159419505565843));
#1229=DIRECTION('center_axis',(0.,1.,0.));
#1230=DIRECTION('ref_axis',(0.987210930472886,0.,-0.159419505565843));
#1231=DIRECTION('center_axis',(0.,1.,0.));
#1232=DIRECTION('ref_axis',(-1.,0.,0.));
#1233=DIRECTION('center_axis',(0.,1.,0.));
#1234=DIRECTION('ref_axis',(-1.,0.,0.));
#1235=CARTESIAN_POINT('',(0.,0.,0.));
#1236=CARTESIAN_POINT('Origin',(-1.81292417994472E-6,60.9499991921233,68.));
#1237=CARTESIAN_POINT('',(2.90473569673135,55.6999991921233,6.35686852551279));
#1238=CARTESIAN_POINT('',(3.9686251536727,65.4499991921233,6.67524771177231));
#1239=CARTESIAN_POINT('Ctrl Pts',(2.90473569673135,55.6999991921233,6.35686852551279));
#1240=CARTESIAN_POINT('Ctrl Pts',(3.40809084671269,55.9784972082812,6.48244588204123));
#1241=CARTESIAN_POINT('Ctrl Pts',(3.86203416128516,56.3267537980378,6.63117216625008));
#1242=CARTESIAN_POINT('Ctrl Pts',(4.76853313985519,57.2332527624514,6.97379640458804));
#1243=CARTESIAN_POINT('Ctrl Pts',(5.22737043960132,57.898505022693,7.19282304632324));
#1244=CARTESIAN_POINT('Ctrl Pts',(5.84331169601635,59.3711675878131,7.51304637614681));
#1245=CARTESIAN_POINT('Ctrl Pts',(5.99999818707581,60.1801687964296,7.60769410788871));
#1246=CARTESIAN_POINT('Ctrl Pts',(5.99999818707581,61.719829579653,7.60769410788871));
#1247=CARTESIAN_POINT('Ctrl Pts',(5.84331169927029,62.5288307805215,7.51304637817297));
#1248=CARTESIAN_POINT('Ctrl Pts',(5.22737045455148,64.0014933339412,7.19282305376128));
#1249=CARTESIAN_POINT('Ctrl Pts',(4.76853316326046,64.6667455901772,6.97379641520817));
#1250=CARTESIAN_POINT('Ctrl Pts',(4.15502754590827,65.2802512075294,6.74191320109939));
#1251=CARTESIAN_POINT('Ctrl Pts',(4.06362357459536,65.3662184598882,6.70853878191993));
#1252=CARTESIAN_POINT('Ctrl Pts',(3.9686251536727,65.4499991921233,6.67524771177231));
#1253=CARTESIAN_POINT('',(2.90473569673135,55.6999991921233,9.49999999999378));
#1254=CARTESIAN_POINT('',(2.90473569673135,55.6999991921233,68.));
#1255=CARTESIAN_POINT('',(2.95803989154301,55.729846964972,9.49999999999375));
#1256=CARTESIAN_POINT('Origin',(-1.81292417994472E-6,60.9499991921233,9.49999999999374));
#1257=CARTESIAN_POINT('',(3.9686251536727,65.4499991921233,9.92225189859675));
#1258=CARTESIAN_POINT('Ctrl Pts',(3.9686251536727,65.4499991921233,9.92225189859675));
#1259=CARTESIAN_POINT('Ctrl Pts',(4.0637614750804,65.3660968430919,9.96899269732256));
#1260=CARTESIAN_POINT('Ctrl Pts',(4.15515829361195,65.2801204598258,10.0159847862224));
#1261=CARTESIAN_POINT('Ctrl Pts',(4.76454951461295,64.6707292388247,10.3417179163343));
#1262=CARTESIAN_POINT('Ctrl Pts',(5.21949233877982,64.0139996922591,10.6576561105314));
#1263=CARTESIAN_POINT('Ctrl Pts',(5.83706452767443,62.5499530314138,11.1383814050113));
#1264=CARTESIAN_POINT('Ctrl Pts',(5.99999818707581,61.7390538585885,11.2917944459627));
#1265=CARTESIAN_POINT('Ctrl Pts',(5.99999818707581,60.1609445097593,11.2917944459627));
#1266=CARTESIAN_POINT('Ctrl Pts',(5.83706452138211,59.3500453229131,11.1383813989182));
#1267=CARTESIAN_POINT('Ctrl Pts',(5.21949231084152,57.8859986407587,10.6576560899789));
#1268=CARTESIAN_POINT('Ctrl Pts',(4.76454947116768,57.2292690867619,10.3417178878838));
#1269=CARTESIAN_POINT('Ctrl Pts',(3.87765099113662,56.3423706325856,9.86765097877482));
#1270=CARTESIAN_POINT('Ctrl Pts',(3.44290324029642,56.0045987239572,9.66873472088239));
#1271=CARTESIAN_POINT('Ctrl Pts',(2.95803989154302,55.729846964972,9.49999999999374));
#1272=CARTESIAN_POINT('',(3.9686251536727,65.4499991921233,68.));
#1273=CARTESIAN_POINT('Origin',(2.90473569673135,55.6999991921233,68.));
#1274=CARTESIAN_POINT('',(-2.90473932257972,55.6999991921233,6.35686943009745));
#1275=CARTESIAN_POINT('Origin',(1.03306252441371E-11,55.6999991921233,18.));
#1276=CARTESIAN_POINT('',(-2.90473932257972,55.6999991921233,9.4999999999983));
#1277=CARTESIAN_POINT('',(-2.90473932257972,55.6999991921233,68.));
#1278=CARTESIAN_POINT('',(2.93138779411444,55.6999991921233,9.49999999999376));
#1279=CARTESIAN_POINT('Origin',(-3.96862877952107,65.4499991921233,68.));
#1280=CARTESIAN_POINT('',(-3.96862877952107,65.4499991921233,6.67524898241576));
#1281=CARTESIAN_POINT('Origin',(1.03306252441371E-11,65.4499991921233,18.));
#1282=CARTESIAN_POINT('',(2.95803989154301,65.4499991921233,9.49999999999374));
#1283=CARTESIAN_POINT('Origin',(1.05226938273972E-11,65.4499991921233,18.));
#1284=CARTESIAN_POINT('',(-2.95803989152293,65.4499991921233,9.49999999999834));
#1285=CARTESIAN_POINT('',(-0.505294444011769,65.4499991921233,9.49999999999643));
#1286=CARTESIAN_POINT('',(-3.96862877952107,65.4499991921233,9.92225368000423));
#1287=CARTESIAN_POINT('Origin',(1.05226938273972E-11,65.4499991921233,18.));
#1288=CARTESIAN_POINT('',(-3.96862877952107,65.4499991921233,68.));
#1289=CARTESIAN_POINT('Origin',(-3.96862877952107,65.4499991921233,68.));
#1290=CARTESIAN_POINT('',(3.9686251536727,65.4499991921233,61.5117066721648));
#1291=CARTESIAN_POINT('',(-3.96862877952107,65.4499991921233,61.5117056003229));
#1292=CARTESIAN_POINT('Origin',(7.68796137862182E-11,65.4499991921233,48.0859845541468));
#1293=CARTESIAN_POINT('',(3.9686251536727,65.4499991921233,68.));
#1294=CARTESIAN_POINT('',(3.9686251536727,65.4499991921233,68.));
#1295=CARTESIAN_POINT('',(-3.96862877952107,65.4499991921233,68.));
#1296=CARTESIAN_POINT('',(-10.4843140600064,65.4499991921233,68.));
#1297=CARTESIAN_POINT('',(-3.96862877952107,65.4499991921233,68.));
#1298=CARTESIAN_POINT('Origin',(-1.81292417994472E-6,60.9499991921233,68.));
#1299=CARTESIAN_POINT('Ctrl Pts',(-3.96862877952106,65.4499991921233,6.67524898241576));
#1300=CARTESIAN_POINT('Ctrl Pts',(-4.06362721271404,65.3662184490668,6.7085400910145));
#1301=CARTESIAN_POINT('Ctrl Pts',(-4.15503119512683,65.2802511855274,6.74191454774376));
#1302=CARTESIAN_POINT('Ctrl Pts',(-4.76853679771723,64.6667455733561,6.97379798482628));
#1303=CARTESIAN_POINT('Ctrl Pts',(-5.2273740772334,64.0014933367869,7.19282480414899));
#1304=CARTESIAN_POINT('Ctrl Pts',(-5.84331531770475,62.5288308029725,7.51304839241836));
#1305=CARTESIAN_POINT('Ctrl Pts',(-6.00000181292417,61.7198295999555,7.60769620128517));
#1306=CARTESIAN_POINT('Ctrl Pts',(-6.00000181292417,60.9499991921233,7.60769620128517));
#1307=CARTESIAN_POINT('Ctrl Pts',(-6.00000181292417,60.1801687842911,7.60769620128517));
#1308=CARTESIAN_POINT('Ctrl Pts',(-5.84331531770476,59.3711675812741,7.51304839241836));
#1309=CARTESIAN_POINT('Ctrl Pts',(-5.22737407723339,57.8985050474597,7.19282480414898));
#1310=CARTESIAN_POINT('Ctrl Pts',(-4.76853679771723,57.2332528108905,6.97379798482628));
#1311=CARTESIAN_POINT('Ctrl Pts',(-3.86203783948728,56.3267538385041,6.63117341341479));
#1312=CARTESIAN_POINT('Ctrl Pts',(-3.4080945034923,55.9784972253949,6.48244696085244));
#1313=CARTESIAN_POINT('Ctrl Pts',(-2.90473932257971,55.6999991921233,6.35686943009746));
#1314=CARTESIAN_POINT('',(-2.95803989152293,55.7298449103458,9.49999999999833));
#1315=CARTESIAN_POINT('Ctrl Pts',(-2.95803989152293,55.7298449103458,9.49999999999833));
#1316=CARTESIAN_POINT('Ctrl Pts',(-3.44290475000541,56.0045970799076,9.66873524627994));
#1317=CARTESIAN_POINT('Ctrl Pts',(-3.87765380862709,56.3423698029476,9.86765226311958));
#1318=CARTESIAN_POINT('Ctrl Pts',(-4.76455316178658,57.2292691819618,10.3417201776114));
#1319=CARTESIAN_POINT('Ctrl Pts',(-5.21949595927548,57.8859986895086,10.6576586764376));
#1320=CARTESIAN_POINT('Ctrl Pts',(-5.83706813558235,59.350045300092,11.1383844658383));
#1321=CARTESIAN_POINT('Ctrl Pts',(-6.00000181292417,60.160944466622,11.2917976890443));
#1322=CARTESIAN_POINT('Ctrl Pts',(-6.00000181292417,60.9499991921233,11.2917976890443));
#1323=CARTESIAN_POINT('Ctrl Pts',(-6.00000181292417,61.7390539176246,11.2917976890443));
#1324=CARTESIAN_POINT('Ctrl Pts',(-5.83706813558235,62.5499530841546,11.1383844658383));
#1325=CARTESIAN_POINT('Ctrl Pts',(-5.21949595927548,64.013999694738,10.6576586764376));
#1326=CARTESIAN_POINT('Ctrl Pts',(-4.76455316178658,64.6707292022848,10.3417201776114));
#1327=CARTESIAN_POINT('Ctrl Pts',(-4.15516196268886,65.2801204191474,10.0159866951855));
#1328=CARTESIAN_POINT('Ctrl Pts',(-4.06376512353656,65.3660968231537,9.96899454284919));
#1329=CARTESIAN_POINT('Ctrl Pts',(-3.96862877952106,65.4499991921233,9.92225368000423));
#1330=CARTESIAN_POINT('Origin',(-1.81292417994472E-6,60.9499991921233,9.49999999999374));
#1331=CARTESIAN_POINT('Origin',(-1.81292417994472E-6,60.9499991921233,68.));
#1332=CARTESIAN_POINT('',(-2.90473932257972,55.6999991921233,61.7813300944171));
#1333=CARTESIAN_POINT('Ctrl Pts',(-3.96862877952106,65.4499991921233,61.5117056003229));
#1334=CARTESIAN_POINT('Ctrl Pts',(-4.06359210610771,65.3662494101834,61.4836345425673));
#1335=CARTESIAN_POINT('Ctrl Pts',(-4.15499813357884,65.2802842466982,61.4555189078214));
#1336=CARTESIAN_POINT('Ctrl Pts',(-4.77025023690098,64.6650321364197,61.2598690369849));
#1337=CARTESIAN_POINT('Ctrl Pts',(-5.2300561558608,63.9970838181822,61.076697662212));
#1338=CARTESIAN_POINT('Ctrl Pts',(-5.8451253906322,62.5224853281711,60.8118099711038));
#1339=CARTESIAN_POINT('Ctrl Pts',(-6.00000181292417,61.7147799421017,60.7350943348379));
#1340=CARTESIAN_POINT('Ctrl Pts',(-6.00000181292417,60.9499991921233,60.7350943348379));
#1341=CARTESIAN_POINT('Ctrl Pts',(-6.00000181292417,60.1852184421449,60.7350943348379));
#1342=CARTESIAN_POINT('Ctrl Pts',(-5.84512539063219,59.3775130560754,60.8118099711038));
#1343=CARTESIAN_POINT('Ctrl Pts',(-5.2300561558608,57.9029145660644,61.076697662212));
#1344=CARTESIAN_POINT('Ctrl Pts',(-4.77025023690098,57.2349662478269,61.2598690369849));
#1345=CARTESIAN_POINT('Ctrl Pts',(-3.86143362387898,56.3261496245294,61.5488722797072));
#1346=CARTESIAN_POINT('Ctrl Pts',(-3.40729566730306,55.9780552426439,61.67473948872));
#1347=CARTESIAN_POINT('Ctrl Pts',(-2.90473932257972,55.6999991921233,61.7813300944171));
#1348=CARTESIAN_POINT('',(-2.90473932257972,55.6999991921233,68.));
#1349=CARTESIAN_POINT('Origin',(-1.81292417994472E-6,60.9499991921233,68.));
#1350=CARTESIAN_POINT('',(-2.90473932257972,55.6999991921233,68.));
#1351=CARTESIAN_POINT('Origin',(2.90473569673135,55.6999991921233,68.));
#1352=CARTESIAN_POINT('',(2.90473569673135,55.6999991921233,61.7813308634802));
#1353=CARTESIAN_POINT('Origin',(7.68796137862182E-11,55.6999991921233,48.0859845541468));
#1354=CARTESIAN_POINT('',(2.90473569673135,55.6999991921233,68.));
#1355=CARTESIAN_POINT('',(-7.04763182188024,55.6999991921233,68.));
#1356=CARTESIAN_POINT('',(2.90473569673135,55.6999991921233,68.));
#1357=CARTESIAN_POINT('Origin',(-1.81292417994472E-6,60.9499991921233,68.));
#1358=CARTESIAN_POINT('Ctrl Pts',(2.90473569673135,55.6999991921233,61.7813308634802));
#1359=CARTESIAN_POINT('Ctrl Pts',(3.40729201943446,55.9780552304605,61.6747404014967));
#1360=CARTESIAN_POINT('Ctrl Pts',(3.86142996046101,56.3261495955801,61.5488733291295));
#1361=CARTESIAN_POINT('Ctrl Pts',(4.77024658815274,57.2349662129962,61.2598703573161));
#1362=CARTESIAN_POINT('Ctrl Pts',(5.23005252128453,57.902914547911,61.0766991246619));
#1363=CARTESIAN_POINT('Ctrl Pts',(5.84512176734482,59.377513059444,60.8118116344841));
#1364=CARTESIAN_POINT('Ctrl Pts',(5.99999818707581,60.185218449134,60.7350960548017));
#1365=CARTESIAN_POINT('Ctrl Pts',(5.99999818707581,61.7147799292723,60.7350960548017));
#1366=CARTESIAN_POINT('Ctrl Pts',(5.8451217696715,62.5224853133258,60.811811633296));
#1367=CARTESIAN_POINT('Ctrl Pts',(5.2300525320891,63.9970838163309,61.0766991201949));
#1368=CARTESIAN_POINT('Ctrl Pts',(4.77024660511113,64.6650321483265,61.259870350879));
#1369=CARTESIAN_POINT('Ctrl Pts',(4.15499449081794,65.2802842626197,61.4555200398637));
#1370=CARTESIAN_POINT('Ctrl Pts',(4.06358847138664,65.3662494180084,61.4836356449205));
#1371=CARTESIAN_POINT('Ctrl Pts',(3.9686251536727,65.4499991921233,61.5117066721648));
#1372=CARTESIAN_POINT('Origin',(-1.81292417994472E-6,60.9499991921233,68.));
#1373=CARTESIAN_POINT('Origin',(2.95803989154301,54.3999991921233,9.49999999999374));
#1374=CARTESIAN_POINT('',(2.95803989154301,66.8999991921233,9.49999999999374));
#1375=CARTESIAN_POINT('',(2.95803989154301,54.3999991921233,9.49999999999374));
#1376=CARTESIAN_POINT('',(-2.95803989152293,66.8999991921233,9.49999999999834));
#1377=CARTESIAN_POINT('',(2.95803989154301,66.8999991921233,9.49999999999374));
#1378=CARTESIAN_POINT('',(-2.95803989152293,54.3999991921233,9.49999999999834));
#1379=CARTESIAN_POINT('Origin',(2.95803989154301,54.3999991921233,9.49999999999374));
#1380=CARTESIAN_POINT('',(-2.95803989152293,54.8999991921233,9.49999999999834));
#1381=CARTESIAN_POINT('',(-2.95803989152293,54.3999991921233,9.49999999999834));
#1382=CARTESIAN_POINT('',(3.91409127331599E-12,54.3999991921233,9.49999999999604));
#1383=CARTESIAN_POINT('Ctrl Pts',(-2.95803989152293,54.8999991921233,9.49999999999833));
#1384=CARTESIAN_POINT('Ctrl Pts',(-1.43676223303555,54.399999192138,9.49999999999715));
#1385=CARTESIAN_POINT('Ctrl Pts',(3.91403576216485E-12,54.399999192131,
9.49999999999604));
#1386=CARTESIAN_POINT('',(2.95803989154301,54.8999991921233,9.49999999999374));
#1387=CARTESIAN_POINT('Ctrl Pts',(3.91403576216476E-12,54.399999192127,
9.49999999999604));
#1388=CARTESIAN_POINT('Ctrl Pts',(1.43676223304898,54.399999192134,9.49999999999492));
#1389=CARTESIAN_POINT('Ctrl Pts',(2.95803989154301,54.8999991921233,9.49999999999374));
#1390=CARTESIAN_POINT('',(2.95803989154301,54.3999991921233,9.49999999999374));
#1391=CARTESIAN_POINT('Origin',(1.05226938273972E-11,54.3999991921233,18.));
#1392=CARTESIAN_POINT('',(-8.49715234854221,66.8999991921233,20.9662100339349));
#1393=CARTESIAN_POINT('Origin',(1.05226938273972E-11,66.8999991921233,18.));
#1394=CARTESIAN_POINT('',(-8.49715234854221,54.8999991921233,20.9662100339349));
#1395=CARTESIAN_POINT('',(-8.49715234854221,54.3999991921233,20.9662100339349));
#1396=CARTESIAN_POINT('Origin',(1.05226938273972E-11,54.8999991921233,18.));
#1397=CARTESIAN_POINT('Origin',(1.05226938273972E-11,54.6499991921233,18.));
#1398=CARTESIAN_POINT('',(8.02508832922494,54.3999991921233,20.8014205875431));
#1399=CARTESIAN_POINT('Origin',(1.05226938273972E-11,54.3999991921233,18.));
#1400=CARTESIAN_POINT('',(8.49715234859048,54.8999991921233,20.9662100338692));
#1401=CARTESIAN_POINT('',(8.02508832922494,54.3999991921233,20.8014205875431));
#1402=CARTESIAN_POINT('Origin',(1.05226938273972E-11,54.8999991921233,18.));
#1403=CARTESIAN_POINT('Origin',(4.58594875132487,54.6499991921233,31.4118940813551));
#1404=CARTESIAN_POINT('',(6.2112957870116,54.3999991921233,25.9973006445603));
#1405=CARTESIAN_POINT('',(4.3499167416421,54.3999991921233,31.3294993581921));
#1406=CARTESIAN_POINT('',(6.68335980637714,54.8999991921233,26.1620900908863));
#1407=CARTESIAN_POINT('',(6.2112957870116,54.3999991921233,25.9973006445603));
#1408=CARTESIAN_POINT('',(4.82198076100764,54.8999991921233,31.4942888045181));
#1409=CARTESIAN_POINT('Origin',(11.4040000000322,54.6499991921233,27.8099845541468));
#1410=CARTESIAN_POINT('',(6.43588008627933,54.3999991921233,30.1695998877033));
#1411=CARTESIAN_POINT('Origin',(11.4040000000322,54.3999991921233,27.8099845541468));
#1412=CARTESIAN_POINT('',(6.88752735116758,54.8999991921233,29.9550894028338));
#1413=CARTESIAN_POINT('',(6.43588008627933,54.3999991921233,30.1695998877033));
#1414=CARTESIAN_POINT('Origin',(11.4040000000322,54.8999991921233,27.8099845541468));
#1415=CARTESIAN_POINT('Origin',(10.0383340289505,54.6499991921233,37.1717679682103));
#1416=CARTESIAN_POINT('',(12.1944761520595,54.3999991921233,42.2942014626698));
#1417=CARTESIAN_POINT('',(9.81251039650652,54.3999991921233,37.2790232106454));
#1418=CARTESIAN_POINT('',(12.6461234169474,54.8999991921233,42.0796909777996));
#1419=CARTESIAN_POINT('',(12.1944761520595,54.3999991921233,42.2942014626698));
#1420=CARTESIAN_POINT('',(10.2641576613945,54.8999991921233,37.0645127257752));
#1421=CARTESIAN_POINT('Origin',(7.68796137862182E-11,54.6499991921233,48.0859845541468));
#1422=CARTESIAN_POINT('',(-12.194476151904,54.3999991921233,42.2942014626662));
#1423=CARTESIAN_POINT('',(-12.6461234167922,54.8999991921233,42.0796909777965));
#1424=CARTESIAN_POINT('',(-12.194476151904,54.3999991921233,42.2942014626662));
#1425=CARTESIAN_POINT('Origin',(7.68796137862182E-11,54.8999991921233,48.0859845541468));
#1426=CARTESIAN_POINT('Origin',(7.68796137862182E-11,54.3999991921233,48.0859845541468));
#1427=CARTESIAN_POINT('Origin',(-7.15903599596669,54.6499991921233,31.1094671807329));
#1428=CARTESIAN_POINT('',(-6.4358800861918,54.3999991921233,30.169599887715));
#1429=CARTESIAN_POINT('',(-6.93321236352244,54.3999991921233,31.2167224231674));
#1430=CARTESIAN_POINT('',(-6.8875273510803,54.8999991921233,29.955089402846));
#1431=CARTESIAN_POINT('',(-6.4358800861918,54.3999991921233,30.169599887715));
#1432=CARTESIAN_POINT('',(-7.38485962841094,54.8999991921233,31.0022119382984));
#1433=CARTESIAN_POINT('Origin',(-11.4039999999678,54.6499991921233,27.8099845541468));
#1434=CARTESIAN_POINT('',(-6.21129578695533,54.3999991921233,25.9973006445171));
#1435=CARTESIAN_POINT('Origin',(-11.4039999999678,54.3999991921233,27.8099845541468));
#1436=CARTESIAN_POINT('',(-6.68335980631957,54.8999991921233,26.1620900908468));
#1437=CARTESIAN_POINT('',(-6.21129578695533,54.3999991921233,25.9973006445171));
#1438=CARTESIAN_POINT('Origin',(-11.4039999999678,54.8999991921233,27.8099845541468));
#1439=CARTESIAN_POINT('Origin',(-5.4928450223217,54.6499991921233,28.8139540528874));
#1440=CARTESIAN_POINT('',(-8.02508832917797,54.3999991921233,20.8014205876052));
#1441=CARTESIAN_POINT('',(-5.25681301263958,54.3999991921233,28.7315593297225));
#1442=CARTESIAN_POINT('',(-8.02508832917797,54.3999991921233,20.8014205876052));
#1443=CARTESIAN_POINT('',(-5.72887703200382,54.8999991921233,28.8963487760523));
#1444=CARTESIAN_POINT('Origin',(1.05226938273972E-11,54.6499991921233,18.));
#1445=CARTESIAN_POINT('Origin',(1.05226938273972E-11,54.3999991921233,18.));
#1446=CARTESIAN_POINT('Origin',(-6.8875273510803,54.3999991921233,29.955089402846));
#1447=CARTESIAN_POINT('',(-6.8875273510803,66.8999991921233,29.955089402846));
#1448=CARTESIAN_POINT('',(-6.8875273510803,54.3999991921233,29.955089402846));
#1449=CARTESIAN_POINT('',(-12.6461234167922,66.8999991921233,42.0796909777965));
#1450=CARTESIAN_POINT('',(-6.8875273510803,66.8999991921233,29.955089402846));
#1451=CARTESIAN_POINT('',(-12.6461234167922,54.3999991921233,42.0796909777965));
#1452=CARTESIAN_POINT('Origin',(-11.4039999999678,54.3999991921233,27.8099845541468));
#1453=CARTESIAN_POINT('',(-6.68335980631957,66.8999991921233,26.1620900908468));
#1454=CARTESIAN_POINT('',(-6.68335980631957,54.3999991921233,26.1620900908468));
#1455=CARTESIAN_POINT('Origin',(-11.4039999999678,66.8999991921233,27.8099845541468));
#1456=CARTESIAN_POINT('Origin',(-8.49715234854221,54.3999991921233,20.9662100339349));
#1457=CARTESIAN_POINT('',(-8.49715234854221,66.8999991921233,20.9662100339349));
#1458=CARTESIAN_POINT('Origin',(1.05226938273972E-11,54.3999991921233,18.));
#1459=CARTESIAN_POINT('',(8.49715234859048,66.8999991921233,20.9662100338692));
#1460=CARTESIAN_POINT('',(8.49715234859048,54.3999991921233,20.9662100338692));
#1461=CARTESIAN_POINT('Origin',(1.05226938273972E-11,66.8999991921233,18.));
#1462=CARTESIAN_POINT('Origin',(6.68335980637714,54.3999991921233,26.1620900908863));
#1463=CARTESIAN_POINT('',(6.68335980637714,66.8999991921233,26.1620900908863));
#1464=CARTESIAN_POINT('',(6.68335980637714,54.3999991921233,26.1620900908863));
#1465=CARTESIAN_POINT('',(6.68335980637714,66.8999991921233,26.1620900908863));
#1466=CARTESIAN_POINT('Origin',(11.4040000000322,54.3999991921233,27.8099845541468));
#1467=CARTESIAN_POINT('',(6.88752735116758,66.8999991921233,29.9550894028338));
#1468=CARTESIAN_POINT('',(6.88752735116758,54.3999991921233,29.9550894028338));
#1469=CARTESIAN_POINT('Origin',(11.4040000000322,66.8999991921233,27.8099845541468));
#1470=CARTESIAN_POINT('Origin',(12.6461234169474,54.3999991921233,42.0796909777996));
#1471=CARTESIAN_POINT('',(12.6461234169474,66.8999991921233,42.0796909777996));
#1472=CARTESIAN_POINT('',(12.6461234169474,54.3999991921233,42.0796909777996));
#1473=CARTESIAN_POINT('',(12.6461234169474,66.8999991921233,42.0796909777996));
#1474=CARTESIAN_POINT('Origin',(7.68796137862182E-11,54.3999991921233,48.0859845541468));
#1475=CARTESIAN_POINT('Origin',(7.68796137862182E-11,66.8999991921233,48.0859845541468));
#1476=CARTESIAN_POINT('Origin',(7.68807240092428E-11,54.3999991921233,35.7929922770701));
#1477=CARTESIAN_POINT('',(5.73923176764606,54.3999991921233,25.8325111982342));
#1478=CARTESIAN_POINT('',(7.5530243098594,54.3999991921233,20.636631141217));
#1479=CARTESIAN_POINT('',(7.5530243098594,54.3999991921233,20.636631141217));
#1480=CARTESIAN_POINT('',(5.98423282138103,54.3999991921233,30.3841103725968));
#1481=CARTESIAN_POINT('Origin',(11.4040000000322,54.3999991921233,27.8099845541468));
#1482=CARTESIAN_POINT('',(11.7428288871549,54.3999991921233,42.5087119475048));
#1483=CARTESIAN_POINT('',(5.98423282138103,54.3999991921233,30.3841103725968));
#1484=CARTESIAN_POINT('',(-11.7428288870319,54.3999991921233,42.5087119475697));
#1485=CARTESIAN_POINT('Origin',(7.68785035631936E-11,54.3999991921233,48.0859845541468));
#1486=CARTESIAN_POINT('',(-5.98423282129649,54.3999991921233,30.3841103725697));
#1487=CARTESIAN_POINT('',(-11.7428288870319,54.3999991921233,42.5087119475697));
#1488=CARTESIAN_POINT('',(-5.73923176759109,54.3999991921233,25.8325111981873));
#1489=CARTESIAN_POINT('Origin',(-11.4039999999678,54.3999991921233,27.8099845541468));
#1490=CARTESIAN_POINT('',(-7.55302430981373,54.3999991921233,20.6366311412754));
#1491=CARTESIAN_POINT('',(-5.73923176759109,54.3999991921233,25.8325111981873));
#1492=CARTESIAN_POINT('',(-2.78388218138873,54.3999991921233,10.4999999999982));
#1493=CARTESIAN_POINT('Origin',(1.05238040504219E-11,54.3999991921233,18.));
#1494=CARTESIAN_POINT('',(2.78388218140966,54.3999991921233,10.4999999999939));
#1495=CARTESIAN_POINT('',(-2.78388218138873,54.3999991921233,10.4999999999982));
#1496=CARTESIAN_POINT('Origin',(1.05238040504219E-11,54.3999991921233,18.));
#1497=CARTESIAN_POINT('Origin',(7.68807240092428E-11,66.8999991921233,35.7929922770701));
#1498=CARTESIAN_POINT('Origin',(5.73923176764606,54.1999991921233,25.8325111982342));
#1499=CARTESIAN_POINT('',(5.73923176764606,54.1999991921233,25.8325111982342));
#1500=CARTESIAN_POINT('',(7.5530243098594,54.1999991921233,20.636631141217));
#1501=CARTESIAN_POINT('',(3.69006364024803,54.1999991921233,31.7026598281486));
#1502=CARTESIAN_POINT('',(5.73923176764606,54.1999991921233,25.8325111982342));
#1503=CARTESIAN_POINT('',(7.5530243098594,54.1999991921233,20.636631141217));
#1504=CARTESIAN_POINT('Origin',(11.4040000000322,54.1999991921233,27.8099845541468));
#1505=CARTESIAN_POINT('',(5.98423282138103,54.1999991921233,30.3841103725968));
#1506=CARTESIAN_POINT('Origin',(11.4040000000322,54.1999991921233,27.8099845541468));
#1507=CARTESIAN_POINT('',(5.98423282138103,54.1999991921233,30.3841103725968));
#1508=CARTESIAN_POINT('Origin',(11.7428288871548,54.1999991921233,42.5087119475048));
#1509=CARTESIAN_POINT('',(11.7428288871549,54.1999991921233,42.5087119475048));
#1510=CARTESIAN_POINT('',(9.59474036814572,54.1999991921233,37.9859572442506));
#1511=CARTESIAN_POINT('',(11.7428288871549,54.1999991921233,42.5087119475048));
#1512=CARTESIAN_POINT('Origin',(7.68785035631936E-11,54.1999991921233,48.0859845541468));
#1513=CARTESIAN_POINT('',(-11.7428288870319,54.1999991921233,42.5087119475697));
#1514=CARTESIAN_POINT('Origin',(7.68785035631936E-11,54.1999991921233,48.0859845541468));
#1515=CARTESIAN_POINT('',(-11.7428288870319,54.1999991921233,42.5087119475697));
#1516=CARTESIAN_POINT('Origin',(-5.98423282129649,54.1999991921233,30.3841103725697));
#1517=CARTESIAN_POINT('',(-5.98423282129649,54.1999991921233,30.3841103725697));
#1518=CARTESIAN_POINT('',(-6.71544233518669,54.1999991921233,31.9236564568176));
#1519=CARTESIAN_POINT('',(-5.98423282129649,54.1999991921233,30.3841103725697));
#1520=CARTESIAN_POINT('Origin',(-11.4039999999678,54.1999991921233,27.8099845541468));
#1521=CARTESIAN_POINT('',(-5.73923176759109,54.1999991921233,25.8325111981873));
#1522=CARTESIAN_POINT('Origin',(-11.4039999999678,54.1999991921233,27.8099845541468));
#1523=CARTESIAN_POINT('',(-5.73923176759109,54.1999991921233,25.8325111981873));
#1524=CARTESIAN_POINT('Origin',(-7.55302430981373,54.1999991921233,20.6366311412754));
#1525=CARTESIAN_POINT('',(-7.55302430981373,54.1999991921233,20.6366311412754));
#1526=CARTESIAN_POINT('',(-4.59695991125033,54.1999991921233,29.1047197996515));
#1527=CARTESIAN_POINT('',(-7.55302430981373,54.1999991921233,20.6366311412754));
#1528=CARTESIAN_POINT('Origin',(1.05238040504219E-11,54.1999991921233,18.));
#1529=CARTESIAN_POINT('',(-2.78388218138873,54.1999991921233,10.4999999999982));
#1530=CARTESIAN_POINT('Origin',(1.05238040504219E-11,54.1999991921233,18.));
#1531=CARTESIAN_POINT('',(-2.78388218138873,54.1999991921233,10.4999999999982));
#1532=CARTESIAN_POINT('Origin',(2.78388218140966,54.1999991921233,10.4999999999939));
#1533=CARTESIAN_POINT('',(2.78388218140966,54.1999991921233,10.4999999999939));
#1534=CARTESIAN_POINT('',(1.39194109069963,54.1999991921233,10.499999999995));
#1535=CARTESIAN_POINT('',(2.78388218140966,54.1999991921233,10.4999999999939));
#1536=CARTESIAN_POINT('Origin',(1.05238040504219E-11,54.1999991921233,18.));
#1537=CARTESIAN_POINT('Origin',(1.05238040504219E-11,54.1999991921233,18.));
#1538=CARTESIAN_POINT('Origin',(16.9999993405122,54.1999991921233,48.));
#1539=CARTESIAN_POINT('',(11.846531165685,54.1999991921233,16.0869659332099));
#1540=CARTESIAN_POINT('',(16.9999993405122,54.1999991921233,48.));
#1541=CARTESIAN_POINT('',(11.846531165685,54.1999991921233,16.0869659332099));
#1542=CARTESIAN_POINT('',(11.846531165685,68.4999991921233,16.0869659332099));
#1543=CARTESIAN_POINT('',(11.846531165685,54.1999991921233,16.0869659332099));
#1544=CARTESIAN_POINT('',(16.9999993405122,68.4999991921233,48.));
#1545=CARTESIAN_POINT('',(11.846531165685,68.4999991921233,16.0869659332099));
#1546=CARTESIAN_POINT('',(16.9999993405122,54.1999991921233,48.));
#1547=CARTESIAN_POINT('Origin',(16.9999993405122,54.1999991921233,68.));
#1548=CARTESIAN_POINT('',(16.9999993405122,54.1999991921233,68.));
#1549=CARTESIAN_POINT('',(16.9999993405122,54.1999991921233,48.));
#1550=CARTESIAN_POINT('',(16.9999993405122,68.4999991921233,68.));
#1551=CARTESIAN_POINT('',(16.9999993405122,68.4999991921233,48.));
#1552=CARTESIAN_POINT('',(16.9999993405122,54.1999991921233,68.));
#1553=CARTESIAN_POINT('Origin',(-16.9999993404918,54.1999991921233,68.));
#1554=CARTESIAN_POINT('',(-16.9999993404918,54.1999991921233,68.));
#1555=CARTESIAN_POINT('',(16.9999993405122,54.1999991921233,68.));
#1556=CARTESIAN_POINT('',(-16.9999993404918,68.4999991921233,68.));
#1557=CARTESIAN_POINT('',(16.9999993405122,68.4999991921233,68.));
#1558=CARTESIAN_POINT('',(-16.9999993404918,54.1999991921233,68.));
#1559=CARTESIAN_POINT('Origin',(-16.9999993404918,54.1999991921233,48.));
#1560=CARTESIAN_POINT('',(-16.9999993404918,54.1999991921233,48.));
#1561=CARTESIAN_POINT('',(-16.9999993404918,54.1999991921233,68.));
#1562=CARTESIAN_POINT('',(-16.9999993404918,68.4999991921233,48.));
#1563=CARTESIAN_POINT('',(-16.9999993404918,68.4999991921233,68.));
#1564=CARTESIAN_POINT('',(-16.9999993404918,54.1999991921233,48.));
#1565=CARTESIAN_POINT('Origin',(-11.8465311656643,54.1999991921233,16.0869659332098));
#1566=CARTESIAN_POINT('',(-11.8465311656643,54.1999991921233,16.0869659332098));
#1567=CARTESIAN_POINT('',(-16.9999993404918,54.1999991921233,48.));
#1568=CARTESIAN_POINT('',(-11.8465311656643,68.4999991921233,16.0869659332098));
#1569=CARTESIAN_POINT('',(-16.9999993404918,68.4999991921233,48.));
#1570=CARTESIAN_POINT('',(-11.8465311656643,54.1999991921233,16.0869659332098));
#1571=CARTESIAN_POINT('Origin',(1.03306252441371E-11,54.1999991921233,18.));
#1572=CARTESIAN_POINT('Origin',(1.03306252441371E-11,54.1999991921233,18.));
#1573=CARTESIAN_POINT('Origin',(1.03306252441371E-11,68.4999991921233,18.));
#1574=CARTESIAN_POINT('Origin',(1.01740837976649E-11,68.4999991921233,37.));
#1575=CARTESIAN_POINT('Origin',(1.01740837976649E-11,54.1999991921233,37.));
#1576=UNCERTAINTY_MEASURE_WITH_UNIT(LENGTH_MEASURE(0.01),#1580,
'DISTANCE_ACCURACY_VALUE',
'Maximum model space distance between geometric entities at asserted c
onnectivities');
#1577=UNCERTAINTY_MEASURE_WITH_UNIT(LENGTH_MEASURE(0.01),#1580,
'DISTANCE_ACCURACY_VALUE',
'Maximum model space distance between geometric entities at asserted c
onnectivities');
#1578=(
GEOMETRIC_REPRESENTATION_CONTEXT(3)
GLOBAL_UNCERTAINTY_ASSIGNED_CONTEXT((#1576))
GLOBAL_UNIT_ASSIGNED_CONTEXT((#1580,#1582,#1583))
REPRESENTATION_CONTEXT('','3D')
);
#1579=(
GEOMETRIC_REPRESENTATION_CONTEXT(3)
GLOBAL_UNCERTAINTY_ASSIGNED_CONTEXT((#1577))
GLOBAL_UNIT_ASSIGNED_CONTEXT((#1580,#1582,#1583))
REPRESENTATION_CONTEXT('','3D')
);
#1580=(
LENGTH_UNIT()
NAMED_UNIT(*)
SI_UNIT(.MILLI.,.METRE.)
);
#1581=(
LENGTH_UNIT()
NAMED_UNIT(*)
SI_UNIT($,.METRE.)
);
#1582=(
NAMED_UNIT(*)
PLANE_ANGLE_UNIT()
SI_UNIT($,.RADIAN.)
);
#1583=(
NAMED_UNIT(*)
SI_UNIT($,.STERADIAN.)
SOLID_ANGLE_UNIT()
);
#1584=SHAPE_DEFINITION_REPRESENTATION(#1585,#1586);
#1585=PRODUCT_DEFINITION_SHAPE('',$,#1588);
#1586=SHAPE_REPRESENTATION('',(#896),#1578);
#1587=PRODUCT_DEFINITION_CONTEXT('part definition',#1592,'design');
#1588=PRODUCT_DEFINITION('REAR VOLUME REDUCER FRONT',
'REAR VOLUME REDUCER FRONT',#1589,#1587);
#1589=PRODUCT_DEFINITION_FORMATION('',$,#1594);
#1590=PRODUCT_RELATED_PRODUCT_CATEGORY('REAR VOLUME REDUCER FRONT',
'REAR VOLUME REDUCER FRONT',(#1594));
#1591=APPLICATION_PROTOCOL_DEFINITION('international standard',
'automotive_design',2009,#1592);
#1592=APPLICATION_CONTEXT(
'Core Data for Automotive Mechanical Design Process');
#1593=PRODUCT_CONTEXT('part definition',#1592,'mechanical');
#1594=PRODUCT('REAR VOLUME REDUCER FRONT','REAR VOLUME REDUCER FRONT',$,
(#1593));
#1595=PRESENTATION_STYLE_ASSIGNMENT((#1596));
#1596=SURFACE_STYLE_USAGE(.BOTH.,#1597);
#1597=SURFACE_SIDE_STYLE('',(#1598));
#1598=SURFACE_STYLE_FILL_AREA(#1599);
#1599=FILL_AREA_STYLE('Steel - Satin',(#1600));
#1600=FILL_AREA_STYLE_COLOUR('Steel - Satin',#1601);
#1601=COLOUR_RGB('Steel - Satin',0.627450980392157,0.627450980392157,0.627450980392157);
ENDSEC;
END-ISO-10303-21;
