ISO-10303-21;
HEADER;
/* Generated by software containing ST-Developer
 * from STEP Tools, Inc. (www.steptools.com) 
 */

FILE_DESCRIPTION(
/* description */ (''),
/* implementation_level */ '2;1');

FILE_NAME(
/* name */ 'REAR VOLUME REDUCER BACK.step',
/* time_stamp */ '2026-03-23T18:15:11-05:00',
/* author */ (''),
/* organization */ (''),
/* preprocessor_version */ 'ST-DEVELOPER v20.1',
/* originating_system */ 'Autodesk Translation Framework v14.24.0.0',
/* authorisation */ '');

FILE_SCHEMA (('AUTOMOTIVE_DESIGN { 1 0 10303 214 3 1 1 }'));
ENDSEC;

DATA;
#10=MECHANICAL_DESIGN_GEOMETRIC_PRESENTATION_REPRESENTATION('',(#13),#549);
#11=SHAPE_REPRESENTATION_RELATIONSHIP('SRR','None',#556,#12);
#12=ADVANCED_BREP_SHAPE_REPRESENTATION('',(#14),#548);
#13=STYLED_ITEM('',(#565),#14);
#14=MANIFOLD_SOLID_BREP('Rear volume reducer back ',#323);
#15=FACE_BOUND('',#67,.T.);
#16=FACE_BOUND('',#70,.T.);
#17=FACE_BOUND('',#77,.T.);
#18=FACE_BOUND('',#78,.T.);
#19=FACE_BOUND('',#80,.T.);
#20=FACE_BOUND('',#81,.T.);
#21=CYLINDRICAL_SURFACE('',#344,13.8000000000002);
#22=CYLINDRICAL_SURFACE('',#348,12.9);
#23=CYLINDRICAL_SURFACE('',#353,8.4);
#24=CYLINDRICAL_SURFACE('',#358,10.25);
#25=CYLINDRICAL_SURFACE('',#360,6.25);
#26=CIRCLE('',#341,11.7171572875256);
#27=CIRCLE('',#342,13.8000000000002);
#28=CIRCLE('',#345,13.8000000000002);
#29=CIRCLE('',#349,12.9);
#30=CIRCLE('',#350,12.9);
#31=CIRCLE('',#352,10.25);
#32=CIRCLE('',#354,8.4);
#33=CIRCLE('',#355,8.4);
#34=CIRCLE('',#357,6.25);
#35=CIRCLE('',#359,10.25);
#36=CIRCLE('',#361,6.25);
#37=CONICAL_SURFACE('',#340,12.8585786437629,0.785398163397447);
#38=FACE_OUTER_BOUND('',#57,.T.);
#39=FACE_OUTER_BOUND('',#58,.T.);
#40=FACE_OUTER_BOUND('',#59,.T.);
#41=FACE_OUTER_BOUND('',#60,.T.);
#42=FACE_OUTER_BOUND('',#61,.T.);
#43=FACE_OUTER_BOUND('',#62,.T.);
#44=FACE_OUTER_BOUND('',#63,.T.);
#45=FACE_OUTER_BOUND('',#64,.T.);
#46=FACE_OUTER_BOUND('',#65,.T.);
#47=FACE_OUTER_BOUND('',#66,.T.);
#48=FACE_OUTER_BOUND('',#68,.T.);
#49=FACE_OUTER_BOUND('',#69,.T.);
#50=FACE_OUTER_BOUND('',#71,.T.);
#51=FACE_OUTER_BOUND('',#72,.T.);
#52=FACE_OUTER_BOUND('',#73,.T.);
#53=FACE_OUTER_BOUND('',#74,.T.);
#54=FACE_OUTER_BOUND('',#75,.T.);
#55=FACE_OUTER_BOUND('',#76,.T.);
#56=FACE_OUTER_BOUND('',#79,.T.);
#57=EDGE_LOOP('',(#209,#210,#211,#212));
#58=EDGE_LOOP('',(#213,#214,#215,#216));
#59=EDGE_LOOP('',(#217,#218,#219,#220));
#60=EDGE_LOOP('',(#221,#222,#223,#224));
#61=EDGE_LOOP('',(#225,#226,#227,#228));
#62=EDGE_LOOP('',(#229,#230,#231,#232));
#63=EDGE_LOOP('',(#233,#234,#235,#236));
#64=EDGE_LOOP('',(#237,#238,#239,#240));
#65=EDGE_LOOP('',(#241,#242,#243,#244));
#66=EDGE_LOOP('',(#245));
#67=EDGE_LOOP('',(#246));
#68=EDGE_LOOP('',(#247,#248,#249,#250));
#69=EDGE_LOOP('',(#251));
#70=EDGE_LOOP('',(#252));
#71=EDGE_LOOP('',(#253,#254,#255,#256));
#72=EDGE_LOOP('',(#257,#258,#259,#260));
#73=EDGE_LOOP('',(#261,#262,#263,#264,#265,#266));
#74=EDGE_LOOP('',(#267,#268,#269,#270));
#75=EDGE_LOOP('',(#271,#272,#273,#274));
#76=EDGE_LOOP('',(#275,#276,#277,#278,#279,#280));
#77=EDGE_LOOP('',(#281));
#78=EDGE_LOOP('',(#282));
#79=EDGE_LOOP('',(#283,#284,#285,#286,#287,#288));
#80=EDGE_LOOP('',(#289));
#81=EDGE_LOOP('',(#290));
#82=LINE('',#463,#112);
#83=LINE('',#465,#113);
#84=LINE('',#467,#114);
#85=LINE('',#468,#115);
#86=LINE('',#472,#116);
#87=LINE('',#474,#117);
#88=LINE('',#476,#118);
#89=LINE('',#477,#119);
#90=LINE('',#480,#120);
#91=LINE('',#482,#121);
#92=LINE('',#483,#122);
#93=LINE('',#487,#123);
#94=LINE('',#491,#124);
#95=LINE('',#492,#125);
#96=LINE('',#495,#126);
#97=LINE('',#498,#127);
#98=LINE('',#501,#128);
#99=LINE('',#502,#129);
#100=LINE('',#505,#130);
#101=LINE('',#506,#131);
#102=LINE('',#511,#132);
#103=LINE('',#520,#133);
#104=LINE('',#528,#134);
#105=LINE('',#532,#135);
#106=LINE('',#535,#136);
#107=LINE('',#536,#137);
#108=LINE('',#537,#138);
#109=LINE('',#540,#139);
#110=LINE('',#541,#140);
#111=LINE('',#543,#141);
#112=VECTOR('',#371,10.);
#113=VECTOR('',#372,10.);
#114=VECTOR('',#373,10.);
#115=VECTOR('',#374,10.);
#116=VECTOR('',#377,10.);
#117=VECTOR('',#378,10.);
#118=VECTOR('',#379,10.);
#119=VECTOR('',#380,10.);
#120=VECTOR('',#383,10.);
#121=VECTOR('',#384,10.);
#122=VECTOR('',#385,10.);
#123=VECTOR('',#388,10.);
#124=VECTOR('',#395,10.);
#125=VECTOR('',#396,10.);
#126=VECTOR('',#399,10.);
#127=VECTOR('',#402,10.);
#128=VECTOR('',#405,10.);
#129=VECTOR('',#406,10.);
#130=VECTOR('',#409,10.);
#131=VECTOR('',#410,10.);
#132=VECTOR('',#415,12.9);
#133=VECTOR('',#426,8.4);
#134=VECTOR('',#437,10.25);
#135=VECTOR('',#442,6.25);
#136=VECTOR('',#445,10.);
#137=VECTOR('',#446,10.);
#138=VECTOR('',#447,10.);
#139=VECTOR('',#450,10.);
#140=VECTOR('',#451,10.);
#141=VECTOR('',#454,10.);
#142=VERTEX_POINT('',#461);
#143=VERTEX_POINT('',#462);
#144=VERTEX_POINT('',#464);
#145=VERTEX_POINT('',#466);
#146=VERTEX_POINT('',#470);
#147=VERTEX_POINT('',#471);
#148=VERTEX_POINT('',#473);
#149=VERTEX_POINT('',#475);
#150=VERTEX_POINT('',#479);
#151=VERTEX_POINT('',#481);
#152=VERTEX_POINT('',#485);
#153=VERTEX_POINT('',#486);
#154=VERTEX_POINT('',#494);
#155=VERTEX_POINT('',#496);
#156=VERTEX_POINT('',#500);
#157=VERTEX_POINT('',#504);
#158=VERTEX_POINT('',#508);
#159=VERTEX_POINT('',#510);
#160=VERTEX_POINT('',#514);
#161=VERTEX_POINT('',#517);
#162=VERTEX_POINT('',#519);
#163=VERTEX_POINT('',#523);
#164=VERTEX_POINT('',#526);
#165=VERTEX_POINT('',#530);
#166=VERTEX_POINT('',#534);
#167=VERTEX_POINT('',#539);
#168=EDGE_CURVE('',#142,#143,#82,.T.);
#169=EDGE_CURVE('',#143,#144,#83,.T.);
#170=EDGE_CURVE('',#144,#145,#84,.T.);
#171=EDGE_CURVE('',#145,#142,#85,.T.);
#172=EDGE_CURVE('',#146,#147,#86,.T.);
#173=EDGE_CURVE('',#147,#148,#87,.T.);
#174=EDGE_CURVE('',#148,#149,#88,.T.);
#175=EDGE_CURVE('',#149,#146,#89,.T.);
#176=EDGE_CURVE('',#149,#150,#90,.T.);
#177=EDGE_CURVE('',#150,#151,#91,.T.);
#178=EDGE_CURVE('',#151,#146,#92,.T.);
#179=EDGE_CURVE('',#152,#153,#93,.T.);
#180=EDGE_CURVE('',#153,#148,#26,.T.);
#181=EDGE_CURVE('',#147,#152,#27,.T.);
#182=EDGE_CURVE('',#145,#153,#94,.T.);
#183=EDGE_CURVE('',#152,#142,#95,.T.);
#184=EDGE_CURVE('',#154,#147,#96,.T.);
#185=EDGE_CURVE('',#154,#155,#28,.F.);
#186=EDGE_CURVE('',#155,#152,#97,.T.);
#187=EDGE_CURVE('',#156,#146,#98,.T.);
#188=EDGE_CURVE('',#154,#156,#99,.T.);
#189=EDGE_CURVE('',#157,#151,#100,.F.);
#190=EDGE_CURVE('',#156,#157,#101,.T.);
#191=EDGE_CURVE('',#158,#158,#29,.T.);
#192=EDGE_CURVE('',#158,#159,#102,.T.);
#193=EDGE_CURVE('',#159,#159,#30,.T.);
#194=EDGE_CURVE('',#160,#160,#31,.T.);
#195=EDGE_CURVE('',#161,#161,#32,.T.);
#196=EDGE_CURVE('',#161,#162,#103,.T.);
#197=EDGE_CURVE('',#162,#162,#33,.T.);
#198=EDGE_CURVE('',#163,#163,#34,.T.);
#199=EDGE_CURVE('',#164,#164,#35,.T.);
#200=EDGE_CURVE('',#164,#160,#104,.T.);
#201=EDGE_CURVE('',#165,#165,#36,.T.);
#202=EDGE_CURVE('',#165,#163,#105,.T.);
#203=EDGE_CURVE('',#166,#143,#106,.T.);
#204=EDGE_CURVE('',#157,#166,#107,.T.);
#205=EDGE_CURVE('',#144,#150,#108,.T.);
#206=EDGE_CURVE('',#167,#142,#109,.T.);
#207=EDGE_CURVE('',#166,#167,#110,.T.);
#208=EDGE_CURVE('',#167,#155,#111,.T.);
#209=ORIENTED_EDGE('',*,*,#168,.T.);
#210=ORIENTED_EDGE('',*,*,#169,.T.);
#211=ORIENTED_EDGE('',*,*,#170,.T.);
#212=ORIENTED_EDGE('',*,*,#171,.T.);
#213=ORIENTED_EDGE('',*,*,#172,.T.);
#214=ORIENTED_EDGE('',*,*,#173,.T.);
#215=ORIENTED_EDGE('',*,*,#174,.T.);
#216=ORIENTED_EDGE('',*,*,#175,.T.);
#217=ORIENTED_EDGE('',*,*,#176,.T.);
#218=ORIENTED_EDGE('',*,*,#177,.T.);
#219=ORIENTED_EDGE('',*,*,#178,.T.);
#220=ORIENTED_EDGE('',*,*,#175,.F.);
#221=ORIENTED_EDGE('',*,*,#179,.T.);
#222=ORIENTED_EDGE('',*,*,#180,.T.);
#223=ORIENTED_EDGE('',*,*,#173,.F.);
#224=ORIENTED_EDGE('',*,*,#181,.T.);
#225=ORIENTED_EDGE('',*,*,#182,.T.);
#226=ORIENTED_EDGE('',*,*,#179,.F.);
#227=ORIENTED_EDGE('',*,*,#183,.T.);
#228=ORIENTED_EDGE('',*,*,#171,.F.);
#229=ORIENTED_EDGE('',*,*,#181,.F.);
#230=ORIENTED_EDGE('',*,*,#184,.F.);
#231=ORIENTED_EDGE('',*,*,#185,.T.);
#232=ORIENTED_EDGE('',*,*,#186,.T.);
#233=ORIENTED_EDGE('',*,*,#172,.F.);
#234=ORIENTED_EDGE('',*,*,#187,.F.);
#235=ORIENTED_EDGE('',*,*,#188,.F.);
#236=ORIENTED_EDGE('',*,*,#184,.T.);
#237=ORIENTED_EDGE('',*,*,#178,.F.);
#238=ORIENTED_EDGE('',*,*,#189,.F.);
#239=ORIENTED_EDGE('',*,*,#190,.F.);
#240=ORIENTED_EDGE('',*,*,#187,.T.);
#241=ORIENTED_EDGE('',*,*,#191,.F.);
#242=ORIENTED_EDGE('',*,*,#192,.T.);
#243=ORIENTED_EDGE('',*,*,#193,.T.);
#244=ORIENTED_EDGE('',*,*,#192,.F.);
#245=ORIENTED_EDGE('',*,*,#193,.F.);
#246=ORIENTED_EDGE('',*,*,#194,.F.);
#247=ORIENTED_EDGE('',*,*,#195,.F.);
#248=ORIENTED_EDGE('',*,*,#196,.T.);
#249=ORIENTED_EDGE('',*,*,#197,.T.);
#250=ORIENTED_EDGE('',*,*,#196,.F.);
#251=ORIENTED_EDGE('',*,*,#197,.F.);
#252=ORIENTED_EDGE('',*,*,#198,.F.);
#253=ORIENTED_EDGE('',*,*,#199,.F.);
#254=ORIENTED_EDGE('',*,*,#200,.T.);
#255=ORIENTED_EDGE('',*,*,#194,.T.);
#256=ORIENTED_EDGE('',*,*,#200,.F.);
#257=ORIENTED_EDGE('',*,*,#201,.F.);
#258=ORIENTED_EDGE('',*,*,#202,.T.);
#259=ORIENTED_EDGE('',*,*,#198,.T.);
#260=ORIENTED_EDGE('',*,*,#202,.F.);
#261=ORIENTED_EDGE('',*,*,#169,.F.);
#262=ORIENTED_EDGE('',*,*,#203,.F.);
#263=ORIENTED_EDGE('',*,*,#204,.F.);
#264=ORIENTED_EDGE('',*,*,#189,.T.);
#265=ORIENTED_EDGE('',*,*,#177,.F.);
#266=ORIENTED_EDGE('',*,*,#205,.F.);
#267=ORIENTED_EDGE('',*,*,#168,.F.);
#268=ORIENTED_EDGE('',*,*,#206,.F.);
#269=ORIENTED_EDGE('',*,*,#207,.F.);
#270=ORIENTED_EDGE('',*,*,#203,.T.);
#271=ORIENTED_EDGE('',*,*,#183,.F.);
#272=ORIENTED_EDGE('',*,*,#186,.F.);
#273=ORIENTED_EDGE('',*,*,#208,.F.);
#274=ORIENTED_EDGE('',*,*,#206,.T.);
#275=ORIENTED_EDGE('',*,*,#170,.F.);
#276=ORIENTED_EDGE('',*,*,#205,.T.);
#277=ORIENTED_EDGE('',*,*,#176,.F.);
#278=ORIENTED_EDGE('',*,*,#174,.F.);
#279=ORIENTED_EDGE('',*,*,#180,.F.);
#280=ORIENTED_EDGE('',*,*,#182,.F.);
#281=ORIENTED_EDGE('',*,*,#201,.T.);
#282=ORIENTED_EDGE('',*,*,#199,.T.);
#283=ORIENTED_EDGE('',*,*,#188,.T.);
#284=ORIENTED_EDGE('',*,*,#190,.T.);
#285=ORIENTED_EDGE('',*,*,#204,.T.);
#286=ORIENTED_EDGE('',*,*,#207,.T.);
#287=ORIENTED_EDGE('',*,*,#208,.T.);
#288=ORIENTED_EDGE('',*,*,#185,.F.);
#289=ORIENTED_EDGE('',*,*,#191,.T.);
#290=ORIENTED_EDGE('',*,*,#195,.T.);
#291=PLANE('',#337);
#292=PLANE('',#338);
#293=PLANE('',#339);
#294=PLANE('',#343);
#295=PLANE('',#346);
#296=PLANE('',#347);
#297=PLANE('',#351);
#298=PLANE('',#356);
#299=PLANE('',#362);
#300=PLANE('',#363);
#301=PLANE('',#364);
#302=PLANE('',#365);
#303=PLANE('',#366);
#304=ADVANCED_FACE('',(#38),#291,.T.);
#305=ADVANCED_FACE('',(#39),#292,.T.);
#306=ADVANCED_FACE('',(#40),#293,.T.);
#307=ADVANCED_FACE('',(#41),#37,.T.);
#308=ADVANCED_FACE('',(#42),#294,.T.);
#309=ADVANCED_FACE('',(#43),#21,.T.);
#310=ADVANCED_FACE('',(#44),#295,.T.);
#311=ADVANCED_FACE('',(#45),#296,.T.);
#312=ADVANCED_FACE('',(#46),#22,.F.);
#313=ADVANCED_FACE('',(#47,#15),#297,.F.);
#314=ADVANCED_FACE('',(#48),#23,.F.);
#315=ADVANCED_FACE('',(#49,#16),#298,.F.);
#316=ADVANCED_FACE('',(#50),#24,.F.);
#317=ADVANCED_FACE('',(#51),#25,.F.);
#318=ADVANCED_FACE('',(#52),#299,.T.);
#319=ADVANCED_FACE('',(#53),#300,.T.);
#320=ADVANCED_FACE('',(#54),#301,.T.);
#321=ADVANCED_FACE('',(#55,#17,#18),#302,.T.);
#322=ADVANCED_FACE('',(#56,#19,#20),#303,.F.);
#323=CLOSED_SHELL('',(#304,#305,#306,#307,#308,#309,#310,#311,#312,#313,
#314,#315,#316,#317,#318,#319,#320,#321,#322));
#324=DERIVED_UNIT_ELEMENT(#326,1.);
#325=DERIVED_UNIT_ELEMENT(#551,-3.);
#326=(
MASS_UNIT()
NAMED_UNIT(*)
SI_UNIT(.KILO.,.GRAM.)
);
#327=DERIVED_UNIT((#324,#325));
#328=MEASURE_REPRESENTATION_ITEM('density measure',
POSITIVE_RATIO_MEASURE(7850.),#327);
#329=PROPERTY_DEFINITION_REPRESENTATION(#334,#331);
#330=PROPERTY_DEFINITION_REPRESENTATION(#335,#332);
#331=REPRESENTATION('material name',(#333),#548);
#332=REPRESENTATION('density',(#328),#548);
#333=DESCRIPTIVE_REPRESENTATION_ITEM('Steel','Steel');
#334=PROPERTY_DEFINITION('material property','material name',#558);
#335=PROPERTY_DEFINITION('material property','density of part',#558);
#336=AXIS2_PLACEMENT_3D('',#459,#367,#368);
#337=AXIS2_PLACEMENT_3D('',#460,#369,#370);
#338=AXIS2_PLACEMENT_3D('',#469,#375,#376);
#339=AXIS2_PLACEMENT_3D('',#478,#381,#382);
#340=AXIS2_PLACEMENT_3D('',#484,#386,#387);
#341=AXIS2_PLACEMENT_3D('',#488,#389,#390);
#342=AXIS2_PLACEMENT_3D('',#489,#391,#392);
#343=AXIS2_PLACEMENT_3D('',#490,#393,#394);
#344=AXIS2_PLACEMENT_3D('',#493,#397,#398);
#345=AXIS2_PLACEMENT_3D('',#497,#400,#401);
#346=AXIS2_PLACEMENT_3D('',#499,#403,#404);
#347=AXIS2_PLACEMENT_3D('',#503,#407,#408);
#348=AXIS2_PLACEMENT_3D('',#507,#411,#412);
#349=AXIS2_PLACEMENT_3D('',#509,#413,#414);
#350=AXIS2_PLACEMENT_3D('',#512,#416,#417);
#351=AXIS2_PLACEMENT_3D('',#513,#418,#419);
#352=AXIS2_PLACEMENT_3D('',#515,#420,#421);
#353=AXIS2_PLACEMENT_3D('',#516,#422,#423);
#354=AXIS2_PLACEMENT_3D('',#518,#424,#425);
#355=AXIS2_PLACEMENT_3D('',#521,#427,#428);
#356=AXIS2_PLACEMENT_3D('',#522,#429,#430);
#357=AXIS2_PLACEMENT_3D('',#524,#431,#432);
#358=AXIS2_PLACEMENT_3D('',#525,#433,#434);
#359=AXIS2_PLACEMENT_3D('',#527,#435,#436);
#360=AXIS2_PLACEMENT_3D('',#529,#438,#439);
#361=AXIS2_PLACEMENT_3D('',#531,#440,#441);
#362=AXIS2_PLACEMENT_3D('',#533,#443,#444);
#363=AXIS2_PLACEMENT_3D('',#538,#448,#449);
#364=AXIS2_PLACEMENT_3D('',#542,#452,#453);
#365=AXIS2_PLACEMENT_3D('',#544,#455,#456);
#366=AXIS2_PLACEMENT_3D('',#545,#457,#458);
#367=DIRECTION('axis',(0.,0.,1.));
#368=DIRECTION('refdir',(1.,0.,0.));
#369=DIRECTION('center_axis',(-0.707106781186546,0.707106781186549,0.));
#370=DIRECTION('ref_axis',(0.,0.,1.));
#371=DIRECTION('',(0.,0.,1.));
#372=DIRECTION('',(0.707106781186549,0.707106781186546,0.));
#373=DIRECTION('',(0.,0.,-1.));
#374=DIRECTION('',(-0.705971839845809,-0.705971839845807,-0.0566349952719173));
#375=DIRECTION('center_axis',(0.69806354339886,0.707106781186549,-0.112726613439006));
#376=DIRECTION('ref_axis',(-0.159419505565831,0.,-0.987210930472888));
#377=DIRECTION('',(-0.159419505565831,1.96261557335472E-17,-0.987210930472888));
#378=DIRECTION('',(-0.698063543398862,0.707106781186546,0.112726613439005));
#379=DIRECTION('',(0.159419505565831,0.,0.987210930472888));
#380=DIRECTION('',(0.705971839845809,-0.705971839845807,-0.0566349952719089));
#381=DIRECTION('center_axis',(0.707106781186546,0.707106781186549,7.78798494437914E-17));
#382=DIRECTION('ref_axis',(1.10138739318985E-16,0.,-1.));
#383=DIRECTION('',(-1.10138739318985E-16,0.,1.));
#384=DIRECTION('',(0.707106781186549,-0.707106781186546,0.));
#385=DIRECTION('',(1.10138739318985E-16,0.,-1.));
#386=DIRECTION('center_axis',(0.,-1.,0.));
#387=DIRECTION('ref_axis',(0.987210930472886,0.,-0.159419505565845));
#388=DIRECTION('',(0.698063543398857,0.707106781186549,0.112726613439018));
#389=DIRECTION('center_axis',(0.,-1.,0.));
#390=DIRECTION('ref_axis',(0.987210930472886,0.,-0.159419505565845));
#391=DIRECTION('center_axis',(0.,1.,0.));
#392=DIRECTION('ref_axis',(0.987210930472886,0.,-0.159419505565845));
#393=DIRECTION('center_axis',(-0.698063543398857,0.707106781186549,-0.11272661343902));
#394=DIRECTION('ref_axis',(-0.159419505565852,0.,0.987210930472885));
#395=DIRECTION('',(0.159419505565852,0.,-0.987210930472885));
#396=DIRECTION('',(-0.159419505565852,0.,0.987210930472885));
#397=DIRECTION('center_axis',(0.,1.,0.));
#398=DIRECTION('ref_axis',(0.987210930472886,0.,-0.159419505565845));
#399=DIRECTION('',(0.,1.,0.));
#400=DIRECTION('center_axis',(0.,-1.,0.));
#401=DIRECTION('ref_axis',(0.987210930472886,0.,-0.159419505565845));
#402=DIRECTION('',(0.,1.,0.));
#403=DIRECTION('center_axis',(0.987210930472888,0.,-0.159419505565831));
#404=DIRECTION('ref_axis',(-0.159419505565831,0.,-0.987210930472888));
#405=DIRECTION('',(0.,1.,0.));
#406=DIRECTION('',(0.159419505565831,0.,0.987210930472888));
#407=DIRECTION('center_axis',(1.,0.,1.10138739318985E-16));
#408=DIRECTION('ref_axis',(1.10138739318985E-16,0.,-1.));
#409=DIRECTION('',(0.,-1.,0.));
#410=DIRECTION('',(-1.10138739318985E-16,0.,1.));
#411=DIRECTION('center_axis',(0.,1.,0.));
#412=DIRECTION('ref_axis',(-1.,0.,0.));
#413=DIRECTION('center_axis',(0.,1.,0.));
#414=DIRECTION('ref_axis',(-1.,0.,0.));
#415=DIRECTION('',(0.,1.,0.));
#416=DIRECTION('center_axis',(0.,1.,0.));
#417=DIRECTION('ref_axis',(-1.,0.,0.));
#418=DIRECTION('center_axis',(0.,1.,0.));
#419=DIRECTION('ref_axis',(-1.,0.,0.));
#420=DIRECTION('center_axis',(0.,-1.,0.));
#421=DIRECTION('ref_axis',(-1.,0.,0.));
#422=DIRECTION('center_axis',(0.,1.,0.));
#423=DIRECTION('ref_axis',(-1.,0.,0.));
#424=DIRECTION('center_axis',(0.,1.,0.));
#425=DIRECTION('ref_axis',(-1.,0.,0.));
#426=DIRECTION('',(0.,1.,0.));
#427=DIRECTION('center_axis',(0.,1.,0.));
#428=DIRECTION('ref_axis',(-1.,0.,0.));
#429=DIRECTION('center_axis',(0.,1.,0.));
#430=DIRECTION('ref_axis',(-1.,0.,0.));
#431=DIRECTION('center_axis',(0.,-1.,0.));
#432=DIRECTION('ref_axis',(-1.,0.,0.));
#433=DIRECTION('center_axis',(0.,1.,0.));
#434=DIRECTION('ref_axis',(-1.,0.,0.));
#435=DIRECTION('center_axis',(0.,-1.,0.));
#436=DIRECTION('ref_axis',(-1.,0.,0.));
#437=DIRECTION('',(0.,-1.,0.));
#438=DIRECTION('center_axis',(0.,1.,0.));
#439=DIRECTION('ref_axis',(-1.,0.,0.));
#440=DIRECTION('center_axis',(0.,-1.,0.));
#441=DIRECTION('ref_axis',(-1.,0.,0.));
#442=DIRECTION('',(0.,-1.,0.));
#443=DIRECTION('center_axis',(0.,0.,1.));
#444=DIRECTION('ref_axis',(1.,0.,0.));
#445=DIRECTION('',(0.,1.,0.));
#446=DIRECTION('',(-1.,0.,0.));
#447=DIRECTION('',(1.,0.,0.));
#448=DIRECTION('center_axis',(-1.,0.,0.));
#449=DIRECTION('ref_axis',(0.,0.,1.));
#450=DIRECTION('',(0.,1.,0.));
#451=DIRECTION('',(0.,0.,-1.));
#452=DIRECTION('center_axis',(-0.987210930472885,0.,-0.159419505565852));
#453=DIRECTION('ref_axis',(-0.159419505565852,0.,0.987210930472885));
#454=DIRECTION('',(0.159419505565852,0.,-0.987210930472885));
#455=DIRECTION('center_axis',(0.,1.,0.));
#456=DIRECTION('ref_axis',(-1.,0.,0.));
#457=DIRECTION('center_axis',(0.,1.,0.));
#458=DIRECTION('ref_axis',(-1.,0.,0.));
#459=CARTESIAN_POINT('',(0.,0.,0.));
#460=CARTESIAN_POINT('Origin',(-17.8585779842545,53.058577835886,41.919777260118));
#461=CARTESIAN_POINT('',(-18.7999993404918,52.1171564796487,47.8555990682125));
#462=CARTESIAN_POINT('',(-18.7999993404918,52.1171564796487,68.));
#463=CARTESIAN_POINT('',(-18.7999993404918,52.1171564796487,44.8796658901771));
#464=CARTESIAN_POINT('',(-16.7171566280172,54.1999991921233,68.));
#465=CARTESIAN_POINT('',(-18.4835779842545,52.433577835886,68.));
#466=CARTESIAN_POINT('',(-16.7171566280172,54.1999991921233,48.0226904173503));
#467=CARTESIAN_POINT('',(-16.7171566280172,54.1999991921233,38.959888630059));
#468=CARTESIAN_POINT('',(-17.5087473810254,53.408408439115,47.9591868382788));
#469=CARTESIAN_POINT('Origin',(16.7000786502455,53.058577835886,40.7570743406171));
#470=CARTESIAN_POINT('',(18.7999993405122,52.1171564796487,47.8555990682125));
#471=CARTESIAN_POINT('',(13.6235108405365,52.1171564796487,15.8000108231913));
#472=CARTESIAN_POINT('',(18.2160086288606,52.1171564796487,44.239215917413));
#473=CARTESIAN_POINT('',(11.5673057483258,54.1999991921233,16.1320565785854));
#474=CARTESIAN_POINT('',(13.6813403179513,52.058577835886,15.7906722447659));
#475=CARTESIAN_POINT('',(16.7171566280376,54.1999991921233,48.0226904173503));
#476=CARTESIAN_POINT('',(14.9867064855359,54.1999991921233,37.3068166649344));
#477=CARTESIAN_POINT('',(17.6319586995449,53.2851971206159,47.9493024887244));
#478=CARTESIAN_POINT('Origin',(17.8585779842749,53.058577835886,52.));
#479=CARTESIAN_POINT('',(16.7171566280376,54.1999991921233,68.));
#480=CARTESIAN_POINT('',(16.7171566280376,54.1999991921233,43.9999999999999));
#481=CARTESIAN_POINT('',(18.7999993405122,52.1171564796487,68.));
#482=CARTESIAN_POINT('',(8.98357831402384,61.933577506137,68.));
#483=CARTESIAN_POINT('',(18.7999993405122,52.1171564796487,60.));
#484=CARTESIAN_POINT('Origin',(1.05226938273972E-11,53.058577835886,18.));
#485=CARTESIAN_POINT('',(-13.6235108405155,52.1171564796487,15.8000108231912));
#486=CARTESIAN_POINT('',(-11.5673057483048,54.1999991921233,16.1320565785854));
#487=CARTESIAN_POINT('',(-13.6813403179303,52.058577835886,15.7906722447659));
#488=CARTESIAN_POINT('Origin',(1.05226938273972E-11,54.1999991921233,18.));
#489=CARTESIAN_POINT('Origin',(1.05226938273972E-11,52.1171564796487,18.));
#490=CARTESIAN_POINT('Origin',(-14.1105554932841,53.058577835886,24.7213605415379));
#491=CARTESIAN_POINT('',(-13.6919449070448,54.1999991921233,29.2889597653947));
#492=CARTESIAN_POINT('',(-14.3317238934288,52.1171564796487,20.1856452187943));
#493=CARTESIAN_POINT('Origin',(1.05226938273972E-11,51.6999991921233,18.));
#494=CARTESIAN_POINT('',(13.6235108405365,51.6999991921233,15.8000108231913));
#495=CARTESIAN_POINT('',(13.6235108405365,51.6999991921233,15.8000108231913));
#496=CARTESIAN_POINT('',(-13.6235108405155,51.6999991921233,15.8000108231912));
#497=CARTESIAN_POINT('Origin',(1.05226938273972E-11,51.6999991921233,18.));
#498=CARTESIAN_POINT('',(-13.6235108405155,51.6999991921233,15.8000108231912));
#499=CARTESIAN_POINT('Origin',(18.8025571544176,51.6999991921233,47.8714384213493));
#500=CARTESIAN_POINT('',(18.7999993405122,51.6999991921233,47.8555990682125));
#501=CARTESIAN_POINT('',(18.7999993405122,51.6999991921233,47.8555990682125));
#502=CARTESIAN_POINT('',(17.6294601033036,51.6999991921233,40.6069934134766));
#503=CARTESIAN_POINT('Origin',(18.7999993405122,51.6999991921233,68.));
#504=CARTESIAN_POINT('',(18.7999993405122,51.6999991921233,68.));
#505=CARTESIAN_POINT('',(18.7999993405122,51.6999991921233,68.));
#506=CARTESIAN_POINT('',(18.7999993405122,51.6999991921233,52.));
#507=CARTESIAN_POINT('Origin',(1.07941433569181E-11,51.6999991921233,48.));
#508=CARTESIAN_POINT('',(12.9000000000108,51.6999991921233,48.));
#509=CARTESIAN_POINT('Origin',(1.07941433569181E-11,51.6999991921233,48.));
#510=CARTESIAN_POINT('',(12.9000000000108,52.0999991921233,48.));
#511=CARTESIAN_POINT('',(12.9000000000108,51.6999991921233,48.));
#512=CARTESIAN_POINT('Origin',(1.07941433569181E-11,52.0999991921233,48.));
#513=CARTESIAN_POINT('Origin',(1.07935882454058E-11,52.0999991921233,48.));
#514=CARTESIAN_POINT('',(10.2500000000108,52.0999991921233,48.));
#515=CARTESIAN_POINT('Origin',(1.07941433569181E-11,52.0999991921233,48.));
#516=CARTESIAN_POINT('Origin',(1.05221387158849E-11,51.6999991921233,18.));
#517=CARTESIAN_POINT('',(8.40000000001052,51.6999991921233,18.));
#518=CARTESIAN_POINT('Origin',(1.05221387158849E-11,51.6999991921233,18.));
#519=CARTESIAN_POINT('',(8.40000000001052,52.0999991921233,18.));
#520=CARTESIAN_POINT('',(8.40000000001052,51.6999991921233,18.));
#521=CARTESIAN_POINT('Origin',(1.05221387158849E-11,52.0999991921233,18.));
#522=CARTESIAN_POINT('Origin',(1.05226938273972E-11,52.0999991921233,18.));
#523=CARTESIAN_POINT('',(6.25000000001052,52.0999991921233,18.));
#524=CARTESIAN_POINT('Origin',(1.05221387158849E-11,52.0999991921233,18.));
#525=CARTESIAN_POINT('Origin',(1.07941433569181E-11,51.6999991921233,48.));
#526=CARTESIAN_POINT('',(10.2500000000108,54.1999991921233,48.));
#527=CARTESIAN_POINT('Origin',(1.07941433569181E-11,54.1999991921233,48.));
#528=CARTESIAN_POINT('',(10.2500000000108,51.6999991921233,48.));
#529=CARTESIAN_POINT('Origin',(1.05221387158849E-11,51.6999991921233,18.));
#530=CARTESIAN_POINT('',(6.25000000001052,54.1999991921233,18.));
#531=CARTESIAN_POINT('Origin',(1.05221387158849E-11,54.1999991921233,18.));
#532=CARTESIAN_POINT('',(6.25000000001052,51.6999991921233,18.));
#533=CARTESIAN_POINT('Origin',(-18.9999993404918,51.6999991921233,68.));
#534=CARTESIAN_POINT('',(-18.7999993404918,51.6999991921233,68.));
#535=CARTESIAN_POINT('',(-18.7999993404918,51.6999991921233,68.));
#536=CARTESIAN_POINT('',(-16.9999993404918,51.6999991921233,68.));
#537=CARTESIAN_POINT('',(-16.9999993404918,54.1999991921233,68.));
#538=CARTESIAN_POINT('Origin',(-18.7999993404918,51.6999991921233,47.8395545202361));
#539=CARTESIAN_POINT('',(-18.7999993404918,51.6999991921233,47.8555990682125));
#540=CARTESIAN_POINT('',(-18.7999993404918,51.6999991921233,47.8555990682125));
#541=CARTESIAN_POINT('',(-18.7999993404918,51.6999991921233,41.919777260118));
#542=CARTESIAN_POINT('Origin',(-13.6235108405155,51.6999991921233,15.8000108231912));
#543=CARTESIAN_POINT('',(-15.0399369463422,51.6999991921233,24.5712796143975));
#544=CARTESIAN_POINT('Origin',(1.01763042437142E-11,54.1999991921233,35.9999999999999));
#545=CARTESIAN_POINT('Origin',(1.01763042437142E-11,51.6999991921233,35.9999999999999));
#546=UNCERTAINTY_MEASURE_WITH_UNIT(LENGTH_MEASURE(0.01),#550,
'DISTANCE_ACCURACY_VALUE',
'Maximum model space distance between geometric entities at asserted c
onnectivities');
#547=UNCERTAINTY_MEASURE_WITH_UNIT(LENGTH_MEASURE(0.01),#550,
'DISTANCE_ACCURACY_VALUE',
'Maximum model space distance between geometric entities at asserted c
onnectivities');
#548=(
GEOMETRIC_REPRESENTATION_CONTEXT(3)
GLOBAL_UNCERTAINTY_ASSIGNED_CONTEXT((#546))
GLOBAL_UNIT_ASSIGNED_CONTEXT((#550,#552,#553))
REPRESENTATION_CONTEXT('','3D')
);
#549=(
GEOMETRIC_REPRESENTATION_CONTEXT(3)
GLOBAL_UNCERTAINTY_ASSIGNED_CONTEXT((#547))
GLOBAL_UNIT_ASSIGNED_CONTEXT((#550,#552,#553))
REPRESENTATION_CONTEXT('','3D')
);
#550=(
LENGTH_UNIT()
NAMED_UNIT(*)
SI_UNIT(.MILLI.,.METRE.)
);
#551=(
LENGTH_UNIT()
NAMED_UNIT(*)
SI_UNIT($,.METRE.)
);
#552=(
NAMED_UNIT(*)
PLANE_ANGLE_UNIT()
SI_UNIT($,.RADIAN.)
);
#553=(
NAMED_UNIT(*)
SI_UNIT($,.STERADIAN.)
SOLID_ANGLE_UNIT()
);
#554=SHAPE_DEFINITION_REPRESENTATION(#555,#556);
#555=PRODUCT_DEFINITION_SHAPE('',$,#558);
#556=SHAPE_REPRESENTATION('',(#336),#548);
#557=PRODUCT_DEFINITION_CONTEXT('part definition',#562,'design');
#558=PRODUCT_DEFINITION('REAR VOLUME REDUCER BACK ',
'REAR VOLUME REDUCER BACK ',#559,#557);
#559=PRODUCT_DEFINITION_FORMATION('',$,#564);
#560=PRODUCT_RELATED_PRODUCT_CATEGORY('REAR VOLUME REDUCER BACK ',
'REAR VOLUME REDUCER BACK ',(#564));
#561=APPLICATION_PROTOCOL_DEFINITION('international standard',
'automotive_design',2009,#562);
#562=APPLICATION_CONTEXT(
'Core Data for Automotive Mechanical Design Process');
#563=PRODUCT_CONTEXT('part definition',#562,'mechanical');
#564=PRODUCT('REAR VOLUME REDUCER BACK ','REAR VOLUME REDUCER BACK ',$,
(#563));
#565=PRESENTATION_STYLE_ASSIGNMENT((#566));
#566=SURFACE_STYLE_USAGE(.BOTH.,#567);
#567=SURFACE_SIDE_STYLE('',(#568));
#568=SURFACE_STYLE_FILL_AREA(#569);
#569=FILL_AREA_STYLE('Steel - Satin',(#570));
#570=FILL_AREA_STYLE_COLOUR('Steel - Satin',#571);
#571=COLOUR_RGB('Steel - Satin',0.627450980392157,0.627450980392157,0.627450980392157);
ENDSEC;
END-ISO-10303-21;
