ISO-10303-21;
HEADER;
/* Generated by software containing ST-Developer
 * from STEP Tools, Inc. (www.steptools.com) 
 */

FILE_DESCRIPTION(
/* description */ (''),
/* implementation_level */ '2;1');

FILE_NAME(
/* name */ 'HOPPER FUNNEL.step',
/* time_stamp */ '2026-03-23T18:15:54-05:00',
/* author */ (''),
/* organization */ (''),
/* preprocessor_version */ 'ST-DEVELOPER v20.1',
/* originating_system */ 'Autodesk Translation Framework v14.24.0.0',
/* authorisation */ '');

FILE_SCHEMA (('AUTOMOTIVE_DESIGN { 1 0 10303 214 3 1 1 }'));
ENDSEC;

DATA;
#10=MECHANICAL_DESIGN_GEOMETRIC_PRESENTATION_REPRESENTATION('',(#13),#1059);
#11=SHAPE_REPRESENTATION_RELATIONSHIP('SRR','None',#1066,#12);
#12=ADVANCED_BREP_SHAPE_REPRESENTATION('',(#14),#1058);
#13=STYLED_ITEM('',(#1075),#14);
#14=MANIFOLD_SOLID_BREP('Hopper funnel',#542);
#15=B_SPLINE_SURFACE_WITH_KNOTS('',3,3,((#926,#927,#928,#929),(#930,#931,
#932,#933),(#934,#935,#936,#937),(#938,#939,#940,#941),(#942,#943,#944,
#945),(#946,#947,#948,#949),(#950,#951,#952,#953)),.UNSPECIFIED.,.F.,.F.,
 .F.,(4,1,1,1,4),(4,4),(0.,0.285714285714286,0.571428571428571,0.785714285714286,
1.),(0.,1.),.UNSPECIFIED.);
#16=B_SPLINE_SURFACE_WITH_KNOTS('',3,3,((#959,#960,#961,#962),(#963,#964,
#965,#966),(#967,#968,#969,#970),(#971,#972,#973,#974),(#975,#976,#977,
#978),(#979,#980,#981,#982),(#983,#984,#985,#986),(#987,#988,#989,#990),
(#991,#992,#993,#994),(#995,#996,#997,#998),(#999,#1000,#1001,#1002),(#1003,
#1004,#1005,#1006),(#1007,#1008,#1009,#1010),(#1011,#1012,#1013,#1014),
(#1015,#1016,#1017,#1018),(#1019,#1020,#1021,#1022),(#1023,#1024,#1025,
#1026)),.UNSPECIFIED.,.F.,.F.,.F.,(4,1,1,1,1,1,1,1,1,1,1,1,1,1,4),(4,4),
(0.,0.0714285714285714,0.142857142857143,0.214285714285714,0.285714285714286,
0.357142857142857,0.428571428571429,0.476190476190476,0.571428571428571,
0.619047619047619,0.714285714285714,0.785714285714286,0.857142857142857,
0.928571428571429,1.),(0.,1.),.UNSPECIFIED.);
#17=TOROIDAL_SURFACE('',#592,26.,0.5);
#18=TOROIDAL_SURFACE('',#598,30.5,0.5);
#19=TOROIDAL_SURFACE('',#606,31.,0.5);
#20=CONICAL_SURFACE('',#579,25.5,0.785398163397451);
#21=CONICAL_SURFACE('',#625,31.5,0.785398163397448);
#22=FACE_BOUND('',#81,.T.);
#23=FACE_BOUND('',#91,.T.);
#24=FACE_BOUND('',#104,.T.);
#25=FACE_BOUND('',#105,.T.);
#26=FACE_BOUND('',#107,.T.);
#27=PLANE('',#559);
#28=PLANE('',#560);
#29=PLANE('',#562);
#30=PLANE('',#563);
#31=PLANE('',#568);
#32=PLANE('',#578);
#33=PLANE('',#591);
#34=PLANE('',#602);
#35=PLANE('',#615);
#36=PLANE('',#619);
#37=PLANE('',#620);
#38=PLANE('',#623);
#39=PLANE('',#624);
#40=FACE_OUTER_BOUND('',#72,.T.);
#41=FACE_OUTER_BOUND('',#73,.T.);
#42=FACE_OUTER_BOUND('',#74,.T.);
#43=FACE_OUTER_BOUND('',#75,.T.);
#44=FACE_OUTER_BOUND('',#76,.T.);
#45=FACE_OUTER_BOUND('',#77,.T.);
#46=FACE_OUTER_BOUND('',#78,.T.);
#47=FACE_OUTER_BOUND('',#79,.T.);
#48=FACE_OUTER_BOUND('',#80,.T.);
#49=FACE_OUTER_BOUND('',#82,.T.);
#50=FACE_OUTER_BOUND('',#83,.T.);
#51=FACE_OUTER_BOUND('',#84,.T.);
#52=FACE_OUTER_BOUND('',#85,.T.);
#53=FACE_OUTER_BOUND('',#86,.T.);
#54=FACE_OUTER_BOUND('',#87,.T.);
#55=FACE_OUTER_BOUND('',#88,.T.);
#56=FACE_OUTER_BOUND('',#89,.T.);
#57=FACE_OUTER_BOUND('',#90,.T.);
#58=FACE_OUTER_BOUND('',#92,.T.);
#59=FACE_OUTER_BOUND('',#93,.T.);
#60=FACE_OUTER_BOUND('',#94,.T.);
#61=FACE_OUTER_BOUND('',#95,.T.);
#62=FACE_OUTER_BOUND('',#96,.T.);
#63=FACE_OUTER_BOUND('',#97,.T.);
#64=FACE_OUTER_BOUND('',#98,.T.);
#65=FACE_OUTER_BOUND('',#99,.T.);
#66=FACE_OUTER_BOUND('',#100,.T.);
#67=FACE_OUTER_BOUND('',#101,.T.);
#68=FACE_OUTER_BOUND('',#102,.T.);
#69=FACE_OUTER_BOUND('',#103,.T.);
#70=FACE_OUTER_BOUND('',#106,.T.);
#71=FACE_OUTER_BOUND('',#108,.T.);
#72=EDGE_LOOP('',(#346,#347,#348,#349));
#73=EDGE_LOOP('',(#350,#351,#352,#353));
#74=EDGE_LOOP('',(#354,#355,#356,#357));
#75=EDGE_LOOP('',(#358,#359,#360,#361));
#76=EDGE_LOOP('',(#362,#363,#364,#365));
#77=EDGE_LOOP('',(#366,#367,#368,#369));
#78=EDGE_LOOP('',(#370,#371,#372,#373));
#79=EDGE_LOOP('',(#374,#375,#376,#377));
#80=EDGE_LOOP('',(#378,#379,#380,#381,#382,#383,#384,#385,#386));
#81=EDGE_LOOP('',(#387,#388,#389,#390));
#82=EDGE_LOOP('',(#391,#392,#393,#394));
#83=EDGE_LOOP('',(#395,#396,#397,#398,#399,#400));
#84=EDGE_LOOP('',(#401,#402,#403,#404,#405,#406,#407));
#85=EDGE_LOOP('',(#408,#409,#410,#411));
#86=EDGE_LOOP('',(#412));
#87=EDGE_LOOP('',(#413,#414,#415,#416,#417,#418));
#88=EDGE_LOOP('',(#419,#420,#421,#422,#423));
#89=EDGE_LOOP('',(#424,#425,#426,#427));
#90=EDGE_LOOP('',(#428));
#91=EDGE_LOOP('',(#429));
#92=EDGE_LOOP('',(#430,#431,#432,#433));
#93=EDGE_LOOP('',(#434,#435,#436,#437));
#94=EDGE_LOOP('',(#438,#439,#440,#441));
#95=EDGE_LOOP('',(#442,#443,#444,#445));
#96=EDGE_LOOP('',(#446,#447,#448,#449,#450));
#97=EDGE_LOOP('',(#451,#452,#453,#454));
#98=EDGE_LOOP('',(#455,#456,#457,#458));
#99=EDGE_LOOP('',(#459,#460,#461,#462));
#100=EDGE_LOOP('',(#463,#464,#465,#466,#467,#468,#469,#470));
#101=EDGE_LOOP('',(#471,#472,#473,#474));
#102=EDGE_LOOP('',(#475,#476,#477,#478));
#103=EDGE_LOOP('',(#479,#480,#481,#482,#483,#484,#485,#486,#487));
#104=EDGE_LOOP('',(#488));
#105=EDGE_LOOP('',(#489,#490));
#106=EDGE_LOOP('',(#491));
#107=EDGE_LOOP('',(#492));
#108=EDGE_LOOP('',(#493,#494,#495,#496,#497));
#109=CIRCLE('',#557,18.8);
#110=CIRCLE('',#558,18.8);
#111=CIRCLE('',#561,18.3);
#112=CIRCLE('',#564,18.3);
#113=CIRCLE('',#566,0.250000000000001);
#114=CIRCLE('',#567,0.250000000000001);
#115=CIRCLE('',#570,0.250000000003271);
#116=CIRCLE('',#571,0.250000000003271);
#117=CIRCLE('',#573,18.3);
#118=CIRCLE('',#574,18.3);
#119=CIRCLE('',#575,18.3);
#120=CIRCLE('',#576,18.3);
#121=CIRCLE('',#577,18.3);
#122=CIRCLE('',#580,26.);
#123=CIRCLE('',#581,25.);
#124=CIRCLE('',#582,25.);
#125=CIRCLE('',#583,26.);
#126=CIRCLE('',#585,25.);
#127=CIRCLE('',#586,25.);
#128=CIRCLE('',#587,25.);
#129=CIRCLE('',#589,0.85);
#130=CIRCLE('',#590,0.85);
#131=CIRCLE('',#593,0.5);
#132=CIRCLE('',#594,26.5);
#133=CIRCLE('',#595,26.5);
#134=CIRCLE('',#597,26.5);
#135=CIRCLE('',#599,30.5);
#136=CIRCLE('',#600,0.5);
#137=CIRCLE('',#601,30.);
#138=CIRCLE('',#603,31.);
#139=CIRCLE('',#605,30.);
#140=CIRCLE('',#607,0.5);
#141=CIRCLE('',#608,31.5);
#142=CIRCLE('',#610,31.5);
#143=CIRCLE('',#611,6.);
#144=CIRCLE('',#613,0.299999999994019);
#145=CIRCLE('',#614,0.299999999994019);
#146=CIRCLE('',#617,0.300000000000002);
#147=CIRCLE('',#618,0.300000000000002);
#148=CIRCLE('',#622,6.);
#149=LINE('',#808,#185);
#150=LINE('',#812,#186);
#151=LINE('',#817,#187);
#152=LINE('',#818,#188);
#153=LINE('',#819,#189);
#154=LINE('',#823,#190);
#155=LINE('',#826,#191);
#156=LINE('',#827,#192);
#157=LINE('',#835,#193);
#158=LINE('',#838,#194);
#159=LINE('',#841,#195);
#160=LINE('',#843,#196);
#161=LINE('',#844,#197);
#162=LINE('',#850,#198);
#163=LINE('',#853,#199);
#164=LINE('',#859,#200);
#165=LINE('',#866,#201);
#166=LINE('',#868,#202);
#167=LINE('',#869,#203);
#168=LINE('',#875,#204);
#169=LINE('',#882,#205);
#170=LINE('',#892,#206);
#171=LINE('',#903,#207);
#172=LINE('',#916,#208);
#173=LINE('',#924,#209);
#174=LINE('',#956,#210);
#175=LINE('',#957,#211);
#176=LINE('',#958,#212);
#177=LINE('',#1033,#213);
#178=LINE('',#1036,#214);
#179=LINE('',#1038,#215);
#180=LINE('',#1039,#216);
#181=LINE('',#1047,#217);
#182=LINE('',#1048,#218);
#183=LINE('',#1049,#219);
#184=LINE('',#1055,#220);
#185=VECTOR('',#630,10.);
#186=VECTOR('',#633,10.);
#187=VECTOR('',#638,10.);
#188=VECTOR('',#639,10.);
#189=VECTOR('',#640,10.);
#190=VECTOR('',#645,10.);
#191=VECTOR('',#648,10.);
#192=VECTOR('',#649,10.);
#193=VECTOR('',#658,10.);
#194=VECTOR('',#661,10.);
#195=VECTOR('',#664,10.);
#196=VECTOR('',#665,10.);
#197=VECTOR('',#666,10.);
#198=VECTOR('',#671,10.);
#199=VECTOR('',#674,10.);
#200=VECTOR('',#679,18.5);
#201=VECTOR('',#690,10.);
#202=VECTOR('',#691,10.);
#203=VECTOR('',#692,10.);
#204=VECTOR('',#697,25.5);
#205=VECTOR('',#706,25.);
#206=VECTOR('',#717,0.85);
#207=VECTOR('',#732,26.5);
#208=VECTOR('',#749,30.);
#209=VECTOR('',#760,31.5);
#210=VECTOR('',#763,10.);
#211=VECTOR('',#764,30.5019475809923);
#212=VECTOR('',#765,30.680393063539);
#213=VECTOR('',#774,10.);
#214=VECTOR('',#777,10.);
#215=VECTOR('',#778,10.);
#216=VECTOR('',#779,10.);
#217=VECTOR('',#790,10.);
#218=VECTOR('',#791,10.);
#219=VECTOR('',#792,10.);
#220=VECTOR('',#803,31.5);
#221=VERTEX_POINT('',#806);
#222=VERTEX_POINT('',#807);
#223=VERTEX_POINT('',#809);
#224=VERTEX_POINT('',#811);
#225=VERTEX_POINT('',#815);
#226=VERTEX_POINT('',#816);
#227=VERTEX_POINT('',#821);
#228=VERTEX_POINT('',#825);
#229=VERTEX_POINT('',#831);
#230=VERTEX_POINT('',#832);
#231=VERTEX_POINT('',#834);
#232=VERTEX_POINT('',#836);
#233=VERTEX_POINT('',#840);
#234=VERTEX_POINT('',#842);
#235=VERTEX_POINT('',#846);
#236=VERTEX_POINT('',#847);
#237=VERTEX_POINT('',#849);
#238=VERTEX_POINT('',#851);
#239=VERTEX_POINT('',#855);
#240=VERTEX_POINT('',#856);
#241=VERTEX_POINT('',#858);
#242=VERTEX_POINT('',#865);
#243=VERTEX_POINT('',#867);
#244=VERTEX_POINT('',#871);
#245=VERTEX_POINT('',#872);
#246=VERTEX_POINT('',#874);
#247=VERTEX_POINT('',#876);
#248=VERTEX_POINT('',#881);
#249=VERTEX_POINT('',#883);
#250=VERTEX_POINT('',#885);
#251=VERTEX_POINT('',#889);
#252=VERTEX_POINT('',#891);
#253=VERTEX_POINT('',#896);
#254=VERTEX_POINT('',#898);
#255=VERTEX_POINT('',#902);
#256=VERTEX_POINT('',#906);
#257=VERTEX_POINT('',#908);
#258=VERTEX_POINT('',#912);
#259=VERTEX_POINT('',#915);
#260=VERTEX_POINT('',#919);
#261=VERTEX_POINT('',#923);
#262=VERTEX_POINT('',#954);
#263=VERTEX_POINT('',#955);
#264=VERTEX_POINT('',#1029);
#265=VERTEX_POINT('',#1031);
#266=VERTEX_POINT('',#1035);
#267=VERTEX_POINT('',#1037);
#268=VERTEX_POINT('',#1045);
#269=VERTEX_POINT('',#1046);
#270=EDGE_CURVE('',#221,#222,#149,.T.);
#271=EDGE_CURVE('',#223,#221,#109,.T.);
#272=EDGE_CURVE('',#224,#223,#150,.T.);
#273=EDGE_CURVE('',#222,#224,#110,.T.);
#274=EDGE_CURVE('',#225,#226,#151,.T.);
#275=EDGE_CURVE('',#225,#221,#152,.T.);
#276=EDGE_CURVE('',#226,#222,#153,.T.);
#277=EDGE_CURVE('',#227,#225,#111,.T.);
#278=EDGE_CURVE('',#227,#223,#154,.T.);
#279=EDGE_CURVE('',#228,#227,#155,.T.);
#280=EDGE_CURVE('',#228,#224,#156,.T.);
#281=EDGE_CURVE('',#226,#228,#112,.T.);
#282=EDGE_CURVE('',#229,#230,#113,.T.);
#283=EDGE_CURVE('',#230,#231,#157,.T.);
#284=EDGE_CURVE('',#231,#232,#114,.T.);
#285=EDGE_CURVE('',#232,#229,#158,.T.);
#286=EDGE_CURVE('',#233,#230,#159,.T.);
#287=EDGE_CURVE('',#234,#233,#160,.T.);
#288=EDGE_CURVE('',#231,#234,#161,.T.);
#289=EDGE_CURVE('',#235,#236,#115,.T.);
#290=EDGE_CURVE('',#236,#237,#162,.T.);
#291=EDGE_CURVE('',#237,#238,#116,.T.);
#292=EDGE_CURVE('',#238,#235,#163,.T.);
#293=EDGE_CURVE('',#239,#240,#117,.T.);
#294=EDGE_CURVE('',#239,#241,#164,.T.);
#295=EDGE_CURVE('',#241,#237,#118,.F.);
#296=EDGE_CURVE('',#236,#229,#119,.T.);
#297=EDGE_CURVE('',#232,#241,#120,.F.);
#298=EDGE_CURVE('',#240,#239,#121,.T.);
#299=EDGE_CURVE('',#238,#242,#165,.T.);
#300=EDGE_CURVE('',#242,#243,#166,.T.);
#301=EDGE_CURVE('',#235,#243,#167,.T.);
#302=EDGE_CURVE('',#244,#245,#122,.T.);
#303=EDGE_CURVE('',#244,#246,#168,.T.);
#304=EDGE_CURVE('',#246,#247,#123,.T.);
#305=EDGE_CURVE('',#247,#246,#124,.T.);
#306=EDGE_CURVE('',#245,#244,#125,.T.);
#307=EDGE_CURVE('',#247,#248,#169,.T.);
#308=EDGE_CURVE('',#249,#248,#126,.T.);
#309=EDGE_CURVE('',#250,#249,#127,.T.);
#310=EDGE_CURVE('',#248,#250,#128,.T.);
#311=EDGE_CURVE('',#251,#251,#129,.T.);
#312=EDGE_CURVE('',#251,#252,#170,.T.);
#313=EDGE_CURVE('',#252,#252,#130,.T.);
#314=EDGE_CURVE('',#245,#253,#131,.T.);
#315=EDGE_CURVE('',#253,#254,#132,.T.);
#316=EDGE_CURVE('',#254,#253,#133,.T.);
#317=EDGE_CURVE('',#254,#255,#171,.T.);
#318=EDGE_CURVE('',#255,#255,#134,.T.);
#319=EDGE_CURVE('',#256,#256,#135,.T.);
#320=EDGE_CURVE('',#256,#257,#136,.T.);
#321=EDGE_CURVE('',#257,#257,#137,.T.);
#322=EDGE_CURVE('',#258,#258,#138,.T.);
#323=EDGE_CURVE('',#257,#259,#172,.T.);
#324=EDGE_CURVE('',#259,#259,#139,.T.);
#325=EDGE_CURVE('',#258,#260,#140,.T.);
#326=EDGE_CURVE('',#260,#260,#141,.T.);
#327=EDGE_CURVE('',#260,#261,#173,.T.);
#328=EDGE_CURVE('',#261,#261,#142,.T.);
#329=EDGE_CURVE('',#262,#263,#174,.T.);
#330=EDGE_CURVE('',#262,#250,#175,.T.);
#331=EDGE_CURVE('',#263,#249,#176,.T.);
#332=EDGE_CURVE('',#263,#262,#143,.T.);
#333=EDGE_CURVE('',#264,#234,#144,.T.);
#334=EDGE_CURVE('',#265,#233,#145,.T.);
#335=EDGE_CURVE('',#264,#265,#177,.T.);
#336=EDGE_CURVE('',#264,#266,#178,.T.);
#337=EDGE_CURVE('',#267,#265,#179,.T.);
#338=EDGE_CURVE('',#266,#267,#180,.T.);
#339=EDGE_CURVE('',#242,#266,#146,.T.);
#340=EDGE_CURVE('',#243,#267,#147,.T.);
#341=EDGE_CURVE('',#268,#269,#181,.T.);
#342=EDGE_CURVE('',#269,#262,#182,.T.);
#343=EDGE_CURVE('',#268,#263,#183,.T.);
#344=EDGE_CURVE('',#269,#268,#148,.T.);
#345=EDGE_CURVE('',#240,#261,#184,.T.);
#346=ORIENTED_EDGE('',*,*,#270,.F.);
#347=ORIENTED_EDGE('',*,*,#271,.F.);
#348=ORIENTED_EDGE('',*,*,#272,.F.);
#349=ORIENTED_EDGE('',*,*,#273,.F.);
#350=ORIENTED_EDGE('',*,*,#274,.F.);
#351=ORIENTED_EDGE('',*,*,#275,.T.);
#352=ORIENTED_EDGE('',*,*,#270,.T.);
#353=ORIENTED_EDGE('',*,*,#276,.F.);
#354=ORIENTED_EDGE('',*,*,#277,.F.);
#355=ORIENTED_EDGE('',*,*,#278,.T.);
#356=ORIENTED_EDGE('',*,*,#271,.T.);
#357=ORIENTED_EDGE('',*,*,#275,.F.);
#358=ORIENTED_EDGE('',*,*,#279,.F.);
#359=ORIENTED_EDGE('',*,*,#280,.T.);
#360=ORIENTED_EDGE('',*,*,#272,.T.);
#361=ORIENTED_EDGE('',*,*,#278,.F.);
#362=ORIENTED_EDGE('',*,*,#281,.F.);
#363=ORIENTED_EDGE('',*,*,#276,.T.);
#364=ORIENTED_EDGE('',*,*,#273,.T.);
#365=ORIENTED_EDGE('',*,*,#280,.F.);
#366=ORIENTED_EDGE('',*,*,#282,.T.);
#367=ORIENTED_EDGE('',*,*,#283,.T.);
#368=ORIENTED_EDGE('',*,*,#284,.T.);
#369=ORIENTED_EDGE('',*,*,#285,.T.);
#370=ORIENTED_EDGE('',*,*,#283,.F.);
#371=ORIENTED_EDGE('',*,*,#286,.F.);
#372=ORIENTED_EDGE('',*,*,#287,.F.);
#373=ORIENTED_EDGE('',*,*,#288,.F.);
#374=ORIENTED_EDGE('',*,*,#289,.T.);
#375=ORIENTED_EDGE('',*,*,#290,.T.);
#376=ORIENTED_EDGE('',*,*,#291,.T.);
#377=ORIENTED_EDGE('',*,*,#292,.T.);
#378=ORIENTED_EDGE('',*,*,#293,.F.);
#379=ORIENTED_EDGE('',*,*,#294,.T.);
#380=ORIENTED_EDGE('',*,*,#295,.T.);
#381=ORIENTED_EDGE('',*,*,#290,.F.);
#382=ORIENTED_EDGE('',*,*,#296,.T.);
#383=ORIENTED_EDGE('',*,*,#285,.F.);
#384=ORIENTED_EDGE('',*,*,#297,.T.);
#385=ORIENTED_EDGE('',*,*,#294,.F.);
#386=ORIENTED_EDGE('',*,*,#298,.F.);
#387=ORIENTED_EDGE('',*,*,#274,.T.);
#388=ORIENTED_EDGE('',*,*,#281,.T.);
#389=ORIENTED_EDGE('',*,*,#279,.T.);
#390=ORIENTED_EDGE('',*,*,#277,.T.);
#391=ORIENTED_EDGE('',*,*,#292,.F.);
#392=ORIENTED_EDGE('',*,*,#299,.T.);
#393=ORIENTED_EDGE('',*,*,#300,.T.);
#394=ORIENTED_EDGE('',*,*,#301,.F.);
#395=ORIENTED_EDGE('',*,*,#302,.F.);
#396=ORIENTED_EDGE('',*,*,#303,.T.);
#397=ORIENTED_EDGE('',*,*,#304,.T.);
#398=ORIENTED_EDGE('',*,*,#305,.T.);
#399=ORIENTED_EDGE('',*,*,#303,.F.);
#400=ORIENTED_EDGE('',*,*,#306,.F.);
#401=ORIENTED_EDGE('',*,*,#304,.F.);
#402=ORIENTED_EDGE('',*,*,#305,.F.);
#403=ORIENTED_EDGE('',*,*,#307,.T.);
#404=ORIENTED_EDGE('',*,*,#308,.F.);
#405=ORIENTED_EDGE('',*,*,#309,.F.);
#406=ORIENTED_EDGE('',*,*,#310,.F.);
#407=ORIENTED_EDGE('',*,*,#307,.F.);
#408=ORIENTED_EDGE('',*,*,#311,.F.);
#409=ORIENTED_EDGE('',*,*,#312,.T.);
#410=ORIENTED_EDGE('',*,*,#313,.T.);
#411=ORIENTED_EDGE('',*,*,#312,.F.);
#412=ORIENTED_EDGE('',*,*,#313,.F.);
#413=ORIENTED_EDGE('',*,*,#302,.T.);
#414=ORIENTED_EDGE('',*,*,#314,.T.);
#415=ORIENTED_EDGE('',*,*,#315,.T.);
#416=ORIENTED_EDGE('',*,*,#316,.T.);
#417=ORIENTED_EDGE('',*,*,#314,.F.);
#418=ORIENTED_EDGE('',*,*,#306,.T.);
#419=ORIENTED_EDGE('',*,*,#316,.F.);
#420=ORIENTED_EDGE('',*,*,#317,.T.);
#421=ORIENTED_EDGE('',*,*,#318,.F.);
#422=ORIENTED_EDGE('',*,*,#317,.F.);
#423=ORIENTED_EDGE('',*,*,#315,.F.);
#424=ORIENTED_EDGE('',*,*,#319,.T.);
#425=ORIENTED_EDGE('',*,*,#320,.T.);
#426=ORIENTED_EDGE('',*,*,#321,.T.);
#427=ORIENTED_EDGE('',*,*,#320,.F.);
#428=ORIENTED_EDGE('',*,*,#322,.F.);
#429=ORIENTED_EDGE('',*,*,#319,.F.);
#430=ORIENTED_EDGE('',*,*,#321,.F.);
#431=ORIENTED_EDGE('',*,*,#323,.T.);
#432=ORIENTED_EDGE('',*,*,#324,.F.);
#433=ORIENTED_EDGE('',*,*,#323,.F.);
#434=ORIENTED_EDGE('',*,*,#322,.T.);
#435=ORIENTED_EDGE('',*,*,#325,.T.);
#436=ORIENTED_EDGE('',*,*,#326,.T.);
#437=ORIENTED_EDGE('',*,*,#325,.F.);
#438=ORIENTED_EDGE('',*,*,#326,.F.);
#439=ORIENTED_EDGE('',*,*,#327,.T.);
#440=ORIENTED_EDGE('',*,*,#328,.T.);
#441=ORIENTED_EDGE('',*,*,#327,.F.);
#442=ORIENTED_EDGE('',*,*,#329,.F.);
#443=ORIENTED_EDGE('',*,*,#330,.T.);
#444=ORIENTED_EDGE('',*,*,#309,.T.);
#445=ORIENTED_EDGE('',*,*,#331,.F.);
#446=ORIENTED_EDGE('',*,*,#332,.F.);
#447=ORIENTED_EDGE('',*,*,#331,.T.);
#448=ORIENTED_EDGE('',*,*,#308,.T.);
#449=ORIENTED_EDGE('',*,*,#310,.T.);
#450=ORIENTED_EDGE('',*,*,#330,.F.);
#451=ORIENTED_EDGE('',*,*,#333,.T.);
#452=ORIENTED_EDGE('',*,*,#287,.T.);
#453=ORIENTED_EDGE('',*,*,#334,.F.);
#454=ORIENTED_EDGE('',*,*,#335,.F.);
#455=ORIENTED_EDGE('',*,*,#336,.F.);
#456=ORIENTED_EDGE('',*,*,#335,.T.);
#457=ORIENTED_EDGE('',*,*,#337,.F.);
#458=ORIENTED_EDGE('',*,*,#338,.F.);
#459=ORIENTED_EDGE('',*,*,#339,.T.);
#460=ORIENTED_EDGE('',*,*,#338,.T.);
#461=ORIENTED_EDGE('',*,*,#340,.F.);
#462=ORIENTED_EDGE('',*,*,#300,.F.);
#463=ORIENTED_EDGE('',*,*,#301,.T.);
#464=ORIENTED_EDGE('',*,*,#340,.T.);
#465=ORIENTED_EDGE('',*,*,#337,.T.);
#466=ORIENTED_EDGE('',*,*,#334,.T.);
#467=ORIENTED_EDGE('',*,*,#286,.T.);
#468=ORIENTED_EDGE('',*,*,#282,.F.);
#469=ORIENTED_EDGE('',*,*,#296,.F.);
#470=ORIENTED_EDGE('',*,*,#289,.F.);
#471=ORIENTED_EDGE('',*,*,#341,.T.);
#472=ORIENTED_EDGE('',*,*,#342,.T.);
#473=ORIENTED_EDGE('',*,*,#329,.T.);
#474=ORIENTED_EDGE('',*,*,#343,.F.);
#475=ORIENTED_EDGE('',*,*,#344,.T.);
#476=ORIENTED_EDGE('',*,*,#343,.T.);
#477=ORIENTED_EDGE('',*,*,#332,.T.);
#478=ORIENTED_EDGE('',*,*,#342,.F.);
#479=ORIENTED_EDGE('',*,*,#288,.T.);
#480=ORIENTED_EDGE('',*,*,#333,.F.);
#481=ORIENTED_EDGE('',*,*,#336,.T.);
#482=ORIENTED_EDGE('',*,*,#339,.F.);
#483=ORIENTED_EDGE('',*,*,#299,.F.);
#484=ORIENTED_EDGE('',*,*,#291,.F.);
#485=ORIENTED_EDGE('',*,*,#295,.F.);
#486=ORIENTED_EDGE('',*,*,#297,.F.);
#487=ORIENTED_EDGE('',*,*,#284,.F.);
#488=ORIENTED_EDGE('',*,*,#311,.T.);
#489=ORIENTED_EDGE('',*,*,#344,.F.);
#490=ORIENTED_EDGE('',*,*,#341,.F.);
#491=ORIENTED_EDGE('',*,*,#324,.T.);
#492=ORIENTED_EDGE('',*,*,#318,.T.);
#493=ORIENTED_EDGE('',*,*,#293,.T.);
#494=ORIENTED_EDGE('',*,*,#345,.T.);
#495=ORIENTED_EDGE('',*,*,#328,.F.);
#496=ORIENTED_EDGE('',*,*,#345,.F.);
#497=ORIENTED_EDGE('',*,*,#298,.T.);
#498=CYLINDRICAL_SURFACE('',#556,18.8);
#499=CYLINDRICAL_SURFACE('',#565,0.250000000000001);
#500=CYLINDRICAL_SURFACE('',#569,0.250000000003271);
#501=CYLINDRICAL_SURFACE('',#572,18.3);
#502=CYLINDRICAL_SURFACE('',#584,25.);
#503=CYLINDRICAL_SURFACE('',#588,0.85);
#504=CYLINDRICAL_SURFACE('',#596,26.5);
#505=CYLINDRICAL_SURFACE('',#604,30.);
#506=CYLINDRICAL_SURFACE('',#609,31.5);
#507=CYLINDRICAL_SURFACE('',#612,0.299999999994019);
#508=CYLINDRICAL_SURFACE('',#616,0.300000000000002);
#509=CYLINDRICAL_SURFACE('',#621,6.);
#510=ADVANCED_FACE('',(#40),#498,.T.);
#511=ADVANCED_FACE('',(#41),#27,.F.);
#512=ADVANCED_FACE('',(#42),#28,.F.);
#513=ADVANCED_FACE('',(#43),#29,.F.);
#514=ADVANCED_FACE('',(#44),#30,.F.);
#515=ADVANCED_FACE('',(#45),#499,.F.);
#516=ADVANCED_FACE('',(#46),#31,.T.);
#517=ADVANCED_FACE('',(#47),#500,.F.);
#518=ADVANCED_FACE('',(#48,#22),#501,.T.);
#519=ADVANCED_FACE('',(#49),#32,.T.);
#520=ADVANCED_FACE('',(#50),#20,.F.);
#521=ADVANCED_FACE('',(#51),#502,.F.);
#522=ADVANCED_FACE('',(#52),#503,.F.);
#523=ADVANCED_FACE('',(#53),#33,.T.);
#524=ADVANCED_FACE('',(#54),#17,.T.);
#525=ADVANCED_FACE('',(#55),#504,.T.);
#526=ADVANCED_FACE('',(#56),#18,.T.);
#527=ADVANCED_FACE('',(#57,#23),#34,.T.);
#528=ADVANCED_FACE('',(#58),#505,.F.);
#529=ADVANCED_FACE('',(#59),#19,.T.);
#530=ADVANCED_FACE('',(#60),#506,.T.);
#531=ADVANCED_FACE('',(#61),#15,.F.);
#532=ADVANCED_FACE('',(#62),#16,.F.);
#533=ADVANCED_FACE('',(#63),#507,.T.);
#534=ADVANCED_FACE('',(#64),#35,.T.);
#535=ADVANCED_FACE('',(#65),#508,.T.);
#536=ADVANCED_FACE('',(#66),#36,.T.);
#537=ADVANCED_FACE('',(#67),#37,.T.);
#538=ADVANCED_FACE('',(#68),#509,.F.);
#539=ADVANCED_FACE('',(#69,#24,#25),#38,.F.);
#540=ADVANCED_FACE('',(#70,#26),#39,.T.);
#541=ADVANCED_FACE('',(#71),#21,.T.);
#542=CLOSED_SHELL('',(#510,#511,#512,#513,#514,#515,#516,#517,#518,#519,
#520,#521,#522,#523,#524,#525,#526,#527,#528,#529,#530,#531,#532,#533,#534,
#535,#536,#537,#538,#539,#540,#541));
#543=DERIVED_UNIT_ELEMENT(#545,1.);
#544=DERIVED_UNIT_ELEMENT(#1061,-3.);
#545=(
MASS_UNIT()
NAMED_UNIT(*)
SI_UNIT(.KILO.,.GRAM.)
);
#546=DERIVED_UNIT((#543,#544));
#547=MEASURE_REPRESENTATION_ITEM('density measure',
POSITIVE_RATIO_MEASURE(7850.),#546);
#548=PROPERTY_DEFINITION_REPRESENTATION(#553,#550);
#549=PROPERTY_DEFINITION_REPRESENTATION(#554,#551);
#550=REPRESENTATION('material name',(#552),#1058);
#551=REPRESENTATION('density',(#547),#1058);
#552=DESCRIPTIVE_REPRESENTATION_ITEM('Steel','Steel');
#553=PROPERTY_DEFINITION('material property','material name',#1068);
#554=PROPERTY_DEFINITION('material property','density of part',#1068);
#555=AXIS2_PLACEMENT_3D('',#804,#626,#627);
#556=AXIS2_PLACEMENT_3D('',#805,#628,#629);
#557=AXIS2_PLACEMENT_3D('',#810,#631,#632);
#558=AXIS2_PLACEMENT_3D('',#813,#634,#635);
#559=AXIS2_PLACEMENT_3D('',#814,#636,#637);
#560=AXIS2_PLACEMENT_3D('',#820,#641,#642);
#561=AXIS2_PLACEMENT_3D('',#822,#643,#644);
#562=AXIS2_PLACEMENT_3D('',#824,#646,#647);
#563=AXIS2_PLACEMENT_3D('',#828,#650,#651);
#564=AXIS2_PLACEMENT_3D('',#829,#652,#653);
#565=AXIS2_PLACEMENT_3D('',#830,#654,#655);
#566=AXIS2_PLACEMENT_3D('',#833,#656,#657);
#567=AXIS2_PLACEMENT_3D('',#837,#659,#660);
#568=AXIS2_PLACEMENT_3D('',#839,#662,#663);
#569=AXIS2_PLACEMENT_3D('',#845,#667,#668);
#570=AXIS2_PLACEMENT_3D('',#848,#669,#670);
#571=AXIS2_PLACEMENT_3D('',#852,#672,#673);
#572=AXIS2_PLACEMENT_3D('',#854,#675,#676);
#573=AXIS2_PLACEMENT_3D('',#857,#677,#678);
#574=AXIS2_PLACEMENT_3D('',#860,#680,#681);
#575=AXIS2_PLACEMENT_3D('',#861,#682,#683);
#576=AXIS2_PLACEMENT_3D('',#862,#684,#685);
#577=AXIS2_PLACEMENT_3D('',#863,#686,#687);
#578=AXIS2_PLACEMENT_3D('',#864,#688,#689);
#579=AXIS2_PLACEMENT_3D('',#870,#693,#694);
#580=AXIS2_PLACEMENT_3D('',#873,#695,#696);
#581=AXIS2_PLACEMENT_3D('',#877,#698,#699);
#582=AXIS2_PLACEMENT_3D('',#878,#700,#701);
#583=AXIS2_PLACEMENT_3D('',#879,#702,#703);
#584=AXIS2_PLACEMENT_3D('',#880,#704,#705);
#585=AXIS2_PLACEMENT_3D('',#884,#707,#708);
#586=AXIS2_PLACEMENT_3D('',#886,#709,#710);
#587=AXIS2_PLACEMENT_3D('',#887,#711,#712);
#588=AXIS2_PLACEMENT_3D('',#888,#713,#714);
#589=AXIS2_PLACEMENT_3D('',#890,#715,#716);
#590=AXIS2_PLACEMENT_3D('',#893,#718,#719);
#591=AXIS2_PLACEMENT_3D('',#894,#720,#721);
#592=AXIS2_PLACEMENT_3D('',#895,#722,#723);
#593=AXIS2_PLACEMENT_3D('',#897,#724,#725);
#594=AXIS2_PLACEMENT_3D('',#899,#726,#727);
#595=AXIS2_PLACEMENT_3D('',#900,#728,#729);
#596=AXIS2_PLACEMENT_3D('',#901,#730,#731);
#597=AXIS2_PLACEMENT_3D('',#904,#733,#734);
#598=AXIS2_PLACEMENT_3D('',#905,#735,#736);
#599=AXIS2_PLACEMENT_3D('',#907,#737,#738);
#600=AXIS2_PLACEMENT_3D('',#909,#739,#740);
#601=AXIS2_PLACEMENT_3D('',#910,#741,#742);
#602=AXIS2_PLACEMENT_3D('',#911,#743,#744);
#603=AXIS2_PLACEMENT_3D('',#913,#745,#746);
#604=AXIS2_PLACEMENT_3D('',#914,#747,#748);
#605=AXIS2_PLACEMENT_3D('',#917,#750,#751);
#606=AXIS2_PLACEMENT_3D('',#918,#752,#753);
#607=AXIS2_PLACEMENT_3D('',#920,#754,#755);
#608=AXIS2_PLACEMENT_3D('',#921,#756,#757);
#609=AXIS2_PLACEMENT_3D('',#922,#758,#759);
#610=AXIS2_PLACEMENT_3D('',#925,#761,#762);
#611=AXIS2_PLACEMENT_3D('',#1027,#766,#767);
#612=AXIS2_PLACEMENT_3D('',#1028,#768,#769);
#613=AXIS2_PLACEMENT_3D('',#1030,#770,#771);
#614=AXIS2_PLACEMENT_3D('',#1032,#772,#773);
#615=AXIS2_PLACEMENT_3D('',#1034,#775,#776);
#616=AXIS2_PLACEMENT_3D('',#1040,#780,#781);
#617=AXIS2_PLACEMENT_3D('',#1041,#782,#783);
#618=AXIS2_PLACEMENT_3D('',#1042,#784,#785);
#619=AXIS2_PLACEMENT_3D('',#1043,#786,#787);
#620=AXIS2_PLACEMENT_3D('',#1044,#788,#789);
#621=AXIS2_PLACEMENT_3D('',#1050,#793,#794);
#622=AXIS2_PLACEMENT_3D('',#1051,#795,#796);
#623=AXIS2_PLACEMENT_3D('',#1052,#797,#798);
#624=AXIS2_PLACEMENT_3D('',#1053,#799,#800);
#625=AXIS2_PLACEMENT_3D('',#1054,#801,#802);
#626=DIRECTION('axis',(0.,0.,1.));
#627=DIRECTION('refdir',(1.,0.,0.));
#628=DIRECTION('center_axis',(0.,0.,1.));
#629=DIRECTION('ref_axis',(-1.,0.,0.));
#630=DIRECTION('',(0.,0.,-1.));
#631=DIRECTION('center_axis',(0.,0.,1.));
#632=DIRECTION('ref_axis',(-0.737928907988785,-0.674878453319173,0.));
#633=DIRECTION('',(0.,0.,1.));
#634=DIRECTION('center_axis',(0.,0.,-1.));
#635=DIRECTION('ref_axis',(-0.718101941402557,-0.695937929526678,0.));
#636=DIRECTION('center_axis',(-0.695937929526678,0.718101941402557,0.));
#637=DIRECTION('ref_axis',(0.,0.,1.));
#638=DIRECTION('',(0.,0.,-1.));
#639=DIRECTION('',(-0.718101941402557,-0.695937929526677,0.));
#640=DIRECTION('',(-0.718101941402557,-0.695937929526678,0.));
#641=DIRECTION('center_axis',(0.,0.,-1.));
#642=DIRECTION('ref_axis',(-1.,0.,0.));
#643=DIRECTION('center_axis',(0.,0.,1.));
#644=DIRECTION('ref_axis',(-1.,0.,0.));
#645=DIRECTION('',(-0.737928907988785,-0.674878453319173,0.));
#646=DIRECTION('center_axis',(0.674878453319173,-0.737928907988785,0.));
#647=DIRECTION('ref_axis',(0.,0.,-1.));
#648=DIRECTION('',(0.,0.,1.));
#649=DIRECTION('',(-0.737928907988785,-0.674878453319173,0.));
#650=DIRECTION('center_axis',(0.,0.,1.));
#651=DIRECTION('ref_axis',(1.,0.,0.));
#652=DIRECTION('center_axis',(0.,0.,-1.));
#653=DIRECTION('ref_axis',(-1.,0.,0.));
#654=DIRECTION('center_axis',(0.,0.,1.));
#655=DIRECTION('ref_axis',(-0.0225322197439849,-0.999746117308494,0.));
#656=DIRECTION('center_axis',(0.,0.,1.));
#657=DIRECTION('ref_axis',(-0.0225322197439849,-0.999746117308494,0.));
#658=DIRECTION('',(0.,0.,-1.));
#659=DIRECTION('center_axis',(0.,0.,-1.));
#660=DIRECTION('ref_axis',(-0.0225322197439849,-0.999746117308494,0.));
#661=DIRECTION('',(0.,0.,1.));
#662=DIRECTION('center_axis',(-0.686107749928094,0.727499935043714,0.));
#663=DIRECTION('ref_axis',(-0.727499935043714,-0.686107749928094,0.));
#664=DIRECTION('',(-0.727499935043714,-0.686107749928094,0.));
#665=DIRECTION('',(0.,0.,1.));
#666=DIRECTION('',(0.727499935043714,0.686107749928094,0.));
#667=DIRECTION('center_axis',(0.,0.,-1.));
#668=DIRECTION('ref_axis',(-0.994954282421302,0.100329337142789,0.));
#669=DIRECTION('center_axis',(0.,0.,1.));
#670=DIRECTION('ref_axis',(-0.994954282421302,0.100329337142789,0.));
#671=DIRECTION('',(0.,0.,-1.));
#672=DIRECTION('center_axis',(0.,0.,-1.));
#673=DIRECTION('ref_axis',(-0.994954282421302,0.100329337142789,0.));
#674=DIRECTION('',(0.,0.,1.));
#675=DIRECTION('center_axis',(0.,0.,1.));
#676=DIRECTION('ref_axis',(-1.,0.,0.));
#677=DIRECTION('center_axis',(0.,0.,1.));
#678=DIRECTION('ref_axis',(-1.,0.,0.));
#679=DIRECTION('',(0.,0.,-1.));
#680=DIRECTION('center_axis',(0.,0.,-1.));
#681=DIRECTION('ref_axis',(-1.,0.,0.));
#682=DIRECTION('center_axis',(0.,0.,1.));
#683=DIRECTION('ref_axis',(-1.,0.,0.));
#684=DIRECTION('center_axis',(0.,0.,-1.));
#685=DIRECTION('ref_axis',(-1.,0.,0.));
#686=DIRECTION('center_axis',(0.,0.,1.));
#687=DIRECTION('ref_axis',(-1.,0.,0.));
#688=DIRECTION('center_axis',(0.637800005269875,-0.770202021081318,0.));
#689=DIRECTION('ref_axis',(0.770202021081318,0.637800005269875,0.));
#690=DIRECTION('',(0.770202021081318,0.637800005269875,0.));
#691=DIRECTION('',(0.,0.,1.));
#692=DIRECTION('',(0.770202021081318,0.637800005269875,0.));
#693=DIRECTION('center_axis',(0.,0.,1.));
#694=DIRECTION('ref_axis',(-1.,0.,0.));
#695=DIRECTION('center_axis',(0.,0.,-1.));
#696=DIRECTION('ref_axis',(-1.,0.,0.));
#697=DIRECTION('',(-0.707106781186549,-8.65956056235495E-17,-0.707106781186546));
#698=DIRECTION('center_axis',(0.,0.,-1.));
#699=DIRECTION('ref_axis',(-1.,0.,0.));
#700=DIRECTION('center_axis',(0.,0.,-1.));
#701=DIRECTION('ref_axis',(-1.,0.,0.));
#702=DIRECTION('center_axis',(0.,0.,-1.));
#703=DIRECTION('ref_axis',(-1.,0.,0.));
#704=DIRECTION('center_axis',(0.,0.,1.));
#705=DIRECTION('ref_axis',(1.,0.,0.));
#706=DIRECTION('',(0.,0.,-1.));
#707=DIRECTION('center_axis',(0.,0.,1.));
#708=DIRECTION('ref_axis',(1.,0.,0.));
#709=DIRECTION('center_axis',(0.,0.,1.));
#710=DIRECTION('ref_axis',(1.,0.,0.));
#711=DIRECTION('center_axis',(0.,0.,1.));
#712=DIRECTION('ref_axis',(1.,0.,0.));
#713=DIRECTION('center_axis',(0.,0.,1.));
#714=DIRECTION('ref_axis',(1.,0.,0.));
#715=DIRECTION('center_axis',(0.,0.,1.));
#716=DIRECTION('ref_axis',(1.,0.,0.));
#717=DIRECTION('',(0.,0.,1.));
#718=DIRECTION('center_axis',(0.,0.,1.));
#719=DIRECTION('ref_axis',(1.,0.,0.));
#720=DIRECTION('center_axis',(0.,0.,-1.));
#721=DIRECTION('ref_axis',(1.,0.,0.));
#722=DIRECTION('center_axis',(0.,0.,1.));
#723=DIRECTION('ref_axis',(1.,0.,0.));
#724=DIRECTION('center_axis',(0.,-1.,0.));
#725=DIRECTION('ref_axis',(-1.,0.,0.));
#726=DIRECTION('center_axis',(0.,0.,1.));
#727=DIRECTION('ref_axis',(-1.,0.,0.));
#728=DIRECTION('center_axis',(0.,0.,1.));
#729=DIRECTION('ref_axis',(-1.,0.,0.));
#730=DIRECTION('center_axis',(0.,0.,1.));
#731=DIRECTION('ref_axis',(-1.,0.,0.));
#732=DIRECTION('',(0.,0.,-1.));
#733=DIRECTION('center_axis',(0.,0.,-1.));
#734=DIRECTION('ref_axis',(-1.,0.,0.));
#735=DIRECTION('center_axis',(0.,0.,-1.));
#736=DIRECTION('ref_axis',(-1.,0.,0.));
#737=DIRECTION('center_axis',(0.,0.,1.));
#738=DIRECTION('ref_axis',(-1.,0.,0.));
#739=DIRECTION('center_axis',(0.,-1.,0.));
#740=DIRECTION('ref_axis',(1.,0.,0.));
#741=DIRECTION('center_axis',(0.,0.,-1.));
#742=DIRECTION('ref_axis',(-1.,0.,0.));
#743=DIRECTION('center_axis',(0.,0.,1.));
#744=DIRECTION('ref_axis',(-1.,0.,0.));
#745=DIRECTION('center_axis',(0.,0.,-1.));
#746=DIRECTION('ref_axis',(-1.,0.,0.));
#747=DIRECTION('center_axis',(0.,0.,1.));
#748=DIRECTION('ref_axis',(-1.,0.,0.));
#749=DIRECTION('',(0.,0.,-1.));
#750=DIRECTION('center_axis',(0.,0.,1.));
#751=DIRECTION('ref_axis',(-1.,0.,0.));
#752=DIRECTION('center_axis',(0.,0.,1.));
#753=DIRECTION('ref_axis',(1.,0.,0.));
#754=DIRECTION('center_axis',(0.,-1.,0.));
#755=DIRECTION('ref_axis',(-1.,0.,0.));
#756=DIRECTION('center_axis',(0.,0.,1.));
#757=DIRECTION('ref_axis',(-1.,0.,0.));
#758=DIRECTION('center_axis',(0.,0.,1.));
#759=DIRECTION('ref_axis',(1.,0.,0.));
#760=DIRECTION('',(0.,0.,-1.));
#761=DIRECTION('center_axis',(0.,0.,1.));
#762=DIRECTION('ref_axis',(1.,0.,0.));
#763=DIRECTION('',(1.,4.47599851120165E-15,0.));
#764=DIRECTION('',(-0.392334710606405,-0.815122739404627,0.426202293000501));
#765=DIRECTION('',(0.368989744583383,-0.827227333598233,0.423723384934379));
#766=DIRECTION('center_axis',(0.,0.,1.));
#767=DIRECTION('ref_axis',(0.661437827766156,-0.749999999999993,0.));
#768=DIRECTION('center_axis',(0.,0.,1.));
#769=DIRECTION('ref_axis',(0.681066032663991,0.732222001275113,0.));
#770=DIRECTION('center_axis',(0.,0.,1.));
#771=DIRECTION('ref_axis',(0.681066032663991,0.732222001275113,0.));
#772=DIRECTION('center_axis',(0.,0.,1.));
#773=DIRECTION('ref_axis',(0.681066032663991,0.732222001275113,0.));
#774=DIRECTION('',(0.,0.,1.));
#775=DIRECTION('center_axis',(0.681066032670909,0.732222001268678,0.));
#776=DIRECTION('ref_axis',(-0.732222001268678,0.681066032670909,0.));
#777=DIRECTION('',(0.732222001268678,-0.681066032670909,0.));
#778=DIRECTION('',(-0.732222001268678,0.681066032670909,0.));
#779=DIRECTION('',(0.,0.,1.));
#780=DIRECTION('center_axis',(0.,0.,1.));
#781=DIRECTION('ref_axis',(0.637800005269869,-0.770202021081323,0.));
#782=DIRECTION('center_axis',(0.,0.,1.));
#783=DIRECTION('ref_axis',(0.637800005269869,-0.770202021081323,0.));
#784=DIRECTION('center_axis',(0.,0.,1.));
#785=DIRECTION('ref_axis',(0.637800005269869,-0.770202021081323,0.));
#786=DIRECTION('center_axis',(0.,0.,1.));
#787=DIRECTION('ref_axis',(-1.,0.,0.));
#788=DIRECTION('center_axis',(-4.47599851120165E-15,1.,0.));
#789=DIRECTION('ref_axis',(-1.,-4.47599851120165E-15,0.));
#790=DIRECTION('',(-1.,-4.47599851120165E-15,0.));
#791=DIRECTION('',(0.,0.,1.));
#792=DIRECTION('',(0.,0.,1.));
#793=DIRECTION('center_axis',(0.,0.,1.));
#794=DIRECTION('ref_axis',(-4.16333634234434E-15,1.,0.));
#795=DIRECTION('center_axis',(0.,0.,-1.));
#796=DIRECTION('ref_axis',(0.661437827766156,-0.749999999999993,0.));
#797=DIRECTION('center_axis',(0.,0.,1.));
#798=DIRECTION('ref_axis',(-1.,0.,0.));
#799=DIRECTION('center_axis',(0.,0.,1.));
#800=DIRECTION('ref_axis',(1.,0.,0.));
#801=DIRECTION('center_axis',(0.,0.,1.));
#802=DIRECTION('ref_axis',(1.,0.,0.));
#803=DIRECTION('',(-0.707106781186547,8.65956056235493E-17,0.707106781186548));
#804=CARTESIAN_POINT('',(0.,0.,0.));
#805=CARTESIAN_POINT('Origin',(-1.81292418188761E-6,50.8499991921233,73.5));
#806=CARTESIAN_POINT('',(-13.5003183112923,37.7663661170218,77.8999997854233));
#807=CARTESIAN_POINT('',(-13.5003183112923,37.7663661170218,73.8999997258186));
#808=CARTESIAN_POINT('',(-13.5003183112923,37.7663661170218,77.8999997854233));
#809=CARTESIAN_POINT('',(-13.8730652831133,38.1622842697228,77.8999997854233));
#810=CARTESIAN_POINT('Origin',(-1.81292418188761E-6,50.8499991921233,77.8999997854233));
#811=CARTESIAN_POINT('',(-13.8730652831133,38.1622842697228,73.8999997258186));
#812=CARTESIAN_POINT('',(-13.8730652831133,38.1622842697228,73.8999997258186));
#813=CARTESIAN_POINT('Origin',(-1.81292418188761E-6,50.8499991921233,73.8999997258186));
#814=CARTESIAN_POINT('Origin',(-13.141267340591,38.1143350817851,75.899999755621));
#815=CARTESIAN_POINT('',(-13.141267340591,38.1143350817851,77.8999997854233));
#816=CARTESIAN_POINT('',(-13.141267340591,38.1143350817851,73.8999997258186));
#817=CARTESIAN_POINT('',(-13.141267340591,38.1143350817851,73.5));
#818=CARTESIAN_POINT('',(-13.141267340591,38.1143350817851,77.8999997854233));
#819=CARTESIAN_POINT('',(-13.141267340591,38.1143350817851,73.8999997258186));
#820=CARTESIAN_POINT('Origin',(-13.3240775398309,38.3057173863101,77.8999997854233));
#821=CARTESIAN_POINT('',(-13.5041008291189,38.4997234963824,77.8999997854233));
#822=CARTESIAN_POINT('Origin',(-1.81292418188761E-6,50.8499991921233,77.8999997854233));
#823=CARTESIAN_POINT('',(-13.5041008291189,38.4997234963824,77.8999997854233));
#824=CARTESIAN_POINT('Origin',(-13.5041008291189,38.4997234963824,75.899999755621));
#825=CARTESIAN_POINT('',(-13.504100829119,38.4997234963824,73.8999997258186));
#826=CARTESIAN_POINT('',(-13.504100829119,38.4997234963824,73.5));
#827=CARTESIAN_POINT('',(-13.504100829119,38.4997234963824,73.8999997258186));
#828=CARTESIAN_POINT('Origin',(-13.3240775398309,38.3057173863101,73.8999997258186));
#829=CARTESIAN_POINT('Origin',(-1.81292418188761E-6,50.8499991921233,73.8999997258186));
#830=CARTESIAN_POINT('Origin',(13.322369416332,63.7580170426644,73.5));
#831=CARTESIAN_POINT('',(13.1428226342666,63.5840545379401,75.5));
#832=CARTESIAN_POINT('',(13.493896353814,63.5761420589034,75.5));
#833=CARTESIAN_POINT('Origin',(13.322369416332,63.7580170426644,75.5));
#834=CARTESIAN_POINT('',(13.493896353814,63.5761420589034,73.5));
#835=CARTESIAN_POINT('',(13.493896353814,63.5761420589035,73.5));
#836=CARTESIAN_POINT('',(13.1428226342666,63.5840545379401,73.5));
#837=CARTESIAN_POINT('Origin',(13.322369416332,63.7580170426644,73.5));
#838=CARTESIAN_POINT('',(13.1428226342666,63.5840545379401,73.5));
#839=CARTESIAN_POINT('Origin',(14.0851827882276,64.133786376843,73.5));
#840=CARTESIAN_POINT('',(14.0851827882317,64.1337863768386,75.5));
#841=CARTESIAN_POINT('',(-1.81292418188761E-6,50.8499991921233,75.5));
#842=CARTESIAN_POINT('',(14.0851827882317,64.1337863768386,73.5));
#843=CARTESIAN_POINT('',(14.0851827882317,64.1337863768386,73.5));
#844=CARTESIAN_POINT('',(-1.81292418188761E-6,50.8499991921233,73.5));
#845=CARTESIAN_POINT('Origin',(14.4453981103903,62.4875642748898,73.5));
#846=CARTESIAN_POINT('',(14.2859481090708,62.6801147801627,75.5));
#847=CARTESIAN_POINT('',(14.2507161707205,62.3307237751201,75.5));
#848=CARTESIAN_POINT('Origin',(14.4453981103903,62.4875642748898,75.5));
#849=CARTESIAN_POINT('',(14.2507161707205,62.3307237751201,73.5));
#850=CARTESIAN_POINT('',(14.2507161707205,62.3307237751201,73.5));
#851=CARTESIAN_POINT('',(14.2859481090708,62.6801147801627,73.5));
#852=CARTESIAN_POINT('Origin',(14.4453981103903,62.4875642748898,73.5));
#853=CARTESIAN_POINT('',(14.2859481090708,62.6801147801627,73.5));
#854=CARTESIAN_POINT('Origin',(-1.81292418188761E-6,50.8499991921233,73.5));
#855=CARTESIAN_POINT('',(18.2999981870758,50.8499991921233,78.3));
#856=CARTESIAN_POINT('',(-18.3000018129242,50.8499991921233,78.3));
#857=CARTESIAN_POINT('Origin',(-1.81292418188761E-6,50.8499991921233,78.3));
#858=CARTESIAN_POINT('',(18.2999981870758,50.8499991921233,73.5));
#859=CARTESIAN_POINT('',(18.2999981870758,50.8499991921233,73.5));
#860=CARTESIAN_POINT('Origin',(-1.81292418188761E-6,50.8499991921233,73.5));
#861=CARTESIAN_POINT('Origin',(-1.81292418188761E-6,50.8499991921233,75.5));
#862=CARTESIAN_POINT('Origin',(-1.81292418188761E-6,50.8499991921233,73.5));
#863=CARTESIAN_POINT('Origin',(-1.81292418188761E-6,50.8499991921233,78.3));
#864=CARTESIAN_POINT('Origin',(14.4400023553051,62.8076862437148,73.5));
#865=CARTESIAN_POINT('',(14.9610850091096,63.2391918880079,73.5));
#866=CARTESIAN_POINT('',(-1.81292418410806E-6,50.8499991921233,73.5));
#867=CARTESIAN_POINT('',(14.9610850091096,63.2391918880079,75.5));
#868=CARTESIAN_POINT('',(14.9610850091096,63.2391918880079,73.5));
#869=CARTESIAN_POINT('',(-1.81292418410806E-6,50.8499991921233,75.5));
#870=CARTESIAN_POINT('Origin',(-1.81292418410806E-6,50.8499991921233,103.));
#871=CARTESIAN_POINT('',(25.9999981870758,50.8499991921233,103.5));
#872=CARTESIAN_POINT('',(-26.0000018129242,50.8499991921233,103.5));
#873=CARTESIAN_POINT('Origin',(-1.81292418410806E-6,50.8499991921233,103.5));
#874=CARTESIAN_POINT('',(24.9999981870758,50.8499991921233,102.5));
#875=CARTESIAN_POINT('',(25.4999981870758,50.8499991921233,103.));
#876=CARTESIAN_POINT('',(-25.0000018129242,50.8499991921233,102.5));
#877=CARTESIAN_POINT('Origin',(-1.81292418410806E-6,50.8499991921233,102.5));
#878=CARTESIAN_POINT('Origin',(-1.81292418410806E-6,50.8499991921233,102.5));
#879=CARTESIAN_POINT('Origin',(-1.81292418410806E-6,50.8499991921233,103.5));
#880=CARTESIAN_POINT('Origin',(-1.81292418410806E-6,50.8499991921233,91.5));
#881=CARTESIAN_POINT('',(-25.0000018129242,50.8499991921233,91.5));
#882=CARTESIAN_POINT('',(-25.0000018129242,50.8499991921233,91.5));
#883=CARTESIAN_POINT('',(15.2893755539058,31.0703394444262,91.5));
#884=CARTESIAN_POINT('Origin',(-1.81292418410806E-6,50.8499991921233,91.5));
#885=CARTESIAN_POINT('',(-15.9356015566414,31.5871681227286,91.5));
#886=CARTESIAN_POINT('Origin',(-1.81292418410806E-6,50.8499991921233,91.5));
#887=CARTESIAN_POINT('Origin',(-1.81292418410806E-6,50.8499991921233,91.5));
#888=CARTESIAN_POINT('Origin',(-1.81292416922413E-6,50.8499991921233,73.5));
#889=CARTESIAN_POINT('',(-0.850001812924169,50.8499991921233,73.5));
#890=CARTESIAN_POINT('Origin',(-1.81292416922413E-6,50.8499991921233,73.5));
#891=CARTESIAN_POINT('',(-0.850001812924169,50.8499991921233,79.5));
#892=CARTESIAN_POINT('',(-0.850001812924169,50.8499991921233,73.5));
#893=CARTESIAN_POINT('Origin',(-1.81292416922413E-6,50.8499991921233,79.5));
#894=CARTESIAN_POINT('Origin',(-1.81292416925882E-6,50.8499991921233,79.5));
#895=CARTESIAN_POINT('Origin',(-1.81292418410806E-6,50.8499991921233,103.));
#896=CARTESIAN_POINT('',(-26.5000018129242,50.8499991921233,103.));
#897=CARTESIAN_POINT('Origin',(-26.0000018129242,50.8499991921233,103.));
#898=CARTESIAN_POINT('',(26.4999981870758,50.8499991921233,103.));
#899=CARTESIAN_POINT('Origin',(-1.81292418410806E-6,50.8499991921233,103.));
#900=CARTESIAN_POINT('Origin',(-1.81292418410806E-6,50.8499991921233,103.));
#901=CARTESIAN_POINT('Origin',(-1.81292418410806E-6,50.8499991921233,93.5));
#902=CARTESIAN_POINT('',(26.4999981870758,50.8499991921233,93.5));
#903=CARTESIAN_POINT('',(26.4999981870758,50.8499991921233,93.5));
#904=CARTESIAN_POINT('Origin',(-1.81292418410806E-6,50.8499991921233,93.5));
#905=CARTESIAN_POINT('Origin',(-1.81292418410806E-6,50.8499991921233,100.));
#906=CARTESIAN_POINT('',(30.4999981870758,50.8499991921233,100.5));
#907=CARTESIAN_POINT('Origin',(-1.81292418410806E-6,50.8499991921233,100.5));
#908=CARTESIAN_POINT('',(29.9999981870758,50.8499991921233,100.));
#909=CARTESIAN_POINT('Origin',(30.4999981870758,50.8499991921233,100.));
#910=CARTESIAN_POINT('Origin',(-1.81292418410806E-6,50.8499991921233,100.));
#911=CARTESIAN_POINT('Origin',(-1.81292418410806E-6,50.8499991921233,100.5));
#912=CARTESIAN_POINT('',(-31.0000018129242,50.8499991921233,100.5));
#913=CARTESIAN_POINT('Origin',(-1.81292418410806E-6,50.8499991921233,100.5));
#914=CARTESIAN_POINT('Origin',(-1.81292418410806E-6,50.8499991921233,93.5));
#915=CARTESIAN_POINT('',(29.9999981870758,50.8499991921233,93.5));
#916=CARTESIAN_POINT('',(29.9999981870758,50.8499991921233,93.5));
#917=CARTESIAN_POINT('Origin',(-1.81292418410806E-6,50.8499991921233,93.5));
#918=CARTESIAN_POINT('Origin',(-1.81292418410806E-6,50.8499991921233,100.));
#919=CARTESIAN_POINT('',(-31.5000018129242,50.8499991921233,100.));
#920=CARTESIAN_POINT('Origin',(-31.0000018129242,50.8499991921233,100.));
#921=CARTESIAN_POINT('Origin',(-1.81292418410806E-6,50.8499991921233,100.));
#922=CARTESIAN_POINT('Origin',(-1.81292418410806E-6,50.8499991921233,91.5));
#923=CARTESIAN_POINT('',(-31.5000018129242,50.8499991921233,91.5));
#924=CARTESIAN_POINT('',(-31.5000018129242,50.8499991921233,91.5));
#925=CARTESIAN_POINT('Origin',(-1.81292418410806E-6,50.8499991921233,91.5));
#926=CARTESIAN_POINT('Ctrl Pts',(-3.96862877952108,56.4499991921233,78.5));
#927=CARTESIAN_POINT('Ctrl Pts',(-7.95761970522786,48.1623888356584,82.8333333333333));
#928=CARTESIAN_POINT('Ctrl Pts',(-11.9466106309346,39.8747784791935,87.1666666666667));
#929=CARTESIAN_POINT('Ctrl Pts',(-15.9356015566414,31.5871681227286,91.5));
#930=CARTESIAN_POINT('Ctrl Pts',(-3.21269983350262,56.4499991921233,78.5));
#931=CARTESIAN_POINT('Ctrl Pts',(-6.62919015747172,47.4796153766477,82.8333333333333));
#932=CARTESIAN_POINT('Ctrl Pts',(-10.0439287137527,38.5099028791406,87.1666666666667));
#933=CARTESIAN_POINT('Ctrl Pts',(-13.4604190377218,29.5395190636649,91.5));
#934=CARTESIAN_POINT('Ctrl Pts',(-1.7008419414657,56.4499991921233,78.5));
#935=CARTESIAN_POINT('Ctrl Pts',(-3.70431097158795,46.4366833581137,82.8333333333333));
#936=CARTESIAN_POINT('Ctrl Pts',(-5.70765966184841,36.4250574151493,87.1666666666667));
#937=CARTESIAN_POINT('Ctrl Pts',(-7.71112869197066,26.4117415811397,91.5000000000001));
#938=CARTESIAN_POINT('Ctrl Pts',(0.377962660085064,56.4499991921233,78.5));
#939=CARTESIAN_POINT('Ctrl Pts',(0.66195782322279,46.0989570461702,82.8333333333333));
#940=CARTESIAN_POINT('Ctrl Pts',(0.946280102643186,35.7481725072741,87.1666666666667));
#941=CARTESIAN_POINT('Ctrl Pts',(1.23027526578091,25.397130361321,91.5));
#942=CARTESIAN_POINT('Ctrl Pts',(2.26778502513122,56.4499991921234,78.5));
#943=CARTESIAN_POINT('Ctrl Pts',(4.55926884486202,46.7021472463606,82.8333333333333));
#944=CARTESIAN_POINT('Ctrl Pts',(6.85066722162119,36.953894229635,87.1666666666667));
#945=CARTESIAN_POINT('Ctrl Pts',(9.14215104135199,27.2060422838722,91.5));
#946=CARTESIAN_POINT('Ctrl Pts',(3.40167844415891,56.4499991921233,78.5));
#947=CARTESIAN_POINT('Ctrl Pts',(6.72892309101694,47.4985441106938,82.8333333333333));
#948=CARTESIAN_POINT('Ctrl Pts',(10.0559364906623,38.5483351166232,87.1666666666667));
#949=CARTESIAN_POINT('Ctrl Pts',(13.3831811375203,29.5968800351937,91.5));
#950=CARTESIAN_POINT('Ctrl Pts',(3.96862515367275,56.4499991921233,78.5));
#951=CARTESIAN_POINT('Ctrl Pts',(7.7422086204171,47.9901126095576,82.8333333333333));
#952=CARTESIAN_POINT('Ctrl Pts',(11.5157920871615,39.5302260269919,87.1666666666667));
#953=CARTESIAN_POINT('Ctrl Pts',(15.2893755539058,31.0703394444262,91.5));
#954=CARTESIAN_POINT('',(-3.96862877952109,56.4499991921233,78.5));
#955=CARTESIAN_POINT('',(3.96862515367275,56.4499991921233,78.5));
#956=CARTESIAN_POINT('',(3.96862515367275,56.4499991921233,78.5));
#957=CARTESIAN_POINT('',(-3.96862877952109,56.4499991921233,78.5));
#958=CARTESIAN_POINT('',(3.96862515367275,56.4499991921233,78.5));
#959=CARTESIAN_POINT('Ctrl Pts',(3.96862515367275,56.4499991921233,78.5));
#960=CARTESIAN_POINT('Ctrl Pts',(7.7422086204171,47.9901126095576,82.8333333333333));
#961=CARTESIAN_POINT('Ctrl Pts',(11.5157920871615,39.5302260269919,87.1666666666667));
#962=CARTESIAN_POINT('Ctrl Pts',(15.2893755539058,31.0703394444262,91.5));
#963=CARTESIAN_POINT('Ctrl Pts',(4.48695195491054,56.9071204634349,78.5));
#964=CARTESIAN_POINT('Ctrl Pts',(8.86253200599044,48.8931564806553,82.8333333333333));
#965=CARTESIAN_POINT('Ctrl Pts',(13.2374275427865,40.8804357962043,87.1666666666667));
#966=CARTESIAN_POINT('Ctrl Pts',(17.6130075938664,32.8664718134247,91.5));
#967=CARTESIAN_POINT('Ctrl Pts',(5.36394700264209,58.0021133280937,78.5));
#968=CARTESIAN_POINT('Ctrl Pts',(10.7826338910654,51.0968227645839,82.8333333333333));
#969=CARTESIAN_POINT('Ctrl Pts',(16.2013991013756,44.1908101317434,87.1666666666667));
#970=CARTESIAN_POINT('Ctrl Pts',(21.6200859897989,37.2855195682336,91.5));
#971=CARTESIAN_POINT('Ctrl Pts',(6.04563758119358,59.9931666308072,78.5));
#972=CARTESIAN_POINT('Ctrl Pts',(12.3551831745405,55.1891923717734,82.8333333333333));
#973=CARTESIAN_POINT('Ctrl Pts',(18.6650705395561,50.3856760500561,87.1666666666667));
#974=CARTESIAN_POINT('Ctrl Pts',(24.974616132903,45.5817017910223,91.5));
#975=CARTESIAN_POINT('Ctrl Pts',(6.01201708759114,62.0974645708955,78.5));
#976=CARTESIAN_POINT('Ctrl Pts',(12.4269953443945,59.5739853518274,82.8333333333333));
#977=CARTESIAN_POINT('Ctrl Pts',(18.8415369097471,57.0496510054264,87.1666666666666));
#978=CARTESIAN_POINT('Ctrl Pts',(25.2565151665504,54.5261717863583,91.5));
#979=CARTESIAN_POINT('Ctrl Pts',(5.26806038624609,64.0656683134226,78.5));
#980=CARTESIAN_POINT('Ctrl Pts',(10.9907586614724,63.7159220620349,82.8333333333333));
#981=CARTESIAN_POINT('Ctrl Pts',(16.7129229223013,63.3664413451277,87.1666666666667));
#982=CARTESIAN_POINT('Ctrl Pts',(22.4356211975276,63.0166950937401,91.5));
#983=CARTESIAN_POINT('Ctrl Pts',(3.901122415634,65.6663593235788,78.5));
#984=CARTESIAN_POINT('Ctrl Pts',(8.21944707470193,67.1170266688432,82.8333333333333));
#985=CARTESIAN_POINT('Ctrl Pts',(12.5377464690696,68.5647062224124,87.1666666666666));
#986=CARTESIAN_POINT('Ctrl Pts',(16.8560711281376,70.0153735676768,91.5));
#987=CARTESIAN_POINT('Ctrl Pts',(2.27642623627046,66.5922504683521,78.5));
#988=CARTESIAN_POINT('Ctrl Pts',(4.86972446730619,69.106106702122,82.8333333333333));
#989=CARTESIAN_POINT('Ctrl Pts',(7.46271366806988,71.622460410072,87.1666666666667));
#990=CARTESIAN_POINT('Ctrl Pts',(10.0560118991056,74.1363166438418,91.5));
#991=CARTESIAN_POINT('Ctrl Pts',(0.243848368202878,67.0703211911051,78.5));
#992=CARTESIAN_POINT('Ctrl Pts',(0.649216385579516,70.1647657815747,82.8333333333333));
#993=CARTESIAN_POINT('Ctrl Pts',(1.05537860107888,73.2565177218266,87.1666666666666));
#994=CARTESIAN_POINT('Ctrl Pts',(1.46074661845551,76.3509623122961,91.4999999999999));
#995=CARTESIAN_POINT('Ctrl Pts',(-1.6346394878618,66.8526517736002,78.5));
#996=CARTESIAN_POINT('Ctrl Pts',(-3.27045040248253,69.7478904841941,82.8333333333333));
#997=CARTESIAN_POINT('Ctrl Pts',(-4.90664523411067,72.6437493745017,87.1666666666667));
#998=CARTESIAN_POINT('Ctrl Pts',(-6.54245614873141,75.5389880850956,91.5));
#999=CARTESIAN_POINT('Ctrl Pts',(-3.71282439363115,65.8210656472963,78.5));
#1000=CARTESIAN_POINT('Ctrl Pts',(-7.6115430303356,67.6201688643932,82.8333333333333));
#1001=CARTESIAN_POINT('Ctrl Pts',(-11.5099853133842,69.4200652919559,87.1666666666667));
#1002=CARTESIAN_POINT('Ctrl Pts',(-15.4087039500887,71.2191685090528,91.5));
#1003=CARTESIAN_POINT('Ctrl Pts',(-5.18665946569772,64.2864733781491,78.5));
#1004=CARTESIAN_POINT('Ctrl Pts',(-10.6848510658325,64.4224012068039,82.8333333333333));
#1005=CARTESIAN_POINT('Ctrl Pts',(-16.1836051747611,64.5586355302756,87.1666666666667));
#1006=CARTESIAN_POINT('Ctrl Pts',(-21.6817967748959,64.6945633589304,91.5));
#1007=CARTESIAN_POINT('Ctrl Pts',(-6.01166786874088,62.0970238246454,78.5));
#1008=CARTESIAN_POINT('Ctrl Pts',(-12.3809405316061,59.8503470070547,82.8333333333333));
#1009=CARTESIAN_POINT('Ctrl Pts',(-18.7501624540221,57.6046937980496,87.1666666666667));
#1010=CARTESIAN_POINT('Ctrl Pts',(-25.1194351168873,55.3580169804589,91.5));
#1011=CARTESIAN_POINT('Ctrl Pts',(-6.04569616486768,59.9937385673137,78.5));
#1012=CARTESIAN_POINT('Ctrl Pts',(-12.4091153190261,55.4669622832365,82.8333333333333));
#1013=CARTESIAN_POINT('Ctrl Pts',(-18.772095515215,50.9404801933646,87.1666666666667));
#1014=CARTESIAN_POINT('Ctrl Pts',(-25.1355146693735,46.4137039092874,91.5));
#1015=CARTESIAN_POINT('Ctrl Pts',(-5.36385496584708,58.0019965457986,78.5));
#1016=CARTESIAN_POINT('Ctrl Pts',(-10.927984799428,51.3371150157959,82.8333333333333));
#1017=CARTESIAN_POINT('Ctrl Pts',(-16.4925956840427,44.6728089781483,87.1666666666667));
#1018=CARTESIAN_POINT('Ctrl Pts',(-22.0567255176235,38.0079274481457,91.5));
#1019=CARTESIAN_POINT('Ctrl Pts',(-4.48695558075888,56.9071204634349,78.5));
#1020=CARTESIAN_POINT('Ctrl Pts',(-9.0578499996373,49.091058628633,82.8333333333333));
#1021=CARTESIAN_POINT('Ctrl Pts',(-13.6276242973165,41.2752778396889,87.1666666666667));
#1022=CARTESIAN_POINT('Ctrl Pts',(-18.1985187161949,33.4592160048869,91.5));
#1023=CARTESIAN_POINT('Ctrl Pts',(-3.96862877952109,56.4499991921233,78.5));
#1024=CARTESIAN_POINT('Ctrl Pts',(-7.95761970522786,48.1623888356584,82.8333333333333));
#1025=CARTESIAN_POINT('Ctrl Pts',(-11.9466106309346,39.8747784791935,87.1666666666667));
#1026=CARTESIAN_POINT('Ctrl Pts',(-15.9356015566414,31.5871681227286,91.5));
#1027=CARTESIAN_POINT('Origin',(-1.81292418216517E-6,60.9499991921233,78.5));
#1028=CARTESIAN_POINT('Origin',(14.2910151132061,63.9155363963298,73.5));
#1029=CARTESIAN_POINT('',(14.4953349230012,64.135202996708,73.5));
#1030=CARTESIAN_POINT('Origin',(14.2910151132061,63.9155363963298,73.5));
#1031=CARTESIAN_POINT('',(14.4953349230012,64.135202996708,75.5));
#1032=CARTESIAN_POINT('Origin',(14.2910151132061,63.9155363963298,75.5));
#1033=CARTESIAN_POINT('',(14.4953349230012,64.135202996708,73.5));
#1034=CARTESIAN_POINT('Origin',(14.9740648173279,63.6899190947149,73.5));
#1035=CARTESIAN_POINT('',(14.9740648173278,63.6899190947148,73.5));
#1036=CARTESIAN_POINT('',(14.4953349230012,64.135202996708,73.5));
#1037=CARTESIAN_POINT('',(14.9740648173278,63.6899190947148,75.5));
#1038=CARTESIAN_POINT('',(14.4953349230012,64.135202996708,75.5));
#1039=CARTESIAN_POINT('',(14.9740648173278,63.6899190947148,73.5));
#1040=CARTESIAN_POINT('Origin',(14.7697450075287,63.4702524943323,73.5));
#1041=CARTESIAN_POINT('Origin',(14.7697450075287,63.4702524943323,73.5));
#1042=CARTESIAN_POINT('Origin',(14.7697450075287,63.4702524943323,75.5));
#1043=CARTESIAN_POINT('Origin',(14.1790278474247,63.3369018237207,75.5));
#1044=CARTESIAN_POINT('Origin',(3.96862515367275,56.4499991921233,73.5));
#1045=CARTESIAN_POINT('',(3.96862515367275,56.4499991921233,73.5));
#1046=CARTESIAN_POINT('',(-3.96862877952108,56.4499991921233,73.5));
#1047=CARTESIAN_POINT('',(3.96862515367275,56.4499991921233,73.5));
#1048=CARTESIAN_POINT('',(-3.96862877952108,56.4499991921233,73.5));
#1049=CARTESIAN_POINT('',(3.96862515367275,56.4499991921233,73.5));
#1050=CARTESIAN_POINT('Origin',(-1.81292418216517E-6,60.9499991921233,73.5));
#1051=CARTESIAN_POINT('Origin',(-1.81292418216517E-6,60.9499991921233,73.5));
#1052=CARTESIAN_POINT('Origin',(-1.81292418188761E-6,50.8499991921233,73.5));
#1053=CARTESIAN_POINT('Origin',(-1.81292418410806E-6,50.8499991921233,93.5));
#1054=CARTESIAN_POINT('Origin',(-1.81292418410806E-6,50.8499991921233,91.5));
#1055=CARTESIAN_POINT('',(-31.5000018129242,50.8499991921233,91.5));
#1056=UNCERTAINTY_MEASURE_WITH_UNIT(LENGTH_MEASURE(0.01),#1060,
'DISTANCE_ACCURACY_VALUE',
'Maximum model space distance between geometric entities at asserted c
onnectivities');
#1057=UNCERTAINTY_MEASURE_WITH_UNIT(LENGTH_MEASURE(0.01),#1060,
'DISTANCE_ACCURACY_VALUE',
'Maximum model space distance between geometric entities at asserted c
onnectivities');
#1058=(
GEOMETRIC_REPRESENTATION_CONTEXT(3)
GLOBAL_UNCERTAINTY_ASSIGNED_CONTEXT((#1056))
GLOBAL_UNIT_ASSIGNED_CONTEXT((#1060,#1062,#1063))
REPRESENTATION_CONTEXT('','3D')
);
#1059=(
GEOMETRIC_REPRESENTATION_CONTEXT(3)
GLOBAL_UNCERTAINTY_ASSIGNED_CONTEXT((#1057))
GLOBAL_UNIT_ASSIGNED_CONTEXT((#1060,#1062,#1063))
REPRESENTATION_CONTEXT('','3D')
);
#1060=(
LENGTH_UNIT()
NAMED_UNIT(*)
SI_UNIT(.MILLI.,.METRE.)
);
#1061=(
LENGTH_UNIT()
NAMED_UNIT(*)
SI_UNIT($,.METRE.)
);
#1062=(
NAMED_UNIT(*)
PLANE_ANGLE_UNIT()
SI_UNIT($,.RADIAN.)
);
#1063=(
NAMED_UNIT(*)
SI_UNIT($,.STERADIAN.)
SOLID_ANGLE_UNIT()
);
#1064=SHAPE_DEFINITION_REPRESENTATION(#1065,#1066);
#1065=PRODUCT_DEFINITION_SHAPE('',$,#1068);
#1066=SHAPE_REPRESENTATION('',(#555),#1058);
#1067=PRODUCT_DEFINITION_CONTEXT('part definition',#1072,'design');
#1068=PRODUCT_DEFINITION('HOPPER FUNNEL','HOPPER FUNNEL',#1069,#1067);
#1069=PRODUCT_DEFINITION_FORMATION('',$,#1074);
#1070=PRODUCT_RELATED_PRODUCT_CATEGORY('HOPPER FUNNEL','HOPPER FUNNEL',
(#1074));
#1071=APPLICATION_PROTOCOL_DEFINITION('international standard',
'automotive_design',2009,#1072);
#1072=APPLICATION_CONTEXT(
'Core Data for Automotive Mechanical Design Process');
#1073=PRODUCT_CONTEXT('part definition',#1072,'mechanical');
#1074=PRODUCT('HOPPER FUNNEL','HOPPER FUNNEL',$,(#1073));
#1075=PRESENTATION_STYLE_ASSIGNMENT((#1076));
#1076=SURFACE_STYLE_USAGE(.BOTH.,#1077);
#1077=SURFACE_SIDE_STYLE('',(#1078));
#1078=SURFACE_STYLE_FILL_AREA(#1079);
#1079=FILL_AREA_STYLE('Steel - Satin',(#1080));
#1080=FILL_AREA_STYLE_COLOUR('Steel - Satin',#1081);
#1081=COLOUR_RGB('Steel - Satin',0.627450980392157,0.627450980392157,0.627450980392157);
ENDSEC;
END-ISO-10303-21;
