ISO-10303-21;
HEADER;
/* Generated by software containing ST-Developer
 * from STEP Tools, Inc. (www.steptools.com) 
 */

FILE_DESCRIPTION(
/* description */ (''),
/* implementation_level */ '2;1');

FILE_NAME(
/* name */ 'POWDER TUBE LID.step',
/* time_stamp */ '2026-03-23T18:16:06-05:00',
/* author */ (''),
/* organization */ (''),
/* preprocessor_version */ 'ST-DEVELOPER v20.1',
/* originating_system */ 'Autodesk Translation Framework v14.24.0.0',
/* authorisation */ '');

FILE_SCHEMA (('AUTOMOTIVE_DESIGN { 1 0 10303 214 3 1 1 }'));
ENDSEC;

DATA;
#10=MECHANICAL_DESIGN_GEOMETRIC_PRESENTATION_REPRESENTATION('',(#13),#345);
#11=SHAPE_REPRESENTATION_RELATIONSHIP('SRR','None',#352,#12);
#12=ADVANCED_BREP_SHAPE_REPRESENTATION('',(#14),#344);
#13=STYLED_ITEM('',(#361),#14);
#14=MANIFOLD_SOLID_BREP('Lid',#179);
#15=LINE('',#306,#19);
#16=LINE('',#314,#20);
#17=LINE('',#329,#21);
#18=LINE('',#338,#22);
#19=VECTOR('',#242,25.);
#20=VECTOR('',#253,26.5);
#21=VECTOR('',#272,30.);
#22=VECTOR('',#285,31.5);
#23=CYLINDRICAL_SURFACE('',#200,25.);
#24=CYLINDRICAL_SURFACE('',#205,26.5);
#25=CYLINDRICAL_SURFACE('',#214,30.);
#26=CYLINDRICAL_SURFACE('',#219,31.5);
#27=FACE_BOUND('',#50,.T.);
#28=FACE_BOUND('',#56,.T.);
#29=FACE_BOUND('',#61,.T.);
#30=PLANE('',#198);
#31=PLANE('',#212);
#32=PLANE('',#221);
#33=PLANE('',#222);
#34=PLANE('',#223);
#35=FACE_OUTER_BOUND('',#48,.T.);
#36=FACE_OUTER_BOUND('',#49,.T.);
#37=FACE_OUTER_BOUND('',#51,.T.);
#38=FACE_OUTER_BOUND('',#52,.T.);
#39=FACE_OUTER_BOUND('',#53,.T.);
#40=FACE_OUTER_BOUND('',#54,.T.);
#41=FACE_OUTER_BOUND('',#55,.T.);
#42=FACE_OUTER_BOUND('',#57,.T.);
#43=FACE_OUTER_BOUND('',#58,.T.);
#44=FACE_OUTER_BOUND('',#59,.T.);
#45=FACE_OUTER_BOUND('',#60,.T.);
#46=FACE_OUTER_BOUND('',#62,.T.);
#47=FACE_OUTER_BOUND('',#63,.T.);
#48=EDGE_LOOP('',(#118,#119,#120,#121,#122));
#49=EDGE_LOOP('',(#123));
#50=EDGE_LOOP('',(#124));
#51=EDGE_LOOP('',(#125,#126,#127,#128,#129));
#52=EDGE_LOOP('',(#130,#131,#132,#133));
#53=EDGE_LOOP('',(#134,#135,#136,#137));
#54=EDGE_LOOP('',(#138,#139,#140,#141,#142));
#55=EDGE_LOOP('',(#143));
#56=EDGE_LOOP('',(#144));
#57=EDGE_LOOP('',(#145,#146,#147,#148,#149));
#58=EDGE_LOOP('',(#150,#151,#152,#153));
#59=EDGE_LOOP('',(#154,#155,#156,#157));
#60=EDGE_LOOP('',(#158));
#61=EDGE_LOOP('',(#159));
#62=EDGE_LOOP('',(#160));
#63=EDGE_LOOP('',(#161));
#64=CIRCLE('',#194,25.5);
#65=CIRCLE('',#195,0.5);
#66=CIRCLE('',#196,25.);
#67=CIRCLE('',#197,25.);
#68=CIRCLE('',#199,26.);
#69=CIRCLE('',#201,25.);
#70=CIRCLE('',#203,0.5);
#71=CIRCLE('',#204,26.5);
#72=CIRCLE('',#206,26.5);
#73=CIRCLE('',#208,30.5);
#74=CIRCLE('',#209,0.5);
#75=CIRCLE('',#210,30.);
#76=CIRCLE('',#211,30.);
#77=CIRCLE('',#213,31.);
#78=CIRCLE('',#215,30.);
#79=CIRCLE('',#217,0.5);
#80=CIRCLE('',#218,31.5);
#81=CIRCLE('',#220,31.5);
#82=VERTEX_POINT('',#294);
#83=VERTEX_POINT('',#296);
#84=VERTEX_POINT('',#298);
#85=VERTEX_POINT('',#302);
#86=VERTEX_POINT('',#305);
#87=VERTEX_POINT('',#309);
#88=VERTEX_POINT('',#313);
#89=VERTEX_POINT('',#317);
#90=VERTEX_POINT('',#319);
#91=VERTEX_POINT('',#321);
#92=VERTEX_POINT('',#325);
#93=VERTEX_POINT('',#328);
#94=VERTEX_POINT('',#332);
#95=VERTEX_POINT('',#336);
#96=EDGE_CURVE('',#82,#82,#64,.T.);
#97=EDGE_CURVE('',#82,#83,#65,.T.);
#98=EDGE_CURVE('',#83,#84,#66,.T.);
#99=EDGE_CURVE('',#84,#83,#67,.T.);
#100=EDGE_CURVE('',#85,#85,#68,.T.);
#101=EDGE_CURVE('',#84,#86,#15,.T.);
#102=EDGE_CURVE('',#86,#86,#69,.T.);
#103=EDGE_CURVE('',#85,#87,#70,.T.);
#104=EDGE_CURVE('',#87,#87,#71,.T.);
#105=EDGE_CURVE('',#87,#88,#16,.T.);
#106=EDGE_CURVE('',#88,#88,#72,.T.);
#107=EDGE_CURVE('',#89,#89,#73,.T.);
#108=EDGE_CURVE('',#89,#90,#74,.T.);
#109=EDGE_CURVE('',#90,#91,#75,.T.);
#110=EDGE_CURVE('',#91,#90,#76,.T.);
#111=EDGE_CURVE('',#92,#92,#77,.T.);
#112=EDGE_CURVE('',#91,#93,#17,.T.);
#113=EDGE_CURVE('',#93,#93,#78,.T.);
#114=EDGE_CURVE('',#92,#94,#79,.T.);
#115=EDGE_CURVE('',#94,#94,#80,.T.);
#116=EDGE_CURVE('',#95,#95,#81,.T.);
#117=EDGE_CURVE('',#95,#94,#18,.T.);
#118=ORIENTED_EDGE('',*,*,#96,.T.);
#119=ORIENTED_EDGE('',*,*,#97,.T.);
#120=ORIENTED_EDGE('',*,*,#98,.T.);
#121=ORIENTED_EDGE('',*,*,#99,.T.);
#122=ORIENTED_EDGE('',*,*,#97,.F.);
#123=ORIENTED_EDGE('',*,*,#100,.F.);
#124=ORIENTED_EDGE('',*,*,#96,.F.);
#125=ORIENTED_EDGE('',*,*,#99,.F.);
#126=ORIENTED_EDGE('',*,*,#101,.T.);
#127=ORIENTED_EDGE('',*,*,#102,.F.);
#128=ORIENTED_EDGE('',*,*,#101,.F.);
#129=ORIENTED_EDGE('',*,*,#98,.F.);
#130=ORIENTED_EDGE('',*,*,#100,.T.);
#131=ORIENTED_EDGE('',*,*,#103,.T.);
#132=ORIENTED_EDGE('',*,*,#104,.T.);
#133=ORIENTED_EDGE('',*,*,#103,.F.);
#134=ORIENTED_EDGE('',*,*,#104,.F.);
#135=ORIENTED_EDGE('',*,*,#105,.T.);
#136=ORIENTED_EDGE('',*,*,#106,.F.);
#137=ORIENTED_EDGE('',*,*,#105,.F.);
#138=ORIENTED_EDGE('',*,*,#107,.T.);
#139=ORIENTED_EDGE('',*,*,#108,.T.);
#140=ORIENTED_EDGE('',*,*,#109,.T.);
#141=ORIENTED_EDGE('',*,*,#110,.T.);
#142=ORIENTED_EDGE('',*,*,#108,.F.);
#143=ORIENTED_EDGE('',*,*,#111,.F.);
#144=ORIENTED_EDGE('',*,*,#107,.F.);
#145=ORIENTED_EDGE('',*,*,#110,.F.);
#146=ORIENTED_EDGE('',*,*,#112,.T.);
#147=ORIENTED_EDGE('',*,*,#113,.F.);
#148=ORIENTED_EDGE('',*,*,#112,.F.);
#149=ORIENTED_EDGE('',*,*,#109,.F.);
#150=ORIENTED_EDGE('',*,*,#111,.T.);
#151=ORIENTED_EDGE('',*,*,#114,.T.);
#152=ORIENTED_EDGE('',*,*,#115,.T.);
#153=ORIENTED_EDGE('',*,*,#114,.F.);
#154=ORIENTED_EDGE('',*,*,#116,.F.);
#155=ORIENTED_EDGE('',*,*,#117,.T.);
#156=ORIENTED_EDGE('',*,*,#115,.F.);
#157=ORIENTED_EDGE('',*,*,#117,.F.);
#158=ORIENTED_EDGE('',*,*,#113,.T.);
#159=ORIENTED_EDGE('',*,*,#106,.T.);
#160=ORIENTED_EDGE('',*,*,#116,.T.);
#161=ORIENTED_EDGE('',*,*,#102,.T.);
#162=TOROIDAL_SURFACE('',#193,25.5,0.5);
#163=TOROIDAL_SURFACE('',#202,26.,0.5);
#164=TOROIDAL_SURFACE('',#207,30.5,0.5);
#165=TOROIDAL_SURFACE('',#216,31.,0.5);
#166=ADVANCED_FACE('',(#35),#162,.T.);
#167=ADVANCED_FACE('',(#36,#27),#30,.F.);
#168=ADVANCED_FACE('',(#37),#23,.F.);
#169=ADVANCED_FACE('',(#38),#163,.T.);
#170=ADVANCED_FACE('',(#39),#24,.T.);
#171=ADVANCED_FACE('',(#40),#164,.T.);
#172=ADVANCED_FACE('',(#41,#28),#31,.F.);
#173=ADVANCED_FACE('',(#42),#25,.F.);
#174=ADVANCED_FACE('',(#43),#165,.T.);
#175=ADVANCED_FACE('',(#44),#26,.T.);
#176=ADVANCED_FACE('',(#45,#29),#32,.F.);
#177=ADVANCED_FACE('',(#46),#33,.T.);
#178=ADVANCED_FACE('',(#47),#34,.F.);
#179=CLOSED_SHELL('',(#166,#167,#168,#169,#170,#171,#172,#173,#174,#175,
#176,#177,#178));
#180=DERIVED_UNIT_ELEMENT(#182,1.);
#181=DERIVED_UNIT_ELEMENT(#347,-3.);
#182=(
MASS_UNIT()
NAMED_UNIT(*)
SI_UNIT(.KILO.,.GRAM.)
);
#183=DERIVED_UNIT((#180,#181));
#184=MEASURE_REPRESENTATION_ITEM('density measure',
POSITIVE_RATIO_MEASURE(7850.),#183);
#185=PROPERTY_DEFINITION_REPRESENTATION(#190,#187);
#186=PROPERTY_DEFINITION_REPRESENTATION(#191,#188);
#187=REPRESENTATION('material name',(#189),#344);
#188=REPRESENTATION('density',(#184),#344);
#189=DESCRIPTIVE_REPRESENTATION_ITEM('Steel','Steel');
#190=PROPERTY_DEFINITION('material property','material name',#354);
#191=PROPERTY_DEFINITION('material property','density of part',#354);
#192=AXIS2_PLACEMENT_3D('',#292,#224,#225);
#193=AXIS2_PLACEMENT_3D('',#293,#226,#227);
#194=AXIS2_PLACEMENT_3D('',#295,#228,#229);
#195=AXIS2_PLACEMENT_3D('',#297,#230,#231);
#196=AXIS2_PLACEMENT_3D('',#299,#232,#233);
#197=AXIS2_PLACEMENT_3D('',#300,#234,#235);
#198=AXIS2_PLACEMENT_3D('',#301,#236,#237);
#199=AXIS2_PLACEMENT_3D('',#303,#238,#239);
#200=AXIS2_PLACEMENT_3D('',#304,#240,#241);
#201=AXIS2_PLACEMENT_3D('',#307,#243,#244);
#202=AXIS2_PLACEMENT_3D('',#308,#245,#246);
#203=AXIS2_PLACEMENT_3D('',#310,#247,#248);
#204=AXIS2_PLACEMENT_3D('',#311,#249,#250);
#205=AXIS2_PLACEMENT_3D('',#312,#251,#252);
#206=AXIS2_PLACEMENT_3D('',#315,#254,#255);
#207=AXIS2_PLACEMENT_3D('',#316,#256,#257);
#208=AXIS2_PLACEMENT_3D('',#318,#258,#259);
#209=AXIS2_PLACEMENT_3D('',#320,#260,#261);
#210=AXIS2_PLACEMENT_3D('',#322,#262,#263);
#211=AXIS2_PLACEMENT_3D('',#323,#264,#265);
#212=AXIS2_PLACEMENT_3D('',#324,#266,#267);
#213=AXIS2_PLACEMENT_3D('',#326,#268,#269);
#214=AXIS2_PLACEMENT_3D('',#327,#270,#271);
#215=AXIS2_PLACEMENT_3D('',#330,#273,#274);
#216=AXIS2_PLACEMENT_3D('',#331,#275,#276);
#217=AXIS2_PLACEMENT_3D('',#333,#277,#278);
#218=AXIS2_PLACEMENT_3D('',#334,#279,#280);
#219=AXIS2_PLACEMENT_3D('',#335,#281,#282);
#220=AXIS2_PLACEMENT_3D('',#337,#283,#284);
#221=AXIS2_PLACEMENT_3D('',#339,#286,#287);
#222=AXIS2_PLACEMENT_3D('',#340,#288,#289);
#223=AXIS2_PLACEMENT_3D('',#341,#290,#291);
#224=DIRECTION('axis',(0.,0.,1.));
#225=DIRECTION('refdir',(1.,0.,0.));
#226=DIRECTION('center_axis',(0.,0.,1.));
#227=DIRECTION('ref_axis',(1.,0.,0.));
#228=DIRECTION('center_axis',(0.,0.,-1.));
#229=DIRECTION('ref_axis',(-1.,0.,0.));
#230=DIRECTION('center_axis',(0.,-1.,0.));
#231=DIRECTION('ref_axis',(-1.,0.,0.));
#232=DIRECTION('center_axis',(0.,0.,1.));
#233=DIRECTION('ref_axis',(-1.,0.,0.));
#234=DIRECTION('center_axis',(0.,0.,1.));
#235=DIRECTION('ref_axis',(-1.,0.,0.));
#236=DIRECTION('center_axis',(0.,0.,1.));
#237=DIRECTION('ref_axis',(-1.,0.,0.));
#238=DIRECTION('center_axis',(0.,0.,1.));
#239=DIRECTION('ref_axis',(-1.,0.,0.));
#240=DIRECTION('center_axis',(0.,0.,-1.));
#241=DIRECTION('ref_axis',(-1.,0.,0.));
#242=DIRECTION('',(0.,0.,1.));
#243=DIRECTION('center_axis',(0.,0.,-1.));
#244=DIRECTION('ref_axis',(-1.,0.,0.));
#245=DIRECTION('center_axis',(0.,0.,-1.));
#246=DIRECTION('ref_axis',(-1.,0.,0.));
#247=DIRECTION('center_axis',(0.,-1.,0.));
#248=DIRECTION('ref_axis',(1.,0.,0.));
#249=DIRECTION('center_axis',(0.,0.,-1.));
#250=DIRECTION('ref_axis',(-1.,0.,0.));
#251=DIRECTION('center_axis',(0.,0.,-1.));
#252=DIRECTION('ref_axis',(-1.,0.,0.));
#253=DIRECTION('',(0.,0.,1.));
#254=DIRECTION('center_axis',(0.,0.,1.));
#255=DIRECTION('ref_axis',(-1.,0.,0.));
#256=DIRECTION('center_axis',(0.,0.,1.));
#257=DIRECTION('ref_axis',(1.,0.,0.));
#258=DIRECTION('center_axis',(0.,0.,-1.));
#259=DIRECTION('ref_axis',(-1.,0.,0.));
#260=DIRECTION('center_axis',(0.,-1.,0.));
#261=DIRECTION('ref_axis',(-1.,0.,0.));
#262=DIRECTION('center_axis',(0.,0.,1.));
#263=DIRECTION('ref_axis',(-1.,0.,0.));
#264=DIRECTION('center_axis',(0.,0.,1.));
#265=DIRECTION('ref_axis',(-1.,0.,0.));
#266=DIRECTION('center_axis',(0.,0.,1.));
#267=DIRECTION('ref_axis',(-1.,0.,0.));
#268=DIRECTION('center_axis',(0.,0.,1.));
#269=DIRECTION('ref_axis',(-1.,0.,0.));
#270=DIRECTION('center_axis',(0.,0.,-1.));
#271=DIRECTION('ref_axis',(-1.,0.,0.));
#272=DIRECTION('',(0.,0.,1.));
#273=DIRECTION('center_axis',(0.,0.,-1.));
#274=DIRECTION('ref_axis',(-1.,0.,0.));
#275=DIRECTION('center_axis',(0.,0.,-1.));
#276=DIRECTION('ref_axis',(-1.,0.,0.));
#277=DIRECTION('center_axis',(0.,-1.,0.));
#278=DIRECTION('ref_axis',(1.,0.,0.));
#279=DIRECTION('center_axis',(0.,0.,-1.));
#280=DIRECTION('ref_axis',(-1.,0.,0.));
#281=DIRECTION('center_axis',(0.,0.,1.));
#282=DIRECTION('ref_axis',(-1.,0.,0.));
#283=DIRECTION('center_axis',(0.,0.,1.));
#284=DIRECTION('ref_axis',(-1.,0.,0.));
#285=DIRECTION('',(0.,0.,-1.));
#286=DIRECTION('center_axis',(0.,0.,1.));
#287=DIRECTION('ref_axis',(-1.,0.,0.));
#288=DIRECTION('center_axis',(0.,0.,1.));
#289=DIRECTION('ref_axis',(-1.,0.,0.));
#290=DIRECTION('center_axis',(0.,0.,1.));
#291=DIRECTION('ref_axis',(-1.,0.,0.));
#292=CARTESIAN_POINT('',(0.,0.,0.));
#293=CARTESIAN_POINT('Origin',(-1.81292418410806E-6,50.8499991921233,158.));
#294=CARTESIAN_POINT('',(-25.5000018129242,50.8499991921233,157.5));
#295=CARTESIAN_POINT('Origin',(-1.81292418410806E-6,50.8499991921233,157.5));
#296=CARTESIAN_POINT('',(-25.0000018129242,50.8499991921233,158.));
#297=CARTESIAN_POINT('Origin',(-25.5000018129242,50.8499991921233,158.));
#298=CARTESIAN_POINT('',(24.9999981870758,50.8499991921233,158.));
#299=CARTESIAN_POINT('Origin',(-1.81292418410806E-6,50.8499991921233,158.));
#300=CARTESIAN_POINT('Origin',(-1.81292418410806E-6,50.8499991921233,158.));
#301=CARTESIAN_POINT('Origin',(-1.81292418410806E-6,50.8499991921233,157.5));
#302=CARTESIAN_POINT('',(25.9999981870758,50.8499991921233,157.5));
#303=CARTESIAN_POINT('Origin',(-1.81292418410806E-6,50.8499991921233,157.5));
#304=CARTESIAN_POINT('Origin',(-1.81292418410806E-6,50.8499991921233,163.5));
#305=CARTESIAN_POINT('',(24.9999981870758,50.8499991921233,163.5));
#306=CARTESIAN_POINT('',(24.9999981870758,50.8499991921233,163.5));
#307=CARTESIAN_POINT('Origin',(-1.81292418410806E-6,50.8499991921233,163.5));
#308=CARTESIAN_POINT('Origin',(-1.81292418410806E-6,50.8499991921233,158.));
#309=CARTESIAN_POINT('',(26.4999981870758,50.8499991921233,158.));
#310=CARTESIAN_POINT('Origin',(25.9999981870758,50.8499991921233,158.));
#311=CARTESIAN_POINT('Origin',(-1.81292418410806E-6,50.8499991921233,158.));
#312=CARTESIAN_POINT('Origin',(-1.81292418410806E-6,50.8499991921233,163.5));
#313=CARTESIAN_POINT('',(26.4999981870758,50.8499991921233,163.5));
#314=CARTESIAN_POINT('',(26.4999981870758,50.8499991921233,163.5));
#315=CARTESIAN_POINT('Origin',(-1.81292418410806E-6,50.8499991921233,163.5));
#316=CARTESIAN_POINT('Origin',(-1.81292418410806E-6,50.8499991921233,156.));
#317=CARTESIAN_POINT('',(-30.5000018129242,50.8499991921233,155.5));
#318=CARTESIAN_POINT('Origin',(-1.81292418410806E-6,50.8499991921233,155.5));
#319=CARTESIAN_POINT('',(-30.0000018129242,50.8499991921233,156.));
#320=CARTESIAN_POINT('Origin',(-30.5000018129242,50.8499991921233,156.));
#321=CARTESIAN_POINT('',(29.9999981870758,50.8499991921233,156.));
#322=CARTESIAN_POINT('Origin',(-1.81292418410806E-6,50.8499991921233,156.));
#323=CARTESIAN_POINT('Origin',(-1.81292418410806E-6,50.8499991921233,156.));
#324=CARTESIAN_POINT('Origin',(-1.81292418410806E-6,50.8499991921233,155.5));
#325=CARTESIAN_POINT('',(30.9999981870758,50.8499991921233,155.5));
#326=CARTESIAN_POINT('Origin',(-1.81292418410806E-6,50.8499991921233,155.5));
#327=CARTESIAN_POINT('Origin',(-1.81292418410806E-6,50.8499991921233,163.5));
#328=CARTESIAN_POINT('',(29.9999981870758,50.8499991921233,163.5));
#329=CARTESIAN_POINT('',(29.9999981870758,50.8499991921233,163.5));
#330=CARTESIAN_POINT('Origin',(-1.81292418410806E-6,50.8499991921233,163.5));
#331=CARTESIAN_POINT('Origin',(-1.81292418410806E-6,50.8499991921233,156.));
#332=CARTESIAN_POINT('',(31.4999981870758,50.8499991921233,156.));
#333=CARTESIAN_POINT('Origin',(30.9999981870758,50.8499991921233,156.));
#334=CARTESIAN_POINT('Origin',(-1.81292418410806E-6,50.8499991921233,156.));
#335=CARTESIAN_POINT('Origin',(-1.81292418410806E-6,50.8499991921233,163.5));
#336=CARTESIAN_POINT('',(31.4999981870758,50.8499991921233,166.5));
#337=CARTESIAN_POINT('Origin',(-1.81292418410806E-6,50.8499991921233,166.5));
#338=CARTESIAN_POINT('',(31.4999981870758,50.8499991921233,163.5));
#339=CARTESIAN_POINT('Origin',(-1.81292418410806E-6,50.8499991921233,163.5));
#340=CARTESIAN_POINT('Origin',(-1.81292418410806E-6,50.8499991921233,166.5));
#341=CARTESIAN_POINT('Origin',(-1.81292418410806E-6,50.8499991921233,163.5));
#342=UNCERTAINTY_MEASURE_WITH_UNIT(LENGTH_MEASURE(0.01),#346,
'DISTANCE_ACCURACY_VALUE',
'Maximum model space distance between geometric entities at asserted c
onnectivities');
#343=UNCERTAINTY_MEASURE_WITH_UNIT(LENGTH_MEASURE(0.01),#346,
'DISTANCE_ACCURACY_VALUE',
'Maximum model space distance between geometric entities at asserted c
onnectivities');
#344=(
GEOMETRIC_REPRESENTATION_CONTEXT(3)
GLOBAL_UNCERTAINTY_ASSIGNED_CONTEXT((#342))
GLOBAL_UNIT_ASSIGNED_CONTEXT((#346,#348,#349))
REPRESENTATION_CONTEXT('','3D')
);
#345=(
GEOMETRIC_REPRESENTATION_CONTEXT(3)
GLOBAL_UNCERTAINTY_ASSIGNED_CONTEXT((#343))
GLOBAL_UNIT_ASSIGNED_CONTEXT((#346,#348,#349))
REPRESENTATION_CONTEXT('','3D')
);
#346=(
LENGTH_UNIT()
NAMED_UNIT(*)
SI_UNIT(.MILLI.,.METRE.)
);
#347=(
LENGTH_UNIT()
NAMED_UNIT(*)
SI_UNIT($,.METRE.)
);
#348=(
NAMED_UNIT(*)
PLANE_ANGLE_UNIT()
SI_UNIT($,.RADIAN.)
);
#349=(
NAMED_UNIT(*)
SI_UNIT($,.STERADIAN.)
SOLID_ANGLE_UNIT()
);
#350=SHAPE_DEFINITION_REPRESENTATION(#351,#352);
#351=PRODUCT_DEFINITION_SHAPE('',$,#354);
#352=SHAPE_REPRESENTATION('',(#192),#344);
#353=PRODUCT_DEFINITION_CONTEXT('part definition',#358,'design');
#354=PRODUCT_DEFINITION('POWDER TUBE LID','POWDER TUBE LID',#355,#353);
#355=PRODUCT_DEFINITION_FORMATION('',$,#360);
#356=PRODUCT_RELATED_PRODUCT_CATEGORY('POWDER TUBE LID',
'POWDER TUBE LID',(#360));
#357=APPLICATION_PROTOCOL_DEFINITION('international standard',
'automotive_design',2009,#358);
#358=APPLICATION_CONTEXT(
'Core Data for Automotive Mechanical Design Process');
#359=PRODUCT_CONTEXT('part definition',#358,'mechanical');
#360=PRODUCT('POWDER TUBE LID','POWDER TUBE LID',$,(#359));
#361=PRESENTATION_STYLE_ASSIGNMENT((#362));
#362=SURFACE_STYLE_USAGE(.BOTH.,#363);
#363=SURFACE_SIDE_STYLE('',(#364));
#364=SURFACE_STYLE_FILL_AREA(#365);
#365=FILL_AREA_STYLE('Steel - Satin',(#366));
#366=FILL_AREA_STYLE_COLOUR('Steel - Satin',#367);
#367=COLOUR_RGB('Steel - Satin',0.627450980392157,0.627450980392157,0.627450980392157);
ENDSEC;
END-ISO-10303-21;
